<svg xmlns="http://www.w3.org/2000/svg" xmlns:xlink="http://www.w3.org/1999/xlink" width="1920" zoomAndPan="magnify" viewBox="0 0 1440 809.999993" height="1080" preserveAspectRatio="xMidYMid meet" version="1.0"><defs><g/><clipPath id="d1a3d377ab"><path d="M 1241 341 L 1320 341 L 1320 409 L 1241 409 Z M 1241 341 " clip-rule="nonzero"/></clipPath><clipPath id="35f54a01a5"><path d="M 1240.335938 341.589844 L 1319.828125 340.503906 L 1320.757812 408.75 L 1241.265625 409.832031 Z M 1240.335938 341.589844 " clip-rule="nonzero"/></clipPath><clipPath id="127807c398"><path d="M 1240.335938 341.589844 L 1319.828125 340.503906 L 1320.757812 408.75 L 1241.265625 409.832031 Z M 1240.335938 341.589844 " clip-rule="nonzero"/></clipPath><clipPath id="cd4793c093"><path d="M 1244 344 L 1317 344 L 1317 406 L 1244 406 Z M 1244 344 " clip-rule="nonzero"/></clipPath><clipPath id="e6fefef519"><path d="M 1243.375 344.113281 L 1316.867188 343.113281 L 1317.726562 406.109375 L 1244.234375 407.109375 Z M 1243.375 344.113281 " clip-rule="nonzero"/></clipPath><clipPath id="a4a498a5a1"><path d="M 1243.375 344.113281 L 1316.867188 343.113281 L 1317.726562 406.109375 L 1244.234375 407.109375 Z M 1243.375 344.113281 " clip-rule="nonzero"/></clipPath><clipPath id="f6137ecd3f"><path d="M 83 304 L 160 304 L 160 379 L 83 379 Z M 83 304 " clip-rule="nonzero"/></clipPath><clipPath id="dd627988bd"><path d="M 69.796875 338.488281 L 132.167969 289.191406 L 174.488281 342.734375 L 112.117188 392.03125 Z M 69.796875 338.488281 " clip-rule="nonzero"/></clipPath><clipPath id="e70e18faa9"><path d="M 69.796875 338.488281 L 132.167969 289.191406 L 174.488281 342.734375 L 112.117188 392.03125 Z M 69.796875 338.488281 " clip-rule="nonzero"/></clipPath><clipPath id="2d69b9af5f"><path d="M 86 307 L 157 307 L 157 376 L 86 376 Z M 86 307 " clip-rule="nonzero"/></clipPath><clipPath id="685ce084c8"><path d="M 73.746094 338.640625 L 131.410156 293.066406 L 170.476562 342.492188 L 112.8125 388.066406 Z M 73.746094 338.640625 " clip-rule="nonzero"/></clipPath><clipPath id="a9166ab005"><path d="M 73.746094 338.640625 L 131.410156 293.066406 L 170.476562 342.492188 L 112.8125 388.066406 Z M 73.746094 338.640625 " clip-rule="nonzero"/></clipPath></defs><g clip-path="url(#d1a3d377ab)"><g clip-path="url(#35f54a01a5)"><g clip-path="url(#127807c398)"><path fill="#7ed957" d="M 1259 364.824219 C 1261.230469 370.90625 1259.429688 377.15625 1254.984375 378.78125 C 1250.542969 380.410156 1245.132812 376.796875 1242.90625 370.71875 C 1240.679688 364.636719 1242.476562 358.386719 1246.921875 356.757812 C 1251.367188 355.128906 1256.773438 358.742188 1259 364.824219 Z M 1295.546875 407.769531 C 1293.578125 407.800781 1291.679688 407.453125 1289.851562 406.722656 C 1288.023438 405.996094 1286.402344 404.945312 1284.992188 403.570312 C 1284.734375 403.316406 1284.457031 403.09375 1284.152344 402.898438 C 1283.851562 402.699219 1283.53125 402.535156 1283.195312 402.402344 C 1282.863281 402.269531 1282.515625 402.167969 1282.164062 402.101562 C 1281.808594 402.039062 1281.449219 402.007812 1281.089844 402.011719 C 1280.730469 402.015625 1280.371094 402.058594 1280.019531 402.132812 C 1279.667969 402.207031 1279.324219 402.316406 1278.992188 402.460938 C 1278.664062 402.601562 1278.347656 402.777344 1278.050781 402.980469 C 1277.753906 403.183594 1277.480469 403.417969 1277.230469 403.675781 C 1276.550781 404.371094 1275.808594 405 1275.003906 405.550781 C 1274.203125 406.101562 1273.351562 406.570312 1272.457031 406.957031 C 1271.5625 407.34375 1270.640625 407.636719 1269.6875 407.839844 C 1268.734375 408.042969 1267.769531 408.148438 1266.792969 408.164062 C 1265.820312 408.175781 1264.855469 408.09375 1263.894531 407.917969 C 1262.9375 407.742188 1262.003906 407.472656 1261.101562 407.109375 C 1260.195312 406.75 1259.332031 406.304688 1258.515625 405.773438 C 1257.699219 405.246094 1256.941406 404.640625 1256.242188 403.960938 C 1255.542969 403.28125 1254.917969 402.539062 1254.367188 401.734375 C 1253.8125 400.933594 1253.34375 400.085938 1252.960938 399.1875 C 1252.574219 398.292969 1252.28125 397.371094 1252.078125 396.417969 C 1251.875 395.464844 1251.765625 394.5 1251.753906 393.523438 C 1251.738281 392.550781 1251.820312 391.585938 1252 390.625 C 1252.175781 389.667969 1252.445312 388.738281 1252.804688 387.832031 C 1253.167969 386.925781 1253.613281 386.0625 1254.140625 385.246094 C 1254.671875 384.429688 1255.277344 383.671875 1255.957031 382.972656 C 1256.761719 382.148438 1257.601562 381.363281 1258.484375 380.621094 C 1259.363281 379.875 1260.277344 379.179688 1261.226562 378.523438 C 1262.175781 377.871094 1263.152344 377.265625 1264.164062 376.710938 C 1265.171875 376.152344 1266.203125 375.644531 1267.261719 375.191406 C 1268.320312 374.734375 1269.398438 374.332031 1270.496094 373.984375 C 1271.59375 373.632812 1272.707031 373.339844 1273.832031 373.097656 C 1274.960938 372.859375 1276.09375 372.675781 1277.238281 372.546875 C 1278.386719 372.417969 1279.535156 372.34375 1280.683594 372.328125 C 1281.835938 372.3125 1282.988281 372.355469 1284.136719 372.453125 C 1285.28125 372.550781 1286.421875 372.703125 1287.554688 372.910156 C 1288.6875 373.121094 1289.808594 373.386719 1290.914062 373.703125 C 1292.023438 374.023438 1293.109375 374.398438 1294.179688 374.824219 C 1295.25 375.25 1296.296875 375.726562 1297.320312 376.257812 C 1298.34375 376.789062 1299.339844 377.367188 1300.304688 377.992188 C 1301.273438 378.621094 1302.207031 379.292969 1303.105469 380.011719 C 1304.003906 380.730469 1304.867188 381.492188 1305.695312 382.296875 C 1306.21875 382.804688 1306.699219 383.347656 1307.140625 383.929688 C 1307.585938 384.507812 1307.984375 385.121094 1308.335938 385.757812 C 1308.6875 386.398438 1308.992188 387.058594 1309.246094 387.742188 C 1309.503906 388.425781 1309.707031 389.125 1309.859375 389.839844 C 1310.011719 390.550781 1310.109375 391.273438 1310.15625 392 C 1310.203125 392.730469 1310.195312 393.457031 1310.132812 394.183594 C 1310.070312 394.914062 1309.957031 395.632812 1309.789062 396.339844 C 1309.621094 397.050781 1309.402344 397.746094 1309.132812 398.425781 C 1308.863281 399.101562 1308.542969 399.757812 1308.175781 400.386719 C 1307.808594 401.019531 1307.398438 401.621094 1306.945312 402.191406 C 1306.488281 402.761719 1305.992188 403.292969 1305.460938 403.792969 C 1304.925781 404.289062 1304.359375 404.746094 1303.757812 405.160156 C 1303.15625 405.570312 1302.527344 405.941406 1301.871094 406.261719 C 1301.214844 406.582031 1300.539062 406.851562 1299.84375 407.074219 C 1299.148438 407.296875 1298.441406 407.464844 1297.722656 407.582031 C 1297 407.699219 1296.277344 407.761719 1295.546875 407.769531 Z M 1278.953125 354.394531 C 1279.75 361.753906 1276.035156 368.195312 1270.65625 368.777344 C 1265.277344 369.359375 1260.269531 363.863281 1259.46875 356.503906 C 1258.671875 349.144531 1262.386719 342.703125 1267.769531 342.121094 C 1273.144531 341.539062 1278.152344 347.03125 1278.953125 354.394531 Z M 1281.929688 354.351562 C 1281.332031 361.730469 1285.21875 368.070312 1290.613281 368.503906 C 1296.007812 368.941406 1300.863281 363.3125 1301.460938 355.929688 C 1302.058594 348.550781 1298.167969 342.214844 1292.773438 341.78125 C 1287.382812 341.34375 1282.523438 346.972656 1281.929688 354.351562 Z M 1302.15625 364.234375 C 1300.09375 370.375 1302.0625 376.574219 1306.550781 378.078125 C 1311.039062 379.585938 1316.347656 375.828125 1318.40625 369.6875 C 1320.46875 363.546875 1318.5 357.351562 1314.011719 355.84375 C 1309.523438 354.339844 1304.214844 358.09375 1302.15625 364.234375 Z M 1302.15625 364.234375 " fill-opacity="1" fill-rule="nonzero"/></g></g></g><g clip-path="url(#cd4793c093)"><g clip-path="url(#e6fefef519)"><g clip-path="url(#a4a498a5a1)"><path fill="#5019dd" d="M 1260.636719 365.601562 C 1262.699219 371.226562 1261.035156 377.007812 1256.921875 378.511719 C 1252.8125 380.015625 1247.808594 376.675781 1245.75 371.050781 C 1243.691406 365.425781 1245.355469 359.648438 1249.464844 358.140625 C 1253.578125 356.636719 1258.578125 359.976562 1260.636719 365.601562 Z M 1294.4375 405.320312 C 1292.617188 405.347656 1290.859375 405.023438 1289.167969 404.351562 C 1287.476562 403.679688 1285.980469 402.707031 1284.675781 401.433594 C 1284.4375 401.203125 1284.179688 400.996094 1283.898438 400.8125 C 1283.621094 400.632812 1283.324219 400.480469 1283.015625 400.355469 C 1282.707031 400.230469 1282.386719 400.140625 1282.058594 400.078125 C 1281.730469 400.019531 1281.398438 399.992188 1281.066406 399.996094 C 1280.734375 400 1280.402344 400.035156 1280.078125 400.105469 C 1279.75 400.175781 1279.433594 400.277344 1279.128906 400.410156 C 1278.820312 400.539062 1278.53125 400.699219 1278.257812 400.890625 C 1277.980469 401.078125 1277.726562 401.292969 1277.496094 401.53125 C 1276.867188 402.179688 1276.179688 402.757812 1275.4375 403.265625 C 1274.695312 403.777344 1273.910156 404.210938 1273.082031 404.566406 C 1272.253906 404.925781 1271.402344 405.195312 1270.519531 405.382812 C 1269.636719 405.570312 1268.746094 405.671875 1267.84375 405.683594 C 1266.945312 405.695312 1266.050781 405.621094 1265.164062 405.457031 C 1264.277344 405.292969 1263.417969 405.042969 1262.578125 404.710938 C 1261.742188 404.378906 1260.945312 403.964844 1260.1875 403.472656 C 1259.433594 402.984375 1258.730469 402.425781 1258.085938 401.796875 C 1257.441406 401.167969 1256.863281 400.480469 1256.351562 399.738281 C 1255.839844 398.996094 1255.40625 398.210938 1255.050781 397.382812 C 1254.695312 396.554688 1254.421875 395.703125 1254.234375 394.820312 C 1254.046875 393.9375 1253.945312 393.046875 1253.933594 392.144531 C 1253.921875 391.246094 1254 390.351562 1254.164062 389.464844 C 1254.324219 388.578125 1254.574219 387.71875 1254.910156 386.878906 C 1255.242188 386.042969 1255.652344 385.246094 1256.144531 384.488281 C 1256.636719 383.734375 1257.195312 383.03125 1257.824219 382.386719 C 1258.566406 381.621094 1259.34375 380.898438 1260.160156 380.210938 C 1260.972656 379.523438 1261.820312 378.878906 1262.695312 378.273438 C 1263.574219 377.667969 1264.480469 377.109375 1265.410156 376.59375 C 1266.34375 376.078125 1267.300781 375.609375 1268.277344 375.1875 C 1269.257812 374.769531 1270.253906 374.394531 1271.269531 374.074219 C 1272.285156 373.75 1273.3125 373.476562 1274.355469 373.253906 C 1275.398438 373.03125 1276.449219 372.863281 1277.507812 372.742188 C 1278.566406 372.625 1279.628906 372.558594 1280.691406 372.542969 C 1281.757812 372.527344 1282.820312 372.566406 1283.882812 372.65625 C 1284.945312 372.746094 1286 372.886719 1287.046875 373.082031 C 1288.09375 373.273438 1289.128906 373.519531 1290.152344 373.816406 C 1291.175781 374.109375 1292.183594 374.457031 1293.175781 374.851562 C 1294.164062 375.246094 1295.132812 375.6875 1296.078125 376.175781 C 1297.023438 376.664062 1297.945312 377.199219 1298.839844 377.78125 C 1299.730469 378.359375 1300.59375 378.984375 1301.425781 379.648438 C 1302.261719 380.3125 1303.058594 381.015625 1303.820312 381.761719 C 1304.792969 382.707031 1305.609375 383.773438 1306.265625 384.960938 C 1306.921875 386.152344 1307.390625 387.410156 1307.671875 388.734375 C 1307.957031 390.0625 1308.039062 391.402344 1307.925781 392.757812 C 1307.8125 394.109375 1307.503906 395.414062 1307 396.675781 C 1306.5 397.9375 1305.824219 399.097656 1304.976562 400.160156 C 1304.128906 401.21875 1303.148438 402.136719 1302.03125 402.90625 C 1300.910156 403.675781 1299.707031 404.265625 1298.414062 404.675781 C 1297.117188 405.085938 1295.792969 405.304688 1294.4375 405.320312 Z M 1279.089844 355.953125 C 1279.828125 362.761719 1276.394531 368.71875 1271.417969 369.257812 C 1266.441406 369.796875 1261.808594 364.714844 1261.074219 357.90625 C 1260.335938 351.097656 1263.769531 345.144531 1268.746094 344.605469 C 1273.71875 344.066406 1278.351562 349.144531 1279.089844 355.953125 Z M 1281.839844 355.917969 C 1281.289062 362.742188 1284.882812 368.601562 1289.875 369.007812 C 1294.863281 369.410156 1299.351562 364.203125 1299.90625 357.378906 C 1300.457031 350.554688 1296.863281 344.691406 1291.875 344.289062 C 1286.886719 343.886719 1282.394531 349.089844 1281.839844 355.917969 Z M 1300.546875 365.058594 C 1298.644531 370.734375 1300.464844 376.46875 1304.613281 377.859375 C 1308.765625 379.253906 1313.671875 375.777344 1315.578125 370.101562 C 1317.484375 364.421875 1315.664062 358.6875 1311.515625 357.296875 C 1307.363281 355.902344 1302.457031 359.378906 1300.546875 365.058594 Z M 1300.546875 365.058594 " fill-opacity="1" fill-rule="nonzero"/></g></g></g><path stroke-linecap="butt" transform="matrix(0.75, 0, 0, 0.75, -74.502705, 324.14224)" fill="none" stroke-linejoin="miter" d="M 290.232788 140.503062 C 294.498413 140.503062 301.347372 140.378062 305.612997 139.997854 C 307.821331 139.747854 309.748414 138.075979 309.243206 135.862437 C 307.946331 127.466603 306.524456 118.023895 306.779664 108.961394 C 306.779664 105.206186 308.451539 102.867644 310.659873 103.529102 C 318.555706 106.122852 324.368207 120.612436 324.493207 136.242646 C 324.493207 138.450979 326.165082 139.747854 328.248415 139.997854 C 332.008832 140.378062 340.024457 140.503062 343.628624 140.503062 C 347.258833 140.503062 354.613 140.378062 358.748417 139.997854 C 360.961958 139.747854 362.633834 138.075979 362.508834 135.862437 C 360.836958 112.466603 347.764041 100.310352 330.050499 97.84681 C 327.331748 97.435352 327.331748 95.258269 329.925499 94.84681 C 346.878624 91.87806 357.868208 82.060351 357.868208 69.398892 C 357.868208 55.539517 344.795291 48.81035 321.144248 48.81035 C 303.935914 48.81035 289.44633 48.81035 280.003621 49.346808 C 278.201538 49.477016 276.654663 50.893683 276.498413 52.695766 C 275.076537 70.695767 273.149454 108.836394 273.149454 136.367646 C 273.149454 138.325979 274.826537 139.747854 276.784871 139.997854 C 280.128621 140.378062 286.347371 140.503062 290.232788 140.503062 Z M 311.165081 91.372852 C 308.831748 92.008268 307.159872 91.50306 307.029664 88.914518 C 306.904664 85.154101 307.029664 81.430143 307.159872 77.924934 C 307.159872 75.841601 308.326539 74.419726 310.409873 74.294726 C 311.545289 74.164517 312.717164 74.164517 314.133831 74.164517 C 321.524456 74.164517 325.534873 76.378059 325.534873 81.018684 C 325.534873 85.69056 320.48279 89.575977 311.165081 91.372852 Z M 407.519252 141.039521 C 417.878628 141.039521 430.665087 139.622854 437.925504 135.357229 C 439.347379 134.315562 440.102587 132.893687 439.977587 130.940562 C 439.727587 126.424937 439.060921 119.190561 438.555712 114.643686 C 438.180712 110.888478 435.336962 110.003061 433.378629 112.310353 C 426.90467 118.023895 420.180711 120.331186 411.149461 120.331186 C 403.128627 120.331186 394.321335 116.47702 391.477585 110.258269 C 390.060918 107.919728 391.607793 106.497852 393.691127 108.044728 C 398.86821 111.424936 404.805711 112.971811 411.024461 112.971811 C 424.602587 112.971811 437.264046 104.825977 437.264046 93.174935 C 437.264046 76.758268 424.602587 68.607226 404.170294 68.607226 C 381.534876 68.607226 365.873417 81.430143 365.873417 103.909311 C 365.873417 127.841604 381.909876 141.039521 407.519252 141.039521 Z M 403.508836 102.742644 C 399.248419 102.742644 392.89946 100.81556 392.89946 96.805144 C 392.89946 91.87806 397.701544 88.40931 402.753627 88.40931 C 408.560919 88.40931 410.899461 91.372852 410.899461 95.888477 C 410.899461 100.310352 407.899461 102.742644 403.508836 102.742644 Z M 463.769255 141.039521 C 473.081756 141.039521 481.482798 136.242646 485.774465 124.747853 C 486.784881 122.284312 488.618215 122.78952 488.493215 125.38327 C 488.206757 128.096812 487.701548 132.357229 487.32134 134.820771 C 486.784881 137.664521 488.868215 139.622854 492.092173 139.997854 C 495.722382 140.378062 501.024466 140.503062 504.529674 140.503062 C 508.133841 140.503062 513.685924 140.378062 516.941133 139.997854 C 518.993216 139.622854 520.284883 138.200979 520.284883 135.987437 C 519.909883 122.919728 518.613008 104.950977 517.446341 94.091602 C 515.899466 79.346809 507.086966 68.607226 480.722381 68.607226 C 466.232797 68.607226 456.15988 70.695767 451.232796 72.367642 C 449.685921 72.997851 448.899463 74.544726 448.769255 76.503059 C 448.394255 81.935351 448.014046 88.914518 448.139046 94.341602 C 448.139046 97.84681 450.852588 99.268685 453.03488 96.930144 C 460.420297 91.87806 471.029672 88.914518 477.758839 88.914518 C 485.113006 88.914518 487.701548 91.247852 487.701548 93.711393 C 487.701548 97.185352 483.441131 98.102019 475.295298 99.143685 C 457.831755 101.195769 443.342171 108.044728 443.342171 121.497853 C 443.342171 135.075979 450.602588 141.039521 463.769255 141.039521 Z M 479.680714 118.909311 C 475.545298 118.909311 473.748422 117.232228 473.748422 113.352019 C 473.748422 108.174936 478.639048 104.445769 483.441131 104.445769 C 486.534881 104.445769 488.081757 106.628061 488.081757 109.466603 C 488.081757 115.435353 482.935923 118.909311 479.680714 118.909311 Z M 542.920301 140.503062 C 546.425509 140.503062 552.48801 140.378062 555.868218 139.997854 C 557.920302 139.747854 559.342177 138.325979 559.217177 136.117646 C 558.17551 108.836394 558.45676 76.378059 561.045302 51.81035 C 561.30051 49.602016 559.753635 47.930141 557.670302 47.643683 C 553.784885 47.263474 546.930718 47.263474 543.586968 47.263474 C 540.331759 47.263474 534.904676 47.393683 531.680717 47.799933 C 529.722384 48.055141 528.305717 49.346808 528.050509 51.148891 C 526.628633 70.409309 525.081758 106.247852 525.081758 136.117646 C 525.081758 138.200979 526.628633 139.747854 528.586967 139.997854 C 532.441134 140.378062 539.165092 140.503062 542.920301 140.503062 Z M 583.008845 65.388475 C 593.363012 65.388475 598.665095 59.956183 598.665095 52.570766 C 598.665095 45.341599 593.363012 39.909307 583.008845 39.909307 C 572.805719 39.909307 567.628636 45.341599 567.628636 52.570766 C 567.628636 59.956183 572.805719 65.388475 583.008845 65.388475 Z M 583.415095 140.503062 C 586.639053 140.503062 592.732803 140.378062 596.456762 139.997854 C 598.290095 139.747854 599.83697 138.200979 599.83697 136.242646 C 599.83697 111.013478 598.540095 89.289518 597.248429 72.997851 C 597.11822 71.200976 595.826554 69.904101 593.86822 69.654101 C 591.02447 69.242642 585.878636 69.112434 583.290095 69.112434 C 580.165094 69.112434 575.399469 69.242642 572.144261 69.654101 C 570.347386 69.904101 568.925511 71.200976 568.800511 72.997851 C 567.503636 89.289518 566.20676 111.013478 566.20676 136.242646 C 566.20676 138.200979 567.753636 139.747854 569.711969 139.997854 C 573.566136 140.378062 580.165094 140.503062 583.415095 140.503062 Z M 641.607806 140.503062 C 650.540098 140.503062 668.128641 140.253062 676.654683 140.128062 C 678.451558 139.997854 679.998433 138.581187 679.873433 136.904104 C 679.623433 129.768687 679.243224 119.190561 678.738016 112.055144 C 678.581766 108.299936 675.107808 107.669727 672.894266 110.508269 C 667.842182 116.47702 661.274474 119.44577 654.139057 119.44577 C 646.404681 119.44577 645.107806 116.60202 649.623431 113.477019 C 658.149473 106.122852 668.128641 97.060352 673.935933 90.331185 C 676.399474 87.997852 677.571349 84.904101 677.571349 81.810351 C 677.571349 78.555143 677.441141 76.503059 677.029683 72.617642 C 676.779683 70.945767 675.482808 69.779101 673.685933 69.654101 C 666.831766 69.242642 650.258848 69.112434 642.238014 69.112434 C 633.836972 69.112434 619.09218 69.242642 611.071346 69.654101 C 609.399471 69.779101 607.977596 71.070767 607.852596 72.872851 C 607.472388 78.841601 606.935929 89.039518 606.685929 94.84681 C 606.555721 98.352019 610.060929 99.143685 611.863013 96.805144 C 616.790096 92.289518 623.639055 89.419727 631.24843 89.419727 C 637.847389 89.419727 639.519264 92.133268 635.133847 95.638477 C 625.816138 103.529102 615.493221 112.055144 609.019263 118.909311 C 606.180721 121.242645 605.008846 123.961395 604.758846 127.591603 C 604.633846 131.065562 604.472387 133.654104 604.472387 136.904104 C 604.347387 138.581187 605.894262 139.997854 607.727596 140.128062 C 615.081763 140.253062 633.331764 140.503062 641.607806 140.503062 Z M 703.800517 141.039521 C 713.118226 141.039521 721.51406 136.242646 725.810935 124.747853 C 726.821352 122.284312 728.649477 122.78952 728.524477 125.38327 C 728.238019 128.096812 727.73281 132.357229 727.35781 134.820771 C 726.821352 137.664521 728.904685 139.622854 732.123435 139.997854 C 735.753644 140.378062 741.060936 140.503062 744.566144 140.503062 C 748.165103 140.503062 753.722395 140.378062 756.972395 139.997854 C 759.024478 139.622854 760.321354 138.200979 760.321354 135.987437 C 759.941145 122.919728 758.64427 104.950977 757.477603 94.091602 C 755.930728 79.346809 747.123436 68.607226 720.758852 68.607226 C 706.264059 68.607226 696.191142 70.695767 691.264058 72.367642 C 689.717183 72.997851 688.930725 74.544726 688.805725 76.503059 C 688.425517 81.935351 688.045308 88.914518 688.170308 94.341602 C 688.170308 97.84681 690.889058 99.268685 693.066142 96.930144 C 700.456767 91.87806 711.066143 88.914518 717.790101 88.914518 C 725.144268 88.914518 727.73281 91.247852 727.73281 93.711393 C 727.73281 97.185352 723.472393 98.102019 715.32656 99.143685 C 697.863017 101.195769 683.373433 108.044728 683.373433 121.497853 C 683.373433 135.075979 690.63385 141.039521 703.800517 141.039521 Z M 719.717185 118.909311 C 715.57656 118.909311 713.779685 117.232228 713.779685 113.352019 C 713.779685 108.174936 718.675518 104.445769 723.472393 104.445769 C 726.566144 104.445769 728.113019 106.628061 728.113019 109.466603 C 728.113019 115.435353 722.967185 118.909311 719.717185 118.909311 Z M 782.321355 140.503062 C 785.925522 140.503062 793.060939 140.503062 796.529689 140.128062 C 798.488022 139.872854 800.415106 138.200979 800.034897 135.737437 C 798.993231 129.388479 798.081772 121.622853 798.081772 113.602019 C 798.081772 103.784311 805.592189 97.59681 812.951565 97.59681 C 819.045315 97.59681 823.305732 99.898894 827.316149 103.529102 C 829.118232 105.867644 832.368232 104.700977 832.623441 101.575977 C 833.284899 93.711393 833.915107 85.81556 834.420316 77.799934 C 834.420316 75.966601 833.915107 74.419726 832.493232 73.122851 C 829.52969 70.409309 825.264065 68.737434 819.961982 68.737434 C 810.107814 68.737434 803.670314 76.378059 800.415106 90.711393 C 799.784897 93.174935 797.826564 93.049935 797.826564 90.206185 C 797.826564 84.773893 798.363022 79.852018 799.498439 73.914517 C 800.034897 71.831184 798.61823 69.904101 796.154689 69.654101 C 793.310939 69.242642 785.670313 69.112434 782.826563 69.112434 C 779.863021 69.112434 774.305729 69.112434 770.925521 69.654101 C 769.123437 69.904101 767.706771 71.200976 767.576562 72.997851 C 765.873437 90.867643 764.98802 108.581186 764.86302 136.242646 C 764.86302 138.325979 766.409896 139.747854 768.211979 139.997854 C 772.217187 140.253062 779.071355 140.503062 782.321355 140.503062 Z M 890.034902 140.503062 C 894.045319 140.503062 901.685944 140.378062 905.566153 139.997854 C 907.368236 139.747854 909.040111 138.325979 908.915111 136.242646 C 908.534903 131.85202 908.659903 126.674937 909.196361 123.044728 C 909.956778 118.529103 914.092195 116.60202 918.63907 116.47702 L 923.534903 116.47702 C 928.206779 116.60202 932.342196 118.279103 933.102612 123.044728 C 933.514071 126.799937 933.639071 131.982229 933.383862 136.117646 C 933.102612 138.325979 934.805737 139.747854 936.607821 139.997854 C 940.363029 140.378062 947.592196 140.503062 950.972405 140.503062 C 954.446363 140.503062 962.086989 140.378062 965.842197 139.997854 C 968.024489 139.872854 969.441156 138.200979 968.935947 135.987437 C 963.633864 104.825977 952.107822 70.820767 943.076571 51.6541 C 942.540113 50.357225 941.373446 49.727016 939.951571 49.477016 C 934.930737 48.940558 925.743237 48.940558 920.946362 48.940558 C 916.050528 48.940558 907.113028 48.940558 902.316152 49.477016 C 900.894277 49.727016 899.758861 50.357225 899.222402 51.6541 C 890.159902 70.820767 878.54011 104.825977 873.232818 135.862437 C 872.696359 138.075979 874.149484 139.747854 876.456776 139.997854 C 879.961985 140.253062 886.435943 140.503062 890.034902 140.503062 Z M 919.935945 103.909311 C 915.925528 103.784311 913.842195 101.857227 914.753653 98.607227 C 915.63907 92.289518 917.347403 84.268685 918.894278 77.799934 C 920.185945 73.659309 921.988028 73.659309 923.154695 77.799934 C 924.82657 84.268685 926.659904 92.289518 927.415112 98.607227 C 928.331779 101.857227 926.373445 103.784311 922.363028 103.909311 Z M 1011.368241 170.784314 C 1040.321368 170.784314 1058.15991 160.805147 1058.15991 135.862437 C 1058.15991 112.591603 1057.149493 88.154102 1055.446368 73.122851 C 1055.19116 71.325976 1054.024493 69.904101 1052.09741 69.654101 C 1049.25366 69.398892 1043.034909 69.112434 1039.816159 69.112434 C 1036.560951 69.112434 1031.415117 69.112434 1027.784909 69.654101 C 1025.701575 70.029101 1023.899492 71.575976 1024.4047 73.659309 C 1025.196367 77.133268 1025.446367 79.977018 1025.701575 84.398893 C 1025.826575 86.987435 1023.899492 87.362435 1022.857825 85.029101 C 1018.722408 74.700976 1010.071366 68.607226 999.717199 68.607226 C 983.420323 68.607226 972.180739 80.638476 972.180739 103.659311 C 972.180739 125.75827 983.295323 139.086396 1000.092199 139.086396 C 1010.321366 139.086396 1018.722408 134.065562 1022.857825 123.456187 C 1024.0297 120.612436 1025.951575 120.992645 1025.951575 123.581187 L 1025.951575 127.716604 C 1025.951575 138.706187 1014.9672 146.221813 1002.175532 146.221813 C 993.779699 146.221813 985.222407 143.883271 979.159906 140.789521 C 976.951573 139.211396 974.613031 140.633271 974.357823 143.346813 C 974.107823 149.440563 973.602614 158.628063 973.446364 163.398897 C 973.316156 165.227022 974.488031 166.904105 976.191156 167.409314 C 984.46199 169.617647 1002.050532 170.784314 1011.368241 170.784314 Z M 1014.9672 116.72702 C 1008.774491 116.72702 1004.514074 111.805144 1004.514074 104.164519 C 1004.514074 96.930144 1008.649491 92.289518 1014.9672 92.289518 C 1021.31095 92.289518 1025.446367 96.930144 1025.446367 104.164519 C 1025.446367 111.805144 1021.18595 116.72702 1014.9672 116.72702 Z M 1103.560954 141.039521 C 1113.92033 141.039521 1126.706789 139.622854 1133.967206 135.357229 C 1135.389081 134.315562 1136.149497 132.893687 1136.019289 130.940562 C 1135.769289 126.424937 1135.107831 119.190561 1134.602622 114.643686 C 1134.222414 110.888478 1131.378664 110.003061 1129.42033 112.310353 C 1122.95158 118.023895 1116.222413 120.331186 1107.196371 120.331186 C 1099.175537 120.331186 1090.363037 116.47702 1087.524495 110.258269 C 1086.10262 107.919728 1087.649495 106.497852 1089.732828 108.044728 C 1094.909912 111.424936 1100.847412 112.971811 1107.066163 112.971811 C 1120.644288 112.971811 1133.305747 104.825977 1133.305747 93.174935 C 1133.305747 76.758268 1120.644288 68.607226 1100.217204 68.607226 C 1077.576578 68.607226 1061.915119 81.430143 1061.915119 103.909311 C 1061.915119 127.841604 1077.956786 141.039521 1103.560954 141.039521 Z M 1099.550537 102.742644 C 1095.29012 102.742644 1088.941162 100.81556 1088.941162 96.805144 C 1088.941162 91.87806 1093.743245 88.40931 1098.795329 88.40931 C 1104.602621 88.40931 1106.941163 91.372852 1106.941163 95.888477 C 1106.941163 100.310352 1103.941163 102.742644 1099.550537 102.742644 Z M 1157.883874 140.503062 C 1161.51929 140.503062 1167.451582 140.378062 1170.956791 139.997854 C 1172.883874 139.747854 1174.555749 138.325979 1174.305749 136.117646 C 1173.675541 127.841604 1173.264083 119.32077 1173.139083 112.310353 C 1173.139083 103.659311 1177.2745 96.299935 1183.998458 96.299935 C 1190.597417 96.299935 1194.607834 103.529102 1194.732834 112.180144 C 1194.732834 118.529103 1193.977625 127.466603 1193.185959 135.987437 C 1193.060959 138.200979 1194.732834 139.747854 1196.691167 139.997854 C 1201.206792 140.378062 1206.258876 140.503062 1210.394293 140.503062 C 1214.40471 140.503062 1219.170335 140.378062 1223.46721 139.997854 C 1225.394294 139.747854 1226.68596 138.581187 1226.816169 136.492646 C 1226.941169 126.294728 1226.56096 111.299936 1225.899502 103.909311 C 1224.222419 82.69056 1215.446376 68.737434 1198.998459 68.737434 C 1188.670333 68.737434 1180.3995 75.081184 1175.977624 87.742643 C 1175.092208 90.081185 1173.139083 89.956185 1173.139083 87.237435 C 1173.264083 83.102018 1173.925541 80.388476 1175.727624 74.039517 C 1176.389083 71.987434 1174.555749 69.779101 1172.503666 69.654101 C 1168.493249 69.242642 1162.810957 69.112434 1159.560957 69.112434 C 1156.211998 69.112434 1149.993248 69.242642 1146.76929 69.654101 C 1144.816165 69.904101 1143.64429 71.575976 1143.269289 73.534309 C 1141.342206 88.65931 1140.300539 105.742644 1140.300539 136.117646 C 1140.170331 138.200979 1141.722414 139.747854 1143.64429 139.997854 C 1147.654706 140.378062 1154.128665 140.503062 1157.883874 140.503062 Z M 1258.37867 141.039521 C 1268.857837 141.039521 1276.722421 135.357229 1281.144296 126.169728 C 1282.560963 123.456187 1284.488047 123.831187 1284.238047 126.930145 C 1284.107838 129.768687 1283.732838 133.023895 1283.19638 135.987437 C 1282.816172 138.200979 1284.488047 139.747854 1286.57138 139.997854 C 1290.045339 140.378062 1296.139089 140.503062 1299.488047 140.503062 C 1302.868256 140.503062 1309.717215 140.378062 1313.727631 139.997854 C 1315.654715 139.747854 1317.07659 138.200979 1317.07659 136.117646 C 1317.07659 105.581186 1315.654715 70.029101 1314.10784 51.273891 C 1313.977631 49.346808 1312.560965 48.055141 1310.758881 47.799933 C 1307.253673 47.263474 1301.696381 47.263474 1298.321381 47.263474 C 1295.097422 47.263474 1288.118255 47.263474 1284.363047 47.643683 C 1282.310963 48.055141 1280.47763 49.727016 1280.857838 51.81035 C 1282.435963 60.5916 1284.107838 73.253059 1284.488047 83.607226 C 1284.613047 87.112435 1282.560963 86.987435 1281.144296 84.523893 C 1276.217213 74.039517 1269.493254 68.737434 1258.248462 68.737434 C 1241.420336 68.737434 1230.560961 82.977018 1230.560961 106.372852 C 1230.560961 129.388479 1241.831794 141.039521 1258.37867 141.039521 Z M 1273.628671 117.107228 C 1267.279712 117.107228 1263.019296 112.591603 1263.019296 105.206186 C 1263.019296 97.84681 1267.154712 92.794727 1273.628671 92.794727 C 1279.847421 92.794727 1284.107838 97.84681 1284.107838 105.206186 C 1284.107838 112.591603 1279.722421 117.107228 1273.628671 117.107228 Z M 1341.649508 141.039521 C 1350.962008 141.039521 1359.36305 136.242646 1363.654717 124.747853 C 1364.665134 122.284312 1366.498467 122.78952 1366.368259 125.38327 C 1366.087009 128.096812 1365.581801 132.357229 1365.201592 134.820771 C 1364.665134 137.664521 1366.748467 139.622854 1369.972426 139.997854 C 1373.602634 140.378062 1378.904718 140.503062 1382.409927 140.503062 C 1386.008885 140.503062 1391.566177 140.378062 1394.821385 139.997854 C 1396.873469 139.622854 1398.165136 138.200979 1398.165136 135.987437 C 1397.784927 122.919728 1396.493261 104.950977 1395.326594 94.091602 C 1393.779719 79.346809 1384.967218 68.607226 1358.602634 68.607226 C 1344.107841 68.607226 1334.040132 70.695767 1329.113049 72.367642 C 1327.566174 72.997851 1326.774507 74.544726 1326.649507 76.503059 C 1326.269299 81.935351 1325.88909 88.914518 1326.019299 94.341602 C 1326.019299 97.84681 1328.73284 99.268685 1330.909924 96.930144 C 1338.300549 91.87806 1348.909925 88.914518 1355.633884 88.914518 C 1362.993259 88.914518 1365.581801 91.247852 1365.581801 93.711393 C 1365.581801 97.185352 1361.316175 98.102019 1353.170342 99.143685 C 1335.712008 101.195769 1321.217215 108.044728 1321.217215 121.497853 C 1321.217215 135.075979 1328.48284 141.039521 1341.649508 141.039521 Z M 1357.560967 118.909311 C 1353.42555 118.909311 1351.623467 117.232228 1351.623467 113.352019 C 1351.623467 108.174936 1356.5193 104.445769 1361.316175 104.445769 C 1364.415134 104.445769 1365.962009 106.628061 1365.962009 109.466603 C 1365.962009 115.435353 1360.810967 118.909311 1357.560967 118.909311 Z M 1418.62347 140.503062 C 1421.71722 140.503062 1428.946387 140.378062 1432.706804 139.997854 C 1434.628679 139.747854 1436.462013 138.200979 1436.206804 135.987437 C 1435.670346 129.263479 1434.915137 120.487436 1435.040138 113.888478 C 1435.165138 105.867644 1437.503679 99.773894 1441.227638 99.773894 C 1445.649513 99.773894 1448.238055 105.456186 1448.493263 113.888478 C 1448.618263 119.69577 1448.081805 129.138479 1447.701596 135.862437 C 1447.576596 138.200979 1449.248472 139.747854 1451.331805 139.997854 C 1455.217222 140.378062 1461.941181 140.503062 1465.415139 140.503062 C 1468.540139 140.503062 1474.477639 140.503062 1478.107848 139.997854 C 1480.159931 139.622854 1481.993265 138.200979 1481.706807 135.862437 C 1481.076598 127.971812 1480.29014 119.57077 1480.29014 113.477019 C 1480.29014 105.331186 1483.003682 99.773894 1486.63389 99.773894 C 1490.894307 99.773894 1493.488057 105.075977 1493.738057 114.138478 C 1493.863057 119.57077 1493.488057 129.263479 1493.107849 135.862437 C 1492.85264 138.200979 1494.399515 139.622854 1496.581807 139.997854 C 1500.337016 140.503062 1507.316183 140.503062 1510.566183 140.503062 C 1513.659933 140.503062 1519.628683 140.503062 1523.227642 139.997854 C 1525.310975 139.622854 1526.988059 138.200979 1526.85785 135.862437 C 1526.071392 120.075978 1525.691184 109.216603 1523.894309 96.805144 C 1521.050558 76.253059 1511.738058 69.112434 1500.717224 69.112434 C 1490.769307 69.112434 1483.128682 77.544726 1480.41514 88.914518 C 1479.529723 92.289518 1477.57139 92.414518 1476.816181 88.914518 C 1473.180764 73.914517 1466.456806 69.112434 1457.144305 69.112434 C 1447.956805 69.112434 1440.852638 77.544726 1437.503679 89.289518 C 1436.587013 92.544727 1434.790137 91.87806 1434.790137 88.914518 C 1434.915137 85.69056 1436.050554 78.430143 1436.967221 73.789517 C 1437.503679 71.575976 1435.800554 70.029101 1433.618262 69.654101 C 1430.113054 69.242642 1423.008887 69.112434 1419.758887 69.112434 C 1416.540137 69.112434 1412.024511 69.112434 1408.769303 69.654101 C 1406.847428 70.029101 1405.550553 71.200976 1405.295344 73.122851 C 1403.717219 89.419727 1402.706803 110.633269 1402.706803 136.117646 C 1402.706803 138.200979 1404.128678 139.747854 1406.055761 139.997854 C 1409.56097 140.378062 1415.74847 140.503062 1418.62347 140.503062 Z M 1572.248478 141.039521 C 1582.602645 141.039521 1595.394312 139.622854 1602.654729 135.357229 C 1604.076604 134.315562 1604.831813 132.893687 1604.706813 130.940562 C 1604.451604 126.424937 1603.790146 119.190561 1603.284938 114.643686 C 1602.904729 110.888478 1600.066187 110.003061 1598.107854 112.310353 C 1591.633895 118.023895 1584.909937 120.331186 1575.878686 120.331186 C 1567.857853 120.331186 1559.05056 116.47702 1556.20681 110.258269 C 1554.784935 107.919728 1556.33181 106.497852 1558.420352 108.044728 C 1563.597436 111.424936 1569.529728 112.971811 1575.753686 112.971811 C 1589.331812 112.971811 1601.993271 104.825977 1601.993271 93.174935 C 1601.993271 76.758268 1589.331812 68.607226 1568.899519 68.607226 C 1546.264101 68.607226 1530.602642 81.430143 1530.602642 103.909311 C 1530.602642 127.841604 1546.639101 141.039521 1572.248478 141.039521 Z M 1568.238061 102.742644 C 1563.977644 102.742644 1557.628685 100.81556 1557.628685 96.805144 C 1557.628685 91.87806 1562.425561 88.40931 1567.477644 88.40931 C 1573.290144 88.40931 1575.628686 91.372852 1575.628686 95.888477 C 1575.628686 100.310352 1572.628686 102.742644 1568.238061 102.742644 Z M 1626.571397 140.503062 C 1630.201606 140.503062 1636.139106 140.378062 1639.644314 139.997854 C 1641.571398 139.747854 1643.243273 138.325979 1642.988065 136.117646 C 1642.357856 127.841604 1641.946398 119.32077 1641.821398 112.310353 C 1641.821398 103.659311 1645.956815 96.299935 1652.680773 96.299935 C 1659.28494 96.299935 1663.290149 103.529102 1663.420357 112.180144 C 1663.420357 118.529103 1662.659941 127.466603 1661.873482 135.987437 C 1661.743274 138.200979 1663.420357 139.747854 1665.378691 139.997854 C 1669.889108 140.378062 1674.941191 140.503062 1679.081816 140.503062 C 1683.087025 140.503062 1687.857859 140.378062 1692.149525 139.997854 C 1694.076609 139.747854 1695.373484 138.581187 1695.498484 136.492646 C 1695.623484 126.294728 1695.248484 111.299936 1694.581817 103.909311 C 1692.909942 82.69056 1684.1339 68.737434 1667.680774 68.737434 C 1657.357857 68.737434 1649.081815 75.081184 1644.665148 87.742643 C 1643.779731 90.081185 1641.821398 89.956185 1641.821398 87.237435 C 1641.946398 83.102018 1642.613065 80.388476 1644.40994 74.039517 C 1645.071398 71.987434 1643.243273 69.779101 1641.19119 69.654101 C 1637.180773 69.242642 1631.498481 69.112434 1628.243272 69.112434 C 1624.899522 69.112434 1618.675563 69.242642 1615.456813 69.654101 C 1613.49848 69.904101 1612.331813 71.575976 1611.951605 73.534309 C 1610.024521 88.65931 1608.982855 105.742644 1608.982855 136.117646 C 1608.857855 138.200979 1610.40473 139.747854 1612.331813 139.997854 C 1616.34223 140.378062 1622.816189 140.503062 1626.571397 140.503062 Z M 1739.342236 141.039521 C 1747.36307 141.039521 1754.592237 139.872854 1761.196404 138.075979 C 1762.743279 137.409312 1764.034946 135.737437 1764.034946 133.398895 C 1764.159946 129.138479 1764.290154 120.737436 1764.159946 115.940561 C 1764.034946 112.846811 1761.571404 111.805144 1759.64432 113.227019 C 1757.435987 114.393686 1753.17557 115.560353 1750.45682 115.560353 C 1745.029736 115.560353 1740.889111 112.971811 1740.639111 107.794727 C 1740.383903 103.784311 1740.383903 99.143685 1740.764111 94.59681 C 1741.01932 92.414518 1742.441195 90.997852 1745.154736 90.997852 C 1749.165153 90.997852 1755.383904 91.247852 1759.39432 91.50306 C 1761.321404 91.75306 1762.993279 89.825977 1762.993279 87.742643 L 1762.993279 73.253059 C 1762.993279 71.200976 1761.321404 69.523892 1759.39432 69.523892 C 1754.342237 69.523892 1748.404737 69.779101 1743.352653 69.779101 C 1742.310986 69.779101 1741.555778 68.737434 1741.555778 67.190559 C 1741.555778 63.9666 1742.185986 60.7166 1742.847445 57.086392 C 1743.102653 55.034308 1741.39432 53.232225 1739.342236 52.950975 C 1735.712028 52.570766 1728.732861 52.445766 1725.51411 52.445766 C 1722.38911 52.570766 1717.618277 52.570766 1714.493277 52.950975 C 1712.696401 53.232225 1711.274526 54.6541 1711.019318 56.450975 C 1710.644318 59.799933 1710.35786 64.471809 1710.23286 67.977017 C 1710.10786 68.862434 1709.472443 69.654101 1708.430776 69.654101 L 1702.087026 69.654101 C 1700.159943 69.654101 1698.738067 71.200976 1698.613067 73.122851 C 1698.613067 78.049934 1698.488067 82.852018 1698.613067 87.617643 C 1698.738067 89.575977 1700.159943 91.247852 1702.087026 91.247852 C 1703.915151 91.122852 1705.717234 91.122852 1707.38911 91.122852 C 1708.430776 90.997852 1709.347443 91.75306 1709.222443 92.794727 C 1708.180776 100.81556 1708.180776 109.086394 1708.180776 114.518686 C 1708.180776 133.023895 1721.628694 141.039521 1739.342236 141.039521 Z M 1806.727656 141.039521 C 1829.998491 141.039521 1846.545367 131.60202 1846.545367 106.753061 C 1846.545367 83.357226 1830.123491 68.607226 1806.727656 68.607226 C 1783.300572 68.607226 1766.753696 83.357226 1766.753696 106.753061 C 1766.753696 131.60202 1783.456822 141.039521 1806.727656 141.039521 Z M 1806.727656 118.404103 C 1800.378698 118.404103 1795.863072 113.227019 1795.863072 104.950977 C 1795.863072 96.930144 1800.253698 91.122852 1806.727656 91.122852 C 1813.201615 91.122852 1817.587032 96.930144 1817.587032 104.950977 C 1817.587032 113.227019 1813.071407 118.404103 1806.727656 118.404103 Z M 1806.727656 118.404103 " stroke="#7ed957" stroke-width="9.6999" stroke-opacity="1" stroke-miterlimit="4"/><g fill="#5019dd" fill-opacity="1"><g transform="translate(128.41916, 429.142234)"><g><path d="M 14.75 0.390625 C 17.9375 0.390625 23.09375 0.296875 26.28125 0 C 27.9375 -0.1875 29.390625 -1.453125 29 -3.109375 C 28.03125 -9.40625 26.96875 -16.484375 27.15625 -23.28125 C 27.15625 -26.09375 28.421875 -27.84375 30.0625 -27.359375 C 35.984375 -25.40625 40.359375 -14.546875 40.453125 -2.8125 C 40.453125 -1.15625 41.703125 -0.1875 43.265625 0 C 46.078125 0.296875 52.09375 0.390625 54.8125 0.390625 C 57.515625 0.390625 63.046875 0.296875 66.15625 0 C 67.796875 -0.1875 69.0625 -1.453125 68.96875 -3.109375 C 67.703125 -20.65625 57.90625 -29.78125 44.625 -31.625 C 42.578125 -31.90625 42.578125 -33.5625 44.515625 -33.859375 C 57.234375 -36.078125 65.46875 -43.453125 65.46875 -52.96875 C 65.46875 -63.34375 55.671875 -68.390625 37.921875 -68.390625 C 25.03125 -68.390625 14.15625 -68.390625 7.078125 -68 C 5.71875 -67.90625 4.5625 -66.828125 4.46875 -65.46875 C 3.390625 -51.984375 1.9375 -23.375 1.9375 -2.71875 C 1.9375 -1.265625 3.203125 -0.1875 4.65625 0 C 7.171875 0.296875 11.828125 0.390625 14.75 0.390625 Z M 30.453125 -36.46875 C 28.71875 -35.984375 27.453125 -36.375 27.359375 -38.3125 C 27.25 -41.125 27.359375 -43.9375 27.453125 -46.5625 C 27.453125 -48.109375 28.328125 -49.171875 29.875 -49.28125 C 30.75 -49.375 31.625 -49.375 32.6875 -49.375 C 38.21875 -49.375 41.21875 -47.71875 41.21875 -44.234375 C 41.21875 -40.734375 37.4375 -37.828125 30.453125 -36.46875 Z M 30.453125 -36.46875 "/></g></g></g><g fill="#5019dd" fill-opacity="1"><g transform="translate(198.741258, 429.142234)"><g><path d="M 32.390625 0.78125 C 40.15625 0.78125 49.765625 -0.296875 55.1875 -3.484375 C 56.265625 -4.265625 56.84375 -5.328125 56.75 -6.796875 C 56.546875 -10.1875 56.0625 -15.609375 55.671875 -19.015625 C 55.390625 -21.828125 53.25 -22.5 51.796875 -20.765625 C 46.953125 -16.484375 41.90625 -14.75 35.109375 -14.75 C 29.09375 -14.75 22.5 -17.65625 20.375 -22.3125 C 19.296875 -24.0625 20.46875 -25.125 22.015625 -23.953125 C 25.90625 -21.4375 30.359375 -20.265625 35.015625 -20.265625 C 45.203125 -20.265625 54.703125 -26.390625 54.703125 -35.109375 C 54.703125 -47.4375 45.203125 -53.546875 29.875 -53.546875 C 12.90625 -53.546875 1.15625 -43.9375 1.15625 -27.0625 C 1.15625 -9.125 13.1875 0.78125 32.390625 0.78125 Z M 29.390625 -27.9375 C 26.1875 -27.9375 21.4375 -29.390625 21.4375 -32.390625 C 21.4375 -36.078125 25.03125 -38.703125 28.8125 -38.703125 C 33.171875 -38.703125 34.921875 -36.46875 34.921875 -33.078125 C 34.921875 -29.78125 32.6875 -27.9375 29.390625 -27.9375 Z M 29.390625 -27.9375 "/></g></g></g><g fill="#5019dd" fill-opacity="1"><g transform="translate(256.841868, 429.142234)"><g><path d="M 16.484375 0.78125 C 23.46875 0.78125 29.78125 -2.8125 32.984375 -11.453125 C 33.75 -13.28125 35.109375 -12.90625 35.015625 -10.96875 C 34.828125 -8.921875 34.4375 -5.71875 34.140625 -3.875 C 33.75 -1.75 35.3125 -0.296875 37.734375 0 C 40.453125 0.296875 44.421875 0.390625 47.046875 0.390625 C 49.765625 0.390625 53.9375 0.296875 56.359375 0 C 57.90625 -0.296875 58.875 -1.359375 58.875 -3 C 58.59375 -12.796875 57.625 -26.28125 56.75 -34.4375 C 55.578125 -45.5 48.984375 -53.546875 29.203125 -53.546875 C 18.328125 -53.546875 10.765625 -51.984375 7.078125 -50.734375 C 5.921875 -50.25 5.328125 -49.078125 5.234375 -47.625 C 4.953125 -43.546875 4.65625 -38.3125 4.75 -34.234375 C 4.75 -31.625 6.796875 -30.5625 8.4375 -32.296875 C 13.96875 -36.078125 21.921875 -38.3125 26.96875 -38.3125 C 32.5 -38.3125 34.4375 -36.5625 34.4375 -34.71875 C 34.4375 -32.109375 31.234375 -31.421875 25.125 -30.65625 C 12.03125 -29.09375 1.15625 -23.953125 1.15625 -13.875 C 1.15625 -3.6875 6.59375 0.78125 16.484375 0.78125 Z M 28.421875 -15.8125 C 25.3125 -15.8125 23.953125 -17.078125 23.953125 -19.984375 C 23.953125 -23.859375 27.640625 -26.671875 31.234375 -26.671875 C 33.5625 -26.671875 34.71875 -25.03125 34.71875 -22.890625 C 34.71875 -18.4375 30.84375 -15.8125 28.421875 -15.8125 Z M 28.421875 -15.8125 "/></g></g></g><g fill="#5019dd" fill-opacity="1"><g transform="translate(317.367378, 429.142234)"><g><path d="M 15.328125 0.390625 C 17.9375 0.390625 22.5 0.296875 25.03125 0 C 26.578125 -0.1875 27.640625 -1.265625 27.546875 -2.90625 C 26.765625 -23.375 26.96875 -47.71875 28.90625 -66.15625 C 29.09375 -67.796875 27.9375 -69.0625 26.390625 -69.265625 C 23.46875 -69.546875 18.328125 -69.546875 15.8125 -69.546875 C 13.390625 -69.546875 9.3125 -69.453125 6.890625 -69.15625 C 5.4375 -68.96875 4.359375 -68 4.171875 -66.640625 C 3.109375 -52.1875 1.9375 -25.3125 1.9375 -2.90625 C 1.9375 -1.359375 3.109375 -0.1875 4.5625 0 C 7.46875 0.296875 12.515625 0.390625 15.328125 0.390625 Z M 15.328125 0.390625 "/></g></g></g><g fill="#5019dd" fill-opacity="1"><g transform="translate(348.21211, 429.142234)"><g><path d="M 14.546875 -55.96875 C 22.3125 -55.96875 26.28125 -60.046875 26.28125 -65.578125 C 26.28125 -71 22.3125 -75.078125 14.546875 -75.078125 C 6.890625 -75.078125 3 -71 3 -65.578125 C 3 -60.046875 6.890625 -55.96875 14.546875 -55.96875 Z M 14.84375 0.390625 C 17.265625 0.390625 21.828125 0.296875 24.640625 0 C 26 -0.1875 27.15625 -1.359375 27.15625 -2.8125 C 27.15625 -21.734375 26.1875 -38.03125 25.21875 -50.25 C 25.125 -51.609375 24.15625 -52.578125 22.703125 -52.765625 C 20.5625 -53.0625 16.6875 -53.15625 14.75 -53.15625 C 12.421875 -53.15625 8.828125 -53.0625 6.40625 -52.765625 C 5.046875 -52.578125 3.984375 -51.609375 3.875 -50.25 C 2.90625 -38.03125 1.9375 -21.734375 1.9375 -2.8125 C 1.9375 -1.359375 3.109375 -0.1875 4.5625 0 C 7.46875 0.296875 12.421875 0.390625 14.84375 0.390625 Z M 14.84375 0.390625 "/></g></g></g><g fill="#5019dd" fill-opacity="1"><g transform="translate(377.407909, 429.142234)"><g><path d="M 29.296875 0.390625 C 35.984375 0.390625 49.171875 0.1875 55.578125 0.09375 C 56.9375 0 58.109375 -1.0625 58 -2.328125 C 57.8125 -7.65625 57.515625 -15.609375 57.140625 -20.953125 C 57.03125 -23.765625 54.421875 -24.25 52.765625 -22.109375 C 48.984375 -17.65625 44.03125 -15.421875 38.703125 -15.421875 C 32.890625 -15.421875 31.90625 -17.5625 35.3125 -19.890625 C 41.703125 -25.40625 49.171875 -32.203125 53.546875 -37.25 C 55.390625 -39 56.265625 -41.328125 56.265625 -43.65625 C 56.265625 -46.078125 56.15625 -47.625 55.875 -50.53125 C 55.671875 -51.796875 54.703125 -52.671875 53.34375 -52.765625 C 48.203125 -53.0625 35.796875 -53.15625 29.78125 -53.15625 C 23.46875 -53.15625 12.421875 -53.0625 6.40625 -52.765625 C 5.140625 -52.671875 4.078125 -51.703125 3.984375 -50.34375 C 3.6875 -45.875 3.296875 -38.21875 3.109375 -33.859375 C 3 -31.234375 5.625 -30.65625 6.984375 -32.390625 C 10.671875 -35.796875 15.8125 -37.921875 21.53125 -37.921875 C 26.484375 -37.921875 27.734375 -35.890625 24.4375 -33.265625 C 17.453125 -27.359375 9.703125 -20.953125 4.84375 -15.8125 C 2.71875 -14.0625 1.84375 -12.03125 1.65625 -9.3125 C 1.546875 -6.6875 1.453125 -4.75 1.453125 -2.328125 C 1.359375 -1.0625 2.515625 0 3.875 0.09375 C 9.40625 0.1875 23.09375 0.390625 29.296875 0.390625 Z M 29.296875 0.390625 "/></g></g></g><g fill="#5019dd" fill-opacity="1"><g transform="translate(436.866463, 429.142234)"><g><path d="M 16.484375 0.78125 C 23.46875 0.78125 29.78125 -2.8125 32.984375 -11.453125 C 33.75 -13.28125 35.109375 -12.90625 35.015625 -10.96875 C 34.828125 -8.921875 34.4375 -5.71875 34.140625 -3.875 C 33.75 -1.75 35.3125 -0.296875 37.734375 0 C 40.453125 0.296875 44.421875 0.390625 47.046875 0.390625 C 49.765625 0.390625 53.9375 0.296875 56.359375 0 C 57.90625 -0.296875 58.875 -1.359375 58.875 -3 C 58.59375 -12.796875 57.625 -26.28125 56.75 -34.4375 C 55.578125 -45.5 48.984375 -53.546875 29.203125 -53.546875 C 18.328125 -53.546875 10.765625 -51.984375 7.078125 -50.734375 C 5.921875 -50.25 5.328125 -49.078125 5.234375 -47.625 C 4.953125 -43.546875 4.65625 -38.3125 4.75 -34.234375 C 4.75 -31.625 6.796875 -30.5625 8.4375 -32.296875 C 13.96875 -36.078125 21.921875 -38.3125 26.96875 -38.3125 C 32.5 -38.3125 34.4375 -36.5625 34.4375 -34.71875 C 34.4375 -32.109375 31.234375 -31.421875 25.125 -30.65625 C 12.03125 -29.09375 1.15625 -23.953125 1.15625 -13.875 C 1.15625 -3.6875 6.59375 0.78125 16.484375 0.78125 Z M 28.421875 -15.8125 C 25.3125 -15.8125 23.953125 -17.078125 23.953125 -19.984375 C 23.953125 -23.859375 27.640625 -26.671875 31.234375 -26.671875 C 33.5625 -26.671875 34.71875 -25.03125 34.71875 -22.890625 C 34.71875 -18.4375 30.84375 -15.8125 28.421875 -15.8125 Z M 28.421875 -15.8125 "/></g></g></g><g fill="#5019dd" fill-opacity="1"><g transform="translate(497.391973, 429.142234)"><g><path d="M 14.84375 0.390625 C 17.5625 0.390625 22.890625 0.390625 25.515625 0.09375 C 26.96875 -0.09375 28.421875 -1.359375 28.125 -3.203125 C 27.359375 -7.953125 26.671875 -13.78125 26.671875 -19.78125 C 26.671875 -27.15625 32.296875 -31.8125 37.828125 -31.8125 C 42.390625 -31.8125 45.59375 -30.0625 48.59375 -27.359375 C 49.953125 -25.609375 52.375 -26.484375 52.578125 -28.8125 C 53.0625 -34.71875 53.546875 -40.640625 53.9375 -46.65625 C 53.9375 -48.015625 53.546875 -49.171875 52.484375 -50.15625 C 50.25 -52.1875 47.046875 -53.453125 43.0625 -53.453125 C 35.703125 -53.453125 30.84375 -47.71875 28.421875 -36.953125 C 27.9375 -35.109375 26.484375 -35.21875 26.484375 -37.34375 C 26.484375 -41.421875 26.875 -45.109375 27.734375 -49.5625 C 28.125 -51.125 27.0625 -52.578125 25.21875 -52.765625 C 23.09375 -53.0625 17.359375 -53.15625 15.234375 -53.15625 C 13 -53.15625 8.828125 -53.15625 6.3125 -52.765625 C 4.953125 -52.578125 3.875 -51.609375 3.78125 -50.25 C 2.515625 -36.859375 1.84375 -23.578125 1.75 -2.8125 C 1.75 -1.265625 2.90625 -0.1875 4.265625 0 C 7.28125 0.1875 12.421875 0.390625 14.84375 0.390625 Z M 14.84375 0.390625 "/></g></g></g><g fill="#5019dd" fill-opacity="1"><g transform="translate(552.388682, 429.142234)"><g/></g></g><g fill="#5019dd" fill-opacity="1"><g transform="translate(579.54757, 429.142234)"><g><path d="M 13.484375 0.390625 C 16.484375 0.390625 22.21875 0.296875 25.125 0 C 26.484375 -0.1875 27.734375 -1.265625 27.640625 -2.8125 C 27.359375 -6.109375 27.453125 -9.984375 27.84375 -12.703125 C 28.421875 -16.109375 31.53125 -17.5625 34.921875 -17.65625 L 38.609375 -17.65625 C 42.09375 -17.5625 45.203125 -16.296875 45.78125 -12.703125 C 46.078125 -9.890625 46.171875 -6.015625 45.984375 -2.90625 C 45.78125 -1.265625 47.046875 -0.1875 48.40625 0 C 51.21875 0.296875 56.640625 0.390625 59.171875 0.390625 C 61.78125 0.390625 67.515625 0.296875 70.328125 0 C 71.96875 -0.09375 73.046875 -1.359375 72.65625 -3 C 68.671875 -26.390625 60.046875 -51.890625 53.25 -66.25 C 52.859375 -67.21875 51.984375 -67.703125 50.921875 -67.90625 C 47.140625 -68.28125 40.25 -68.28125 36.671875 -68.28125 C 32.984375 -68.28125 26.28125 -68.28125 22.703125 -67.90625 C 21.625 -67.703125 20.765625 -67.21875 20.375 -66.25 C 13.578125 -51.890625 4.84375 -26.390625 0.875 -3.109375 C 0.484375 -1.453125 1.546875 -0.1875 3.296875 0 C 5.921875 0.1875 10.765625 0.390625 13.484375 0.390625 Z M 35.890625 -27.0625 C 32.890625 -27.15625 31.328125 -28.609375 32.015625 -31.046875 C 32.6875 -35.796875 33.953125 -41.8125 35.109375 -46.65625 C 36.078125 -49.765625 37.4375 -49.765625 38.3125 -46.65625 C 39.578125 -41.8125 40.9375 -35.796875 41.515625 -31.046875 C 42.1875 -28.609375 40.734375 -27.15625 37.734375 -27.0625 Z M 35.890625 -27.0625 "/></g></g></g><g fill="#5019dd" fill-opacity="1"><g transform="translate(653.070547, 429.142234)"><g><path d="M 30.9375 23.09375 C 52.671875 23.09375 66.0625 15.609375 66.0625 -3.109375 C 66.0625 -20.5625 65.28125 -38.890625 64.015625 -50.15625 C 63.828125 -51.5 62.953125 -52.578125 61.5 -52.765625 C 59.359375 -52.96875 54.703125 -53.15625 52.28125 -53.15625 C 49.859375 -53.15625 45.984375 -53.15625 43.265625 -52.765625 C 41.703125 -52.484375 40.359375 -51.3125 40.734375 -49.765625 C 41.328125 -47.140625 41.515625 -45.015625 41.703125 -41.703125 C 41.8125 -39.765625 40.359375 -39.484375 39.578125 -41.21875 C 36.46875 -48.984375 29.96875 -53.546875 22.21875 -53.546875 C 9.984375 -53.546875 1.546875 -44.515625 1.546875 -27.25 C 1.546875 -10.671875 9.890625 -0.671875 22.5 -0.671875 C 30.171875 -0.671875 36.46875 -4.46875 39.578125 -12.421875 C 40.453125 -14.546875 41.90625 -14.265625 41.90625 -12.3125 L 41.90625 -9.21875 C 41.90625 -0.96875 33.65625 4.65625 24.0625 4.65625 C 17.75 4.65625 11.34375 2.90625 6.796875 0.578125 C 5.140625 -0.578125 3.390625 0.484375 3.203125 2.515625 C 3 7.078125 2.625 13.96875 2.515625 17.5625 C 2.421875 18.921875 3.296875 20.171875 4.5625 20.5625 C 10.765625 22.21875 23.953125 23.09375 30.9375 23.09375 Z M 33.65625 -17.453125 C 29 -17.453125 25.796875 -21.140625 25.796875 -26.875 C 25.796875 -32.296875 28.90625 -35.796875 33.65625 -35.796875 C 38.40625 -35.796875 41.515625 -32.296875 41.515625 -26.875 C 41.515625 -21.140625 38.3125 -17.453125 33.65625 -17.453125 Z M 33.65625 -17.453125 "/></g></g></g><g fill="#5019dd" fill-opacity="1"><g transform="translate(720.773745, 429.142234)"><g><path d="M 32.390625 0.78125 C 40.15625 0.78125 49.765625 -0.296875 55.1875 -3.484375 C 56.265625 -4.265625 56.84375 -5.328125 56.75 -6.796875 C 56.546875 -10.1875 56.0625 -15.609375 55.671875 -19.015625 C 55.390625 -21.828125 53.25 -22.5 51.796875 -20.765625 C 46.953125 -16.484375 41.90625 -14.75 35.109375 -14.75 C 29.09375 -14.75 22.5 -17.65625 20.375 -22.3125 C 19.296875 -24.0625 20.46875 -25.125 22.015625 -23.953125 C 25.90625 -21.4375 30.359375 -20.265625 35.015625 -20.265625 C 45.203125 -20.265625 54.703125 -26.390625 54.703125 -35.109375 C 54.703125 -47.4375 45.203125 -53.546875 29.875 -53.546875 C 12.90625 -53.546875 1.15625 -43.9375 1.15625 -27.0625 C 1.15625 -9.125 13.1875 0.78125 32.390625 0.78125 Z M 29.390625 -27.9375 C 26.1875 -27.9375 21.4375 -29.390625 21.4375 -32.390625 C 21.4375 -36.078125 25.03125 -38.703125 28.8125 -38.703125 C 33.171875 -38.703125 34.921875 -36.46875 34.921875 -33.078125 C 34.921875 -29.78125 32.6875 -27.9375 29.390625 -27.9375 Z M 29.390625 -27.9375 "/></g></g></g><g fill="#5019dd" fill-opacity="1"><g transform="translate(778.874343, 429.142234)"><g><path d="M 15.03125 0.390625 C 17.75 0.390625 22.21875 0.296875 24.828125 0 C 26.28125 -0.1875 27.546875 -1.265625 27.359375 -2.90625 C 26.875 -9.125 26.578125 -15.515625 26.484375 -20.765625 C 26.484375 -27.25 29.578125 -32.78125 34.625 -32.78125 C 39.578125 -32.78125 42.578125 -27.359375 42.6875 -20.859375 C 42.6875 -16.109375 42.09375 -9.40625 41.515625 -3 C 41.421875 -1.359375 42.6875 -0.1875 44.140625 0 C 47.53125 0.296875 51.3125 0.390625 54.421875 0.390625 C 57.421875 0.390625 61.015625 0.296875 64.21875 0 C 65.671875 -0.1875 66.640625 -1.0625 66.734375 -2.625 C 66.828125 -10.28125 66.546875 -21.53125 66.0625 -27.0625 C 64.796875 -42.96875 58.203125 -53.453125 45.875 -53.453125 C 38.125 -53.453125 31.90625 -48.6875 28.609375 -39.1875 C 27.9375 -37.4375 26.484375 -37.53125 26.484375 -39.578125 C 26.578125 -42.6875 27.0625 -44.71875 28.421875 -49.46875 C 28.90625 -51.015625 27.546875 -52.671875 26 -52.765625 C 22.984375 -53.0625 18.71875 -53.15625 16.296875 -53.15625 C 13.78125 -53.15625 9.125 -53.0625 6.6875 -52.765625 C 5.234375 -52.578125 4.359375 -51.3125 4.078125 -49.859375 C 2.625 -38.515625 1.84375 -25.703125 1.84375 -2.90625 C 1.75 -1.359375 2.90625 -0.1875 4.359375 0 C 7.375 0.296875 12.21875 0.390625 15.03125 0.390625 Z M 15.03125 0.390625 "/></g></g></g><g fill="#5019dd" fill-opacity="1"><g transform="translate(847.256542, 429.142234)"><g><path d="M 22.015625 0.78125 C 29.875 0.78125 35.796875 -3.484375 39.09375 -10.375 C 40.15625 -12.421875 41.609375 -12.125 41.421875 -9.796875 C 41.328125 -7.65625 41.03125 -5.234375 40.640625 -3 C 40.359375 -1.359375 41.609375 -0.1875 43.171875 0 C 45.78125 0.296875 50.34375 0.390625 52.859375 0.390625 C 55.390625 0.390625 60.53125 0.296875 63.53125 0 C 64.984375 -0.1875 66.0625 -1.359375 66.0625 -2.90625 C 66.0625 -25.796875 64.984375 -52.484375 63.828125 -66.546875 C 63.734375 -68 62.65625 -68.96875 61.296875 -69.15625 C 58.6875 -69.546875 54.515625 -69.546875 51.984375 -69.546875 C 49.5625 -69.546875 44.328125 -69.546875 41.515625 -69.265625 C 39.96875 -68.96875 38.609375 -67.703125 38.890625 -66.15625 C 40.0625 -59.5625 41.328125 -50.046875 41.609375 -42.296875 C 41.703125 -39.671875 40.15625 -39.765625 39.09375 -41.609375 C 35.40625 -49.46875 30.359375 -53.453125 21.921875 -53.453125 C 9.3125 -53.453125 1.15625 -42.78125 1.15625 -25.21875 C 1.15625 -7.953125 9.609375 0.78125 22.015625 0.78125 Z M 33.46875 -17.171875 C 28.71875 -17.171875 25.515625 -20.5625 25.515625 -26.09375 C 25.515625 -31.625 28.609375 -35.40625 33.46875 -35.40625 C 38.125 -35.40625 41.328125 -31.625 41.328125 -26.09375 C 41.328125 -20.5625 38.03125 -17.171875 33.46875 -17.171875 Z M 33.46875 -17.171875 "/></g></g></g><g fill="#5019dd" fill-opacity="1"><g transform="translate(915.250786, 429.142234)"><g><path d="M 16.484375 0.78125 C 23.46875 0.78125 29.78125 -2.8125 32.984375 -11.453125 C 33.75 -13.28125 35.109375 -12.90625 35.015625 -10.96875 C 34.828125 -8.921875 34.4375 -5.71875 34.140625 -3.875 C 33.75 -1.75 35.3125 -0.296875 37.734375 0 C 40.453125 0.296875 44.421875 0.390625 47.046875 0.390625 C 49.765625 0.390625 53.9375 0.296875 56.359375 0 C 57.90625 -0.296875 58.875 -1.359375 58.875 -3 C 58.59375 -12.796875 57.625 -26.28125 56.75 -34.4375 C 55.578125 -45.5 48.984375 -53.546875 29.203125 -53.546875 C 18.328125 -53.546875 10.765625 -51.984375 7.078125 -50.734375 C 5.921875 -50.25 5.328125 -49.078125 5.234375 -47.625 C 4.953125 -43.546875 4.65625 -38.3125 4.75 -34.234375 C 4.75 -31.625 6.796875 -30.5625 8.4375 -32.296875 C 13.96875 -36.078125 21.921875 -38.3125 26.96875 -38.3125 C 32.5 -38.3125 34.4375 -36.5625 34.4375 -34.71875 C 34.4375 -32.109375 31.234375 -31.421875 25.125 -30.65625 C 12.03125 -29.09375 1.15625 -23.953125 1.15625 -13.875 C 1.15625 -3.6875 6.59375 0.78125 16.484375 0.78125 Z M 28.421875 -15.8125 C 25.3125 -15.8125 23.953125 -17.078125 23.953125 -19.984375 C 23.953125 -23.859375 27.640625 -26.671875 31.234375 -26.671875 C 33.5625 -26.671875 34.71875 -25.03125 34.71875 -22.890625 C 34.71875 -18.4375 30.84375 -15.8125 28.421875 -15.8125 Z M 28.421875 -15.8125 "/></g></g></g><g fill="#5019dd" fill-opacity="1"><g transform="translate(975.776296, 429.142234)"><g><path d="M 13.671875 0.390625 C 16 0.390625 21.4375 0.296875 24.25 0 C 25.703125 -0.1875 27.0625 -1.359375 26.875 -3 C 26.484375 -8.046875 25.90625 -14.640625 26 -19.59375 C 26.09375 -25.609375 27.84375 -30.171875 30.65625 -30.171875 C 33.953125 -30.171875 35.890625 -25.90625 36.078125 -19.59375 C 36.1875 -15.234375 35.796875 -8.140625 35.5 -3.109375 C 35.40625 -1.359375 36.671875 -0.1875 38.21875 0 C 41.125 0.296875 46.171875 0.390625 48.796875 0.390625 C 51.125 0.390625 55.578125 0.390625 58.296875 0 C 59.84375 -0.296875 61.203125 -1.359375 61.015625 -3.109375 C 60.53125 -9.015625 59.953125 -15.328125 59.953125 -19.890625 C 59.953125 -26 61.984375 -30.171875 64.703125 -30.171875 C 67.90625 -30.171875 69.84375 -26.1875 70.03125 -19.40625 C 70.125 -15.328125 69.84375 -8.046875 69.546875 -3.109375 C 69.359375 -1.359375 70.515625 -0.296875 72.171875 0 C 74.984375 0.390625 80.21875 0.390625 82.640625 0.390625 C 84.96875 0.390625 89.4375 0.390625 92.15625 0 C 93.703125 -0.296875 94.96875 -1.359375 94.859375 -3.109375 C 94.28125 -14.9375 94 -23.09375 92.640625 -32.390625 C 90.5 -47.828125 83.515625 -53.15625 75.265625 -53.15625 C 67.796875 -53.15625 62.078125 -46.84375 60.046875 -38.3125 C 59.359375 -35.796875 57.90625 -35.703125 57.328125 -38.3125 C 54.609375 -49.5625 49.5625 -53.15625 42.578125 -53.15625 C 35.703125 -53.15625 30.359375 -46.84375 27.84375 -38.03125 C 27.15625 -35.59375 25.796875 -36.078125 25.796875 -38.3125 C 25.90625 -40.734375 26.765625 -46.171875 27.453125 -49.65625 C 27.84375 -51.3125 26.578125 -52.484375 24.921875 -52.765625 C 22.3125 -53.0625 16.96875 -53.15625 14.546875 -53.15625 C 12.125 -53.15625 8.734375 -53.15625 6.3125 -52.765625 C 4.84375 -52.484375 3.875 -51.609375 3.6875 -50.15625 C 2.515625 -37.921875 1.75 -22.015625 1.75 -2.90625 C 1.75 -1.359375 2.8125 -0.1875 4.265625 0 C 6.890625 0.296875 11.546875 0.390625 13.671875 0.390625 Z M 13.671875 0.390625 "/></g></g></g><g fill="#5019dd" fill-opacity="1"><g transform="translate(1072.287338, 429.142234)"><g><path d="M 32.390625 0.78125 C 40.15625 0.78125 49.765625 -0.296875 55.1875 -3.484375 C 56.265625 -4.265625 56.84375 -5.328125 56.75 -6.796875 C 56.546875 -10.1875 56.0625 -15.609375 55.671875 -19.015625 C 55.390625 -21.828125 53.25 -22.5 51.796875 -20.765625 C 46.953125 -16.484375 41.90625 -14.75 35.109375 -14.75 C 29.09375 -14.75 22.5 -17.65625 20.375 -22.3125 C 19.296875 -24.0625 20.46875 -25.125 22.015625 -23.953125 C 25.90625 -21.4375 30.359375 -20.265625 35.015625 -20.265625 C 45.203125 -20.265625 54.703125 -26.390625 54.703125 -35.109375 C 54.703125 -47.4375 45.203125 -53.546875 29.875 -53.546875 C 12.90625 -53.546875 1.15625 -43.9375 1.15625 -27.0625 C 1.15625 -9.125 13.1875 0.78125 32.390625 0.78125 Z M 29.390625 -27.9375 C 26.1875 -27.9375 21.4375 -29.390625 21.4375 -32.390625 C 21.4375 -36.078125 25.03125 -38.703125 28.8125 -38.703125 C 33.171875 -38.703125 34.921875 -36.46875 34.921875 -33.078125 C 34.921875 -29.78125 32.6875 -27.9375 29.390625 -27.9375 Z M 29.390625 -27.9375 "/></g></g></g><g fill="#5019dd" fill-opacity="1"><g transform="translate(1130.387982, 429.142234)"><g><path d="M 15.03125 0.390625 C 17.75 0.390625 22.21875 0.296875 24.828125 0 C 26.28125 -0.1875 27.546875 -1.265625 27.359375 -2.90625 C 26.875 -9.125 26.578125 -15.515625 26.484375 -20.765625 C 26.484375 -27.25 29.578125 -32.78125 34.625 -32.78125 C 39.578125 -32.78125 42.578125 -27.359375 42.6875 -20.859375 C 42.6875 -16.109375 42.09375 -9.40625 41.515625 -3 C 41.421875 -1.359375 42.6875 -0.1875 44.140625 0 C 47.53125 0.296875 51.3125 0.390625 54.421875 0.390625 C 57.421875 0.390625 61.015625 0.296875 64.21875 0 C 65.671875 -0.1875 66.640625 -1.0625 66.734375 -2.625 C 66.828125 -10.28125 66.546875 -21.53125 66.0625 -27.0625 C 64.796875 -42.96875 58.203125 -53.453125 45.875 -53.453125 C 38.125 -53.453125 31.90625 -48.6875 28.609375 -39.1875 C 27.9375 -37.4375 26.484375 -37.53125 26.484375 -39.578125 C 26.578125 -42.6875 27.0625 -44.71875 28.421875 -49.46875 C 28.90625 -51.015625 27.546875 -52.671875 26 -52.765625 C 22.984375 -53.0625 18.71875 -53.15625 16.296875 -53.15625 C 13.78125 -53.15625 9.125 -53.0625 6.6875 -52.765625 C 5.234375 -52.578125 4.359375 -51.3125 4.078125 -49.859375 C 2.625 -38.515625 1.84375 -25.703125 1.84375 -2.90625 C 1.75 -1.359375 2.90625 -0.1875 4.359375 0 C 7.375 0.296875 12.21875 0.390625 15.03125 0.390625 Z M 15.03125 0.390625 "/></g></g></g><g fill="#5019dd" fill-opacity="1"><g transform="translate(1198.770181, 429.142234)"><g><path d="M 31.234375 0.78125 C 37.25 0.78125 42.6875 -0.09375 47.625 -1.453125 C 48.796875 -1.9375 49.765625 -3.203125 49.765625 -4.953125 C 49.859375 -8.140625 49.953125 -14.453125 49.859375 -18.046875 C 49.765625 -20.375 47.921875 -21.140625 46.46875 -20.078125 C 44.8125 -19.203125 41.609375 -18.328125 39.578125 -18.328125 C 35.5 -18.328125 32.390625 -20.265625 32.203125 -24.15625 C 32.015625 -27.15625 32.015625 -30.65625 32.296875 -34.046875 C 32.5 -35.703125 33.5625 -36.765625 35.59375 -36.765625 C 38.609375 -36.765625 43.265625 -36.5625 46.265625 -36.375 C 47.71875 -36.1875 48.984375 -37.640625 48.984375 -39.1875 L 48.984375 -50.046875 C 48.984375 -51.609375 47.71875 -52.859375 46.265625 -52.859375 C 42.484375 -52.859375 38.03125 -52.671875 34.234375 -52.671875 C 33.46875 -52.671875 32.890625 -53.453125 32.890625 -54.609375 C 32.890625 -57.03125 33.375 -59.453125 33.859375 -62.171875 C 34.046875 -63.734375 32.78125 -65.09375 31.234375 -65.28125 C 28.515625 -65.578125 23.28125 -65.671875 20.859375 -65.671875 C 18.53125 -65.578125 14.9375 -65.578125 12.609375 -65.28125 C 11.25 -65.09375 10.1875 -64.015625 9.984375 -62.65625 C 9.703125 -60.140625 9.5 -56.640625 9.40625 -54.03125 C 9.3125 -53.34375 8.828125 -52.765625 8.046875 -52.765625 L 3.296875 -52.765625 C 1.84375 -52.765625 0.78125 -51.609375 0.671875 -50.15625 C 0.671875 -46.46875 0.578125 -42.875 0.671875 -39.28125 C 0.78125 -37.828125 1.84375 -36.5625 3.296875 -36.5625 C 4.65625 -36.671875 6.015625 -36.671875 7.28125 -36.671875 C 8.046875 -36.765625 8.734375 -36.1875 8.640625 -35.40625 C 7.859375 -29.390625 7.859375 -23.1875 7.859375 -19.109375 C 7.859375 -5.234375 17.9375 0.78125 31.234375 0.78125 Z M 31.234375 0.78125 "/></g></g></g><g fill="#5019dd" fill-opacity="1"><g transform="translate(1249.402136, 429.142234)"><g><path d="M 31.140625 0.78125 C 48.59375 0.78125 61.015625 -6.3125 61.015625 -24.921875 C 61.015625 -42.484375 48.6875 -53.546875 31.140625 -53.546875 C 13.578125 -53.546875 1.15625 -42.484375 1.15625 -24.921875 C 1.15625 -6.3125 13.671875 0.78125 31.140625 0.78125 Z M 31.140625 -16.203125 C 26.390625 -16.203125 22.984375 -20.078125 22.984375 -26.28125 C 22.984375 -32.296875 26.28125 -36.671875 31.140625 -36.671875 C 35.984375 -36.671875 39.28125 -32.296875 39.28125 -26.28125 C 39.28125 -20.078125 35.890625 -16.203125 31.140625 -16.203125 Z M 31.140625 -16.203125 "/></g></g></g><g clip-path="url(#f6137ecd3f)"><g clip-path="url(#dd627988bd)"><g clip-path="url(#e70e18faa9)"><path fill="#7ed957" d="M 98.753906 345.539062 C 104.226562 349 106.609375 355.054688 104.074219 359.050781 C 101.542969 363.050781 95.054688 363.484375 89.585938 360.019531 C 84.113281 356.550781 81.730469 350.5 84.261719 346.503906 C 86.796875 342.503906 93.285156 342.070312 98.753906 345.539062 Z M 153.902344 357.320312 C 152.359375 358.542969 150.640625 359.425781 148.746094 359.960938 C 146.855469 360.5 144.929688 360.652344 142.976562 360.417969 C 142.617188 360.378906 142.257812 360.371094 141.898438 360.398438 C 141.539062 360.429688 141.1875 360.492188 140.839844 360.589844 C 140.492188 360.6875 140.15625 360.820312 139.835938 360.984375 C 139.515625 361.148438 139.214844 361.339844 138.929688 361.566406 C 138.648438 361.789062 138.390625 362.039062 138.15625 362.3125 C 137.921875 362.585938 137.71875 362.882812 137.542969 363.195312 C 137.367188 363.511719 137.222656 363.839844 137.109375 364.183594 C 137 364.527344 136.925781 364.878906 136.882812 365.234375 C 136.769531 366.203125 136.5625 367.152344 136.261719 368.078125 C 135.960938 369.003906 135.574219 369.894531 135.097656 370.746094 C 134.625 371.59375 134.070312 372.390625 133.4375 373.132812 C 132.808594 373.875 132.109375 374.546875 131.34375 375.152344 C 130.578125 375.757812 129.761719 376.28125 128.894531 376.722656 C 128.027344 377.167969 127.125 377.523438 126.1875 377.789062 C 125.25 378.054688 124.296875 378.226562 123.324219 378.304688 C 122.351562 378.378906 121.382812 378.363281 120.414062 378.25 C 119.449219 378.136719 118.5 377.929688 117.574219 377.628906 C 116.644531 377.328125 115.757812 376.941406 114.90625 376.464844 C 114.054688 375.992188 113.257812 375.4375 112.515625 374.804688 C 111.777344 374.175781 111.101562 373.476562 110.5 372.710938 C 109.894531 371.945312 109.371094 371.128906 108.925781 370.261719 C 108.484375 369.394531 108.128906 368.492188 107.863281 367.554688 C 107.597656 366.617188 107.425781 365.664062 107.347656 364.691406 C 107.269531 363.71875 107.289062 362.75 107.402344 361.78125 C 107.535156 360.636719 107.722656 359.503906 107.96875 358.378906 C 108.214844 357.253906 108.515625 356.140625 108.867188 355.046875 C 109.222656 353.949219 109.628906 352.871094 110.089844 351.816406 C 110.550781 350.761719 111.0625 349.730469 111.621094 348.722656 C 112.183594 347.71875 112.792969 346.742188 113.453125 345.796875 C 114.109375 344.847656 114.8125 343.9375 115.558594 343.0625 C 116.304688 342.183594 117.09375 341.34375 117.921875 340.546875 C 118.753906 339.746094 119.617188 338.988281 120.523438 338.273438 C 121.425781 337.5625 122.363281 336.890625 123.332031 336.269531 C 124.300781 335.648438 125.300781 335.074219 126.324219 334.550781 C 127.351562 334.027344 128.398438 333.554688 129.472656 333.132812 C 130.542969 332.710938 131.636719 332.34375 132.742188 332.03125 C 133.851562 331.714844 134.972656 331.457031 136.105469 331.253906 C 137.242188 331.050781 138.382812 330.902344 139.53125 330.808594 C 140.679688 330.71875 141.828125 330.683594 142.980469 330.703125 C 144.132812 330.726562 145.28125 330.804688 146.425781 330.9375 C 147.148438 331.023438 147.863281 331.160156 148.570312 331.351562 C 149.273438 331.542969 149.960938 331.78125 150.628906 332.074219 C 151.296875 332.367188 151.941406 332.703125 152.5625 333.089844 C 153.179688 333.476562 153.769531 333.90625 154.324219 334.382812 C 154.878906 334.855469 155.398438 335.367188 155.878906 335.914062 C 156.359375 336.464844 156.792969 337.046875 157.1875 337.660156 C 157.582031 338.277344 157.929688 338.914062 158.230469 339.582031 C 158.53125 340.246094 158.78125 340.929688 158.980469 341.632812 C 159.175781 342.335938 159.324219 343.046875 159.417969 343.769531 C 159.511719 344.496094 159.550781 345.222656 159.539062 345.953125 C 159.523438 346.679688 159.457031 347.40625 159.339844 348.125 C 159.21875 348.84375 159.046875 349.550781 158.820312 350.246094 C 158.597656 350.941406 158.320312 351.617188 157.996094 352.269531 C 157.671875 352.921875 157.304688 353.550781 156.886719 354.148438 C 156.46875 354.75 156.011719 355.3125 155.511719 355.847656 C 155.011719 356.378906 154.476562 356.871094 153.902344 357.320312 Z M 108.21875 325.109375 C 113.335938 330.457031 114.316406 337.828125 110.40625 341.570312 C 106.496094 345.308594 99.175781 344.003906 94.058594 338.652344 C 88.941406 333.304688 87.960938 325.9375 91.871094 322.195312 C 95.78125 318.453125 103.101562 319.757812 108.21875 325.109375 Z M 110.554688 323.265625 C 114.578125 329.480469 121.519531 332.136719 126.066406 329.195312 C 130.605469 326.253906 131.027344 318.832031 127.003906 312.613281 C 122.980469 306.398438 116.035156 303.746094 111.492188 306.6875 C 106.953125 309.625 106.53125 317.046875 110.554688 323.265625 Z M 132.613281 318.773438 C 134.722656 324.898438 140.058594 328.617188 144.535156 327.074219 C 149.011719 325.53125 150.929688 319.320312 148.824219 313.195312 C 146.714844 307.070312 141.378906 303.355469 136.902344 304.894531 C 132.425781 306.4375 130.507812 312.648438 132.613281 318.773438 Z M 132.613281 318.773438 " fill-opacity="1" fill-rule="nonzero"/></g></g></g><g clip-path="url(#2d69b9af5f)"><g clip-path="url(#685ce084c8)"><g clip-path="url(#a9166ab005)"><path fill="#5019dd" d="M 100.527344 345.160156 C 105.585938 348.363281 107.792969 353.960938 105.449219 357.660156 C 103.105469 361.355469 97.105469 361.757812 92.046875 358.554688 C 86.984375 355.347656 84.78125 349.75 87.125 346.054688 C 89.464844 342.355469 95.46875 341.953125 100.527344 345.160156 Z M 151.53125 356.058594 C 150.101562 357.191406 148.515625 358.003906 146.761719 358.5 C 145.011719 358.996094 143.230469 359.136719 141.421875 358.925781 C 141.09375 358.886719 140.761719 358.878906 140.429688 358.90625 C 140.09375 358.933594 139.769531 358.992188 139.449219 359.082031 C 139.125 359.171875 138.816406 359.292969 138.519531 359.445312 C 138.222656 359.597656 137.945312 359.777344 137.683594 359.984375 C 137.421875 360.191406 137.183594 360.421875 136.964844 360.675781 C 136.75 360.929688 136.558594 361.199219 136.398438 361.492188 C 136.234375 361.78125 136.101562 362.085938 136 362.40625 C 135.898438 362.722656 135.828125 363.046875 135.789062 363.378906 C 135.683594 364.273438 135.492188 365.148438 135.214844 366.007812 C 134.9375 366.863281 134.578125 367.6875 134.140625 368.472656 C 133.699219 369.261719 133.1875 369.996094 132.605469 370.683594 C 132.019531 371.367188 131.375 371.992188 130.667969 372.550781 C 129.960938 373.109375 129.203125 373.59375 128.402344 374.003906 C 127.601562 374.414062 126.765625 374.742188 125.898438 374.988281 C 125.03125 375.234375 124.148438 375.390625 123.25 375.464844 C 122.351562 375.535156 121.453125 375.519531 120.558594 375.414062 C 119.664062 375.308594 118.789062 375.117188 117.929688 374.839844 C 117.074219 374.5625 116.25 374.203125 115.464844 373.765625 C 114.675781 373.324219 113.941406 372.8125 113.253906 372.230469 C 112.570312 371.644531 111.945312 371 111.386719 370.292969 C 110.828125 369.585938 110.34375 368.828125 109.933594 368.027344 C 109.523438 367.226562 109.195312 366.390625 108.949219 365.523438 C 108.703125 364.65625 108.546875 363.773438 108.472656 362.875 C 108.402344 361.976562 108.417969 361.078125 108.523438 360.183594 C 108.648438 359.125 108.824219 358.078125 109.050781 357.035156 C 109.277344 355.996094 109.554688 354.96875 109.878906 353.953125 C 110.207031 352.941406 110.585938 351.945312 111.011719 350.96875 C 111.4375 349.992188 111.910156 349.035156 112.429688 348.105469 C 112.945312 347.175781 113.511719 346.273438 114.117188 345.398438 C 114.726562 344.523438 115.375 343.679688 116.066406 342.871094 C 116.757812 342.058594 117.488281 341.285156 118.253906 340.542969 C 119.019531 339.804688 119.824219 339.105469 120.660156 338.445312 C 121.496094 337.78125 122.359375 337.164062 123.257812 336.589844 C 124.152344 336.015625 125.078125 335.484375 126.023438 335 C 126.972656 334.515625 127.945312 334.078125 128.9375 333.6875 C 129.925781 333.296875 130.9375 332.957031 131.960938 332.667969 C 132.984375 332.378906 134.023438 332.136719 135.070312 331.949219 C 136.121094 331.761719 137.175781 331.625 138.238281 331.539062 C 139.300781 331.457031 140.363281 331.421875 141.429688 331.441406 C 142.496094 331.460938 143.554688 331.535156 144.613281 331.660156 C 145.960938 331.816406 147.257812 332.167969 148.503906 332.707031 C 149.746094 333.25 150.886719 333.960938 151.917969 334.84375 C 152.953125 335.722656 153.835938 336.734375 154.570312 337.875 C 155.300781 339.019531 155.855469 340.242188 156.222656 341.546875 C 156.59375 342.855469 156.765625 344.1875 156.742188 345.542969 C 156.71875 346.898438 156.496094 348.222656 156.078125 349.515625 C 155.660156 350.808594 155.0625 352.011719 154.289062 353.125 C 153.515625 354.238281 152.59375 355.21875 151.53125 356.058594 Z M 109.28125 326.265625 C 114.011719 331.214844 114.917969 338.03125 111.304688 341.492188 C 107.6875 344.949219 100.917969 343.742188 96.183594 338.792969 C 91.449219 333.847656 90.542969 327.03125 94.160156 323.570312 C 97.777344 320.113281 104.546875 321.320312 109.28125 326.265625 Z M 111.4375 324.5625 C 115.160156 330.308594 121.582031 332.765625 125.785156 330.042969 C 129.984375 327.324219 130.371094 320.460938 126.652344 314.710938 C 122.929688 308.964844 116.507812 306.507812 112.308594 309.230469 C 108.109375 311.949219 107.71875 318.8125 111.4375 324.5625 Z M 131.839844 320.410156 C 133.789062 326.070312 138.726562 329.511719 142.867188 328.085938 C 147.003906 326.660156 148.78125 320.914062 146.832031 315.25 C 144.882812 309.585938 139.945312 306.148438 135.808594 307.574219 C 131.667969 309 129.894531 314.746094 131.839844 320.410156 Z M 131.839844 320.410156 " fill-opacity="1" fill-rule="nonzero"/></g></g></g></svg>