<svg xmlns="http://www.w3.org/2000/svg" xmlns:xlink="http://www.w3.org/1999/xlink" width="1920" zoomAndPan="magnify" viewBox="0 0 1440 809.999993" height="1080" preserveAspectRatio="xMidYMid meet" version="1.0"><defs><g/><clipPath id="1914c2c978"><path d="M 1068 348 L 1144 348 L 1144 424 L 1068 424 Z M 1068 348 " clip-rule="nonzero"/></clipPath><clipPath id="722aa7d82b"><path d="M 1101.039062 333.84375 L 1158.015625 389.289062 L 1110.417969 438.203125 L 1053.441406 382.757812 Z M 1101.039062 333.84375 " clip-rule="nonzero"/></clipPath><clipPath id="0351bd81ec"><path d="M 1101.039062 333.84375 L 1158.015625 389.289062 L 1110.417969 438.203125 L 1053.441406 382.757812 Z M 1101.039062 333.84375 " clip-rule="nonzero"/></clipPath><clipPath id="caed2ae138"><path d="M 1071 351 L 1141 351 L 1141 422 L 1071 422 Z M 1071 351 " clip-rule="nonzero"/></clipPath><clipPath id="2da73b93a7"><path d="M 1101.40625 337.777344 L 1154.082031 389.039062 L 1110.144531 434.1875 L 1057.46875 382.929688 Z M 1101.40625 337.777344 " clip-rule="nonzero"/></clipPath><clipPath id="939374b995"><path d="M 1101.40625 337.777344 L 1154.082031 389.039062 L 1110.144531 434.1875 L 1057.46875 382.929688 Z M 1101.40625 337.777344 " clip-rule="nonzero"/></clipPath><clipPath id="7c37776cc2"><path d="M 287 309 L 365 309 L 365 384 L 287 384 Z M 287 309 " clip-rule="nonzero"/></clipPath><clipPath id="4b12170b73"><path d="M 274.257812 343.3125 L 336.628906 294.015625 L 378.949219 347.558594 L 316.578125 396.855469 Z M 274.257812 343.3125 " clip-rule="nonzero"/></clipPath><clipPath id="96ea5420b5"><path d="M 274.257812 343.3125 L 336.628906 294.015625 L 378.949219 347.558594 L 316.578125 396.855469 Z M 274.257812 343.3125 " clip-rule="nonzero"/></clipPath><clipPath id="b4b097b33b"><path d="M 290 312 L 362 312 L 362 381 L 290 381 Z M 290 312 " clip-rule="nonzero"/></clipPath><clipPath id="95840c9008"><path d="M 278.207031 343.46875 L 335.871094 297.890625 L 374.9375 347.316406 L 317.273438 392.894531 Z M 278.207031 343.46875 " clip-rule="nonzero"/></clipPath><clipPath id="122710a60c"><path d="M 278.207031 343.46875 L 335.871094 297.890625 L 374.9375 347.316406 L 317.273438 392.894531 Z M 278.207031 343.46875 " clip-rule="nonzero"/></clipPath></defs><g clip-path="url(#1914c2c978)"><g clip-path="url(#722aa7d82b)"><g clip-path="url(#0351bd81ec)"><path fill="#7ed957" d="M 1097.808594 363.472656 C 1095.085938 369.347656 1089.390625 372.496094 1085.097656 370.503906 C 1080.804688 368.511719 1079.535156 362.132812 1082.261719 356.257812 C 1084.988281 350.382812 1090.675781 347.234375 1094.972656 349.226562 C 1099.265625 351.21875 1100.535156 357.597656 1097.808594 363.472656 Z M 1093.28125 419.683594 C 1091.867188 418.3125 1090.773438 416.722656 1089.996094 414.914062 C 1089.21875 413.105469 1088.816406 411.21875 1088.792969 409.25 C 1088.785156 408.890625 1088.746094 408.53125 1088.671875 408.179688 C 1088.597656 407.828125 1088.488281 407.484375 1088.347656 407.152344 C 1088.203125 406.820312 1088.03125 406.507812 1087.824219 406.210938 C 1087.621094 405.914062 1087.390625 405.640625 1087.132812 405.386719 C 1086.871094 405.136719 1086.59375 404.914062 1086.289062 404.714844 C 1085.988281 404.519531 1085.667969 404.355469 1085.332031 404.222656 C 1085 404.089844 1084.652344 403.988281 1084.300781 403.925781 C 1083.945312 403.859375 1083.585938 403.828125 1083.226562 403.832031 C 1082.25 403.847656 1081.285156 403.765625 1080.328125 403.585938 C 1079.367188 403.410156 1078.4375 403.140625 1077.53125 402.78125 C 1076.625 402.421875 1075.765625 401.976562 1074.949219 401.445312 C 1074.128906 400.914062 1073.371094 400.308594 1072.675781 399.628906 C 1071.976562 398.949219 1071.351562 398.207031 1070.796875 397.40625 C 1070.246094 396.601562 1069.777344 395.753906 1069.390625 394.859375 C 1069.007812 393.964844 1068.710938 393.039062 1068.507812 392.085938 C 1068.304688 391.132812 1068.199219 390.167969 1068.183594 389.195312 C 1068.171875 388.222656 1068.253906 387.253906 1068.429688 386.296875 C 1068.609375 385.335938 1068.875 384.40625 1069.238281 383.5 C 1069.597656 382.59375 1070.042969 381.734375 1070.574219 380.917969 C 1071.105469 380.097656 1071.710938 379.339844 1072.390625 378.644531 C 1073.070312 377.945312 1073.808594 377.320312 1074.613281 376.765625 C 1075.414062 376.214844 1076.265625 375.746094 1077.160156 375.359375 C 1078.054688 374.976562 1078.980469 374.679688 1079.933594 374.476562 C 1080.886719 374.273438 1081.847656 374.167969 1082.824219 374.152344 C 1083.976562 374.136719 1085.125 374.179688 1086.273438 374.273438 C 1087.421875 374.371094 1088.5625 374.523438 1089.695312 374.734375 C 1090.828125 374.945312 1091.945312 375.207031 1093.054688 375.527344 C 1094.160156 375.847656 1095.25 376.21875 1096.320312 376.644531 C 1097.390625 377.070312 1098.4375 377.546875 1099.460938 378.078125 C 1100.484375 378.605469 1101.480469 379.183594 1102.445312 379.8125 C 1103.410156 380.4375 1104.34375 381.109375 1105.246094 381.828125 C 1106.144531 382.546875 1107.007812 383.308594 1107.835938 384.113281 C 1108.660156 384.917969 1109.445312 385.757812 1110.1875 386.636719 C 1110.929688 387.519531 1111.628906 388.433594 1112.28125 389.382812 C 1112.933594 390.332031 1113.539062 391.3125 1114.097656 392.320312 C 1114.652344 393.328125 1115.160156 394.363281 1115.613281 395.421875 C 1116.070312 396.476562 1116.472656 397.554688 1116.820312 398.652344 C 1117.167969 399.753906 1117.464844 400.863281 1117.703125 401.992188 C 1117.945312 403.117188 1118.128906 404.253906 1118.257812 405.398438 C 1118.382812 406.542969 1118.457031 407.691406 1118.472656 408.84375 C 1118.480469 409.574219 1118.4375 410.300781 1118.339844 411.023438 C 1118.242188 411.746094 1118.09375 412.460938 1117.890625 413.160156 C 1117.6875 413.863281 1117.4375 414.542969 1117.132812 415.207031 C 1116.832031 415.871094 1116.480469 416.511719 1116.082031 417.121094 C 1115.6875 417.734375 1115.246094 418.316406 1114.761719 418.863281 C 1114.28125 419.410156 1113.761719 419.917969 1113.203125 420.390625 C 1112.644531 420.859375 1112.054688 421.289062 1111.433594 421.671875 C 1110.8125 422.054688 1110.167969 422.390625 1109.496094 422.679688 C 1108.828125 422.96875 1108.140625 423.207031 1107.433594 423.390625 C 1106.726562 423.578125 1106.011719 423.714844 1105.289062 423.796875 C 1104.5625 423.875 1103.835938 423.902344 1103.105469 423.878906 C 1102.375 423.851562 1101.652344 423.773438 1100.933594 423.640625 C 1100.21875 423.507812 1099.511719 423.324219 1098.824219 423.085938 C 1098.132812 422.851562 1097.464844 422.566406 1096.816406 422.230469 C 1096.167969 421.894531 1095.546875 421.511719 1094.953125 421.085938 C 1094.363281 420.660156 1093.804688 420.191406 1093.28125 419.683594 Z M 1119.292969 370.207031 C 1114.652344 375.972656 1107.472656 377.902344 1103.253906 374.511719 C 1099.039062 371.117188 1099.382812 363.691406 1104.023438 357.921875 C 1108.664062 352.152344 1115.84375 350.226562 1120.0625 353.617188 C 1124.277344 357.007812 1123.933594 364.433594 1119.292969 370.207031 Z M 1121.425781 372.28125 C 1115.785156 377.074219 1114.050781 384.304688 1117.558594 388.429688 C 1121.0625 392.550781 1128.476562 392.003906 1134.121094 387.207031 C 1139.761719 382.414062 1141.492188 375.183594 1137.984375 371.058594 C 1134.480469 366.9375 1127.066406 367.484375 1121.425781 372.28125 Z M 1128.738281 393.570312 C 1122.941406 396.457031 1119.949219 402.230469 1122.058594 406.46875 C 1124.167969 410.707031 1130.578125 411.804688 1136.375 408.917969 C 1142.175781 406.035156 1145.167969 400.261719 1143.058594 396.023438 C 1140.949219 391.785156 1134.539062 390.6875 1128.738281 393.570312 Z M 1128.738281 393.570312 " fill-opacity="1" fill-rule="nonzero"/></g></g></g><g clip-path="url(#caed2ae138)"><g clip-path="url(#2da73b93a7)"><g clip-path="url(#939374b995)"><path fill="#5019dd" d="M 1098.417969 365.175781 C 1095.898438 370.609375 1090.636719 373.523438 1086.664062 371.679688 C 1082.695312 369.835938 1081.519531 363.9375 1084.039062 358.503906 C 1086.5625 353.070312 1091.824219 350.160156 1095.792969 352.003906 C 1099.765625 353.84375 1100.941406 359.742188 1098.417969 365.175781 Z M 1094.230469 417.160156 C 1092.925781 415.894531 1091.914062 414.425781 1091.191406 412.75 C 1090.472656 411.078125 1090.101562 409.332031 1090.078125 407.511719 C 1090.074219 407.179688 1090.039062 406.851562 1089.96875 406.523438 C 1089.898438 406.199219 1089.800781 405.882812 1089.667969 405.574219 C 1089.535156 405.269531 1089.375 404.976562 1089.1875 404.703125 C 1088.996094 404.429688 1088.785156 404.175781 1088.542969 403.941406 C 1088.304688 403.710938 1088.046875 403.503906 1087.765625 403.320312 C 1087.484375 403.140625 1087.191406 402.988281 1086.882812 402.863281 C 1086.570312 402.738281 1086.253906 402.648438 1085.925781 402.585938 C 1085.597656 402.527344 1085.265625 402.5 1084.933594 402.503906 C 1084.03125 402.515625 1083.136719 402.441406 1082.25 402.277344 C 1081.367188 402.113281 1080.503906 401.863281 1079.667969 401.53125 C 1078.828125 401.195312 1078.03125 400.785156 1077.277344 400.292969 C 1076.519531 399.804688 1075.820312 399.246094 1075.171875 398.617188 C 1074.527344 397.988281 1073.949219 397.300781 1073.4375 396.558594 C 1072.925781 395.816406 1072.492188 395.03125 1072.136719 394.203125 C 1071.78125 393.375 1071.511719 392.519531 1071.320312 391.640625 C 1071.132812 390.757812 1071.035156 389.867188 1071.023438 388.964844 C 1071.007812 388.066406 1071.085938 387.171875 1071.25 386.285156 C 1071.414062 385.398438 1071.660156 384.535156 1071.996094 383.699219 C 1072.328125 382.863281 1072.742188 382.066406 1073.230469 381.308594 C 1073.722656 380.554688 1074.28125 379.851562 1074.910156 379.207031 C 1075.539062 378.5625 1076.222656 377.984375 1076.964844 377.472656 C 1077.707031 376.960938 1078.496094 376.527344 1079.320312 376.171875 C 1080.148438 375.816406 1081.003906 375.542969 1081.886719 375.355469 C 1082.765625 375.167969 1083.660156 375.066406 1084.558594 375.054688 C 1085.625 375.039062 1086.6875 375.078125 1087.75 375.167969 C 1088.8125 375.257812 1089.867188 375.398438 1090.914062 375.59375 C 1091.960938 375.785156 1093 376.03125 1094.023438 376.324219 C 1095.046875 376.621094 1096.050781 376.964844 1097.042969 377.359375 C 1098.03125 377.753906 1099 378.195312 1099.945312 378.683594 C 1100.894531 379.171875 1101.8125 379.707031 1102.707031 380.289062 C 1103.601562 380.867188 1104.464844 381.488281 1105.296875 382.152344 C 1106.128906 382.820312 1106.929688 383.523438 1107.691406 384.265625 C 1108.457031 385.007812 1109.179688 385.789062 1109.867188 386.601562 C 1110.554688 387.417969 1111.199219 388.261719 1111.804688 389.140625 C 1112.40625 390.019531 1112.96875 390.921875 1113.480469 391.855469 C 1113.996094 392.789062 1114.464844 393.746094 1114.886719 394.722656 C 1115.308594 395.703125 1115.679688 396.699219 1116 397.714844 C 1116.324219 398.730469 1116.597656 399.757812 1116.820312 400.800781 C 1117.039062 401.84375 1117.210938 402.894531 1117.328125 403.953125 C 1117.449219 405.011719 1117.515625 406.074219 1117.527344 407.136719 C 1117.546875 408.496094 1117.367188 409.824219 1116.992188 411.128906 C 1116.617188 412.433594 1116.058594 413.65625 1115.320312 414.792969 C 1114.582031 415.933594 1113.691406 416.941406 1112.65625 417.816406 C 1111.617188 418.691406 1110.476562 419.398438 1109.230469 419.933594 C 1107.984375 420.46875 1106.683594 420.8125 1105.335938 420.964844 C 1103.988281 421.117188 1102.644531 421.070312 1101.308594 420.824219 C 1099.976562 420.574219 1098.707031 420.140625 1097.5 419.515625 C 1096.292969 418.894531 1095.203125 418.109375 1094.230469 417.160156 Z M 1118.289062 371.402344 C 1113.996094 376.738281 1107.355469 378.523438 1103.457031 375.386719 C 1099.558594 372.25 1099.875 365.378906 1104.167969 360.042969 C 1108.460938 354.707031 1115.097656 352.925781 1119 356.0625 C 1122.898438 359.199219 1122.582031 366.066406 1118.289062 371.402344 Z M 1120.261719 373.324219 C 1115.042969 377.757812 1113.441406 384.445312 1116.683594 388.257812 C 1119.925781 392.070312 1126.785156 391.5625 1132 387.128906 C 1137.21875 382.691406 1138.816406 376.007812 1135.574219 372.195312 C 1132.335938 368.382812 1125.476562 368.886719 1120.261719 373.324219 Z M 1127.023438 393.011719 C 1121.664062 395.679688 1118.894531 401.023438 1120.847656 404.941406 C 1122.796875 408.859375 1128.722656 409.875 1134.085938 407.207031 C 1139.449219 404.539062 1142.21875 399.199219 1140.265625 395.28125 C 1138.316406 391.359375 1132.390625 390.347656 1127.023438 393.011719 Z M 1127.023438 393.011719 " fill-opacity="1" fill-rule="nonzero"/></g></g></g><path stroke-linecap="butt" transform="matrix(0.75, 0, 0, 0.75, -74.502705, 323.342435)" fill="none" stroke-linejoin="miter" d="M 550.540093 151.548636 C 554.878635 151.548636 563.149469 151.408011 567.357802 151.001761 C 569.305719 150.725719 571.113011 149.189261 570.977594 146.934052 C 570.566136 142.184052 570.706761 136.574677 571.284886 132.647593 C 572.107802 127.756968 576.581761 125.673635 581.503636 125.538218 L 586.800511 125.538218 C 591.863012 125.673635 596.33697 127.486135 597.159887 132.647593 C 597.602595 136.715302 597.738012 142.319469 597.467179 146.798636 C 597.159887 149.189261 599.003637 150.725719 600.951554 151.001761 C 605.019262 151.408011 612.847388 151.548636 616.503638 151.548636 C 620.264055 151.548636 628.534889 151.408011 632.602597 151.001761 C 634.956764 150.861136 636.498431 149.053844 635.951556 146.658011 C 630.206764 112.928842 617.732805 76.116341 607.956763 55.371548 C 607.378638 53.970506 606.113012 53.288214 604.576554 53.012173 C 599.139054 52.434048 589.196345 52.434048 583.998428 52.434048 C 578.701553 52.434048 569.029677 52.434048 563.836969 53.012173 C 562.295302 53.288214 561.066135 53.970506 560.48801 55.371548 C 550.67551 76.116341 538.102592 112.928842 532.3578 146.522594 C 531.779675 148.913219 533.347384 150.725719 535.842176 151.001761 C 539.639051 151.272594 546.644259 151.548636 550.540093 151.548636 Z M 582.904678 111.934051 C 578.566136 111.798634 576.310928 109.715301 577.300511 106.194467 C 578.258844 99.355925 580.102594 90.678841 581.779678 83.668424 C 583.18072 79.194466 585.128636 79.194466 586.394261 83.668424 C 588.201553 90.678841 590.185928 99.355925 591.008845 106.194467 C 591.998428 109.715301 589.878637 111.798634 585.540095 111.934051 Z M 681.873433 184.324679 C 713.211976 184.324679 732.524477 173.522595 732.524477 146.522594 C 732.524477 121.335093 731.430727 94.881967 729.581769 78.611132 C 729.310935 76.663216 728.04531 75.126757 725.961977 74.850716 C 722.883852 74.579882 716.149476 74.27259 712.665101 74.27259 C 709.144268 74.27259 703.576559 74.27259 699.644267 74.850716 C 697.389059 75.262174 695.441142 76.939257 695.988017 79.194466 C 696.842184 82.954883 697.113017 86.027799 697.389059 90.814258 C 697.524475 93.616341 695.441142 94.0278 694.310934 91.49655 C 689.836975 80.319466 680.472391 73.725715 669.258849 73.725715 C 651.623431 73.725715 639.456764 86.746549 639.456764 111.663217 C 639.456764 135.585094 651.488015 150.006969 669.670307 150.006969 C 680.743225 150.006969 689.836975 144.574677 694.310934 133.090302 C 695.576559 130.017385 697.659892 130.423635 697.659892 133.225718 L 697.659892 137.704885 C 697.659892 149.600719 685.769266 157.730928 671.925516 157.730928 C 662.836974 157.730928 653.571348 155.204886 647.008848 151.855928 C 644.618223 150.147594 642.086973 151.684053 641.816139 154.621553 C 641.540098 161.220512 640.993223 171.16322 640.826556 176.324679 C 640.685931 178.309054 641.951556 180.121554 643.800514 180.668429 C 652.75364 183.059054 671.790099 184.324679 681.873433 184.324679 Z M 685.769266 125.809051 C 679.071349 125.809051 674.456766 120.480926 674.456766 112.210092 C 674.456766 104.381967 678.930724 99.355925 685.769266 99.355925 C 692.639058 99.355925 697.113017 104.381967 697.113017 112.210092 C 697.113017 120.480926 692.498433 125.809051 685.769266 125.809051 Z M 781.665105 152.126761 C 792.873439 152.126761 806.717189 150.590303 814.576565 145.975719 C 816.118231 144.845511 816.93594 143.309052 816.800523 141.189261 C 816.524481 136.303844 815.81094 128.475718 815.264065 123.553843 C 814.852606 119.486134 811.774481 118.533009 809.654689 121.027801 C 802.649481 127.210093 795.36823 129.710093 785.597396 129.710093 C 776.915104 129.710093 767.378646 125.538218 764.305729 118.803843 C 762.764062 116.277801 764.441145 114.736134 766.696354 116.413218 C 772.300521 120.069468 778.727604 121.746551 785.456771 121.746551 C 800.154689 121.746551 813.863023 112.928842 813.863023 100.314258 C 813.863023 82.543424 800.154689 73.725715 778.045313 73.725715 C 753.540103 73.725715 736.586977 87.600716 736.586977 111.934051 C 736.586977 137.840302 753.946353 152.126761 781.665105 152.126761 Z M 777.326563 110.668426 C 772.711979 110.668426 765.842187 108.585092 765.842187 104.24655 C 765.842187 98.913217 771.034896 95.1528 776.503646 95.1528 C 782.795313 95.1528 785.321355 98.366342 785.321355 103.256967 C 785.321355 108.038217 782.076563 110.668426 777.326563 110.668426 Z M 840.461983 151.548636 C 844.394274 151.548636 850.821358 151.408011 854.613025 151.001761 C 856.696358 150.725719 858.508858 149.189261 858.238025 146.798636 C 857.550525 137.840302 857.107817 128.616343 856.9724 121.027801 C 856.9724 111.663217 861.451567 103.699675 868.727609 103.699675 C 875.873443 103.699675 880.211985 111.527801 880.347401 120.892385 C 880.347401 127.756968 879.529693 137.434052 878.675526 146.658011 C 878.54011 149.053844 880.347401 150.725719 882.467193 151.001761 C 887.357818 151.408011 892.82136 151.548636 897.300527 151.548636 C 901.639069 151.548636 906.800528 151.408011 911.451569 151.001761 C 913.534903 150.725719 914.935945 149.460094 915.071361 147.204886 C 915.211986 136.168427 914.800528 119.934051 914.081778 111.934051 C 912.269278 88.970508 902.769277 73.861132 884.961985 73.861132 C 873.784901 73.861132 864.831775 80.730924 860.045317 94.439258 C 859.092192 96.9653 856.9724 96.829883 856.9724 93.892383 C 857.107817 89.413216 857.826567 86.475716 859.774484 79.605924 C 860.493234 77.381966 858.508858 74.991341 856.290108 74.850716 C 851.946358 74.408007 845.795316 74.27259 842.274483 74.27259 C 838.654691 74.27259 831.920315 74.408007 828.43594 74.850716 C 826.316149 75.126757 825.050523 76.939257 824.639065 79.059049 C 822.555732 95.428842 821.425523 113.918426 821.425523 146.798636 C 821.290107 149.053844 822.96719 150.725719 825.050523 151.001761 C 829.389065 151.408011 836.399482 151.548636 840.461983 151.548636 Z M 949.23803 152.126761 C 960.58178 152.126761 969.092197 145.975719 973.878656 136.027802 C 975.415114 133.090302 977.498448 133.50176 977.227614 136.850719 C 977.092198 139.928844 976.680739 143.444469 976.097406 146.658011 C 975.691156 149.053844 977.498448 150.725719 979.753656 151.001761 C 983.514073 151.408011 990.113032 151.548636 993.732824 151.548636 C 997.389074 151.548636 1004.805741 151.408011 1009.149491 151.001761 C 1011.232825 150.725719 1012.769283 149.053844 1012.769283 146.798636 C 1012.769283 113.746551 1011.232825 75.262174 1009.555741 54.96009 C 1009.420324 52.876756 1007.883866 51.475714 1005.935949 51.204881 C 1002.144282 50.621548 996.128657 50.621548 992.467199 50.621548 C 988.982823 50.621548 981.43074 50.621548 977.363031 51.033006 C 975.144281 51.475714 973.159906 53.288214 973.571364 55.543423 C 975.279698 65.043423 977.092198 78.751757 977.498448 89.960091 C 977.639073 93.751758 975.415114 93.616341 973.878656 90.949675 C 968.545322 79.605924 961.264072 73.861132 949.097405 73.861132 C 930.883862 73.861132 919.123445 89.2778 919.123445 114.600718 C 919.123445 139.517385 931.32657 152.126761 949.23803 152.126761 Z M 965.743239 126.22051 C 958.873447 126.22051 954.258863 121.335093 954.258863 113.335092 C 954.258863 105.37155 958.73803 99.9028 965.743239 99.9028 C 972.477614 99.9028 977.092198 105.37155 977.092198 113.335092 C 977.092198 121.335093 972.336989 126.22051 965.743239 126.22051 Z M 1039.368243 152.126761 C 1049.451576 152.126761 1058.540119 146.934052 1063.19116 134.491344 C 1064.279702 131.824677 1066.264077 132.371552 1066.128661 135.173635 C 1065.821369 138.116344 1065.274494 142.730927 1064.863036 145.392386 C 1064.279702 148.470511 1066.540119 150.590303 1070.024494 151.001761 C 1073.956786 151.408011 1079.69637 151.548636 1083.488036 151.548636 C 1087.38387 151.548636 1093.399495 151.408011 1096.920329 151.001761 C 1099.144287 150.590303 1100.545329 149.053844 1100.545329 146.658011 C 1100.133871 132.512177 1098.732829 113.064259 1097.467204 101.303842 C 1095.795329 85.345508 1086.25887 73.725715 1057.72241 73.725715 C 1042.034909 73.725715 1031.128659 75.980924 1025.800534 77.793424 C 1024.12345 78.475716 1023.269283 80.152799 1023.133867 82.267383 C 1022.722408 88.147591 1022.31095 95.699675 1022.451575 101.579884 C 1022.451575 105.37155 1025.389075 106.913217 1027.74845 104.381967 C 1035.743242 98.913217 1047.227618 95.699675 1054.508868 95.699675 C 1062.47241 95.699675 1065.274494 98.230925 1065.274494 100.897592 C 1065.274494 104.658009 1060.65991 105.647592 1051.842202 106.772592 C 1032.941159 108.996551 1017.253658 116.413218 1017.253658 130.97051 C 1017.253658 145.668427 1025.113034 152.126761 1039.368243 152.126761 Z M 1056.592202 128.168427 C 1052.113035 128.168427 1050.165118 126.355926 1050.165118 122.152801 C 1050.165118 116.548634 1055.461993 112.517384 1060.65991 112.517384 C 1064.008869 112.517384 1065.685952 114.876759 1065.685952 117.949676 C 1065.685952 124.40801 1060.113035 128.168427 1056.592202 128.168427 Z M 1122.685955 151.548636 C 1126.034914 151.548636 1133.857831 151.408011 1137.925539 151.001761 C 1140.014081 150.725719 1141.993248 149.053844 1141.722414 146.658011 C 1141.139081 139.381969 1140.321373 129.87676 1140.456789 122.736135 C 1140.592206 114.053842 1143.123456 107.460092 1147.154706 107.460092 C 1151.941165 107.460092 1154.743248 113.611134 1155.014082 122.736135 C 1155.154707 129.022593 1154.571373 139.241344 1154.159915 146.522594 C 1154.024498 149.053844 1155.836998 150.725719 1158.092207 151.001761 C 1162.295332 151.408011 1169.576582 151.548636 1173.336999 151.548636 C 1176.717208 151.548636 1183.144291 151.548636 1187.076583 151.001761 C 1189.295333 150.590303 1191.279709 149.053844 1190.972417 146.522594 C 1190.284917 137.980927 1189.43075 128.887177 1189.43075 122.293426 C 1189.43075 113.475717 1192.373459 107.460092 1196.300542 107.460092 C 1200.915126 107.460092 1203.717209 113.199676 1203.993251 123.006968 C 1204.128668 128.887177 1203.717209 139.381969 1203.310959 146.522594 C 1203.034917 149.053844 1204.712001 150.590303 1207.066168 151.001761 C 1211.133876 151.548636 1218.68596 151.548636 1222.206793 151.548636 C 1225.555752 151.548636 1232.019294 151.548636 1235.915127 151.001761 C 1238.170336 150.590303 1239.982836 149.053844 1239.842211 146.522594 C 1238.988044 129.434052 1238.581794 117.678843 1236.633878 104.24655 C 1233.555752 81.996549 1223.472419 74.27259 1211.545335 74.27259 C 1200.779709 74.27259 1192.508875 83.397591 1189.571375 95.699675 C 1188.613042 99.355925 1186.49325 99.49655 1185.675542 95.699675 C 1181.74325 79.465299 1174.461999 74.27259 1164.378666 74.27259 C 1154.435957 74.27259 1146.743248 83.397591 1143.123456 96.111133 C 1142.128664 99.631967 1140.180748 98.913217 1140.180748 95.699675 C 1140.321373 92.2153 1141.550539 84.355924 1142.540123 79.329882 C 1143.123456 76.939257 1141.274498 75.262174 1138.920331 74.850716 C 1135.123456 74.408007 1127.435955 74.27259 1123.915122 74.27259 C 1120.430747 74.27259 1115.540121 74.27259 1112.019288 74.850716 C 1109.935954 75.262174 1108.534913 76.527799 1108.264079 78.611132 C 1106.550538 96.24655 1105.456788 119.215301 1105.456788 146.798636 C 1105.456788 149.053844 1106.998454 150.725719 1109.081788 151.001761 C 1112.873455 151.408011 1119.57658 151.548636 1122.685955 151.548636 Z M 1288.967213 152.126761 C 1300.180756 152.126761 1314.019298 150.590303 1321.883882 145.975719 C 1323.42034 144.845511 1324.238049 143.309052 1324.102632 141.189261 C 1323.831799 136.303844 1323.113049 128.475718 1322.566174 123.553843 C 1322.154715 119.486134 1319.07659 118.533009 1316.962007 121.027801 C 1309.95159 127.210093 1302.675548 129.710093 1292.899505 129.710093 C 1284.217213 129.710093 1274.680754 125.538218 1271.607838 118.803843 C 1270.071379 116.277801 1271.743254 114.736134 1273.998463 116.413218 C 1279.60263 120.069468 1286.029713 121.746551 1292.764089 121.746551 C 1307.456798 121.746551 1321.165132 112.928842 1321.165132 100.314258 C 1321.165132 82.543424 1307.456798 73.725715 1285.347422 73.725715 C 1260.842212 73.725715 1243.889086 87.600716 1243.889086 111.934051 C 1243.889086 137.840302 1261.25367 152.126761 1288.967213 152.126761 Z M 1284.628672 110.668426 C 1280.014088 110.668426 1273.144296 108.585092 1273.144296 104.24655 C 1273.144296 98.913217 1278.342213 95.1528 1283.805755 95.1528 C 1290.097422 95.1528 1292.623464 98.366342 1292.623464 103.256967 C 1292.623464 108.038217 1289.378672 110.668426 1284.628672 110.668426 Z M 1347.7693 151.548636 C 1351.696383 151.548636 1358.123467 151.408011 1361.915134 151.001761 C 1364.003676 150.725719 1365.810967 149.189261 1365.540134 146.798636 C 1364.857842 137.840302 1364.409926 128.616343 1364.274509 121.027801 C 1364.274509 111.663217 1368.753676 103.699675 1376.029718 103.699675 C 1383.175552 103.699675 1387.514093 111.527801 1387.654718 120.892385 C 1387.654718 127.756968 1386.831802 137.434052 1385.977635 146.658011 C 1385.842218 149.053844 1387.654718 150.725719 1389.769302 151.001761 C 1394.659927 151.408011 1400.128677 151.548636 1404.602636 151.548636 C 1408.946386 151.548636 1414.107845 151.408011 1418.753678 151.001761 C 1420.837012 150.725719 1422.238054 149.460094 1422.378679 147.204886 C 1422.514095 136.168427 1422.102637 119.934051 1421.383887 111.934051 C 1419.571387 88.970508 1410.071386 73.861132 1392.264094 73.861132 C 1381.092218 73.861132 1372.133884 80.730924 1367.352634 94.439258 C 1366.394301 96.9653 1364.274509 96.829883 1364.274509 93.892383 C 1364.409926 89.413216 1365.128676 86.475716 1367.076592 79.605924 C 1367.795342 77.381966 1365.810967 74.991341 1363.592217 74.850716 C 1359.253675 74.408007 1353.097425 74.27259 1349.576592 74.27259 C 1345.9568 74.27259 1339.222424 74.408007 1335.738049 74.850716 C 1333.618257 75.126757 1332.352632 76.939257 1331.941174 79.059049 C 1329.857841 95.428842 1328.73284 113.918426 1328.73284 146.798636 C 1328.592215 149.053844 1330.269299 150.725719 1332.352632 151.001761 C 1336.696383 151.408011 1343.701591 151.548636 1347.7693 151.548636 Z M 1469.831806 152.126761 C 1478.514098 152.126761 1486.342223 150.861136 1493.482849 148.913219 C 1495.159932 148.199678 1496.560974 146.387177 1496.560974 143.855927 C 1496.696391 139.241344 1496.831807 130.152802 1496.696391 124.954885 C 1496.560974 121.605926 1493.894307 120.480926 1491.810974 122.017385 C 1489.41514 123.28301 1484.805765 124.548635 1481.863057 124.548635 C 1475.988056 124.548635 1471.508889 121.746551 1471.232848 116.137176 C 1470.962014 111.798634 1470.962014 106.772592 1471.373473 101.850717 C 1471.644306 99.49655 1473.180764 97.954883 1476.123473 97.954883 C 1480.462015 97.954883 1487.19639 98.230925 1491.534932 98.501758 C 1493.623474 98.7778 1495.430766 96.694467 1495.430766 94.439258 L 1495.430766 78.751757 C 1495.430766 76.527799 1493.623474 74.715299 1491.534932 74.715299 C 1486.066182 74.715299 1479.644306 74.991341 1474.175556 74.991341 C 1473.045348 74.991341 1472.227639 73.861132 1472.227639 72.189257 C 1472.227639 68.699674 1472.909931 65.17884 1473.628681 61.251757 C 1473.899514 59.027798 1472.055764 57.079881 1469.831806 56.77259 C 1465.904722 56.361131 1458.352639 56.225715 1454.863055 56.225715 C 1451.482847 56.361131 1446.321388 56.361131 1442.935971 56.77259 C 1440.988054 57.079881 1439.451596 58.61634 1439.175554 60.569465 C 1438.764096 64.189257 1438.456804 69.246549 1438.321388 73.043424 C 1438.185971 73.996549 1437.503679 74.850716 1436.373471 74.850716 L 1429.503679 74.850716 C 1427.420345 74.850716 1425.883887 76.527799 1425.743262 78.611132 C 1425.743262 83.944466 1425.607845 89.137175 1425.743262 94.298633 C 1425.883887 96.418425 1427.420345 98.230925 1429.503679 98.230925 C 1431.488054 98.095508 1433.435971 98.095508 1435.248471 98.095508 C 1436.373471 97.954883 1437.363054 98.7778 1437.227638 99.9028 C 1436.102638 108.585092 1436.102638 117.538218 1436.102638 123.418426 C 1436.102638 143.444469 1450.65993 152.126761 1469.831806 152.126761 Z M 1542.76931 152.126761 C 1567.956811 152.126761 1585.86827 141.908011 1585.86827 115.012176 C 1585.86827 89.68405 1568.092228 73.725715 1542.76931 73.725715 C 1517.409933 73.725715 1499.498474 89.68405 1499.498474 115.012176 C 1499.498474 141.908011 1517.581808 152.126761 1542.76931 152.126761 Z M 1542.76931 127.621552 C 1535.899518 127.621552 1531.014101 122.017385 1531.014101 113.064259 C 1531.014101 104.381967 1535.764101 98.095508 1542.76931 98.095508 C 1549.774518 98.095508 1554.524519 104.381967 1554.524519 113.064259 C 1554.524519 122.017385 1549.639102 127.621552 1542.76931 127.621552 Z M 1542.76931 127.621552 " stroke="#7ed957" stroke-width="10.4997" stroke-opacity="1" stroke-miterlimit="4"/><g fill="#5019dd" fill-opacity="1"><g transform="translate(323.817587, 436.592429)"><g><path d="M 14.59375 0.421875 C 17.847656 0.421875 24.042969 0.316406 27.191406 0 C 28.664062 -0.210938 30.027344 -1.363281 29.921875 -3.042969 C 29.609375 -6.613281 29.710938 -10.8125 30.132812 -13.753906 C 30.761719 -17.429688 34.121094 -19.003906 37.796875 -19.109375 L 41.785156 -19.109375 C 45.566406 -19.003906 48.925781 -17.640625 49.554688 -13.753906 C 49.871094 -10.710938 49.976562 -6.507812 49.765625 -3.148438 C 49.554688 -1.363281 50.921875 -0.210938 52.390625 0 C 55.4375 0.316406 61.316406 0.421875 64.046875 0.421875 C 66.878906 0.421875 73.074219 0.316406 76.121094 0 C 77.90625 -0.105469 79.058594 -1.46875 78.640625 -3.253906 C 74.335938 -28.558594 64.992188 -56.171875 57.640625 -71.710938 C 57.222656 -72.761719 56.277344 -73.285156 55.121094 -73.496094 C 51.027344 -73.914062 43.570312 -73.914062 39.6875 -73.914062 C 35.699219 -73.914062 28.453125 -73.914062 24.566406 -73.496094 C 23.414062 -73.285156 22.46875 -72.761719 22.046875 -71.710938 C 14.699219 -56.171875 5.25 -28.558594 0.945312 -3.359375 C 0.523438 -1.574219 1.679688 -0.210938 3.570312 0 C 6.40625 0.210938 11.652344 0.421875 14.59375 0.421875 Z M 38.847656 -29.292969 C 35.59375 -29.398438 33.914062 -30.972656 34.648438 -33.597656 C 35.382812 -38.742188 36.746094 -45.25 38.007812 -50.5 C 39.058594 -53.859375 40.527344 -53.859375 41.472656 -50.5 C 42.835938 -45.25 44.308594 -38.742188 44.9375 -33.597656 C 45.671875 -30.972656 44.097656 -29.398438 40.84375 -29.292969 Z M 38.847656 -29.292969 "/></g></g></g><g fill="#5019dd" fill-opacity="1"><g transform="translate(403.398699, 436.592429)"><g><path d="M 33.492188 24.988281 C 57.011719 24.988281 71.5 16.902344 71.5 -3.359375 C 71.5 -22.257812 70.660156 -42.101562 69.296875 -54.28125 C 69.085938 -55.75 68.140625 -56.90625 66.566406 -57.117188 C 64.253906 -57.324219 59.214844 -57.535156 56.589844 -57.535156 C 53.964844 -57.535156 49.765625 -57.535156 46.828125 -57.117188 C 45.148438 -56.800781 43.675781 -55.542969 44.097656 -53.859375 C 44.726562 -51.027344 44.9375 -48.714844 45.148438 -45.148438 C 45.25 -43.046875 43.675781 -42.730469 42.835938 -44.621094 C 39.476562 -53.019531 32.441406 -57.957031 24.042969 -57.957031 C 10.8125 -57.957031 1.679688 -48.191406 1.679688 -29.503906 C 1.679688 -11.550781 10.710938 -0.734375 24.359375 -0.734375 C 32.652344 -0.734375 39.476562 -4.828125 42.835938 -13.4375 C 43.78125 -15.75 45.355469 -15.433594 45.355469 -13.335938 L 45.355469 -9.972656 C 45.355469 -1.050781 36.433594 5.039062 26.039062 5.039062 C 19.214844 5.039062 12.285156 3.148438 7.347656 0.628906 C 5.566406 -0.628906 3.675781 0.523438 3.464844 2.730469 C 3.253906 7.664062 2.835938 15.117188 2.730469 19.003906 C 2.625 20.472656 3.570312 21.839844 4.933594 22.257812 C 11.652344 24.042969 25.933594 24.988281 33.492188 24.988281 Z M 36.433594 -18.898438 C 31.394531 -18.898438 27.929688 -22.886719 27.929688 -29.082031 C 27.929688 -34.960938 31.289062 -38.742188 36.433594 -38.742188 C 41.578125 -38.742188 44.9375 -34.960938 44.9375 -29.082031 C 44.9375 -22.886719 41.472656 -18.898438 36.433594 -18.898438 Z M 36.433594 -18.898438 "/></g></g></g><g fill="#5019dd" fill-opacity="1"><g transform="translate(476.680513, 436.592429)"><g><path d="M 35.066406 0.839844 C 43.46875 0.839844 53.859375 -0.316406 59.742188 -3.78125 C 60.894531 -4.621094 61.527344 -5.773438 61.421875 -7.347656 C 61.210938 -11.023438 60.6875 -16.902344 60.265625 -20.578125 C 59.949219 -23.625 57.640625 -24.359375 56.066406 -22.46875 C 50.816406 -17.847656 45.355469 -15.957031 38.007812 -15.957031 C 31.496094 -15.957031 24.359375 -19.109375 22.046875 -24.148438 C 20.894531 -26.039062 22.152344 -27.191406 23.832031 -25.933594 C 28.03125 -23.203125 32.863281 -21.945312 37.902344 -21.945312 C 48.925781 -21.945312 59.214844 -28.558594 59.214844 -38.007812 C 59.214844 -51.339844 48.925781 -57.957031 32.335938 -57.957031 C 13.964844 -57.957031 1.261719 -47.5625 1.261719 -29.292969 C 1.261719 -9.871094 14.277344 0.839844 35.066406 0.839844 Z M 31.8125 -30.238281 C 28.347656 -30.238281 23.203125 -31.8125 23.203125 -35.066406 C 23.203125 -39.058594 27.089844 -41.890625 31.183594 -41.890625 C 35.90625 -41.890625 37.796875 -39.476562 37.796875 -35.800781 C 37.796875 -32.234375 35.382812 -30.238281 31.8125 -30.238281 Z M 31.8125 -30.238281 "/></g></g></g><g fill="#5019dd" fill-opacity="1"><g transform="translate(539.568484, 436.592429)"><g><path d="M 16.273438 0.421875 C 19.214844 0.421875 24.042969 0.316406 26.878906 0 C 28.453125 -0.210938 29.816406 -1.363281 29.609375 -3.148438 C 29.082031 -9.871094 28.769531 -16.796875 28.664062 -22.46875 C 28.664062 -29.503906 32.023438 -35.488281 37.480469 -35.488281 C 42.835938 -35.488281 46.089844 -29.609375 46.195312 -22.574219 C 46.195312 -17.429688 45.566406 -10.183594 44.9375 -3.253906 C 44.832031 -1.46875 46.195312 -0.210938 47.773438 0 C 51.445312 0.316406 55.542969 0.421875 58.902344 0.421875 C 62.15625 0.421875 66.039062 0.316406 69.503906 0 C 71.078125 -0.210938 72.128906 -1.15625 72.234375 -2.835938 C 72.339844 -11.128906 72.023438 -23.308594 71.5 -29.292969 C 70.136719 -46.511719 62.996094 -57.851562 49.660156 -57.851562 C 41.261719 -57.851562 34.542969 -52.707031 30.972656 -42.417969 C 30.238281 -40.527344 28.664062 -40.632812 28.664062 -42.835938 C 28.769531 -46.195312 29.292969 -48.402344 30.761719 -53.546875 C 31.289062 -55.226562 29.816406 -57.011719 28.136719 -57.117188 C 24.882812 -57.429688 20.261719 -57.535156 17.640625 -57.535156 C 14.910156 -57.535156 9.871094 -57.429688 7.246094 -57.117188 C 5.667969 -56.90625 4.726562 -55.542969 4.410156 -53.964844 C 2.835938 -41.683594 1.996094 -27.824219 1.996094 -3.148438 C 1.890625 -1.46875 3.148438 -0.210938 4.726562 0 C 7.980469 0.316406 13.230469 0.421875 16.273438 0.421875 Z M 16.273438 0.421875 "/></g></g></g><g fill="#5019dd" fill-opacity="1"><g transform="translate(613.585227, 436.592429)"><g><path d="M 23.832031 0.839844 C 32.335938 0.839844 38.742188 -3.78125 42.3125 -11.234375 C 43.46875 -13.4375 45.042969 -13.125 44.832031 -10.605469 C 44.726562 -8.292969 44.410156 -5.667969 43.992188 -3.253906 C 43.675781 -1.46875 45.042969 -0.210938 46.722656 0 C 49.554688 0.316406 54.492188 0.421875 57.222656 0.421875 C 59.949219 0.421875 65.515625 0.316406 68.769531 0 C 70.34375 -0.210938 71.5 -1.46875 71.5 -3.148438 C 71.5 -27.929688 70.34375 -56.800781 69.085938 -72.023438 C 68.980469 -73.601562 67.824219 -74.648438 66.355469 -74.859375 C 63.519531 -75.28125 59.003906 -75.28125 56.277344 -75.28125 C 53.652344 -75.28125 47.980469 -75.28125 44.9375 -74.964844 C 43.257812 -74.648438 41.785156 -73.285156 42.101562 -71.605469 C 43.363281 -64.464844 44.726562 -54.175781 45.042969 -45.777344 C 45.148438 -42.941406 43.46875 -43.046875 42.3125 -45.042969 C 38.320312 -53.546875 32.863281 -57.851562 23.726562 -57.851562 C 10.078125 -57.851562 1.261719 -46.300781 1.261719 -27.296875 C 1.261719 -8.609375 10.394531 0.839844 23.832031 0.839844 Z M 36.222656 -18.582031 C 31.078125 -18.582031 27.613281 -22.257812 27.613281 -28.242188 C 27.613281 -34.226562 30.972656 -38.320312 36.222656 -38.320312 C 41.261719 -38.320312 44.726562 -34.226562 44.726562 -28.242188 C 44.726562 -22.257812 41.15625 -18.582031 36.222656 -18.582031 Z M 36.222656 -18.582031 "/></g></g></g><g fill="#5019dd" fill-opacity="1"><g transform="translate(687.181994, 436.592429)"><g><path d="M 17.847656 0.839844 C 25.40625 0.839844 32.234375 -3.042969 35.699219 -12.390625 C 36.539062 -14.382812 38.007812 -13.964844 37.902344 -11.863281 C 37.691406 -9.660156 37.273438 -6.195312 36.957031 -4.199219 C 36.539062 -1.890625 38.21875 -0.316406 40.84375 0 C 43.78125 0.316406 48.085938 0.421875 50.921875 0.421875 C 53.859375 0.421875 58.375 0.316406 61 0 C 62.679688 -0.316406 63.730469 -1.46875 63.730469 -3.253906 C 63.414062 -13.859375 62.367188 -28.453125 61.421875 -37.273438 C 60.160156 -49.242188 53.019531 -57.957031 31.601562 -57.957031 C 19.84375 -57.957031 11.652344 -56.277344 7.664062 -54.910156 C 6.40625 -54.386719 5.773438 -53.125 5.667969 -51.550781 C 5.355469 -47.140625 5.039062 -41.472656 5.144531 -37.0625 C 5.144531 -34.226562 7.347656 -33.074219 9.132812 -34.960938 C 15.117188 -39.058594 23.726562 -41.472656 29.1875 -41.472656 C 35.171875 -41.472656 37.273438 -39.582031 37.273438 -37.585938 C 37.273438 -34.753906 33.808594 -34.015625 27.191406 -33.175781 C 13.019531 -31.496094 1.261719 -25.933594 1.261719 -15.015625 C 1.261719 -3.988281 7.140625 0.839844 17.847656 0.839844 Z M 30.761719 -17.113281 C 27.402344 -17.113281 25.933594 -18.480469 25.933594 -21.628906 C 25.933594 -25.828125 29.921875 -28.871094 33.808594 -28.871094 C 36.328125 -28.871094 37.585938 -27.089844 37.585938 -24.777344 C 37.585938 -19.949219 33.386719 -17.113281 30.761719 -17.113281 Z M 30.761719 -17.113281 "/></g></g></g><g fill="#5019dd" fill-opacity="1"><g transform="translate(752.694701, 436.592429)"><g><path d="M 14.804688 0.421875 C 17.324219 0.421875 23.203125 0.316406 26.25 0 C 27.824219 -0.210938 29.292969 -1.46875 29.082031 -3.253906 C 28.664062 -8.714844 28.03125 -15.855469 28.136719 -21.207031 C 28.242188 -27.71875 30.132812 -32.652344 33.175781 -32.652344 C 36.746094 -32.652344 38.847656 -28.03125 39.058594 -21.207031 C 39.164062 -16.484375 38.742188 -8.820312 38.425781 -3.359375 C 38.320312 -1.46875 39.6875 -0.210938 41.367188 0 C 44.515625 0.316406 49.976562 0.421875 52.8125 0.421875 C 55.332031 0.421875 60.160156 0.421875 63.101562 0 C 64.78125 -0.316406 66.25 -1.46875 66.039062 -3.359375 C 65.515625 -9.765625 64.886719 -16.589844 64.886719 -21.523438 C 64.886719 -28.136719 67.089844 -32.652344 70.03125 -32.652344 C 73.496094 -32.652344 75.59375 -28.347656 75.804688 -21 C 75.910156 -16.589844 75.59375 -8.714844 75.28125 -3.359375 C 75.070312 -1.46875 76.328125 -0.316406 78.113281 0 C 81.160156 0.421875 86.828125 0.421875 89.453125 0.421875 C 91.972656 0.421875 96.804688 0.421875 99.742188 0 C 101.421875 -0.316406 102.789062 -1.46875 102.683594 -3.359375 C 102.050781 -16.167969 101.738281 -24.988281 100.269531 -35.066406 C 97.957031 -51.761719 90.398438 -57.535156 81.472656 -57.535156 C 73.390625 -57.535156 67.195312 -50.710938 64.992188 -41.472656 C 64.253906 -38.742188 62.679688 -38.636719 62.050781 -41.472656 C 59.109375 -53.652344 53.652344 -57.535156 46.089844 -57.535156 C 38.636719 -57.535156 32.863281 -50.710938 30.132812 -41.15625 C 29.398438 -38.53125 27.929688 -39.058594 27.929688 -41.472656 C 28.03125 -44.097656 28.976562 -49.976562 29.710938 -53.757812 C 30.132812 -55.542969 28.769531 -56.800781 26.984375 -57.117188 C 24.148438 -57.429688 18.375 -57.535156 15.75 -57.535156 C 13.125 -57.535156 9.449219 -57.535156 6.824219 -57.117188 C 5.25 -56.800781 4.199219 -55.855469 3.988281 -54.28125 C 2.730469 -41.050781 1.890625 -23.832031 1.890625 -3.148438 C 1.890625 -1.46875 3.042969 -0.210938 4.621094 0 C 7.453125 0.316406 12.492188 0.421875 14.804688 0.421875 Z M 14.804688 0.421875 "/></g></g></g><g fill="#5019dd" fill-opacity="1"><g transform="translate(857.158014, 436.592429)"><g><path d="M 35.066406 0.839844 C 43.46875 0.839844 53.859375 -0.316406 59.742188 -3.78125 C 60.894531 -4.621094 61.527344 -5.773438 61.421875 -7.347656 C 61.210938 -11.023438 60.6875 -16.902344 60.265625 -20.578125 C 59.949219 -23.625 57.640625 -24.359375 56.066406 -22.46875 C 50.816406 -17.847656 45.355469 -15.957031 38.007812 -15.957031 C 31.496094 -15.957031 24.359375 -19.109375 22.046875 -24.148438 C 20.894531 -26.039062 22.152344 -27.191406 23.832031 -25.933594 C 28.03125 -23.203125 32.863281 -21.945312 37.902344 -21.945312 C 48.925781 -21.945312 59.214844 -28.558594 59.214844 -38.007812 C 59.214844 -51.339844 48.925781 -57.957031 32.335938 -57.957031 C 13.964844 -57.957031 1.261719 -47.5625 1.261719 -29.292969 C 1.261719 -9.871094 14.277344 0.839844 35.066406 0.839844 Z M 31.8125 -30.238281 C 28.347656 -30.238281 23.203125 -31.8125 23.203125 -35.066406 C 23.203125 -39.058594 27.089844 -41.890625 31.183594 -41.890625 C 35.90625 -41.890625 37.796875 -39.476562 37.796875 -35.800781 C 37.796875 -32.234375 35.382812 -30.238281 31.8125 -30.238281 Z M 31.8125 -30.238281 "/></g></g></g><g fill="#5019dd" fill-opacity="1"><g transform="translate(920.045996, 436.592429)"><g><path d="M 16.273438 0.421875 C 19.214844 0.421875 24.042969 0.316406 26.878906 0 C 28.453125 -0.210938 29.816406 -1.363281 29.609375 -3.148438 C 29.082031 -9.871094 28.769531 -16.796875 28.664062 -22.46875 C 28.664062 -29.503906 32.023438 -35.488281 37.480469 -35.488281 C 42.835938 -35.488281 46.089844 -29.609375 46.195312 -22.574219 C 46.195312 -17.429688 45.566406 -10.183594 44.9375 -3.253906 C 44.832031 -1.46875 46.195312 -0.210938 47.773438 0 C 51.445312 0.316406 55.542969 0.421875 58.902344 0.421875 C 62.15625 0.421875 66.039062 0.316406 69.503906 0 C 71.078125 -0.210938 72.128906 -1.15625 72.234375 -2.835938 C 72.339844 -11.128906 72.023438 -23.308594 71.5 -29.292969 C 70.136719 -46.511719 62.996094 -57.851562 49.660156 -57.851562 C 41.261719 -57.851562 34.542969 -52.707031 30.972656 -42.417969 C 30.238281 -40.527344 28.664062 -40.632812 28.664062 -42.835938 C 28.769531 -46.195312 29.292969 -48.402344 30.761719 -53.546875 C 31.289062 -55.226562 29.816406 -57.011719 28.136719 -57.117188 C 24.882812 -57.429688 20.261719 -57.535156 17.640625 -57.535156 C 14.910156 -57.535156 9.871094 -57.429688 7.246094 -57.117188 C 5.667969 -56.90625 4.726562 -55.542969 4.410156 -53.964844 C 2.835938 -41.683594 1.996094 -27.824219 1.996094 -3.148438 C 1.890625 -1.46875 3.148438 -0.210938 4.726562 0 C 7.980469 0.316406 13.230469 0.421875 16.273438 0.421875 Z M 16.273438 0.421875 "/></g></g></g><g fill="#5019dd" fill-opacity="1"><g transform="translate(994.062716, 436.592429)"><g><path d="M 33.808594 0.839844 C 40.316406 0.839844 46.195312 -0.105469 51.550781 -1.574219 C 52.8125 -2.101562 53.859375 -3.464844 53.859375 -5.355469 C 53.964844 -8.820312 54.070312 -15.644531 53.964844 -19.527344 C 53.859375 -22.046875 51.867188 -22.886719 50.292969 -21.734375 C 48.507812 -20.789062 45.042969 -19.84375 42.835938 -19.84375 C 38.425781 -19.84375 35.066406 -21.945312 34.859375 -26.144531 C 34.648438 -29.398438 34.648438 -33.175781 34.960938 -36.851562 C 35.171875 -38.636719 36.328125 -39.792969 38.53125 -39.792969 C 41.785156 -39.792969 46.828125 -39.582031 50.082031 -39.371094 C 51.65625 -39.164062 53.019531 -40.738281 53.019531 -42.417969 L 53.019531 -54.175781 C 53.019531 -55.855469 51.65625 -57.222656 50.082031 -57.222656 C 45.988281 -57.222656 41.15625 -57.011719 37.0625 -57.011719 C 36.222656 -57.011719 35.59375 -57.851562 35.59375 -59.109375 C 35.59375 -61.734375 36.117188 -64.359375 36.640625 -67.300781 C 36.851562 -68.980469 35.488281 -70.449219 33.808594 -70.660156 C 30.867188 -70.976562 25.199219 -71.078125 22.574219 -71.078125 C 20.054688 -70.976562 16.167969 -70.976562 13.648438 -70.660156 C 12.179688 -70.449219 11.023438 -69.296875 10.8125 -67.824219 C 10.5 -65.09375 10.289062 -61.316406 10.183594 -58.480469 C 10.078125 -57.746094 9.554688 -57.117188 8.714844 -57.117188 L 3.570312 -57.117188 C 1.996094 -57.117188 0.839844 -55.855469 0.734375 -54.28125 C 0.734375 -50.292969 0.628906 -46.40625 0.734375 -42.523438 C 0.839844 -40.945312 1.996094 -39.582031 3.570312 -39.582031 C 5.039062 -39.6875 6.507812 -39.6875 7.875 -39.6875 C 8.714844 -39.792969 9.449219 -39.164062 9.34375 -38.320312 C 8.503906 -31.8125 8.503906 -25.09375 8.503906 -20.683594 C 8.503906 -5.667969 19.421875 0.839844 33.808594 0.839844 Z M 33.808594 0.839844 "/></g></g></g><g fill="#5019dd" fill-opacity="1"><g transform="translate(1048.866592, 436.592429)"><g><path d="M 33.703125 0.839844 C 52.601562 0.839844 66.039062 -6.824219 66.039062 -26.984375 C 66.039062 -45.988281 52.707031 -57.957031 33.703125 -57.957031 C 14.699219 -57.957031 1.261719 -45.988281 1.261719 -26.984375 C 1.261719 -6.824219 14.804688 0.839844 33.703125 0.839844 Z M 33.703125 -17.535156 C 28.558594 -17.535156 24.882812 -21.734375 24.882812 -28.453125 C 24.882812 -34.960938 28.453125 -39.6875 33.703125 -39.6875 C 38.953125 -39.6875 42.523438 -34.960938 42.523438 -28.453125 C 42.523438 -21.734375 38.847656 -17.535156 33.703125 -17.535156 Z M 33.703125 -17.535156 "/></g></g></g><g clip-path="url(#7c37776cc2)"><g clip-path="url(#4b12170b73)"><g clip-path="url(#96ea5420b5)"><path fill="#7ed957" d="M 303.214844 350.363281 C 308.6875 353.828125 311.070312 359.878906 308.535156 363.878906 C 306.003906 367.875 299.515625 368.308594 294.042969 364.84375 C 288.574219 361.378906 286.191406 355.328125 288.722656 351.328125 C 291.253906 347.328125 297.742188 346.894531 303.214844 350.363281 Z M 358.363281 362.148438 C 356.820312 363.371094 355.101562 364.25 353.207031 364.785156 C 351.3125 365.324219 349.390625 365.476562 347.433594 365.246094 C 347.078125 365.203125 346.71875 365.195312 346.359375 365.226562 C 346 365.253906 345.644531 365.316406 345.296875 365.414062 C 344.953125 365.511719 344.617188 365.644531 344.296875 365.808594 C 343.976562 365.972656 343.671875 366.167969 343.390625 366.390625 C 343.109375 366.613281 342.847656 366.863281 342.617188 367.136719 C 342.382812 367.410156 342.175781 367.707031 342 368.019531 C 341.824219 368.335938 341.683594 368.664062 341.570312 369.007812 C 341.460938 369.351562 341.382812 369.703125 341.34375 370.058594 C 341.230469 371.027344 341.023438 371.976562 340.722656 372.902344 C 340.421875 373.832031 340.035156 374.71875 339.558594 375.570312 C 339.085938 376.421875 338.53125 377.21875 337.898438 377.957031 C 337.265625 378.699219 336.570312 379.375 335.804688 379.976562 C 335.039062 380.582031 334.222656 381.105469 333.355469 381.550781 C 332.488281 381.992188 331.585938 382.347656 330.648438 382.613281 C 329.710938 382.878906 328.757812 383.050781 327.785156 383.128906 C 326.8125 383.207031 325.84375 383.1875 324.875 383.074219 C 323.90625 382.960938 322.960938 382.753906 322.03125 382.453125 C 321.105469 382.15625 320.21875 381.765625 319.367188 381.292969 C 318.515625 380.816406 317.71875 380.261719 316.976562 379.632812 C 316.234375 379 315.5625 378.300781 314.957031 377.535156 C 314.355469 376.773438 313.832031 375.957031 313.386719 375.089844 C 312.941406 374.21875 312.589844 373.316406 312.324219 372.378906 C 312.058594 371.441406 311.886719 370.488281 311.808594 369.515625 C 311.730469 368.546875 311.75 367.574219 311.863281 366.609375 C 311.996094 365.464844 312.183594 364.328125 312.429688 363.203125 C 312.675781 362.078125 312.972656 360.964844 313.328125 359.871094 C 313.683594 358.773438 314.089844 357.699219 314.550781 356.640625 C 315.011719 355.585938 315.523438 354.554688 316.082031 353.546875 C 316.644531 352.542969 317.253906 351.566406 317.910156 350.621094 C 318.570312 349.675781 319.269531 348.761719 320.019531 347.886719 C 320.765625 347.007812 321.554688 346.171875 322.382812 345.371094 C 323.210938 344.570312 324.078125 343.816406 324.984375 343.101562 C 325.886719 342.386719 326.824219 341.71875 327.792969 341.09375 C 328.761719 340.472656 329.757812 339.898438 330.785156 339.375 C 331.8125 338.851562 332.859375 338.378906 333.933594 337.957031 C 335.003906 337.535156 336.09375 337.167969 337.203125 336.855469 C 338.3125 336.539062 339.433594 336.28125 340.566406 336.078125 C 341.699219 335.875 342.84375 335.726562 343.992188 335.636719 C 345.140625 335.542969 346.289062 335.507812 347.441406 335.53125 C 348.59375 335.550781 349.742188 335.628906 350.886719 335.765625 C 351.609375 335.847656 352.324219 335.984375 353.027344 336.175781 C 353.734375 336.367188 354.421875 336.609375 355.089844 336.898438 C 355.757812 337.191406 356.402344 337.53125 357.023438 337.917969 C 357.640625 338.304688 358.226562 338.734375 358.785156 339.207031 C 359.339844 339.679688 359.855469 340.191406 360.335938 340.742188 C 360.816406 341.289062 361.253906 341.871094 361.648438 342.488281 C 362.042969 343.101562 362.390625 343.742188 362.691406 344.40625 C 362.992188 345.070312 363.238281 345.753906 363.4375 346.457031 C 363.636719 347.160156 363.785156 347.871094 363.878906 348.597656 C 363.972656 349.320312 364.011719 350.046875 364 350.777344 C 363.984375 351.507812 363.917969 352.230469 363.796875 352.949219 C 363.675781 353.671875 363.503906 354.378906 363.28125 355.070312 C 363.054688 355.765625 362.78125 356.441406 362.457031 357.09375 C 362.132812 357.75 361.761719 358.375 361.347656 358.972656 C 360.929688 359.574219 360.472656 360.140625 359.972656 360.671875 C 359.472656 361.203125 358.933594 361.695312 358.363281 362.148438 Z M 312.679688 329.933594 C 317.796875 335.285156 318.777344 342.65625 314.867188 346.394531 C 310.957031 350.136719 303.636719 348.832031 298.519531 343.480469 C 293.402344 338.128906 292.421875 330.761719 296.332031 327.019531 C 300.242188 323.28125 307.558594 324.585938 312.679688 329.933594 Z M 315.015625 328.089844 C 319.039062 334.304688 325.980469 336.960938 330.523438 334.019531 C 335.066406 331.078125 335.488281 323.65625 331.460938 317.441406 C 327.441406 311.222656 320.496094 308.570312 315.953125 311.511719 C 311.410156 314.449219 310.988281 321.875 315.015625 328.089844 Z M 337.074219 323.601562 C 339.183594 329.722656 344.519531 333.441406 348.996094 331.898438 C 353.472656 330.359375 355.390625 324.144531 353.285156 318.019531 C 351.175781 311.898438 345.839844 308.179688 341.363281 309.722656 C 336.886719 311.261719 334.96875 317.476562 337.074219 323.601562 Z M 337.074219 323.601562 " fill-opacity="1" fill-rule="nonzero"/></g></g></g><g clip-path="url(#b4b097b33b)"><g clip-path="url(#95840c9008)"><g clip-path="url(#122710a60c)"><path fill="#5019dd" d="M 304.988281 349.984375 C 310.046875 353.1875 312.25 358.785156 309.910156 362.484375 C 307.566406 366.183594 301.566406 366.582031 296.503906 363.378906 C 291.445312 360.171875 289.242188 354.578125 291.585938 350.878906 C 293.925781 347.179688 299.925781 346.78125 304.988281 349.984375 Z M 355.988281 360.882812 C 354.5625 362.015625 352.972656 362.828125 351.222656 363.324219 C 349.472656 363.820312 347.691406 363.964844 345.882812 363.75 C 345.550781 363.710938 345.21875 363.703125 344.886719 363.730469 C 344.554688 363.757812 344.230469 363.816406 343.90625 363.90625 C 343.585938 363.996094 343.277344 364.117188 342.980469 364.269531 C 342.683594 364.421875 342.40625 364.601562 342.144531 364.808594 C 341.882812 365.015625 341.640625 365.246094 341.425781 365.5 C 341.210938 365.753906 341.019531 366.027344 340.859375 366.316406 C 340.695312 366.609375 340.5625 366.914062 340.460938 367.230469 C 340.359375 367.546875 340.289062 367.871094 340.25 368.203125 C 340.144531 369.097656 339.953125 369.972656 339.675781 370.832031 C 339.398438 371.6875 339.039062 372.511719 338.601562 373.296875 C 338.160156 374.085938 337.648438 374.820312 337.0625 375.507812 C 336.480469 376.195312 335.835938 376.816406 335.125 377.375 C 334.417969 377.933594 333.664062 378.417969 332.863281 378.828125 C 332.058594 379.238281 331.226562 379.566406 330.359375 379.8125 C 329.492188 380.058594 328.609375 380.214844 327.710938 380.289062 C 326.8125 380.359375 325.914062 380.34375 325.019531 380.238281 C 324.125 380.132812 323.25 379.941406 322.390625 379.664062 C 321.535156 379.386719 320.710938 379.03125 319.925781 378.589844 C 319.136719 378.152344 318.402344 377.640625 317.714844 377.054688 C 317.027344 376.46875 316.40625 375.824219 315.847656 375.117188 C 315.289062 374.410156 314.804688 373.65625 314.394531 372.851562 C 313.984375 372.050781 313.65625 371.214844 313.410156 370.347656 C 313.164062 369.480469 313.007812 368.597656 312.933594 367.699219 C 312.863281 366.800781 312.878906 365.90625 312.984375 365.007812 C 313.105469 363.953125 313.28125 362.902344 313.507812 361.859375 C 313.734375 360.820312 314.011719 359.792969 314.339844 358.777344 C 314.667969 357.765625 315.046875 356.769531 315.472656 355.792969 C 315.894531 354.816406 316.367188 353.863281 316.886719 352.933594 C 317.40625 352 317.972656 351.097656 318.578125 350.222656 C 319.1875 349.347656 319.835938 348.507812 320.527344 347.695312 C 321.21875 346.882812 321.945312 346.109375 322.714844 345.371094 C 323.480469 344.628906 324.28125 343.929688 325.117188 343.269531 C 325.953125 342.609375 326.820312 341.988281 327.71875 341.414062 C 328.613281 340.839844 329.535156 340.308594 330.484375 339.824219 C 331.433594 339.339844 332.402344 338.902344 333.394531 338.511719 C 334.386719 338.125 335.394531 337.785156 336.421875 337.492188 C 337.445312 337.203125 338.484375 336.964844 339.53125 336.773438 C 340.582031 336.585938 341.636719 336.449219 342.699219 336.363281 C 343.761719 336.28125 344.824219 336.246094 345.890625 336.269531 C 346.953125 336.289062 348.015625 336.359375 349.074219 336.484375 C 350.421875 336.640625 351.71875 336.992188 352.960938 337.535156 C 354.207031 338.078125 355.347656 338.789062 356.378906 339.667969 C 357.414062 340.546875 358.296875 341.558594 359.027344 342.703125 C 359.761719 343.84375 360.3125 345.066406 360.683594 346.375 C 361.054688 347.679688 361.226562 349.011719 361.203125 350.367188 C 361.175781 351.726562 360.957031 353.050781 360.539062 354.339844 C 360.121094 355.632812 359.523438 356.835938 358.75 357.949219 C 357.972656 359.066406 357.054688 360.042969 355.988281 360.882812 Z M 313.742188 331.09375 C 318.472656 336.039062 319.378906 342.855469 315.765625 346.316406 C 312.148438 349.773438 305.375 348.566406 300.644531 343.621094 C 295.910156 338.671875 295.003906 331.855469 298.621094 328.394531 C 302.238281 324.9375 309.003906 326.144531 313.742188 331.09375 Z M 315.898438 329.386719 C 319.621094 335.132812 326.042969 337.589844 330.246094 334.871094 C 334.445312 332.152344 334.832031 325.285156 331.109375 319.539062 C 327.390625 313.789062 320.96875 311.332031 316.769531 314.054688 C 312.566406 316.773438 312.175781 323.636719 315.898438 329.386719 Z M 336.300781 325.234375 C 338.25 330.898438 343.1875 334.335938 347.324219 332.910156 C 351.464844 331.484375 353.242188 325.738281 351.292969 320.074219 C 349.34375 314.410156 344.40625 310.972656 340.265625 312.398438 C 336.128906 313.824219 334.351562 319.570312 336.300781 325.234375 Z M 336.300781 325.234375 " fill-opacity="1" fill-rule="nonzero"/></g></g></g></svg>