<svg xmlns="http://www.w3.org/2000/svg" xmlns:xlink="http://www.w3.org/1999/xlink" width="1920" zoomAndPan="magnify" viewBox="0 0 1440 809.999993" height="1080" preserveAspectRatio="xMidYMid meet" version="1.0"><defs><g/><clipPath id="7dcba934fd"><path d="M 1338 335 L 1415 335 L 1415 411 L 1338 411 Z M 1338 335 " clip-rule="nonzero"/></clipPath><clipPath id="8e011709bd"><path d="M 1371.472656 320.460938 L 1428.445312 375.90625 L 1380.847656 424.816406 L 1323.871094 369.375 Z M 1371.472656 320.460938 " clip-rule="nonzero"/></clipPath><clipPath id="8b4f127880"><path d="M 1371.472656 320.460938 L 1428.445312 375.90625 L 1380.847656 424.816406 L 1323.871094 369.375 Z M 1371.472656 320.460938 " clip-rule="nonzero"/></clipPath><clipPath id="28953ebe0c"><path d="M 1341 338 L 1412 338 L 1412 408 L 1341 408 Z M 1341 338 " clip-rule="nonzero"/></clipPath><clipPath id="ea83deab9a"><path d="M 1371.835938 324.394531 L 1424.511719 375.652344 L 1380.574219 420.804688 L 1327.898438 369.542969 Z M 1371.835938 324.394531 " clip-rule="nonzero"/></clipPath><clipPath id="70b233c5e4"><path d="M 1371.835938 324.394531 L 1424.511719 375.652344 L 1380.574219 420.804688 L 1327.898438 369.542969 Z M 1371.835938 324.394531 " clip-rule="nonzero"/></clipPath><clipPath id="ff3d35af56"><path d="M 23 313 L 101 313 L 101 388 L 23 388 Z M 23 313 " clip-rule="nonzero"/></clipPath><clipPath id="fb863f4bc8"><path d="M 10.265625 347.671875 L 72.636719 298.375 L 114.957031 351.917969 L 52.585938 401.214844 Z M 10.265625 347.671875 " clip-rule="nonzero"/></clipPath><clipPath id="6885fc0b3e"><path d="M 10.265625 347.671875 L 72.636719 298.375 L 114.957031 351.917969 L 52.585938 401.214844 Z M 10.265625 347.671875 " clip-rule="nonzero"/></clipPath><clipPath id="997b64e262"><path d="M 26 316 L 98 316 L 98 385 L 26 385 Z M 26 316 " clip-rule="nonzero"/></clipPath><clipPath id="db8d1e7b07"><path d="M 14.214844 347.828125 L 71.878906 302.25 L 110.945312 351.675781 L 53.28125 397.253906 Z M 14.214844 347.828125 " clip-rule="nonzero"/></clipPath><clipPath id="8b2331d7f4"><path d="M 14.214844 347.828125 L 71.878906 302.25 L 110.945312 351.675781 L 53.28125 397.253906 Z M 14.214844 347.828125 " clip-rule="nonzero"/></clipPath></defs><g clip-path="url(#7dcba934fd)"><g clip-path="url(#8e011709bd)"><g clip-path="url(#8b4f127880)"><path fill="#157900" d="M 1368.238281 350.089844 C 1365.515625 355.964844 1359.820312 359.113281 1355.53125 357.117188 C 1351.238281 355.128906 1349.964844 348.75 1352.691406 342.875 C 1355.417969 337 1361.105469 333.851562 1365.402344 335.84375 C 1369.695312 337.835938 1370.964844 344.214844 1368.238281 350.089844 Z M 1363.710938 406.296875 C 1362.300781 404.929688 1361.203125 403.339844 1360.425781 401.53125 C 1359.648438 399.722656 1359.246094 397.832031 1359.222656 395.867188 C 1359.21875 395.503906 1359.175781 395.148438 1359.101562 394.796875 C 1359.027344 394.441406 1358.917969 394.101562 1358.777344 393.769531 C 1358.632812 393.4375 1358.460938 393.125 1358.253906 392.828125 C 1358.050781 392.53125 1357.820312 392.253906 1357.5625 392.003906 C 1357.304688 391.753906 1357.023438 391.527344 1356.71875 391.332031 C 1356.417969 391.136719 1356.097656 390.972656 1355.765625 390.839844 C 1355.429688 390.703125 1355.082031 390.605469 1354.730469 390.539062 C 1354.375 390.476562 1354.015625 390.445312 1353.65625 390.449219 C 1352.683594 390.460938 1351.714844 390.382812 1350.757812 390.203125 C 1349.800781 390.027344 1348.867188 389.757812 1347.960938 389.398438 C 1347.058594 389.035156 1346.195312 388.589844 1345.378906 388.0625 C 1344.558594 387.53125 1343.800781 386.925781 1343.105469 386.246094 C 1342.40625 385.566406 1341.78125 384.824219 1341.226562 384.023438 C 1340.675781 383.21875 1340.207031 382.371094 1339.820312 381.476562 C 1339.4375 380.578125 1339.144531 379.65625 1338.941406 378.703125 C 1338.738281 377.75 1338.628906 376.785156 1338.613281 375.8125 C 1338.601562 374.835938 1338.683594 373.871094 1338.859375 372.914062 C 1339.039062 371.953125 1339.308594 371.023438 1339.667969 370.117188 C 1340.027344 369.210938 1340.472656 368.351562 1341.003906 367.53125 C 1341.535156 366.714844 1342.140625 365.957031 1342.820312 365.257812 C 1343.5 364.5625 1344.238281 363.933594 1345.042969 363.382812 C 1345.84375 362.832031 1346.695312 362.363281 1347.589844 361.976562 C 1348.484375 361.589844 1349.410156 361.296875 1350.363281 361.09375 C 1351.316406 360.890625 1352.277344 360.785156 1353.253906 360.769531 C 1354.40625 360.753906 1355.554688 360.792969 1356.703125 360.890625 C 1357.851562 360.988281 1358.992188 361.140625 1360.125 361.351562 C 1361.257812 361.558594 1362.378906 361.824219 1363.484375 362.144531 C 1364.589844 362.460938 1365.679688 362.835938 1366.75 363.261719 C 1367.820312 363.6875 1368.867188 364.164062 1369.890625 364.695312 C 1370.914062 365.222656 1371.910156 365.800781 1372.875 366.425781 C 1373.84375 367.054688 1374.777344 367.726562 1375.675781 368.445312 C 1376.578125 369.164062 1377.441406 369.925781 1378.265625 370.730469 C 1379.089844 371.53125 1379.875 372.375 1380.617188 373.253906 C 1381.359375 374.136719 1382.058594 375.050781 1382.710938 376 C 1383.363281 376.949219 1383.96875 377.925781 1384.527344 378.9375 C 1385.082031 379.945312 1385.589844 380.976562 1386.042969 382.035156 C 1386.5 383.09375 1386.902344 384.171875 1387.25 385.269531 C 1387.601562 386.367188 1387.894531 387.480469 1388.132812 388.609375 C 1388.375 389.734375 1388.558594 390.871094 1388.6875 392.015625 C 1388.8125 393.160156 1388.886719 394.308594 1388.902344 395.460938 C 1388.910156 396.191406 1388.867188 396.917969 1388.769531 397.640625 C 1388.671875 398.363281 1388.523438 399.074219 1388.320312 399.777344 C 1388.117188 400.476562 1387.867188 401.160156 1387.5625 401.824219 C 1387.261719 402.488281 1386.910156 403.125 1386.511719 403.738281 C 1386.117188 404.351562 1385.675781 404.929688 1385.195312 405.480469 C 1384.710938 406.027344 1384.191406 406.535156 1383.632812 407.003906 C 1383.074219 407.476562 1382.484375 407.902344 1381.863281 408.289062 C 1381.242188 408.671875 1380.597656 409.007812 1379.929688 409.296875 C 1379.257812 409.585938 1378.570312 409.820312 1377.863281 410.007812 C 1377.160156 410.195312 1376.441406 410.328125 1375.71875 410.410156 C 1374.992188 410.492188 1374.265625 410.519531 1373.535156 410.496094 C 1372.804688 410.46875 1372.082031 410.390625 1371.363281 410.257812 C 1370.648438 410.125 1369.945312 409.941406 1369.253906 409.703125 C 1368.5625 409.464844 1367.894531 409.179688 1367.246094 408.84375 C 1366.597656 408.511719 1365.976562 408.128906 1365.382812 407.703125 C 1364.792969 407.277344 1364.234375 406.808594 1363.710938 406.296875 Z M 1389.722656 356.820312 C 1385.082031 362.589844 1377.902344 364.519531 1373.6875 361.128906 C 1369.46875 357.734375 1369.8125 350.308594 1374.453125 344.539062 C 1379.09375 338.769531 1386.273438 336.839844 1390.492188 340.234375 C 1394.707031 343.625 1394.363281 351.050781 1389.722656 356.820312 Z M 1391.855469 358.894531 C 1386.214844 363.691406 1384.480469 370.921875 1387.988281 375.046875 C 1391.492188 379.167969 1398.910156 378.621094 1404.550781 373.824219 C 1410.191406 369.027344 1411.921875 361.800781 1408.414062 357.675781 C 1404.910156 353.554688 1397.496094 354.097656 1391.855469 358.894531 Z M 1399.167969 380.1875 C 1393.371094 383.074219 1390.378906 388.847656 1392.488281 393.085938 C 1394.597656 397.324219 1401.007812 398.417969 1406.804688 395.535156 C 1412.605469 392.648438 1415.597656 386.875 1413.488281 382.636719 C 1411.378906 378.398438 1404.96875 377.304688 1399.167969 380.1875 Z M 1399.167969 380.1875 " fill-opacity="1" fill-rule="nonzero"/></g></g></g><g clip-path="url(#28953ebe0c)"><g clip-path="url(#ea83deab9a)"><g clip-path="url(#70b233c5e4)"><path fill="#7ed957" d="M 1368.847656 351.792969 C 1366.328125 357.226562 1361.066406 360.136719 1357.09375 358.292969 C 1353.125 356.453125 1351.949219 350.554688 1354.46875 345.121094 C 1356.992188 339.6875 1362.253906 336.777344 1366.226562 338.617188 C 1370.195312 340.460938 1371.371094 346.359375 1368.847656 351.792969 Z M 1364.664062 403.777344 C 1363.355469 402.511719 1362.34375 401.039062 1361.625 399.367188 C 1360.902344 397.695312 1360.53125 395.949219 1360.511719 394.128906 C 1360.503906 393.796875 1360.46875 393.464844 1360.398438 393.140625 C 1360.328125 392.8125 1360.230469 392.496094 1360.097656 392.191406 C 1359.964844 391.882812 1359.804688 391.59375 1359.617188 391.320312 C 1359.425781 391.042969 1359.214844 390.789062 1358.972656 390.558594 C 1358.734375 390.324219 1358.476562 390.117188 1358.195312 389.9375 C 1357.917969 389.753906 1357.621094 389.601562 1357.3125 389.480469 C 1357 389.355469 1356.683594 389.265625 1356.355469 389.203125 C 1356.027344 389.144531 1355.695312 389.117188 1355.363281 389.121094 C 1354.460938 389.132812 1353.566406 389.058594 1352.683594 388.894531 C 1351.796875 388.730469 1350.933594 388.480469 1350.097656 388.148438 C 1349.257812 387.8125 1348.460938 387.402344 1347.707031 386.910156 C 1346.949219 386.421875 1346.25 385.859375 1345.605469 385.230469 C 1344.957031 384.605469 1344.378906 383.917969 1343.867188 383.175781 C 1343.359375 382.433594 1342.925781 381.648438 1342.566406 380.820312 C 1342.210938 379.992188 1341.941406 379.136719 1341.753906 378.257812 C 1341.5625 377.375 1341.464844 376.484375 1341.453125 375.582031 C 1341.441406 374.679688 1341.515625 373.789062 1341.679688 372.902344 C 1341.84375 372.015625 1342.09375 371.152344 1342.425781 370.316406 C 1342.757812 369.480469 1343.171875 368.683594 1343.660156 367.925781 C 1344.152344 367.171875 1344.710938 366.46875 1345.339844 365.824219 C 1345.96875 365.175781 1346.652344 364.597656 1347.398438 364.089844 C 1348.140625 363.578125 1348.925781 363.144531 1349.753906 362.789062 C 1350.578125 362.429688 1351.433594 362.160156 1352.316406 361.972656 C 1353.199219 361.785156 1354.089844 361.683594 1354.988281 361.671875 C 1356.054688 361.65625 1357.117188 361.695312 1358.179688 361.785156 C 1359.242188 361.875 1360.296875 362.015625 1361.34375 362.207031 C 1362.390625 362.402344 1363.429688 362.644531 1364.453125 362.941406 C 1365.476562 363.238281 1366.484375 363.582031 1367.472656 363.976562 C 1368.460938 364.371094 1369.429688 364.8125 1370.375 365.300781 C 1371.324219 365.789062 1372.242188 366.324219 1373.136719 366.902344 C 1374.03125 367.484375 1374.894531 368.105469 1375.726562 368.769531 C 1376.558594 369.433594 1377.359375 370.140625 1378.121094 370.882812 C 1378.886719 371.625 1379.609375 372.402344 1380.296875 373.21875 C 1380.984375 374.03125 1381.628906 374.878906 1382.234375 375.757812 C 1382.839844 376.632812 1383.398438 377.539062 1383.914062 378.472656 C 1384.425781 379.40625 1384.894531 380.359375 1385.316406 381.339844 C 1385.738281 382.316406 1386.109375 383.316406 1386.433594 384.332031 C 1386.753906 385.347656 1387.027344 386.375 1387.25 387.417969 C 1387.472656 388.457031 1387.640625 389.507812 1387.757812 390.566406 C 1387.878906 391.625 1387.945312 392.6875 1387.957031 393.753906 C 1387.976562 395.113281 1387.796875 396.441406 1387.421875 397.746094 C 1387.046875 399.050781 1386.488281 400.273438 1385.75 401.410156 C 1385.011719 402.550781 1384.125 403.558594 1383.085938 404.433594 C 1382.046875 405.308594 1380.90625 406.011719 1379.660156 406.550781 C 1378.414062 407.085938 1377.113281 407.429688 1375.765625 407.582031 C 1374.417969 407.734375 1373.074219 407.6875 1371.742188 407.4375 C 1370.40625 407.191406 1369.136719 406.757812 1367.929688 406.132812 C 1366.722656 405.511719 1365.636719 404.726562 1364.664062 403.777344 Z M 1388.71875 358.019531 C 1384.425781 363.355469 1377.785156 365.136719 1373.886719 362 C 1369.988281 358.863281 1370.304688 351.996094 1374.597656 346.660156 C 1378.890625 341.324219 1385.527344 339.542969 1389.429688 342.679688 C 1393.328125 345.816406 1393.011719 352.683594 1388.71875 358.019531 Z M 1390.691406 359.9375 C 1385.472656 364.375 1383.871094 371.0625 1387.113281 374.875 C 1390.355469 378.6875 1397.214844 378.179688 1402.429688 373.742188 C 1407.648438 369.308594 1409.25 362.625 1406.007812 358.808594 C 1402.765625 355 1395.90625 355.503906 1390.691406 359.9375 Z M 1397.457031 379.628906 C 1392.09375 382.296875 1389.324219 387.636719 1391.277344 391.558594 C 1393.226562 395.476562 1399.15625 396.492188 1404.515625 393.824219 C 1409.878906 391.15625 1412.648438 385.816406 1410.695312 381.894531 C 1408.746094 377.976562 1402.820312 376.960938 1397.453125 379.628906 Z M 1397.457031 379.628906 " fill-opacity="1" fill-rule="nonzero"/></g></g></g><path stroke-linecap="butt" transform="matrix(0.75, 0, 0, 0.75, -74.502705, 323.342435)" fill="none" stroke-linejoin="miter" d="M 226.852577 151.548636 C 231.46716 151.548636 238.883827 151.408011 243.498411 151.001761 C 245.894244 150.725719 247.977578 148.913219 247.430703 146.522594 C 246.029661 137.434052 244.487994 127.210093 244.764036 117.402801 C 244.764036 113.335092 246.576536 110.809051 248.967161 111.527801 C 257.514037 114.329884 263.800495 130.017385 263.935912 146.934052 C 263.935912 149.324678 265.748412 150.725719 268.00362 151.001761 C 272.071329 151.408011 280.753621 151.548636 284.649455 151.548636 C 288.576538 151.548636 296.54008 151.408011 301.019247 151.001761 C 303.409872 150.725719 305.222372 148.913219 305.086956 146.522594 C 303.274456 121.199676 289.123413 108.038217 269.951537 105.37155 C 267.014037 104.928842 267.014037 102.569467 269.816121 102.126759 C 288.170288 98.913217 300.060914 88.283008 300.060914 74.579882 C 300.060914 59.574673 285.91508 52.298631 260.31612 52.298631 C 241.685911 52.298631 225.99841 52.298631 215.779659 52.876756 C 213.831743 53.012173 212.159868 54.55384 211.987993 56.501756 C 210.451534 75.980924 208.362992 117.267384 208.362992 147.069469 C 208.362992 149.189261 210.175493 150.725719 212.295284 151.001761 C 215.920285 151.408011 222.649452 151.548636 226.852577 151.548636 Z M 249.514036 98.366342 C 246.982786 99.048633 245.175494 98.501758 245.034869 95.699675 C 244.899453 91.631966 245.034869 87.600716 245.175494 83.809049 C 245.175494 81.553841 246.435911 80.012174 248.696328 79.876757 C 249.925495 79.741341 251.19112 79.741341 252.727578 79.741341 C 260.72237 79.741341 265.06612 82.131966 265.06612 87.158008 C 265.06612 92.2153 259.59737 96.418425 249.514036 98.366342 Z M 353.805708 152.126761 C 365.014042 152.126761 378.857793 150.590303 386.717168 145.975719 C 388.258835 144.845511 389.076543 143.309052 388.941127 141.189261 C 388.665085 136.303844 387.946335 128.475718 387.39946 123.553843 C 386.99321 119.486134 383.915085 118.533009 381.795293 121.027801 C 374.790084 127.210093 367.508834 129.710093 357.738 129.710093 C 349.055708 129.710093 339.519249 125.538218 336.441124 118.803843 C 334.904665 116.277801 336.581749 114.736134 338.836957 116.413218 C 344.441124 120.069468 350.868208 121.746551 357.597375 121.746551 C 372.295292 121.746551 385.998418 112.928842 385.998418 100.314258 C 385.998418 82.543424 372.295292 73.725715 350.180708 73.725715 C 325.675498 73.725715 308.727581 87.600716 308.727581 111.934051 C 308.727581 137.840302 326.086957 152.126761 353.805708 152.126761 Z M 349.467166 110.668426 C 344.852583 110.668426 337.982791 108.585092 337.982791 104.24655 C 337.982791 98.913217 343.175499 95.1528 348.64425 95.1528 C 354.935916 95.1528 357.461958 98.366342 357.461958 103.256967 C 357.461958 108.038217 354.217166 110.668426 349.467166 110.668426 Z M 414.691128 152.126761 C 424.769253 152.126761 433.863004 146.934052 438.508837 134.491344 C 439.602587 131.824677 441.586963 132.371552 441.451546 135.173635 C 441.144254 138.116344 440.597379 142.730927 440.185921 145.392386 C 439.602587 148.470511 441.857796 150.590303 445.347379 151.001761 C 449.274463 151.408011 455.019255 151.548636 458.810922 151.548636 C 462.706755 151.548636 468.722381 151.408011 472.243214 151.001761 C 474.467173 150.590303 475.868214 149.053844 475.868214 146.658011 C 475.456756 132.512177 474.055714 113.064259 472.790089 101.303842 C 471.118214 85.345508 461.581755 73.725715 433.040087 73.725715 C 417.352586 73.725715 406.451544 75.980924 401.11821 77.793424 C 399.446335 78.475716 398.592169 80.152799 398.456752 82.267383 C 398.045294 88.147591 397.633835 95.699675 397.769252 101.579884 C 397.769252 105.37155 400.71196 106.913217 403.071336 104.381967 C 411.066128 98.913217 422.550503 95.699675 429.831754 95.699675 C 437.795296 95.699675 440.597379 98.230925 440.597379 100.897592 C 440.597379 104.658009 435.982796 105.647592 427.165087 106.772592 C 408.264044 108.996551 392.576543 116.413218 392.576543 130.97051 C 392.576543 145.668427 400.435919 152.126761 414.691128 152.126761 Z M 431.915087 128.168427 C 427.43592 128.168427 425.488003 126.355926 425.488003 122.152801 C 425.488003 116.548634 430.784879 112.517384 435.982796 112.517384 C 439.331754 112.517384 441.003629 114.876759 441.003629 117.949676 C 441.003629 124.40801 435.435921 128.168427 431.915087 128.168427 Z M 500.363007 151.548636 C 504.159882 151.548636 510.722383 151.408011 514.378633 151.001761 C 516.597383 150.725719 518.13905 149.189261 517.998425 146.798636 C 516.873425 117.267384 517.180716 82.131966 519.9828 55.543423 C 520.253633 53.152798 518.581758 51.340298 516.32655 51.033006 C 512.123424 50.621548 504.706757 50.621548 501.081757 50.621548 C 497.560924 50.621548 491.685923 50.756964 488.19634 51.204881 C 486.076548 51.475714 484.54009 52.876756 484.269256 54.824673 C 482.72759 75.673632 481.055715 114.465301 481.055715 146.798636 C 481.055715 149.053844 482.72759 150.725719 484.847381 151.001761 C 489.019257 151.408011 496.295299 151.548636 500.363007 151.548636 Z M 543.753634 70.24134 C 554.961968 70.24134 560.701552 64.361132 560.701552 56.361131 C 560.701552 48.538214 554.961968 42.658006 543.753634 42.658006 C 532.711967 42.658006 527.1078 48.538214 527.1078 56.361131 C 527.1078 64.361132 532.711967 70.24134 543.753634 70.24134 Z M 544.196343 151.548636 C 547.680718 151.548636 554.279677 151.408011 558.310927 151.001761 C 560.295302 150.725719 561.967177 149.053844 561.967177 146.934052 C 561.967177 119.626759 560.566135 96.111133 559.165093 78.475716 C 559.029677 76.527799 557.628635 75.126757 555.508843 74.850716 C 552.430718 74.408007 546.863009 74.27259 544.060926 74.27259 C 540.675509 74.27259 535.514051 74.408007 531.993217 74.850716 C 530.0453 75.126757 528.508842 76.527799 528.373425 78.475716 C 526.972383 96.111133 525.571342 119.626759 525.571342 146.934052 C 525.571342 149.053844 527.243217 150.725719 529.363009 151.001761 C 533.534884 151.408011 540.675509 151.548636 544.196343 151.548636 Z M 607.180721 151.548636 C 616.852596 151.548636 635.889056 151.272594 645.118223 151.137178 C 647.06614 151.001761 648.738015 149.460094 648.602598 147.652803 C 648.326556 139.928844 647.920306 128.475718 647.373431 120.751759 C 647.201556 116.684051 643.441139 116.001759 641.050514 119.079884 C 635.581764 125.538218 628.472389 128.75176 620.74843 128.75176 C 612.373429 128.75176 610.972388 125.673635 615.863013 122.293426 C 625.086972 114.329884 635.889056 104.517384 642.175514 97.241342 C 644.842181 94.710092 646.107806 91.361133 646.107806 88.012175 C 646.107806 84.491341 645.972389 82.267383 645.524473 78.064257 C 645.253639 76.251757 643.852598 74.991341 641.904681 74.850716 C 634.488014 74.408007 616.545305 74.27259 607.863013 74.27259 C 598.77447 74.27259 582.810928 74.408007 574.128636 74.850716 C 572.321344 74.991341 570.779677 76.392382 570.644261 78.340299 C 570.232802 84.798633 569.654677 95.8403 569.378636 102.126759 C 569.243219 105.918425 573.034886 106.772592 574.982803 104.24655 C 580.316136 99.355925 587.732803 96.24655 595.967179 96.24655 C 603.113012 96.24655 604.925512 99.189258 600.175512 102.980925 C 590.092178 111.527801 578.915094 120.751759 571.909886 128.168427 C 568.831761 130.699677 567.566136 133.637177 567.295302 137.569469 C 567.159886 141.329886 566.98801 144.131969 566.98801 147.652803 C 566.852594 149.460094 568.524469 151.001761 570.508844 151.137178 C 578.472386 151.272594 598.227595 151.548636 607.180721 151.548636 Z M 674.498433 152.126761 C 684.581766 152.126761 693.675517 146.934052 698.32135 134.491344 C 699.4151 131.824677 701.399476 132.371552 701.258851 135.173635 C 700.951559 138.116344 700.404684 142.730927 699.998434 145.392386 C 699.4151 148.470511 701.670309 150.590303 705.154684 151.001761 C 709.086976 151.408011 714.831768 151.548636 718.623435 151.548636 C 722.519268 151.548636 728.534894 151.408011 732.055727 151.001761 C 734.274477 150.590303 735.675519 149.053844 735.675519 146.658011 C 735.269269 132.512177 733.868227 113.064259 732.602602 101.303842 C 730.925519 85.345508 721.38906 73.725715 692.8526 73.725715 C 677.165099 73.725715 666.264057 75.980924 660.930724 77.793424 C 659.258848 78.475716 658.404682 80.152799 658.264057 82.267383 C 657.857807 88.147591 657.446348 95.699675 657.581765 101.579884 C 657.581765 105.37155 660.519265 106.913217 662.87864 104.381967 C 670.878641 98.913217 682.363016 95.699675 689.639058 95.699675 C 697.6026 95.699675 700.404684 98.230925 700.404684 100.897592 C 700.404684 104.658009 695.7901 105.647592 686.972392 106.772592 C 668.076557 108.996551 652.389056 116.413218 652.389056 130.97051 C 652.389056 145.668427 660.248432 152.126761 674.498433 152.126761 Z M 691.7276 128.168427 C 687.248433 128.168427 685.300516 126.355926 685.300516 122.152801 C 685.300516 116.548634 690.597392 112.517384 695.7901 112.517384 C 699.144267 112.517384 700.816142 114.876759 700.816142 117.949676 C 700.816142 124.40801 695.243225 128.168427 691.7276 128.168427 Z M 759.493229 151.548636 C 763.389062 151.548636 771.113021 151.548636 774.873438 151.137178 C 776.993229 150.861136 779.076563 149.053844 778.665104 146.387177 C 777.540104 139.517385 776.545313 131.111135 776.545313 122.428843 C 776.545313 111.798634 784.68073 105.100717 792.644272 105.100717 C 799.238022 105.100717 803.852606 107.595509 808.196356 111.527801 C 810.144273 114.053842 813.665106 112.788217 813.93594 109.408009 C 814.65469 100.897592 815.336981 92.350716 815.883856 83.668424 C 815.883856 81.689258 815.336981 80.012174 813.800523 78.611132 C 810.586981 75.673632 805.972398 73.861132 800.232814 73.861132 C 789.566147 73.861132 782.597396 82.131966 779.076563 97.647592 C 778.394271 100.314258 776.274479 100.178842 776.274479 97.100717 C 776.274479 91.225716 776.852604 85.892383 778.086979 79.465299 C 778.665104 77.210091 777.128646 75.126757 774.461979 74.850716 C 771.383854 74.408007 763.11302 74.27259 760.040104 74.27259 C 756.826562 74.27259 750.810936 74.27259 747.154686 74.850716 C 745.206769 75.126757 743.670311 76.527799 743.529686 78.475716 C 741.685936 97.819467 740.727603 116.991343 740.592186 146.934052 C 740.592186 149.189261 742.269269 150.725719 744.217186 151.001761 C 748.555728 151.272594 755.972395 151.548636 759.493229 151.548636 Z M 876.076568 151.548636 C 880.41511 151.548636 888.685943 151.408011 892.894277 151.001761 C 894.842194 150.725719 896.649485 149.189261 896.514069 146.934052 C 896.10261 142.184052 896.243235 136.574677 896.82136 132.647593 C 897.644277 127.756968 902.118236 125.673635 907.040111 125.538218 L 912.336986 125.538218 C 917.399486 125.673635 921.873445 127.486135 922.696362 132.647593 C 923.13907 136.715302 923.274487 142.319469 923.003653 146.798636 C 922.696362 149.189261 924.540112 150.725719 926.488029 151.001761 C 930.555737 151.408011 938.383863 151.548636 942.040113 151.548636 C 945.80053 151.548636 954.071363 151.408011 958.133864 151.001761 C 960.493239 150.861136 962.034905 149.053844 961.48803 146.658011 C 955.743238 112.928842 943.269279 76.116341 933.493237 55.371548 C 932.915112 53.970506 931.649487 53.288214 930.113029 53.012173 C 924.675528 52.434048 914.73282 52.434048 909.534903 52.434048 C 904.238027 52.434048 894.566152 52.434048 889.373443 53.012173 C 887.831777 53.288214 886.60261 53.970506 886.024485 55.371548 C 876.211984 76.116341 863.633859 112.928842 857.894275 146.522594 C 857.310942 148.913219 858.883859 150.725719 861.37865 151.001761 C 865.175525 151.272594 872.180734 151.548636 876.076568 151.548636 Z M 908.441153 111.934051 C 904.102611 111.798634 901.847402 109.715301 902.836986 106.194467 C 903.795319 99.355925 905.639069 90.678841 907.316153 83.668424 C 908.717194 79.194466 910.665111 79.194466 911.930736 83.668424 C 913.738028 90.678841 915.722403 99.355925 916.540111 106.194467 C 917.534903 109.715301 915.415111 111.798634 911.076569 111.934051 Z M 1007.409908 184.324679 C 1038.748451 184.324679 1058.060952 173.522595 1058.060952 146.522594 C 1058.060952 121.335093 1056.967202 94.881967 1055.118243 78.611132 C 1054.84741 76.663216 1053.581785 75.126757 1051.498452 74.850716 C 1048.420326 74.579882 1041.685951 74.27259 1038.201576 74.27259 C 1034.680742 74.27259 1029.107825 74.27259 1025.180742 74.850716 C 1022.925533 75.262174 1020.977617 76.939257 1021.524492 79.194466 C 1022.378658 82.954883 1022.649492 86.027799 1022.925533 90.814258 C 1023.06095 93.616341 1020.977617 94.0278 1019.847408 91.49655 C 1015.37345 80.319466 1006.008866 73.725715 994.795324 73.725715 C 977.159906 73.725715 964.993239 86.746549 964.993239 111.663217 C 964.993239 135.585094 977.024489 150.006969 995.206782 150.006969 C 1006.279699 150.006969 1015.37345 144.574677 1019.847408 133.090302 C 1021.113033 130.017385 1023.196367 130.423635 1023.196367 133.225718 L 1023.196367 137.704885 C 1023.196367 149.600719 1011.305741 157.730928 997.46199 157.730928 C 988.373448 157.730928 979.107823 155.204886 972.545323 151.855928 C 970.154697 150.147594 967.623447 151.684053 967.352614 154.621553 C 967.076572 161.220512 966.529697 171.16322 966.363031 176.324679 C 966.222406 178.309054 967.488031 180.121554 969.331781 180.668429 C 978.290115 183.059054 997.326574 184.324679 1007.409908 184.324679 Z M 1011.305741 125.809051 C 1004.602616 125.809051 999.993241 120.480926 999.993241 112.210092 C 999.993241 104.381967 1004.467199 99.355925 1011.305741 99.355925 C 1018.175533 99.355925 1022.649492 104.381967 1022.649492 112.210092 C 1022.649492 120.480926 1018.034908 125.809051 1011.305741 125.809051 Z M 1107.201579 152.126761 C 1118.409913 152.126761 1132.253664 150.590303 1140.113039 145.975719 C 1141.654706 144.845511 1142.472414 143.309052 1142.336998 141.189261 C 1142.060956 136.303844 1141.342206 128.475718 1140.795331 123.553843 C 1140.389081 119.486134 1137.310956 118.533009 1135.191164 121.027801 C 1128.185955 127.210093 1120.904705 129.710093 1111.133871 129.710093 C 1102.451579 129.710093 1092.91512 125.538218 1089.842203 118.803843 C 1088.300537 116.277801 1089.97762 114.736134 1092.232829 116.413218 C 1097.836996 120.069468 1104.264079 121.746551 1110.993246 121.746551 C 1125.691164 121.746551 1139.394289 112.928842 1139.394289 100.314258 C 1139.394289 82.543424 1125.691164 73.725715 1103.576579 73.725715 C 1079.07137 73.725715 1062.123452 87.600716 1062.123452 111.934051 C 1062.123452 137.840302 1079.482828 152.126761 1107.201579 152.126761 Z M 1102.863037 110.668426 C 1098.248454 110.668426 1091.378662 108.585092 1091.378662 104.24655 C 1091.378662 98.913217 1096.57137 95.1528 1102.040121 95.1528 C 1108.331788 95.1528 1110.85783 98.366342 1110.85783 103.256967 C 1110.85783 108.038217 1107.613038 110.668426 1102.863037 110.668426 Z M 1165.998457 151.548636 C 1169.930749 151.548636 1176.357833 151.408011 1180.1495 151.001761 C 1182.232833 150.725719 1184.045333 149.189261 1183.7745 146.798636 C 1183.087 137.840302 1182.644291 128.616343 1182.508875 121.027801 C 1182.508875 111.663217 1186.982833 103.699675 1194.264084 103.699675 C 1201.409917 103.699675 1205.748459 111.527801 1205.883876 120.892385 C 1205.883876 127.756968 1205.066168 137.434052 1204.212001 146.658011 C 1204.071376 149.053844 1205.883876 150.725719 1208.003668 151.001761 C 1212.889085 151.408011 1218.357835 151.548636 1222.837002 151.548636 C 1227.175544 151.548636 1232.337002 151.408011 1236.988044 151.001761 C 1239.071378 150.725719 1240.472419 149.460094 1240.607836 147.204886 C 1240.748461 136.168427 1240.337003 119.934051 1239.618253 111.934051 C 1237.805753 88.970508 1228.305752 73.861132 1210.49846 73.861132 C 1199.321376 73.861132 1190.36825 80.730924 1185.581792 94.439258 C 1184.628667 96.9653 1182.508875 96.829883 1182.508875 93.892383 C 1182.644291 89.413216 1183.363042 86.475716 1185.310958 79.605924 C 1186.029708 77.381966 1184.045333 74.991341 1181.826583 74.850716 C 1177.482833 74.408007 1171.331791 74.27259 1167.810957 74.27259 C 1164.191166 74.27259 1157.45679 74.408007 1153.972415 74.850716 C 1151.852623 75.126757 1150.586998 76.939257 1150.17554 79.059049 C 1148.092206 95.428842 1146.961998 113.918426 1146.961998 146.798636 C 1146.826581 149.053844 1148.503665 150.725719 1150.586998 151.001761 C 1154.92554 151.408011 1161.930749 151.548636 1165.998457 151.548636 Z M 1274.769296 152.126761 C 1286.118255 152.126761 1294.628672 145.975719 1299.415131 136.027802 C 1300.951589 133.090302 1303.034923 133.50176 1302.764089 136.850719 C 1302.628673 139.928844 1302.217214 143.444469 1301.633881 146.658011 C 1301.222422 149.053844 1303.034923 150.725719 1305.290131 151.001761 C 1309.050548 151.408011 1315.649506 151.548636 1319.269298 151.548636 C 1322.925549 151.548636 1330.342216 151.408011 1334.685966 151.001761 C 1336.769299 150.725719 1338.305758 149.053844 1338.305758 146.798636 C 1338.305758 113.746551 1336.769299 75.262174 1335.092216 54.96009 C 1334.956799 52.876756 1333.420341 51.475714 1331.472424 51.204881 C 1327.675549 50.621548 1321.665132 50.621548 1318.003673 50.621548 C 1314.519298 50.621548 1306.967214 50.621548 1302.899506 51.033006 C 1300.675547 51.475714 1298.696381 53.288214 1299.107839 55.543423 C 1300.816172 65.043423 1302.628673 78.751757 1303.034923 89.960091 C 1303.175548 93.751758 1300.951589 93.616341 1299.415131 90.949675 C 1294.081797 79.605924 1286.800547 73.861132 1274.633879 73.861132 C 1256.420337 73.861132 1244.65992 89.2778 1244.65992 114.600718 C 1244.65992 139.517385 1256.863045 152.126761 1274.769296 152.126761 Z M 1291.279714 126.22051 C 1284.409922 126.22051 1279.795338 121.335093 1279.795338 113.335092 C 1279.795338 105.37155 1284.274505 99.9028 1291.279714 99.9028 C 1298.014089 99.9028 1302.628673 105.37155 1302.628673 113.335092 C 1302.628673 121.335093 1297.873464 126.22051 1291.279714 126.22051 Z M 1364.904717 152.126761 C 1374.988051 152.126761 1384.076593 146.934052 1388.722427 134.491344 C 1389.816177 131.824677 1391.800552 132.371552 1391.665135 135.173635 C 1391.357844 138.116344 1390.810969 142.730927 1390.39951 145.392386 C 1389.816177 148.470511 1392.076594 150.590303 1395.560969 151.001761 C 1399.488052 151.408011 1405.232844 151.548636 1409.024511 151.548636 C 1412.920345 151.548636 1418.93597 151.408011 1422.456804 151.001761 C 1424.680762 150.590303 1426.081804 149.053844 1426.081804 146.658011 C 1425.670345 132.512177 1424.269304 113.064259 1423.003679 101.303842 C 1421.331803 85.345508 1411.795345 73.725715 1383.258885 73.725715 C 1367.571384 73.725715 1356.665134 75.980924 1351.337008 77.793424 C 1349.659925 78.475716 1348.805758 80.152799 1348.670341 82.267383 C 1348.258883 88.147591 1347.847425 95.699675 1347.98805 101.579884 C 1347.98805 105.37155 1350.92555 106.913217 1353.284925 104.381967 C 1361.279717 98.913217 1372.764093 95.699675 1380.045343 95.699675 C 1388.008885 95.699675 1390.810969 98.230925 1390.810969 100.897592 C 1390.810969 104.658009 1386.196385 105.647592 1377.378676 106.772592 C 1358.477634 108.996551 1342.790133 116.413218 1342.790133 130.97051 C 1342.790133 145.668427 1350.649508 152.126761 1364.904717 152.126761 Z M 1382.128677 128.168427 C 1377.64951 128.168427 1375.701593 126.355926 1375.701593 122.152801 C 1375.701593 116.548634 1380.998468 112.517384 1386.196385 112.517384 C 1389.545344 112.517384 1391.217219 114.876759 1391.217219 117.949676 C 1391.217219 124.40801 1385.64951 128.168427 1382.128677 128.168427 Z M 1448.22243 151.548636 C 1451.571388 151.548636 1459.394305 151.408011 1463.462014 151.001761 C 1465.550556 150.725719 1467.529722 149.053844 1467.258889 146.658011 C 1466.675556 139.381969 1465.857847 129.87676 1465.993264 122.736135 C 1466.128681 114.053842 1468.659931 107.460092 1472.691181 107.460092 C 1477.47764 107.460092 1480.279723 113.611134 1480.550556 122.736135 C 1480.691181 129.022593 1480.107848 139.241344 1479.69639 146.522594 C 1479.560973 149.053844 1481.373473 150.725719 1483.628682 151.001761 C 1487.831807 151.408011 1495.113057 151.548636 1498.873474 151.548636 C 1502.253683 151.548636 1508.680766 151.548636 1512.613058 151.001761 C 1514.831808 150.590303 1516.816183 149.053844 1516.508892 146.522594 C 1515.821392 137.980927 1514.967225 128.887177 1514.967225 122.293426 C 1514.967225 113.475717 1517.909933 107.460092 1521.837017 107.460092 C 1526.4516 107.460092 1529.253684 113.199676 1529.529726 123.006968 C 1529.665142 128.887177 1529.253684 139.381969 1528.842226 146.522594 C 1528.571392 149.053844 1530.243267 150.590303 1532.602642 151.001761 C 1536.670351 151.548636 1544.222435 151.548636 1547.743268 151.548636 C 1551.092227 151.548636 1557.555769 151.548636 1561.451602 151.001761 C 1563.706811 150.590303 1565.519311 149.053844 1565.378686 146.522594 C 1564.524519 129.434052 1564.113061 117.678843 1562.165144 104.24655 C 1559.092227 81.996549 1549.008893 74.27259 1537.081809 74.27259 C 1526.316184 74.27259 1518.04535 83.397591 1515.10785 95.699675 C 1514.149516 99.355925 1512.029725 99.49655 1511.206808 95.699675 C 1507.279724 79.465299 1499.998474 74.27259 1489.91514 74.27259 C 1479.972431 74.27259 1472.279723 83.397591 1468.659931 96.111133 C 1467.665139 99.631967 1465.717222 98.913217 1465.717222 95.699675 C 1465.857847 92.2153 1467.087014 84.355924 1468.076597 79.329882 C 1468.659931 76.939257 1466.810972 75.262174 1464.456806 74.850716 C 1460.65993 74.408007 1452.97243 74.27259 1449.451597 74.27259 C 1445.967221 74.27259 1441.076596 74.27259 1437.555763 74.850716 C 1435.472429 75.262174 1434.071387 76.527799 1433.795346 78.611132 C 1432.087012 96.24655 1430.993262 119.215301 1430.993262 146.798636 C 1430.993262 149.053844 1432.534929 150.725719 1434.618262 151.001761 C 1438.409929 151.408011 1445.107846 151.548636 1448.22243 151.548636 Z M 1614.503688 152.126761 C 1625.71723 152.126761 1639.555773 150.590303 1647.415148 145.975719 C 1648.956815 144.845511 1649.774523 143.309052 1649.639107 141.189261 C 1649.368273 136.303844 1648.649523 128.475718 1648.102648 123.553843 C 1647.69119 119.486134 1644.613065 118.533009 1642.498481 121.027801 C 1635.488064 127.210093 1628.212022 129.710093 1618.43598 129.710093 C 1609.753688 129.710093 1600.217229 125.538218 1597.144312 118.803843 C 1595.602646 116.277801 1597.279729 114.736134 1599.534937 116.413218 C 1605.139104 120.069468 1611.566188 121.746551 1618.300563 121.746551 C 1632.993272 121.746551 1646.701606 112.928842 1646.701606 100.314258 C 1646.701606 82.543424 1632.993272 73.725715 1610.883896 73.725715 C 1586.378687 73.725715 1569.425561 87.600716 1569.425561 111.934051 C 1569.425561 137.840302 1586.784937 152.126761 1614.503688 152.126761 Z M 1610.165146 110.668426 C 1605.550563 110.668426 1598.680771 108.585092 1598.680771 104.24655 C 1598.680771 98.913217 1603.873479 95.1528 1609.34223 95.1528 C 1615.633897 95.1528 1618.159938 98.366342 1618.159938 103.256967 C 1618.159938 108.038217 1614.915147 110.668426 1610.165146 110.668426 Z M 1673.305774 151.548636 C 1677.232858 151.548636 1683.659942 151.408011 1687.451609 151.001761 C 1689.54015 150.725719 1691.347442 149.189261 1691.076609 146.798636 C 1690.394317 137.840302 1689.9464 128.616343 1689.810984 121.027801 C 1689.810984 111.663217 1694.290151 103.699675 1701.566193 103.699675 C 1708.712026 103.699675 1713.050568 111.527801 1713.185985 120.892385 C 1713.185985 127.756968 1712.368276 137.434052 1711.51411 146.658011 C 1711.378693 149.053844 1713.185985 150.725719 1715.305777 151.001761 C 1720.196402 151.408011 1725.665152 151.548636 1730.139111 151.548636 C 1734.482861 151.548636 1739.639111 151.408011 1744.290153 151.001761 C 1746.373486 150.725719 1747.774528 149.460094 1747.915153 147.204886 C 1748.05057 136.168427 1747.639112 119.934051 1746.920362 111.934051 C 1745.107861 88.970508 1735.607861 73.861132 1717.800568 73.861132 C 1706.628693 73.861132 1697.670359 80.730924 1692.889109 94.439258 C 1691.930775 96.9653 1689.810984 96.829883 1689.810984 93.892383 C 1689.9464 89.413216 1690.66515 86.475716 1692.613067 79.605924 C 1693.331817 77.381966 1691.347442 74.991341 1689.128692 74.850716 C 1684.784942 74.408007 1678.6339 74.27259 1675.113066 74.27259 C 1671.493274 74.27259 1664.758899 74.408007 1661.274524 74.850716 C 1659.154732 75.126757 1657.889107 76.939257 1657.477649 79.059049 C 1655.394315 95.428842 1654.269315 113.918426 1654.269315 146.798636 C 1654.12869 149.053844 1655.805774 150.725719 1657.889107 151.001761 C 1662.227649 151.408011 1669.238066 151.548636 1673.305774 151.548636 Z M 1795.368281 152.126761 C 1804.050573 152.126761 1811.878698 150.861136 1819.019323 148.913219 C 1820.696407 148.199678 1822.097449 146.387177 1822.097449 143.855927 C 1822.232865 139.241344 1822.368282 130.152802 1822.232865 124.954885 C 1822.097449 121.605926 1819.430782 120.480926 1817.347448 122.017385 C 1814.951615 123.28301 1810.337031 124.548635 1807.399531 124.548635 C 1801.519323 124.548635 1797.045364 121.746551 1796.769322 116.137176 C 1796.498489 111.798634 1796.498489 106.772592 1796.909947 101.850717 C 1797.180781 99.49655 1798.717239 97.954883 1801.659948 97.954883 C 1805.998489 97.954883 1812.732865 98.230925 1817.071407 98.501758 C 1819.15474 98.7778 1820.96724 96.694467 1820.96724 94.439258 L 1820.96724 78.751757 C 1820.96724 76.527799 1819.15474 74.715299 1817.071407 74.715299 C 1811.602656 74.715299 1805.180781 74.991341 1799.712031 74.991341 C 1798.581822 74.991341 1797.764114 73.861132 1797.764114 72.189257 C 1797.764114 68.699674 1798.446406 65.17884 1799.165156 61.251757 C 1799.435989 59.027798 1797.592239 57.079881 1795.368281 56.77259 C 1791.441197 56.361131 1783.883905 56.225715 1780.39953 56.225715 C 1777.014113 56.361131 1771.857863 56.361131 1768.472446 56.77259 C 1766.524529 57.079881 1764.988071 58.61634 1764.712029 60.569465 C 1764.300571 64.189257 1763.993279 69.246549 1763.857862 73.043424 C 1763.722446 73.996549 1763.040154 74.850716 1761.909946 74.850716 L 1755.040154 74.850716 C 1752.95682 74.850716 1751.420362 76.527799 1751.279737 78.611132 C 1751.279737 83.944466 1751.14432 89.137175 1751.279737 94.298633 C 1751.420362 96.418425 1752.95682 98.230925 1755.040154 98.230925 C 1757.024529 98.095508 1758.972445 98.095508 1760.784946 98.095508 C 1761.909946 97.954883 1762.899529 98.7778 1762.764112 99.9028 C 1761.639112 108.585092 1761.639112 117.538218 1761.639112 123.418426 C 1761.639112 143.444469 1776.196405 152.126761 1795.368281 152.126761 Z M 1868.305784 152.126761 C 1893.493286 152.126761 1911.404745 141.908011 1911.404745 115.012176 C 1911.404745 89.68405 1893.628702 73.725715 1868.305784 73.725715 C 1842.946408 73.725715 1825.034949 89.68405 1825.034949 115.012176 C 1825.034949 141.908011 1843.118283 152.126761 1868.305784 152.126761 Z M 1868.305784 127.621552 C 1861.435992 127.621552 1856.550575 122.017385 1856.550575 113.064259 C 1856.550575 104.381967 1861.300576 98.095508 1868.305784 98.095508 C 1875.310993 98.095508 1880.060993 104.381967 1880.060993 113.064259 C 1880.060993 122.017385 1875.175576 127.621552 1868.305784 127.621552 Z M 1868.305784 127.621552 " stroke="#157900" stroke-width="10.4997" stroke-opacity="1" stroke-miterlimit="4"/><g fill="#7ed957" fill-opacity="1"><g transform="translate(79.669162, 436.592429)"><g><path d="M 15.957031 0.421875 C 19.421875 0.421875 24.988281 0.316406 28.453125 0 C 30.238281 -0.210938 31.8125 -1.574219 31.394531 -3.359375 C 30.34375 -10.183594 29.1875 -17.847656 29.398438 -25.199219 C 29.398438 -28.242188 30.761719 -30.132812 32.546875 -29.609375 C 38.953125 -27.507812 43.675781 -15.75 43.78125 -3.042969 C 43.78125 -1.261719 45.148438 -0.210938 46.828125 0 C 49.871094 0.316406 56.382812 0.421875 59.320312 0.421875 C 62.261719 0.421875 68.246094 0.316406 71.605469 0 C 73.390625 -0.210938 74.753906 -1.574219 74.648438 -3.359375 C 73.285156 -22.363281 62.679688 -32.234375 48.296875 -34.226562 C 46.089844 -34.542969 46.089844 -36.328125 48.191406 -36.640625 C 61.945312 -39.058594 70.871094 -47.035156 70.871094 -57.324219 C 70.871094 -68.558594 60.265625 -74.019531 41.050781 -74.019531 C 27.089844 -74.019531 15.328125 -74.019531 7.664062 -73.601562 C 6.195312 -73.496094 4.933594 -72.339844 4.828125 -70.871094 C 3.675781 -56.277344 2.101562 -25.304688 2.101562 -2.941406 C 2.101562 -1.363281 3.464844 -0.210938 5.039062 0 C 7.769531 0.316406 12.808594 0.421875 15.957031 0.421875 Z M 32.96875 -39.476562 C 31.078125 -38.953125 29.710938 -39.371094 29.609375 -41.472656 C 29.503906 -44.515625 29.609375 -47.5625 29.710938 -50.394531 C 29.710938 -52.078125 30.65625 -53.230469 32.335938 -53.335938 C 33.28125 -53.441406 34.226562 -53.441406 35.382812 -53.441406 C 41.367188 -53.441406 44.621094 -51.65625 44.621094 -47.875 C 44.621094 -44.097656 40.527344 -40.945312 32.96875 -39.476562 Z M 32.96875 -39.476562 "/></g></g></g><g fill="#7ed957" fill-opacity="1"><g transform="translate(155.785655, 436.592429)"><g><path d="M 35.066406 0.839844 C 43.46875 0.839844 53.859375 -0.316406 59.742188 -3.78125 C 60.894531 -4.621094 61.527344 -5.773438 61.421875 -7.347656 C 61.210938 -11.023438 60.6875 -16.902344 60.265625 -20.578125 C 59.949219 -23.625 57.640625 -24.359375 56.066406 -22.46875 C 50.816406 -17.847656 45.355469 -15.957031 38.007812 -15.957031 C 31.496094 -15.957031 24.359375 -19.109375 22.046875 -24.148438 C 20.894531 -26.039062 22.152344 -27.191406 23.832031 -25.933594 C 28.03125 -23.203125 32.863281 -21.945312 37.902344 -21.945312 C 48.925781 -21.945312 59.214844 -28.558594 59.214844 -38.007812 C 59.214844 -51.339844 48.925781 -57.957031 32.335938 -57.957031 C 13.964844 -57.957031 1.261719 -47.5625 1.261719 -29.292969 C 1.261719 -9.871094 14.277344 0.839844 35.066406 0.839844 Z M 31.8125 -30.238281 C 28.347656 -30.238281 23.203125 -31.8125 23.203125 -35.066406 C 23.203125 -39.058594 27.089844 -41.890625 31.183594 -41.890625 C 35.90625 -41.890625 37.796875 -39.476562 37.796875 -35.800781 C 37.796875 -32.234375 35.382812 -30.238281 31.8125 -30.238281 Z M 31.8125 -30.238281 "/></g></g></g><g fill="#7ed957" fill-opacity="1"><g transform="translate(218.673626, 436.592429)"><g><path d="M 17.847656 0.839844 C 25.40625 0.839844 32.234375 -3.042969 35.699219 -12.390625 C 36.539062 -14.382812 38.007812 -13.964844 37.902344 -11.863281 C 37.691406 -9.660156 37.273438 -6.195312 36.957031 -4.199219 C 36.539062 -1.890625 38.21875 -0.316406 40.84375 0 C 43.78125 0.316406 48.085938 0.421875 50.921875 0.421875 C 53.859375 0.421875 58.375 0.316406 61 0 C 62.679688 -0.316406 63.730469 -1.46875 63.730469 -3.253906 C 63.414062 -13.859375 62.367188 -28.453125 61.421875 -37.273438 C 60.160156 -49.242188 53.019531 -57.957031 31.601562 -57.957031 C 19.84375 -57.957031 11.652344 -56.277344 7.664062 -54.910156 C 6.40625 -54.386719 5.773438 -53.125 5.667969 -51.550781 C 5.355469 -47.140625 5.039062 -41.472656 5.144531 -37.0625 C 5.144531 -34.226562 7.347656 -33.074219 9.132812 -34.960938 C 15.117188 -39.058594 23.726562 -41.472656 29.1875 -41.472656 C 35.171875 -41.472656 37.273438 -39.582031 37.273438 -37.585938 C 37.273438 -34.753906 33.808594 -34.015625 27.191406 -33.175781 C 13.019531 -31.496094 1.261719 -25.933594 1.261719 -15.015625 C 1.261719 -3.988281 7.140625 0.839844 17.847656 0.839844 Z M 30.761719 -17.113281 C 27.402344 -17.113281 25.933594 -18.480469 25.933594 -21.628906 C 25.933594 -25.828125 29.921875 -28.871094 33.808594 -28.871094 C 36.328125 -28.871094 37.585938 -27.089844 37.585938 -24.777344 C 37.585938 -19.949219 33.386719 -17.113281 30.761719 -17.113281 Z M 30.761719 -17.113281 "/></g></g></g><g fill="#7ed957" fill-opacity="1"><g transform="translate(284.18631, 436.592429)"><g><path d="M 16.589844 0.421875 C 19.421875 0.421875 24.359375 0.316406 27.089844 0 C 28.769531 -0.210938 29.921875 -1.363281 29.816406 -3.148438 C 28.976562 -25.304688 29.1875 -51.65625 31.289062 -71.605469 C 31.496094 -73.390625 30.238281 -74.753906 28.558594 -74.964844 C 25.40625 -75.28125 19.84375 -75.28125 17.113281 -75.28125 C 14.488281 -75.28125 10.078125 -75.175781 7.453125 -74.859375 C 5.878906 -74.648438 4.726562 -73.601562 4.515625 -72.128906 C 3.359375 -56.484375 2.101562 -27.402344 2.101562 -3.148438 C 2.101562 -1.46875 3.359375 -0.210938 4.933594 0 C 8.085938 0.316406 13.542969 0.421875 16.589844 0.421875 Z M 16.589844 0.421875 "/></g></g></g><g fill="#7ed957" fill-opacity="1"><g transform="translate(317.572593, 436.592429)"><g><path d="M 15.75 -60.582031 C 24.148438 -60.582031 28.453125 -64.992188 28.453125 -70.976562 C 28.453125 -76.855469 24.148438 -81.265625 15.75 -81.265625 C 7.453125 -81.265625 3.253906 -76.855469 3.253906 -70.976562 C 3.253906 -64.992188 7.453125 -60.582031 15.75 -60.582031 Z M 16.0625 0.421875 C 18.6875 0.421875 23.625 0.316406 26.667969 0 C 28.136719 -0.210938 29.398438 -1.46875 29.398438 -3.042969 C 29.398438 -23.519531 28.347656 -41.15625 27.296875 -54.386719 C 27.191406 -55.855469 26.144531 -56.90625 24.566406 -57.117188 C 22.257812 -57.429688 18.058594 -57.535156 15.957031 -57.535156 C 13.4375 -57.535156 9.554688 -57.429688 6.929688 -57.117188 C 5.460938 -56.90625 4.304688 -55.855469 4.199219 -54.386719 C 3.148438 -41.15625 2.101562 -23.519531 2.101562 -3.042969 C 2.101562 -1.46875 3.359375 -0.210938 4.933594 0 C 8.085938 0.316406 13.4375 0.421875 16.0625 0.421875 Z M 16.0625 0.421875 "/></g></g></g><g fill="#7ed957" fill-opacity="1"><g transform="translate(349.174077, 436.592429)"><g><path d="M 31.707031 0.421875 C 38.953125 0.421875 53.230469 0.210938 60.160156 0.105469 C 61.628906 0 62.890625 -1.15625 62.785156 -2.519531 C 62.574219 -8.292969 62.261719 -16.902344 61.839844 -22.679688 C 61.734375 -25.722656 58.902344 -26.25 57.117188 -23.9375 C 53.019531 -19.109375 47.667969 -16.695312 41.890625 -16.695312 C 35.59375 -16.695312 34.542969 -19.003906 38.21875 -21.523438 C 45.148438 -27.507812 53.230469 -34.859375 57.957031 -40.316406 C 59.949219 -42.207031 60.894531 -44.726562 60.894531 -47.246094 C 60.894531 -49.871094 60.789062 -51.550781 60.476562 -54.699219 C 60.265625 -56.066406 59.214844 -57.011719 57.746094 -57.117188 C 52.179688 -57.429688 38.742188 -57.535156 32.234375 -57.535156 C 25.40625 -57.535156 13.4375 -57.429688 6.929688 -57.117188 C 5.566406 -57.011719 4.410156 -55.960938 4.304688 -54.492188 C 3.988281 -49.660156 3.570312 -41.367188 3.359375 -36.640625 C 3.253906 -33.808594 6.089844 -33.175781 7.558594 -35.066406 C 11.550781 -38.742188 17.113281 -41.050781 23.308594 -41.050781 C 28.664062 -41.050781 30.027344 -38.847656 26.457031 -36.011719 C 18.898438 -29.609375 10.5 -22.679688 5.25 -17.113281 C 2.941406 -15.222656 1.996094 -13.019531 1.785156 -10.078125 C 1.679688 -7.246094 1.574219 -5.144531 1.574219 -2.519531 C 1.46875 -1.15625 2.730469 0 4.199219 0.105469 C 10.183594 0.210938 24.988281 0.421875 31.707031 0.421875 Z M 31.707031 0.421875 "/></g></g></g><g fill="#7ed957" fill-opacity="1"><g transform="translate(413.531893, 436.592429)"><g><path d="M 17.847656 0.839844 C 25.40625 0.839844 32.234375 -3.042969 35.699219 -12.390625 C 36.539062 -14.382812 38.007812 -13.964844 37.902344 -11.863281 C 37.691406 -9.660156 37.273438 -6.195312 36.957031 -4.199219 C 36.539062 -1.890625 38.21875 -0.316406 40.84375 0 C 43.78125 0.316406 48.085938 0.421875 50.921875 0.421875 C 53.859375 0.421875 58.375 0.316406 61 0 C 62.679688 -0.316406 63.730469 -1.46875 63.730469 -3.253906 C 63.414062 -13.859375 62.367188 -28.453125 61.421875 -37.273438 C 60.160156 -49.242188 53.019531 -57.957031 31.601562 -57.957031 C 19.84375 -57.957031 11.652344 -56.277344 7.664062 -54.910156 C 6.40625 -54.386719 5.773438 -53.125 5.667969 -51.550781 C 5.355469 -47.140625 5.039062 -41.472656 5.144531 -37.0625 C 5.144531 -34.226562 7.347656 -33.074219 9.132812 -34.960938 C 15.117188 -39.058594 23.726562 -41.472656 29.1875 -41.472656 C 35.171875 -41.472656 37.273438 -39.582031 37.273438 -37.585938 C 37.273438 -34.753906 33.808594 -34.015625 27.191406 -33.175781 C 13.019531 -31.496094 1.261719 -25.933594 1.261719 -15.015625 C 1.261719 -3.988281 7.140625 0.839844 17.847656 0.839844 Z M 30.761719 -17.113281 C 27.402344 -17.113281 25.933594 -18.480469 25.933594 -21.628906 C 25.933594 -25.828125 29.921875 -28.871094 33.808594 -28.871094 C 36.328125 -28.871094 37.585938 -27.089844 37.585938 -24.777344 C 37.585938 -19.949219 33.386719 -17.113281 30.761719 -17.113281 Z M 30.761719 -17.113281 "/></g></g></g><g fill="#7ed957" fill-opacity="1"><g transform="translate(479.0446, 436.592429)"><g><path d="M 16.0625 0.421875 C 19.003906 0.421875 24.777344 0.421875 27.613281 0.105469 C 29.1875 -0.105469 30.761719 -1.46875 30.449219 -3.464844 C 29.609375 -8.609375 28.871094 -14.910156 28.871094 -21.417969 C 28.871094 -29.398438 34.960938 -34.4375 40.945312 -34.4375 C 45.882812 -34.4375 49.347656 -32.546875 52.601562 -29.609375 C 54.070312 -27.71875 56.695312 -28.664062 56.90625 -31.183594 C 57.429688 -37.585938 57.957031 -43.992188 58.375 -50.5 C 58.375 -51.972656 57.957031 -53.230469 56.800781 -54.28125 C 54.386719 -56.484375 50.921875 -57.851562 46.617188 -57.851562 C 38.636719 -57.851562 33.386719 -51.65625 30.761719 -40.003906 C 30.238281 -38.007812 28.664062 -38.113281 28.664062 -40.421875 C 28.664062 -44.832031 29.082031 -48.820312 30.027344 -53.652344 C 30.449219 -55.332031 29.292969 -56.90625 27.296875 -57.117188 C 24.988281 -57.429688 18.792969 -57.535156 16.484375 -57.535156 C 14.070312 -57.535156 9.554688 -57.535156 6.824219 -57.117188 C 5.355469 -56.90625 4.199219 -55.855469 4.09375 -54.386719 C 2.730469 -39.898438 1.996094 -25.511719 1.890625 -3.042969 C 1.890625 -1.363281 3.148438 -0.210938 4.621094 0 C 7.875 0.210938 13.4375 0.421875 16.0625 0.421875 Z M 16.0625 0.421875 "/></g></g></g><g fill="#7ed957" fill-opacity="1"><g transform="translate(538.572963, 436.592429)"><g/></g></g><g fill="#7ed957" fill-opacity="1"><g transform="translate(567.969675, 436.592429)"><g><path d="M 14.59375 0.421875 C 17.847656 0.421875 24.042969 0.316406 27.191406 0 C 28.664062 -0.210938 30.027344 -1.363281 29.921875 -3.042969 C 29.609375 -6.613281 29.710938 -10.8125 30.132812 -13.753906 C 30.761719 -17.429688 34.121094 -19.003906 37.796875 -19.109375 L 41.785156 -19.109375 C 45.566406 -19.003906 48.925781 -17.640625 49.554688 -13.753906 C 49.871094 -10.710938 49.976562 -6.507812 49.765625 -3.148438 C 49.554688 -1.363281 50.921875 -0.210938 52.390625 0 C 55.4375 0.316406 61.316406 0.421875 64.046875 0.421875 C 66.878906 0.421875 73.074219 0.316406 76.121094 0 C 77.90625 -0.105469 79.058594 -1.46875 78.640625 -3.253906 C 74.335938 -28.558594 64.992188 -56.171875 57.640625 -71.710938 C 57.222656 -72.761719 56.277344 -73.285156 55.121094 -73.496094 C 51.027344 -73.914062 43.570312 -73.914062 39.6875 -73.914062 C 35.699219 -73.914062 28.453125 -73.914062 24.566406 -73.496094 C 23.414062 -73.285156 22.46875 -72.761719 22.046875 -71.710938 C 14.699219 -56.171875 5.25 -28.558594 0.945312 -3.359375 C 0.523438 -1.574219 1.679688 -0.210938 3.570312 0 C 6.40625 0.210938 11.652344 0.421875 14.59375 0.421875 Z M 38.847656 -29.292969 C 35.59375 -29.398438 33.914062 -30.972656 34.648438 -33.597656 C 35.382812 -38.742188 36.746094 -45.25 38.007812 -50.5 C 39.058594 -53.859375 40.527344 -53.859375 41.472656 -50.5 C 42.835938 -45.25 44.308594 -38.742188 44.9375 -33.597656 C 45.671875 -30.972656 44.097656 -29.398438 40.84375 -29.292969 Z M 38.847656 -29.292969 "/></g></g></g><g fill="#7ed957" fill-opacity="1"><g transform="translate(647.550787, 436.592429)"><g><path d="M 33.492188 24.988281 C 57.011719 24.988281 71.5 16.902344 71.5 -3.359375 C 71.5 -22.257812 70.660156 -42.101562 69.296875 -54.28125 C 69.085938 -55.75 68.140625 -56.90625 66.566406 -57.117188 C 64.253906 -57.324219 59.214844 -57.535156 56.589844 -57.535156 C 53.964844 -57.535156 49.765625 -57.535156 46.828125 -57.117188 C 45.148438 -56.800781 43.675781 -55.542969 44.097656 -53.859375 C 44.726562 -51.027344 44.9375 -48.714844 45.148438 -45.148438 C 45.25 -43.046875 43.675781 -42.730469 42.835938 -44.621094 C 39.476562 -53.019531 32.441406 -57.957031 24.042969 -57.957031 C 10.8125 -57.957031 1.679688 -48.191406 1.679688 -29.503906 C 1.679688 -11.550781 10.710938 -0.734375 24.359375 -0.734375 C 32.652344 -0.734375 39.476562 -4.828125 42.835938 -13.4375 C 43.78125 -15.75 45.355469 -15.433594 45.355469 -13.335938 L 45.355469 -9.972656 C 45.355469 -1.050781 36.433594 5.039062 26.039062 5.039062 C 19.214844 5.039062 12.285156 3.148438 7.347656 0.628906 C 5.566406 -0.628906 3.675781 0.523438 3.464844 2.730469 C 3.253906 7.664062 2.835938 15.117188 2.730469 19.003906 C 2.625 20.472656 3.570312 21.839844 4.933594 22.257812 C 11.652344 24.042969 25.933594 24.988281 33.492188 24.988281 Z M 36.433594 -18.898438 C 31.394531 -18.898438 27.929688 -22.886719 27.929688 -29.082031 C 27.929688 -34.960938 31.289062 -38.742188 36.433594 -38.742188 C 41.578125 -38.742188 44.9375 -34.960938 44.9375 -29.082031 C 44.9375 -22.886719 41.472656 -18.898438 36.433594 -18.898438 Z M 36.433594 -18.898438 "/></g></g></g><g fill="#7ed957" fill-opacity="1"><g transform="translate(720.832613, 436.592429)"><g><path d="M 35.066406 0.839844 C 43.46875 0.839844 53.859375 -0.316406 59.742188 -3.78125 C 60.894531 -4.621094 61.527344 -5.773438 61.421875 -7.347656 C 61.210938 -11.023438 60.6875 -16.902344 60.265625 -20.578125 C 59.949219 -23.625 57.640625 -24.359375 56.066406 -22.46875 C 50.816406 -17.847656 45.355469 -15.957031 38.007812 -15.957031 C 31.496094 -15.957031 24.359375 -19.109375 22.046875 -24.148438 C 20.894531 -26.039062 22.152344 -27.191406 23.832031 -25.933594 C 28.03125 -23.203125 32.863281 -21.945312 37.902344 -21.945312 C 48.925781 -21.945312 59.214844 -28.558594 59.214844 -38.007812 C 59.214844 -51.339844 48.925781 -57.957031 32.335938 -57.957031 C 13.964844 -57.957031 1.261719 -47.5625 1.261719 -29.292969 C 1.261719 -9.871094 14.277344 0.839844 35.066406 0.839844 Z M 31.8125 -30.238281 C 28.347656 -30.238281 23.203125 -31.8125 23.203125 -35.066406 C 23.203125 -39.058594 27.089844 -41.890625 31.183594 -41.890625 C 35.90625 -41.890625 37.796875 -39.476562 37.796875 -35.800781 C 37.796875 -32.234375 35.382812 -30.238281 31.8125 -30.238281 Z M 31.8125 -30.238281 "/></g></g></g><g fill="#7ed957" fill-opacity="1"><g transform="translate(783.720595, 436.592429)"><g><path d="M 16.273438 0.421875 C 19.214844 0.421875 24.042969 0.316406 26.878906 0 C 28.453125 -0.210938 29.816406 -1.363281 29.609375 -3.148438 C 29.082031 -9.871094 28.769531 -16.796875 28.664062 -22.46875 C 28.664062 -29.503906 32.023438 -35.488281 37.480469 -35.488281 C 42.835938 -35.488281 46.089844 -29.609375 46.195312 -22.574219 C 46.195312 -17.429688 45.566406 -10.183594 44.9375 -3.253906 C 44.832031 -1.46875 46.195312 -0.210938 47.773438 0 C 51.445312 0.316406 55.542969 0.421875 58.902344 0.421875 C 62.15625 0.421875 66.039062 0.316406 69.503906 0 C 71.078125 -0.210938 72.128906 -1.15625 72.234375 -2.835938 C 72.339844 -11.128906 72.023438 -23.308594 71.5 -29.292969 C 70.136719 -46.511719 62.996094 -57.851562 49.660156 -57.851562 C 41.261719 -57.851562 34.542969 -52.707031 30.972656 -42.417969 C 30.238281 -40.527344 28.664062 -40.632812 28.664062 -42.835938 C 28.769531 -46.195312 29.292969 -48.402344 30.761719 -53.546875 C 31.289062 -55.226562 29.816406 -57.011719 28.136719 -57.117188 C 24.882812 -57.429688 20.261719 -57.535156 17.640625 -57.535156 C 14.910156 -57.535156 9.871094 -57.429688 7.246094 -57.117188 C 5.667969 -56.90625 4.726562 -55.542969 4.410156 -53.964844 C 2.835938 -41.683594 1.996094 -27.824219 1.996094 -3.148438 C 1.890625 -1.46875 3.148438 -0.210938 4.726562 0 C 7.980469 0.316406 13.230469 0.421875 16.273438 0.421875 Z M 16.273438 0.421875 "/></g></g></g><g fill="#7ed957" fill-opacity="1"><g transform="translate(857.737361, 436.592429)"><g><path d="M 23.832031 0.839844 C 32.335938 0.839844 38.742188 -3.78125 42.3125 -11.234375 C 43.46875 -13.4375 45.042969 -13.125 44.832031 -10.605469 C 44.726562 -8.292969 44.410156 -5.667969 43.992188 -3.253906 C 43.675781 -1.46875 45.042969 -0.210938 46.722656 0 C 49.554688 0.316406 54.492188 0.421875 57.222656 0.421875 C 59.949219 0.421875 65.515625 0.316406 68.769531 0 C 70.34375 -0.210938 71.5 -1.46875 71.5 -3.148438 C 71.5 -27.929688 70.34375 -56.800781 69.085938 -72.023438 C 68.980469 -73.601562 67.824219 -74.648438 66.355469 -74.859375 C 63.519531 -75.28125 59.003906 -75.28125 56.277344 -75.28125 C 53.652344 -75.28125 47.980469 -75.28125 44.9375 -74.964844 C 43.257812 -74.648438 41.785156 -73.285156 42.101562 -71.605469 C 43.363281 -64.464844 44.726562 -54.175781 45.042969 -45.777344 C 45.148438 -42.941406 43.46875 -43.046875 42.3125 -45.042969 C 38.320312 -53.546875 32.863281 -57.851562 23.726562 -57.851562 C 10.078125 -57.851562 1.261719 -46.300781 1.261719 -27.296875 C 1.261719 -8.609375 10.394531 0.839844 23.832031 0.839844 Z M 36.222656 -18.582031 C 31.078125 -18.582031 27.613281 -22.257812 27.613281 -28.242188 C 27.613281 -34.226562 30.972656 -38.320312 36.222656 -38.320312 C 41.261719 -38.320312 44.726562 -34.226562 44.726562 -28.242188 C 44.726562 -22.257812 41.15625 -18.582031 36.222656 -18.582031 Z M 36.222656 -18.582031 "/></g></g></g><g fill="#7ed957" fill-opacity="1"><g transform="translate(931.334128, 436.592429)"><g><path d="M 17.847656 0.839844 C 25.40625 0.839844 32.234375 -3.042969 35.699219 -12.390625 C 36.539062 -14.382812 38.007812 -13.964844 37.902344 -11.863281 C 37.691406 -9.660156 37.273438 -6.195312 36.957031 -4.199219 C 36.539062 -1.890625 38.21875 -0.316406 40.84375 0 C 43.78125 0.316406 48.085938 0.421875 50.921875 0.421875 C 53.859375 0.421875 58.375 0.316406 61 0 C 62.679688 -0.316406 63.730469 -1.46875 63.730469 -3.253906 C 63.414062 -13.859375 62.367188 -28.453125 61.421875 -37.273438 C 60.160156 -49.242188 53.019531 -57.957031 31.601562 -57.957031 C 19.84375 -57.957031 11.652344 -56.277344 7.664062 -54.910156 C 6.40625 -54.386719 5.773438 -53.125 5.667969 -51.550781 C 5.355469 -47.140625 5.039062 -41.472656 5.144531 -37.0625 C 5.144531 -34.226562 7.347656 -33.074219 9.132812 -34.960938 C 15.117188 -39.058594 23.726562 -41.472656 29.1875 -41.472656 C 35.171875 -41.472656 37.273438 -39.582031 37.273438 -37.585938 C 37.273438 -34.753906 33.808594 -34.015625 27.191406 -33.175781 C 13.019531 -31.496094 1.261719 -25.933594 1.261719 -15.015625 C 1.261719 -3.988281 7.140625 0.839844 17.847656 0.839844 Z M 30.761719 -17.113281 C 27.402344 -17.113281 25.933594 -18.480469 25.933594 -21.628906 C 25.933594 -25.828125 29.921875 -28.871094 33.808594 -28.871094 C 36.328125 -28.871094 37.585938 -27.089844 37.585938 -24.777344 C 37.585938 -19.949219 33.386719 -17.113281 30.761719 -17.113281 Z M 30.761719 -17.113281 "/></g></g></g><g fill="#7ed957" fill-opacity="1"><g transform="translate(996.84679, 436.592429)"><g><path d="M 14.804688 0.421875 C 17.324219 0.421875 23.203125 0.316406 26.25 0 C 27.824219 -0.210938 29.292969 -1.46875 29.082031 -3.253906 C 28.664062 -8.714844 28.03125 -15.855469 28.136719 -21.207031 C 28.242188 -27.71875 30.132812 -32.652344 33.175781 -32.652344 C 36.746094 -32.652344 38.847656 -28.03125 39.058594 -21.207031 C 39.164062 -16.484375 38.742188 -8.820312 38.425781 -3.359375 C 38.320312 -1.46875 39.6875 -0.210938 41.367188 0 C 44.515625 0.316406 49.976562 0.421875 52.8125 0.421875 C 55.332031 0.421875 60.160156 0.421875 63.101562 0 C 64.78125 -0.316406 66.25 -1.46875 66.039062 -3.359375 C 65.515625 -9.765625 64.886719 -16.589844 64.886719 -21.523438 C 64.886719 -28.136719 67.089844 -32.652344 70.03125 -32.652344 C 73.496094 -32.652344 75.59375 -28.347656 75.804688 -21 C 75.910156 -16.589844 75.59375 -8.714844 75.28125 -3.359375 C 75.070312 -1.46875 76.328125 -0.316406 78.113281 0 C 81.160156 0.421875 86.828125 0.421875 89.453125 0.421875 C 91.972656 0.421875 96.804688 0.421875 99.742188 0 C 101.421875 -0.316406 102.789062 -1.46875 102.683594 -3.359375 C 102.050781 -16.167969 101.738281 -24.988281 100.269531 -35.066406 C 97.957031 -51.761719 90.398438 -57.535156 81.472656 -57.535156 C 73.390625 -57.535156 67.195312 -50.710938 64.992188 -41.472656 C 64.253906 -38.742188 62.679688 -38.636719 62.050781 -41.472656 C 59.109375 -53.652344 53.652344 -57.535156 46.089844 -57.535156 C 38.636719 -57.535156 32.863281 -50.710938 30.132812 -41.15625 C 29.398438 -38.53125 27.929688 -39.058594 27.929688 -41.472656 C 28.03125 -44.097656 28.976562 -49.976562 29.710938 -53.757812 C 30.132812 -55.542969 28.769531 -56.800781 26.984375 -57.117188 C 24.148438 -57.429688 18.375 -57.535156 15.75 -57.535156 C 13.125 -57.535156 9.449219 -57.535156 6.824219 -57.117188 C 5.25 -56.800781 4.199219 -55.855469 3.988281 -54.28125 C 2.730469 -41.050781 1.890625 -23.832031 1.890625 -3.148438 C 1.890625 -1.46875 3.042969 -0.210938 4.621094 0 C 7.453125 0.316406 12.492188 0.421875 14.804688 0.421875 Z M 14.804688 0.421875 "/></g></g></g><g fill="#7ed957" fill-opacity="1"><g transform="translate(1101.310102, 436.592429)"><g><path d="M 35.066406 0.839844 C 43.46875 0.839844 53.859375 -0.316406 59.742188 -3.78125 C 60.894531 -4.621094 61.527344 -5.773438 61.421875 -7.347656 C 61.210938 -11.023438 60.6875 -16.902344 60.265625 -20.578125 C 59.949219 -23.625 57.640625 -24.359375 56.066406 -22.46875 C 50.816406 -17.847656 45.355469 -15.957031 38.007812 -15.957031 C 31.496094 -15.957031 24.359375 -19.109375 22.046875 -24.148438 C 20.894531 -26.039062 22.152344 -27.191406 23.832031 -25.933594 C 28.03125 -23.203125 32.863281 -21.945312 37.902344 -21.945312 C 48.925781 -21.945312 59.214844 -28.558594 59.214844 -38.007812 C 59.214844 -51.339844 48.925781 -57.957031 32.335938 -57.957031 C 13.964844 -57.957031 1.261719 -47.5625 1.261719 -29.292969 C 1.261719 -9.871094 14.277344 0.839844 35.066406 0.839844 Z M 31.8125 -30.238281 C 28.347656 -30.238281 23.203125 -31.8125 23.203125 -35.066406 C 23.203125 -39.058594 27.089844 -41.890625 31.183594 -41.890625 C 35.90625 -41.890625 37.796875 -39.476562 37.796875 -35.800781 C 37.796875 -32.234375 35.382812 -30.238281 31.8125 -30.238281 Z M 31.8125 -30.238281 "/></g></g></g><g fill="#7ed957" fill-opacity="1"><g transform="translate(1164.198039, 436.592429)"><g><path d="M 16.273438 0.421875 C 19.214844 0.421875 24.042969 0.316406 26.878906 0 C 28.453125 -0.210938 29.816406 -1.363281 29.609375 -3.148438 C 29.082031 -9.871094 28.769531 -16.796875 28.664062 -22.46875 C 28.664062 -29.503906 32.023438 -35.488281 37.480469 -35.488281 C 42.835938 -35.488281 46.089844 -29.609375 46.195312 -22.574219 C 46.195312 -17.429688 45.566406 -10.183594 44.9375 -3.253906 C 44.832031 -1.46875 46.195312 -0.210938 47.773438 0 C 51.445312 0.316406 55.542969 0.421875 58.902344 0.421875 C 62.15625 0.421875 66.039062 0.316406 69.503906 0 C 71.078125 -0.210938 72.128906 -1.15625 72.234375 -2.835938 C 72.339844 -11.128906 72.023438 -23.308594 71.5 -29.292969 C 70.136719 -46.511719 62.996094 -57.851562 49.660156 -57.851562 C 41.261719 -57.851562 34.542969 -52.707031 30.972656 -42.417969 C 30.238281 -40.527344 28.664062 -40.632812 28.664062 -42.835938 C 28.769531 -46.195312 29.292969 -48.402344 30.761719 -53.546875 C 31.289062 -55.226562 29.816406 -57.011719 28.136719 -57.117188 C 24.882812 -57.429688 20.261719 -57.535156 17.640625 -57.535156 C 14.910156 -57.535156 9.871094 -57.429688 7.246094 -57.117188 C 5.667969 -56.90625 4.726562 -55.542969 4.410156 -53.964844 C 2.835938 -41.683594 1.996094 -27.824219 1.996094 -3.148438 C 1.890625 -1.46875 3.148438 -0.210938 4.726562 0 C 7.980469 0.316406 13.230469 0.421875 16.273438 0.421875 Z M 16.273438 0.421875 "/></g></g></g><g fill="#7ed957" fill-opacity="1"><g transform="translate(1238.214759, 436.592429)"><g><path d="M 33.808594 0.839844 C 40.316406 0.839844 46.195312 -0.105469 51.550781 -1.574219 C 52.8125 -2.101562 53.859375 -3.464844 53.859375 -5.355469 C 53.964844 -8.820312 54.070312 -15.644531 53.964844 -19.527344 C 53.859375 -22.046875 51.867188 -22.886719 50.292969 -21.734375 C 48.507812 -20.789062 45.042969 -19.84375 42.835938 -19.84375 C 38.425781 -19.84375 35.066406 -21.945312 34.859375 -26.144531 C 34.648438 -29.398438 34.648438 -33.175781 34.960938 -36.851562 C 35.171875 -38.636719 36.328125 -39.792969 38.53125 -39.792969 C 41.785156 -39.792969 46.828125 -39.582031 50.082031 -39.371094 C 51.65625 -39.164062 53.019531 -40.738281 53.019531 -42.417969 L 53.019531 -54.175781 C 53.019531 -55.855469 51.65625 -57.222656 50.082031 -57.222656 C 45.988281 -57.222656 41.15625 -57.011719 37.0625 -57.011719 C 36.222656 -57.011719 35.59375 -57.851562 35.59375 -59.109375 C 35.59375 -61.734375 36.117188 -64.359375 36.640625 -67.300781 C 36.851562 -68.980469 35.488281 -70.449219 33.808594 -70.660156 C 30.867188 -70.976562 25.199219 -71.078125 22.574219 -71.078125 C 20.054688 -70.976562 16.167969 -70.976562 13.648438 -70.660156 C 12.179688 -70.449219 11.023438 -69.296875 10.8125 -67.824219 C 10.5 -65.09375 10.289062 -61.316406 10.183594 -58.480469 C 10.078125 -57.746094 9.554688 -57.117188 8.714844 -57.117188 L 3.570312 -57.117188 C 1.996094 -57.117188 0.839844 -55.855469 0.734375 -54.28125 C 0.734375 -50.292969 0.628906 -46.40625 0.734375 -42.523438 C 0.839844 -40.945312 1.996094 -39.582031 3.570312 -39.582031 C 5.039062 -39.6875 6.507812 -39.6875 7.875 -39.6875 C 8.714844 -39.792969 9.449219 -39.164062 9.34375 -38.320312 C 8.503906 -31.8125 8.503906 -25.09375 8.503906 -20.683594 C 8.503906 -5.667969 19.421875 0.839844 33.808594 0.839844 Z M 33.808594 0.839844 "/></g></g></g><g fill="#7ed957" fill-opacity="1"><g transform="translate(1293.018589, 436.592429)"><g><path d="M 33.703125 0.839844 C 52.601562 0.839844 66.039062 -6.824219 66.039062 -26.984375 C 66.039062 -45.988281 52.707031 -57.957031 33.703125 -57.957031 C 14.699219 -57.957031 1.261719 -45.988281 1.261719 -26.984375 C 1.261719 -6.824219 14.804688 0.839844 33.703125 0.839844 Z M 33.703125 -17.535156 C 28.558594 -17.535156 24.882812 -21.734375 24.882812 -28.453125 C 24.882812 -34.960938 28.453125 -39.6875 33.703125 -39.6875 C 38.953125 -39.6875 42.523438 -34.960938 42.523438 -28.453125 C 42.523438 -21.734375 38.847656 -17.535156 33.703125 -17.535156 Z M 33.703125 -17.535156 "/></g></g></g><g clip-path="url(#ff3d35af56)"><g clip-path="url(#fb863f4bc8)"><g clip-path="url(#6885fc0b3e)"><path fill="#157900" d="M 39.222656 354.722656 C 44.695312 358.1875 47.078125 364.238281 44.546875 368.238281 C 42.011719 372.234375 35.523438 372.667969 30.054688 369.203125 C 24.582031 365.738281 22.199219 359.6875 24.730469 355.6875 C 27.265625 351.6875 33.753906 351.257812 39.222656 354.722656 Z M 94.371094 366.507812 C 92.828125 367.730469 91.109375 368.609375 89.214844 369.144531 C 87.324219 369.683594 85.398438 369.835938 83.445312 369.605469 C 83.085938 369.5625 82.726562 369.554688 82.367188 369.585938 C 82.007812 369.613281 81.65625 369.675781 81.308594 369.773438 C 80.960938 369.871094 80.625 370.003906 80.304688 370.167969 C 79.984375 370.332031 79.683594 370.527344 79.398438 370.75 C 79.117188 370.972656 78.859375 371.222656 78.625 371.496094 C 78.390625 371.769531 78.1875 372.066406 78.011719 372.382812 C 77.835938 372.695312 77.691406 373.023438 77.578125 373.367188 C 77.46875 373.710938 77.394531 374.0625 77.351562 374.421875 C 77.238281 375.386719 77.03125 376.335938 76.730469 377.261719 C 76.429688 378.191406 76.042969 379.078125 75.570312 379.929688 C 75.09375 380.78125 74.539062 381.578125 73.90625 382.320312 C 73.277344 383.058594 72.578125 383.734375 71.8125 384.335938 C 71.046875 384.941406 70.230469 385.464844 69.363281 385.910156 C 68.496094 386.351562 67.59375 386.707031 66.65625 386.972656 C 65.71875 387.238281 64.765625 387.410156 63.792969 387.488281 C 62.820312 387.566406 61.851562 387.546875 60.882812 387.433594 C 59.917969 387.320312 58.96875 387.113281 58.042969 386.8125 C 57.113281 386.515625 56.226562 386.125 55.375 385.652344 C 54.523438 385.175781 53.726562 384.621094 52.984375 383.992188 C 52.246094 383.359375 51.570312 382.660156 50.96875 381.894531 C 50.363281 381.132812 49.839844 380.316406 49.394531 379.449219 C 48.953125 378.578125 48.597656 377.675781 48.332031 376.738281 C 48.066406 375.800781 47.894531 374.847656 47.816406 373.875 C 47.738281 372.90625 47.757812 371.933594 47.871094 370.96875 C 48.003906 369.824219 48.191406 368.6875 48.4375 367.5625 C 48.683594 366.4375 48.984375 365.324219 49.335938 364.230469 C 49.691406 363.132812 50.097656 362.058594 50.558594 361 C 51.019531 359.945312 51.53125 358.914062 52.09375 357.910156 C 52.652344 356.902344 53.261719 355.925781 53.921875 354.980469 C 54.578125 354.035156 55.28125 353.121094 56.027344 352.246094 C 56.773438 351.367188 57.5625 350.53125 58.390625 349.730469 C 59.222656 348.929688 60.085938 348.175781 60.992188 347.460938 C 61.894531 346.746094 62.832031 346.078125 63.800781 345.453125 C 64.769531 344.832031 65.769531 344.257812 66.792969 343.734375 C 67.820312 343.210938 68.867188 342.738281 69.941406 342.316406 C 71.015625 341.894531 72.105469 341.527344 73.210938 341.214844 C 74.320312 340.902344 75.441406 340.640625 76.574219 340.4375 C 77.710938 340.234375 78.851562 340.085938 80 339.996094 C 81.148438 339.902344 82.296875 339.867188 83.449219 339.890625 C 84.601562 339.910156 85.75 339.988281 86.894531 340.125 C 87.617188 340.207031 88.332031 340.347656 89.039062 340.535156 C 89.742188 340.726562 90.429688 340.96875 91.097656 341.257812 C 91.769531 341.550781 92.410156 341.890625 93.03125 342.277344 C 93.648438 342.664062 94.238281 343.09375 94.792969 343.566406 C 95.347656 344.039062 95.867188 344.550781 96.347656 345.101562 C 96.828125 345.648438 97.261719 346.230469 97.65625 346.847656 C 98.050781 347.460938 98.398438 348.101562 98.699219 348.765625 C 99 349.429688 99.25 350.113281 99.449219 350.816406 C 99.648438 351.519531 99.792969 352.230469 99.886719 352.957031 C 99.980469 353.679688 100.019531 354.40625 100.007812 355.136719 C 99.992188 355.867188 99.925781 356.589844 99.808594 357.308594 C 99.6875 358.03125 99.515625 358.738281 99.289062 359.433594 C 99.066406 360.125 98.789062 360.800781 98.464844 361.453125 C 98.140625 362.109375 97.773438 362.734375 97.355469 363.335938 C 96.9375 363.933594 96.480469 364.5 95.980469 365.03125 C 95.480469 365.5625 94.945312 366.054688 94.371094 366.507812 Z M 48.6875 334.292969 C 53.804688 339.644531 54.785156 347.015625 50.875 350.753906 C 46.964844 354.496094 39.644531 353.191406 34.527344 347.839844 C 29.410156 342.488281 28.429688 335.121094 32.339844 331.378906 C 36.25 327.640625 43.570312 328.945312 48.6875 334.292969 Z M 51.023438 332.449219 C 55.046875 338.664062 61.988281 341.320312 66.535156 338.378906 C 71.074219 335.4375 71.496094 328.015625 67.472656 321.800781 C 63.449219 315.582031 56.503906 312.929688 51.960938 315.871094 C 47.421875 318.808594 47 326.234375 51.023438 332.449219 Z M 73.082031 327.960938 C 75.191406 334.082031 80.527344 337.800781 85.003906 336.257812 C 89.480469 334.71875 91.398438 328.503906 89.292969 322.378906 C 87.183594 316.257812 81.847656 312.539062 77.371094 314.082031 C 72.894531 315.621094 70.976562 321.835938 73.082031 327.960938 Z M 73.082031 327.960938 " fill-opacity="1" fill-rule="nonzero"/></g></g></g><g clip-path="url(#997b64e262)"><g clip-path="url(#db8d1e7b07)"><g clip-path="url(#8b2331d7f4)"><path fill="#7ed957" d="M 40.996094 354.34375 C 46.058594 357.546875 48.261719 363.148438 45.917969 366.84375 C 43.574219 370.542969 37.574219 370.941406 32.515625 367.738281 C 27.453125 364.53125 25.25 358.9375 27.59375 355.238281 C 29.933594 351.539062 35.9375 351.140625 40.996094 354.34375 Z M 92 365.242188 C 90.570312 366.375 88.984375 367.1875 87.230469 367.683594 C 85.480469 368.179688 83.699219 368.324219 81.890625 368.109375 C 81.5625 368.070312 81.230469 368.0625 80.898438 368.089844 C 80.5625 368.117188 80.238281 368.175781 79.917969 368.265625 C 79.59375 368.355469 79.285156 368.476562 78.988281 368.628906 C 78.691406 368.78125 78.414062 368.960938 78.152344 369.167969 C 77.890625 369.375 77.652344 369.605469 77.433594 369.859375 C 77.21875 370.113281 77.03125 370.386719 76.867188 370.675781 C 76.703125 370.96875 76.570312 371.273438 76.46875 371.589844 C 76.367188 371.90625 76.296875 372.230469 76.257812 372.5625 C 76.152344 373.457031 75.960938 374.332031 75.683594 375.191406 C 75.40625 376.046875 75.046875 376.871094 74.609375 377.65625 C 74.167969 378.445312 73.65625 379.179688 73.074219 379.867188 C 72.488281 380.554688 71.84375 381.175781 71.136719 381.734375 C 70.429688 382.292969 69.671875 382.777344 68.871094 383.1875 C 68.070312 383.597656 67.234375 383.925781 66.367188 384.171875 C 65.5 384.417969 64.617188 384.574219 63.71875 384.648438 C 62.820312 384.71875 61.921875 384.703125 61.027344 384.597656 C 60.132812 384.492188 59.257812 384.300781 58.398438 384.023438 C 57.542969 383.746094 56.71875 383.390625 55.933594 382.949219 C 55.144531 382.511719 54.410156 382 53.722656 381.414062 C 53.039062 380.828125 52.414062 380.183594 51.855469 379.476562 C 51.296875 378.769531 50.8125 378.015625 50.402344 377.210938 C 49.992188 376.410156 49.664062 375.574219 49.417969 374.707031 C 49.171875 373.839844 49.015625 372.957031 48.941406 372.058594 C 48.871094 371.160156 48.886719 370.265625 48.992188 369.371094 C 49.117188 368.3125 49.292969 367.261719 49.519531 366.21875 C 49.746094 365.179688 50.023438 364.152344 50.347656 363.136719 C 50.675781 362.125 51.054688 361.128906 51.480469 360.152344 C 51.90625 359.175781 52.378906 358.222656 52.898438 357.292969 C 53.414062 356.359375 53.980469 355.457031 54.585938 354.582031 C 55.195312 353.707031 55.84375 352.867188 56.535156 352.054688 C 57.226562 351.242188 57.957031 350.46875 58.722656 349.730469 C 59.488281 348.988281 60.292969 348.289062 61.128906 347.628906 C 61.964844 346.96875 62.828125 346.351562 63.726562 345.773438 C 64.621094 345.199219 65.546875 344.667969 66.492188 344.183594 C 67.441406 343.699219 68.414062 343.261719 69.40625 342.871094 C 70.394531 342.484375 71.40625 342.144531 72.429688 341.851562 C 73.453125 341.5625 74.492188 341.324219 75.539062 341.132812 C 76.589844 340.945312 77.644531 340.808594 78.707031 340.726562 C 79.769531 340.640625 80.832031 340.609375 81.898438 340.628906 C 82.964844 340.648438 84.023438 340.71875 85.082031 340.84375 C 86.429688 341 87.726562 341.351562 88.972656 341.894531 C 90.214844 342.4375 91.355469 343.148438 92.386719 344.027344 C 93.421875 344.90625 94.304688 345.917969 95.039062 347.0625 C 95.769531 348.203125 96.324219 349.425781 96.691406 350.734375 C 97.0625 352.039062 97.234375 353.371094 97.210938 354.726562 C 97.1875 356.085938 96.964844 357.410156 96.546875 358.699219 C 96.128906 359.992188 95.53125 361.195312 94.757812 362.308594 C 93.984375 363.425781 93.0625 364.402344 92 365.242188 Z M 49.75 335.453125 C 54.480469 340.398438 55.386719 347.214844 51.773438 350.675781 C 48.15625 354.132812 41.386719 352.929688 36.652344 347.980469 C 31.917969 343.03125 31.011719 336.214844 34.628906 332.757812 C 38.246094 329.296875 45.015625 330.503906 49.75 335.453125 Z M 51.90625 333.746094 C 55.628906 339.492188 62.050781 341.949219 66.253906 339.230469 C 70.453125 336.511719 70.839844 329.644531 67.121094 323.898438 C 63.398438 318.148438 56.976562 315.695312 52.777344 318.414062 C 48.578125 321.132812 48.1875 327.996094 51.90625 333.746094 Z M 72.308594 329.59375 C 74.261719 335.257812 79.195312 338.695312 83.335938 337.269531 C 87.472656 335.84375 89.25 330.097656 87.300781 324.433594 C 85.351562 318.769531 80.414062 315.332031 76.277344 316.757812 C 72.136719 318.183594 70.363281 323.929688 72.308594 329.59375 Z M 72.308594 329.59375 " fill-opacity="1" fill-rule="nonzero"/></g></g></g></svg>