<svg xmlns="http://www.w3.org/2000/svg" xmlns:xlink="http://www.w3.org/1999/xlink" width="50" zoomAndPan="magnify" viewBox="0 0 37.5 37.499999" height="50" preserveAspectRatio="xMidYMid meet" version="1.0"><defs><clipPath id="029558789c"><path d="M 1.039062 2 L 35.828125 2 L 35.828125 37 L 1.039062 37 Z M 1.039062 2 " clip-rule="nonzero"/></clipPath><clipPath id="58b792e517"><path d="M 0.519531 1 L 36 1 L 36 37.007812 L 0.519531 37.007812 Z M 0.519531 1 " clip-rule="nonzero"/></clipPath></defs><path fill="#393536" d="M 19.5625 8.578125 L 18.710938 8.578125 L 18.710938 5.773438 L 19.5625 5.773438 L 19.5625 8.578125 " fill-opacity="1" fill-rule="nonzero"/><path fill="#393536" d="M 19.5625 31.726562 L 18.710938 31.726562 L 18.710938 28.921875 L 19.5625 28.921875 L 19.5625 31.726562 " fill-opacity="1" fill-rule="nonzero"/><path fill="#393536" d="M 29.269531 19.175781 L 29.269531 18.324219 L 32.058594 18.324219 L 32.058594 19.175781 L 29.269531 19.175781 " fill-opacity="1" fill-rule="nonzero"/><path fill="#393536" d="M 6.210938 19.175781 L 6.210938 18.324219 L 9.003906 18.324219 L 9.003906 19.175781 L 6.210938 19.175781 " fill-opacity="1" fill-rule="nonzero"/><path fill="#393536" d="M 29.277344 24.199219 L 29.570312 23.589844 L 30.855469 24.21875 L 30.558594 24.828125 L 29.277344 24.199219 " fill-opacity="1" fill-rule="nonzero"/><path fill="#393536" d="M 7.335938 13.433594 L 7.613281 12.863281 L 8.867188 13.476562 L 8.589844 14.050781 L 7.335938 13.433594 " fill-opacity="1" fill-rule="nonzero"/><path fill="#393536" d="M 24.574219 28.980469 L 25.160156 28.636719 L 25.878906 29.878906 L 25.292969 30.21875 L 24.574219 28.980469 " fill-opacity="1" fill-rule="nonzero"/><path fill="#393536" d="M 12.3125 7.777344 L 12.863281 7.457031 L 13.5625 8.667969 L 13.015625 8.988281 L 12.3125 7.777344 " fill-opacity="1" fill-rule="nonzero"/><path fill="#393536" d="M 13.632812 28.988281 L 14.238281 29.292969 L 13.597656 30.574219 L 12.992188 30.269531 L 13.632812 28.988281 " fill-opacity="1" fill-rule="nonzero"/><path fill="#393536" d="M 24.59375 7.082031 L 25.160156 7.367188 L 24.535156 8.617188 L 23.96875 8.332031 L 24.59375 7.082031 " fill-opacity="1" fill-rule="nonzero"/><path fill="#393536" d="M 8.765625 23.90625 L 9.082031 24.507812 L 7.816406 25.175781 L 7.503906 24.574219 L 8.765625 23.90625 " fill-opacity="1" fill-rule="nonzero"/><path fill="#393536" d="M 30.371094 12.480469 L 30.667969 13.042969 L 29.433594 13.695312 L 29.136719 13.132812 L 30.371094 12.480469 " fill-opacity="1" fill-rule="nonzero"/><path fill="#393536" d="M 20.90625 19.175781 C 20.90625 20.160156 20.113281 20.953125 19.136719 20.953125 C 18.15625 20.953125 17.363281 20.160156 17.363281 19.175781 C 17.363281 18.195312 18.15625 17.398438 19.136719 17.398438 C 20.113281 17.398438 20.90625 18.195312 20.90625 19.175781 " fill-opacity="1" fill-rule="nonzero"/><path fill="#393536" d="M 19.226562 19.761719 C 18.910156 19.761719 18.65625 19.480469 18.65625 19.132812 C 18.65625 18.789062 18.910156 18.503906 19.226562 18.503906 L 28.476562 18.503906 C 28.792969 18.503906 29.046875 18.789062 29.046875 19.132812 C 29.046875 19.480469 28.792969 19.761719 28.476562 19.761719 L 19.226562 19.761719 " fill-opacity="1" fill-rule="nonzero"/><path fill="#393536" d="M 19.515625 18.914062 C 19.289062 19.132812 19.03125 19.234375 18.941406 19.140625 C 18.851562 19.050781 18.964844 18.796875 19.1875 18.578125 L 25.84375 12.125 C 26.070312 11.90625 26.324219 11.804688 26.414062 11.898438 C 26.503906 11.988281 26.394531 12.242188 26.167969 12.460938 L 19.515625 18.914062 " fill-opacity="1" fill-rule="nonzero"/><path fill="#393536" d="M 19.570312 18.699219 C 19.746094 18.875 19.691406 19.214844 19.445312 19.460938 C 19.203125 19.707031 18.859375 19.761719 18.6875 19.589844 L 13.535156 14.414062 C 13.359375 14.238281 13.414062 13.898438 13.660156 13.652344 C 13.90625 13.40625 14.246094 13.351562 14.417969 13.527344 L 19.570312 18.699219 " fill-opacity="1" fill-rule="nonzero"/><g clip-path="url(#029558789c)"><path fill="#393536" d="M 20.511719 34.265625 C 11.382812 34.300781 3.863281 28.882812 3.746094 17.917969 C 3.65625 9.769531 11.519531 2.613281 19.507812 2.09375 C 19.152344 2.074219 18.796875 2.058594 18.433594 2.058594 C 8.828125 2.058594 1.042969 9.875 1.042969 19.519531 C 1.042969 29.164062 8.828125 36.980469 18.433594 36.980469 C 28.039062 36.980469 35.824219 29.164062 35.824219 19.519531 C 35.824219 19.15625 35.8125 18.796875 35.789062 18.4375 C 35.273438 26.460938 28.632812 34.238281 20.511719 34.265625 " fill-opacity="1" fill-rule="nonzero"/></g><path fill="#393536" d="M 16.59375 0.0390625 L 20.234375 2.300781 L 16.953125 4.5625 L 17.78125 2.199219 L 16.59375 0.0390625 " fill-opacity="1" fill-rule="nonzero"/><path fill="#5019dd" d="M 19.390625 8.425781 L 18.527344 8.425781 L 18.527344 5.582031 L 19.390625 5.582031 L 19.390625 8.425781 " fill-opacity="1" fill-rule="nonzero"/><path fill="#5019dd" d="M 19.390625 31.917969 L 18.527344 31.917969 L 18.527344 29.074219 L 19.390625 29.074219 L 19.390625 31.917969 " fill-opacity="1" fill-rule="nonzero"/><path fill="#5019dd" d="M 29.285156 19.183594 L 29.285156 18.316406 L 32.128906 18.316406 L 32.128906 19.183594 L 29.285156 19.183594 " fill-opacity="1" fill-rule="nonzero"/><path fill="#5019dd" d="M 5.789062 19.183594 L 5.789062 18.316406 L 8.632812 18.316406 L 8.632812 19.183594 L 5.789062 19.183594 " fill-opacity="1" fill-rule="nonzero"/><path fill="#5019dd" d="M 29.289062 24.28125 L 29.59375 23.660156 L 30.898438 24.300781 L 30.597656 24.917969 L 29.289062 24.28125 " fill-opacity="1" fill-rule="nonzero"/><path fill="#5019dd" d="M 6.933594 13.355469 L 7.21875 12.773438 L 8.496094 13.398438 L 8.210938 13.980469 L 6.933594 13.355469 " fill-opacity="1" fill-rule="nonzero"/><path fill="#5019dd" d="M 24.5 29.128906 L 25.097656 28.785156 L 25.828125 30.042969 L 25.230469 30.390625 L 24.5 29.128906 " fill-opacity="1" fill-rule="nonzero"/><path fill="#5019dd" d="M 12.007812 7.613281 L 12.566406 7.289062 L 13.28125 8.519531 L 12.722656 8.84375 L 12.007812 7.613281 " fill-opacity="1" fill-rule="nonzero"/><path fill="#5019dd" d="M 13.351562 29.140625 L 13.96875 29.449219 L 13.3125 30.75 L 12.699219 30.441406 L 13.351562 29.140625 " fill-opacity="1" fill-rule="nonzero"/><path fill="#5019dd" d="M 24.519531 6.90625 L 25.097656 7.195312 L 24.460938 8.46875 L 23.882812 8.175781 L 24.519531 6.90625 " fill-opacity="1" fill-rule="nonzero"/><path fill="#5019dd" d="M 8.394531 23.980469 L 8.714844 24.589844 L 7.425781 25.269531 L 7.105469 24.660156 L 8.394531 23.980469 " fill-opacity="1" fill-rule="nonzero"/><path fill="#5019dd" d="M 30.410156 12.386719 L 30.707031 12.960938 L 29.449219 13.621094 L 29.148438 13.050781 L 30.410156 12.386719 " fill-opacity="1" fill-rule="nonzero"/><path fill="#5019dd" d="M 20.761719 19.183594 C 20.761719 20.179688 19.953125 20.988281 18.957031 20.988281 C 17.960938 20.988281 17.152344 20.179688 17.152344 19.183594 C 17.152344 18.1875 17.960938 17.378906 18.957031 17.378906 C 19.953125 17.378906 20.761719 18.1875 20.761719 19.183594 " fill-opacity="1" fill-rule="nonzero"/><path fill="#5019dd" d="M 19.050781 19.777344 C 18.730469 19.777344 18.472656 19.492188 18.472656 19.140625 C 18.472656 18.789062 18.730469 18.5 19.050781 18.5 L 28.476562 18.5 C 28.796875 18.5 29.054688 18.789062 29.054688 19.140625 C 29.054688 19.492188 28.796875 19.777344 28.476562 19.777344 L 19.050781 19.777344 " fill-opacity="1" fill-rule="nonzero"/><path fill="#5019dd" d="M 19.34375 18.917969 C 19.113281 19.140625 18.851562 19.242188 18.761719 19.148438 C 18.667969 19.054688 18.78125 18.796875 19.011719 18.574219 L 25.792969 12.027344 C 26.023438 11.804688 26.285156 11.699219 26.375 11.792969 C 26.464844 11.890625 26.355469 12.144531 26.125 12.367188 L 19.34375 18.917969 " fill-opacity="1" fill-rule="nonzero"/><path fill="#5019dd" d="M 19.402344 18.699219 C 19.582031 18.875 19.523438 19.222656 19.273438 19.472656 C 19.027344 19.722656 18.679688 19.777344 18.5 19.601562 L 13.25 14.351562 C 13.070312 14.171875 13.128906 13.824219 13.378906 13.578125 C 13.628906 13.328125 13.972656 13.269531 14.152344 13.449219 L 19.402344 18.699219 " fill-opacity="1" fill-rule="nonzero"/><g clip-path="url(#58b792e517)"><path fill="#5019dd" d="M 20.359375 34.496094 C 11.058594 34.53125 3.394531 29.03125 3.277344 17.90625 C 3.1875 9.632812 11.199219 2.375 19.339844 1.847656 C 18.976562 1.824219 18.613281 1.808594 18.242188 1.808594 C 8.457031 1.808594 0.523438 9.742188 0.523438 19.53125 C 0.523438 29.316406 8.457031 37.25 18.242188 37.25 C 28.03125 37.25 35.964844 29.316406 35.964844 19.53125 C 35.964844 19.160156 35.949219 18.796875 35.925781 18.433594 C 35.398438 26.574219 28.632812 34.46875 20.359375 34.496094 " fill-opacity="1" fill-rule="nonzero"/></g><path fill="#5019dd" d="M 16.371094 -0.242188 L 20.078125 2.058594 L 16.734375 4.351562 L 17.578125 1.953125 L 16.371094 -0.242188 " fill-opacity="1" fill-rule="nonzero"/></svg>