<svg xmlns="http://www.w3.org/2000/svg" xmlns:xlink="http://www.w3.org/1999/xlink" width="50" zoomAndPan="magnify" viewBox="0 0 37.5 37.499999" height="50" preserveAspectRatio="xMidYMid meet" version="1.0"><defs><clipPath id="79c4ca63d8"><path d="M 1 0 L 37.007812 0 L 37.007812 37 L 1 37 Z M 1 0 " clip-rule="nonzero"/></clipPath><clipPath id="355d441e88"><path d="M 1 0 L 37.007812 0 L 37.007812 36.5625 L 1 36.5625 Z M 1 0 " clip-rule="nonzero"/></clipPath><clipPath id="b6659ab534"><path d="M 0.371094 19 L 6 19 L 6 25 L 0.371094 25 Z M 0.371094 19 " clip-rule="nonzero"/></clipPath></defs><g clip-path="url(#79c4ca63d8)"><path fill="#7ed957" d="M 37.917969 18.828125 C 37.917969 19.410156 37.890625 19.996094 37.832031 20.578125 C 37.777344 21.160156 37.691406 21.734375 37.582031 22.308594 C 37.46875 22.882812 37.328125 23.449219 37.160156 24.011719 C 36.996094 24.570312 36.800781 25.121094 36.582031 25.664062 C 36.363281 26.207031 36.117188 26.734375 35.84375 27.253906 C 35.574219 27.773438 35.277344 28.277344 34.957031 28.765625 C 34.640625 29.253906 34.296875 29.726562 33.929688 30.183594 C 33.566406 30.640625 33.179688 31.078125 32.773438 31.496094 C 32.363281 31.917969 31.9375 32.316406 31.492188 32.695312 C 31.046875 33.070312 30.582031 33.425781 30.101562 33.761719 C 29.621094 34.09375 29.125 34.402344 28.617188 34.6875 C 28.105469 34.972656 27.582031 35.234375 27.046875 35.46875 C 26.511719 35.703125 25.964844 35.914062 25.410156 36.097656 C 24.855469 36.277344 24.292969 36.433594 23.722656 36.5625 C 23.152344 36.691406 22.578125 36.789062 21.996094 36.863281 C 21.417969 36.9375 20.835938 36.980469 20.25 36.996094 L 20.25 35.03125 C 28.957031 34.761719 35.949219 27.597656 35.949219 18.828125 C 35.949219 9.890625 28.675781 2.621094 19.738281 2.621094 C 10.972656 2.621094 3.804688 9.617188 3.535156 18.316406 L 1.570312 18.316406 C 1.597656 17.433594 1.683594 16.558594 1.839844 15.6875 C 1.992188 14.820312 2.207031 13.964844 2.484375 13.128906 C 2.761719 12.289062 3.097656 11.476562 3.492188 10.6875 C 3.890625 9.898438 4.339844 9.140625 4.847656 8.417969 C 5.351562 7.695312 5.910156 7.011719 6.515625 6.367188 C 7.121094 5.726562 7.769531 5.128906 8.460938 4.582031 C 9.152344 4.035156 9.882812 3.539062 10.644531 3.097656 C 11.410156 2.65625 12.203125 2.273438 13.023438 1.945312 C 13.84375 1.617188 14.683594 1.355469 15.542969 1.148438 C 16.402344 0.945312 17.273438 0.804688 18.152344 0.726562 C 19.03125 0.652344 19.910156 0.636719 20.792969 0.6875 C 21.675781 0.738281 22.546875 0.855469 23.414062 1.03125 C 24.277344 1.210938 25.125 1.449219 25.953125 1.75 C 26.785156 2.054688 27.585938 2.414062 28.363281 2.832031 C 29.140625 3.25 29.886719 3.722656 30.59375 4.25 C 31.300781 4.777344 31.96875 5.351562 32.59375 5.976562 C 34.304688 7.675781 35.621094 9.640625 36.542969 11.867188 C 37.464844 14.097656 37.925781 16.414062 37.917969 18.828125 Z M 37.917969 18.828125 " fill-opacity="1" fill-rule="nonzero"/></g><path fill="#7ed957" d="M 28.386719 18.828125 C 28.386719 18.683594 28.4375 18.5625 28.539062 18.464844 C 28.636719 18.363281 28.757812 18.3125 28.898438 18.3125 L 31.28125 18.3125 C 31.210938 16.613281 30.777344 15.007812 29.988281 13.5 L 27.925781 14.695312 C 27.804688 14.761719 27.675781 14.777344 27.542969 14.738281 C 27.40625 14.703125 27.304688 14.625 27.234375 14.503906 C 27.164062 14.382812 27.148438 14.253906 27.183594 14.117188 C 27.21875 13.984375 27.296875 13.878906 27.414062 13.808594 L 29.476562 12.613281 C 28.558594 11.183594 27.386719 10.011719 25.957031 9.097656 L 24.761719 11.160156 C 24.691406 11.28125 24.585938 11.359375 24.449219 11.398438 C 24.3125 11.433594 24.183594 11.417969 24.0625 11.347656 C 23.9375 11.277344 23.859375 11.171875 23.820312 11.035156 C 23.785156 10.898438 23.804688 10.769531 23.875 10.644531 L 25.066406 8.585938 C 23.558594 7.796875 21.953125 7.367188 20.253906 7.292969 L 20.253906 9.675781 C 20.253906 9.816406 20.203125 9.9375 20.101562 10.039062 C 20.003906 10.136719 19.882812 10.1875 19.742188 10.1875 C 19.597656 10.1875 19.480469 10.136719 19.378906 10.039062 C 19.277344 9.9375 19.230469 9.816406 19.230469 9.675781 L 19.230469 7.289062 C 17.527344 7.363281 15.921875 7.792969 14.414062 8.585938 L 15.609375 10.648438 C 15.679688 10.769531 15.695312 10.898438 15.660156 11.035156 C 15.621094 11.171875 15.542969 11.277344 15.421875 11.347656 C 15.296875 11.417969 15.167969 11.433594 15.03125 11.398438 C 14.894531 11.359375 14.792969 11.28125 14.71875 11.160156 L 13.527344 9.097656 C 12.097656 10.015625 10.921875 11.1875 10.003906 12.621094 L 12.066406 13.816406 C 12.183594 13.886719 12.261719 13.992188 12.296875 14.125 C 12.332031 14.261719 12.316406 14.390625 12.246094 14.511719 C 12.175781 14.632812 12.074219 14.710938 11.9375 14.746094 C 11.804688 14.785156 11.675781 14.769531 11.554688 14.703125 L 9.488281 13.507812 C 8.703125 15.015625 8.273438 16.617188 8.203125 18.3125 L 10.585938 18.3125 C 10.726562 18.3125 10.847656 18.363281 10.949219 18.464844 C 11.046875 18.5625 11.097656 18.683594 11.097656 18.828125 C 11.097656 18.96875 11.046875 19.089844 10.949219 19.1875 C 10.847656 19.289062 10.726562 19.339844 10.585938 19.339844 L 8.203125 19.339844 C 8.273438 21.039062 8.707031 22.644531 9.492188 24.152344 L 11.558594 22.957031 C 11.679688 22.882812 11.808594 22.867188 11.949219 22.902344 C 12.089844 22.9375 12.191406 23.015625 12.265625 23.140625 C 12.335938 23.265625 12.351562 23.394531 12.316406 23.535156 C 12.277344 23.671875 12.195312 23.777344 12.070312 23.84375 L 10.007812 25.039062 C 10.925781 26.472656 12.101562 27.648438 13.53125 28.566406 L 14.71875 26.507812 C 14.789062 26.386719 14.890625 26.308594 15.027344 26.269531 C 15.164062 26.234375 15.292969 26.25 15.417969 26.320312 C 15.539062 26.390625 15.621094 26.496094 15.65625 26.632812 C 15.691406 26.769531 15.675781 26.898438 15.605469 27.019531 L 14.410156 29.082031 C 15.917969 29.871094 17.523438 30.300781 19.226562 30.375 L 19.226562 27.988281 C 19.226562 27.847656 19.277344 27.726562 19.375 27.625 C 19.476562 27.527344 19.597656 27.476562 19.738281 27.476562 C 19.878906 27.476562 20 27.527344 20.101562 27.625 C 20.199219 27.726562 20.25 27.847656 20.25 27.988281 L 20.25 30.371094 C 21.949219 30.296875 23.554688 29.867188 25.0625 29.082031 L 23.875 27.019531 C 23.804688 26.898438 23.789062 26.769531 23.824219 26.632812 C 23.859375 26.496094 23.941406 26.390625 24.0625 26.320312 C 24.1875 26.25 24.316406 26.230469 24.453125 26.269531 C 24.589844 26.304688 24.695312 26.386719 24.765625 26.507812 L 25.957031 28.570312 C 27.390625 27.652344 28.566406 26.476562 29.480469 25.046875 L 27.417969 23.851562 C 27.300781 23.78125 27.222656 23.675781 27.1875 23.542969 C 27.152344 23.40625 27.171875 23.277344 27.238281 23.15625 C 27.308594 23.035156 27.410156 22.957031 27.546875 22.921875 C 27.679688 22.882812 27.808594 22.898438 27.929688 22.964844 L 29.996094 24.160156 C 30.78125 22.648438 31.210938 21.042969 31.28125 19.339844 L 28.898438 19.339844 C 28.757812 19.339844 28.636719 19.289062 28.539062 19.1875 C 28.4375 19.089844 28.386719 18.96875 28.386719 18.828125 Z M 22.03125 14.816406 C 21.941406 14.882812 21.839844 14.914062 21.726562 14.914062 C 21.554688 14.914062 21.417969 14.847656 21.3125 14.707031 L 20.253906 13.277344 L 20.253906 18.828125 C 20.253906 18.96875 20.203125 19.089844 20.101562 19.1875 C 20.003906 19.289062 19.882812 19.339844 19.742188 19.339844 L 14.933594 19.339844 L 16.371094 20.398438 C 16.570312 20.546875 16.632812 20.738281 16.554688 20.972656 C 16.476562 21.207031 16.316406 21.324219 16.066406 21.324219 C 15.953125 21.324219 15.851562 21.289062 15.761719 21.222656 L 13.09375 19.253906 L 13.074219 19.242188 C 13.074219 19.238281 13.070312 19.238281 13.070312 19.234375 C 13.058594 19.226562 13.046875 19.21875 13.039062 19.207031 C 13.019531 19.195312 13.003906 19.175781 12.988281 19.160156 C 12.976562 19.144531 12.964844 19.128906 12.957031 19.117188 C 12.953125 19.113281 12.949219 19.109375 12.949219 19.105469 C 12.9375 19.089844 12.929688 19.078125 12.921875 19.0625 C 12.917969 19.050781 12.914062 19.039062 12.910156 19.027344 C 12.902344 19.011719 12.894531 18.996094 12.890625 18.980469 C 12.886719 18.964844 12.882812 18.949219 12.878906 18.933594 C 12.875 18.921875 12.871094 18.90625 12.871094 18.894531 C 12.871094 18.890625 12.871094 18.882812 12.871094 18.882812 C 12.867188 18.847656 12.867188 18.816406 12.871094 18.785156 C 12.871094 18.785156 12.871094 18.777344 12.871094 18.773438 C 12.871094 18.757812 12.875 18.746094 12.878906 18.730469 C 12.882812 18.714844 12.886719 18.699219 12.890625 18.683594 C 12.894531 18.667969 12.902344 18.652344 12.910156 18.636719 C 12.914062 18.625 12.917969 18.613281 12.921875 18.601562 C 12.929688 18.589844 12.9375 18.574219 12.949219 18.5625 C 12.949219 18.558594 12.953125 18.554688 12.957031 18.550781 C 12.964844 18.535156 12.976562 18.519531 12.988281 18.507812 C 13.003906 18.488281 13.019531 18.472656 13.039062 18.457031 C 13.046875 18.445312 13.058594 18.4375 13.070312 18.429688 C 13.070312 18.425781 13.074219 18.425781 13.074219 18.421875 L 13.09375 18.410156 L 15.761719 16.4375 C 15.875 16.351562 16.003906 16.320312 16.144531 16.339844 C 16.28125 16.363281 16.394531 16.429688 16.480469 16.542969 C 16.5625 16.65625 16.59375 16.785156 16.574219 16.925781 C 16.554688 17.0625 16.484375 17.175781 16.371094 17.261719 L 14.933594 18.3125 L 19.230469 18.3125 L 19.230469 13.277344 L 18.167969 14.714844 C 18.082031 14.824219 17.96875 14.890625 17.832031 14.910156 C 17.695312 14.929688 17.566406 14.898438 17.457031 14.816406 C 17.34375 14.734375 17.277344 14.621094 17.253906 14.484375 C 17.234375 14.347656 17.261719 14.21875 17.34375 14.105469 L 19.316406 11.4375 L 19.328125 11.417969 L 19.332031 11.414062 C 19.34375 11.398438 19.355469 11.386719 19.367188 11.375 C 19.363281 11.375 19.363281 11.371094 19.367188 11.371094 C 19.394531 11.34375 19.421875 11.316406 19.457031 11.296875 C 19.472656 11.285156 19.488281 11.273438 19.503906 11.265625 C 19.523438 11.257812 19.542969 11.25 19.5625 11.242188 C 19.570312 11.238281 19.578125 11.234375 19.589844 11.234375 C 19.597656 11.230469 19.609375 11.226562 19.617188 11.226562 C 19.625 11.222656 19.632812 11.222656 19.640625 11.21875 L 19.675781 11.214844 L 19.796875 11.214844 L 19.835938 11.21875 C 19.851562 11.222656 19.871094 11.226562 19.886719 11.234375 C 19.894531 11.234375 19.902344 11.238281 19.910156 11.242188 L 19.941406 11.253906 L 19.976562 11.269531 C 19.992188 11.277344 20.007812 11.289062 20.023438 11.296875 C 20.039062 11.308594 20.054688 11.320312 20.066406 11.332031 C 20.078125 11.34375 20.09375 11.351562 20.105469 11.367188 C 20.109375 11.371094 20.117188 11.378906 20.125 11.386719 C 20.128906 11.394531 20.132812 11.398438 20.136719 11.40625 C 20.144531 11.410156 20.144531 11.414062 20.148438 11.417969 L 22.132812 14.105469 C 22.214844 14.21875 22.246094 14.34375 22.226562 14.480469 C 22.207031 14.621094 22.140625 14.730469 22.03125 14.816406 Z M 22.03125 14.816406 " fill-opacity="1" fill-rule="nonzero"/><path fill="#7ed957" d="M 5.097656 19.34375 L 2.546875 24.417969 L -0.00390625 19.34375 Z M 5.097656 19.34375 " fill-opacity="1" fill-rule="nonzero"/><g clip-path="url(#355d441e88)"><path fill="#5019dd" d="M 37.375 18.652344 C 37.375 19.222656 37.347656 19.792969 37.292969 20.359375 C 37.238281 20.925781 37.15625 21.492188 37.046875 22.050781 C 36.9375 22.609375 36.800781 23.164062 36.636719 23.710938 C 36.472656 24.257812 36.285156 24.796875 36.070312 25.324219 C 35.855469 25.851562 35.617188 26.371094 35.351562 26.875 C 35.085938 27.382812 34.800781 27.875 34.488281 28.351562 C 34.175781 28.828125 33.839844 29.289062 33.484375 29.734375 C 33.128906 30.179688 32.75 30.609375 32.351562 31.015625 C 31.953125 31.425781 31.539062 31.816406 31.101562 32.183594 C 30.667969 32.554688 30.214844 32.902344 29.746094 33.226562 C 29.277344 33.550781 28.792969 33.851562 28.296875 34.132812 C 27.796875 34.410156 27.289062 34.664062 26.765625 34.894531 C 26.242188 35.125 25.710938 35.328125 25.167969 35.503906 C 24.628906 35.683594 24.078125 35.835938 23.519531 35.960938 C 22.964844 36.085938 22.402344 36.183594 21.835938 36.253906 C 21.269531 36.324219 20.703125 36.367188 20.132812 36.382812 L 20.132812 34.46875 C 28.628906 34.203125 35.453125 27.210938 35.453125 18.65625 C 35.453125 9.929688 28.355469 2.835938 19.632812 2.835938 C 11.078125 2.835938 4.085938 9.664062 3.820312 18.15625 L 1.902344 18.15625 C 1.925781 17.292969 2.015625 16.4375 2.164062 15.589844 C 2.3125 14.742188 2.523438 13.90625 2.792969 13.089844 C 3.0625 12.273438 3.394531 11.476562 3.777344 10.707031 C 4.164062 9.9375 4.605469 9.199219 5.101562 8.492188 C 5.59375 7.785156 6.136719 7.121094 6.726562 6.492188 C 7.316406 5.867188 7.953125 5.285156 8.628906 4.75 C 9.304688 4.214844 10.015625 3.734375 10.761719 3.300781 C 11.507812 2.871094 12.28125 2.496094 13.082031 2.175781 C 13.882812 1.859375 14.699219 1.597656 15.539062 1.398438 C 16.378906 1.203125 17.226562 1.0625 18.085938 0.988281 C 18.941406 0.914062 19.800781 0.898438 20.660156 0.949219 C 21.523438 1 22.375 1.113281 23.21875 1.285156 C 24.0625 1.460938 24.890625 1.691406 25.699219 1.988281 C 26.507812 2.28125 27.292969 2.632812 28.050781 3.042969 C 28.8125 3.449219 29.535156 3.914062 30.226562 4.425781 C 30.917969 4.941406 31.570312 5.503906 32.179688 6.113281 C 33.847656 7.769531 35.132812 9.6875 36.03125 11.859375 C 36.933594 14.035156 37.382812 16.296875 37.375 18.652344 Z M 37.375 18.652344 " fill-opacity="1" fill-rule="nonzero"/></g><path fill="#5019dd" d="M 28.074219 18.652344 C 28.074219 18.511719 28.121094 18.394531 28.21875 18.296875 C 28.316406 18.199219 28.433594 18.152344 28.574219 18.152344 L 30.898438 18.152344 C 30.828125 16.492188 30.40625 14.925781 29.636719 13.453125 L 27.625 14.617188 C 27.503906 14.683594 27.378906 14.699219 27.25 14.664062 C 27.117188 14.625 27.019531 14.550781 26.949219 14.429688 C 26.882812 14.3125 26.863281 14.1875 26.898438 14.058594 C 26.933594 13.925781 27.007812 13.824219 27.125 13.753906 L 29.136719 12.585938 C 28.242188 11.191406 27.097656 10.050781 25.703125 9.15625 L 24.535156 11.167969 C 24.464844 11.289062 24.363281 11.367188 24.230469 11.402344 C 24.097656 11.4375 23.972656 11.421875 23.851562 11.351562 C 23.730469 11.28125 23.652344 11.179688 23.617188 11.046875 C 23.582031 10.914062 23.597656 10.789062 23.667969 10.667969 L 24.832031 8.65625 C 23.359375 7.886719 21.796875 7.464844 20.136719 7.394531 L 20.136719 9.722656 C 20.136719 9.859375 20.085938 9.976562 19.988281 10.074219 C 19.890625 10.171875 19.773438 10.222656 19.636719 10.222656 C 19.496094 10.222656 19.378906 10.171875 19.28125 10.074219 C 19.183594 9.976562 19.136719 9.859375 19.136719 9.722656 L 19.136719 7.390625 C 17.476562 7.464844 15.910156 7.886719 14.4375 8.65625 L 15.601562 10.667969 C 15.671875 10.789062 15.6875 10.914062 15.652344 11.046875 C 15.617188 11.183594 15.539062 11.28125 15.417969 11.351562 C 15.300781 11.421875 15.171875 11.4375 15.039062 11.402344 C 14.90625 11.367188 14.804688 11.289062 14.734375 11.167969 L 13.570312 9.15625 C 12.175781 10.050781 11.027344 11.199219 10.132812 12.59375 L 12.144531 13.761719 C 12.261719 13.832031 12.335938 13.933594 12.371094 14.0625 C 12.40625 14.195312 12.386719 14.320312 12.320312 14.4375 C 12.253906 14.558594 12.152344 14.632812 12.019531 14.671875 C 11.890625 14.707031 11.765625 14.691406 11.644531 14.625 L 9.632812 13.460938 C 8.863281 14.929688 8.445312 16.496094 8.375 18.152344 L 10.703125 18.152344 C 10.839844 18.152344 10.957031 18.199219 11.054688 18.296875 C 11.152344 18.394531 11.203125 18.511719 11.203125 18.652344 C 11.203125 18.789062 11.152344 18.90625 11.054688 19.003906 C 10.957031 19.101562 10.839844 19.152344 10.703125 19.152344 L 8.375 19.152344 C 8.445312 20.8125 8.867188 22.378906 9.632812 23.851562 L 11.648438 22.683594 C 11.769531 22.613281 11.894531 22.59375 12.03125 22.628906 C 12.167969 22.664062 12.269531 22.742188 12.339844 22.863281 C 12.410156 22.984375 12.425781 23.109375 12.386719 23.246094 C 12.351562 23.378906 12.269531 23.480469 12.148438 23.550781 L 10.136719 24.714844 C 11.03125 26.113281 12.179688 27.257812 13.574219 28.15625 L 14.734375 26.148438 C 14.800781 26.027344 14.902344 25.953125 15.035156 25.914062 C 15.171875 25.878906 15.296875 25.898438 15.414062 25.964844 C 15.535156 26.035156 15.613281 26.136719 15.648438 26.269531 C 15.683594 26.402344 15.667969 26.527344 15.601562 26.648438 L 14.433594 28.660156 C 15.90625 29.429688 17.472656 29.851562 19.132812 29.921875 L 19.132812 27.59375 C 19.132812 27.453125 19.183594 27.335938 19.28125 27.238281 C 19.378906 27.140625 19.496094 27.09375 19.632812 27.09375 C 19.769531 27.09375 19.890625 27.140625 19.988281 27.238281 C 20.085938 27.335938 20.132812 27.453125 20.132812 27.59375 L 20.132812 29.917969 C 21.792969 29.847656 23.359375 29.425781 24.832031 28.65625 L 23.671875 26.648438 C 23.601562 26.527344 23.585938 26.402344 23.621094 26.269531 C 23.65625 26.132812 23.734375 26.035156 23.855469 25.964844 C 23.972656 25.894531 24.101562 25.878906 24.234375 25.914062 C 24.367188 25.949219 24.46875 26.027344 24.539062 26.148438 L 25.703125 28.160156 C 27.101562 27.265625 28.246094 26.117188 29.140625 24.722656 L 27.128906 23.554688 C 27.011719 23.484375 26.9375 23.382812 26.902344 23.253906 C 26.867188 23.121094 26.886719 22.996094 26.953125 22.878906 C 27.023438 22.761719 27.121094 22.683594 27.253906 22.644531 C 27.382812 22.609375 27.507812 22.625 27.628906 22.691406 L 29.640625 23.855469 C 30.410156 22.382812 30.832031 20.8125 30.898438 19.152344 L 28.574219 19.152344 C 28.433594 19.152344 28.316406 19.101562 28.21875 19.003906 C 28.121094 18.90625 28.074219 18.789062 28.074219 18.652344 Z M 21.871094 14.734375 C 21.78125 14.800781 21.683594 14.835938 21.574219 14.835938 C 21.40625 14.835938 21.269531 14.765625 21.171875 14.632812 L 20.136719 13.238281 L 20.136719 18.652344 C 20.136719 18.789062 20.085938 18.90625 19.988281 19.003906 C 19.890625 19.101562 19.773438 19.152344 19.636719 19.152344 L 14.945312 19.152344 L 16.347656 20.1875 C 16.542969 20.328125 16.601562 20.515625 16.527344 20.746094 C 16.449219 20.976562 16.292969 21.089844 16.050781 21.089844 C 15.941406 21.089844 15.839844 21.054688 15.753906 20.992188 L 13.148438 19.066406 L 13.128906 19.054688 C 13.128906 19.054688 13.125 19.054688 13.125 19.050781 C 13.113281 19.042969 13.101562 19.035156 13.09375 19.023438 C 13.074219 19.011719 13.058594 18.992188 13.042969 18.976562 C 13.035156 18.960938 13.023438 18.949219 13.015625 18.933594 C 13.011719 18.929688 13.007812 18.925781 13.007812 18.921875 C 12.996094 18.910156 12.988281 18.894531 12.980469 18.882812 C 12.976562 18.871094 12.972656 18.859375 12.96875 18.847656 C 12.960938 18.832031 12.957031 18.820312 12.949219 18.804688 C 12.945312 18.789062 12.941406 18.773438 12.9375 18.757812 C 12.933594 18.742188 12.933594 18.730469 12.929688 18.714844 C 12.929688 18.710938 12.929688 18.707031 12.929688 18.703125 C 12.929688 18.671875 12.929688 18.640625 12.929688 18.609375 C 12.929688 18.609375 12.929688 18.601562 12.929688 18.597656 C 12.933594 18.585938 12.933594 18.570312 12.9375 18.558594 C 12.941406 18.542969 12.945312 18.527344 12.949219 18.511719 C 12.957031 18.496094 12.960938 18.480469 12.96875 18.464844 C 12.972656 18.453125 12.976562 18.441406 12.980469 18.433594 C 12.988281 18.417969 12.996094 18.40625 13.007812 18.390625 C 13.007812 18.386719 13.011719 18.382812 13.015625 18.378906 C 13.023438 18.367188 13.035156 18.351562 13.042969 18.339844 C 13.058594 18.320312 13.074219 18.304688 13.09375 18.289062 C 13.101562 18.28125 13.113281 18.273438 13.125 18.265625 C 13.125 18.261719 13.128906 18.257812 13.128906 18.257812 L 13.148438 18.246094 L 15.753906 16.320312 C 15.863281 16.238281 15.988281 16.207031 16.125 16.226562 C 16.261719 16.246094 16.371094 16.3125 16.453125 16.421875 C 16.535156 16.535156 16.566406 16.660156 16.542969 16.792969 C 16.523438 16.929688 16.457031 17.039062 16.347656 17.121094 L 14.945312 18.152344 L 19.136719 18.152344 L 19.136719 13.238281 L 18.097656 14.640625 C 18.015625 14.746094 17.90625 14.8125 17.773438 14.828125 C 17.636719 14.847656 17.515625 14.816406 17.40625 14.738281 C 17.296875 14.65625 17.230469 14.546875 17.207031 14.414062 C 17.1875 14.277344 17.214844 14.15625 17.296875 14.042969 L 19.222656 11.4375 L 19.234375 11.421875 L 19.238281 11.417969 C 19.246094 11.402344 19.257812 11.390625 19.269531 11.378906 C 19.269531 11.378906 19.269531 11.375 19.269531 11.375 C 19.296875 11.347656 19.324219 11.324219 19.355469 11.300781 C 19.371094 11.289062 19.386719 11.28125 19.40625 11.273438 C 19.421875 11.265625 19.441406 11.257812 19.460938 11.25 C 19.46875 11.246094 19.476562 11.242188 19.488281 11.242188 C 19.496094 11.238281 19.507812 11.234375 19.515625 11.234375 C 19.523438 11.230469 19.53125 11.230469 19.539062 11.230469 L 19.574219 11.222656 L 19.691406 11.222656 L 19.726562 11.230469 C 19.742188 11.230469 19.761719 11.234375 19.777344 11.242188 C 19.785156 11.242188 19.792969 11.246094 19.800781 11.25 L 19.832031 11.261719 L 19.863281 11.277344 C 19.882812 11.285156 19.894531 11.292969 19.910156 11.304688 C 19.925781 11.3125 19.941406 11.324219 19.953125 11.335938 C 19.964844 11.347656 19.976562 11.359375 19.988281 11.371094 C 19.996094 11.375 20.003906 11.382812 20.007812 11.390625 C 20.015625 11.398438 20.019531 11.402344 20.023438 11.410156 C 20.027344 11.414062 20.03125 11.417969 20.035156 11.421875 L 21.972656 14.042969 C 22.050781 14.15625 22.082031 14.277344 22.0625 14.410156 C 22.042969 14.546875 21.976562 14.652344 21.871094 14.734375 Z M 21.871094 14.734375 " fill-opacity="1" fill-rule="nonzero"/><g clip-path="url(#b6659ab534)"><path fill="#5019dd" d="M 5.34375 19.15625 L 2.855469 24.109375 L 0.367188 19.15625 Z M 5.34375 19.15625 " fill-opacity="1" fill-rule="nonzero"/></g></svg>