<svg xmlns="http://www.w3.org/2000/svg" xmlns:xlink="http://www.w3.org/1999/xlink" width="1920" zoomAndPan="magnify" viewBox="0 0 1440 809.999993" height="1080" preserveAspectRatio="xMidYMid meet" version="1.0"><defs><g/><clipPath id="b69dad086a"><path d="M 1320 323 L 1398 323 L 1398 391 L 1320 391 Z M 1320 323 " clip-rule="nonzero"/></clipPath><clipPath id="94ba0b109d"><path d="M 1318.621094 323.796875 L 1398.113281 322.714844 L 1399.042969 390.957031 L 1319.550781 392.042969 Z M 1318.621094 323.796875 " clip-rule="nonzero"/></clipPath><clipPath id="5328c62310"><path d="M 1318.621094 323.796875 L 1398.113281 322.714844 L 1399.042969 390.957031 L 1319.550781 392.042969 Z M 1318.621094 323.796875 " clip-rule="nonzero"/></clipPath><clipPath id="11f2f78ae0"><path d="M 1323 326 L 1395 326 L 1395 388 L 1323 388 Z M 1323 326 " clip-rule="nonzero"/></clipPath><clipPath id="5c0122bdd1"><path d="M 1321.660156 326.324219 L 1395.152344 325.324219 L 1396.011719 388.316406 L 1322.519531 389.320312 Z M 1321.660156 326.324219 " clip-rule="nonzero"/></clipPath><clipPath id="a8cf76c471"><path d="M 1321.660156 326.324219 L 1395.152344 325.324219 L 1396.011719 388.316406 L 1322.519531 389.320312 Z M 1321.660156 326.324219 " clip-rule="nonzero"/></clipPath><clipPath id="58be224997"><path d="M 1 317 L 78 317 L 78 392 L 1 392 Z M 1 317 " clip-rule="nonzero"/></clipPath><clipPath id="d864b8cfd2"><path d="M -12.351562 351.46875 L 50.019531 302.171875 L 92.339844 355.71875 L 29.972656 405.015625 Z M -12.351562 351.46875 " clip-rule="nonzero"/></clipPath><clipPath id="fcb879048f"><path d="M -12.351562 351.46875 L 50.019531 302.171875 L 92.339844 355.71875 L 29.972656 405.015625 Z M -12.351562 351.46875 " clip-rule="nonzero"/></clipPath><clipPath id="e900abc9fb"><path d="M 4 320 L 75 320 L 75 389 L 4 389 Z M 4 320 " clip-rule="nonzero"/></clipPath><clipPath id="e03d2821fb"><path d="M -8.398438 351.625 L 49.261719 306.046875 L 88.328125 355.472656 L 30.664062 401.050781 Z M -8.398438 351.625 " clip-rule="nonzero"/></clipPath><clipPath id="6896c4dd9e"><path d="M -8.398438 351.625 L 49.261719 306.046875 L 88.328125 355.472656 L 30.664062 401.050781 Z M -8.398438 351.625 " clip-rule="nonzero"/></clipPath></defs><g clip-path="url(#b69dad086a)"><g clip-path="url(#94ba0b109d)"><g clip-path="url(#5328c62310)"><path fill="#7ed957" d="M 1337.285156 347.03125 C 1339.511719 353.113281 1337.714844 359.363281 1333.269531 360.992188 C 1328.824219 362.617188 1323.414062 359.007812 1321.1875 352.925781 C 1318.960938 346.84375 1320.761719 340.59375 1325.207031 338.96875 C 1329.648438 337.339844 1335.058594 340.949219 1337.285156 347.03125 Z M 1373.828125 389.980469 C 1371.863281 390.011719 1369.964844 389.660156 1368.132812 388.933594 C 1366.304688 388.203125 1364.6875 387.152344 1363.277344 385.777344 C 1363.019531 385.527344 1362.738281 385.300781 1362.4375 385.105469 C 1362.132812 384.910156 1361.816406 384.746094 1361.480469 384.613281 C 1361.144531 384.476562 1360.800781 384.378906 1360.445312 384.3125 C 1360.089844 384.246094 1359.734375 384.21875 1359.375 384.222656 C 1359.011719 384.226562 1358.65625 384.265625 1358.304688 384.34375 C 1357.949219 384.417969 1357.609375 384.527344 1357.277344 384.667969 C 1356.945312 384.8125 1356.632812 384.984375 1356.335938 385.1875 C 1356.039062 385.394531 1355.765625 385.625 1355.511719 385.882812 C 1354.832031 386.582031 1354.089844 387.207031 1353.289062 387.761719 C 1352.484375 388.3125 1351.636719 388.78125 1350.742188 389.167969 C 1349.847656 389.550781 1348.921875 389.84375 1347.96875 390.046875 C 1347.015625 390.25 1346.050781 390.359375 1345.078125 390.371094 C 1344.105469 390.386719 1343.136719 390.304688 1342.179688 390.128906 C 1341.222656 389.949219 1340.289062 389.679688 1339.382812 389.320312 C 1338.480469 388.960938 1337.617188 388.515625 1336.800781 387.984375 C 1335.980469 387.453125 1335.222656 386.847656 1334.527344 386.167969 C 1333.828125 385.488281 1333.203125 384.75 1332.648438 383.945312 C 1332.097656 383.140625 1331.628906 382.292969 1331.242188 381.398438 C 1330.859375 380.503906 1330.566406 379.578125 1330.363281 378.625 C 1330.160156 377.671875 1330.050781 376.710938 1330.035156 375.734375 C 1330.023438 374.761719 1330.105469 373.792969 1330.28125 372.835938 C 1330.460938 371.878906 1330.730469 370.945312 1331.089844 370.039062 C 1331.449219 369.136719 1331.894531 368.273438 1332.425781 367.457031 C 1332.957031 366.640625 1333.5625 365.878906 1334.242188 365.183594 C 1335.042969 364.355469 1335.886719 363.570312 1336.765625 362.828125 C 1337.648438 362.085938 1338.5625 361.386719 1339.511719 360.734375 C 1340.460938 360.082031 1341.4375 359.476562 1342.445312 358.917969 C 1343.453125 358.363281 1344.488281 357.855469 1345.546875 357.398438 C 1346.605469 356.945312 1347.683594 356.542969 1348.78125 356.191406 C 1349.878906 355.84375 1350.988281 355.546875 1352.117188 355.308594 C 1353.242188 355.066406 1354.378906 354.882812 1355.523438 354.753906 C 1356.667969 354.625 1357.816406 354.554688 1358.96875 354.539062 C 1360.121094 354.523438 1361.269531 354.5625 1362.417969 354.660156 C 1363.566406 354.757812 1364.707031 354.910156 1365.839844 355.121094 C 1366.972656 355.332031 1368.09375 355.59375 1369.199219 355.914062 C 1370.304688 356.234375 1371.394531 356.605469 1372.464844 357.035156 C 1373.535156 357.460938 1374.582031 357.9375 1375.605469 358.46875 C 1376.628906 358.996094 1377.621094 359.574219 1378.589844 360.203125 C 1379.554688 360.828125 1380.488281 361.503906 1381.390625 362.222656 C 1382.289062 362.941406 1383.152344 363.703125 1383.976562 364.503906 C 1384.5 365.015625 1384.984375 365.558594 1385.425781 366.140625 C 1385.871094 366.71875 1386.265625 367.328125 1386.621094 367.96875 C 1386.972656 368.605469 1387.277344 369.269531 1387.53125 369.953125 C 1387.785156 370.636719 1387.992188 371.332031 1388.144531 372.046875 C 1388.296875 372.761719 1388.394531 373.484375 1388.441406 374.210938 C 1388.484375 374.941406 1388.476562 375.667969 1388.417969 376.394531 C 1388.355469 377.121094 1388.238281 377.839844 1388.070312 378.550781 C 1387.90625 379.261719 1387.6875 379.957031 1387.414062 380.632812 C 1387.144531 381.3125 1386.828125 381.964844 1386.460938 382.597656 C 1386.09375 383.226562 1385.683594 383.828125 1385.226562 384.398438 C 1384.773438 384.96875 1384.277344 385.503906 1383.742188 386 C 1383.210938 386.5 1382.640625 386.953125 1382.039062 387.367188 C 1381.4375 387.78125 1380.8125 388.148438 1380.15625 388.46875 C 1379.5 388.789062 1378.824219 389.0625 1378.128906 389.285156 C 1377.433594 389.503906 1376.726562 389.671875 1376.003906 389.789062 C 1375.285156 389.90625 1374.558594 389.972656 1373.828125 389.980469 Z M 1357.238281 336.601562 C 1358.035156 343.960938 1354.320312 350.402344 1348.941406 350.988281 C 1343.5625 351.570312 1338.550781 346.074219 1337.753906 338.710938 C 1336.957031 331.351562 1340.667969 324.914062 1346.050781 324.328125 C 1351.429688 323.746094 1356.4375 329.242188 1357.238281 336.601562 Z M 1360.210938 336.5625 C 1359.613281 343.941406 1363.5 350.277344 1368.898438 350.714844 C 1374.289062 351.152344 1379.144531 345.523438 1379.742188 338.140625 C 1380.339844 330.761719 1376.453125 324.425781 1371.058594 323.988281 C 1365.667969 323.554688 1360.808594 329.179688 1360.210938 336.5625 Z M 1380.4375 346.445312 C 1378.378906 352.585938 1380.347656 358.785156 1384.835938 360.289062 C 1389.320312 361.792969 1394.628906 358.039062 1396.691406 351.898438 C 1398.75 345.757812 1396.785156 339.558594 1392.296875 338.054688 C 1387.808594 336.546875 1382.5 340.304688 1380.4375 346.445312 Z M 1380.4375 346.445312 " fill-opacity="1" fill-rule="nonzero"/></g></g></g><g clip-path="url(#11f2f78ae0)"><g clip-path="url(#5c0122bdd1)"><g clip-path="url(#a8cf76c471)"><path fill="#5019dd" d="M 1338.921875 347.8125 C 1340.980469 353.433594 1339.316406 359.214844 1335.207031 360.71875 C 1331.097656 362.226562 1326.09375 358.886719 1324.035156 353.261719 C 1321.976562 347.636719 1323.640625 341.855469 1327.75 340.351562 C 1331.859375 338.847656 1336.863281 342.1875 1338.921875 347.8125 Z M 1372.71875 387.53125 C 1370.898438 387.558594 1369.144531 387.234375 1367.453125 386.5625 C 1365.761719 385.886719 1364.265625 384.914062 1362.960938 383.644531 C 1362.722656 383.410156 1362.460938 383.203125 1362.183594 383.023438 C 1361.902344 382.839844 1361.609375 382.6875 1361.296875 382.566406 C 1360.988281 382.441406 1360.671875 382.347656 1360.34375 382.289062 C 1360.015625 382.226562 1359.683594 382.199219 1359.351562 382.203125 C 1359.015625 382.210938 1358.6875 382.246094 1358.359375 382.316406 C 1358.035156 382.386719 1357.71875 382.484375 1357.410156 382.617188 C 1357.105469 382.75 1356.816406 382.910156 1356.539062 383.097656 C 1356.265625 383.289062 1356.011719 383.503906 1355.78125 383.742188 C 1355.152344 384.386719 1354.464844 384.964844 1353.722656 385.476562 C 1352.980469 385.988281 1352.195312 386.421875 1351.367188 386.777344 C 1350.539062 387.132812 1349.683594 387.40625 1348.804688 387.59375 C 1347.921875 387.78125 1347.03125 387.882812 1346.128906 387.894531 C 1345.226562 387.90625 1344.335938 387.828125 1343.449219 387.664062 C 1342.5625 387.503906 1341.699219 387.253906 1340.863281 386.921875 C 1340.027344 386.585938 1339.230469 386.175781 1338.472656 385.683594 C 1337.71875 385.195312 1337.015625 384.632812 1336.371094 384.003906 C 1335.722656 383.375 1335.144531 382.691406 1334.636719 381.949219 C 1334.125 381.207031 1333.691406 380.421875 1333.335938 379.59375 C 1332.980469 378.765625 1332.707031 377.910156 1332.519531 377.027344 C 1332.332031 376.148438 1332.230469 375.257812 1332.21875 374.355469 C 1332.207031 373.453125 1332.28125 372.558594 1332.445312 371.675781 C 1332.609375 370.789062 1332.859375 369.925781 1333.191406 369.089844 C 1333.527344 368.25 1333.9375 367.457031 1334.429688 366.699219 C 1334.917969 365.941406 1335.476562 365.242188 1336.105469 364.597656 C 1336.847656 363.832031 1337.628906 363.105469 1338.441406 362.417969 C 1339.257812 361.730469 1340.101562 361.085938 1340.980469 360.480469 C 1341.855469 359.878906 1342.761719 359.320312 1343.695312 358.804688 C 1344.628906 358.289062 1345.582031 357.820312 1346.5625 357.398438 C 1347.539062 356.976562 1348.539062 356.605469 1349.550781 356.28125 C 1350.566406 355.957031 1351.597656 355.6875 1352.636719 355.464844 C 1353.679688 355.242188 1354.730469 355.070312 1355.789062 354.953125 C 1356.847656 354.832031 1357.910156 354.765625 1358.976562 354.753906 C 1360.042969 354.738281 1361.105469 354.773438 1362.167969 354.867188 C 1363.226562 354.957031 1364.28125 355.097656 1365.332031 355.289062 C 1366.378906 355.484375 1367.414062 355.730469 1368.4375 356.023438 C 1369.460938 356.320312 1370.46875 356.664062 1371.457031 357.058594 C 1372.449219 357.453125 1373.414062 357.894531 1374.363281 358.386719 C 1375.308594 358.875 1376.226562 359.410156 1377.121094 359.988281 C 1378.015625 360.570312 1378.878906 361.191406 1379.710938 361.855469 C 1380.542969 362.523438 1381.339844 363.226562 1382.105469 363.96875 C 1383.078125 364.917969 1383.890625 365.984375 1384.546875 367.171875 C 1385.203125 368.359375 1385.675781 369.617188 1385.957031 370.945312 C 1386.238281 372.273438 1386.324219 373.613281 1386.210938 374.964844 C 1386.09375 376.316406 1385.785156 377.625 1385.285156 378.886719 C 1384.78125 380.148438 1384.109375 381.308594 1383.261719 382.367188 C 1382.414062 383.429688 1381.433594 384.34375 1380.3125 385.113281 C 1379.195312 385.882812 1377.988281 386.472656 1376.695312 386.886719 C 1375.402344 387.296875 1374.078125 387.511719 1372.71875 387.53125 Z M 1357.375 338.164062 C 1358.113281 344.972656 1354.675781 350.929688 1349.703125 351.46875 C 1344.726562 352.007812 1340.09375 346.925781 1339.355469 340.117188 C 1338.617188 333.308594 1342.050781 327.351562 1347.03125 326.8125 C 1352.003906 326.273438 1356.636719 331.355469 1357.375 338.164062 Z M 1360.125 338.125 C 1359.574219 344.953125 1363.167969 350.8125 1368.160156 351.214844 C 1373.144531 351.621094 1377.636719 346.414062 1378.1875 339.585938 C 1378.742188 332.761719 1375.144531 326.902344 1370.15625 326.5 C 1365.171875 326.09375 1360.675781 331.300781 1360.125 338.125 Z M 1378.832031 347.265625 C 1376.925781 352.945312 1378.746094 358.679688 1382.898438 360.070312 C 1387.046875 361.460938 1391.957031 357.988281 1393.863281 352.308594 C 1395.769531 346.632812 1393.949219 340.898438 1389.796875 339.507812 C 1385.648438 338.113281 1380.738281 341.589844 1378.832031 347.265625 Z M 1378.832031 347.265625 " fill-opacity="1" fill-rule="nonzero"/></g></g></g><path stroke-linecap="butt" transform="matrix(0.75, 0, 0, 0.75, -74.502705, 324.14224)" fill="none" stroke-linejoin="miter" d="M 179.967158 140.503062 C 184.232783 140.503062 191.081742 140.378062 195.347367 139.997854 C 197.5557 139.747854 199.482784 138.075979 198.977575 135.862437 C 197.6807 127.466603 196.258825 118.023895 196.514034 108.961394 C 196.514034 105.206186 198.185909 102.867644 200.394242 103.529102 C 208.290076 106.122852 214.102576 120.612436 214.227576 136.242646 C 214.227576 138.450979 215.899451 139.747854 217.982785 139.997854 C 221.743201 140.378062 229.758827 140.503062 233.362994 140.503062 C 236.993202 140.503062 244.347369 140.378062 248.482786 139.997854 C 250.696328 139.747854 252.368203 138.075979 252.243203 135.862437 C 250.571328 112.466603 237.498411 100.310352 219.784868 97.84681 C 217.066118 97.435352 217.066118 95.258269 219.659868 94.84681 C 236.612994 91.87806 247.602578 82.060351 247.602578 69.398892 C 247.602578 55.539517 234.52966 48.81035 210.878618 48.81035 C 193.670283 48.81035 179.180699 48.81035 169.737991 49.346808 C 167.935907 49.477016 166.389032 50.893683 166.232782 52.695766 C 164.810907 70.695767 162.883824 108.836394 162.883824 136.367646 C 162.883824 138.325979 164.560907 139.747854 166.51924 139.997854 C 169.862991 140.378062 176.081741 140.503062 179.967158 140.503062 Z M 200.89945 91.372852 C 198.566117 92.008268 196.894242 91.50306 196.764034 88.914518 C 196.639034 85.154101 196.764034 81.430143 196.894242 77.924934 C 196.894242 75.841601 198.060909 74.419726 200.144242 74.294726 C 201.279659 74.164517 202.451534 74.164517 203.868201 74.164517 C 211.258826 74.164517 215.269243 76.378059 215.269243 81.018684 C 215.269243 85.69056 210.217159 89.575977 200.89945 91.372852 Z M 296.336955 140.503062 C 308.368206 140.503062 330.248415 140.503062 338.899457 139.997854 C 340.982791 139.872854 342.248416 138.325979 342.248416 136.367646 C 341.993208 128.096812 341.237999 113.477019 340.196332 105.075977 C 339.816124 101.445769 335.805707 100.94056 334.102582 103.659311 C 327.378623 113.763478 320.524456 117.232228 307.071331 117.232228 C 296.623414 117.232228 289.899455 114.013478 289.899455 107.289519 L 289.899455 105.206186 C 289.899455 99.393685 294.66508 97.185352 303.066122 97.060352 C 309.159873 96.930144 314.586956 98.102019 320.649456 101.070769 C 322.60779 102.487436 324.816123 101.445769 324.816123 98.857227 L 324.946332 88.40931 C 324.946332 86.320768 323.112998 84.773893 320.935915 85.029101 C 314.586956 85.279101 308.779664 85.81556 302.810914 85.81556 C 294.034872 85.81556 289.899455 83.732226 289.899455 79.852018 L 289.899455 79.216601 C 289.899455 74.956184 294.284872 71.987434 302.810914 71.987434 C 313.545289 71.987434 322.071332 74.831184 329.206749 80.388476 C 331.79529 82.852018 334.76404 81.810351 334.76404 78.430143 C 334.63904 71.987434 334.258832 59.549933 333.847374 52.950975 C 333.597374 50.893683 332.300499 49.602016 330.248415 49.477016 C 322.862998 49.096808 308.904664 48.940558 296.748414 48.940558 C 287.810913 48.940558 269.847371 49.096808 263.75362 49.477016 C 261.826537 49.602016 260.279662 50.768683 259.993203 52.695766 C 258.196328 72.747851 256.899453 107.034311 256.649453 136.242646 C 256.649453 138.325979 258.321328 139.872854 260.404662 139.997854 C 267.383829 140.503062 287.024455 140.503062 296.336955 140.503062 Z M 362.4255 140.503062 C 366.435917 140.503062 374.076542 140.378062 377.961959 139.997854 C 379.758834 139.747854 381.435918 138.325979 381.305709 136.242646 C 380.930709 131.85202 381.055709 126.674937 381.592168 123.044728 C 382.347376 118.529103 386.488001 116.60202 391.034877 116.47702 L 395.925502 116.47702 C 400.597377 116.60202 404.738002 118.279103 405.493211 123.044728 C 405.904669 126.799937 406.029669 131.982229 405.779669 136.117646 C 405.493211 138.325979 407.196336 139.747854 408.998419 139.997854 C 412.753628 140.378062 419.988003 140.503062 423.363003 140.503062 C 426.836962 140.503062 434.477587 140.378062 438.238004 139.997854 C 440.415087 139.872854 441.836963 138.200979 441.331754 135.987437 C 436.024462 104.825977 424.503628 70.820767 415.472378 51.6541 C 414.93592 50.357225 413.764044 49.727016 412.347378 49.477016 C 407.326544 48.940558 398.139044 48.940558 393.33696 48.940558 C 388.441127 48.940558 379.508834 48.940558 374.706751 49.477016 C 373.290084 49.727016 372.149459 50.357225 371.613001 51.6541 C 362.5505 70.820767 350.930708 104.825977 345.628624 135.862437 C 345.092166 138.075979 346.545291 139.747854 348.847375 139.997854 C 352.352583 140.253062 358.826542 140.503062 362.4255 140.503062 Z M 392.326543 103.909311 C 388.316127 103.784311 386.232793 101.857227 387.14946 98.607227 C 388.034876 92.289518 389.738002 84.268685 391.284877 77.799934 C 392.581752 73.659309 394.378627 73.659309 395.545294 77.799934 C 397.222377 84.268685 399.050502 92.289518 399.810919 98.607227 C 400.727585 101.857227 398.769252 103.784311 394.758835 103.909311 Z M 484.769256 140.503062 C 496.800507 140.503062 518.394258 140.503062 527.081758 139.997854 C 529.133842 139.872854 530.550509 138.325979 530.425509 136.367646 C 530.175509 128.096812 529.258842 110.128061 528.373425 101.732227 C 528.123425 97.97181 524.113008 97.310352 522.279675 100.310352 C 515.680716 110.633269 508.826549 114.013478 495.503632 114.013478 C 484.264048 114.013478 478.581756 109.591603 478.581756 100.94056 C 478.456756 84.398893 481.550506 71.706184 485.430715 53.737433 C 485.935923 51.6541 484.139048 49.727016 481.800506 49.477016 C 477.665089 49.096808 474.191131 48.940558 469.394256 48.940558 C 462.540089 48.940558 457.488005 48.940558 452.185921 49.477016 C 450.258838 49.727016 448.711963 50.768683 448.425505 52.695766 C 446.628629 72.747851 445.331754 107.034311 445.081754 136.242646 C 445.081754 138.325979 446.753629 139.872854 448.836963 139.997854 C 455.81613 140.503062 475.456756 140.503062 484.769256 140.503062 Z M 552.80051 140.503062 C 556.305718 140.503062 563.534885 140.378062 567.165094 139.997854 C 569.092177 139.747854 570.925511 138.325979 570.925511 136.117646 C 570.925511 105.075977 569.628636 71.987434 567.925511 52.820766 C 567.795302 51.023891 566.378635 49.852016 564.451552 49.477016 C 561.357802 49.096808 555.76926 48.940558 552.92551 48.940558 C 550.211968 48.940558 544.399468 49.096808 541.180718 49.477016 C 539.222384 49.852016 537.800509 51.023891 537.675509 52.820766 C 536.003634 71.987434 534.831759 105.075977 534.831759 136.117646 C 534.831759 138.325979 536.508842 139.747854 538.461967 139.997854 C 542.066134 140.378062 549.451551 140.503062 552.80051 140.503062 Z M 618.238013 140.503062 C 628.46718 140.503062 648.644265 140.503062 658.461973 139.997854 C 660.420307 139.872854 661.967182 138.325979 661.842182 136.367646 L 660.675515 104.320769 C 660.550515 100.310352 656.790098 99.143685 654.456765 102.362436 C 648.107806 110.763478 641.383848 115.023895 630.014055 115.023895 C 621.238013 115.023895 618.524471 111.549936 623.795305 107.414519 C 633.519264 97.72181 647.982806 81.268684 654.831765 72.617642 C 657.831765 69.654101 659.25364 66.273892 659.12864 62.263475 C 658.842182 58.539517 658.717182 56.075975 658.461973 52.950975 C 658.211973 51.023891 656.790098 49.602016 654.831765 49.477016 C 646.97239 48.940558 628.09218 48.940558 618.774471 48.940558 C 609.206763 48.940558 592.253637 48.940558 583.066136 49.477016 C 581.139053 49.602016 579.592178 51.023891 579.461969 53.075975 C 579.055719 58.914517 578.420303 76.378059 578.295303 81.143684 C 578.170303 84.523893 581.519261 85.945768 583.602595 83.227018 C 589.029678 76.883268 597.175512 73.789517 607.248429 73.789517 C 614.764055 73.789517 618.774471 76.758268 612.935929 81.268684 C 602.482804 92.133268 589.029678 106.122852 581.014053 115.685353 C 578.014053 118.909311 575.961969 121.497853 575.831761 125.919728 L 575.581761 136.242646 C 575.581761 138.325979 577.128636 139.872854 579.305719 139.997854 C 587.738012 140.503062 608.420304 140.503062 618.238013 140.503062 Z M 682.123433 140.503062 C 686.13385 140.503062 693.774475 140.378062 697.659892 139.997854 C 699.456767 139.747854 701.133851 138.325979 701.008851 136.242646 C 700.628642 131.85202 700.753642 126.674937 701.290101 123.044728 C 702.050517 118.529103 706.185934 116.60202 710.732809 116.47702 L 715.623435 116.47702 C 720.300518 116.60202 724.435935 118.279103 725.191143 123.044728 C 725.602602 126.799937 725.727602 131.982229 725.477602 136.117646 C 725.191143 138.325979 726.899477 139.747854 728.696352 139.997854 C 732.456769 140.378062 739.685936 140.503062 743.066144 140.503062 C 746.534895 140.503062 754.180728 140.378062 757.935937 139.997854 C 760.11302 139.872854 761.534895 138.200979 761.029687 135.987437 C 755.727603 104.825977 744.201561 70.820767 735.170311 51.6541 C 734.633852 50.357225 733.467186 49.727016 732.04531 49.477016 C 727.024477 48.940558 717.836976 48.940558 713.034893 48.940558 C 708.144268 48.940558 699.206767 48.940558 694.409892 49.477016 C 692.988017 49.727016 691.847392 50.357225 691.310933 51.6541 C 682.253641 70.820767 670.633849 104.825977 665.326557 135.862437 C 664.790099 138.075979 666.243224 139.747854 668.545307 139.997854 C 672.050516 140.253062 678.524474 140.503062 682.123433 140.503062 Z M 712.024476 103.909311 C 708.014059 103.784311 705.930726 101.857227 706.847393 98.607227 C 707.732809 92.289518 709.435934 84.268685 710.982809 77.799934 C 712.279684 73.659309 714.07656 73.659309 715.248435 77.799934 C 716.92031 84.268685 718.753643 92.289518 719.508852 98.607227 C 720.425518 101.857227 718.467185 103.784311 714.456768 103.909311 Z M 781.863021 140.503062 C 786.123438 140.503062 792.972397 140.378062 797.238022 139.997854 C 799.446356 139.747854 801.373439 138.075979 800.868231 135.862437 C 799.571356 127.466603 798.154689 118.023895 798.404689 108.961394 C 798.404689 105.206186 800.076564 102.867644 802.290106 103.529102 C 810.180731 106.122852 815.993231 120.612436 816.118231 136.242646 C 816.118231 138.450979 817.790106 139.747854 819.878648 139.997854 C 823.633857 140.378062 831.65469 140.503062 835.253649 140.503062 C 838.883858 140.503062 846.243233 140.378062 850.37865 139.997854 C 852.586983 139.747854 854.258858 138.075979 854.133858 135.862437 C 852.461983 112.466603 839.389066 100.310352 821.675523 97.84681 C 818.961982 97.435352 818.961982 95.258269 821.550523 94.84681 C 838.503649 91.87806 849.493233 82.060351 849.493233 69.398892 C 849.493233 55.539517 836.420316 48.81035 812.774481 48.81035 C 795.566147 48.81035 781.071355 48.81035 771.628646 49.346808 C 769.831771 49.477016 768.284896 50.893683 768.123437 52.695766 C 766.706771 70.695767 764.779687 108.836394 764.779687 136.367646 C 764.779687 138.325979 766.451562 139.747854 768.409896 139.997854 C 771.758854 140.378062 777.977604 140.503062 781.863021 140.503062 Z M 802.795314 91.372852 C 800.456772 92.008268 798.784897 91.50306 798.659897 88.914518 C 798.529689 85.154101 798.659897 81.430143 798.784897 77.924934 C 798.784897 75.841601 799.951564 74.419726 802.034897 74.294726 C 803.175522 74.164517 804.342189 74.164517 805.764064 74.164517 C 813.149481 74.164517 817.159898 76.378059 817.159898 81.018684 C 817.159898 85.69056 812.107814 89.575977 802.795314 91.372852 Z M 910.128653 140.503062 C 914.13907 140.503062 921.779695 140.378062 925.665112 139.997854 C 927.467195 139.747854 929.13907 138.325979 929.01407 136.242646 C 928.633862 131.85202 928.758862 126.674937 929.29532 123.044728 C 930.055737 118.529103 934.191154 116.60202 938.738029 116.47702 L 943.628654 116.47702 C 948.305738 116.60202 952.441155 118.279103 953.196363 123.044728 C 953.607822 126.799937 953.732822 131.982229 953.482822 136.117646 C 953.196363 138.325979 954.904697 139.747854 956.701572 139.997854 C 960.461989 140.378062 967.691156 140.503062 971.071364 140.503062 C 974.540114 140.503062 982.185948 140.378062 985.941157 139.997854 C 988.11824 139.872854 989.540115 138.200979 989.034907 135.987437 C 983.732823 104.825977 972.206781 70.820767 963.17553 51.6541 C 962.639072 50.357225 961.472405 49.727016 960.05053 49.477016 C 955.029697 48.940558 945.842196 48.940558 941.040113 48.940558 C 936.149487 48.940558 927.211987 48.940558 922.415112 49.477016 C 920.993237 49.727016 919.852612 50.357225 919.316153 51.6541 C 910.258861 70.820767 898.639069 104.825977 893.331777 135.862437 C 892.795319 138.075979 894.248444 139.747854 896.550527 139.997854 C 900.055736 140.253062 906.529694 140.503062 910.128653 140.503062 Z M 940.029696 103.909311 C 936.019279 103.784311 933.935946 101.857227 934.852612 98.607227 C 935.738029 92.289518 937.441154 84.268685 938.988029 77.799934 C 940.284904 73.659309 942.081779 73.659309 943.253654 77.799934 C 944.92553 84.268685 946.758863 92.289518 947.514071 98.607227 C 948.430738 101.857227 946.472405 103.784311 942.461988 103.909311 Z M 1028.62345 140.914521 C 1039.988034 140.914521 1047.217201 135.737437 1051.639077 126.169728 C 1053.185952 122.66452 1055.238035 122.919728 1055.113035 126.674937 C 1055.113035 129.263479 1054.732827 133.398895 1054.352618 136.367646 C 1054.071368 138.450979 1055.774493 139.747854 1057.951577 139.997854 C 1062.217202 140.378062 1077.498453 140.378062 1081.097411 139.997854 C 1083.310953 139.872854 1084.72762 138.325979 1084.72762 136.117646 C 1084.72762 122.284312 1084.097412 104.570769 1082.930745 91.122852 C 1082.805745 89.039518 1081.253661 87.492643 1079.045328 87.617643 C 1070.107827 87.997852 1059.65991 88.53431 1050.72241 89.039518 C 1048.258868 89.164518 1047.34741 91.247852 1048.389076 93.424935 C 1049.805743 95.513477 1050.47241 98.352019 1050.47241 101.857227 C 1050.47241 109.753061 1045.165118 114.773895 1038.946368 114.773895 C 1031.050534 114.898895 1025.87345 110.128061 1025.87345 98.352019 C 1025.87345 82.56556 1033.894284 74.831184 1045.670326 74.831184 C 1054.988035 74.831184 1062.373452 77.544726 1068.435952 82.060351 C 1070.238036 83.732226 1072.826578 83.227018 1073.238036 80.388476 C 1073.993244 74.831184 1075.290119 63.81035 1075.826578 58.539517 C 1076.076578 56.706183 1075.415119 54.7791 1073.613036 53.737433 C 1064.930744 50.357225 1053.44116 48.43535 1042.956784 48.43535 C 1012.706783 48.56035 991.74324 68.482226 991.74324 98.857227 C 991.74324 128.346812 1006.993241 140.914521 1028.62345 140.914521 Z M 1129.342205 140.503062 C 1141.368248 140.503062 1163.253665 140.503062 1171.904708 139.997854 C 1173.988041 139.872854 1175.248458 138.325979 1175.248458 136.367646 C 1174.998458 128.096812 1174.238041 113.477019 1173.196374 105.075977 C 1172.816166 101.445769 1168.810957 100.94056 1167.102624 103.659311 C 1160.378665 113.763478 1153.524498 117.232228 1140.076581 117.232228 C 1129.623455 117.232228 1122.899497 114.013478 1122.899497 107.289519 L 1122.899497 105.206186 C 1122.899497 99.393685 1127.665122 97.185352 1136.066164 97.060352 C 1142.159914 96.930144 1147.592206 98.102019 1153.654707 101.070769 C 1155.607832 102.487436 1157.821374 101.445769 1157.821374 98.857227 L 1157.946374 88.40931 C 1157.946374 86.320768 1156.11304 84.773893 1153.935957 85.029101 C 1147.592206 85.279101 1141.779706 85.81556 1135.810956 85.81556 C 1127.034914 85.81556 1122.899497 83.732226 1122.899497 79.852018 L 1122.899497 79.216601 C 1122.899497 74.956184 1127.290122 71.987434 1135.810956 71.987434 C 1146.55054 71.987434 1155.071373 74.831184 1162.20679 80.388476 C 1164.800541 82.852018 1167.764082 81.810351 1167.764082 78.430143 C 1167.639082 71.987434 1167.258874 59.549933 1166.852624 52.950975 C 1166.597416 50.893683 1165.305749 49.602016 1163.253665 49.477016 C 1155.86304 49.096808 1141.904706 48.940558 1129.748455 48.940558 C 1120.816163 48.940558 1102.847412 49.096808 1096.753662 49.477016 C 1094.826579 49.602016 1093.279704 50.768683 1092.998454 52.695766 C 1091.19637 72.747851 1089.904703 107.034311 1089.649495 136.242646 C 1089.649495 138.325979 1091.326579 139.872854 1093.409912 139.997854 C 1100.383871 140.503062 1120.024497 140.503062 1129.342205 140.503062 Z M 1257.248462 141.039521 C 1266.946379 141.039521 1270.321379 133.398895 1270.196379 123.325978 C 1270.071379 94.47181 1268.524504 70.029101 1266.946379 52.820766 C 1266.691171 50.893683 1265.144296 49.727016 1263.217212 49.477016 C 1259.712004 49.096808 1254.53492 48.940558 1251.56617 48.940558 C 1248.47242 48.940558 1243.295336 49.096808 1240.040128 49.477016 C 1237.613044 49.852016 1235.904711 51.81035 1236.441169 54.242641 C 1238.493253 64.471809 1241.337003 86.320768 1236.191169 86.320768 C 1230.097419 86.320768 1218.727627 64.471809 1213.300543 54.6541 C 1210.581793 51.148891 1208.498459 49.852016 1204.743251 49.477016 C 1202.154709 49.096808 1198.680751 48.940558 1196.467209 48.940558 C 1194.545334 48.940558 1189.363042 49.096808 1187.154708 49.477016 C 1185.227625 49.852016 1183.80575 50.893683 1183.68075 52.820766 C 1181.852625 71.987434 1180.050541 105.075977 1180.050541 136.117646 C 1180.050541 138.200979 1181.722416 139.622854 1183.80575 139.997854 C 1187.816167 140.503062 1193.753667 140.503062 1197.133876 140.503062 C 1200.732834 140.503062 1207.456793 140.503062 1211.34221 139.997854 C 1213.675543 139.622854 1215.477626 138.200979 1215.097418 135.612437 C 1214.59221 129.643687 1213.014085 118.404103 1213.014085 111.549936 C 1213.139085 105.867644 1214.180751 101.732227 1216.774502 101.732227 C 1225.962002 101.732227 1235.779711 141.039521 1257.248462 141.039521 Z M 1317.769298 141.039521 C 1348.555758 141.039521 1365.889092 129.518687 1365.889092 99.648894 C 1365.889092 67.190559 1344.420341 48.940558 1313.508881 48.940558 C 1303.435964 48.940558 1291.659922 48.940558 1282.342213 49.477016 C 1280.29013 49.602016 1278.868255 51.023891 1278.712005 52.820766 C 1277.16513 72.112434 1275.363046 105.206186 1275.363046 135.987437 C 1275.363046 138.200979 1276.91513 139.872854 1278.868255 139.997854 C 1285.847422 140.503062 1306.149506 141.039521 1317.769298 141.039521 Z M 1313.633881 112.721811 C 1310.790131 112.721811 1309.118256 110.763478 1308.993256 107.164519 C 1308.868256 98.857227 1308.738048 87.997852 1308.993256 79.721809 C 1309.118256 76.883268 1310.665131 75.081184 1313.128673 74.956184 L 1316.477632 74.956184 C 1326.581799 74.956184 1333.050549 83.607226 1333.050549 98.102019 C 1333.050549 108.456186 1326.32659 112.846811 1317.769298 112.846811 C 1316.347423 112.846811 1314.930756 112.846811 1313.633881 112.721811 Z M 1385.540135 140.503062 C 1389.550552 140.503062 1397.191177 140.378062 1401.076594 139.997854 C 1402.873469 139.747854 1404.550553 138.325979 1404.420344 136.242646 C 1404.040136 131.85202 1404.170344 126.674937 1404.706803 123.044728 C 1405.462011 118.529103 1409.597428 116.60202 1414.144303 116.47702 L 1419.040137 116.47702 C 1423.712012 116.60202 1427.852637 118.279103 1428.607846 123.044728 C 1429.019304 126.799937 1429.144304 131.982229 1428.894304 136.117646 C 1428.607846 138.325979 1430.310971 139.747854 1432.113054 139.997854 C 1435.868263 140.378062 1443.102638 140.503062 1446.477638 140.503062 C 1449.951597 140.503062 1457.592222 140.378062 1461.352639 139.997854 C 1463.529722 139.872854 1464.951597 138.200979 1464.446389 135.987437 C 1459.139097 104.825977 1447.618263 70.820767 1438.587013 51.6541 C 1438.050554 50.357225 1436.878679 49.727016 1435.462013 49.477016 C 1430.441179 48.940558 1421.24847 48.940558 1416.451595 48.940558 C 1411.555761 48.940558 1402.623469 48.940558 1397.821386 49.477016 C 1396.399511 49.727016 1395.264094 50.357225 1394.727635 51.6541 C 1385.665135 70.820767 1374.045343 104.825977 1368.743259 135.862437 C 1368.206801 138.075979 1369.659926 139.747854 1371.962009 139.997854 C 1375.467218 140.253062 1381.941176 140.503062 1385.540135 140.503062 Z M 1415.441178 103.909311 C 1411.430761 103.784311 1409.347428 101.857227 1410.264095 98.607227 C 1411.149511 92.289518 1412.852636 84.268685 1414.399511 77.799934 C 1415.696387 73.659309 1417.493262 73.659309 1418.659928 77.799934 C 1420.337012 84.268685 1422.165137 92.289518 1422.925554 98.607227 C 1423.84222 101.857227 1421.883887 103.784311 1417.87347 103.909311 Z M 1484.993265 140.503062 C 1488.243265 140.503062 1496.139099 140.503062 1499.738057 139.997854 C 1501.821391 139.747854 1503.493266 138.325979 1503.243266 135.862437 C 1502.451599 128.096812 1501.696391 115.685353 1501.821391 108.174936 C 1501.946391 97.97181 1503.243266 92.289518 1505.451599 92.289518 C 1508.165141 92.289518 1509.967225 98.352019 1511.894308 106.122852 C 1513.185975 110.763478 1514.73285 115.940561 1516.316183 120.737436 C 1518.238058 126.549937 1520.956808 129.930145 1525.753684 129.930145 C 1530.524517 129.930145 1533.488059 127.055145 1535.446393 120.737436 C 1536.743268 116.065561 1538.290143 111.299936 1539.581809 106.628061 C 1541.795351 98.477019 1543.342226 91.87806 1546.180768 91.87806 C 1548.36306 91.87806 1549.654727 97.435352 1549.784935 107.669727 C 1549.941185 115.310353 1549.279727 127.971812 1548.36306 135.862437 C 1548.107852 138.325979 1549.784935 139.747854 1551.868268 139.997854 C 1555.498477 140.503062 1563.519311 140.503062 1566.863061 140.503062 C 1570.118269 140.503062 1576.842228 140.378062 1580.441186 139.997854 C 1582.52452 139.747854 1584.071395 138.200979 1584.071395 135.987437 C 1583.284937 104.950977 1579.14952 71.987434 1576.43077 52.695766 C 1576.050561 50.893683 1574.633895 49.727016 1572.675561 49.477016 C 1568.540144 49.096808 1561.685977 48.940558 1558.087019 48.940558 C 1554.45681 48.940558 1547.982852 49.096808 1544.352643 49.477016 C 1541.258893 49.852016 1539.206809 51.148891 1538.290143 54.5291 C 1536.993268 58.914517 1534.909934 67.820767 1533.113059 75.081184 C 1530.899517 82.69056 1528.472434 88.65931 1525.878684 88.65931 C 1523.165142 88.65931 1520.5766 82.69056 1518.238058 74.419726 C 1516.566183 67.977017 1514.60785 58.789517 1513.472433 54.5291 C 1512.430766 51.148891 1510.347433 49.852016 1507.253683 49.477016 C 1503.618266 49.096808 1497.149516 48.940558 1493.420349 48.940558 C 1489.79014 48.940558 1482.560973 49.096808 1478.930765 49.477016 C 1476.972431 49.727016 1475.550556 50.893683 1475.170348 52.695766 C 1472.456806 71.831184 1468.321389 104.950977 1467.529722 135.987437 C 1467.529722 138.200979 1469.107848 139.747854 1471.159931 139.997854 C 1474.920348 140.378062 1481.644307 140.503062 1484.993265 140.503062 Z M 1628.290147 140.503062 C 1640.316189 140.503062 1662.196399 140.503062 1670.852649 139.997854 C 1672.935983 139.872854 1674.1964 138.325979 1674.1964 136.367646 C 1673.9464 128.096812 1673.185983 113.477019 1672.144316 105.075977 C 1671.764108 101.445769 1667.753691 100.94056 1666.050566 103.659311 C 1659.326607 113.763478 1652.47244 117.232228 1639.024523 117.232228 C 1628.571397 117.232228 1621.847439 114.013478 1621.847439 107.289519 L 1621.847439 105.206186 C 1621.847439 99.393685 1626.613064 97.185352 1635.014106 97.060352 C 1641.107856 96.930144 1646.540148 98.102019 1652.602648 101.070769 C 1654.555774 102.487436 1656.769315 101.445769 1656.769315 98.857227 L 1656.894315 88.40931 C 1656.894315 86.320768 1655.060982 84.773893 1652.883898 85.029101 C 1646.540148 85.279101 1640.727648 85.81556 1634.758898 85.81556 C 1625.982855 85.81556 1621.847439 83.732226 1621.847439 79.852018 L 1621.847439 79.216601 C 1621.847439 74.956184 1626.232855 71.987434 1634.758898 71.987434 C 1645.493273 71.987434 1654.019315 74.831184 1661.154732 80.388476 C 1663.748482 82.852018 1666.712024 81.810351 1666.712024 78.430143 C 1666.587024 71.987434 1666.206816 59.549933 1665.800566 52.950975 C 1665.545357 50.893683 1664.253691 49.602016 1662.196399 49.477016 C 1654.810982 49.096808 1640.852648 48.940558 1628.696397 48.940558 C 1619.764105 48.940558 1601.795354 49.096808 1595.701604 49.477016 C 1593.77452 49.602016 1592.227645 50.768683 1591.946395 52.695766 C 1590.144312 72.747851 1588.852645 107.034311 1588.597437 136.242646 C 1588.597437 138.325979 1590.269312 139.872854 1592.357854 139.997854 C 1599.331812 140.503062 1618.972438 140.503062 1628.290147 140.503062 Z M 1756.196404 141.039521 C 1765.894321 141.039521 1769.269321 133.398895 1769.144321 123.325978 C 1769.019321 94.47181 1767.472446 70.029101 1765.894321 52.820766 C 1765.639112 50.893683 1764.092237 49.727016 1762.165154 49.477016 C 1758.659945 49.096808 1753.482862 48.940558 1750.514112 48.940558 C 1747.420362 48.940558 1742.243278 49.096808 1738.988069 49.477016 C 1736.560986 49.852016 1734.852653 51.81035 1735.389111 54.242641 C 1737.441194 64.471809 1740.284945 86.320768 1735.139111 86.320768 C 1729.045361 86.320768 1717.675568 64.471809 1712.248485 54.6541 C 1709.529735 51.148891 1707.446401 49.852016 1703.691193 49.477016 C 1701.102651 49.096808 1697.628692 48.940558 1695.415151 48.940558 C 1693.493276 48.940558 1688.310984 49.096808 1686.10265 49.477016 C 1684.175567 49.852016 1682.753692 50.893683 1682.628692 52.820766 C 1680.800567 71.987434 1678.998483 105.075977 1678.998483 136.117646 C 1678.998483 138.200979 1680.670358 139.622854 1682.753692 139.997854 C 1686.764108 140.503062 1692.701609 140.503062 1696.081817 140.503062 C 1699.680776 140.503062 1706.404734 140.503062 1710.290151 139.997854 C 1712.623485 139.622854 1714.425568 138.200979 1714.04536 135.612437 C 1713.540152 129.643687 1711.962026 118.404103 1711.962026 111.549936 C 1712.087026 105.867644 1713.128693 101.732227 1715.717235 101.732227 C 1724.909944 101.732227 1734.727653 141.039521 1756.196404 141.039521 Z M 1816.087032 140.378062 C 1819.84224 140.378062 1827.988074 140.378062 1831.998491 139.872854 C 1834.305783 139.622854 1835.883908 137.664521 1835.597449 135.612437 C 1833.545366 118.909311 1830.956824 91.50306 1829.915157 81.268684 C 1829.029741 76.122851 1831.462032 73.659309 1834.842241 73.659309 C 1841.029741 73.659309 1848.795367 79.471809 1853.47245 83.227018 C 1855.269325 85.279101 1858.493284 84.523893 1858.493284 80.893684 C 1858.493284 76.758268 1857.857867 58.664517 1857.352659 52.820766 C 1857.071409 50.768683 1855.774534 49.602016 1853.59745 49.477016 C 1844.029741 48.940558 1826.034949 48.940558 1815.831823 48.940558 C 1805.097448 48.940558 1787.508905 48.940558 1777.946405 49.477016 C 1775.732863 49.602016 1774.441196 50.768683 1774.185988 52.820766 C 1773.80578 58.664517 1773.144321 76.253059 1773.019321 80.638476 C 1773.019321 84.398893 1776.238071 85.279101 1778.071405 83.227018 C 1782.71203 79.471809 1790.857864 73.659309 1796.951614 73.659309 C 1800.300573 73.659309 1802.633906 76.122851 1801.847448 81.268684 C 1800.837031 91.62806 1798.248489 118.909311 1796.165156 135.612437 C 1795.909947 137.664521 1797.456822 139.622854 1799.795364 139.872854 C 1803.805781 140.253062 1812.326615 140.378062 1816.087032 140.378062 Z M 1909.087036 141.039521 C 1937.534954 141.039521 1956.795372 130.305145 1956.795372 98.607227 C 1956.795372 67.315559 1937.659954 48.43535 1909.087036 48.43535 C 1880.60266 48.56035 1861.342242 67.315559 1861.342242 98.607227 C 1861.342242 130.305145 1880.764118 141.039521 1909.087036 141.039521 Z M 1909.087036 114.518686 C 1901.066203 114.518686 1895.477661 109.753061 1895.477661 97.310352 C 1895.477661 84.773893 1900.779744 74.956184 1909.087036 74.956184 C 1917.35787 74.956184 1922.659954 84.648893 1922.659954 97.310352 C 1922.659954 109.753061 1917.102662 114.518686 1909.087036 114.518686 Z M 1909.087036 114.518686 " stroke="#7ed957" stroke-width="9.6999" stroke-opacity="1" stroke-miterlimit="4"/><g fill="#5019dd" fill-opacity="1"><g transform="translate(45.719945, 429.142234)"><g><path d="M 14.742188 0.386719 C 17.945312 0.386719 23.085938 0.289062 26.285156 0 C 27.933594 -0.195312 29.390625 -1.453125 29.003906 -3.105469 C 28.03125 -9.410156 26.964844 -16.488281 27.160156 -23.28125 C 27.160156 -26.09375 28.421875 -27.839844 30.070312 -27.351562 C 35.984375 -25.414062 40.351562 -14.550781 40.449219 -2.8125 C 40.449219 -1.164062 41.707031 -0.195312 43.261719 0 C 46.074219 0.289062 52.085938 0.386719 54.804688 0.386719 C 57.519531 0.386719 63.046875 0.289062 66.152344 0 C 67.800781 -0.195312 69.0625 -1.453125 68.964844 -3.105469 C 67.703125 -20.660156 57.90625 -29.777344 44.617188 -31.621094 C 42.582031 -31.914062 42.582031 -33.5625 44.523438 -33.851562 C 57.230469 -36.082031 65.472656 -43.453125 65.472656 -52.960938 C 65.472656 -63.339844 55.675781 -68.382812 37.925781 -68.382812 C 25.023438 -68.382812 14.160156 -68.382812 7.082031 -67.996094 C 5.722656 -67.898438 4.558594 -66.832031 4.460938 -65.472656 C 3.394531 -51.992188 1.941406 -23.375 1.941406 -2.714844 C 1.941406 -1.261719 3.199219 -0.195312 4.65625 0 C 7.179688 0.289062 11.832031 0.386719 14.742188 0.386719 Z M 30.457031 -36.472656 C 28.710938 -35.984375 27.449219 -36.375 27.351562 -38.3125 C 27.257812 -41.125 27.351562 -43.941406 27.449219 -46.558594 C 27.449219 -48.109375 28.324219 -49.175781 29.875 -49.273438 C 30.75 -49.371094 31.621094 -49.371094 32.6875 -49.371094 C 38.21875 -49.371094 41.222656 -47.722656 41.222656 -44.230469 C 41.222656 -40.738281 37.441406 -37.828125 30.457031 -36.472656 Z M 30.457031 -36.472656 "/></g></g></g><g fill="#5019dd" fill-opacity="1"><g transform="translate(116.042043, 429.142234)"><g><path d="M 31.71875 0.386719 C 40.738281 0.386719 57.132812 0.386719 63.628906 0 C 65.183594 -0.0976562 66.152344 -1.261719 66.152344 -2.714844 C 65.957031 -8.921875 65.375 -19.882812 64.601562 -26.1875 C 64.308594 -28.90625 61.300781 -29.292969 60.042969 -27.257812 C 54.996094 -19.691406 49.855469 -17.070312 39.769531 -17.070312 C 31.914062 -17.070312 26.867188 -19.496094 26.867188 -24.539062 L 26.867188 -26.09375 C 26.867188 -30.457031 30.457031 -32.105469 36.761719 -32.203125 C 41.320312 -32.300781 45.394531 -31.425781 49.953125 -29.195312 C 51.410156 -28.128906 53.058594 -28.90625 53.058594 -30.84375 L 53.15625 -38.703125 C 53.15625 -40.253906 51.796875 -41.417969 50.148438 -41.222656 C 45.394531 -41.03125 41.03125 -40.640625 36.566406 -40.640625 C 29.972656 -40.640625 26.867188 -42.195312 26.867188 -45.105469 L 26.867188 -45.589844 C 26.867188 -48.789062 30.167969 -51.019531 36.566406 -51.019531 C 44.617188 -51.019531 51.019531 -48.886719 56.355469 -44.714844 C 58.296875 -42.871094 60.527344 -43.648438 60.527344 -46.171875 C 60.429688 -51.019531 60.136719 -60.332031 59.847656 -65.28125 C 59.652344 -66.832031 58.683594 -67.800781 57.132812 -67.898438 C 51.601562 -68.1875 41.125 -68.285156 32.007812 -68.285156 C 25.316406 -68.285156 11.832031 -68.1875 7.273438 -67.898438 C 5.820312 -67.800781 4.65625 -66.929688 4.460938 -65.472656 C 3.105469 -50.4375 2.132812 -24.734375 1.941406 -2.8125 C 1.941406 -1.261719 3.199219 -0.0976562 4.753906 0 C 9.992188 0.386719 24.734375 0.386719 31.71875 0.386719 Z M 31.71875 0.386719 "/></g></g></g><g fill="#5019dd" fill-opacity="1"><g transform="translate(183.842253, 429.142234)"><g><path d="M 13.484375 0.386719 C 16.488281 0.386719 22.210938 0.289062 25.121094 0 C 26.480469 -0.195312 27.742188 -1.261719 27.644531 -2.8125 C 27.351562 -6.109375 27.449219 -9.992188 27.839844 -12.707031 C 28.421875 -16.101562 31.523438 -17.554688 34.917969 -17.652344 L 38.605469 -17.652344 C 42.097656 -17.554688 45.199219 -16.296875 45.78125 -12.707031 C 46.074219 -9.894531 46.171875 -6.015625 45.976562 -2.910156 C 45.78125 -1.261719 47.042969 -0.195312 48.402344 0 C 51.214844 0.289062 56.648438 0.386719 59.167969 0.386719 C 61.789062 0.386719 67.511719 0.289062 70.324219 0 C 71.972656 -0.0976562 73.039062 -1.359375 72.652344 -3.007812 C 68.675781 -26.382812 60.042969 -51.894531 53.25 -66.25 C 52.863281 -67.21875 51.992188 -67.703125 50.921875 -67.898438 C 47.140625 -68.285156 40.253906 -68.285156 36.664062 -68.285156 C 32.980469 -68.285156 26.285156 -68.285156 22.699219 -67.898438 C 21.628906 -67.703125 20.757812 -67.21875 20.371094 -66.25 C 13.578125 -51.894531 4.851562 -26.382812 0.871094 -3.105469 C 0.484375 -1.453125 1.550781 -0.195312 3.296875 0 C 5.917969 0.195312 10.765625 0.386719 13.484375 0.386719 Z M 35.890625 -27.0625 C 32.882812 -27.160156 31.332031 -28.613281 32.007812 -31.039062 C 32.6875 -35.792969 33.949219 -41.804688 35.113281 -46.65625 C 36.082031 -49.757812 37.441406 -49.757812 38.3125 -46.65625 C 39.574219 -41.804688 40.933594 -35.792969 41.515625 -31.039062 C 42.195312 -28.613281 40.738281 -27.160156 37.730469 -27.0625 Z M 35.890625 -27.0625 "/></g></g></g><g fill="#5019dd" fill-opacity="1"><g transform="translate(257.365229, 429.142234)"><g><path d="M 31.71875 0.386719 C 40.738281 0.386719 56.9375 0.386719 63.4375 0 C 64.988281 -0.0976562 66.054688 -1.261719 65.957031 -2.714844 C 65.765625 -8.921875 65.085938 -22.40625 64.40625 -28.710938 C 64.210938 -31.523438 61.207031 -32.007812 59.847656 -29.777344 C 54.902344 -22.019531 49.757812 -19.496094 39.769531 -19.496094 C 31.332031 -19.496094 27.0625 -22.792969 27.0625 -29.292969 C 26.964844 -41.707031 29.292969 -51.214844 32.203125 -64.699219 C 32.589844 -66.25 31.234375 -67.703125 29.488281 -67.898438 C 26.382812 -68.1875 23.765625 -68.285156 20.175781 -68.285156 C 15.035156 -68.285156 11.25 -68.285156 7.273438 -67.898438 C 5.820312 -67.703125 4.65625 -66.929688 4.460938 -65.472656 C 3.105469 -50.4375 2.132812 -24.734375 1.941406 -2.8125 C 1.941406 -1.261719 3.199219 -0.0976562 4.753906 0 C 9.992188 0.386719 24.734375 0.386719 31.71875 0.386719 Z M 31.71875 0.386719 "/></g></g></g><g fill="#5019dd" fill-opacity="1"><g transform="translate(324.680472, 429.142234)"><g><path d="M 15.421875 0.386719 C 18.042969 0.386719 23.472656 0.289062 26.1875 0 C 27.644531 -0.195312 29.003906 -1.261719 29.003906 -2.910156 C 29.003906 -26.1875 28.03125 -51.019531 26.769531 -65.375 C 26.675781 -66.734375 25.605469 -67.605469 24.152344 -67.898438 C 21.824219 -68.1875 17.652344 -68.285156 15.519531 -68.285156 C 13.484375 -68.285156 9.117188 -68.1875 6.691406 -67.898438 C 5.238281 -67.605469 4.171875 -66.734375 4.074219 -65.375 C 2.8125 -51.019531 1.941406 -26.1875 1.941406 -2.910156 C 1.941406 -1.261719 3.199219 -0.195312 4.65625 0 C 7.371094 0.289062 12.902344 0.386719 15.421875 0.386719 Z M 15.421875 0.386719 "/></g></g></g><g fill="#5019dd" fill-opacity="1"><g transform="translate(355.525204, 429.142234)"><g><path d="M 33.65625 0.386719 C 41.320312 0.386719 56.453125 0.386719 63.824219 0 C 65.28125 -0.0976562 66.441406 -1.261719 66.347656 -2.714844 L 65.472656 -26.769531 C 65.375 -29.777344 62.5625 -30.652344 60.816406 -28.226562 C 56.066406 -21.921875 51.019531 -18.71875 42.484375 -18.71875 C 35.890625 -18.71875 33.851562 -21.339844 37.828125 -24.445312 C 45.105469 -31.71875 55.96875 -44.035156 61.109375 -50.535156 C 63.339844 -52.765625 64.40625 -55.289062 64.308594 -58.296875 C 64.117188 -61.109375 64.019531 -62.953125 63.824219 -65.28125 C 63.628906 -66.734375 62.5625 -67.800781 61.109375 -67.898438 C 55.191406 -68.285156 41.03125 -68.285156 34.046875 -68.285156 C 26.867188 -68.285156 14.160156 -68.285156 7.273438 -67.898438 C 5.820312 -67.800781 4.65625 -66.734375 4.558594 -65.183594 C 4.269531 -60.816406 3.78125 -47.722656 3.6875 -44.132812 C 3.589844 -41.613281 6.109375 -40.546875 7.664062 -42.582031 C 11.738281 -47.335938 17.847656 -49.664062 25.414062 -49.664062 C 31.039062 -49.664062 34.046875 -47.433594 29.679688 -44.035156 C 21.824219 -35.890625 11.738281 -25.414062 5.722656 -18.234375 C 3.492188 -15.8125 1.941406 -13.871094 1.84375 -10.574219 L 1.648438 -2.8125 C 1.648438 -1.261719 2.8125 -0.0976562 4.460938 0 C 10.765625 0.386719 26.285156 0.386719 33.65625 0.386719 Z M 33.65625 0.386719 "/></g></g></g><g fill="#5019dd" fill-opacity="1"><g transform="translate(423.616403, 429.142234)"><g><path d="M 13.484375 0.386719 C 16.488281 0.386719 22.210938 0.289062 25.121094 0 C 26.480469 -0.195312 27.742188 -1.261719 27.644531 -2.8125 C 27.351562 -6.109375 27.449219 -9.992188 27.839844 -12.707031 C 28.421875 -16.101562 31.523438 -17.554688 34.917969 -17.652344 L 38.605469 -17.652344 C 42.097656 -17.554688 45.199219 -16.296875 45.78125 -12.707031 C 46.074219 -9.894531 46.171875 -6.015625 45.976562 -2.910156 C 45.78125 -1.261719 47.042969 -0.195312 48.402344 0 C 51.214844 0.289062 56.648438 0.386719 59.167969 0.386719 C 61.789062 0.386719 67.511719 0.289062 70.324219 0 C 71.972656 -0.0976562 73.039062 -1.359375 72.652344 -3.007812 C 68.675781 -26.382812 60.042969 -51.894531 53.25 -66.25 C 52.863281 -67.21875 51.992188 -67.703125 50.921875 -67.898438 C 47.140625 -68.285156 40.253906 -68.285156 36.664062 -68.285156 C 32.980469 -68.285156 26.285156 -68.285156 22.699219 -67.898438 C 21.628906 -67.703125 20.757812 -67.21875 20.371094 -66.25 C 13.578125 -51.894531 4.851562 -26.382812 0.871094 -3.105469 C 0.484375 -1.453125 1.550781 -0.195312 3.296875 0 C 5.917969 0.195312 10.765625 0.386719 13.484375 0.386719 Z M 35.890625 -27.0625 C 32.882812 -27.160156 31.332031 -28.613281 32.007812 -31.039062 C 32.6875 -35.792969 33.949219 -41.804688 35.113281 -46.65625 C 36.082031 -49.757812 37.441406 -49.757812 38.3125 -46.65625 C 39.574219 -41.804688 40.933594 -35.792969 41.515625 -31.039062 C 42.195312 -28.613281 40.738281 -27.160156 37.730469 -27.0625 Z M 35.890625 -27.0625 "/></g></g></g><g fill="#5019dd" fill-opacity="1"><g transform="translate(497.139356, 429.142234)"><g><path d="M 14.742188 0.386719 C 17.945312 0.386719 23.085938 0.289062 26.285156 0 C 27.933594 -0.195312 29.390625 -1.453125 29.003906 -3.105469 C 28.03125 -9.410156 26.964844 -16.488281 27.160156 -23.28125 C 27.160156 -26.09375 28.421875 -27.839844 30.070312 -27.351562 C 35.984375 -25.414062 40.351562 -14.550781 40.449219 -2.8125 C 40.449219 -1.164062 41.707031 -0.195312 43.261719 0 C 46.074219 0.289062 52.085938 0.386719 54.804688 0.386719 C 57.519531 0.386719 63.046875 0.289062 66.152344 0 C 67.800781 -0.195312 69.0625 -1.453125 68.964844 -3.105469 C 67.703125 -20.660156 57.90625 -29.777344 44.617188 -31.621094 C 42.582031 -31.914062 42.582031 -33.5625 44.523438 -33.851562 C 57.230469 -36.082031 65.472656 -43.453125 65.472656 -52.960938 C 65.472656 -63.339844 55.675781 -68.382812 37.925781 -68.382812 C 25.023438 -68.382812 14.160156 -68.382812 7.082031 -67.996094 C 5.722656 -67.898438 4.558594 -66.832031 4.460938 -65.472656 C 3.394531 -51.992188 1.941406 -23.375 1.941406 -2.714844 C 1.941406 -1.261719 3.199219 -0.195312 4.65625 0 C 7.179688 0.289062 11.832031 0.386719 14.742188 0.386719 Z M 30.457031 -36.472656 C 28.710938 -35.984375 27.449219 -36.375 27.351562 -38.3125 C 27.257812 -41.125 27.351562 -43.941406 27.449219 -46.558594 C 27.449219 -48.109375 28.324219 -49.175781 29.875 -49.273438 C 30.75 -49.371094 31.621094 -49.371094 32.6875 -49.371094 C 38.21875 -49.371094 41.222656 -47.722656 41.222656 -44.230469 C 41.222656 -40.738281 37.441406 -37.828125 30.457031 -36.472656 Z M 30.457031 -36.472656 "/></g></g></g><g fill="#5019dd" fill-opacity="1"><g transform="translate(567.461465, 429.142234)"><g/></g></g><g fill="#5019dd" fill-opacity="1"><g transform="translate(594.620353, 429.142234)"><g><path d="M 13.484375 0.386719 C 16.488281 0.386719 22.210938 0.289062 25.121094 0 C 26.480469 -0.195312 27.742188 -1.261719 27.644531 -2.8125 C 27.351562 -6.109375 27.449219 -9.992188 27.839844 -12.707031 C 28.421875 -16.101562 31.523438 -17.554688 34.917969 -17.652344 L 38.605469 -17.652344 C 42.097656 -17.554688 45.199219 -16.296875 45.78125 -12.707031 C 46.074219 -9.894531 46.171875 -6.015625 45.976562 -2.910156 C 45.78125 -1.261719 47.042969 -0.195312 48.402344 0 C 51.214844 0.289062 56.648438 0.386719 59.167969 0.386719 C 61.789062 0.386719 67.511719 0.289062 70.324219 0 C 71.972656 -0.0976562 73.039062 -1.359375 72.652344 -3.007812 C 68.675781 -26.382812 60.042969 -51.894531 53.25 -66.25 C 52.863281 -67.21875 51.992188 -67.703125 50.921875 -67.898438 C 47.140625 -68.285156 40.253906 -68.285156 36.664062 -68.285156 C 32.980469 -68.285156 26.285156 -68.285156 22.699219 -67.898438 C 21.628906 -67.703125 20.757812 -67.21875 20.371094 -66.25 C 13.578125 -51.894531 4.851562 -26.382812 0.871094 -3.105469 C 0.484375 -1.453125 1.550781 -0.195312 3.296875 0 C 5.917969 0.195312 10.765625 0.386719 13.484375 0.386719 Z M 35.890625 -27.0625 C 32.882812 -27.160156 31.332031 -28.613281 32.007812 -31.039062 C 32.6875 -35.792969 33.949219 -41.804688 35.113281 -46.65625 C 36.082031 -49.757812 37.441406 -49.757812 38.3125 -46.65625 C 39.574219 -41.804688 40.933594 -35.792969 41.515625 -31.039062 C 42.195312 -28.613281 40.738281 -27.160156 37.730469 -27.0625 Z M 35.890625 -27.0625 "/></g></g></g><g fill="#5019dd" fill-opacity="1"><g transform="translate(668.14333, 429.142234)"><g><path d="M 28.808594 0.679688 C 37.34375 0.679688 42.777344 -3.199219 46.074219 -10.378906 C 47.238281 -12.996094 48.789062 -12.804688 48.691406 -9.992188 C 48.691406 -8.050781 48.402344 -4.945312 48.109375 -2.714844 C 47.917969 -1.164062 49.175781 -0.195312 50.828125 0 C 54.027344 0.289062 65.472656 0.289062 68.1875 0 C 69.839844 -0.0976562 70.90625 -1.261719 70.90625 -2.910156 C 70.90625 -13.289062 70.421875 -26.578125 69.546875 -36.664062 C 69.449219 -38.21875 68.285156 -39.382812 66.636719 -39.285156 C 59.945312 -38.992188 52.085938 -38.605469 45.394531 -38.21875 C 43.550781 -38.121094 42.871094 -36.566406 43.648438 -34.917969 C 44.714844 -33.367188 45.199219 -31.234375 45.199219 -28.613281 C 45.199219 -22.699219 41.222656 -18.914062 36.566406 -18.914062 C 30.652344 -18.816406 26.769531 -22.40625 26.769531 -31.234375 C 26.769531 -43.066406 32.785156 -48.886719 41.613281 -48.886719 C 48.597656 -48.886719 54.125 -46.851562 58.683594 -43.453125 C 60.042969 -42.195312 61.980469 -42.582031 62.273438 -44.714844 C 62.855469 -48.886719 63.824219 -57.132812 64.210938 -61.109375 C 64.40625 -62.464844 63.921875 -63.921875 62.5625 -64.699219 C 56.066406 -67.21875 47.433594 -68.675781 39.574219 -68.675781 C 16.878906 -68.578125 1.164062 -53.640625 1.164062 -30.84375 C 1.164062 -8.730469 12.609375 0.679688 28.808594 0.679688 Z M 28.808594 0.679688 "/></g></g></g><g fill="#5019dd" fill-opacity="1"><g transform="translate(740.79335, 429.142234)"><g><path d="M 31.71875 0.386719 C 40.738281 0.386719 57.132812 0.386719 63.628906 0 C 65.183594 -0.0976562 66.152344 -1.261719 66.152344 -2.714844 C 65.957031 -8.921875 65.375 -19.882812 64.601562 -26.1875 C 64.308594 -28.90625 61.300781 -29.292969 60.042969 -27.257812 C 54.996094 -19.691406 49.855469 -17.070312 39.769531 -17.070312 C 31.914062 -17.070312 26.867188 -19.496094 26.867188 -24.539062 L 26.867188 -26.09375 C 26.867188 -30.457031 30.457031 -32.105469 36.761719 -32.203125 C 41.320312 -32.300781 45.394531 -31.425781 49.953125 -29.195312 C 51.410156 -28.128906 53.058594 -28.90625 53.058594 -30.84375 L 53.15625 -38.703125 C 53.15625 -40.253906 51.796875 -41.417969 50.148438 -41.222656 C 45.394531 -41.03125 41.03125 -40.640625 36.566406 -40.640625 C 29.972656 -40.640625 26.867188 -42.195312 26.867188 -45.105469 L 26.867188 -45.589844 C 26.867188 -48.789062 30.167969 -51.019531 36.566406 -51.019531 C 44.617188 -51.019531 51.019531 -48.886719 56.355469 -44.714844 C 58.296875 -42.871094 60.527344 -43.648438 60.527344 -46.171875 C 60.429688 -51.019531 60.136719 -60.332031 59.847656 -65.28125 C 59.652344 -66.832031 58.683594 -67.800781 57.132812 -67.898438 C 51.601562 -68.1875 41.125 -68.285156 32.007812 -68.285156 C 25.316406 -68.285156 11.832031 -68.1875 7.273438 -67.898438 C 5.820312 -67.800781 4.65625 -66.929688 4.460938 -65.472656 C 3.105469 -50.4375 2.132812 -24.734375 1.941406 -2.8125 C 1.941406 -1.261719 3.199219 -0.0976562 4.753906 0 C 9.992188 0.386719 24.734375 0.386719 31.71875 0.386719 Z M 31.71875 0.386719 "/></g></g></g><g fill="#5019dd" fill-opacity="1"><g transform="translate(808.593549, 429.142234)"><g><path d="M 59.847656 0.777344 C 67.121094 0.777344 69.644531 -4.945312 69.546875 -12.511719 C 69.449219 -34.144531 68.285156 -52.476562 67.121094 -65.375 C 66.929688 -66.832031 65.765625 -67.703125 64.308594 -67.898438 C 61.691406 -68.1875 57.808594 -68.285156 55.578125 -68.285156 C 53.25 -68.285156 49.371094 -68.1875 46.945312 -67.898438 C 45.105469 -67.605469 43.84375 -66.152344 44.230469 -64.308594 C 45.78125 -56.648438 47.917969 -40.253906 44.035156 -40.253906 C 39.476562 -40.253906 30.941406 -56.648438 26.867188 -64.019531 C 24.832031 -66.636719 23.28125 -67.605469 20.464844 -67.898438 C 18.527344 -68.1875 15.90625 -68.285156 14.257812 -68.285156 C 12.804688 -68.285156 8.921875 -68.1875 7.273438 -67.898438 C 5.820312 -67.605469 4.753906 -66.832031 4.65625 -65.375 C 3.296875 -51.019531 1.941406 -26.1875 1.941406 -2.910156 C 1.941406 -1.359375 3.199219 -0.289062 4.753906 0 C 7.761719 0.386719 12.222656 0.386719 14.742188 0.386719 C 17.460938 0.386719 22.503906 0.386719 25.414062 0 C 27.160156 -0.289062 28.515625 -1.359375 28.226562 -3.296875 C 27.839844 -7.761719 26.675781 -16.199219 26.675781 -21.339844 C 26.769531 -25.605469 27.546875 -28.710938 29.488281 -28.710938 C 36.375 -28.710938 43.746094 0.777344 59.847656 0.777344 Z M 59.847656 0.777344 "/></g></g></g><g fill="#5019dd" fill-opacity="1"><g transform="translate(880.079613, 429.142234)"><g><path d="M 33.753906 0.777344 C 56.839844 0.777344 69.839844 -7.855469 69.839844 -30.261719 C 69.839844 -54.609375 53.738281 -68.285156 30.554688 -68.285156 C 22.988281 -68.285156 14.160156 -68.285156 7.179688 -67.898438 C 5.625 -67.800781 4.558594 -66.734375 4.460938 -65.375 C 3.296875 -50.921875 1.941406 -26.09375 1.941406 -3.007812 C 1.941406 -1.359375 3.105469 -0.0976562 4.558594 0 C 9.796875 0.386719 25.023438 0.777344 33.753906 0.777344 Z M 30.652344 -20.464844 C 28.515625 -20.464844 27.257812 -21.921875 27.160156 -24.636719 C 27.0625 -30.84375 26.964844 -38.992188 27.160156 -45.199219 C 27.257812 -47.335938 28.421875 -48.691406 30.261719 -48.789062 L 32.785156 -48.789062 C 40.351562 -48.789062 45.199219 -42.289062 45.199219 -31.425781 C 45.199219 -23.667969 40.15625 -20.371094 33.753906 -20.371094 C 32.6875 -20.371094 31.621094 -20.371094 30.652344 -20.464844 Z M 30.652344 -20.464844 "/></g></g></g><g fill="#5019dd" fill-opacity="1"><g transform="translate(951.177724, 429.142234)"><g><path d="M 13.484375 0.386719 C 16.488281 0.386719 22.210938 0.289062 25.121094 0 C 26.480469 -0.195312 27.742188 -1.261719 27.644531 -2.8125 C 27.351562 -6.109375 27.449219 -9.992188 27.839844 -12.707031 C 28.421875 -16.101562 31.523438 -17.554688 34.917969 -17.652344 L 38.605469 -17.652344 C 42.097656 -17.554688 45.199219 -16.296875 45.78125 -12.707031 C 46.074219 -9.894531 46.171875 -6.015625 45.976562 -2.910156 C 45.78125 -1.261719 47.042969 -0.195312 48.402344 0 C 51.214844 0.289062 56.648438 0.386719 59.167969 0.386719 C 61.789062 0.386719 67.511719 0.289062 70.324219 0 C 71.972656 -0.0976562 73.039062 -1.359375 72.652344 -3.007812 C 68.675781 -26.382812 60.042969 -51.894531 53.25 -66.25 C 52.863281 -67.21875 51.992188 -67.703125 50.921875 -67.898438 C 47.140625 -68.285156 40.253906 -68.285156 36.664062 -68.285156 C 32.980469 -68.285156 26.285156 -68.285156 22.699219 -67.898438 C 21.628906 -67.703125 20.757812 -67.21875 20.371094 -66.25 C 13.578125 -51.894531 4.851562 -26.382812 0.871094 -3.105469 C 0.484375 -1.453125 1.550781 -0.195312 3.296875 0 C 5.917969 0.195312 10.765625 0.386719 13.484375 0.386719 Z M 35.890625 -27.0625 C 32.882812 -27.160156 31.332031 -28.613281 32.007812 -31.039062 C 32.6875 -35.792969 33.949219 -41.804688 35.113281 -46.65625 C 36.082031 -49.757812 37.441406 -49.757812 38.3125 -46.65625 C 39.574219 -41.804688 40.933594 -35.792969 41.515625 -31.039062 C 42.195312 -28.613281 40.738281 -27.160156 37.730469 -27.0625 Z M 35.890625 -27.0625 "/></g></g></g><g fill="#5019dd" fill-opacity="1"><g transform="translate(1024.7007, 429.142234)"><g><path d="M 14.550781 0.386719 C 16.972656 0.386719 22.890625 0.386719 25.605469 0 C 27.160156 -0.195312 28.421875 -1.261719 28.226562 -3.105469 C 27.644531 -8.921875 27.0625 -18.234375 27.160156 -23.863281 C 27.257812 -31.523438 28.226562 -35.792969 29.875 -35.792969 C 31.914062 -35.792969 33.269531 -31.234375 34.726562 -25.414062 C 35.695312 -21.921875 36.859375 -18.042969 38.023438 -14.453125 C 39.476562 -10.085938 41.515625 -7.566406 45.105469 -7.566406 C 48.691406 -7.566406 50.921875 -9.699219 52.378906 -14.453125 C 53.347656 -17.945312 54.511719 -21.535156 55.484375 -25.023438 C 57.132812 -31.136719 58.296875 -36.082031 60.429688 -36.082031 C 62.078125 -36.082031 63.046875 -31.914062 63.144531 -24.25 C 63.242188 -18.527344 62.757812 -9.019531 62.078125 -3.105469 C 61.882812 -1.261719 63.144531 -0.195312 64.699219 0 C 67.414062 0.386719 73.425781 0.386719 75.949219 0.386719 C 78.375 0.386719 83.417969 0.289062 86.132812 0 C 87.6875 -0.195312 88.851562 -1.359375 88.851562 -3.007812 C 88.269531 -26.285156 85.164062 -51.019531 83.125 -65.472656 C 82.835938 -66.832031 81.769531 -67.703125 80.3125 -67.898438 C 77.210938 -68.1875 72.070312 -68.285156 69.351562 -68.285156 C 66.636719 -68.285156 61.789062 -68.1875 59.070312 -67.898438 C 56.742188 -67.605469 55.191406 -66.636719 54.511719 -64.117188 C 53.542969 -60.816406 51.992188 -54.125 50.632812 -48.691406 C 48.984375 -42.96875 47.140625 -38.507812 45.199219 -38.507812 C 43.164062 -38.507812 41.222656 -42.96875 39.476562 -49.175781 C 38.21875 -54.027344 36.761719 -60.914062 35.890625 -64.117188 C 35.113281 -66.636719 33.5625 -67.605469 31.234375 -67.898438 C 28.515625 -68.1875 23.667969 -68.285156 20.855469 -68.285156 C 18.136719 -68.285156 12.707031 -68.1875 9.992188 -67.898438 C 8.535156 -67.703125 7.46875 -66.832031 7.179688 -65.472656 C 5.140625 -51.117188 2.035156 -26.285156 1.453125 -3.007812 C 1.453125 -1.359375 2.617188 -0.195312 4.171875 0 C 6.984375 0.289062 12.027344 0.386719 14.550781 0.386719 Z M 14.550781 0.386719 "/></g></g></g><g fill="#5019dd" fill-opacity="1"><g transform="translate(1115.00401, 429.142234)"><g><path d="M 31.71875 0.386719 C 40.738281 0.386719 57.132812 0.386719 63.628906 0 C 65.183594 -0.0976562 66.152344 -1.261719 66.152344 -2.714844 C 65.957031 -8.921875 65.375 -19.882812 64.601562 -26.1875 C 64.308594 -28.90625 61.300781 -29.292969 60.042969 -27.257812 C 54.996094 -19.691406 49.855469 -17.070312 39.769531 -17.070312 C 31.914062 -17.070312 26.867188 -19.496094 26.867188 -24.539062 L 26.867188 -26.09375 C 26.867188 -30.457031 30.457031 -32.105469 36.761719 -32.203125 C 41.320312 -32.300781 45.394531 -31.425781 49.953125 -29.195312 C 51.410156 -28.128906 53.058594 -28.90625 53.058594 -30.84375 L 53.15625 -38.703125 C 53.15625 -40.253906 51.796875 -41.417969 50.148438 -41.222656 C 45.394531 -41.03125 41.03125 -40.640625 36.566406 -40.640625 C 29.972656 -40.640625 26.867188 -42.195312 26.867188 -45.105469 L 26.867188 -45.589844 C 26.867188 -48.789062 30.167969 -51.019531 36.566406 -51.019531 C 44.617188 -51.019531 51.019531 -48.886719 56.355469 -44.714844 C 58.296875 -42.871094 60.527344 -43.648438 60.527344 -46.171875 C 60.429688 -51.019531 60.136719 -60.332031 59.847656 -65.28125 C 59.652344 -66.832031 58.683594 -67.800781 57.132812 -67.898438 C 51.601562 -68.1875 41.125 -68.285156 32.007812 -68.285156 C 25.316406 -68.285156 11.832031 -68.1875 7.273438 -67.898438 C 5.820312 -67.800781 4.65625 -66.929688 4.460938 -65.472656 C 3.105469 -50.4375 2.132812 -24.734375 1.941406 -2.8125 C 1.941406 -1.261719 3.199219 -0.0976562 4.753906 0 C 9.992188 0.386719 24.734375 0.386719 31.71875 0.386719 Z M 31.71875 0.386719 "/></g></g></g><g fill="#5019dd" fill-opacity="1"><g transform="translate(1182.804208, 429.142234)"><g><path d="M 59.847656 0.777344 C 67.121094 0.777344 69.644531 -4.945312 69.546875 -12.511719 C 69.449219 -34.144531 68.285156 -52.476562 67.121094 -65.375 C 66.929688 -66.832031 65.765625 -67.703125 64.308594 -67.898438 C 61.691406 -68.1875 57.808594 -68.285156 55.578125 -68.285156 C 53.25 -68.285156 49.371094 -68.1875 46.945312 -67.898438 C 45.105469 -67.605469 43.84375 -66.152344 44.230469 -64.308594 C 45.78125 -56.648438 47.917969 -40.253906 44.035156 -40.253906 C 39.476562 -40.253906 30.941406 -56.648438 26.867188 -64.019531 C 24.832031 -66.636719 23.28125 -67.605469 20.464844 -67.898438 C 18.527344 -68.1875 15.90625 -68.285156 14.257812 -68.285156 C 12.804688 -68.285156 8.921875 -68.1875 7.273438 -67.898438 C 5.820312 -67.605469 4.753906 -66.832031 4.65625 -65.375 C 3.296875 -51.019531 1.941406 -26.1875 1.941406 -2.910156 C 1.941406 -1.359375 3.199219 -0.289062 4.753906 0 C 7.761719 0.386719 12.222656 0.386719 14.742188 0.386719 C 17.460938 0.386719 22.503906 0.386719 25.414062 0 C 27.160156 -0.289062 28.515625 -1.359375 28.226562 -3.296875 C 27.839844 -7.761719 26.675781 -16.199219 26.675781 -21.339844 C 26.769531 -25.605469 27.546875 -28.710938 29.488281 -28.710938 C 36.375 -28.710938 43.746094 0.777344 59.847656 0.777344 Z M 59.847656 0.777344 "/></g></g></g><g fill="#5019dd" fill-opacity="1"><g transform="translate(1254.290227, 429.142234)"><g><path d="M 33.269531 0.289062 C 36.082031 0.289062 42.195312 0.289062 45.199219 -0.0976562 C 46.945312 -0.289062 48.109375 -1.746094 47.917969 -3.296875 C 46.363281 -15.8125 44.425781 -36.375 43.648438 -44.035156 C 42.96875 -47.917969 44.8125 -49.757812 47.335938 -49.757812 C 51.992188 -49.757812 57.808594 -45.394531 61.300781 -42.582031 C 62.660156 -41.03125 65.085938 -41.613281 65.085938 -44.328125 C 65.085938 -47.433594 64.601562 -61.011719 64.210938 -65.375 C 64.019531 -66.929688 63.046875 -67.800781 61.398438 -67.898438 C 54.222656 -68.285156 40.738281 -68.285156 33.074219 -68.285156 C 25.023438 -68.285156 11.832031 -68.285156 4.65625 -67.898438 C 3.007812 -67.800781 2.035156 -66.929688 1.84375 -65.375 C 1.550781 -61.011719 1.066406 -47.820312 0.96875 -44.523438 C 0.96875 -41.707031 3.394531 -41.03125 4.753906 -42.582031 C 8.246094 -45.394531 14.355469 -49.757812 18.914062 -49.757812 C 21.4375 -49.757812 23.183594 -47.917969 22.601562 -44.035156 C 21.824219 -36.277344 19.882812 -15.8125 18.332031 -3.296875 C 18.136719 -1.746094 19.300781 -0.289062 21.046875 -0.0976562 C 24.054688 0.195312 30.457031 0.289062 33.269531 0.289062 Z M 33.269531 0.289062 "/></g></g></g><g fill="#5019dd" fill-opacity="1"><g transform="translate(1320.344515, 429.142234)"><g><path d="M 36.957031 0.777344 C 58.296875 0.777344 72.75 -7.273438 72.75 -31.039062 C 72.75 -54.511719 58.390625 -68.675781 36.957031 -68.675781 C 15.617188 -68.578125 1.164062 -54.511719 1.164062 -31.039062 C 1.164062 -7.273438 15.714844 0.777344 36.957031 0.777344 Z M 36.957031 -19.109375 C 30.941406 -19.109375 26.769531 -22.699219 26.769531 -32.007812 C 26.769531 -41.417969 30.75 -48.789062 36.957031 -48.789062 C 43.164062 -48.789062 47.140625 -41.515625 47.140625 -32.007812 C 47.140625 -22.699219 42.96875 -19.109375 36.957031 -19.109375 Z M 36.957031 -19.109375 "/></g></g></g><g clip-path="url(#58be224997)"><g clip-path="url(#d864b8cfd2)"><g clip-path="url(#fcb879048f)"><path fill="#7ed957" d="M 16.609375 358.519531 C 22.078125 361.984375 24.460938 368.035156 21.929688 372.035156 C 19.398438 376.03125 12.90625 376.464844 7.4375 373 C 1.964844 369.535156 -0.417969 363.484375 2.113281 359.484375 C 4.648438 355.484375 11.136719 355.054688 16.609375 358.519531 Z M 71.753906 370.304688 C 70.210938 371.527344 68.492188 372.40625 66.601562 372.945312 C 64.707031 373.480469 62.78125 373.632812 60.828125 373.402344 C 60.46875 373.359375 60.109375 373.355469 59.75 373.382812 C 59.390625 373.410156 59.039062 373.472656 58.691406 373.574219 C 58.34375 373.671875 58.011719 373.800781 57.6875 373.964844 C 57.367188 374.128906 57.066406 374.324219 56.78125 374.546875 C 56.5 374.769531 56.242188 375.019531 56.007812 375.292969 C 55.773438 375.570312 55.570312 375.863281 55.394531 376.179688 C 55.21875 376.492188 55.074219 376.824219 54.964844 377.167969 C 54.851562 377.507812 54.777344 377.859375 54.734375 378.21875 C 54.621094 379.1875 54.414062 380.132812 54.113281 381.0625 C 53.816406 381.988281 53.425781 382.875 52.953125 383.726562 C 52.476562 384.578125 51.921875 385.375 51.292969 386.117188 C 50.660156 386.859375 49.960938 387.53125 49.195312 388.136719 C 48.433594 388.738281 47.617188 389.261719 46.75 389.707031 C 45.878906 390.152344 44.976562 390.503906 44.039062 390.769531 C 43.101562 391.035156 42.148438 391.207031 41.175781 391.285156 C 40.207031 391.363281 39.234375 391.34375 38.269531 391.230469 C 37.300781 391.117188 36.351562 390.914062 35.425781 390.613281 C 34.5 390.3125 33.609375 389.925781 32.757812 389.449219 C 31.90625 388.972656 31.113281 388.421875 30.371094 387.789062 C 29.628906 387.15625 28.953125 386.457031 28.351562 385.695312 C 27.746094 384.929688 27.222656 384.113281 26.777344 383.246094 C 26.335938 382.378906 25.980469 381.476562 25.714844 380.539062 C 25.449219 379.601562 25.277344 378.644531 25.199219 377.675781 C 25.121094 376.703125 25.140625 375.734375 25.253906 374.765625 C 25.386719 373.621094 25.578125 372.484375 25.820312 371.359375 C 26.066406 370.234375 26.367188 369.125 26.722656 368.027344 C 27.074219 366.933594 27.484375 365.855469 27.941406 364.800781 C 28.402344 363.742188 28.914062 362.710938 29.476562 361.707031 C 30.035156 360.699219 30.644531 359.722656 31.304688 358.777344 C 31.960938 357.832031 32.664062 356.921875 33.410156 356.042969 C 34.15625 355.167969 34.945312 354.328125 35.773438 353.527344 C 36.605469 352.730469 37.472656 351.972656 38.375 351.257812 C 39.277344 350.542969 40.214844 349.875 41.183594 349.253906 C 42.152344 348.628906 43.152344 348.058594 44.175781 347.53125 C 45.203125 347.007812 46.253906 346.535156 47.324219 346.113281 C 48.398438 345.695312 49.488281 345.328125 50.597656 345.011719 C 51.703125 344.699219 52.824219 344.441406 53.960938 344.234375 C 55.09375 344.03125 56.234375 343.882812 57.382812 343.792969 C 58.53125 343.703125 59.679688 343.667969 60.832031 343.6875 C 61.984375 343.710938 63.132812 343.789062 64.277344 343.921875 C 65.003906 344.007812 65.71875 344.144531 66.421875 344.335938 C 67.125 344.523438 67.8125 344.765625 68.480469 345.058594 C 69.152344 345.347656 69.796875 345.6875 70.414062 346.074219 C 71.035156 346.460938 71.621094 346.890625 72.175781 347.363281 C 72.730469 347.835938 73.25 348.347656 73.730469 348.898438 C 74.210938 349.449219 74.648438 350.03125 75.042969 350.644531 C 75.4375 351.257812 75.78125 351.898438 76.082031 352.5625 C 76.382812 353.230469 76.632812 353.914062 76.832031 354.613281 C 77.03125 355.316406 77.175781 356.03125 77.269531 356.753906 C 77.363281 357.476562 77.40625 358.203125 77.390625 358.933594 C 77.378906 359.664062 77.3125 360.386719 77.191406 361.109375 C 77.070312 361.828125 76.898438 362.535156 76.671875 363.230469 C 76.449219 363.925781 76.171875 364.597656 75.847656 365.253906 C 75.527344 365.90625 75.15625 366.53125 74.738281 367.132812 C 74.320312 367.730469 73.863281 368.296875 73.363281 368.828125 C 72.863281 369.359375 72.328125 369.851562 71.753906 370.304688 Z M 26.070312 338.089844 C 31.191406 343.441406 32.167969 350.8125 28.261719 354.550781 C 24.347656 358.292969 17.027344 356.988281 11.910156 351.636719 C 6.792969 346.285156 5.8125 338.917969 9.726562 335.175781 C 13.632812 331.4375 20.953125 332.742188 26.070312 338.089844 Z M 28.40625 336.246094 C 32.429688 342.460938 39.375 345.117188 43.917969 342.175781 C 48.457031 339.238281 48.878906 331.8125 44.855469 325.597656 C 40.832031 319.382812 33.886719 316.726562 29.34375 319.667969 C 24.804688 322.609375 24.382812 330.03125 28.40625 336.246094 Z M 50.46875 331.757812 C 52.574219 337.878906 57.914062 341.597656 62.386719 340.054688 C 66.863281 338.515625 68.78125 332.300781 66.675781 326.179688 C 64.566406 320.054688 59.230469 316.339844 54.753906 317.878906 C 50.277344 319.417969 48.359375 325.632812 50.46875 331.757812 Z M 50.46875 331.757812 " fill-opacity="1" fill-rule="nonzero"/></g></g></g><g clip-path="url(#e900abc9fb)"><g clip-path="url(#e03d2821fb)"><g clip-path="url(#6896c4dd9e)"><path fill="#5019dd" d="M 18.378906 358.144531 C 23.441406 361.347656 25.644531 366.945312 23.300781 370.640625 C 20.960938 374.339844 14.957031 374.738281 9.898438 371.535156 C 4.835938 368.328125 2.632812 362.734375 4.976562 359.035156 C 7.320312 355.335938 13.320312 354.9375 18.378906 358.144531 Z M 69.382812 369.042969 C 67.957031 370.171875 66.367188 370.984375 64.613281 371.484375 C 62.863281 371.980469 61.082031 372.121094 59.277344 371.90625 C 58.945312 371.867188 58.613281 371.863281 58.28125 371.886719 C 57.949219 371.914062 57.621094 371.972656 57.300781 372.0625 C 56.980469 372.15625 56.671875 372.277344 56.375 372.429688 C 56.078125 372.578125 55.796875 372.757812 55.535156 372.964844 C 55.273438 373.171875 55.035156 373.402344 54.820312 373.65625 C 54.601562 373.910156 54.414062 374.183594 54.25 374.472656 C 54.085938 374.765625 53.957031 375.070312 53.851562 375.386719 C 53.75 375.703125 53.679688 376.027344 53.640625 376.359375 C 53.535156 377.253906 53.34375 378.132812 53.066406 378.988281 C 52.789062 379.847656 52.433594 380.667969 51.992188 381.457031 C 51.554688 382.242188 51.039062 382.980469 50.457031 383.664062 C 49.871094 384.351562 49.226562 384.972656 48.519531 385.53125 C 47.8125 386.089844 47.058594 386.574219 46.253906 386.984375 C 45.453125 387.394531 44.617188 387.722656 43.75 387.96875 C 42.882812 388.214844 42 388.375 41.101562 388.445312 C 40.203125 388.519531 39.308594 388.5 38.410156 388.394531 C 37.515625 388.292969 36.640625 388.101562 35.78125 387.824219 C 34.925781 387.546875 34.101562 387.1875 33.316406 386.746094 C 32.53125 386.308594 31.792969 385.796875 31.105469 385.210938 C 30.421875 384.628906 29.796875 383.980469 29.238281 383.273438 C 28.679688 382.566406 28.195312 381.8125 27.785156 381.011719 C 27.375 380.207031 27.046875 379.371094 26.804688 378.503906 C 26.558594 377.636719 26.398438 376.757812 26.328125 375.859375 C 26.253906 374.960938 26.269531 374.0625 26.375 373.167969 C 26.5 372.109375 26.675781 371.058594 26.902344 370.019531 C 27.128906 368.976562 27.40625 367.949219 27.734375 366.9375 C 28.0625 365.921875 28.4375 364.925781 28.863281 363.949219 C 29.289062 362.972656 29.761719 362.019531 30.28125 361.089844 C 30.800781 360.160156 31.363281 359.257812 31.972656 358.382812 C 32.578125 357.507812 33.230469 356.664062 33.917969 355.851562 C 34.609375 355.042969 35.339844 354.265625 36.105469 353.527344 C 36.875 352.789062 37.675781 352.085938 38.511719 351.425781 C 39.347656 350.765625 40.210938 350.148438 41.109375 349.570312 C 42.007812 348.996094 42.929688 348.464844 43.878906 347.980469 C 44.828125 347.496094 45.796875 347.058594 46.789062 346.671875 C 47.78125 346.28125 48.789062 345.941406 49.8125 345.652344 C 50.839844 345.359375 51.875 345.121094 52.925781 344.933594 C 53.972656 344.742188 55.027344 344.605469 56.089844 344.523438 C 57.152344 344.4375 58.214844 344.40625 59.28125 344.425781 C 60.347656 344.445312 61.410156 344.515625 62.464844 344.640625 C 63.816406 344.800781 65.109375 345.148438 66.355469 345.691406 C 67.597656 346.234375 68.738281 346.945312 69.773438 347.824219 C 70.804688 348.707031 71.6875 349.714844 72.421875 350.859375 C 73.15625 352 73.707031 353.226562 74.078125 354.53125 C 74.445312 355.835938 74.621094 357.167969 74.59375 358.527344 C 74.570312 359.882812 74.347656 361.207031 73.929688 362.5 C 73.511719 363.789062 72.917969 364.992188 72.140625 366.109375 C 71.367188 367.222656 70.445312 368.199219 69.382812 369.042969 Z M 27.132812 339.25 C 31.867188 344.199219 32.773438 351.015625 29.15625 354.472656 C 25.539062 357.933594 18.769531 356.726562 14.035156 351.777344 C 9.300781 346.828125 8.394531 340.015625 12.015625 336.554688 C 15.628906 333.09375 22.398438 334.300781 27.132812 339.25 Z M 29.292969 337.542969 C 33.011719 343.292969 39.433594 345.75 43.636719 343.027344 C 47.835938 340.308594 48.226562 333.445312 44.503906 327.695312 C 40.785156 321.945312 34.363281 319.492188 30.160156 322.210938 C 25.960938 324.929688 25.570312 331.796875 29.292969 337.542969 Z M 49.695312 333.390625 C 51.644531 339.054688 56.578125 342.492188 60.71875 341.066406 C 64.859375 339.640625 66.632812 333.894531 64.683594 328.230469 C 62.734375 322.570312 57.800781 319.132812 53.660156 320.554688 C 49.519531 321.980469 47.746094 327.726562 49.695312 333.390625 Z M 49.695312 333.390625 " fill-opacity="1" fill-rule="nonzero"/></g></g></g></svg>