<svg xmlns="http://www.w3.org/2000/svg" xmlns:xlink="http://www.w3.org/1999/xlink" width="1920" zoomAndPan="magnify" viewBox="0 0 1440 809.999993" height="1080" preserveAspectRatio="xMidYMid meet" version="1.0"><defs><g/><clipPath id="42a5eb9dc8"><path d="M 1013 345 L 1091 345 L 1091 412 L 1013 412 Z M 1013 345 " clip-rule="nonzero"/></clipPath><clipPath id="b6d60c378e"><path d="M 1011.398438 345.117188 L 1090.890625 344.03125 L 1091.820312 412.277344 L 1012.328125 413.359375 Z M 1011.398438 345.117188 " clip-rule="nonzero"/></clipPath><clipPath id="34232d0786"><path d="M 1011.398438 345.117188 L 1090.890625 344.03125 L 1091.820312 412.277344 L 1012.328125 413.359375 Z M 1011.398438 345.117188 " clip-rule="nonzero"/></clipPath><clipPath id="c8510bcf76"><path d="M 1015 347 L 1088 347 L 1088 410 L 1015 410 Z M 1015 347 " clip-rule="nonzero"/></clipPath><clipPath id="f87996b2b3"><path d="M 1014.4375 347.644531 L 1087.929688 346.640625 L 1088.789062 409.636719 L 1015.296875 410.636719 Z M 1014.4375 347.644531 " clip-rule="nonzero"/></clipPath><clipPath id="e42b0e10e9"><path d="M 1014.4375 347.644531 L 1087.929688 346.640625 L 1088.789062 409.636719 L 1015.296875 410.636719 Z M 1014.4375 347.644531 " clip-rule="nonzero"/></clipPath><clipPath id="e9372e9364"><path d="M 256 308 L 334 308 L 334 382 L 256 382 Z M 256 308 " clip-rule="nonzero"/></clipPath><clipPath id="7cbd6116af"><path d="M 243.261719 342.015625 L 305.628906 292.71875 L 347.953125 346.261719 L 285.582031 395.558594 Z M 243.261719 342.015625 " clip-rule="nonzero"/></clipPath><clipPath id="501eda23f9"><path d="M 243.261719 342.015625 L 305.628906 292.71875 L 347.953125 346.261719 L 285.582031 395.558594 Z M 243.261719 342.015625 " clip-rule="nonzero"/></clipPath><clipPath id="b3b566dd4c"><path d="M 259 310 L 331 310 L 331 380 L 259 380 Z M 259 310 " clip-rule="nonzero"/></clipPath><clipPath id="ec73276eab"><path d="M 247.210938 342.171875 L 304.875 296.59375 L 343.9375 346.019531 L 286.277344 391.59375 Z M 247.210938 342.171875 " clip-rule="nonzero"/></clipPath><clipPath id="dac47a19b4"><path d="M 247.210938 342.171875 L 304.875 296.59375 L 343.9375 346.019531 L 286.277344 391.59375 Z M 247.210938 342.171875 " clip-rule="nonzero"/></clipPath></defs><g clip-path="url(#42a5eb9dc8)"><g clip-path="url(#b6d60c378e)"><g clip-path="url(#34232d0786)"><path fill="#7ed957" d="M 1030.0625 368.351562 C 1032.292969 374.433594 1030.492188 380.683594 1026.046875 382.308594 C 1021.605469 383.9375 1016.195312 380.324219 1013.96875 374.246094 C 1011.742188 368.164062 1013.539062 361.914062 1017.984375 360.285156 C 1022.429688 358.65625 1027.835938 362.269531 1030.0625 368.351562 Z M 1066.609375 411.300781 C 1064.640625 411.328125 1062.742188 410.980469 1060.914062 410.25 C 1059.085938 409.523438 1057.464844 408.472656 1056.054688 407.097656 C 1055.796875 406.84375 1055.519531 406.621094 1055.214844 406.425781 C 1054.914062 406.226562 1054.59375 406.0625 1054.257812 405.929688 C 1053.925781 405.796875 1053.578125 405.695312 1053.226562 405.632812 C 1052.871094 405.566406 1052.511719 405.535156 1052.152344 405.539062 C 1051.792969 405.546875 1051.433594 405.585938 1051.082031 405.660156 C 1050.730469 405.734375 1050.386719 405.84375 1050.054688 405.988281 C 1049.726562 406.128906 1049.410156 406.304688 1049.113281 406.507812 C 1048.816406 406.710938 1048.542969 406.945312 1048.292969 407.203125 C 1047.613281 407.902344 1046.871094 408.527344 1046.066406 409.078125 C 1045.265625 409.628906 1044.414062 410.097656 1043.519531 410.484375 C 1042.625 410.871094 1041.703125 411.164062 1040.75 411.367188 C 1039.796875 411.570312 1038.832031 411.679688 1037.855469 411.691406 C 1036.882812 411.703125 1035.917969 411.621094 1034.957031 411.445312 C 1034 411.269531 1033.066406 411 1032.164062 410.640625 C 1031.257812 410.277344 1030.394531 409.832031 1029.578125 409.300781 C 1028.761719 408.773438 1028.003906 408.167969 1027.304688 407.488281 C 1026.605469 406.808594 1025.980469 406.066406 1025.429688 405.261719 C 1024.875 404.460938 1024.40625 403.613281 1024.023438 402.714844 C 1023.636719 401.820312 1023.34375 400.898438 1023.140625 399.945312 C 1022.9375 398.992188 1022.828125 398.027344 1022.816406 397.054688 C 1022.800781 396.078125 1022.882812 395.113281 1023.0625 394.152344 C 1023.238281 393.195312 1023.507812 392.265625 1023.867188 391.359375 C 1024.230469 390.453125 1024.675781 389.59375 1025.203125 388.773438 C 1025.734375 387.957031 1026.339844 387.199219 1027.019531 386.5 C 1027.824219 385.675781 1028.664062 384.890625 1029.546875 384.148438 C 1030.425781 383.402344 1031.339844 382.707031 1032.289062 382.050781 C 1033.238281 381.398438 1034.214844 380.792969 1035.226562 380.238281 C 1036.234375 379.679688 1037.265625 379.175781 1038.324219 378.71875 C 1039.382812 378.261719 1040.460938 377.859375 1041.558594 377.511719 C 1042.65625 377.160156 1043.769531 376.867188 1044.894531 376.625 C 1046.023438 376.386719 1047.15625 376.203125 1048.300781 376.074219 C 1049.449219 375.945312 1050.597656 375.871094 1051.746094 375.855469 C 1052.898438 375.839844 1054.050781 375.882812 1055.199219 375.980469 C 1056.34375 376.078125 1057.484375 376.230469 1058.617188 376.4375 C 1059.75 376.648438 1060.871094 376.914062 1061.976562 377.234375 C 1063.085938 377.550781 1064.171875 377.925781 1065.242188 378.351562 C 1066.3125 378.777344 1067.359375 379.257812 1068.382812 379.785156 C 1069.40625 380.316406 1070.402344 380.894531 1071.367188 381.519531 C 1072.335938 382.148438 1073.269531 382.820312 1074.167969 383.539062 C 1075.066406 384.257812 1075.929688 385.019531 1076.757812 385.824219 C 1077.28125 386.332031 1077.761719 386.875 1078.207031 387.457031 C 1078.648438 388.039062 1079.046875 388.648438 1079.398438 389.285156 C 1079.75 389.925781 1080.054688 390.585938 1080.308594 391.269531 C 1080.566406 391.953125 1080.769531 392.652344 1080.921875 393.367188 C 1081.074219 394.078125 1081.171875 394.800781 1081.21875 395.53125 C 1081.265625 396.257812 1081.257812 396.984375 1081.195312 397.710938 C 1081.132812 398.441406 1081.019531 399.160156 1080.851562 399.871094 C 1080.683594 400.578125 1080.464844 401.273438 1080.195312 401.953125 C 1079.925781 402.628906 1079.605469 403.285156 1079.238281 403.914062 C 1078.871094 404.546875 1078.460938 405.148438 1078.007812 405.71875 C 1077.550781 406.289062 1077.054688 406.820312 1076.523438 407.320312 C 1075.988281 407.816406 1075.421875 408.273438 1074.820312 408.6875 C 1074.21875 409.101562 1073.589844 409.46875 1072.933594 409.789062 C 1072.277344 410.109375 1071.601562 410.378906 1070.90625 410.601562 C 1070.210938 410.824219 1069.503906 410.992188 1068.785156 411.109375 C 1068.0625 411.226562 1067.339844 411.289062 1066.609375 411.300781 Z M 1050.015625 357.921875 C 1050.8125 365.28125 1047.097656 371.722656 1041.71875 372.304688 C 1036.339844 372.886719 1031.332031 367.394531 1030.53125 360.03125 C 1029.734375 352.671875 1033.449219 346.230469 1038.832031 345.648438 C 1044.207031 345.066406 1049.214844 350.558594 1050.015625 357.921875 Z M 1052.992188 357.878906 C 1052.394531 365.257812 1056.28125 371.597656 1061.675781 372.035156 C 1067.070312 372.46875 1071.925781 366.839844 1072.523438 359.460938 C 1073.121094 352.078125 1069.230469 345.742188 1063.835938 345.308594 C 1058.445312 344.871094 1053.585938 350.5 1052.992188 357.878906 Z M 1073.21875 367.761719 C 1071.15625 373.902344 1073.125 380.101562 1077.613281 381.605469 C 1082.101562 383.113281 1087.410156 379.355469 1089.46875 373.214844 C 1091.53125 367.074219 1089.5625 360.878906 1085.074219 359.371094 C 1080.585938 357.867188 1075.277344 361.621094 1073.21875 367.761719 Z M 1073.21875 367.761719 " fill-opacity="1" fill-rule="nonzero"/></g></g></g><g clip-path="url(#c8510bcf76)"><g clip-path="url(#f87996b2b3)"><g clip-path="url(#e42b0e10e9)"><path fill="#5019dd" d="M 1031.699219 369.128906 C 1033.761719 374.753906 1032.097656 380.535156 1027.984375 382.039062 C 1023.875 383.542969 1018.871094 380.203125 1016.8125 374.578125 C 1014.753906 368.953125 1016.417969 363.175781 1020.527344 361.667969 C 1024.640625 360.164062 1029.640625 363.503906 1031.699219 369.128906 Z M 1065.5 408.847656 C 1063.679688 408.875 1061.921875 408.554688 1060.230469 407.878906 C 1058.539062 407.207031 1057.042969 406.234375 1055.738281 404.960938 C 1055.5 404.730469 1055.242188 404.523438 1054.960938 404.339844 C 1054.683594 404.160156 1054.386719 404.007812 1054.078125 403.882812 C 1053.769531 403.757812 1053.449219 403.667969 1053.121094 403.605469 C 1052.792969 403.546875 1052.460938 403.519531 1052.128906 403.523438 C 1051.796875 403.527344 1051.464844 403.5625 1051.140625 403.632812 C 1050.8125 403.703125 1050.496094 403.804688 1050.191406 403.9375 C 1049.882812 404.066406 1049.59375 404.230469 1049.320312 404.417969 C 1049.042969 404.605469 1048.789062 404.820312 1048.558594 405.058594 C 1047.929688 405.707031 1047.242188 406.285156 1046.5 406.796875 C 1045.757812 407.304688 1044.972656 407.738281 1044.144531 408.09375 C 1043.316406 408.453125 1042.464844 408.722656 1041.582031 408.910156 C 1040.699219 409.097656 1039.808594 409.199219 1038.90625 409.210938 C 1038.007812 409.222656 1037.113281 409.148438 1036.226562 408.984375 C 1035.339844 408.820312 1034.480469 408.570312 1033.640625 408.238281 C 1032.804688 407.90625 1032.007812 407.492188 1031.25 407.003906 C 1030.496094 406.511719 1029.792969 405.953125 1029.148438 405.324219 C 1028.503906 404.695312 1027.925781 404.007812 1027.414062 403.265625 C 1026.902344 402.523438 1026.46875 401.738281 1026.113281 400.910156 C 1025.757812 400.082031 1025.484375 399.230469 1025.296875 398.347656 C 1025.109375 397.464844 1025.007812 396.574219 1024.996094 395.671875 C 1024.984375 394.773438 1025.0625 393.878906 1025.226562 392.992188 C 1025.386719 392.105469 1025.636719 391.246094 1025.972656 390.40625 C 1026.304688 389.570312 1026.714844 388.773438 1027.207031 388.015625 C 1027.699219 387.261719 1028.257812 386.558594 1028.886719 385.914062 C 1029.628906 385.152344 1030.40625 384.425781 1031.222656 383.738281 C 1032.035156 383.050781 1032.882812 382.40625 1033.757812 381.800781 C 1034.636719 381.195312 1035.542969 380.636719 1036.472656 380.121094 C 1037.40625 379.605469 1038.363281 379.136719 1039.339844 378.71875 C 1040.320312 378.296875 1041.316406 377.921875 1042.332031 377.601562 C 1043.347656 377.277344 1044.375 377.003906 1045.417969 376.78125 C 1046.460938 376.558594 1047.511719 376.390625 1048.570312 376.269531 C 1049.628906 376.152344 1050.691406 376.085938 1051.753906 376.070312 C 1052.820312 376.054688 1053.882812 376.09375 1054.945312 376.183594 C 1056.007812 376.273438 1057.0625 376.414062 1058.109375 376.609375 C 1059.15625 376.804688 1060.191406 377.046875 1061.214844 377.34375 C 1062.238281 377.636719 1063.246094 377.984375 1064.238281 378.378906 C 1065.226562 378.773438 1066.195312 379.214844 1067.140625 379.703125 C 1068.085938 380.195312 1069.007812 380.726562 1069.902344 381.308594 C 1070.792969 381.886719 1071.65625 382.511719 1072.488281 383.175781 C 1073.324219 383.839844 1074.121094 384.542969 1074.882812 385.289062 C 1075.855469 386.234375 1076.671875 387.300781 1077.328125 388.488281 C 1077.984375 389.679688 1078.453125 390.9375 1078.734375 392.265625 C 1079.019531 393.589844 1079.101562 394.929688 1078.988281 396.285156 C 1078.875 397.636719 1078.566406 398.941406 1078.0625 400.203125 C 1077.5625 401.464844 1076.886719 402.625 1076.039062 403.6875 C 1075.191406 404.746094 1074.210938 405.664062 1073.09375 406.433594 C 1071.972656 407.203125 1070.769531 407.792969 1069.476562 408.203125 C 1068.179688 408.617188 1066.855469 408.832031 1065.5 408.847656 Z M 1050.152344 359.484375 C 1050.890625 366.289062 1047.457031 372.246094 1042.480469 372.785156 C 1037.503906 373.324219 1032.871094 368.242188 1032.136719 361.433594 C 1031.398438 354.628906 1034.832031 348.671875 1039.808594 348.132812 C 1044.78125 347.59375 1049.414062 352.675781 1050.152344 359.484375 Z M 1052.902344 359.445312 C 1052.351562 366.269531 1055.945312 372.132812 1060.9375 372.535156 C 1065.925781 372.9375 1070.414062 367.730469 1070.96875 360.90625 C 1071.519531 354.082031 1067.925781 348.222656 1062.9375 347.816406 C 1057.949219 347.414062 1053.457031 352.617188 1052.902344 359.445312 Z M 1071.609375 368.585938 C 1069.707031 374.261719 1071.527344 379.996094 1075.675781 381.386719 C 1079.828125 382.78125 1084.734375 379.304688 1086.640625 373.628906 C 1088.546875 367.949219 1086.726562 362.21875 1082.578125 360.824219 C 1078.425781 359.433594 1073.519531 362.90625 1071.609375 368.585938 Z M 1071.609375 368.585938 " fill-opacity="1" fill-rule="nonzero"/></g></g></g><path stroke-linecap="butt" transform="matrix(0.75, 0, 0, 0.75, -74.502705, 323.342435)" fill="none" stroke-linejoin="miter" d="M 509.321341 151.548636 C 513.659883 151.548636 521.930717 151.408011 526.13905 151.001761 C 528.086967 150.725719 529.894259 149.189261 529.758842 146.934052 C 529.347384 142.184052 529.488009 136.574677 530.066134 132.647593 C 530.88905 127.756968 535.363009 125.673635 540.284884 125.538218 L 545.581759 125.538218 C 550.64426 125.673635 555.118218 127.486135 555.941135 132.647593 C 556.383843 136.715302 556.51926 142.319469 556.248427 146.798636 C 555.941135 149.189261 557.784885 150.725719 559.732802 151.001761 C 563.80051 151.408011 571.628636 151.548636 575.284886 151.548636 C 579.045303 151.548636 587.316137 151.408011 591.383845 151.001761 C 593.738012 150.861136 595.279679 149.053844 594.732804 146.658011 C 588.988012 112.928842 576.514053 76.116341 566.73801 55.371548 C 566.159885 53.970506 564.89426 53.288214 563.357802 53.012173 C 557.920302 52.434048 547.977593 52.434048 542.779676 52.434048 C 537.482801 52.434048 527.810925 52.434048 522.618217 53.012173 C 521.07655 53.288214 519.847383 53.970506 519.269258 55.371548 C 509.456758 76.116341 496.88384 112.928842 491.139048 146.522594 C 490.560923 148.913219 492.128632 150.725719 494.623424 151.001761 C 498.420299 151.272594 505.425507 151.548636 509.321341 151.548636 Z M 541.685926 111.934051 C 537.347384 111.798634 535.092176 109.715301 536.081759 106.194467 C 537.040092 99.355925 538.883842 90.678841 540.560926 83.668424 C 541.961968 79.194466 543.909884 79.194466 545.175509 83.668424 C 546.982801 90.678841 548.967176 99.355925 549.790093 106.194467 C 550.779676 109.715301 548.659885 111.798634 544.321343 111.934051 Z M 640.654681 184.324679 C 671.993224 184.324679 691.305725 173.522595 691.305725 146.522594 C 691.305725 121.335093 690.211975 94.881967 688.363017 78.611132 C 688.092183 76.663216 686.826558 75.126757 684.743225 74.850716 C 681.6651 74.579882 674.930724 74.27259 671.446349 74.27259 C 667.925516 74.27259 662.357807 74.27259 658.425515 74.850716 C 656.170307 75.262174 654.22239 76.939257 654.769265 79.194466 C 655.623432 82.954883 655.894265 86.027799 656.170307 90.814258 C 656.305723 93.616341 654.22239 94.0278 653.092181 91.49655 C 648.618223 80.319466 639.253639 73.725715 628.040097 73.725715 C 610.404679 73.725715 598.238012 86.746549 598.238012 111.663217 C 598.238012 135.585094 610.269263 150.006969 628.451555 150.006969 C 639.524472 150.006969 648.618223 144.574677 653.092181 133.090302 C 654.357807 130.017385 656.44114 130.423635 656.44114 133.225718 L 656.44114 137.704885 C 656.44114 149.600719 644.550514 157.730928 630.706764 157.730928 C 621.618222 157.730928 612.352596 155.204886 605.790096 151.855928 C 603.399471 150.147594 600.868221 151.684053 600.597387 154.621553 C 600.321346 161.220512 599.77447 171.16322 599.607804 176.324679 C 599.467179 178.309054 600.732804 180.121554 602.581762 180.668429 C 611.534888 183.059054 630.571347 184.324679 640.654681 184.324679 Z M 644.550514 125.809051 C 637.852597 125.809051 633.238014 120.480926 633.238014 112.210092 C 633.238014 104.381967 637.711972 99.355925 644.550514 99.355925 C 651.420306 99.355925 655.894265 104.381967 655.894265 112.210092 C 655.894265 120.480926 651.279681 125.809051 644.550514 125.809051 Z M 740.446353 152.126761 C 751.654686 152.126761 765.498437 150.590303 773.357813 145.975719 C 774.899479 144.845511 775.717188 143.309052 775.581771 141.189261 C 775.305729 136.303844 774.592188 128.475718 774.045313 123.553843 C 773.633854 119.486134 770.555729 118.533009 768.435937 121.027801 C 761.430729 127.210093 754.149478 129.710093 744.378644 129.710093 C 735.696352 129.710093 726.159894 125.538218 723.086977 118.803843 C 721.54531 116.277801 723.222393 114.736134 725.477602 116.413218 C 731.081769 120.069468 737.508852 121.746551 744.238019 121.746551 C 758.935937 121.746551 772.644271 112.928842 772.644271 100.314258 C 772.644271 82.543424 758.935937 73.725715 736.826561 73.725715 C 712.321351 73.725715 695.368225 87.600716 695.368225 111.934051 C 695.368225 137.840302 712.727601 152.126761 740.446353 152.126761 Z M 736.107811 110.668426 C 731.493227 110.668426 724.623435 108.585092 724.623435 104.24655 C 724.623435 98.913217 729.816144 95.1528 735.284894 95.1528 C 741.576561 95.1528 744.102603 98.366342 744.102603 103.256967 C 744.102603 108.038217 740.857811 110.668426 736.107811 110.668426 Z M 799.243231 151.548636 C 803.175522 151.548636 809.602606 151.408011 813.394273 151.001761 C 815.477606 150.725719 817.290106 149.189261 817.019273 146.798636 C 816.331773 137.840302 815.889065 128.616343 815.753648 121.027801 C 815.753648 111.663217 820.232815 103.699675 827.508857 103.699675 C 834.654691 103.699675 838.993233 111.527801 839.128649 120.892385 C 839.128649 127.756968 838.310941 137.434052 837.456774 146.658011 C 837.321357 149.053844 839.128649 150.725719 841.248441 151.001761 C 846.139066 151.408011 851.602608 151.548636 856.081775 151.548636 C 860.420317 151.548636 865.581776 151.408011 870.232817 151.001761 C 872.316151 150.725719 873.717193 149.460094 873.852609 147.204886 C 873.993234 136.168427 873.581776 119.934051 872.863026 111.934051 C 871.050526 88.970508 861.550525 73.861132 843.743233 73.861132 C 832.566149 73.861132 823.613023 80.730924 818.826565 94.439258 C 817.87344 96.9653 815.753648 96.829883 815.753648 93.892383 C 815.889065 89.413216 816.607815 86.475716 818.555731 79.605924 C 819.274482 77.381966 817.290106 74.991341 815.071356 74.850716 C 810.727606 74.408007 804.576564 74.27259 801.055731 74.27259 C 797.435939 74.27259 790.701563 74.408007 787.217188 74.850716 C 785.097396 75.126757 783.831771 76.939257 783.420313 79.059049 C 781.33698 95.428842 780.206771 113.918426 780.206771 146.798636 C 780.071355 149.053844 781.748438 150.725719 783.831771 151.001761 C 788.170313 151.408011 795.18073 151.548636 799.243231 151.548636 Z M 908.019278 152.126761 C 919.363028 152.126761 927.873445 145.975719 932.659904 136.027802 C 934.196362 133.090302 936.279696 133.50176 936.008862 136.850719 C 935.873446 139.928844 935.461987 143.444469 934.878654 146.658011 C 934.472404 149.053844 936.279696 150.725719 938.534904 151.001761 C 942.295321 151.408011 948.89428 151.548636 952.514072 151.548636 C 956.170322 151.548636 963.586989 151.408011 967.930739 151.001761 C 970.014072 150.725719 971.550531 149.053844 971.550531 146.798636 C 971.550531 113.746551 970.014072 75.262174 968.336989 54.96009 C 968.201572 52.876756 966.665114 51.475714 964.717197 51.204881 C 960.92553 50.621548 954.909905 50.621548 951.248446 50.621548 C 947.764071 50.621548 940.211988 50.621548 936.144279 51.033006 C 933.925529 51.475714 931.941154 53.288214 932.352612 55.543423 C 934.060946 65.043423 935.873446 78.751757 936.279696 89.960091 C 936.420321 93.751758 934.196362 93.616341 932.659904 90.949675 C 927.32657 79.605924 920.04532 73.861132 907.878653 73.861132 C 889.66511 73.861132 877.904693 89.2778 877.904693 114.600718 C 877.904693 139.517385 890.107818 152.126761 908.019278 152.126761 Z M 924.524487 126.22051 C 917.654695 126.22051 913.040111 121.335093 913.040111 113.335092 C 913.040111 105.37155 917.519278 99.9028 924.524487 99.9028 C 931.258862 99.9028 935.873446 105.37155 935.873446 113.335092 C 935.873446 121.335093 931.118237 126.22051 924.524487 126.22051 Z M 998.149491 152.126761 C 1008.232824 152.126761 1017.321366 146.934052 1021.9672 134.491344 C 1023.06095 131.824677 1025.045325 132.371552 1024.909909 135.173635 C 1024.602617 138.116344 1024.055742 142.730927 1023.644283 145.392386 C 1023.06095 148.470511 1025.321367 150.590303 1028.805742 151.001761 C 1032.738034 151.408011 1038.477618 151.548636 1042.269284 151.548636 C 1046.165118 151.548636 1052.180743 151.408011 1055.701577 151.001761 C 1057.925535 150.590303 1059.326577 149.053844 1059.326577 146.658011 C 1058.915119 132.512177 1057.514077 113.064259 1056.248452 101.303842 C 1054.576577 85.345508 1045.040118 73.725715 1016.503658 73.725715 C 1000.816157 73.725715 989.909907 75.980924 984.581782 77.793424 C 982.904698 78.475716 982.050531 80.152799 981.915115 82.267383 C 981.503656 88.147591 981.092198 95.699675 981.232823 101.579884 C 981.232823 105.37155 984.170323 106.913217 986.529698 104.381967 C 994.52449 98.913217 1006.008866 95.699675 1013.290116 95.699675 C 1021.253658 95.699675 1024.055742 98.230925 1024.055742 100.897592 C 1024.055742 104.658009 1019.441158 105.647592 1010.623449 106.772592 C 991.722407 108.996551 976.034906 116.413218 976.034906 130.97051 C 976.034906 145.668427 983.894281 152.126761 998.149491 152.126761 Z M 1015.37345 128.168427 C 1010.894283 128.168427 1008.946366 126.355926 1008.946366 122.152801 C 1008.946366 116.548634 1014.243241 112.517384 1019.441158 112.517384 C 1022.790117 112.517384 1024.4672 114.876759 1024.4672 117.949676 C 1024.4672 124.40801 1018.894283 128.168427 1015.37345 128.168427 Z M 1081.467203 151.548636 C 1084.816162 151.548636 1092.639079 151.408011 1096.706787 151.001761 C 1098.795329 150.725719 1100.774496 149.053844 1100.503662 146.658011 C 1099.920329 139.381969 1099.102621 129.87676 1099.238037 122.736135 C 1099.373454 114.053842 1101.904704 107.460092 1105.935954 107.460092 C 1110.722413 107.460092 1113.524496 113.611134 1113.79533 122.736135 C 1113.935955 129.022593 1113.352621 139.241344 1112.941163 146.522594 C 1112.805746 149.053844 1114.618246 150.725719 1116.873455 151.001761 C 1121.07658 151.408011 1128.35783 151.548636 1132.118247 151.548636 C 1135.498456 151.548636 1141.925539 151.548636 1145.857831 151.001761 C 1148.076581 150.590303 1150.060956 149.053844 1149.753665 146.522594 C 1149.066165 137.980927 1148.211998 128.887177 1148.211998 122.293426 C 1148.211998 113.475717 1151.154707 107.460092 1155.08179 107.460092 C 1159.696374 107.460092 1162.498457 113.199676 1162.774499 123.006968 C 1162.909915 128.887177 1162.498457 139.381969 1162.092207 146.522594 C 1161.816165 149.053844 1163.493249 150.590303 1165.847416 151.001761 C 1169.915124 151.548636 1177.467208 151.548636 1180.988041 151.548636 C 1184.337 151.548636 1190.800542 151.548636 1194.696375 151.001761 C 1196.951584 150.590303 1198.764084 149.053844 1198.623459 146.522594 C 1197.769292 129.434052 1197.363042 117.678843 1195.415125 104.24655 C 1192.337 81.996549 1182.253666 74.27259 1170.326583 74.27259 C 1159.560957 74.27259 1151.290123 83.397591 1148.352623 95.699675 C 1147.39429 99.355925 1145.274498 99.49655 1144.45679 95.699675 C 1140.524498 79.465299 1133.243247 74.27259 1123.159913 74.27259 C 1113.217205 74.27259 1105.524496 83.397591 1101.904704 96.111133 C 1100.909912 99.631967 1098.961996 98.913217 1098.961996 95.699675 C 1099.102621 92.2153 1100.331787 84.355924 1101.321371 79.329882 C 1101.904704 76.939257 1100.055746 75.262174 1097.701579 74.850716 C 1093.904704 74.408007 1086.217203 74.27259 1082.69637 74.27259 C 1079.211995 74.27259 1074.321369 74.27259 1070.800536 74.850716 C 1068.717202 75.262174 1067.316161 76.527799 1067.045327 78.611132 C 1065.331786 96.24655 1064.238036 119.215301 1064.238036 146.798636 C 1064.238036 149.053844 1065.779702 150.725719 1067.863036 151.001761 C 1071.654703 151.408011 1078.357828 151.548636 1081.467203 151.548636 Z M 1247.748461 152.126761 C 1258.962004 152.126761 1272.800546 150.590303 1280.66513 145.975719 C 1282.201588 144.845511 1283.019297 143.309052 1282.88388 141.189261 C 1282.613046 136.303844 1281.894296 128.475718 1281.347421 123.553843 C 1280.935963 119.486134 1277.857838 118.533009 1275.743254 121.027801 C 1268.732837 127.210093 1261.456795 129.710093 1251.680753 129.710093 C 1242.998461 129.710093 1233.462002 125.538218 1230.389086 118.803843 C 1228.852627 116.277801 1230.524502 114.736134 1232.779711 116.413218 C 1238.383878 120.069468 1244.810961 121.746551 1251.545337 121.746551 C 1266.238046 121.746551 1279.94638 112.928842 1279.94638 100.314258 C 1279.94638 82.543424 1266.238046 73.725715 1244.12867 73.725715 C 1219.62346 73.725715 1202.670334 87.600716 1202.670334 111.934051 C 1202.670334 137.840302 1220.034918 152.126761 1247.748461 152.126761 Z M 1243.40992 110.668426 C 1238.795336 110.668426 1231.925544 108.585092 1231.925544 104.24655 C 1231.925544 98.913217 1237.123461 95.1528 1242.587003 95.1528 C 1248.87867 95.1528 1251.404712 98.366342 1251.404712 103.256967 C 1251.404712 108.038217 1248.15992 110.668426 1243.40992 110.668426 Z M 1306.550548 151.548636 C 1310.477631 151.548636 1316.904715 151.408011 1320.696382 151.001761 C 1322.784924 150.725719 1324.592215 149.189261 1324.321382 146.798636 C 1323.63909 137.840302 1323.191174 128.616343 1323.055757 121.027801 C 1323.055757 111.663217 1327.534924 103.699675 1334.810966 103.699675 C 1341.956799 103.699675 1346.295341 111.527801 1346.435966 120.892385 C 1346.435966 127.756968 1345.61305 137.434052 1344.758883 146.658011 C 1344.623466 149.053844 1346.435966 150.725719 1348.55055 151.001761 C 1353.441175 151.408011 1358.909925 151.548636 1363.383884 151.548636 C 1367.727634 151.548636 1372.889093 151.408011 1377.534926 151.001761 C 1379.61826 150.725719 1381.019301 149.460094 1381.159926 147.204886 C 1381.295343 136.168427 1380.883885 119.934051 1380.165135 111.934051 C 1378.352635 88.970508 1368.852634 73.861132 1351.045342 73.861132 C 1339.873466 73.861132 1330.915132 80.730924 1326.133882 94.439258 C 1325.175549 96.9653 1323.055757 96.829883 1323.055757 93.892383 C 1323.191174 89.413216 1323.909924 86.475716 1325.85784 79.605924 C 1326.57659 77.381966 1324.592215 74.991341 1322.373465 74.850716 C 1318.034923 74.408007 1311.878673 74.27259 1308.357839 74.27259 C 1304.738048 74.27259 1298.003672 74.408007 1294.519297 74.850716 C 1292.399505 75.126757 1291.13388 76.939257 1290.722422 79.059049 C 1288.639088 95.428842 1287.514088 113.918426 1287.514088 146.798636 C 1287.373463 149.053844 1289.050547 150.725719 1291.13388 151.001761 C 1295.47763 151.408011 1302.482839 151.548636 1306.550548 151.548636 Z M 1428.613054 152.126761 C 1437.295346 152.126761 1445.123471 150.861136 1452.264097 148.913219 C 1453.94118 148.199678 1455.342222 146.387177 1455.342222 143.855927 C 1455.477639 139.241344 1455.613055 130.152802 1455.477639 124.954885 C 1455.342222 121.605926 1452.675555 120.480926 1450.592222 122.017385 C 1448.196388 123.28301 1443.587013 124.548635 1440.644304 124.548635 C 1434.769304 124.548635 1430.290137 121.746551 1430.014096 116.137176 C 1429.743262 111.798634 1429.743262 106.772592 1430.154721 101.850717 C 1430.425554 99.49655 1431.962012 97.954883 1434.904721 97.954883 C 1439.243263 97.954883 1445.977638 98.230925 1450.31618 98.501758 C 1452.404722 98.7778 1454.212013 96.694467 1454.212013 94.439258 L 1454.212013 78.751757 C 1454.212013 76.527799 1452.404722 74.715299 1450.31618 74.715299 C 1444.84743 74.715299 1438.425554 74.991341 1432.956804 74.991341 C 1431.826596 74.991341 1431.008887 73.861132 1431.008887 72.189257 C 1431.008887 68.699674 1431.691179 65.17884 1432.409929 61.251757 C 1432.680762 59.027798 1430.837012 57.079881 1428.613054 56.77259 C 1424.68597 56.361131 1417.133887 56.225715 1413.644303 56.225715 C 1410.264095 56.361131 1405.102636 56.361131 1401.717219 56.77259 C 1399.769302 57.079881 1398.232844 58.61634 1397.956802 60.569465 C 1397.545344 64.189257 1397.238052 69.246549 1397.102636 73.043424 C 1396.967219 73.996549 1396.284927 74.850716 1395.154719 74.850716 L 1388.284927 74.850716 C 1386.201593 74.850716 1384.665135 76.527799 1384.52451 78.611132 C 1384.52451 83.944466 1384.389093 89.137175 1384.52451 94.298633 C 1384.665135 96.418425 1386.201593 98.230925 1388.284927 98.230925 C 1390.269302 98.095508 1392.217219 98.095508 1394.029719 98.095508 C 1395.154719 97.954883 1396.144302 98.7778 1396.008886 99.9028 C 1394.883885 108.585092 1394.883885 117.538218 1394.883885 123.418426 C 1394.883885 143.444469 1409.441178 152.126761 1428.613054 152.126761 Z M 1501.550558 152.126761 C 1526.738059 152.126761 1544.649518 141.908011 1544.649518 115.012176 C 1544.649518 89.68405 1526.873475 73.725715 1501.550558 73.725715 C 1476.191181 73.725715 1458.279722 89.68405 1458.279722 115.012176 C 1458.279722 141.908011 1476.363056 152.126761 1501.550558 152.126761 Z M 1501.550558 127.621552 C 1494.680766 127.621552 1489.795349 122.017385 1489.795349 113.064259 C 1489.795349 104.381967 1494.545349 98.095508 1501.550558 98.095508 C 1508.555766 98.095508 1513.305766 104.381967 1513.305766 113.064259 C 1513.305766 122.017385 1508.42035 127.621552 1501.550558 127.621552 Z M 1587.347437 151.991344 C 1612.847438 151.991344 1626.962022 143.585094 1626.962022 129.163218 C 1626.962022 103.116342 1584.545353 109.131967 1584.545353 100.314258 C 1584.545353 96.9653 1588.889104 95.017383 1597.295354 95.1528 C 1603.857854 95.293425 1611.446396 97.376758 1616.743272 100.314258 C 1619.133897 102.126759 1621.93598 101.168425 1621.800564 97.647592 C 1621.665147 92.350716 1621.081814 85.616341 1620.670355 80.460091 C 1620.534938 78.751757 1619.409938 77.381966 1617.732855 76.798632 C 1609.191188 74.850716 1596.441187 73.861132 1587.488062 73.861132 C 1564.383894 73.861132 1551.222435 80.460091 1551.222435 95.017383 C 1551.222435 120.345509 1590.290145 114.465301 1590.290145 123.418426 C 1590.290145 127.074676 1586.665145 128.887177 1579.076603 128.887177 C 1571.253686 128.887177 1561.889102 126.22051 1554.165143 121.199676 C 1551.941185 119.215301 1548.592227 119.934051 1548.420352 123.28301 C 1548.284935 130.152802 1548.149518 136.715302 1548.284935 143.585094 C 1548.284935 145.392386 1549.415143 146.658011 1551.222435 147.204886 C 1561.170352 150.006969 1575.86827 151.991344 1587.347437 151.991344 Z M 1587.347437 151.991344 " stroke="#7ed957" stroke-width="10.4997" stroke-opacity="1" stroke-miterlimit="4"/><g fill="#5019dd" fill-opacity="1"><g transform="translate(292.903526, 436.592429)"><g><path d="M 14.59375 0.421875 C 17.84375 0.421875 24.046875 0.3125 27.1875 0 C 28.671875 -0.203125 30.03125 -1.359375 29.921875 -3.046875 C 29.609375 -6.609375 29.71875 -10.8125 30.140625 -13.75 C 30.765625 -17.4375 34.125 -19 37.796875 -19.109375 L 41.796875 -19.109375 C 45.5625 -19 48.9375 -17.640625 49.5625 -13.75 C 49.875 -10.703125 49.984375 -6.515625 49.765625 -3.15625 C 49.5625 -1.359375 50.921875 -0.203125 52.390625 0 C 55.4375 0.3125 61.3125 0.421875 64.046875 0.421875 C 66.890625 0.421875 73.078125 0.3125 76.125 0 C 77.90625 -0.109375 79.0625 -1.46875 78.640625 -3.25 C 74.34375 -28.5625 65 -56.171875 57.640625 -71.71875 C 57.21875 -72.765625 56.28125 -73.296875 55.125 -73.5 C 51.03125 -73.921875 43.578125 -73.921875 39.6875 -73.921875 C 35.703125 -73.921875 28.453125 -73.921875 24.5625 -73.5 C 23.421875 -73.296875 22.46875 -72.765625 22.046875 -71.71875 C 14.703125 -56.171875 5.25 -28.5625 0.9375 -3.359375 C 0.53125 -1.578125 1.6875 -0.203125 3.5625 0 C 6.40625 0.203125 11.65625 0.421875 14.59375 0.421875 Z M 38.84375 -29.296875 C 35.59375 -29.40625 33.921875 -30.96875 34.65625 -33.59375 C 35.390625 -38.75 36.75 -45.25 38.015625 -50.5 C 39.0625 -53.859375 40.53125 -53.859375 41.46875 -50.5 C 42.84375 -45.25 44.3125 -38.75 44.9375 -33.59375 C 45.671875 -30.96875 44.09375 -29.40625 40.84375 -29.296875 Z M 38.84375 -29.296875 "/></g></g></g><g fill="#5019dd" fill-opacity="1"><g transform="translate(372.484638, 436.592429)"><g><path d="M 33.5 24.984375 C 57.015625 24.984375 71.5 16.90625 71.5 -3.359375 C 71.5 -22.265625 70.671875 -42.109375 69.296875 -54.28125 C 69.09375 -55.75 68.140625 -56.90625 66.5625 -57.125 C 64.265625 -57.328125 59.21875 -57.546875 56.59375 -57.546875 C 53.96875 -57.546875 49.765625 -57.546875 46.828125 -57.125 C 45.15625 -56.8125 43.6875 -55.546875 44.09375 -53.859375 C 44.734375 -51.03125 44.9375 -48.71875 45.15625 -45.15625 C 45.25 -43.046875 43.6875 -42.734375 42.84375 -44.625 C 39.484375 -53.03125 32.4375 -57.953125 24.046875 -57.953125 C 10.8125 -57.953125 1.6875 -48.1875 1.6875 -29.5 C 1.6875 -11.546875 10.703125 -0.734375 24.359375 -0.734375 C 32.65625 -0.734375 39.484375 -4.828125 42.84375 -13.4375 C 43.78125 -15.75 45.359375 -15.4375 45.359375 -13.328125 L 45.359375 -9.96875 C 45.359375 -1.046875 36.4375 5.046875 26.046875 5.046875 C 19.21875 5.046875 12.28125 3.15625 7.34375 0.625 C 5.5625 -0.625 3.671875 0.53125 3.46875 2.734375 C 3.25 7.671875 2.828125 15.125 2.734375 19 C 2.625 20.46875 3.5625 21.84375 4.9375 22.265625 C 11.65625 24.046875 25.9375 24.984375 33.5 24.984375 Z M 36.4375 -18.90625 C 31.390625 -18.90625 27.9375 -22.890625 27.9375 -29.078125 C 27.9375 -34.96875 31.296875 -38.75 36.4375 -38.75 C 41.578125 -38.75 44.9375 -34.96875 44.9375 -29.078125 C 44.9375 -22.890625 41.46875 -18.90625 36.4375 -18.90625 Z M 36.4375 -18.90625 "/></g></g></g><g fill="#5019dd" fill-opacity="1"><g transform="translate(445.766452, 436.592429)"><g><path d="M 35.0625 0.84375 C 43.46875 0.84375 53.859375 -0.3125 59.75 -3.78125 C 60.90625 -4.625 61.53125 -5.78125 61.421875 -7.34375 C 61.21875 -11.03125 60.6875 -16.90625 60.265625 -20.578125 C 59.953125 -23.625 57.640625 -24.359375 56.0625 -22.46875 C 50.8125 -17.84375 45.359375 -15.953125 38.015625 -15.953125 C 31.5 -15.953125 24.359375 -19.109375 22.046875 -24.15625 C 20.890625 -26.046875 22.15625 -27.1875 23.828125 -25.9375 C 28.03125 -23.203125 32.859375 -21.9375 37.90625 -21.9375 C 48.9375 -21.9375 59.21875 -28.5625 59.21875 -38.015625 C 59.21875 -51.34375 48.9375 -57.953125 32.34375 -57.953125 C 13.96875 -57.953125 1.265625 -47.5625 1.265625 -29.296875 C 1.265625 -9.875 14.28125 0.84375 35.0625 0.84375 Z M 31.8125 -30.234375 C 28.34375 -30.234375 23.203125 -31.8125 23.203125 -35.0625 C 23.203125 -39.0625 27.09375 -41.890625 31.1875 -41.890625 C 35.90625 -41.890625 37.796875 -39.484375 37.796875 -35.8125 C 37.796875 -32.234375 35.390625 -30.234375 31.8125 -30.234375 Z M 31.8125 -30.234375 "/></g></g></g><g fill="#5019dd" fill-opacity="1"><g transform="translate(508.654423, 436.592429)"><g><path d="M 16.28125 0.421875 C 19.21875 0.421875 24.046875 0.3125 26.875 0 C 28.453125 -0.203125 29.8125 -1.359375 29.609375 -3.15625 C 29.078125 -9.875 28.765625 -16.796875 28.671875 -22.46875 C 28.671875 -29.5 32.03125 -35.484375 37.484375 -35.484375 C 42.84375 -35.484375 46.09375 -29.609375 46.203125 -22.578125 C 46.203125 -17.4375 45.5625 -10.1875 44.9375 -3.25 C 44.828125 -1.46875 46.203125 -0.203125 47.78125 0 C 51.453125 0.3125 55.546875 0.421875 58.90625 0.421875 C 62.15625 0.421875 66.046875 0.3125 69.515625 0 C 71.078125 -0.203125 72.140625 -1.15625 72.234375 -2.828125 C 72.34375 -11.125 72.03125 -23.3125 71.5 -29.296875 C 70.140625 -46.515625 63 -57.859375 49.671875 -57.859375 C 41.265625 -57.859375 34.546875 -52.703125 30.96875 -42.421875 C 30.234375 -40.53125 28.671875 -40.640625 28.671875 -42.84375 C 28.765625 -46.203125 29.296875 -48.40625 30.765625 -53.546875 C 31.296875 -55.234375 29.8125 -57.015625 28.140625 -57.125 C 24.890625 -57.4375 20.265625 -57.546875 17.640625 -57.546875 C 14.90625 -57.546875 9.875 -57.4375 7.25 -57.125 C 5.671875 -56.90625 4.71875 -55.546875 4.40625 -53.96875 C 2.828125 -41.6875 2 -27.828125 2 -3.15625 C 1.890625 -1.46875 3.15625 -0.203125 4.71875 0 C 7.984375 0.3125 13.234375 0.421875 16.28125 0.421875 Z M 16.28125 0.421875 "/></g></g></g><g fill="#5019dd" fill-opacity="1"><g transform="translate(582.671166, 436.592429)"><g><path d="M 23.828125 0.84375 C 32.34375 0.84375 38.75 -3.78125 42.3125 -11.234375 C 43.46875 -13.4375 45.046875 -13.125 44.828125 -10.609375 C 44.734375 -8.296875 44.421875 -5.671875 44 -3.25 C 43.6875 -1.46875 45.046875 -0.203125 46.71875 0 C 49.5625 0.3125 54.5 0.421875 57.21875 0.421875 C 59.953125 0.421875 65.515625 0.3125 68.78125 0 C 70.34375 -0.203125 71.5 -1.46875 71.5 -3.15625 C 71.5 -27.9375 70.34375 -56.8125 69.09375 -72.03125 C 68.984375 -73.609375 67.828125 -74.65625 66.359375 -74.859375 C 63.53125 -75.28125 59.015625 -75.28125 56.28125 -75.28125 C 53.65625 -75.28125 47.984375 -75.28125 44.9375 -74.96875 C 43.265625 -74.65625 41.796875 -73.296875 42.109375 -71.609375 C 43.359375 -64.46875 44.734375 -54.1875 45.046875 -45.78125 C 45.15625 -42.9375 43.46875 -43.046875 42.3125 -45.046875 C 38.328125 -53.546875 32.859375 -57.859375 23.734375 -57.859375 C 10.078125 -57.859375 1.265625 -46.3125 1.265625 -27.296875 C 1.265625 -8.609375 10.390625 0.84375 23.828125 0.84375 Z M 36.21875 -18.578125 C 31.078125 -18.578125 27.609375 -22.265625 27.609375 -28.25 C 27.609375 -34.234375 30.96875 -38.328125 36.21875 -38.328125 C 41.265625 -38.328125 44.734375 -34.234375 44.734375 -28.25 C 44.734375 -22.265625 41.15625 -18.578125 36.21875 -18.578125 Z M 36.21875 -18.578125 "/></g></g></g><g fill="#5019dd" fill-opacity="1"><g transform="translate(656.267933, 436.592429)"><g><path d="M 17.84375 0.84375 C 25.40625 0.84375 32.234375 -3.046875 35.703125 -12.390625 C 36.546875 -14.390625 38.015625 -13.96875 37.90625 -11.859375 C 37.6875 -9.65625 37.28125 -6.1875 36.953125 -4.203125 C 36.546875 -1.890625 38.21875 -0.3125 40.84375 0 C 43.78125 0.3125 48.09375 0.421875 50.921875 0.421875 C 53.859375 0.421875 58.375 0.3125 61 0 C 62.6875 -0.3125 63.734375 -1.46875 63.734375 -3.25 C 63.421875 -13.859375 62.375 -28.453125 61.421875 -37.28125 C 60.171875 -49.25 53.03125 -57.953125 31.609375 -57.953125 C 19.84375 -57.953125 11.65625 -56.28125 7.671875 -54.921875 C 6.40625 -54.390625 5.78125 -53.125 5.671875 -51.5625 C 5.359375 -47.140625 5.046875 -41.46875 5.140625 -37.0625 C 5.140625 -34.234375 7.34375 -33.078125 9.140625 -34.96875 C 15.125 -39.0625 23.734375 -41.46875 29.1875 -41.46875 C 35.171875 -41.46875 37.28125 -39.578125 37.28125 -37.59375 C 37.28125 -34.75 33.8125 -34.015625 27.1875 -33.1875 C 13.015625 -31.5 1.265625 -25.9375 1.265625 -15.015625 C 1.265625 -3.984375 7.140625 0.84375 17.84375 0.84375 Z M 30.765625 -17.109375 C 27.40625 -17.109375 25.9375 -18.484375 25.9375 -21.625 C 25.9375 -25.828125 29.921875 -28.875 33.8125 -28.875 C 36.328125 -28.875 37.59375 -27.09375 37.59375 -24.78125 C 37.59375 -19.953125 33.390625 -17.109375 30.765625 -17.109375 Z M 30.765625 -17.109375 "/></g></g></g><g fill="#5019dd" fill-opacity="1"><g transform="translate(721.78064, 436.592429)"><g><path d="M 14.8125 0.421875 C 17.328125 0.421875 23.203125 0.3125 26.25 0 C 27.828125 -0.203125 29.296875 -1.46875 29.078125 -3.25 C 28.671875 -8.71875 28.03125 -15.859375 28.140625 -21.203125 C 28.25 -27.71875 30.140625 -32.65625 33.1875 -32.65625 C 36.75 -32.65625 38.84375 -28.03125 39.0625 -21.203125 C 39.171875 -16.484375 38.75 -8.8125 38.4375 -3.359375 C 38.328125 -1.46875 39.6875 -0.203125 41.375 0 C 44.515625 0.3125 49.984375 0.421875 52.8125 0.421875 C 55.328125 0.421875 60.171875 0.421875 63.109375 0 C 64.78125 -0.3125 66.25 -1.46875 66.046875 -3.359375 C 65.515625 -9.765625 64.890625 -16.59375 64.890625 -21.53125 C 64.890625 -28.140625 67.09375 -32.65625 70.03125 -32.65625 C 73.5 -32.65625 75.59375 -28.34375 75.8125 -21 C 75.921875 -16.59375 75.59375 -8.71875 75.28125 -3.359375 C 75.078125 -1.46875 76.328125 -0.3125 78.125 0 C 81.171875 0.421875 86.828125 0.421875 89.453125 0.421875 C 91.984375 0.421875 96.8125 0.421875 99.75 0 C 101.4375 -0.3125 102.796875 -1.46875 102.6875 -3.359375 C 102.0625 -16.171875 101.75 -24.984375 100.28125 -35.0625 C 97.96875 -51.765625 90.40625 -57.546875 81.484375 -57.546875 C 73.390625 -57.546875 67.203125 -50.71875 65 -41.46875 C 64.265625 -38.75 62.6875 -38.640625 62.0625 -41.46875 C 59.109375 -53.65625 53.65625 -57.546875 46.09375 -57.546875 C 38.640625 -57.546875 32.859375 -50.71875 30.140625 -41.15625 C 29.40625 -38.53125 27.9375 -39.0625 27.9375 -41.46875 C 28.03125 -44.09375 28.984375 -49.984375 29.71875 -53.765625 C 30.140625 -55.546875 28.765625 -56.8125 26.984375 -57.125 C 24.15625 -57.4375 18.375 -57.546875 15.75 -57.546875 C 13.125 -57.546875 9.453125 -57.546875 6.828125 -57.125 C 5.25 -56.8125 4.203125 -55.859375 3.984375 -54.28125 C 2.734375 -41.0625 1.890625 -23.828125 1.890625 -3.15625 C 1.890625 -1.46875 3.046875 -0.203125 4.625 0 C 7.453125 0.3125 12.5 0.421875 14.8125 0.421875 Z M 14.8125 0.421875 "/></g></g></g><g fill="#5019dd" fill-opacity="1"><g transform="translate(826.243953, 436.592429)"><g><path d="M 35.0625 0.84375 C 43.46875 0.84375 53.859375 -0.3125 59.75 -3.78125 C 60.90625 -4.625 61.53125 -5.78125 61.421875 -7.34375 C 61.21875 -11.03125 60.6875 -16.90625 60.265625 -20.578125 C 59.953125 -23.625 57.640625 -24.359375 56.0625 -22.46875 C 50.8125 -17.84375 45.359375 -15.953125 38.015625 -15.953125 C 31.5 -15.953125 24.359375 -19.109375 22.046875 -24.15625 C 20.890625 -26.046875 22.15625 -27.1875 23.828125 -25.9375 C 28.03125 -23.203125 32.859375 -21.9375 37.90625 -21.9375 C 48.9375 -21.9375 59.21875 -28.5625 59.21875 -38.015625 C 59.21875 -51.34375 48.9375 -57.953125 32.34375 -57.953125 C 13.96875 -57.953125 1.265625 -47.5625 1.265625 -29.296875 C 1.265625 -9.875 14.28125 0.84375 35.0625 0.84375 Z M 31.8125 -30.234375 C 28.34375 -30.234375 23.203125 -31.8125 23.203125 -35.0625 C 23.203125 -39.0625 27.09375 -41.890625 31.1875 -41.890625 C 35.90625 -41.890625 37.796875 -39.484375 37.796875 -35.8125 C 37.796875 -32.234375 35.390625 -30.234375 31.8125 -30.234375 Z M 31.8125 -30.234375 "/></g></g></g><g fill="#5019dd" fill-opacity="1"><g transform="translate(889.131935, 436.592429)"><g><path d="M 16.28125 0.421875 C 19.21875 0.421875 24.046875 0.3125 26.875 0 C 28.453125 -0.203125 29.8125 -1.359375 29.609375 -3.15625 C 29.078125 -9.875 28.765625 -16.796875 28.671875 -22.46875 C 28.671875 -29.5 32.03125 -35.484375 37.484375 -35.484375 C 42.84375 -35.484375 46.09375 -29.609375 46.203125 -22.578125 C 46.203125 -17.4375 45.5625 -10.1875 44.9375 -3.25 C 44.828125 -1.46875 46.203125 -0.203125 47.78125 0 C 51.453125 0.3125 55.546875 0.421875 58.90625 0.421875 C 62.15625 0.421875 66.046875 0.3125 69.515625 0 C 71.078125 -0.203125 72.140625 -1.15625 72.234375 -2.828125 C 72.34375 -11.125 72.03125 -23.3125 71.5 -29.296875 C 70.140625 -46.515625 63 -57.859375 49.671875 -57.859375 C 41.265625 -57.859375 34.546875 -52.703125 30.96875 -42.421875 C 30.234375 -40.53125 28.671875 -40.640625 28.671875 -42.84375 C 28.765625 -46.203125 29.296875 -48.40625 30.765625 -53.546875 C 31.296875 -55.234375 29.8125 -57.015625 28.140625 -57.125 C 24.890625 -57.4375 20.265625 -57.546875 17.640625 -57.546875 C 14.90625 -57.546875 9.875 -57.4375 7.25 -57.125 C 5.671875 -56.90625 4.71875 -55.546875 4.40625 -53.96875 C 2.828125 -41.6875 2 -27.828125 2 -3.15625 C 1.890625 -1.46875 3.15625 -0.203125 4.71875 0 C 7.984375 0.3125 13.234375 0.421875 16.28125 0.421875 Z M 16.28125 0.421875 "/></g></g></g><g fill="#5019dd" fill-opacity="1"><g transform="translate(963.148655, 436.592429)"><g><path d="M 33.8125 0.84375 C 40.3125 0.84375 46.203125 -0.109375 51.5625 -1.578125 C 52.8125 -2.09375 53.859375 -3.46875 53.859375 -5.359375 C 53.96875 -8.8125 54.078125 -15.640625 53.96875 -19.53125 C 53.859375 -22.046875 51.875 -22.890625 50.296875 -21.734375 C 48.515625 -20.796875 45.046875 -19.84375 42.84375 -19.84375 C 38.4375 -19.84375 35.0625 -21.9375 34.859375 -26.140625 C 34.65625 -29.40625 34.65625 -33.1875 34.96875 -36.859375 C 35.171875 -38.640625 36.328125 -39.796875 38.53125 -39.796875 C 41.796875 -39.796875 46.828125 -39.578125 50.078125 -39.375 C 51.65625 -39.171875 53.03125 -40.734375 53.03125 -42.421875 L 53.03125 -54.1875 C 53.03125 -55.859375 51.65625 -57.21875 50.078125 -57.21875 C 45.984375 -57.21875 41.15625 -57.015625 37.0625 -57.015625 C 36.21875 -57.015625 35.59375 -57.859375 35.59375 -59.109375 C 35.59375 -61.734375 36.125 -64.359375 36.640625 -67.3125 C 36.859375 -68.984375 35.484375 -70.453125 33.8125 -70.671875 C 30.875 -70.984375 25.203125 -71.078125 22.578125 -71.078125 C 20.0625 -70.984375 16.171875 -70.984375 13.65625 -70.671875 C 12.1875 -70.453125 11.03125 -69.296875 10.8125 -67.828125 C 10.5 -65.09375 10.296875 -61.3125 10.1875 -58.484375 C 10.078125 -57.75 9.5625 -57.125 8.71875 -57.125 L 3.5625 -57.125 C 2 -57.125 0.84375 -55.859375 0.734375 -54.28125 C 0.734375 -50.296875 0.625 -46.40625 0.734375 -42.53125 C 0.84375 -40.953125 2 -39.578125 3.5625 -39.578125 C 5.046875 -39.6875 6.515625 -39.6875 7.875 -39.6875 C 8.71875 -39.796875 9.453125 -39.171875 9.34375 -38.328125 C 8.5 -31.8125 8.5 -25.09375 8.5 -20.6875 C 8.5 -5.671875 19.421875 0.84375 33.8125 0.84375 Z M 33.8125 0.84375 "/></g></g></g><g fill="#5019dd" fill-opacity="1"><g transform="translate(1017.952531, 436.592429)"><g><path d="M 33.703125 0.84375 C 52.609375 0.84375 66.046875 -6.828125 66.046875 -26.984375 C 66.046875 -45.984375 52.703125 -57.953125 33.703125 -57.953125 C 14.703125 -57.953125 1.265625 -45.984375 1.265625 -26.984375 C 1.265625 -6.828125 14.8125 0.84375 33.703125 0.84375 Z M 33.703125 -17.53125 C 28.5625 -17.53125 24.890625 -21.734375 24.890625 -28.453125 C 24.890625 -34.96875 28.453125 -39.6875 33.703125 -39.6875 C 38.953125 -39.6875 42.53125 -34.96875 42.53125 -28.453125 C 42.53125 -21.734375 38.84375 -17.53125 33.703125 -17.53125 Z M 33.703125 -17.53125 "/></g></g></g><g fill="#5019dd" fill-opacity="1"><g transform="translate(1085.250013, 436.592429)"><g><path d="M 30.765625 0.734375 C 49.875 0.734375 60.484375 -5.5625 60.484375 -16.375 C 60.484375 -35.90625 28.671875 -31.390625 28.671875 -38.015625 C 28.671875 -40.53125 31.921875 -42 38.21875 -41.890625 C 43.15625 -41.796875 48.828125 -40.21875 52.8125 -38.015625 C 54.59375 -36.640625 56.703125 -37.375 56.59375 -40 C 56.484375 -44 56.0625 -49.03125 55.75 -52.921875 C 55.65625 -54.1875 54.8125 -55.234375 53.546875 -55.65625 C 47.140625 -57.125 37.59375 -57.859375 30.875 -57.859375 C 13.546875 -57.859375 3.671875 -52.921875 3.671875 -42 C 3.671875 -23 32.96875 -27.40625 32.96875 -20.6875 C 32.96875 -17.953125 30.234375 -16.59375 24.5625 -16.59375 C 18.6875 -16.59375 11.65625 -18.578125 5.875 -22.359375 C 4.203125 -23.828125 1.6875 -23.3125 1.578125 -20.796875 C 1.46875 -15.640625 1.359375 -10.703125 1.46875 -5.5625 C 1.46875 -4.203125 2.3125 -3.25 3.671875 -2.828125 C 11.125 -0.734375 22.15625 0.734375 30.765625 0.734375 Z M 30.765625 0.734375 "/></g></g></g><g clip-path="url(#e9372e9364)"><g clip-path="url(#7cbd6116af)"><g clip-path="url(#501eda23f9)"><path fill="#7ed957" d="M 272.21875 349.066406 C 277.691406 352.527344 280.074219 358.582031 277.539062 362.578125 C 275.007812 366.578125 268.519531 367.011719 263.046875 363.546875 C 257.574219 360.078125 255.191406 354.03125 257.726562 350.03125 C 260.257812 346.03125 266.746094 345.597656 272.21875 349.066406 Z M 327.367188 360.851562 C 325.824219 362.074219 324.105469 362.953125 322.210938 363.488281 C 320.316406 364.027344 318.390625 364.179688 316.4375 363.949219 C 316.078125 363.90625 315.722656 363.898438 315.359375 363.925781 C 315 363.957031 314.648438 364.019531 314.300781 364.117188 C 313.953125 364.214844 313.621094 364.347656 313.300781 364.511719 C 312.976562 364.675781 312.675781 364.867188 312.394531 365.09375 C 312.109375 365.316406 311.851562 365.566406 311.617188 365.839844 C 311.382812 366.113281 311.179688 366.410156 311.003906 366.722656 C 310.828125 367.039062 310.683594 367.367188 310.574219 367.710938 C 310.464844 368.054688 310.386719 368.40625 310.34375 368.761719 C 310.230469 369.730469 310.023438 370.679688 309.726562 371.605469 C 309.425781 372.53125 309.039062 373.421875 308.5625 374.273438 C 308.085938 375.125 307.535156 375.917969 306.902344 376.660156 C 306.269531 377.402344 305.570312 378.078125 304.808594 378.679688 C 304.042969 379.285156 303.226562 379.808594 302.359375 380.253906 C 301.492188 380.695312 300.589844 381.050781 299.652344 381.316406 C 298.714844 381.582031 297.757812 381.753906 296.789062 381.832031 C 295.816406 381.910156 294.847656 381.890625 293.878906 381.777344 C 292.910156 381.664062 291.964844 381.457031 291.035156 381.15625 C 290.109375 380.855469 289.21875 380.46875 288.367188 379.996094 C 287.519531 379.519531 286.722656 378.964844 285.980469 378.332031 C 285.238281 377.703125 284.566406 377.003906 283.960938 376.238281 C 283.355469 375.472656 282.832031 374.660156 282.390625 373.789062 C 281.945312 372.921875 281.589844 372.019531 281.324219 371.082031 C 281.058594 370.144531 280.886719 369.191406 280.8125 368.21875 C 280.734375 367.246094 280.75 366.277344 280.863281 365.308594 C 280.996094 364.167969 281.1875 363.03125 281.433594 361.90625 C 281.675781 360.78125 281.976562 359.667969 282.332031 358.574219 C 282.6875 357.476562 283.09375 356.402344 283.554688 355.34375 C 284.011719 354.289062 284.523438 353.257812 285.085938 352.25 C 285.648438 351.246094 286.257812 350.269531 286.914062 349.324219 C 287.570312 348.378906 288.273438 347.464844 289.019531 346.589844 C 289.769531 345.710938 290.554688 344.875 291.386719 344.074219 C 292.214844 343.273438 293.082031 342.515625 293.984375 341.804688 C 294.890625 341.089844 295.824219 340.421875 296.796875 339.796875 C 297.765625 339.175781 298.761719 338.601562 299.789062 338.078125 C 300.8125 337.554688 301.863281 337.082031 302.933594 336.660156 C 304.007812 336.238281 305.097656 335.871094 306.207031 335.558594 C 307.316406 335.242188 308.4375 334.984375 309.570312 334.78125 C 310.703125 334.578125 311.84375 334.429688 312.992188 334.339844 C 314.140625 334.246094 315.292969 334.210938 316.445312 334.234375 C 317.59375 334.253906 318.742188 334.332031 319.886719 334.464844 C 320.613281 334.550781 321.328125 334.6875 322.03125 334.878906 C 322.738281 335.070312 323.421875 335.308594 324.09375 335.601562 C 324.761719 335.894531 325.40625 336.234375 326.023438 336.617188 C 326.644531 337.003906 327.230469 337.4375 327.785156 337.910156 C 328.34375 338.382812 328.859375 338.894531 329.339844 339.441406 C 329.820312 339.992188 330.257812 340.574219 330.652344 341.1875 C 331.046875 341.804688 331.394531 342.441406 331.691406 343.109375 C 331.992188 343.773438 332.242188 344.457031 332.441406 345.160156 C 332.640625 345.863281 332.785156 346.574219 332.878906 347.296875 C 332.976562 348.023438 333.015625 348.75 333 349.480469 C 332.988281 350.207031 332.921875 350.933594 332.800781 351.652344 C 332.679688 352.375 332.507812 353.082031 332.285156 353.773438 C 332.058594 354.46875 331.785156 355.144531 331.460938 355.796875 C 331.136719 356.449219 330.765625 357.078125 330.347656 357.675781 C 329.933594 358.277344 329.472656 358.839844 328.972656 359.375 C 328.472656 359.90625 327.9375 360.398438 327.367188 360.851562 Z M 281.683594 328.636719 C 286.800781 333.988281 287.78125 341.355469 283.871094 345.097656 C 279.960938 348.835938 272.640625 347.53125 267.519531 342.179688 C 262.402344 336.832031 261.421875 329.464844 265.335938 325.722656 C 269.246094 321.980469 276.5625 323.285156 281.683594 328.636719 Z M 284.015625 326.792969 C 288.039062 333.007812 294.984375 335.664062 299.527344 332.722656 C 304.070312 329.78125 304.488281 322.359375 300.464844 316.140625 C 296.441406 309.925781 289.5 307.273438 284.957031 310.214844 C 280.414062 313.152344 279.992188 320.574219 284.015625 326.792969 Z M 306.078125 322.304688 C 308.183594 328.425781 313.523438 332.144531 317.996094 330.601562 C 322.472656 329.0625 324.394531 322.847656 322.285156 316.722656 C 320.179688 310.597656 314.839844 306.882812 310.367188 308.421875 C 305.890625 309.964844 303.96875 316.179688 306.078125 322.304688 Z M 306.078125 322.304688 " fill-opacity="1" fill-rule="nonzero"/></g></g></g><g clip-path="url(#b3b566dd4c)"><g clip-path="url(#ec73276eab)"><g clip-path="url(#dac47a19b4)"><path fill="#5019dd" d="M 273.992188 348.6875 C 279.050781 351.890625 281.253906 357.488281 278.910156 361.1875 C 276.570312 364.882812 270.566406 365.285156 265.507812 362.082031 C 260.449219 358.875 258.246094 353.277344 260.585938 349.582031 C 262.929688 345.882812 268.929688 345.480469 273.992188 348.6875 Z M 324.992188 359.585938 C 323.566406 360.71875 321.976562 361.53125 320.226562 362.027344 C 318.472656 362.523438 316.695312 362.664062 314.886719 362.453125 C 314.554688 362.414062 314.222656 362.40625 313.890625 362.433594 C 313.558594 362.460938 313.230469 362.519531 312.910156 362.609375 C 312.589844 362.699219 312.28125 362.820312 311.984375 362.972656 C 311.6875 363.125 311.40625 363.304688 311.144531 363.511719 C 310.882812 363.71875 310.644531 363.949219 310.429688 364.203125 C 310.210938 364.457031 310.023438 364.726562 309.859375 365.019531 C 309.699219 365.3125 309.566406 365.613281 309.464844 365.933594 C 309.359375 366.25 309.289062 366.574219 309.25 366.90625 C 309.148438 367.800781 308.957031 368.675781 308.679688 369.535156 C 308.402344 370.390625 308.042969 371.214844 307.601562 372 C 307.164062 372.789062 306.652344 373.523438 306.066406 374.210938 C 305.484375 374.894531 304.835938 375.519531 304.128906 376.078125 C 303.421875 376.636719 302.667969 377.121094 301.867188 377.53125 C 301.0625 377.941406 300.226562 378.269531 299.359375 378.515625 C 298.492188 378.761719 297.609375 378.917969 296.710938 378.992188 C 295.8125 379.0625 294.917969 379.046875 294.023438 378.941406 C 293.128906 378.835938 292.25 378.644531 291.394531 378.367188 C 290.535156 378.089844 289.714844 377.730469 288.925781 377.292969 C 288.140625 376.851562 287.402344 376.339844 286.71875 375.757812 C 286.03125 375.171875 285.410156 374.527344 284.851562 373.820312 C 284.292969 373.113281 283.808594 372.359375 283.398438 371.554688 C 282.988281 370.753906 282.660156 369.917969 282.414062 369.050781 C 282.167969 368.183594 282.007812 367.300781 281.9375 366.402344 C 281.863281 365.503906 281.882812 364.605469 281.988281 363.710938 C 282.109375 362.652344 282.285156 361.605469 282.511719 360.5625 C 282.738281 359.523438 283.015625 358.496094 283.34375 357.480469 C 283.671875 356.46875 284.046875 355.472656 284.472656 354.496094 C 284.898438 353.519531 285.371094 352.566406 285.890625 351.632812 C 286.410156 350.703125 286.972656 349.800781 287.582031 348.925781 C 288.191406 348.050781 288.839844 347.207031 289.53125 346.398438 C 290.222656 345.585938 290.949219 344.8125 291.71875 344.070312 C 292.484375 343.332031 293.285156 342.632812 294.121094 341.972656 C 294.957031 341.3125 295.824219 340.691406 296.71875 340.117188 C 297.617188 339.542969 298.539062 339.011719 299.488281 338.527344 C 300.4375 338.042969 301.40625 337.605469 302.398438 337.214844 C 303.390625 336.824219 304.398438 336.484375 305.425781 336.195312 C 306.449219 335.90625 307.484375 335.664062 308.535156 335.476562 C 309.582031 335.289062 310.640625 335.152344 311.699219 335.066406 C 312.761719 334.984375 313.828125 334.949219 314.890625 334.96875 C 315.957031 334.988281 317.019531 335.0625 318.078125 335.1875 C 319.425781 335.34375 320.722656 335.695312 321.964844 336.238281 C 323.210938 336.777344 324.347656 337.488281 325.382812 338.371094 C 326.414062 339.25 327.296875 340.261719 328.03125 341.402344 C 328.765625 342.546875 329.316406 343.769531 329.6875 345.074219 C 330.058594 346.382812 330.230469 347.714844 330.203125 349.070312 C 330.179688 350.429688 329.957031 351.753906 329.539062 353.042969 C 329.121094 354.335938 328.527344 355.539062 327.75 356.652344 C 326.976562 357.765625 326.058594 358.746094 324.992188 359.585938 Z M 282.742188 329.792969 C 287.476562 334.742188 288.382812 341.558594 284.765625 345.019531 C 281.148438 348.476562 274.378906 347.269531 269.644531 342.320312 C 264.914062 337.375 264.007812 330.558594 267.625 327.097656 C 271.238281 323.640625 278.007812 324.847656 282.742188 329.792969 Z M 284.902344 328.089844 C 288.621094 333.835938 295.042969 336.292969 299.246094 333.574219 C 303.449219 330.855469 303.835938 323.988281 300.113281 318.238281 C 296.394531 312.492188 289.972656 310.035156 285.769531 312.757812 C 281.570312 315.476562 281.179688 322.339844 284.902344 328.089844 Z M 305.304688 323.9375 C 307.253906 329.601562 312.191406 333.039062 316.328125 331.613281 C 320.46875 330.1875 322.242188 324.441406 320.296875 318.777344 C 318.34375 313.113281 313.410156 309.675781 309.269531 311.101562 C 305.128906 312.527344 303.355469 318.273438 305.304688 323.9375 Z M 305.304688 323.9375 " fill-opacity="1" fill-rule="nonzero"/></g></g></g></svg>