<svg xmlns="http://www.w3.org/2000/svg" xmlns:xlink="http://www.w3.org/1999/xlink" width="50" zoomAndPan="magnify" viewBox="0 0 37.5 37.499999" height="50" preserveAspectRatio="xMidYMid meet" version="1.0"><defs><clipPath id="8dd1cdffa2"><path d="M 1 0 L 37.007812 0 L 37.007812 37 L 1 37 Z M 1 0 " clip-rule="nonzero"/></clipPath><clipPath id="a79fa67698"><path d="M 1 1 L 36.464844 1 L 36.464844 36.265625 L 1 36.265625 Z M 1 1 " clip-rule="nonzero"/></clipPath><clipPath id="4b920ff68c"><path d="M 0.199219 19 L 6 19 L 6 25 L 0.199219 25 Z M 0.199219 19 " clip-rule="nonzero"/></clipPath></defs><g clip-path="url(#8dd1cdffa2)"><path fill="#157900" d="M 37.917969 18.828125 C 37.917969 19.410156 37.890625 19.996094 37.832031 20.578125 C 37.777344 21.160156 37.691406 21.734375 37.582031 22.308594 C 37.46875 22.882812 37.328125 23.449219 37.160156 24.011719 C 36.996094 24.570312 36.800781 25.121094 36.582031 25.664062 C 36.363281 26.207031 36.117188 26.734375 35.84375 27.253906 C 35.574219 27.773438 35.277344 28.277344 34.957031 28.765625 C 34.640625 29.253906 34.296875 29.726562 33.929688 30.183594 C 33.566406 30.640625 33.179688 31.078125 32.773438 31.496094 C 32.363281 31.917969 31.9375 32.316406 31.492188 32.695312 C 31.046875 33.070312 30.582031 33.425781 30.101562 33.761719 C 29.621094 34.09375 29.125 34.402344 28.617188 34.6875 C 28.105469 34.972656 27.582031 35.234375 27.046875 35.46875 C 26.511719 35.703125 25.964844 35.914062 25.410156 36.097656 C 24.855469 36.277344 24.292969 36.433594 23.722656 36.5625 C 23.152344 36.691406 22.578125 36.789062 21.996094 36.863281 C 21.417969 36.9375 20.835938 36.980469 20.25 36.996094 L 20.25 35.03125 C 28.957031 34.761719 35.949219 27.597656 35.949219 18.828125 C 35.949219 9.890625 28.675781 2.621094 19.738281 2.621094 C 10.972656 2.621094 3.804688 9.617188 3.535156 18.316406 L 1.570312 18.316406 C 1.597656 17.433594 1.683594 16.558594 1.839844 15.6875 C 1.992188 14.820312 2.207031 13.964844 2.484375 13.128906 C 2.761719 12.289062 3.097656 11.476562 3.492188 10.6875 C 3.890625 9.898438 4.339844 9.140625 4.847656 8.417969 C 5.351562 7.695312 5.910156 7.011719 6.515625 6.367188 C 7.121094 5.726562 7.769531 5.128906 8.460938 4.582031 C 9.152344 4.035156 9.882812 3.539062 10.644531 3.097656 C 11.410156 2.65625 12.203125 2.273438 13.023438 1.945312 C 13.84375 1.617188 14.683594 1.355469 15.542969 1.148438 C 16.402344 0.945312 17.273438 0.804688 18.152344 0.726562 C 19.03125 0.652344 19.910156 0.636719 20.792969 0.6875 C 21.675781 0.738281 22.546875 0.855469 23.414062 1.03125 C 24.277344 1.210938 25.125 1.449219 25.953125 1.75 C 26.785156 2.054688 27.585938 2.414062 28.363281 2.832031 C 29.140625 3.25 29.886719 3.722656 30.59375 4.25 C 31.300781 4.777344 31.96875 5.351562 32.59375 5.976562 C 34.304688 7.675781 35.621094 9.640625 36.542969 11.867188 C 37.464844 14.097656 37.925781 16.414062 37.917969 18.828125 Z M 37.917969 18.828125 " fill-opacity="1" fill-rule="nonzero"/></g><path fill="#157900" d="M 28.386719 18.828125 C 28.386719 18.683594 28.4375 18.5625 28.539062 18.464844 C 28.636719 18.363281 28.757812 18.3125 28.898438 18.3125 L 31.28125 18.3125 C 31.210938 16.613281 30.777344 15.007812 29.988281 13.5 L 27.925781 14.695312 C 27.804688 14.761719 27.675781 14.777344 27.542969 14.738281 C 27.40625 14.703125 27.304688 14.625 27.234375 14.503906 C 27.164062 14.382812 27.148438 14.253906 27.183594 14.117188 C 27.21875 13.984375 27.296875 13.878906 27.414062 13.808594 L 29.476562 12.613281 C 28.558594 11.183594 27.386719 10.011719 25.957031 9.097656 L 24.761719 11.160156 C 24.691406 11.28125 24.585938 11.359375 24.449219 11.398438 C 24.3125 11.433594 24.183594 11.417969 24.0625 11.347656 C 23.9375 11.277344 23.859375 11.171875 23.820312 11.035156 C 23.785156 10.898438 23.804688 10.769531 23.875 10.644531 L 25.066406 8.585938 C 23.558594 7.796875 21.953125 7.367188 20.253906 7.292969 L 20.253906 9.675781 C 20.253906 9.816406 20.203125 9.9375 20.101562 10.039062 C 20.003906 10.136719 19.882812 10.1875 19.742188 10.1875 C 19.597656 10.1875 19.480469 10.136719 19.378906 10.039062 C 19.277344 9.9375 19.230469 9.816406 19.230469 9.675781 L 19.230469 7.289062 C 17.527344 7.363281 15.921875 7.792969 14.414062 8.585938 L 15.609375 10.648438 C 15.679688 10.769531 15.695312 10.898438 15.660156 11.035156 C 15.621094 11.171875 15.542969 11.277344 15.421875 11.347656 C 15.296875 11.417969 15.167969 11.433594 15.03125 11.398438 C 14.894531 11.359375 14.792969 11.28125 14.71875 11.160156 L 13.527344 9.097656 C 12.097656 10.015625 10.921875 11.1875 10.003906 12.621094 L 12.066406 13.816406 C 12.183594 13.886719 12.261719 13.992188 12.296875 14.125 C 12.332031 14.261719 12.316406 14.390625 12.246094 14.511719 C 12.175781 14.632812 12.074219 14.710938 11.9375 14.746094 C 11.804688 14.785156 11.675781 14.769531 11.554688 14.703125 L 9.488281 13.507812 C 8.703125 15.015625 8.273438 16.617188 8.203125 18.3125 L 10.585938 18.3125 C 10.726562 18.3125 10.847656 18.363281 10.949219 18.464844 C 11.046875 18.5625 11.097656 18.683594 11.097656 18.828125 C 11.097656 18.96875 11.046875 19.089844 10.949219 19.1875 C 10.847656 19.289062 10.726562 19.339844 10.585938 19.339844 L 8.203125 19.339844 C 8.273438 21.039062 8.707031 22.644531 9.492188 24.152344 L 11.558594 22.957031 C 11.679688 22.882812 11.808594 22.867188 11.949219 22.902344 C 12.089844 22.9375 12.191406 23.015625 12.265625 23.140625 C 12.335938 23.265625 12.351562 23.394531 12.316406 23.535156 C 12.277344 23.671875 12.195312 23.777344 12.070312 23.84375 L 10.007812 25.039062 C 10.925781 26.472656 12.101562 27.648438 13.53125 28.566406 L 14.71875 26.507812 C 14.789062 26.386719 14.890625 26.308594 15.027344 26.269531 C 15.164062 26.234375 15.292969 26.25 15.417969 26.320312 C 15.539062 26.390625 15.621094 26.496094 15.65625 26.632812 C 15.691406 26.769531 15.675781 26.898438 15.605469 27.019531 L 14.410156 29.082031 C 15.917969 29.871094 17.523438 30.300781 19.226562 30.375 L 19.226562 27.988281 C 19.226562 27.847656 19.277344 27.726562 19.375 27.625 C 19.476562 27.527344 19.597656 27.476562 19.738281 27.476562 C 19.878906 27.476562 20 27.527344 20.101562 27.625 C 20.199219 27.726562 20.25 27.847656 20.25 27.988281 L 20.25 30.371094 C 21.949219 30.296875 23.554688 29.867188 25.0625 29.082031 L 23.875 27.019531 C 23.804688 26.898438 23.789062 26.769531 23.824219 26.632812 C 23.859375 26.496094 23.941406 26.390625 24.0625 26.320312 C 24.1875 26.25 24.316406 26.230469 24.453125 26.269531 C 24.589844 26.304688 24.695312 26.386719 24.765625 26.507812 L 25.957031 28.570312 C 27.390625 27.652344 28.566406 26.476562 29.480469 25.046875 L 27.417969 23.851562 C 27.300781 23.78125 27.222656 23.675781 27.1875 23.542969 C 27.152344 23.40625 27.171875 23.277344 27.238281 23.15625 C 27.308594 23.035156 27.410156 22.957031 27.546875 22.921875 C 27.679688 22.882812 27.808594 22.898438 27.929688 22.964844 L 29.996094 24.160156 C 30.78125 22.648438 31.210938 21.042969 31.28125 19.339844 L 28.898438 19.339844 C 28.757812 19.339844 28.636719 19.289062 28.539062 19.1875 C 28.4375 19.089844 28.386719 18.96875 28.386719 18.828125 Z M 22.03125 14.816406 C 21.941406 14.882812 21.839844 14.914062 21.726562 14.914062 C 21.554688 14.914062 21.417969 14.847656 21.3125 14.707031 L 20.253906 13.277344 L 20.253906 18.828125 C 20.253906 18.96875 20.203125 19.089844 20.101562 19.1875 C 20.003906 19.289062 19.882812 19.339844 19.742188 19.339844 L 14.933594 19.339844 L 16.371094 20.398438 C 16.570312 20.546875 16.632812 20.738281 16.554688 20.972656 C 16.476562 21.207031 16.316406 21.324219 16.066406 21.324219 C 15.953125 21.324219 15.851562 21.289062 15.761719 21.222656 L 13.09375 19.253906 L 13.074219 19.242188 C 13.074219 19.238281 13.070312 19.238281 13.070312 19.234375 C 13.058594 19.226562 13.046875 19.21875 13.039062 19.207031 C 13.019531 19.195312 13.003906 19.175781 12.988281 19.160156 C 12.976562 19.144531 12.964844 19.128906 12.957031 19.117188 C 12.953125 19.113281 12.949219 19.109375 12.949219 19.105469 C 12.9375 19.089844 12.929688 19.078125 12.921875 19.0625 C 12.917969 19.050781 12.914062 19.039062 12.910156 19.027344 C 12.902344 19.011719 12.894531 18.996094 12.890625 18.980469 C 12.886719 18.964844 12.882812 18.949219 12.878906 18.933594 C 12.875 18.921875 12.871094 18.90625 12.871094 18.894531 C 12.871094 18.890625 12.871094 18.882812 12.871094 18.882812 C 12.867188 18.847656 12.867188 18.816406 12.871094 18.785156 C 12.871094 18.785156 12.871094 18.777344 12.871094 18.773438 C 12.871094 18.757812 12.875 18.746094 12.878906 18.730469 C 12.882812 18.714844 12.886719 18.699219 12.890625 18.683594 C 12.894531 18.667969 12.902344 18.652344 12.910156 18.636719 C 12.914062 18.625 12.917969 18.613281 12.921875 18.601562 C 12.929688 18.589844 12.9375 18.574219 12.949219 18.5625 C 12.949219 18.558594 12.953125 18.554688 12.957031 18.550781 C 12.964844 18.535156 12.976562 18.519531 12.988281 18.507812 C 13.003906 18.488281 13.019531 18.472656 13.039062 18.457031 C 13.046875 18.445312 13.058594 18.4375 13.070312 18.429688 C 13.070312 18.425781 13.074219 18.425781 13.074219 18.421875 L 13.09375 18.410156 L 15.761719 16.4375 C 15.875 16.351562 16.003906 16.320312 16.144531 16.339844 C 16.28125 16.363281 16.394531 16.429688 16.480469 16.542969 C 16.5625 16.65625 16.59375 16.785156 16.574219 16.925781 C 16.554688 17.0625 16.484375 17.175781 16.371094 17.261719 L 14.933594 18.3125 L 19.230469 18.3125 L 19.230469 13.277344 L 18.167969 14.714844 C 18.082031 14.824219 17.96875 14.890625 17.832031 14.910156 C 17.695312 14.929688 17.566406 14.898438 17.457031 14.816406 C 17.34375 14.734375 17.277344 14.621094 17.253906 14.484375 C 17.234375 14.347656 17.261719 14.21875 17.34375 14.105469 L 19.316406 11.4375 L 19.328125 11.417969 L 19.332031 11.414062 C 19.34375 11.398438 19.355469 11.386719 19.367188 11.375 C 19.363281 11.375 19.363281 11.371094 19.367188 11.371094 C 19.394531 11.34375 19.421875 11.316406 19.457031 11.296875 C 19.472656 11.285156 19.488281 11.273438 19.503906 11.265625 C 19.523438 11.257812 19.542969 11.25 19.5625 11.242188 C 19.570312 11.238281 19.578125 11.234375 19.589844 11.234375 C 19.597656 11.230469 19.609375 11.226562 19.617188 11.226562 C 19.625 11.222656 19.632812 11.222656 19.640625 11.21875 L 19.675781 11.214844 L 19.796875 11.214844 L 19.835938 11.21875 C 19.851562 11.222656 19.871094 11.226562 19.886719 11.234375 C 19.894531 11.234375 19.902344 11.238281 19.910156 11.242188 L 19.941406 11.253906 L 19.976562 11.269531 C 19.992188 11.277344 20.007812 11.289062 20.023438 11.296875 C 20.039062 11.308594 20.054688 11.320312 20.066406 11.332031 C 20.078125 11.34375 20.09375 11.351562 20.105469 11.367188 C 20.109375 11.371094 20.117188 11.378906 20.125 11.386719 C 20.128906 11.394531 20.132812 11.398438 20.136719 11.40625 C 20.144531 11.410156 20.144531 11.414062 20.148438 11.417969 L 22.132812 14.105469 C 22.214844 14.21875 22.246094 14.34375 22.226562 14.480469 C 22.207031 14.621094 22.140625 14.730469 22.03125 14.816406 Z M 22.03125 14.816406 " fill-opacity="1" fill-rule="nonzero"/><path fill="#157900" d="M 5.097656 19.34375 L 2.546875 24.417969 L -0.00390625 19.34375 Z M 5.097656 19.34375 " fill-opacity="1" fill-rule="nonzero"/><g clip-path="url(#a79fa67698)"><path fill="#7ed957" d="M 36.789062 18.878906 C 36.789062 19.445312 36.761719 20.007812 36.707031 20.566406 C 36.652344 21.128906 36.570312 21.6875 36.460938 22.242188 C 36.355469 22.792969 36.21875 23.34375 36.058594 23.882812 C 35.898438 24.421875 35.710938 24.957031 35.5 25.476562 C 35.285156 26 35.050781 26.511719 34.789062 27.011719 C 34.527344 27.511719 34.242188 27.996094 33.933594 28.46875 C 33.625 28.941406 33.292969 29.398438 32.941406 29.839844 C 32.589844 30.28125 32.214844 30.703125 31.824219 31.105469 C 31.429688 31.511719 31.015625 31.894531 30.585938 32.261719 C 30.15625 32.625 29.710938 32.96875 29.246094 33.289062 C 28.78125 33.613281 28.304688 33.910156 27.8125 34.1875 C 27.320312 34.460938 26.816406 34.710938 26.296875 34.9375 C 25.78125 35.167969 25.257812 35.367188 24.71875 35.542969 C 24.183594 35.71875 23.640625 35.871094 23.089844 35.992188 C 22.539062 36.117188 21.984375 36.214844 21.425781 36.285156 C 20.863281 36.355469 20.304688 36.398438 19.738281 36.414062 L 19.738281 34.519531 C 28.140625 34.257812 34.886719 27.34375 34.886719 18.882812 C 34.886719 10.257812 27.871094 3.242188 19.246094 3.242188 C 10.785156 3.242188 3.871094 9.996094 3.609375 18.390625 L 1.714844 18.390625 C 1.738281 17.535156 1.824219 16.691406 1.972656 15.851562 C 2.121094 15.011719 2.328125 14.1875 2.597656 13.378906 C 2.863281 12.570312 3.1875 11.785156 3.570312 11.023438 C 3.953125 10.261719 4.386719 9.535156 4.875 8.835938 C 5.363281 8.136719 5.902344 7.476562 6.484375 6.859375 C 7.070312 6.238281 7.695312 5.664062 8.363281 5.136719 C 9.03125 4.605469 9.734375 4.128906 10.472656 3.703125 C 11.210938 3.277344 11.976562 2.90625 12.765625 2.589844 C 13.558594 2.277344 14.367188 2.019531 15.199219 1.824219 C 16.027344 1.625 16.867188 1.488281 17.714844 1.414062 C 18.5625 1.339844 19.414062 1.328125 20.261719 1.378906 C 21.113281 1.425781 21.957031 1.535156 22.789062 1.707031 C 23.625 1.878906 24.441406 2.113281 25.242188 2.402344 C 26.042969 2.695312 26.820312 3.042969 27.570312 3.445312 C 28.320312 3.851562 29.039062 4.304688 29.722656 4.816406 C 30.40625 5.324219 31.046875 5.878906 31.648438 6.480469 C 33.300781 8.121094 34.570312 10.015625 35.460938 12.164062 C 36.351562 14.316406 36.792969 16.554688 36.789062 18.878906 Z M 36.789062 18.878906 " fill-opacity="1" fill-rule="nonzero"/></g><path fill="#7ed957" d="M 27.589844 18.878906 C 27.589844 18.742188 27.640625 18.625 27.734375 18.53125 C 27.832031 18.433594 27.949219 18.386719 28.085938 18.386719 L 30.386719 18.386719 C 30.316406 16.746094 29.898438 15.195312 29.136719 13.738281 L 27.148438 14.890625 C 27.03125 14.957031 26.90625 14.972656 26.777344 14.9375 C 26.644531 14.898438 26.546875 14.824219 26.480469 14.707031 C 26.414062 14.589844 26.394531 14.46875 26.429688 14.335938 C 26.464844 14.207031 26.539062 14.105469 26.652344 14.035156 L 28.644531 12.882812 C 27.757812 11.503906 26.625 10.375 25.246094 9.492188 L 24.09375 11.480469 C 24.023438 11.597656 23.925781 11.675781 23.792969 11.710938 C 23.660156 11.746094 23.535156 11.730469 23.417969 11.660156 C 23.296875 11.59375 23.222656 11.492188 23.1875 11.363281 C 23.152344 11.230469 23.167969 11.105469 23.234375 10.984375 L 24.386719 8.996094 C 22.933594 8.234375 21.382812 7.820312 19.742188 7.75 L 19.742188 10.050781 C 19.742188 10.1875 19.695312 10.304688 19.597656 10.398438 C 19.5 10.496094 19.382812 10.542969 19.25 10.542969 C 19.113281 10.542969 18.996094 10.496094 18.898438 10.398438 C 18.800781 10.304688 18.753906 10.1875 18.753906 10.050781 L 18.753906 7.746094 C 17.113281 7.816406 15.5625 8.234375 14.105469 8.996094 L 15.261719 10.988281 C 15.328125 11.105469 15.34375 11.230469 15.308594 11.363281 C 15.273438 11.492188 15.199219 11.59375 15.078125 11.664062 C 14.960938 11.730469 14.835938 11.746094 14.703125 11.710938 C 14.570312 11.675781 14.472656 11.597656 14.402344 11.480469 L 13.253906 9.492188 C 11.871094 10.375 10.738281 11.511719 9.851562 12.890625 L 11.84375 14.042969 C 11.957031 14.113281 12.03125 14.214844 12.066406 14.34375 C 12.097656 14.472656 12.082031 14.597656 12.015625 14.714844 C 11.949219 14.832031 11.847656 14.90625 11.71875 14.945312 C 11.589844 14.980469 11.464844 14.964844 11.347656 14.898438 L 9.355469 13.746094 C 8.597656 15.199219 8.183594 16.746094 8.113281 18.386719 L 10.414062 18.386719 C 10.550781 18.386719 10.667969 18.433594 10.765625 18.53125 C 10.859375 18.625 10.910156 18.742188 10.910156 18.878906 C 10.910156 19.015625 10.859375 19.132812 10.765625 19.230469 C 10.667969 19.324219 10.550781 19.375 10.414062 19.375 L 8.113281 19.375 C 8.183594 21.015625 8.601562 22.5625 9.359375 24.019531 L 11.351562 22.867188 C 11.46875 22.796875 11.597656 22.777344 11.730469 22.8125 C 11.863281 22.847656 11.964844 22.921875 12.035156 23.042969 C 12.101562 23.164062 12.121094 23.289062 12.082031 23.421875 C 12.046875 23.554688 11.964844 23.65625 11.84375 23.722656 L 9.855469 24.875 C 10.742188 26.257812 11.875 27.390625 13.257812 28.277344 L 14.402344 26.292969 C 14.46875 26.175781 14.570312 26.097656 14.703125 26.0625 C 14.832031 26.027344 14.957031 26.042969 15.074219 26.113281 C 15.195312 26.179688 15.269531 26.28125 15.304688 26.410156 C 15.34375 26.542969 15.324219 26.667969 15.257812 26.785156 L 14.105469 28.777344 C 15.5625 29.539062 17.109375 29.953125 18.75 30.023438 L 18.75 27.71875 C 18.75 27.582031 18.800781 27.464844 18.894531 27.371094 C 18.992188 27.273438 19.109375 27.226562 19.246094 27.226562 C 19.382812 27.226562 19.5 27.273438 19.59375 27.371094 C 19.691406 27.464844 19.738281 27.582031 19.738281 27.71875 L 19.738281 30.019531 C 21.382812 29.949219 22.929688 29.535156 24.386719 28.773438 L 23.238281 26.785156 C 23.171875 26.667969 23.152344 26.542969 23.1875 26.410156 C 23.222656 26.277344 23.300781 26.179688 23.417969 26.109375 C 23.539062 26.042969 23.664062 26.027344 23.796875 26.0625 C 23.925781 26.097656 24.027344 26.171875 24.09375 26.292969 L 25.25 28.28125 C 26.628906 27.398438 27.761719 26.261719 28.648438 24.882812 L 26.65625 23.730469 C 26.542969 23.660156 26.46875 23.558594 26.433594 23.429688 C 26.398438 23.300781 26.417969 23.175781 26.484375 23.058594 C 26.550781 22.941406 26.652344 22.867188 26.78125 22.828125 C 26.910156 22.792969 27.035156 22.808594 27.152344 22.875 L 29.140625 24.027344 C 29.902344 22.566406 30.316406 21.015625 30.386719 19.375 L 28.085938 19.375 C 27.949219 19.375 27.832031 19.324219 27.734375 19.230469 C 27.640625 19.132812 27.589844 19.015625 27.589844 18.878906 Z M 21.457031 15.007812 C 21.371094 15.074219 21.273438 15.105469 21.164062 15.105469 C 20.996094 15.105469 20.863281 15.039062 20.765625 14.90625 L 19.742188 13.527344 L 19.742188 18.878906 C 19.742188 19.015625 19.695312 19.132812 19.597656 19.230469 C 19.5 19.324219 19.382812 19.375 19.25 19.375 L 14.609375 19.375 L 15.996094 20.398438 C 16.191406 20.539062 16.25 20.722656 16.171875 20.949219 C 16.097656 21.175781 15.941406 21.289062 15.703125 21.289062 C 15.59375 21.289062 15.496094 21.257812 15.410156 21.191406 L 12.832031 19.292969 L 12.816406 19.28125 C 12.8125 19.277344 12.8125 19.277344 12.808594 19.273438 C 12.800781 19.265625 12.789062 19.257812 12.78125 19.25 C 12.761719 19.234375 12.746094 19.21875 12.730469 19.199219 C 12.71875 19.1875 12.710938 19.171875 12.703125 19.160156 C 12.699219 19.15625 12.695312 19.152344 12.695312 19.148438 C 12.683594 19.132812 12.675781 19.121094 12.671875 19.105469 C 12.664062 19.097656 12.660156 19.085938 12.65625 19.074219 C 12.648438 19.058594 12.644531 19.046875 12.640625 19.03125 C 12.632812 19.015625 12.628906 19 12.625 18.984375 C 12.625 18.96875 12.621094 18.957031 12.621094 18.945312 C 12.621094 18.941406 12.621094 18.9375 12.621094 18.933594 C 12.617188 18.902344 12.617188 18.871094 12.621094 18.839844 C 12.621094 18.839844 12.621094 18.832031 12.621094 18.828125 C 12.621094 18.8125 12.625 18.800781 12.625 18.789062 C 12.628906 18.773438 12.632812 18.757812 12.640625 18.742188 C 12.644531 18.726562 12.648438 18.710938 12.65625 18.695312 C 12.660156 18.683594 12.664062 18.671875 12.671875 18.664062 C 12.675781 18.648438 12.683594 18.636719 12.695312 18.625 C 12.695312 18.621094 12.699219 18.617188 12.703125 18.613281 C 12.710938 18.597656 12.71875 18.582031 12.730469 18.570312 C 12.746094 18.554688 12.761719 18.535156 12.78125 18.523438 C 12.789062 18.511719 12.800781 18.503906 12.808594 18.496094 C 12.8125 18.496094 12.8125 18.492188 12.816406 18.492188 L 12.832031 18.480469 L 15.410156 16.574219 C 15.519531 16.492188 15.640625 16.460938 15.777344 16.480469 C 15.910156 16.503906 16.019531 16.566406 16.101562 16.675781 C 16.183594 16.785156 16.210938 16.910156 16.191406 17.042969 C 16.171875 17.179688 16.105469 17.285156 15.996094 17.367188 L 14.609375 18.386719 L 18.753906 18.386719 L 18.753906 13.527344 L 17.730469 14.914062 C 17.648438 15.019531 17.539062 15.082031 17.40625 15.101562 C 17.273438 15.121094 17.152344 15.089844 17.042969 15.007812 C 16.933594 14.929688 16.871094 14.824219 16.847656 14.691406 C 16.828125 14.554688 16.855469 14.433594 16.933594 14.324219 L 18.839844 11.75 L 18.851562 11.730469 L 18.855469 11.726562 C 18.863281 11.714844 18.875 11.703125 18.886719 11.691406 C 18.886719 11.6875 18.886719 11.6875 18.886719 11.683594 C 18.914062 11.65625 18.941406 11.632812 18.972656 11.613281 C 18.988281 11.601562 19.003906 11.59375 19.019531 11.585938 C 19.039062 11.578125 19.054688 11.570312 19.074219 11.5625 C 19.082031 11.558594 19.09375 11.554688 19.101562 11.550781 C 19.109375 11.550781 19.121094 11.546875 19.128906 11.546875 C 19.136719 11.542969 19.144531 11.542969 19.152344 11.539062 L 19.1875 11.535156 L 19.304688 11.535156 L 19.339844 11.539062 C 19.355469 11.542969 19.371094 11.546875 19.386719 11.550781 C 19.394531 11.554688 19.402344 11.558594 19.410156 11.558594 L 19.441406 11.570312 L 19.476562 11.585938 C 19.492188 11.597656 19.507812 11.605469 19.519531 11.617188 C 19.535156 11.625 19.550781 11.636719 19.5625 11.648438 C 19.574219 11.65625 19.585938 11.667969 19.597656 11.679688 C 19.605469 11.6875 19.613281 11.695312 19.617188 11.703125 C 19.625 11.707031 19.628906 11.710938 19.632812 11.71875 C 19.636719 11.722656 19.640625 11.726562 19.644531 11.730469 L 21.558594 14.324219 C 21.636719 14.433594 21.667969 14.554688 21.648438 14.6875 C 21.628906 14.820312 21.5625 14.925781 21.457031 15.007812 Z M 21.457031 15.007812 " fill-opacity="1" fill-rule="nonzero"/><g clip-path="url(#4b920ff68c)"><path fill="#7ed957" d="M 5.117188 19.378906 L 2.65625 24.277344 L 0.195312 19.378906 Z M 5.117188 19.378906 " fill-opacity="1" fill-rule="nonzero"/></g></svg>