<svg xmlns="http://www.w3.org/2000/svg" xmlns:xlink="http://www.w3.org/1999/xlink" width="1920" zoomAndPan="magnify" viewBox="0 0 1440 809.999993" height="1080" preserveAspectRatio="xMidYMid meet" version="1.0"><defs><g/><clipPath id="746da428d9"><path d="M 1268 348 L 1345 348 L 1345 424 L 1268 424 Z M 1268 348 " clip-rule="nonzero"/></clipPath><clipPath id="7a4391b8db"><path d="M 1301.777344 333.84375 L 1358.75 389.289062 L 1311.152344 438.203125 L 1254.179688 382.757812 Z M 1301.777344 333.84375 " clip-rule="nonzero"/></clipPath><clipPath id="29f4ac6aee"><path d="M 1301.777344 333.84375 L 1358.75 389.289062 L 1311.152344 438.203125 L 1254.179688 382.757812 Z M 1301.777344 333.84375 " clip-rule="nonzero"/></clipPath><clipPath id="9da5871968"><path d="M 1271 351 L 1342 351 L 1342 422 L 1271 422 Z M 1271 351 " clip-rule="nonzero"/></clipPath><clipPath id="8d4d2526da"><path d="M 1302.140625 337.777344 L 1354.816406 389.039062 L 1310.878906 434.1875 L 1258.203125 382.929688 Z M 1302.140625 337.777344 " clip-rule="nonzero"/></clipPath><clipPath id="2eb2a2c828"><path d="M 1302.140625 337.777344 L 1354.816406 389.039062 L 1310.878906 434.1875 L 1258.203125 382.929688 Z M 1302.140625 337.777344 " clip-rule="nonzero"/></clipPath><clipPath id="02bab8e657"><path d="M 94 317 L 171 317 L 171 392 L 94 392 Z M 94 317 " clip-rule="nonzero"/></clipPath><clipPath id="fdd2a9e139"><path d="M 81.003906 351.46875 L 143.371094 302.171875 L 185.695312 355.71875 L 123.324219 405.015625 Z M 81.003906 351.46875 " clip-rule="nonzero"/></clipPath><clipPath id="bdfbe0ecb0"><path d="M 81.003906 351.46875 L 143.371094 302.171875 L 185.695312 355.71875 L 123.324219 405.015625 Z M 81.003906 351.46875 " clip-rule="nonzero"/></clipPath><clipPath id="cfe5934743"><path d="M 97 320 L 168 320 L 168 389 L 97 389 Z M 97 320 " clip-rule="nonzero"/></clipPath><clipPath id="06d1b0c53d"><path d="M 84.953125 351.625 L 142.617188 306.046875 L 181.679688 355.472656 L 124.019531 401.050781 Z M 84.953125 351.625 " clip-rule="nonzero"/></clipPath><clipPath id="a4056c9c88"><path d="M 84.953125 351.625 L 142.617188 306.046875 L 181.679688 355.472656 L 124.019531 401.050781 Z M 84.953125 351.625 " clip-rule="nonzero"/></clipPath></defs><g clip-path="url(#746da428d9)"><g clip-path="url(#7a4391b8db)"><g clip-path="url(#29f4ac6aee)"><path fill="#157900" d="M 1298.542969 363.472656 C 1295.820312 369.347656 1290.128906 372.496094 1285.835938 370.503906 C 1281.542969 368.511719 1280.269531 362.132812 1282.996094 356.257812 C 1285.722656 350.382812 1291.414062 347.234375 1295.707031 349.226562 C 1300 351.21875 1301.269531 357.597656 1298.542969 363.472656 Z M 1294.015625 419.683594 C 1292.605469 418.3125 1291.507812 416.722656 1290.730469 414.914062 C 1289.953125 413.105469 1289.550781 411.21875 1289.527344 409.25 C 1289.523438 408.890625 1289.484375 408.53125 1289.40625 408.179688 C 1289.332031 407.828125 1289.222656 407.484375 1289.082031 407.152344 C 1288.9375 406.820312 1288.765625 406.507812 1288.5625 406.210938 C 1288.355469 405.914062 1288.125 405.640625 1287.867188 405.386719 C 1287.609375 405.136719 1287.328125 404.914062 1287.023438 404.714844 C 1286.722656 404.519531 1286.402344 404.355469 1286.070312 404.222656 C 1285.734375 404.089844 1285.390625 403.988281 1285.035156 403.925781 C 1284.679688 403.859375 1284.320312 403.828125 1283.960938 403.832031 C 1282.988281 403.847656 1282.019531 403.765625 1281.0625 403.585938 C 1280.105469 403.410156 1279.171875 403.140625 1278.265625 402.78125 C 1277.363281 402.421875 1276.5 401.976562 1275.683594 401.445312 C 1274.867188 400.914062 1274.109375 400.308594 1273.410156 399.628906 C 1272.710938 398.949219 1272.085938 398.207031 1271.53125 397.40625 C 1270.980469 396.601562 1270.511719 395.753906 1270.128906 394.859375 C 1269.742188 393.964844 1269.449219 393.039062 1269.246094 392.085938 C 1269.042969 391.132812 1268.933594 390.167969 1268.921875 389.195312 C 1268.90625 388.222656 1268.988281 387.253906 1269.167969 386.296875 C 1269.34375 385.335938 1269.613281 384.40625 1269.972656 383.5 C 1270.332031 382.59375 1270.777344 381.734375 1271.308594 380.917969 C 1271.839844 380.097656 1272.445312 379.339844 1273.125 378.644531 C 1273.804688 377.945312 1274.546875 377.320312 1275.347656 376.765625 C 1276.152344 376.214844 1277 375.746094 1277.894531 375.359375 C 1278.789062 374.976562 1279.714844 374.679688 1280.667969 374.476562 C 1281.621094 374.273438 1282.585938 374.167969 1283.558594 374.152344 C 1284.710938 374.136719 1285.859375 374.179688 1287.007812 374.273438 C 1288.15625 374.371094 1289.296875 374.523438 1290.429688 374.734375 C 1291.5625 374.945312 1292.683594 375.207031 1293.789062 375.527344 C 1294.894531 375.847656 1295.984375 376.21875 1297.054688 376.644531 C 1298.125 377.070312 1299.171875 377.546875 1300.195312 378.078125 C 1301.21875 378.605469 1302.214844 379.183594 1303.179688 379.8125 C 1304.148438 380.4375 1305.082031 381.109375 1305.980469 381.828125 C 1306.882812 382.546875 1307.746094 383.308594 1308.570312 384.113281 C 1309.394531 384.917969 1310.179688 385.757812 1310.921875 386.636719 C 1311.664062 387.519531 1312.363281 388.433594 1313.015625 389.382812 C 1313.667969 390.332031 1314.273438 391.3125 1314.832031 392.320312 C 1315.386719 393.328125 1315.894531 394.363281 1316.347656 395.421875 C 1316.804688 396.476562 1317.207031 397.554688 1317.554688 398.652344 C 1317.90625 399.753906 1318.199219 400.863281 1318.4375 401.992188 C 1318.679688 403.117188 1318.863281 404.253906 1318.992188 405.398438 C 1319.121094 406.542969 1319.191406 407.691406 1319.207031 408.84375 C 1319.214844 409.574219 1319.171875 410.300781 1319.074219 411.023438 C 1318.980469 411.746094 1318.828125 412.460938 1318.625 413.160156 C 1318.425781 413.863281 1318.171875 414.542969 1317.867188 415.207031 C 1317.566406 415.871094 1317.214844 416.511719 1316.820312 417.121094 C 1316.421875 417.734375 1315.980469 418.316406 1315.5 418.863281 C 1315.015625 419.410156 1314.496094 419.917969 1313.9375 420.390625 C 1313.378906 420.859375 1312.789062 421.289062 1312.171875 421.671875 C 1311.550781 422.054688 1310.902344 422.390625 1310.234375 422.679688 C 1309.5625 422.96875 1308.875 423.207031 1308.167969 423.390625 C 1307.464844 423.578125 1306.75 423.714844 1306.023438 423.796875 C 1305.296875 423.875 1304.570312 423.902344 1303.839844 423.878906 C 1303.113281 423.851562 1302.386719 423.773438 1301.671875 423.640625 C 1300.953125 423.507812 1300.25 423.324219 1299.558594 423.085938 C 1298.867188 422.851562 1298.199219 422.566406 1297.550781 422.230469 C 1296.902344 421.894531 1296.28125 421.511719 1295.691406 421.085938 C 1295.097656 420.660156 1294.539062 420.191406 1294.015625 419.683594 Z M 1320.027344 370.207031 C 1315.386719 375.972656 1308.207031 377.902344 1303.992188 374.511719 C 1299.773438 371.117188 1300.117188 363.691406 1304.761719 357.921875 C 1309.398438 352.152344 1316.578125 350.226562 1320.796875 353.617188 C 1325.011719 357.007812 1324.667969 364.433594 1320.027344 370.207031 Z M 1322.160156 372.28125 C 1316.519531 377.074219 1314.789062 384.304688 1318.292969 388.429688 C 1321.796875 392.550781 1329.214844 392.003906 1334.855469 387.207031 C 1340.496094 382.414062 1342.226562 375.183594 1338.71875 371.058594 C 1335.214844 366.9375 1327.800781 367.484375 1322.160156 372.28125 Z M 1329.476562 393.570312 C 1323.675781 396.457031 1320.683594 402.230469 1322.792969 406.46875 C 1324.902344 410.707031 1331.3125 411.804688 1337.109375 408.917969 C 1342.910156 406.035156 1345.902344 400.261719 1343.792969 396.023438 C 1341.683594 391.785156 1335.273438 390.6875 1329.476562 393.570312 Z M 1329.476562 393.570312 " fill-opacity="1" fill-rule="nonzero"/></g></g></g><g clip-path="url(#9da5871968)"><g clip-path="url(#8d4d2526da)"><g clip-path="url(#2eb2a2c828)"><path fill="#7ed957" d="M 1299.15625 365.175781 C 1296.636719 370.609375 1291.371094 373.523438 1287.398438 371.679688 C 1283.429688 369.835938 1282.253906 363.9375 1284.773438 358.503906 C 1287.296875 353.070312 1292.558594 350.160156 1296.53125 352.003906 C 1300.5 353.84375 1301.675781 359.742188 1299.15625 365.175781 Z M 1294.96875 417.160156 C 1293.660156 415.894531 1292.648438 414.425781 1291.929688 412.75 C 1291.210938 411.078125 1290.839844 409.332031 1290.816406 407.511719 C 1290.8125 407.179688 1290.773438 406.851562 1290.703125 406.523438 C 1290.636719 406.199219 1290.535156 405.882812 1290.402344 405.574219 C 1290.269531 405.269531 1290.109375 404.976562 1289.921875 404.703125 C 1289.734375 404.429688 1289.519531 404.175781 1289.28125 403.941406 C 1289.039062 403.710938 1288.78125 403.503906 1288.5 403.320312 C 1288.222656 403.140625 1287.925781 402.988281 1287.617188 402.863281 C 1287.308594 402.738281 1286.988281 402.648438 1286.660156 402.585938 C 1286.332031 402.527344 1286 402.5 1285.667969 402.503906 C 1284.765625 402.515625 1283.875 402.441406 1282.988281 402.277344 C 1282.101562 402.113281 1281.238281 401.863281 1280.402344 401.53125 C 1279.566406 401.195312 1278.769531 400.785156 1278.011719 400.292969 C 1277.253906 399.804688 1276.554688 399.246094 1275.910156 398.617188 C 1275.261719 397.988281 1274.683594 397.300781 1274.171875 396.558594 C 1273.664062 395.816406 1273.230469 395.03125 1272.875 394.203125 C 1272.515625 393.375 1272.246094 392.519531 1272.058594 391.640625 C 1271.871094 390.757812 1271.769531 389.867188 1271.757812 388.964844 C 1271.746094 388.066406 1271.820312 387.171875 1271.984375 386.285156 C 1272.148438 385.398438 1272.398438 384.535156 1272.730469 383.699219 C 1273.0625 382.863281 1273.476562 382.066406 1273.964844 381.308594 C 1274.457031 380.554688 1275.015625 379.851562 1275.644531 379.207031 C 1276.273438 378.5625 1276.960938 377.984375 1277.703125 377.472656 C 1278.445312 376.960938 1279.230469 376.527344 1280.058594 376.171875 C 1280.886719 375.816406 1281.738281 375.542969 1282.621094 375.355469 C 1283.503906 375.167969 1284.394531 375.066406 1285.296875 375.054688 C 1286.359375 375.039062 1287.425781 375.078125 1288.484375 375.167969 C 1289.546875 375.257812 1290.601562 375.398438 1291.648438 375.59375 C 1292.699219 375.785156 1293.734375 376.03125 1294.757812 376.324219 C 1295.78125 376.621094 1296.789062 376.964844 1297.777344 377.359375 C 1298.765625 377.753906 1299.734375 378.195312 1300.683594 378.683594 C 1301.628906 379.171875 1302.546875 379.707031 1303.441406 380.289062 C 1304.335938 380.867188 1305.199219 381.488281 1306.03125 382.152344 C 1306.867188 382.820312 1307.664062 383.523438 1308.425781 384.265625 C 1309.191406 385.007812 1309.917969 385.789062 1310.601562 386.601562 C 1311.289062 387.417969 1311.9375 388.261719 1312.539062 389.140625 C 1313.144531 390.019531 1313.703125 390.921875 1314.21875 391.855469 C 1314.734375 392.789062 1315.199219 393.746094 1315.621094 394.722656 C 1316.042969 395.703125 1316.414062 396.699219 1316.738281 397.714844 C 1317.058594 398.730469 1317.332031 399.757812 1317.554688 400.800781 C 1317.777344 401.84375 1317.945312 402.894531 1318.066406 403.953125 C 1318.183594 405.011719 1318.25 406.074219 1318.265625 407.136719 C 1318.28125 408.496094 1318.105469 409.824219 1317.726562 411.128906 C 1317.351562 412.433594 1316.792969 413.65625 1316.054688 414.792969 C 1315.316406 415.933594 1314.429688 416.941406 1313.390625 417.816406 C 1312.355469 418.691406 1311.210938 419.398438 1309.964844 419.933594 C 1308.71875 420.46875 1307.421875 420.8125 1306.070312 420.964844 C 1304.722656 421.117188 1303.378906 421.070312 1302.046875 420.824219 C 1300.710938 420.574219 1299.441406 420.140625 1298.234375 419.515625 C 1297.03125 418.894531 1295.941406 418.109375 1294.96875 417.160156 Z M 1319.023438 371.402344 C 1314.730469 376.738281 1308.089844 378.523438 1304.191406 375.386719 C 1300.292969 372.25 1300.609375 365.378906 1304.902344 360.042969 C 1309.195312 354.707031 1315.835938 352.925781 1319.734375 356.0625 C 1323.632812 359.199219 1323.316406 366.066406 1319.023438 371.402344 Z M 1320.996094 373.324219 C 1315.78125 377.757812 1314.175781 384.445312 1317.421875 388.257812 C 1320.660156 392.070312 1327.519531 391.5625 1332.734375 387.128906 C 1337.953125 382.691406 1339.554688 376.007812 1336.3125 372.195312 C 1333.070312 368.382812 1326.214844 368.886719 1320.996094 373.324219 Z M 1327.761719 393.011719 C 1322.398438 395.679688 1319.628906 401.023438 1321.582031 404.941406 C 1323.53125 408.859375 1329.460938 409.875 1334.824219 407.207031 C 1340.183594 404.539062 1342.953125 399.199219 1341.003906 395.28125 C 1339.050781 391.359375 1333.125 390.347656 1327.761719 393.011719 Z M 1327.761719 393.011719 " fill-opacity="1" fill-rule="nonzero"/></g></g></g><path stroke-linecap="butt" transform="matrix(0.75, 0, 0, 0.75, -74.502705, 323.342435)" fill="none" stroke-linejoin="miter" d="M 295.201538 151.548636 C 298.722372 151.548636 307.269247 151.548636 311.165081 151.001761 C 313.420289 150.725719 315.232789 149.189261 314.956748 146.522594 C 314.102581 138.116344 313.284873 124.684051 313.420289 116.548634 C 313.555706 105.512175 314.956748 99.355925 317.352581 99.355925 C 320.290081 99.355925 322.237998 105.918425 324.321332 114.329884 C 325.722373 119.350718 327.399457 124.954885 329.10779 130.152802 C 331.191124 136.43926 334.133832 140.09551 339.326541 140.09551 C 344.487999 140.09551 347.701541 136.986135 349.821333 130.152802 C 351.222375 125.09551 352.89425 119.934051 354.295291 114.876759 C 356.685917 106.05905 358.363 98.913217 361.441125 98.913217 C 363.795292 98.913217 365.196334 104.928842 365.336959 116.001759 C 365.503625 124.272593 364.790084 137.980927 363.795292 146.522594 C 363.524459 149.189261 365.336959 150.725719 367.592167 151.001761 C 371.519251 151.548636 380.201543 151.548636 383.826543 151.548636 C 387.347376 151.548636 394.623418 151.408011 398.519252 151.001761 C 400.779669 150.725719 402.451544 149.053844 402.451544 146.658011 C 401.597377 113.064259 397.11821 77.381966 394.18071 56.501756 C 393.769252 54.55384 392.232793 53.288214 390.113002 53.012173 C 385.639043 52.605923 378.222376 52.434048 374.321334 52.434048 C 370.394251 52.434048 363.389042 52.605923 359.45675 53.012173 C 356.107792 53.423631 353.883833 54.824673 352.89425 58.480923 C 351.493208 63.230923 349.238 72.871549 347.290083 80.730924 C 344.899458 88.970508 342.264041 95.428842 339.461957 95.428842 C 336.524457 95.428842 333.722374 88.970508 331.191124 80.012174 C 329.378624 73.043424 327.26404 63.095507 326.029665 58.480923 C 324.904665 54.824673 322.649457 53.423631 319.300498 53.012173 C 315.368206 52.605923 308.362997 52.434048 304.326539 52.434048 C 300.399455 52.434048 292.57133 52.605923 288.639038 53.012173 C 286.524455 53.288214 284.982788 54.55384 284.576538 56.501756 C 281.633829 77.210091 277.159871 113.064259 276.305704 146.658011 C 276.305704 149.053844 278.014038 150.725719 280.232788 151.001761 C 284.300496 151.408011 291.581747 151.548636 295.201538 151.548636 Z M 451.300505 152.126761 C 462.508839 152.126761 476.352589 150.590303 484.211965 145.975719 C 485.748423 144.845511 486.57134 143.309052 486.430715 141.189261 C 486.159881 136.303844 485.441131 128.475718 484.894256 123.553843 C 484.482798 119.486134 481.409881 118.533009 479.290089 121.027801 C 472.284881 127.210093 465.00363 129.710093 455.227588 129.710093 C 446.550504 129.710093 437.014046 125.538218 433.93592 118.803843 C 432.399462 116.277801 434.071337 114.736134 436.326546 116.413218 C 441.935921 120.069468 448.357796 121.746551 455.092172 121.746551 C 469.790089 121.746551 483.493215 112.928842 483.493215 100.314258 C 483.493215 82.543424 469.790089 73.725715 447.675504 73.725715 C 423.170295 73.725715 406.217169 87.600716 406.217169 111.934051 C 406.217169 137.840302 423.581753 152.126761 451.300505 152.126761 Z M 446.956754 110.668426 C 442.342171 110.668426 435.472379 108.585092 435.472379 104.24655 C 435.472379 98.913217 440.670296 95.1528 446.139046 95.1528 C 452.425505 95.1528 454.956755 98.366342 454.956755 103.256967 C 454.956755 108.038217 451.706755 110.668426 446.956754 110.668426 Z M 519.769258 152.126761 C 530.946342 152.126761 539.488009 145.121552 543.831759 132.236135 C 544.821343 129.569468 546.904676 129.710093 546.904676 132.647593 C 546.904676 136.986135 546.357801 140.918427 545.232801 146.798636 C 544.685926 149.324678 546.769259 150.725719 548.852593 151.001761 C 553.196343 151.408011 559.790093 151.548636 563.722385 151.548636 C 567.482802 151.548636 574.211969 151.548636 577.701553 151.001761 C 579.956761 150.590303 581.357803 148.913219 581.357803 146.522594 C 581.357803 125.673635 580.639053 105.37155 578.555719 78.918424 C 578.420303 76.798632 576.878636 75.126757 574.758844 74.850716 C 571.003636 74.408007 565.805719 74.27259 562.321344 74.27259 C 558.665093 74.27259 551.51926 74.408007 547.758843 74.850716 C 545.368218 75.262174 543.831759 76.798632 544.102593 79.194466 C 545.232801 88.012175 545.915093 99.49655 545.915093 105.918425 C 545.915093 115.147593 542.701551 123.829885 536.279676 123.829885 C 529.269259 123.829885 526.196342 116.001759 526.196342 107.048634 C 526.196342 99.767383 527.7328 88.970508 529.680717 79.194466 C 530.26405 76.798632 528.415092 75.126757 526.055717 74.850716 C 522.128633 74.408007 514.847383 74.27259 511.498424 74.27259 C 508.284883 74.27259 501.826549 74.408007 498.201549 74.850716 C 496.086965 75.126757 494.82134 76.527799 494.545299 78.751757 C 492.732798 89.824675 491.19634 107.319467 490.925507 117.814259 C 491.060923 140.642385 501.144257 152.126761 519.769258 152.126761 Z M 624.878638 151.991344 C 650.373431 151.991344 664.488015 143.585094 664.488015 129.163218 C 664.488015 103.116342 622.076555 109.131967 622.076555 100.314258 C 622.076555 96.9653 626.415097 95.017383 634.821347 95.1528 C 641.383848 95.293425 648.97239 97.376758 654.269265 100.314258 C 656.65989 102.126759 659.461973 101.168425 659.326557 97.647592 C 659.19114 92.350716 658.607807 85.616341 658.201557 80.460091 C 658.060932 78.751757 656.935932 77.381966 655.258848 76.798632 C 646.717181 74.850716 633.967181 73.861132 625.014055 73.861132 C 601.909887 73.861132 588.753637 80.460091 588.753637 95.017383 C 588.753637 120.345509 627.816139 114.465301 627.816139 123.418426 C 627.816139 127.074676 624.191138 128.887177 616.607805 128.887177 C 608.779679 128.887177 599.415095 126.22051 591.691137 121.199676 C 589.467178 119.215301 586.11822 119.934051 585.951553 123.28301 C 585.810928 130.152802 585.675511 136.715302 585.810928 143.585094 C 585.810928 145.392386 586.941137 146.658011 588.753637 147.204886 C 598.696345 150.006969 613.394263 151.991344 624.878638 151.991344 Z M 724.956768 151.548636 C 729.300519 151.548636 737.571352 151.408011 741.774478 151.001761 C 743.722394 150.725719 745.529686 149.189261 745.394269 146.934052 C 744.982811 142.184052 745.123436 136.574677 745.701561 132.647593 C 746.524478 127.756968 750.998436 125.673635 755.920312 125.538218 L 761.217187 125.538218 C 766.279687 125.673635 770.753646 127.486135 771.576562 132.647593 C 772.019271 136.715302 772.154687 142.319469 771.883854 146.798636 C 771.576562 149.189261 773.420313 150.725719 775.368229 151.001761 C 779.435938 151.408011 787.264063 151.548636 790.920313 151.548636 C 794.68073 151.548636 802.951564 151.408011 807.019273 151.001761 C 809.373439 150.861136 810.915106 149.053844 810.368231 146.658011 C 804.623439 112.928842 792.14948 76.116341 782.373438 55.371548 C 781.795313 53.970506 780.529688 53.288214 778.993229 53.012173 C 773.555729 52.434048 763.61302 52.434048 758.415103 52.434048 C 753.118228 52.434048 743.446353 52.434048 738.253644 53.012173 C 736.711977 53.288214 735.482811 53.970506 734.904686 55.371548 C 725.092185 76.116341 712.519268 112.928842 706.774476 146.522594 C 706.196351 148.913219 707.764059 150.725719 710.258851 151.001761 C 714.055726 151.272594 721.060935 151.548636 724.956768 151.548636 Z M 757.321353 111.934051 C 752.982812 111.798634 750.727603 109.715301 751.717186 106.194467 C 752.67552 99.355925 754.51927 90.678841 756.196353 83.668424 C 757.597395 79.194466 759.545312 79.194466 760.810937 83.668424 C 762.618229 90.678841 764.602604 99.355925 765.42552 106.194467 C 766.415104 109.715301 764.295312 111.798634 759.95677 111.934051 Z M 856.290108 184.324679 C 887.628652 184.324679 906.941153 173.522595 906.941153 146.522594 C 906.941153 121.335093 905.847403 94.881967 903.998444 78.611132 C 903.727611 76.663216 902.461986 75.126757 900.378652 74.850716 C 897.300527 74.579882 890.566152 74.27259 887.081777 74.27259 C 883.560943 74.27259 877.993234 74.27259 874.060943 74.850716 C 871.805734 75.262174 869.857817 76.939257 870.404692 79.194466 C 871.258859 82.954883 871.529692 86.027799 871.805734 90.814258 C 871.941151 93.616341 869.857817 94.0278 868.727609 91.49655 C 864.25365 80.319466 854.889067 73.725715 843.675524 73.725715 C 826.040107 73.725715 813.87344 86.746549 813.87344 111.663217 C 813.87344 135.585094 825.90469 150.006969 844.086983 150.006969 C 855.1599 150.006969 864.25365 144.574677 868.727609 133.090302 C 869.993234 130.017385 872.076568 130.423635 872.076568 133.225718 L 872.076568 137.704885 C 872.076568 149.600719 860.185942 157.730928 846.342191 157.730928 C 837.253649 157.730928 827.988024 155.204886 821.425523 151.855928 C 819.034898 150.147594 816.503648 151.684053 816.232815 154.621553 C 815.956773 161.220512 815.409898 171.16322 815.243231 176.324679 C 815.102606 178.309054 816.368231 180.121554 818.21719 180.668429 C 827.170315 183.059054 846.206775 184.324679 856.290108 184.324679 Z M 860.185942 125.809051 C 853.488025 125.809051 848.873441 120.480926 848.873441 112.210092 C 848.873441 104.381967 853.3474 99.355925 860.185942 99.355925 C 867.055734 99.355925 871.529692 104.381967 871.529692 112.210092 C 871.529692 120.480926 866.915109 125.809051 860.185942 125.809051 Z M 956.08178 152.126761 C 967.290114 152.126761 981.133865 150.590303 988.99324 145.975719 C 990.534907 144.845511 991.352615 143.309052 991.217199 141.189261 C 990.941157 136.303844 990.227615 128.475718 989.68074 123.553843 C 989.269282 119.486134 986.191157 118.533009 984.071365 121.027801 C 977.066156 127.210093 969.784906 129.710093 960.014072 129.710093 C 951.33178 129.710093 941.795321 125.538218 938.722404 118.803843 C 937.180737 116.277801 938.857821 114.736134 941.113029 116.413218 C 946.717196 120.069468 953.14428 121.746551 959.873447 121.746551 C 974.571364 121.746551 988.279698 112.928842 988.279698 100.314258 C 988.279698 82.543424 974.571364 73.725715 952.461988 73.725715 C 927.956779 73.725715 911.003653 87.600716 911.003653 111.934051 C 911.003653 137.840302 928.363029 152.126761 956.08178 152.126761 Z M 951.743238 110.668426 C 947.128655 110.668426 940.258863 108.585092 940.258863 104.24655 C 940.258863 98.913217 945.451571 95.1528 950.920321 95.1528 C 957.211988 95.1528 959.73803 98.366342 959.73803 103.256967 C 959.73803 108.038217 956.493238 110.668426 951.743238 110.668426 Z M 1014.878658 151.548636 C 1018.81095 151.548636 1025.238034 151.408011 1029.0297 151.001761 C 1031.113034 150.725719 1032.925534 149.189261 1032.654701 146.798636 C 1031.967201 137.840302 1031.524492 128.616343 1031.389076 121.027801 C 1031.389076 111.663217 1035.868242 103.699675 1043.144284 103.699675 C 1050.290118 103.699675 1054.62866 111.527801 1054.764077 120.892385 C 1054.764077 127.756968 1053.946368 137.434052 1053.092202 146.658011 C 1052.956785 149.053844 1054.764077 150.725719 1056.883868 151.001761 C 1061.774494 151.408011 1067.238036 151.548636 1071.717203 151.548636 C 1076.060953 151.548636 1081.217203 151.408011 1085.868245 151.001761 C 1087.951578 150.725719 1089.35262 149.460094 1089.488037 147.204886 C 1089.628662 136.168427 1089.217203 119.934051 1088.498453 111.934051 C 1086.685953 88.970508 1077.185953 73.861132 1059.37866 73.861132 C 1048.201576 73.861132 1039.248451 80.730924 1034.467201 94.439258 C 1033.508867 96.9653 1031.389076 96.829883 1031.389076 93.892383 C 1031.524492 89.413216 1032.243242 86.475716 1034.191159 79.605924 C 1034.909909 77.381966 1032.925534 74.991341 1030.706784 74.850716 C 1026.363034 74.408007 1020.211992 74.27259 1016.691158 74.27259 C 1013.071366 74.27259 1006.336991 74.408007 1002.852616 74.850716 C 1000.732824 75.126757 999.467199 76.939257 999.055741 79.059049 C 996.972407 95.428842 995.842199 113.918426 995.842199 146.798636 C 995.706782 149.053844 997.383865 150.725719 999.467199 151.001761 C 1003.805741 151.408011 1010.816158 151.548636 1014.878658 151.548636 Z M 1123.654705 152.126761 C 1134.998456 152.126761 1143.508873 145.975719 1148.295331 136.027802 C 1149.83179 133.090302 1151.915123 133.50176 1151.64429 136.850719 C 1151.508873 139.928844 1151.097415 143.444469 1150.514082 146.658011 C 1150.107831 149.053844 1151.915123 150.725719 1154.170332 151.001761 C 1157.930749 151.408011 1164.529707 151.548636 1168.149499 151.548636 C 1171.805749 151.548636 1179.222416 151.408011 1183.566167 151.001761 C 1185.6495 150.725719 1187.185958 149.053844 1187.185958 146.798636 C 1187.185958 113.746551 1185.6495 75.262174 1183.977625 54.96009 C 1183.837 52.876756 1182.300541 51.475714 1180.352625 51.204881 C 1176.560958 50.621548 1170.545333 50.621548 1166.883874 50.621548 C 1163.399499 50.621548 1155.847415 50.621548 1151.779707 51.033006 C 1149.560956 51.475714 1147.576581 53.288214 1147.98804 55.543423 C 1149.696373 65.043423 1151.508873 78.751757 1151.915123 89.960091 C 1152.055748 93.751758 1149.83179 93.616341 1148.295331 90.949675 C 1142.961998 79.605924 1135.680747 73.861132 1123.51408 73.861132 C 1105.300538 73.861132 1093.54012 89.2778 1093.54012 114.600718 C 1093.54012 139.517385 1105.743246 152.126761 1123.654705 152.126761 Z M 1140.159914 126.22051 C 1133.290122 126.22051 1128.675539 121.335093 1128.675539 113.335092 C 1128.675539 105.37155 1133.154706 99.9028 1140.159914 99.9028 C 1146.89429 99.9028 1151.508873 105.37155 1151.508873 113.335092 C 1151.508873 121.335093 1146.753665 126.22051 1140.159914 126.22051 Z M 1213.784918 152.126761 C 1223.868252 152.126761 1232.956794 146.934052 1237.607836 134.491344 C 1238.701586 131.824677 1240.680753 132.371552 1240.545336 135.173635 C 1240.238044 138.116344 1239.691169 142.730927 1239.279711 145.392386 C 1238.701586 148.470511 1240.956794 150.590303 1244.44117 151.001761 C 1248.373461 151.408011 1254.113045 151.548636 1257.904712 151.548636 C 1261.800545 151.548636 1267.816171 151.408011 1271.337004 151.001761 C 1273.560963 150.590303 1274.962004 149.053844 1274.962004 146.658011 C 1274.550546 132.512177 1273.149504 113.064259 1271.883879 101.303842 C 1270.212004 85.345508 1260.675545 73.725715 1232.139086 73.725715 C 1216.451585 73.725715 1205.545334 75.980924 1200.217209 77.793424 C 1198.540126 78.475716 1197.685959 80.152799 1197.550542 82.267383 C 1197.139084 88.147591 1196.727626 95.699675 1196.868251 101.579884 C 1196.868251 105.37155 1199.805751 106.913217 1202.165126 104.381967 C 1210.159918 98.913217 1221.644293 95.699675 1228.925544 95.699675 C 1236.889086 95.699675 1239.691169 98.230925 1239.691169 100.897592 C 1239.691169 104.658009 1235.076586 105.647592 1226.258877 106.772592 C 1207.357834 108.996551 1191.670334 116.413218 1191.670334 130.97051 C 1191.670334 145.668427 1199.529709 152.126761 1213.784918 152.126761 Z M 1231.008877 128.168427 C 1226.52971 128.168427 1224.581794 126.355926 1224.581794 122.152801 C 1224.581794 116.548634 1229.883877 112.517384 1235.076586 112.517384 C 1238.425544 112.517384 1240.102628 114.876759 1240.102628 117.949676 C 1240.102628 124.40801 1234.529711 128.168427 1231.008877 128.168427 Z M 1297.102631 151.548636 C 1300.451589 151.548636 1308.279714 151.408011 1312.342215 151.001761 C 1314.430756 150.725719 1316.409923 149.053844 1316.13909 146.658011 C 1315.555756 139.381969 1314.738048 129.87676 1314.873465 122.736135 C 1315.008881 114.053842 1317.540132 107.460092 1321.571382 107.460092 C 1326.35784 107.460092 1329.159924 113.611134 1329.430757 122.736135 C 1329.571382 129.022593 1328.988049 139.241344 1328.57659 146.522594 C 1328.441174 149.053844 1330.253674 150.725719 1332.508882 151.001761 C 1336.712008 151.408011 1343.993258 151.548636 1347.753675 151.548636 C 1351.133883 151.548636 1357.560967 151.548636 1361.493259 151.001761 C 1363.712009 150.590303 1365.696384 149.053844 1365.389092 146.522594 C 1364.701592 137.980927 1363.847426 128.887177 1363.847426 122.293426 C 1363.847426 113.475717 1366.790134 107.460092 1370.717218 107.460092 C 1375.331801 107.460092 1378.133885 113.199676 1378.409926 123.006968 C 1378.545343 128.887177 1378.133885 139.381969 1377.727635 146.522594 C 1377.451593 149.053844 1379.128676 150.590303 1381.482843 151.001761 C 1385.550552 151.548636 1393.102635 151.548636 1396.623469 151.548636 C 1399.972427 151.548636 1406.435969 151.548636 1410.331803 151.001761 C 1412.587011 150.590303 1414.399511 149.053844 1414.258886 146.522594 C 1413.40472 129.434052 1412.99847 117.678843 1411.050553 104.24655 C 1407.972428 81.996549 1397.889094 74.27259 1385.96201 74.27259 C 1375.196384 74.27259 1366.925551 83.397591 1363.988051 95.699675 C 1363.029717 99.355925 1360.909925 99.49655 1360.092217 95.699675 C 1356.159925 79.465299 1348.878675 74.27259 1338.795341 74.27259 C 1328.852632 74.27259 1321.159923 83.397591 1317.540132 96.111133 C 1316.550548 99.631967 1314.597423 98.913217 1314.597423 95.699675 C 1314.738048 92.2153 1315.967215 84.355924 1316.956798 79.329882 C 1317.540132 76.939257 1315.691173 75.262174 1313.337006 74.850716 C 1309.540131 74.408007 1301.852631 74.27259 1298.331797 74.27259 C 1294.847422 74.27259 1289.956797 74.27259 1286.435963 74.850716 C 1284.35263 75.262174 1282.951588 76.527799 1282.680755 78.611132 C 1280.967213 96.24655 1279.873463 119.215301 1279.873463 146.798636 C 1279.873463 149.053844 1281.41513 150.725719 1283.498463 151.001761 C 1287.29013 151.408011 1293.993255 151.548636 1297.102631 151.548636 Z M 1463.383889 152.126761 C 1474.597431 152.126761 1488.435974 150.590303 1496.300557 145.975719 C 1497.837016 144.845511 1498.654724 143.309052 1498.519307 141.189261 C 1498.248474 136.303844 1497.529724 128.475718 1496.982849 123.553843 C 1496.571391 119.486134 1493.493265 118.533009 1491.378682 121.027801 C 1484.368265 127.210093 1477.092223 129.710093 1467.316181 129.710093 C 1458.633889 129.710093 1449.09743 125.538218 1446.024513 118.803843 C 1444.488055 116.277801 1446.15993 114.736134 1448.415138 116.413218 C 1454.019305 120.069468 1460.446389 121.746551 1467.180764 121.746551 C 1481.873473 121.746551 1495.581807 112.928842 1495.581807 100.314258 C 1495.581807 82.543424 1481.873473 73.725715 1459.764097 73.725715 C 1435.258888 73.725715 1418.305762 87.600716 1418.305762 111.934051 C 1418.305762 137.840302 1435.670346 152.126761 1463.383889 152.126761 Z M 1459.045347 110.668426 C 1454.430763 110.668426 1447.560971 108.585092 1447.560971 104.24655 C 1447.560971 98.913217 1452.758888 95.1528 1458.22243 95.1528 C 1464.514097 95.1528 1467.040139 98.366342 1467.040139 103.256967 C 1467.040139 108.038217 1463.795347 110.668426 1459.045347 110.668426 Z M 1522.185975 151.548636 C 1526.113059 151.548636 1532.540142 151.408011 1536.331809 151.001761 C 1538.420351 150.725719 1540.227643 149.189261 1539.956809 146.798636 C 1539.274518 137.840302 1538.826601 128.616343 1538.691184 121.027801 C 1538.691184 111.663217 1543.170351 103.699675 1550.446393 103.699675 C 1557.592227 103.699675 1561.930769 111.527801 1562.071394 120.892385 C 1562.071394 127.756968 1561.248477 137.434052 1560.39431 146.658011 C 1560.258894 149.053844 1562.071394 150.725719 1564.185977 151.001761 C 1569.076603 151.408011 1574.545353 151.548636 1579.019311 151.548636 C 1583.363062 151.548636 1588.52452 151.408011 1593.170354 151.001761 C 1595.253687 150.725719 1596.654729 149.460094 1596.795354 147.204886 C 1596.930771 136.168427 1596.519312 119.934051 1595.800562 111.934051 C 1593.99327 88.970508 1584.488062 73.861132 1566.680769 73.861132 C 1555.508894 73.861132 1546.55056 80.730924 1541.76931 94.439258 C 1540.810976 96.9653 1538.691184 96.829883 1538.691184 93.892383 C 1538.826601 89.413216 1539.545351 86.475716 1541.493268 79.605924 C 1542.212018 77.381966 1540.227643 74.991341 1538.008893 74.850716 C 1533.670351 74.408007 1527.5141 74.27259 1523.993267 74.27259 C 1520.373475 74.27259 1513.6391 74.408007 1510.154725 74.850716 C 1508.034933 75.126757 1506.769308 76.939257 1506.357849 79.059049 C 1504.274516 95.428842 1503.149516 113.918426 1503.149516 146.798636 C 1503.008891 149.053844 1504.685974 150.725719 1506.769308 151.001761 C 1511.113058 151.408011 1518.118267 151.548636 1522.185975 151.548636 Z M 1644.248481 152.126761 C 1652.930773 152.126761 1660.758899 150.861136 1667.899524 148.913219 C 1669.576608 148.199678 1670.977649 146.387177 1670.977649 143.855927 C 1671.113066 139.241344 1671.248483 130.152802 1671.113066 124.954885 C 1670.977649 121.605926 1668.310983 120.480926 1666.227649 122.017385 C 1663.831816 123.28301 1659.22244 124.548635 1656.279732 124.548635 C 1650.404732 124.548635 1645.925565 121.746551 1645.649523 116.137176 C 1645.37869 111.798634 1645.37869 106.772592 1645.790148 101.850717 C 1646.060981 99.49655 1647.59744 97.954883 1650.540148 97.954883 C 1654.87869 97.954883 1661.613066 98.230925 1665.951607 98.501758 C 1668.040149 98.7778 1669.847441 96.694467 1669.847441 94.439258 L 1669.847441 78.751757 C 1669.847441 76.527799 1668.040149 74.715299 1665.951607 74.715299 C 1660.482857 74.715299 1654.060982 74.991341 1648.592232 74.991341 C 1647.462023 74.991341 1646.644315 73.861132 1646.644315 72.189257 C 1646.644315 68.699674 1647.326607 65.17884 1648.045357 61.251757 C 1648.31619 59.027798 1646.47244 57.079881 1644.248481 56.77259 C 1640.321398 56.361131 1632.769314 56.225715 1629.279731 56.225715 C 1625.899522 56.361131 1620.738064 56.361131 1617.352647 56.77259 C 1615.40473 57.079881 1613.868271 58.61634 1613.59223 60.569465 C 1613.18598 64.189257 1612.87348 69.246549 1612.738063 73.043424 C 1612.602646 73.996549 1611.920355 74.850716 1610.790146 74.850716 L 1603.920354 74.850716 C 1601.837021 74.850716 1600.300562 76.527799 1600.159937 78.611132 C 1600.159937 83.944466 1600.024521 89.137175 1600.159937 94.298633 C 1600.300562 96.418425 1601.837021 98.230925 1603.920354 98.230925 C 1605.904729 98.095508 1607.852646 98.095508 1609.665146 98.095508 C 1610.790146 97.954883 1611.77973 98.7778 1611.644313 99.9028 C 1610.519313 108.585092 1610.519313 117.538218 1610.519313 123.418426 C 1610.519313 143.444469 1625.076605 152.126761 1644.248481 152.126761 Z M 1717.185985 152.126761 C 1742.373486 152.126761 1760.284946 141.908011 1760.284946 115.012176 C 1760.284946 89.68405 1742.508903 73.725715 1717.185985 73.725715 C 1691.826609 73.725715 1673.91515 89.68405 1673.91515 115.012176 C 1673.91515 141.908011 1691.998484 152.126761 1717.185985 152.126761 Z M 1717.185985 127.621552 C 1710.316193 127.621552 1705.430776 122.017385 1705.430776 113.064259 C 1705.430776 104.381967 1710.180776 98.095508 1717.185985 98.095508 C 1724.191194 98.095508 1728.941194 104.381967 1728.941194 113.064259 C 1728.941194 122.017385 1724.055777 127.621552 1717.185985 127.621552 Z M 1802.982864 151.991344 C 1828.482866 151.991344 1842.59745 143.585094 1842.59745 129.163218 C 1842.59745 103.116342 1800.180781 109.131967 1800.180781 100.314258 C 1800.180781 96.9653 1804.524531 95.017383 1812.930782 95.1528 C 1819.493282 95.293425 1827.081824 97.376758 1832.378699 100.314258 C 1834.769324 102.126759 1837.571408 101.168425 1837.435991 97.647592 C 1837.300574 92.350716 1836.717241 85.616341 1836.305783 80.460091 C 1836.170366 78.751757 1835.045366 77.381966 1833.368283 76.798632 C 1824.826615 74.850716 1812.076615 73.861132 1803.123489 73.861132 C 1780.019322 73.861132 1766.857863 80.460091 1766.857863 95.017383 C 1766.857863 120.345509 1805.925573 114.465301 1805.925573 123.418426 C 1805.925573 127.074676 1802.300573 128.887177 1794.712031 128.887177 C 1786.889114 128.887177 1777.52453 126.22051 1769.800571 121.199676 C 1767.576613 119.215301 1764.227654 119.934051 1764.055779 123.28301 C 1763.920362 130.152802 1763.784946 136.715302 1763.920362 143.585094 C 1763.920362 145.392386 1765.050571 146.658011 1766.857863 147.204886 C 1776.80578 150.006969 1791.503697 151.991344 1802.982864 151.991344 Z M 1802.982864 151.991344 " stroke="#157900" stroke-width="10.4997" stroke-opacity="1" stroke-miterlimit="4"/><g fill="#7ed957" fill-opacity="1"><g transform="translate(131.161347, 436.592429)"><g><path d="M 15.75 0.421875 C 18.375 0.421875 24.777344 0.421875 27.71875 0 C 29.398438 -0.210938 30.761719 -1.363281 30.554688 -3.359375 C 29.921875 -9.660156 29.292969 -19.738281 29.398438 -25.828125 C 29.503906 -34.121094 30.554688 -38.742188 32.335938 -38.742188 C 34.542969 -38.742188 36.011719 -33.808594 37.585938 -27.507812 C 38.636719 -23.726562 39.898438 -19.527344 41.15625 -15.644531 C 42.730469 -10.917969 44.9375 -8.1875 48.820312 -8.1875 C 52.707031 -8.1875 55.121094 -10.5 56.695312 -15.644531 C 57.746094 -19.421875 59.003906 -23.308594 60.054688 -27.089844 C 61.839844 -33.703125 63.101562 -39.058594 65.410156 -39.058594 C 67.195312 -39.058594 68.246094 -34.542969 68.351562 -26.25 C 68.457031 -20.054688 67.929688 -9.765625 67.195312 -3.359375 C 66.984375 -1.363281 68.351562 -0.210938 70.03125 0 C 72.96875 0.421875 79.480469 0.421875 82.210938 0.421875 C 84.832031 0.421875 90.292969 0.316406 93.234375 0 C 94.914062 -0.210938 96.171875 -1.46875 96.171875 -3.253906 C 95.542969 -28.453125 92.183594 -55.226562 89.980469 -70.871094 C 89.664062 -72.339844 88.507812 -73.285156 86.933594 -73.496094 C 83.574219 -73.808594 78.007812 -73.914062 75.070312 -73.914062 C 72.128906 -73.914062 66.878906 -73.808594 63.941406 -73.496094 C 61.421875 -73.179688 59.742188 -72.128906 59.003906 -69.398438 C 57.957031 -65.832031 56.277344 -58.585938 54.804688 -52.707031 C 53.019531 -46.511719 51.027344 -41.683594 48.925781 -41.683594 C 46.722656 -41.683594 44.621094 -46.511719 42.730469 -53.230469 C 41.367188 -58.480469 39.792969 -65.933594 38.847656 -69.398438 C 38.007812 -72.128906 36.328125 -73.179688 33.808594 -73.496094 C 30.867188 -73.808594 25.617188 -73.914062 22.574219 -73.914062 C 19.632812 -73.914062 13.753906 -73.808594 10.8125 -73.496094 C 9.238281 -73.285156 8.085938 -72.339844 7.769531 -70.871094 C 5.566406 -55.332031 2.203125 -28.453125 1.574219 -3.253906 C 1.574219 -1.46875 2.835938 -0.210938 4.515625 0 C 7.558594 0.316406 13.019531 0.421875 15.75 0.421875 Z M 15.75 0.421875 "/></g></g></g><g fill="#7ed957" fill-opacity="1"><g transform="translate(228.905433, 436.592429)"><g><path d="M 35.066406 0.839844 C 43.46875 0.839844 53.859375 -0.316406 59.742188 -3.78125 C 60.894531 -4.621094 61.527344 -5.773438 61.421875 -7.347656 C 61.210938 -11.023438 60.6875 -16.902344 60.265625 -20.578125 C 59.949219 -23.625 57.640625 -24.359375 56.066406 -22.46875 C 50.816406 -17.847656 45.355469 -15.957031 38.007812 -15.957031 C 31.496094 -15.957031 24.359375 -19.109375 22.046875 -24.148438 C 20.894531 -26.039062 22.152344 -27.191406 23.832031 -25.933594 C 28.03125 -23.203125 32.863281 -21.945312 37.902344 -21.945312 C 48.925781 -21.945312 59.214844 -28.558594 59.214844 -38.007812 C 59.214844 -51.339844 48.925781 -57.957031 32.335938 -57.957031 C 13.964844 -57.957031 1.261719 -47.5625 1.261719 -29.292969 C 1.261719 -9.871094 14.277344 0.839844 35.066406 0.839844 Z M 31.8125 -30.238281 C 28.347656 -30.238281 23.203125 -31.8125 23.203125 -35.066406 C 23.203125 -39.058594 27.089844 -41.890625 31.183594 -41.890625 C 35.90625 -41.890625 37.796875 -39.476562 37.796875 -35.800781 C 37.796875 -32.234375 35.382812 -30.238281 31.8125 -30.238281 Z M 31.8125 -30.238281 "/></g></g></g><g fill="#7ed957" fill-opacity="1"><g transform="translate(291.793404, 436.592429)"><g><path d="M 23.519531 0.839844 C 31.917969 0.839844 38.320312 -4.410156 41.578125 -14.070312 C 42.3125 -16.0625 43.886719 -15.957031 43.886719 -13.753906 C 43.886719 -10.5 43.46875 -7.558594 42.628906 -3.148438 C 42.207031 -1.261719 43.78125 -0.210938 45.355469 0 C 48.613281 0.316406 53.546875 0.421875 56.484375 0.421875 C 59.320312 0.421875 64.359375 0.421875 66.984375 0 C 68.664062 -0.316406 69.714844 -1.574219 69.714844 -3.359375 C 69.714844 -19.003906 69.191406 -34.226562 67.613281 -54.070312 C 67.511719 -55.644531 66.355469 -56.90625 64.78125 -57.117188 C 61.945312 -57.429688 58.0625 -57.535156 55.4375 -57.535156 C 52.707031 -57.535156 47.351562 -57.429688 44.515625 -57.117188 C 42.730469 -56.800781 41.578125 -55.644531 41.785156 -53.859375 C 42.628906 -47.246094 43.152344 -38.636719 43.152344 -33.808594 C 43.152344 -26.878906 40.738281 -20.367188 35.90625 -20.367188 C 30.65625 -20.367188 28.347656 -26.25 28.347656 -32.96875 C 28.347656 -38.425781 29.503906 -46.511719 30.972656 -53.859375 C 31.394531 -55.644531 30.027344 -56.90625 28.242188 -57.117188 C 25.304688 -57.429688 19.84375 -57.535156 17.324219 -57.535156 C 14.910156 -57.535156 10.078125 -57.429688 7.347656 -57.117188 C 5.773438 -56.90625 4.828125 -55.855469 4.621094 -54.175781 C 3.253906 -45.882812 2.101562 -32.757812 1.890625 -24.882812 C 1.996094 -7.769531 9.554688 0.839844 23.519531 0.839844 Z M 23.519531 0.839844 "/></g></g></g><g fill="#7ed957" fill-opacity="1"><g transform="translate(363.39542, 436.592429)"><g><path d="M 30.761719 0.734375 C 49.871094 0.734375 60.476562 -5.566406 60.476562 -16.378906 C 60.476562 -35.90625 28.664062 -31.394531 28.664062 -38.007812 C 28.664062 -40.527344 31.917969 -41.996094 38.21875 -41.890625 C 43.152344 -41.785156 48.820312 -40.210938 52.8125 -38.007812 C 54.597656 -36.640625 56.695312 -37.378906 56.589844 -40.003906 C 56.484375 -43.992188 56.066406 -49.03125 55.75 -52.917969 C 55.644531 -54.175781 54.804688 -55.226562 53.546875 -55.644531 C 47.140625 -57.117188 37.585938 -57.851562 30.867188 -57.851562 C 13.542969 -57.851562 3.675781 -52.917969 3.675781 -41.996094 C 3.675781 -22.992188 32.96875 -27.402344 32.96875 -20.683594 C 32.96875 -17.953125 30.238281 -16.589844 24.566406 -16.589844 C 18.6875 -16.589844 11.652344 -18.582031 5.878906 -22.363281 C 4.199219 -23.832031 1.679688 -23.308594 1.574219 -20.789062 C 1.46875 -15.644531 1.363281 -10.710938 1.46875 -5.566406 C 1.46875 -4.199219 2.308594 -3.253906 3.675781 -2.835938 C 11.128906 -0.734375 22.152344 0.734375 30.761719 0.734375 Z M 30.761719 0.734375 "/></g></g></g><g fill="#7ed957" fill-opacity="1"><g transform="translate(425.233522, 436.592429)"><g/></g></g><g fill="#7ed957" fill-opacity="1"><g transform="translate(454.630234, 436.592429)"><g><path d="M 14.59375 0.421875 C 17.847656 0.421875 24.042969 0.316406 27.191406 0 C 28.664062 -0.210938 30.027344 -1.363281 29.921875 -3.042969 C 29.609375 -6.613281 29.710938 -10.8125 30.132812 -13.753906 C 30.761719 -17.429688 34.121094 -19.003906 37.796875 -19.109375 L 41.785156 -19.109375 C 45.566406 -19.003906 48.925781 -17.640625 49.554688 -13.753906 C 49.871094 -10.710938 49.976562 -6.507812 49.765625 -3.148438 C 49.554688 -1.363281 50.921875 -0.210938 52.390625 0 C 55.4375 0.316406 61.316406 0.421875 64.046875 0.421875 C 66.878906 0.421875 73.074219 0.316406 76.121094 0 C 77.90625 -0.105469 79.058594 -1.46875 78.640625 -3.253906 C 74.335938 -28.558594 64.992188 -56.171875 57.640625 -71.710938 C 57.222656 -72.761719 56.277344 -73.285156 55.121094 -73.496094 C 51.027344 -73.914062 43.570312 -73.914062 39.6875 -73.914062 C 35.699219 -73.914062 28.453125 -73.914062 24.566406 -73.496094 C 23.414062 -73.285156 22.46875 -72.761719 22.046875 -71.710938 C 14.699219 -56.171875 5.25 -28.558594 0.945312 -3.359375 C 0.523438 -1.574219 1.679688 -0.210938 3.570312 0 C 6.40625 0.210938 11.652344 0.421875 14.59375 0.421875 Z M 38.847656 -29.292969 C 35.59375 -29.398438 33.914062 -30.972656 34.648438 -33.597656 C 35.382812 -38.742188 36.746094 -45.25 38.007812 -50.5 C 39.058594 -53.859375 40.527344 -53.859375 41.472656 -50.5 C 42.835938 -45.25 44.308594 -38.742188 44.9375 -33.597656 C 45.671875 -30.972656 44.097656 -29.398438 40.84375 -29.292969 Z M 38.847656 -29.292969 "/></g></g></g><g fill="#7ed957" fill-opacity="1"><g transform="translate(534.211345, 436.592429)"><g><path d="M 33.492188 24.988281 C 57.011719 24.988281 71.5 16.902344 71.5 -3.359375 C 71.5 -22.257812 70.660156 -42.101562 69.296875 -54.28125 C 69.085938 -55.75 68.140625 -56.90625 66.566406 -57.117188 C 64.253906 -57.324219 59.214844 -57.535156 56.589844 -57.535156 C 53.964844 -57.535156 49.765625 -57.535156 46.828125 -57.117188 C 45.148438 -56.800781 43.675781 -55.542969 44.097656 -53.859375 C 44.726562 -51.027344 44.9375 -48.714844 45.148438 -45.148438 C 45.25 -43.046875 43.675781 -42.730469 42.835938 -44.621094 C 39.476562 -53.019531 32.441406 -57.957031 24.042969 -57.957031 C 10.8125 -57.957031 1.679688 -48.191406 1.679688 -29.503906 C 1.679688 -11.550781 10.710938 -0.734375 24.359375 -0.734375 C 32.652344 -0.734375 39.476562 -4.828125 42.835938 -13.4375 C 43.78125 -15.75 45.355469 -15.433594 45.355469 -13.335938 L 45.355469 -9.972656 C 45.355469 -1.050781 36.433594 5.039062 26.039062 5.039062 C 19.214844 5.039062 12.285156 3.148438 7.347656 0.628906 C 5.566406 -0.628906 3.675781 0.523438 3.464844 2.730469 C 3.253906 7.664062 2.835938 15.117188 2.730469 19.003906 C 2.625 20.472656 3.570312 21.839844 4.933594 22.257812 C 11.652344 24.042969 25.933594 24.988281 33.492188 24.988281 Z M 36.433594 -18.898438 C 31.394531 -18.898438 27.929688 -22.886719 27.929688 -29.082031 C 27.929688 -34.960938 31.289062 -38.742188 36.433594 -38.742188 C 41.578125 -38.742188 44.9375 -34.960938 44.9375 -29.082031 C 44.9375 -22.886719 41.472656 -18.898438 36.433594 -18.898438 Z M 36.433594 -18.898438 "/></g></g></g><g fill="#7ed957" fill-opacity="1"><g transform="translate(607.493171, 436.592429)"><g><path d="M 35.066406 0.839844 C 43.46875 0.839844 53.859375 -0.316406 59.742188 -3.78125 C 60.894531 -4.621094 61.527344 -5.773438 61.421875 -7.347656 C 61.210938 -11.023438 60.6875 -16.902344 60.265625 -20.578125 C 59.949219 -23.625 57.640625 -24.359375 56.066406 -22.46875 C 50.816406 -17.847656 45.355469 -15.957031 38.007812 -15.957031 C 31.496094 -15.957031 24.359375 -19.109375 22.046875 -24.148438 C 20.894531 -26.039062 22.152344 -27.191406 23.832031 -25.933594 C 28.03125 -23.203125 32.863281 -21.945312 37.902344 -21.945312 C 48.925781 -21.945312 59.214844 -28.558594 59.214844 -38.007812 C 59.214844 -51.339844 48.925781 -57.957031 32.335938 -57.957031 C 13.964844 -57.957031 1.261719 -47.5625 1.261719 -29.292969 C 1.261719 -9.871094 14.277344 0.839844 35.066406 0.839844 Z M 31.8125 -30.238281 C 28.347656 -30.238281 23.203125 -31.8125 23.203125 -35.066406 C 23.203125 -39.058594 27.089844 -41.890625 31.183594 -41.890625 C 35.90625 -41.890625 37.796875 -39.476562 37.796875 -35.800781 C 37.796875 -32.234375 35.382812 -30.238281 31.8125 -30.238281 Z M 31.8125 -30.238281 "/></g></g></g><g fill="#7ed957" fill-opacity="1"><g transform="translate(670.381153, 436.592429)"><g><path d="M 16.273438 0.421875 C 19.214844 0.421875 24.042969 0.316406 26.878906 0 C 28.453125 -0.210938 29.816406 -1.363281 29.609375 -3.148438 C 29.082031 -9.871094 28.769531 -16.796875 28.664062 -22.46875 C 28.664062 -29.503906 32.023438 -35.488281 37.480469 -35.488281 C 42.835938 -35.488281 46.089844 -29.609375 46.195312 -22.574219 C 46.195312 -17.429688 45.566406 -10.183594 44.9375 -3.253906 C 44.832031 -1.46875 46.195312 -0.210938 47.773438 0 C 51.445312 0.316406 55.542969 0.421875 58.902344 0.421875 C 62.15625 0.421875 66.039062 0.316406 69.503906 0 C 71.078125 -0.210938 72.128906 -1.15625 72.234375 -2.835938 C 72.339844 -11.128906 72.023438 -23.308594 71.5 -29.292969 C 70.136719 -46.511719 62.996094 -57.851562 49.660156 -57.851562 C 41.261719 -57.851562 34.542969 -52.707031 30.972656 -42.417969 C 30.238281 -40.527344 28.664062 -40.632812 28.664062 -42.835938 C 28.769531 -46.195312 29.292969 -48.402344 30.761719 -53.546875 C 31.289062 -55.226562 29.816406 -57.011719 28.136719 -57.117188 C 24.882812 -57.429688 20.261719 -57.535156 17.640625 -57.535156 C 14.910156 -57.535156 9.871094 -57.429688 7.246094 -57.117188 C 5.667969 -56.90625 4.726562 -55.542969 4.410156 -53.964844 C 2.835938 -41.683594 1.996094 -27.824219 1.996094 -3.148438 C 1.890625 -1.46875 3.148438 -0.210938 4.726562 0 C 7.980469 0.316406 13.230469 0.421875 16.273438 0.421875 Z M 16.273438 0.421875 "/></g></g></g><g fill="#7ed957" fill-opacity="1"><g transform="translate(744.397873, 436.592429)"><g><path d="M 23.832031 0.839844 C 32.335938 0.839844 38.742188 -3.78125 42.3125 -11.234375 C 43.46875 -13.4375 45.042969 -13.125 44.832031 -10.605469 C 44.726562 -8.292969 44.410156 -5.667969 43.992188 -3.253906 C 43.675781 -1.46875 45.042969 -0.210938 46.722656 0 C 49.554688 0.316406 54.492188 0.421875 57.222656 0.421875 C 59.949219 0.421875 65.515625 0.316406 68.769531 0 C 70.34375 -0.210938 71.5 -1.46875 71.5 -3.148438 C 71.5 -27.929688 70.34375 -56.800781 69.085938 -72.023438 C 68.980469 -73.601562 67.824219 -74.648438 66.355469 -74.859375 C 63.519531 -75.28125 59.003906 -75.28125 56.277344 -75.28125 C 53.652344 -75.28125 47.980469 -75.28125 44.9375 -74.964844 C 43.257812 -74.648438 41.785156 -73.285156 42.101562 -71.605469 C 43.363281 -64.464844 44.726562 -54.175781 45.042969 -45.777344 C 45.148438 -42.941406 43.46875 -43.046875 42.3125 -45.042969 C 38.320312 -53.546875 32.863281 -57.851562 23.726562 -57.851562 C 10.078125 -57.851562 1.261719 -46.300781 1.261719 -27.296875 C 1.261719 -8.609375 10.394531 0.839844 23.832031 0.839844 Z M 36.222656 -18.582031 C 31.078125 -18.582031 27.613281 -22.257812 27.613281 -28.242188 C 27.613281 -34.226562 30.972656 -38.320312 36.222656 -38.320312 C 41.261719 -38.320312 44.726562 -34.226562 44.726562 -28.242188 C 44.726562 -22.257812 41.15625 -18.582031 36.222656 -18.582031 Z M 36.222656 -18.582031 "/></g></g></g><g fill="#7ed957" fill-opacity="1"><g transform="translate(817.994641, 436.592429)"><g><path d="M 17.847656 0.839844 C 25.40625 0.839844 32.234375 -3.042969 35.699219 -12.390625 C 36.539062 -14.382812 38.007812 -13.964844 37.902344 -11.863281 C 37.691406 -9.660156 37.273438 -6.195312 36.957031 -4.199219 C 36.539062 -1.890625 38.21875 -0.316406 40.84375 0 C 43.78125 0.316406 48.085938 0.421875 50.921875 0.421875 C 53.859375 0.421875 58.375 0.316406 61 0 C 62.679688 -0.316406 63.730469 -1.46875 63.730469 -3.253906 C 63.414062 -13.859375 62.367188 -28.453125 61.421875 -37.273438 C 60.160156 -49.242188 53.019531 -57.957031 31.601562 -57.957031 C 19.84375 -57.957031 11.652344 -56.277344 7.664062 -54.910156 C 6.40625 -54.386719 5.773438 -53.125 5.667969 -51.550781 C 5.355469 -47.140625 5.039062 -41.472656 5.144531 -37.0625 C 5.144531 -34.226562 7.347656 -33.074219 9.132812 -34.960938 C 15.117188 -39.058594 23.726562 -41.472656 29.1875 -41.472656 C 35.171875 -41.472656 37.273438 -39.582031 37.273438 -37.585938 C 37.273438 -34.753906 33.808594 -34.015625 27.191406 -33.175781 C 13.019531 -31.496094 1.261719 -25.933594 1.261719 -15.015625 C 1.261719 -3.988281 7.140625 0.839844 17.847656 0.839844 Z M 30.761719 -17.113281 C 27.402344 -17.113281 25.933594 -18.480469 25.933594 -21.628906 C 25.933594 -25.828125 29.921875 -28.871094 33.808594 -28.871094 C 36.328125 -28.871094 37.585938 -27.089844 37.585938 -24.777344 C 37.585938 -19.949219 33.386719 -17.113281 30.761719 -17.113281 Z M 30.761719 -17.113281 "/></g></g></g><g fill="#7ed957" fill-opacity="1"><g transform="translate(883.507348, 436.592429)"><g><path d="M 14.804688 0.421875 C 17.324219 0.421875 23.203125 0.316406 26.25 0 C 27.824219 -0.210938 29.292969 -1.46875 29.082031 -3.253906 C 28.664062 -8.714844 28.03125 -15.855469 28.136719 -21.207031 C 28.242188 -27.71875 30.132812 -32.652344 33.175781 -32.652344 C 36.746094 -32.652344 38.847656 -28.03125 39.058594 -21.207031 C 39.164062 -16.484375 38.742188 -8.820312 38.425781 -3.359375 C 38.320312 -1.46875 39.6875 -0.210938 41.367188 0 C 44.515625 0.316406 49.976562 0.421875 52.8125 0.421875 C 55.332031 0.421875 60.160156 0.421875 63.101562 0 C 64.78125 -0.316406 66.25 -1.46875 66.039062 -3.359375 C 65.515625 -9.765625 64.886719 -16.589844 64.886719 -21.523438 C 64.886719 -28.136719 67.089844 -32.652344 70.03125 -32.652344 C 73.496094 -32.652344 75.59375 -28.347656 75.804688 -21 C 75.910156 -16.589844 75.59375 -8.714844 75.28125 -3.359375 C 75.070312 -1.46875 76.328125 -0.316406 78.113281 0 C 81.160156 0.421875 86.828125 0.421875 89.453125 0.421875 C 91.972656 0.421875 96.804688 0.421875 99.742188 0 C 101.421875 -0.316406 102.789062 -1.46875 102.683594 -3.359375 C 102.050781 -16.167969 101.738281 -24.988281 100.269531 -35.066406 C 97.957031 -51.761719 90.398438 -57.535156 81.472656 -57.535156 C 73.390625 -57.535156 67.195312 -50.710938 64.992188 -41.472656 C 64.253906 -38.742188 62.679688 -38.636719 62.050781 -41.472656 C 59.109375 -53.652344 53.652344 -57.535156 46.089844 -57.535156 C 38.636719 -57.535156 32.863281 -50.710938 30.132812 -41.15625 C 29.398438 -38.53125 27.929688 -39.058594 27.929688 -41.472656 C 28.03125 -44.097656 28.976562 -49.976562 29.710938 -53.757812 C 30.132812 -55.542969 28.769531 -56.800781 26.984375 -57.117188 C 24.148438 -57.429688 18.375 -57.535156 15.75 -57.535156 C 13.125 -57.535156 9.449219 -57.535156 6.824219 -57.117188 C 5.25 -56.800781 4.199219 -55.855469 3.988281 -54.28125 C 2.730469 -41.050781 1.890625 -23.832031 1.890625 -3.148438 C 1.890625 -1.46875 3.042969 -0.210938 4.621094 0 C 7.453125 0.316406 12.492188 0.421875 14.804688 0.421875 Z M 14.804688 0.421875 "/></g></g></g><g fill="#7ed957" fill-opacity="1"><g transform="translate(987.970661, 436.592429)"><g><path d="M 35.066406 0.839844 C 43.46875 0.839844 53.859375 -0.316406 59.742188 -3.78125 C 60.894531 -4.621094 61.527344 -5.773438 61.421875 -7.347656 C 61.210938 -11.023438 60.6875 -16.902344 60.265625 -20.578125 C 59.949219 -23.625 57.640625 -24.359375 56.066406 -22.46875 C 50.816406 -17.847656 45.355469 -15.957031 38.007812 -15.957031 C 31.496094 -15.957031 24.359375 -19.109375 22.046875 -24.148438 C 20.894531 -26.039062 22.152344 -27.191406 23.832031 -25.933594 C 28.03125 -23.203125 32.863281 -21.945312 37.902344 -21.945312 C 48.925781 -21.945312 59.214844 -28.558594 59.214844 -38.007812 C 59.214844 -51.339844 48.925781 -57.957031 32.335938 -57.957031 C 13.964844 -57.957031 1.261719 -47.5625 1.261719 -29.292969 C 1.261719 -9.871094 14.277344 0.839844 35.066406 0.839844 Z M 31.8125 -30.238281 C 28.347656 -30.238281 23.203125 -31.8125 23.203125 -35.066406 C 23.203125 -39.058594 27.089844 -41.890625 31.183594 -41.890625 C 35.90625 -41.890625 37.796875 -39.476562 37.796875 -35.800781 C 37.796875 -32.234375 35.382812 -30.238281 31.8125 -30.238281 Z M 31.8125 -30.238281 "/></g></g></g><g fill="#7ed957" fill-opacity="1"><g transform="translate(1050.858597, 436.592429)"><g><path d="M 16.273438 0.421875 C 19.214844 0.421875 24.042969 0.316406 26.878906 0 C 28.453125 -0.210938 29.816406 -1.363281 29.609375 -3.148438 C 29.082031 -9.871094 28.769531 -16.796875 28.664062 -22.46875 C 28.664062 -29.503906 32.023438 -35.488281 37.480469 -35.488281 C 42.835938 -35.488281 46.089844 -29.609375 46.195312 -22.574219 C 46.195312 -17.429688 45.566406 -10.183594 44.9375 -3.253906 C 44.832031 -1.46875 46.195312 -0.210938 47.773438 0 C 51.445312 0.316406 55.542969 0.421875 58.902344 0.421875 C 62.15625 0.421875 66.039062 0.316406 69.503906 0 C 71.078125 -0.210938 72.128906 -1.15625 72.234375 -2.835938 C 72.339844 -11.128906 72.023438 -23.308594 71.5 -29.292969 C 70.136719 -46.511719 62.996094 -57.851562 49.660156 -57.851562 C 41.261719 -57.851562 34.542969 -52.707031 30.972656 -42.417969 C 30.238281 -40.527344 28.664062 -40.632812 28.664062 -42.835938 C 28.769531 -46.195312 29.292969 -48.402344 30.761719 -53.546875 C 31.289062 -55.226562 29.816406 -57.011719 28.136719 -57.117188 C 24.882812 -57.429688 20.261719 -57.535156 17.640625 -57.535156 C 14.910156 -57.535156 9.871094 -57.429688 7.246094 -57.117188 C 5.667969 -56.90625 4.726562 -55.542969 4.410156 -53.964844 C 2.835938 -41.683594 1.996094 -27.824219 1.996094 -3.148438 C 1.890625 -1.46875 3.148438 -0.210938 4.726562 0 C 7.980469 0.316406 13.230469 0.421875 16.273438 0.421875 Z M 16.273438 0.421875 "/></g></g></g><g fill="#7ed957" fill-opacity="1"><g transform="translate(1124.875317, 436.592429)"><g><path d="M 33.808594 0.839844 C 40.316406 0.839844 46.195312 -0.105469 51.550781 -1.574219 C 52.8125 -2.101562 53.859375 -3.464844 53.859375 -5.355469 C 53.964844 -8.820312 54.070312 -15.644531 53.964844 -19.527344 C 53.859375 -22.046875 51.867188 -22.886719 50.292969 -21.734375 C 48.507812 -20.789062 45.042969 -19.84375 42.835938 -19.84375 C 38.425781 -19.84375 35.066406 -21.945312 34.859375 -26.144531 C 34.648438 -29.398438 34.648438 -33.175781 34.960938 -36.851562 C 35.171875 -38.636719 36.328125 -39.792969 38.53125 -39.792969 C 41.785156 -39.792969 46.828125 -39.582031 50.082031 -39.371094 C 51.65625 -39.164062 53.019531 -40.738281 53.019531 -42.417969 L 53.019531 -54.175781 C 53.019531 -55.855469 51.65625 -57.222656 50.082031 -57.222656 C 45.988281 -57.222656 41.15625 -57.011719 37.0625 -57.011719 C 36.222656 -57.011719 35.59375 -57.851562 35.59375 -59.109375 C 35.59375 -61.734375 36.117188 -64.359375 36.640625 -67.300781 C 36.851562 -68.980469 35.488281 -70.449219 33.808594 -70.660156 C 30.867188 -70.976562 25.199219 -71.078125 22.574219 -71.078125 C 20.054688 -70.976562 16.167969 -70.976562 13.648438 -70.660156 C 12.179688 -70.449219 11.023438 -69.296875 10.8125 -67.824219 C 10.5 -65.09375 10.289062 -61.316406 10.183594 -58.480469 C 10.078125 -57.746094 9.554688 -57.117188 8.714844 -57.117188 L 3.570312 -57.117188 C 1.996094 -57.117188 0.839844 -55.855469 0.734375 -54.28125 C 0.734375 -50.292969 0.628906 -46.40625 0.734375 -42.523438 C 0.839844 -40.945312 1.996094 -39.582031 3.570312 -39.582031 C 5.039062 -39.6875 6.507812 -39.6875 7.875 -39.6875 C 8.714844 -39.792969 9.449219 -39.164062 9.34375 -38.320312 C 8.503906 -31.8125 8.503906 -25.09375 8.503906 -20.683594 C 8.503906 -5.667969 19.421875 0.839844 33.808594 0.839844 Z M 33.808594 0.839844 "/></g></g></g><g fill="#7ed957" fill-opacity="1"><g transform="translate(1179.679239, 436.592429)"><g><path d="M 33.703125 0.839844 C 52.601562 0.839844 66.039062 -6.824219 66.039062 -26.984375 C 66.039062 -45.988281 52.707031 -57.957031 33.703125 -57.957031 C 14.699219 -57.957031 1.261719 -45.988281 1.261719 -26.984375 C 1.261719 -6.824219 14.804688 0.839844 33.703125 0.839844 Z M 33.703125 -17.535156 C 28.558594 -17.535156 24.882812 -21.734375 24.882812 -28.453125 C 24.882812 -34.960938 28.453125 -39.6875 33.703125 -39.6875 C 38.953125 -39.6875 42.523438 -34.960938 42.523438 -28.453125 C 42.523438 -21.734375 38.847656 -17.535156 33.703125 -17.535156 Z M 33.703125 -17.535156 "/></g></g></g><g fill="#7ed957" fill-opacity="1"><g transform="translate(1246.97672, 436.592429)"><g><path d="M 30.761719 0.734375 C 49.871094 0.734375 60.476562 -5.566406 60.476562 -16.378906 C 60.476562 -35.90625 28.664062 -31.394531 28.664062 -38.007812 C 28.664062 -40.527344 31.917969 -41.996094 38.21875 -41.890625 C 43.152344 -41.785156 48.820312 -40.210938 52.8125 -38.007812 C 54.597656 -36.640625 56.695312 -37.378906 56.589844 -40.003906 C 56.484375 -43.992188 56.066406 -49.03125 55.75 -52.917969 C 55.644531 -54.175781 54.804688 -55.226562 53.546875 -55.644531 C 47.140625 -57.117188 37.585938 -57.851562 30.867188 -57.851562 C 13.542969 -57.851562 3.675781 -52.917969 3.675781 -41.996094 C 3.675781 -22.992188 32.96875 -27.402344 32.96875 -20.683594 C 32.96875 -17.953125 30.238281 -16.589844 24.566406 -16.589844 C 18.6875 -16.589844 11.652344 -18.582031 5.878906 -22.363281 C 4.199219 -23.832031 1.679688 -23.308594 1.574219 -20.789062 C 1.46875 -15.644531 1.363281 -10.710938 1.46875 -5.566406 C 1.46875 -4.199219 2.308594 -3.253906 3.675781 -2.835938 C 11.128906 -0.734375 22.152344 0.734375 30.761719 0.734375 Z M 30.761719 0.734375 "/></g></g></g><g clip-path="url(#02bab8e657)"><g clip-path="url(#fdd2a9e139)"><g clip-path="url(#bdfbe0ecb0)"><path fill="#157900" d="M 109.960938 358.519531 C 115.433594 361.984375 117.816406 368.035156 115.28125 372.035156 C 112.75 376.03125 106.257812 376.464844 100.789062 373 C 95.316406 369.535156 92.933594 363.484375 95.46875 359.484375 C 98 355.484375 104.488281 355.054688 109.960938 358.519531 Z M 165.105469 370.304688 C 163.566406 371.527344 161.847656 372.40625 159.953125 372.945312 C 158.058594 373.480469 156.132812 373.632812 154.179688 373.402344 C 153.820312 373.359375 153.460938 373.355469 153.101562 373.382812 C 152.742188 373.410156 152.390625 373.472656 152.042969 373.574219 C 151.695312 373.671875 151.363281 373.800781 151.042969 373.964844 C 150.71875 374.128906 150.417969 374.324219 150.136719 374.546875 C 149.851562 374.769531 149.59375 375.019531 149.359375 375.292969 C 149.125 375.570312 148.921875 375.863281 148.746094 376.179688 C 148.570312 376.492188 148.425781 376.824219 148.316406 377.167969 C 148.207031 377.507812 148.128906 377.859375 148.085938 378.21875 C 147.972656 379.1875 147.765625 380.132812 147.46875 381.0625 C 147.167969 381.988281 146.78125 382.875 146.304688 383.726562 C 145.828125 384.578125 145.277344 385.375 144.644531 386.117188 C 144.011719 386.859375 143.3125 387.53125 142.550781 388.136719 C 141.785156 388.738281 140.96875 389.261719 140.101562 389.707031 C 139.234375 390.152344 138.332031 390.503906 137.394531 390.769531 C 136.457031 391.035156 135.5 391.207031 134.53125 391.285156 C 133.558594 391.363281 132.589844 391.34375 131.621094 391.230469 C 130.652344 391.117188 129.707031 390.914062 128.777344 390.613281 C 127.851562 390.3125 126.960938 389.925781 126.109375 389.449219 C 125.261719 388.972656 124.464844 388.421875 123.722656 387.789062 C 122.980469 387.15625 122.308594 386.457031 121.703125 385.695312 C 121.097656 384.929688 120.574219 384.113281 120.132812 383.246094 C 119.6875 382.378906 119.332031 381.476562 119.066406 380.539062 C 118.800781 379.601562 118.628906 378.644531 118.554688 377.675781 C 118.476562 376.703125 118.492188 375.734375 118.605469 374.765625 C 118.738281 373.621094 118.929688 372.484375 119.175781 371.359375 C 119.417969 370.234375 119.71875 369.125 120.074219 368.027344 C 120.429688 366.933594 120.835938 365.855469 121.296875 364.800781 C 121.753906 363.742188 122.265625 362.710938 122.828125 361.707031 C 123.390625 360.699219 124 359.722656 124.65625 358.777344 C 125.3125 357.832031 126.015625 356.921875 126.761719 356.042969 C 127.511719 355.167969 128.296875 354.328125 129.128906 353.527344 C 129.957031 352.730469 130.824219 351.972656 131.726562 351.257812 C 132.632812 350.542969 133.566406 349.875 134.539062 349.253906 C 135.507812 348.628906 136.503906 348.058594 137.53125 347.53125 C 138.554688 347.007812 139.605469 346.535156 140.675781 346.113281 C 141.75 345.695312 142.839844 345.328125 143.949219 345.011719 C 145.058594 344.699219 146.179688 344.441406 147.3125 344.234375 C 148.445312 344.03125 149.585938 343.882812 150.734375 343.792969 C 151.882812 343.703125 153.035156 343.667969 154.1875 343.6875 C 155.335938 343.710938 156.484375 343.789062 157.628906 343.921875 C 158.355469 344.007812 159.070312 344.144531 159.773438 344.335938 C 160.480469 344.523438 161.164062 344.765625 161.835938 345.058594 C 162.503906 345.347656 163.148438 345.6875 163.765625 346.074219 C 164.386719 346.460938 164.972656 346.890625 165.527344 347.363281 C 166.085938 347.835938 166.601562 348.347656 167.082031 348.898438 C 167.5625 349.449219 168 350.03125 168.394531 350.644531 C 168.789062 351.257812 169.136719 351.898438 169.433594 352.5625 C 169.734375 353.230469 169.984375 353.914062 170.183594 354.613281 C 170.382812 355.316406 170.527344 356.03125 170.621094 356.753906 C 170.714844 357.476562 170.757812 358.203125 170.742188 358.933594 C 170.730469 359.664062 170.664062 360.386719 170.542969 361.109375 C 170.421875 361.828125 170.25 362.535156 170.023438 363.230469 C 169.800781 363.925781 169.527344 364.597656 169.203125 365.253906 C 168.878906 365.90625 168.507812 366.53125 168.089844 367.132812 C 167.675781 367.730469 167.214844 368.296875 166.714844 368.828125 C 166.214844 369.359375 165.679688 369.851562 165.105469 370.304688 Z M 119.425781 338.089844 C 124.542969 343.441406 125.523438 350.8125 121.613281 354.550781 C 117.703125 358.292969 110.382812 356.988281 105.261719 351.636719 C 100.144531 346.285156 99.164062 338.917969 103.078125 335.175781 C 106.988281 331.4375 114.304688 332.742188 119.425781 338.089844 Z M 121.757812 336.246094 C 125.78125 342.460938 132.726562 345.117188 137.269531 342.175781 C 141.8125 339.238281 142.230469 331.8125 138.207031 325.597656 C 134.183594 319.382812 127.242188 316.726562 122.699219 319.667969 C 118.15625 322.609375 117.734375 330.03125 121.757812 336.246094 Z M 143.820312 331.757812 C 145.925781 337.878906 151.265625 341.597656 155.738281 340.054688 C 160.214844 338.515625 162.136719 332.300781 160.027344 326.179688 C 157.917969 320.054688 152.582031 316.339844 148.105469 317.878906 C 143.632812 319.417969 141.710938 325.632812 143.820312 331.757812 Z M 143.820312 331.757812 " fill-opacity="1" fill-rule="nonzero"/></g></g></g><g clip-path="url(#cfe5934743)"><g clip-path="url(#06d1b0c53d)"><g clip-path="url(#a4056c9c88)"><path fill="#7ed957" d="M 111.730469 358.144531 C 116.792969 361.347656 118.996094 366.945312 116.652344 370.640625 C 114.3125 374.339844 108.308594 374.738281 103.25 371.535156 C 98.191406 368.328125 95.984375 362.734375 98.328125 359.035156 C 100.671875 355.335938 106.671875 354.9375 111.730469 358.144531 Z M 162.734375 369.042969 C 161.308594 370.171875 159.71875 370.984375 157.96875 371.484375 C 156.214844 371.980469 154.4375 372.121094 152.628906 371.90625 C 152.296875 371.867188 151.964844 371.863281 151.632812 371.886719 C 151.300781 371.914062 150.972656 371.972656 150.652344 372.0625 C 150.332031 372.15625 150.023438 372.277344 149.726562 372.429688 C 149.429688 372.578125 149.148438 372.757812 148.886719 372.964844 C 148.625 373.171875 148.386719 373.402344 148.171875 373.65625 C 147.953125 373.910156 147.765625 374.183594 147.601562 374.472656 C 147.441406 374.765625 147.308594 375.070312 147.207031 375.386719 C 147.101562 375.703125 147.03125 376.027344 146.992188 376.359375 C 146.886719 377.253906 146.699219 378.132812 146.421875 378.988281 C 146.144531 379.847656 145.785156 380.667969 145.34375 381.457031 C 144.90625 382.242188 144.394531 382.980469 143.808594 383.664062 C 143.222656 384.351562 142.578125 384.972656 141.871094 385.53125 C 141.164062 386.089844 140.410156 386.574219 139.605469 386.984375 C 138.804688 387.394531 137.96875 387.722656 137.101562 387.96875 C 136.234375 388.214844 135.351562 388.375 134.453125 388.445312 C 133.554688 388.519531 132.660156 388.5 131.765625 388.394531 C 130.871094 388.292969 129.992188 388.101562 129.136719 387.824219 C 128.277344 387.546875 127.457031 387.1875 126.667969 386.746094 C 125.882812 386.308594 125.144531 385.796875 124.460938 385.210938 C 123.773438 384.628906 123.152344 383.980469 122.59375 383.273438 C 122.035156 382.566406 121.550781 381.8125 121.140625 381.011719 C 120.730469 380.207031 120.402344 379.371094 120.15625 378.503906 C 119.910156 377.636719 119.75 376.757812 119.679688 375.859375 C 119.605469 374.960938 119.625 374.0625 119.726562 373.167969 C 119.851562 372.109375 120.027344 371.058594 120.253906 370.019531 C 120.480469 368.976562 120.757812 367.949219 121.085938 366.9375 C 121.414062 365.921875 121.789062 364.925781 122.214844 363.949219 C 122.640625 362.972656 123.113281 362.019531 123.632812 361.089844 C 124.152344 360.160156 124.714844 359.257812 125.324219 358.382812 C 125.929688 357.507812 126.582031 356.664062 127.273438 355.851562 C 127.960938 355.042969 128.691406 354.265625 129.457031 353.527344 C 130.226562 352.789062 131.027344 352.085938 131.863281 351.425781 C 132.699219 350.765625 133.566406 350.148438 134.460938 349.570312 C 135.359375 348.996094 136.28125 348.464844 137.230469 347.980469 C 138.179688 347.496094 139.148438 347.058594 140.140625 346.671875 C 141.132812 346.28125 142.140625 345.941406 143.164062 345.652344 C 144.191406 345.359375 145.226562 345.121094 146.277344 344.933594 C 147.324219 344.742188 148.378906 344.605469 149.441406 344.523438 C 150.503906 344.4375 151.570312 344.40625 152.632812 344.425781 C 153.699219 344.445312 154.761719 344.515625 155.820312 344.640625 C 157.167969 344.800781 158.464844 345.148438 159.707031 345.691406 C 160.953125 346.234375 162.089844 346.945312 163.125 347.824219 C 164.15625 348.707031 165.039062 349.714844 165.773438 350.859375 C 166.507812 352 167.058594 353.226562 167.429688 354.53125 C 167.800781 355.835938 167.972656 357.167969 167.945312 358.527344 C 167.921875 359.882812 167.699219 361.207031 167.28125 362.5 C 166.863281 363.789062 166.269531 364.992188 165.492188 366.109375 C 164.71875 367.222656 163.800781 368.199219 162.734375 369.042969 Z M 120.484375 339.25 C 125.21875 344.199219 126.125 351.015625 122.507812 354.472656 C 118.890625 357.933594 112.121094 356.726562 107.386719 351.777344 C 102.65625 346.828125 101.75 340.015625 105.367188 336.554688 C 108.980469 333.09375 115.75 334.300781 120.484375 339.25 Z M 122.644531 337.542969 C 126.363281 343.292969 132.785156 345.75 136.988281 343.027344 C 141.1875 340.308594 141.578125 333.445312 137.855469 327.695312 C 134.136719 321.945312 127.714844 319.492188 123.511719 322.210938 C 119.3125 324.929688 118.921875 331.796875 122.644531 337.542969 Z M 143.046875 333.390625 C 144.996094 339.054688 149.933594 342.492188 154.070312 341.066406 C 158.210938 339.640625 159.984375 333.894531 158.039062 328.230469 C 156.085938 322.570312 151.152344 319.132812 147.011719 320.554688 C 142.871094 321.980469 141.097656 327.726562 143.046875 333.390625 Z M 143.046875 333.390625 " fill-opacity="1" fill-rule="nonzero"/></g></g></g></svg>