<svg xmlns="http://www.w3.org/2000/svg" xmlns:xlink="http://www.w3.org/1999/xlink" width="50" zoomAndPan="magnify" viewBox="0 0 37.5 37.499999" height="50" preserveAspectRatio="xMidYMid meet" version="1.0"><defs><clipPath id="2f83d20e6b"><path d="M 0 1.21875 L 36.828125 1.21875 L 36.828125 36.746094 L 0 36.746094 Z M 0 1.21875 " clip-rule="nonzero"/></clipPath><clipPath id="3ea0d568a5"><path d="M 0 1.875 L 36.433594 1.875 L 36.433594 36.660156 L 0 36.660156 Z M 0 1.875 " clip-rule="nonzero"/></clipPath></defs><g clip-path="url(#2f83d20e6b)"><path fill="#000000" d="M 24.609375 1.253906 C 24.53125 1.257812 24.453125 1.261719 24.375 1.265625 C 21.25 1.804688 19.535156 5.097656 19.285156 8.003906 C 18.921875 10.640625 20.085938 14.03125 22.988281 14.621094 C 23.410156 14.703125 23.847656 14.664062 24.257812 14.554688 C 27.753906 13.386719 29.316406 9.257812 28.8125 5.835938 C 28.664062 3.628906 26.996094 1.226562 24.609375 1.253906 Z M 11.363281 1.398438 C 9.421875 1.445312 7.910156 3.410156 7.601562 5.257812 C 6.953125 8.917969 8.621094 13.464844 12.445312 14.621094 C 12.800781 14.699219 13.171875 14.707031 13.535156 14.652344 C 16.117188 14.222656 17.210938 11.332031 17.105469 9 C 17.027344 5.921875 15.421875 2.367188 12.21875 1.5 C 11.925781 1.421875 11.640625 1.390625 11.363281 1.398438 Z M 33.074219 11.792969 C 29.714844 11.992188 27.410156 15.335938 27.082031 18.460938 C 26.636719 20.710938 27.839844 23.726562 30.417969 23.90625 C 34.011719 23.859375 36.460938 20.03125 36.5625 16.738281 C 36.789062 14.558594 35.503906 11.914062 33.074219 11.792969 Z M 3.660156 12.535156 C 2.230469 12.523438 0.824219 13.375 0.355469 14.824219 C -0.890625 18.703125 1.613281 23.613281 5.730469 24.429688 C 7.449219 24.722656 8.960938 23.40625 9.386719 21.824219 C 10.289062 18.433594 8.433594 14.5 5.296875 12.964844 C 4.785156 12.679688 4.21875 12.539062 3.660156 12.535156 Z M 18.726562 19.488281 C 15.921875 19.492188 13.074219 20.914062 11.261719 23.023438 C 9.300781 25.484375 7.695312 28.351562 7.066406 31.457031 C 6.304688 33.691406 8.035156 36.265625 10.429688 36.28125 C 13.3125 36.363281 15.789062 34.386719 18.65625 34.242188 C 21.089844 33.871094 23.269531 35.132812 25.453125 35.957031 C 27.316406 36.753906 29.890625 36.449219 30.839844 34.449219 C 31.585938 32.414062 30.488281 30.242188 29.574219 28.429688 C 27.714844 25.496094 25.722656 22.410156 22.675781 20.574219 C 21.453125 19.820312 20.09375 19.484375 18.726562 19.488281 Z M 18.726562 19.488281 " fill-opacity="1" fill-rule="nonzero"/></g><g clip-path="url(#3ea0d568a5)"><path fill="#7ed957" d="M 24.609375 1.90625 C 24.53125 1.910156 24.453125 1.914062 24.378906 1.917969 C 21.296875 2.449219 19.601562 5.710938 19.355469 8.582031 C 18.996094 11.191406 20.144531 14.542969 23.007812 15.125 C 23.425781 15.207031 23.855469 15.167969 24.261719 15.058594 C 27.710938 13.902344 29.253906 9.820312 28.753906 6.4375 C 28.609375 4.253906 26.960938 1.878906 24.609375 1.90625 Z M 11.542969 2.046875 C 9.625 2.09375 8.132812 4.039062 7.832031 5.863281 C 7.191406 9.484375 8.835938 13.980469 12.605469 15.125 C 12.960938 15.203125 13.324219 15.210938 13.683594 15.15625 C 16.230469 14.730469 17.3125 11.875 17.203125 9.566406 C 17.128906 6.523438 15.546875 3.003906 12.386719 2.148438 C 12.097656 2.074219 11.816406 2.039062 11.542969 2.046875 Z M 32.957031 12.328125 C 29.644531 12.527344 27.371094 15.832031 27.046875 18.921875 C 26.609375 21.148438 27.796875 24.128906 30.335938 24.308594 C 33.882812 24.261719 36.296875 20.476562 36.398438 17.21875 C 36.625 15.0625 35.355469 12.445312 32.957031 12.328125 Z M 3.941406 13.0625 C 2.53125 13.050781 1.144531 13.894531 0.683594 15.328125 C -0.542969 19.164062 1.925781 24.019531 5.988281 24.824219 C 7.679688 25.117188 9.171875 23.8125 9.589844 22.246094 C 10.480469 18.898438 8.652344 15.007812 5.554688 13.488281 C 5.050781 13.203125 4.496094 13.066406 3.941406 13.0625 Z M 18.804688 19.9375 C 16.039062 19.945312 13.230469 21.347656 11.441406 23.4375 C 9.507812 25.871094 7.921875 28.703125 7.304688 31.773438 C 6.550781 33.984375 8.257812 36.53125 10.621094 36.546875 C 13.464844 36.625 15.910156 34.671875 18.738281 34.527344 C 21.136719 34.160156 23.285156 35.410156 25.441406 36.226562 C 27.277344 37.011719 29.816406 36.710938 30.753906 34.734375 C 31.492188 32.71875 30.40625 30.570312 29.507812 28.78125 C 27.671875 25.878906 25.707031 22.828125 22.699219 21.011719 C 21.492188 20.265625 20.15625 19.933594 18.804688 19.9375 Z M 18.804688 19.9375 " fill-opacity="1" fill-rule="nonzero"/></g></svg>