<svg xmlns="http://www.w3.org/2000/svg" xmlns:xlink="http://www.w3.org/1999/xlink" width="50" zoomAndPan="magnify" viewBox="0 0 37.5 37.499999" height="50" preserveAspectRatio="xMidYMid meet" version="1.0"><defs><clipPath id="ea9cd33f44"><path d="M 9 25 L 18 25 L 18 36.859375 L 9 36.859375 Z M 9 25 " clip-rule="nonzero"/></clipPath><clipPath id="4c254bd5cb"><path d="M 2.753906 3 L 17 3 L 17 34 L 2.753906 34 Z M 2.753906 3 " clip-rule="nonzero"/></clipPath><clipPath id="963411dcb6"><path d="M 20 3 L 34.578125 3 L 34.578125 34 L 20 34 Z M 20 3 " clip-rule="nonzero"/></clipPath><clipPath id="f6b1a69c71"><path d="M 9 25 L 18 25 L 18 36.402344 L 9 36.402344 Z M 9 25 " clip-rule="nonzero"/></clipPath><clipPath id="cd4ce6b043"><path d="M 2.988281 3 L 17 3 L 17 33 L 2.988281 33 Z M 2.988281 3 " clip-rule="nonzero"/></clipPath><clipPath id="811146c293"><path d="M 20 3 L 34.074219 3 L 34.074219 33 L 20 33 Z M 20 3 " clip-rule="nonzero"/></clipPath></defs><g clip-path="url(#ea9cd33f44)"><path fill="#7ed957" d="M 10.628906 36.996094 C 10.359375 36.996094 10.09375 36.851562 9.949219 36.601562 C 9.730469 36.226562 9.859375 35.746094 10.234375 35.527344 L 15.800781 32.3125 L 12.339844 27.207031 C 12.09375 26.84375 12.1875 26.355469 12.546875 26.113281 C 12.910156 25.871094 13.398438 25.964844 13.640625 26.324219 L 17.574219 32.128906 C 17.695312 32.308594 17.738281 32.53125 17.691406 32.746094 C 17.640625 32.957031 17.507812 33.140625 17.316406 33.25 L 11.023438 36.886719 C 10.898438 36.960938 10.761719 36.996094 10.628906 36.996094 Z M 10.628906 36.996094 " fill-opacity="1" fill-rule="nonzero"/></g><g clip-path="url(#4c254bd5cb)"><path fill="#7ed957" d="M 16.136719 33.058594 C 16.105469 33.058594 16.074219 33.058594 16.042969 33.054688 C 8.34375 32.121094 2.757812 25.855469 2.757812 18.15625 C 2.757812 11.269531 7.226562 5.113281 13.621094 3.1875 C 14.039062 3.066406 14.476562 3.300781 14.601562 3.714844 C 14.726562 4.132812 14.492188 4.570312 14.074219 4.695312 C 8.339844 6.421875 4.332031 11.957031 4.332031 18.15625 C 4.332031 25.15625 9.226562 30.640625 16.230469 31.492188 C 16.664062 31.542969 16.96875 31.9375 16.917969 32.367188 C 16.871094 32.765625 16.53125 33.058594 16.136719 33.058594 Z M 16.136719 33.058594 " fill-opacity="1" fill-rule="nonzero"/></g><path fill="#7ed957" d="M 24.007812 10.238281 C 23.753906 10.238281 23.507812 10.117188 23.355469 9.890625 L 19.421875 4.085938 C 19.296875 3.90625 19.257812 3.683594 19.304688 3.46875 C 19.351562 3.257812 19.488281 3.074219 19.679688 2.964844 L 25.972656 -0.675781 C 26.351562 -0.894531 26.832031 -0.761719 27.046875 -0.386719 C 27.265625 -0.0117188 27.136719 0.46875 26.761719 0.6875 L 21.199219 3.902344 L 24.660156 9.007812 C 24.902344 9.367188 24.808594 9.859375 24.449219 10.101562 C 24.3125 10.195312 24.160156 10.238281 24.007812 10.238281 Z M 24.007812 10.238281 " fill-opacity="1" fill-rule="nonzero"/><g clip-path="url(#963411dcb6)"><path fill="#7ed957" d="M 23.148438 33.058594 C 22.808594 33.058594 22.5 32.839844 22.394531 32.5 C 22.269531 32.082031 22.503906 31.644531 22.921875 31.519531 C 28.65625 29.792969 32.664062 24.257812 32.664062 18.058594 C 32.664062 11.058594 27.769531 5.574219 20.765625 4.722656 C 20.332031 4.671875 20.027344 4.28125 20.078125 3.847656 C 20.128906 3.417969 20.523438 3.109375 20.953125 3.160156 C 28.652344 4.09375 34.238281 10.359375 34.238281 18.058594 C 34.238281 24.945312 29.773438 31.101562 23.378906 33.023438 C 23.300781 33.050781 23.222656 33.058594 23.148438 33.058594 Z M 23.148438 33.058594 " fill-opacity="1" fill-rule="nonzero"/></g><g clip-path="url(#f6b1a69c71)"><path fill="#5019dd" d="M 10.746094 36.714844 C 10.480469 36.714844 10.21875 36.574219 10.074219 36.328125 C 9.863281 35.957031 9.988281 35.480469 10.359375 35.269531 L 15.839844 32.101562 L 12.429688 27.070312 C 12.191406 26.714844 12.28125 26.234375 12.636719 25.992188 C 12.992188 25.753906 13.472656 25.847656 13.714844 26.199219 L 17.589844 31.917969 C 17.707031 32.097656 17.75 32.316406 17.703125 32.527344 C 17.65625 32.738281 17.523438 32.917969 17.335938 33.023438 L 11.132812 36.609375 C 11.011719 36.679688 10.878906 36.714844 10.746094 36.714844 Z M 10.746094 36.714844 " fill-opacity="1" fill-rule="nonzero"/></g><g clip-path="url(#cd4ce6b043)"><path fill="#5019dd" d="M 16.171875 32.835938 C 16.140625 32.835938 16.109375 32.835938 16.078125 32.832031 C 8.496094 31.910156 2.996094 25.738281 2.996094 18.15625 C 2.996094 11.375 7.394531 5.308594 13.695312 3.414062 C 14.105469 3.292969 14.539062 3.523438 14.660156 3.929688 C 14.785156 4.34375 14.550781 4.773438 14.140625 4.898438 C 8.492188 6.597656 4.542969 12.050781 4.542969 18.15625 C 4.542969 25.054688 9.363281 30.453125 16.265625 31.292969 C 16.691406 31.34375 16.992188 31.730469 16.941406 32.15625 C 16.894531 32.546875 16.558594 32.835938 16.171875 32.835938 Z M 16.171875 32.835938 " fill-opacity="1" fill-rule="nonzero"/></g><path fill="#5019dd" d="M 23.925781 10.355469 C 23.675781 10.355469 23.429688 10.238281 23.28125 10.015625 L 19.40625 4.296875 C 19.285156 4.121094 19.246094 3.898438 19.292969 3.691406 C 19.339844 3.480469 19.472656 3.300781 19.660156 3.191406 L 25.863281 -0.390625 C 26.234375 -0.609375 26.707031 -0.480469 26.921875 -0.109375 C 27.136719 0.261719 27.007812 0.734375 26.636719 0.949219 L 21.15625 4.117188 L 24.566406 9.144531 C 24.808594 9.5 24.714844 9.984375 24.359375 10.222656 C 24.226562 10.3125 24.074219 10.355469 23.925781 10.355469 Z M 23.925781 10.355469 " fill-opacity="1" fill-rule="nonzero"/><g clip-path="url(#811146c293)"><path fill="#5019dd" d="M 23.078125 32.835938 C 22.746094 32.835938 22.4375 32.621094 22.335938 32.285156 C 22.214844 31.875 22.445312 31.445312 22.855469 31.320312 C 28.503906 29.617188 32.453125 24.167969 32.453125 18.0625 C 32.453125 11.164062 27.632812 5.761719 20.730469 4.925781 C 20.304688 4.875 20.003906 4.488281 20.054688 4.0625 C 20.105469 3.636719 20.492188 3.332031 20.917969 3.386719 C 28.5 4.304688 34.003906 10.476562 34.003906 18.058594 C 34.003906 24.84375 29.605469 30.90625 23.304688 32.800781 C 23.226562 32.828125 23.152344 32.835938 23.078125 32.835938 Z M 23.078125 32.835938 " fill-opacity="1" fill-rule="nonzero"/></g></svg>