<svg xmlns="http://www.w3.org/2000/svg" xmlns:xlink="http://www.w3.org/1999/xlink" width="1920" zoomAndPan="magnify" viewBox="0 0 1440 809.999993" height="1080" preserveAspectRatio="xMidYMid meet" version="1.0"><defs><g/><clipPath id="e0938b0d43"><path d="M 645 222 L 824 222 L 824 439.195312 L 645 439.195312 Z M 645 222 " clip-rule="nonzero"/></clipPath><clipPath id="5c9fd7cb5f"><path d="M 827 270 L 853.605469 270 L 853.605469 334 L 827 334 Z M 827 270 " clip-rule="nonzero"/></clipPath><clipPath id="6ca70cd231"><path d="M 648 225 L 820 225 L 820 434.355469 L 648 434.355469 Z M 648 225 " clip-rule="nonzero"/></clipPath><clipPath id="3dcb94b761"><path d="M 823 272 L 848.015625 272 L 848.015625 333 L 823 333 Z M 823 272 " clip-rule="nonzero"/></clipPath><clipPath id="6b1b019f42"><path d="M 463.488281 281 L 584.988281 281 L 584.988281 367.195312 L 463.488281 367.195312 Z M 463.488281 281 " clip-rule="nonzero"/></clipPath><clipPath id="ce3509e92b"><path d="M 1110 316 L 1206 316 L 1206 398 L 1110 398 Z M 1110 316 " clip-rule="nonzero"/></clipPath><clipPath id="0e437550fe"><path d="M 1108.71875 316.320312 L 1206.203125 314.496094 L 1207.773438 398.484375 L 1110.289062 400.304688 Z M 1108.71875 316.320312 " clip-rule="nonzero"/></clipPath><clipPath id="93d0bb7cfc"><path d="M 1108.71875 316.320312 L 1206.203125 314.496094 L 1207.773438 398.484375 L 1110.289062 400.304688 Z M 1108.71875 316.320312 " clip-rule="nonzero"/></clipPath><clipPath id="6f0c438ff7"><path d="M 1116 320 L 1201 320 L 1201 394 L 1116 394 Z M 1116 320 " clip-rule="nonzero"/></clipPath><clipPath id="e5a966fcb5"><path d="M 1114.140625 320.179688 L 1201.875 318.539062 L 1203.277344 393.527344 L 1115.542969 395.167969 Z M 1114.140625 320.179688 " clip-rule="nonzero"/></clipPath><clipPath id="ffdb68f5e6"><path d="M 1114.140625 320.179688 L 1201.875 318.539062 L 1203.277344 393.527344 L 1115.542969 395.167969 Z M 1114.140625 320.179688 " clip-rule="nonzero"/></clipPath><clipPath id="6106dd2c8e"><path d="M 156 297 L 250 297 L 250 389 L 156 389 Z M 156 297 " clip-rule="nonzero"/></clipPath><clipPath id="e1c08dd90c"><path d="M 139.785156 339.382812 L 216.277344 278.921875 L 268.367188 344.824219 L 191.875 405.28125 Z M 139.785156 339.382812 " clip-rule="nonzero"/></clipPath><clipPath id="35e4b65ef5"><path d="M 139.785156 339.382812 L 216.277344 278.921875 L 268.367188 344.824219 L 191.875 405.28125 Z M 139.785156 339.382812 " clip-rule="nonzero"/></clipPath><clipPath id="dfcfe9a5fe"><path d="M 161 301 L 246 301 L 246 383 L 161 383 Z M 161 301 " clip-rule="nonzero"/></clipPath><clipPath id="d9e192ba3b"><path d="M 146.4375 339.171875 L 215.28125 284.757812 L 261.789062 343.597656 L 192.945312 398.011719 Z M 146.4375 339.171875 " clip-rule="nonzero"/></clipPath><clipPath id="285da3eeec"><path d="M 146.4375 339.171875 L 215.28125 284.757812 L 261.789062 343.597656 L 192.945312 398.011719 Z M 146.4375 339.171875 " clip-rule="nonzero"/></clipPath></defs><path fill="#11003b" d="M 697.207031 251.375 C 702.796875 249.105469 707.773438 245.921875 712.101562 242.40625 C 711.347656 235.125 710.125 229.390625 708.460938 225.355469 C 703.652344 213.691406 690.789062 196.359375 683.179688 193.511719 C 681.976562 193.0625 681.011719 193.011719 680.308594 193.363281 C 675.855469 195.589844 676.347656 207.390625 677.8125 215.378906 C 680.84375 215.269531 682.863281 215.441406 683.070312 215.460938 C 684.183594 215.5625 685 216.542969 684.898438 217.65625 C 684.796875 218.765625 683.816406 219.59375 682.703125 219.480469 C 682.585938 219.472656 670.640625 218.464844 660.679688 223.445312 C 650.683594 228.441406 644.222656 238.65625 644.15625 238.761719 C 643.773438 239.375 643.117188 239.710938 642.441406 239.710938 C 642.078125 239.710938 641.707031 239.613281 641.375 239.402344 C 640.429688 238.8125 640.140625 237.566406 640.730469 236.621094 C 640.84375 236.441406 641.949219 234.699219 643.894531 232.3125 C 638.546875 226.28125 629.628906 218.695312 625.207031 220.910156 C 624.492188 221.269531 623.933594 222.089844 623.550781 223.347656 C 621.144531 231.21875 626.859375 252.136719 633.050781 263.109375 C 634.816406 266.234375 637.664062 269.820312 641.535156 273.804688 L 641.535156 256.84375 C 641.535156 256.238281 641.808594 255.664062 642.277344 255.28125 C 642.746094 254.898438 643.359375 254.742188 643.953125 254.863281 C 644.25 254.921875 674.113281 260.742188 697.207031 251.375 Z M 697.207031 251.375 " fill-opacity="1" fill-rule="nonzero"/><path fill="#11003b" d="M 628.675781 322.277344 C 620.324219 311.453125 621.300781 291.757812 622.382812 285.082031 C 623.074219 280.992188 620.371094 277.109375 616.355469 276.40625 C 615.953125 276.335938 615.539062 276.300781 615.128906 276.300781 C 611.535156 276.300781 608.484375 278.917969 607.875 282.523438 C 607.347656 285.632812 603.125 313.429688 617.09375 331.535156 C 621.984375 337.878906 630.203125 342.824219 641.535156 346.265625 L 641.535156 330.496094 C 635.460938 328.230469 631.136719 325.46875 628.675781 322.277344 Z M 628.675781 322.277344 " fill-opacity="1" fill-rule="nonzero"/><path fill="#11003b" d="M 842.394531 234.195312 C 840.355469 221.078125 818.859375 223.613281 818.644531 223.640625 C 817.972656 223.722656 817.296875 223.464844 816.855469 222.953125 C 816.800781 222.886719 811.117188 216.355469 802.503906 212.421875 C 793.855469 208.472656 785.324219 208.519531 785.230469 208.511719 C 785.222656 208.511719 785.21875 208.511719 785.210938 208.511719 C 784.539062 208.511719 783.914062 208.175781 783.539062 207.621094 C 783.414062 207.4375 771.03125 189.4375 760.027344 196.566406 C 751.769531 201.917969 755.179688 221.070312 758.175781 231.613281 C 763.078125 224.882812 768.542969 219.25 774.71875 214.554688 C 775.605469 213.878906 776.875 214.050781 777.546875 214.9375 C 778.222656 215.824219 778.050781 217.09375 777.164062 217.769531 C 769.101562 223.902344 762.289062 231.746094 756.375 241.707031 C 760.902344 245.5 766.15625 248.957031 772.113281 251.371094 C 786.410156 257.171875 803.300781 257.152344 814.164062 256.28125 C 815.535156 249.070312 815.941406 242.171875 815.386719 235.25 C 815.296875 234.136719 816.125 233.164062 817.238281 233.074219 C 818.351562 232.984375 819.320312 233.8125 819.410156 234.925781 C 819.96875 241.84375 819.617188 248.726562 818.351562 255.878906 C 821.820312 255.488281 824.210938 255.074219 825.042969 254.925781 C 832.222656 250.679688 843.6875 242.5 842.394531 234.195312 Z M 842.394531 234.195312 " fill-opacity="1" fill-rule="nonzero"/><g clip-path="url(#e0938b0d43)"><path fill="#11003b" d="M 770.597656 255.117188 C 751.117188 247.214844 739.011719 229.535156 734.660156 222.199219 C 730.308594 229.535156 718.203125 247.214844 698.726562 255.117188 C 678.144531 263.46875 653.359375 260.492188 645.574219 259.25 L 645.574219 380.558594 C 645.574219 393.304688 655.160156 406.453125 672.5625 417.578125 C 689.125 428.167969 711.746094 436.148438 734.660156 439.503906 C 757.578125 436.148438 780.199219 428.167969 796.757812 417.578125 C 814.164062 406.453125 823.746094 393.304688 823.746094 380.558594 L 823.746094 259.25 C 815.96875 260.492188 791.179688 263.46875 770.597656 255.117188 Z M 779.214844 354.570312 L 751.957031 354.570312 L 751.957031 382.214844 L 717.363281 382.214844 L 717.363281 354.570312 L 690.109375 354.570312 L 690.109375 319.480469 L 717.363281 319.480469 L 717.363281 291.832031 L 751.957031 291.832031 L 751.957031 319.480469 L 779.214844 319.480469 Z M 779.214844 354.570312 " fill-opacity="1" fill-rule="nonzero"/></g><g clip-path="url(#5c9fd7cb5f)"><path fill="#11003b" d="M 848.945312 303.460938 C 848.984375 303.417969 853.269531 299.058594 853.269531 294.578125 C 853.269531 290.128906 849.457031 286.410156 849.417969 286.371094 C 848.828125 285.800781 848.632812 284.925781 848.941406 284.164062 C 849.566406 282.589844 850.902344 277.921875 849.59375 275.296875 C 848.726562 273.558594 846.621094 271.992188 844.789062 270.910156 C 844.394531 276.1875 843.261719 286.910156 840.351562 293.453125 C 837.046875 300.882812 830.171875 306.792969 827.785156 308.6875 L 827.785156 333.230469 C 829.785156 333.34375 832.71875 333.183594 834.554688 331.863281 C 836.875 330.195312 837.167969 325.089844 837.085938 323.433594 C 837.058594 322.863281 837.277344 322.308594 837.679688 321.902344 C 838.085938 321.5 838.640625 321.289062 839.214844 321.320312 C 841.199219 321.421875 846.835938 321.007812 848.902344 317.933594 C 851.03125 314.765625 849.3125 307.933594 848.46875 305.570312 C 848.207031 304.832031 848.390625 304.011719 848.945312 303.460938 Z M 848.945312 303.460938 " fill-opacity="1" fill-rule="nonzero"/></g><path fill="#7ed957" d="M 698.421875 253.851562 C 703.792969 251.671875 708.574219 248.617188 712.734375 245.234375 C 712.007812 238.242188 710.832031 232.730469 709.234375 228.855469 C 704.617188 217.648438 692.253906 200.996094 684.945312 198.257812 C 683.789062 197.828125 682.859375 197.777344 682.183594 198.117188 C 677.910156 200.253906 678.382812 211.59375 679.789062 219.269531 C 682.703125 219.164062 684.644531 219.328125 684.839844 219.347656 C 685.910156 219.445312 686.695312 220.390625 686.597656 221.457031 C 686.5 222.523438 685.554688 223.316406 684.488281 223.210938 C 684.375 223.203125 672.898438 222.234375 663.328125 227.019531 C 653.722656 231.820312 647.515625 241.636719 647.453125 241.734375 C 647.085938 242.324219 646.453125 242.648438 645.804688 242.648438 C 645.453125 242.648438 645.097656 242.550781 644.78125 242.351562 C 643.871094 241.785156 643.59375 240.585938 644.160156 239.679688 C 644.269531 239.507812 645.332031 237.832031 647.203125 235.539062 C 642.0625 229.746094 633.496094 222.457031 629.246094 224.585938 C 628.558594 224.929688 628.023438 225.714844 627.652344 226.925781 C 625.34375 234.488281 630.835938 254.585938 636.785156 265.125 C 638.480469 268.128906 641.214844 271.574219 644.933594 275.402344 L 644.933594 259.109375 C 644.933594 258.527344 645.195312 257.976562 645.644531 257.605469 C 646.097656 257.238281 646.6875 257.089844 647.257812 257.207031 C 647.542969 257.261719 676.234375 262.855469 698.421875 253.851562 Z M 698.421875 253.851562 " fill-opacity="1" fill-rule="nonzero"/><path fill="#7ed957" d="M 632.578125 321.972656 C 624.554688 311.574219 625.492188 292.652344 626.53125 286.242188 C 627.195312 282.3125 624.597656 278.578125 620.742188 277.902344 C 620.355469 277.835938 619.957031 277.804688 619.5625 277.804688 C 616.113281 277.804688 613.179688 280.316406 612.59375 283.78125 C 612.085938 286.769531 608.03125 313.472656 621.453125 330.871094 C 626.152344 336.964844 634.046875 341.714844 644.933594 345.023438 L 644.933594 329.871094 C 639.097656 327.695312 634.945312 325.042969 632.578125 321.972656 Z M 632.578125 321.972656 " fill-opacity="1" fill-rule="nonzero"/><path fill="#7ed957" d="M 837.914062 237.347656 C 835.957031 224.742188 815.304688 227.179688 815.09375 227.207031 C 814.453125 227.285156 813.804688 227.039062 813.378906 226.546875 C 813.328125 226.484375 807.867188 220.207031 799.589844 216.429688 C 791.277344 212.636719 783.082031 212.679688 782.992188 212.671875 C 782.988281 212.671875 782.980469 212.671875 782.976562 212.671875 C 782.332031 212.671875 781.726562 212.351562 781.367188 211.816406 C 781.25 211.640625 769.351562 194.34375 758.78125 201.195312 C 750.847656 206.335938 754.121094 224.738281 757 234.871094 C 761.710938 228.402344 766.960938 222.988281 772.894531 218.476562 C 773.746094 217.828125 774.964844 217.992188 775.613281 218.847656 C 776.261719 219.699219 776.09375 220.917969 775.242188 221.566406 C 767.496094 227.457031 760.953125 234.996094 755.269531 244.566406 C 759.617188 248.210938 764.667969 251.53125 770.390625 253.851562 C 784.128906 259.425781 800.355469 259.40625 810.792969 258.566406 C 812.109375 251.640625 812.5 245.011719 811.964844 238.363281 C 811.878906 237.292969 812.675781 236.359375 813.742188 236.273438 C 814.816406 236.183594 815.746094 236.980469 815.835938 238.050781 C 816.371094 244.695312 816.03125 251.308594 814.816406 258.179688 C 818.148438 257.804688 820.445312 257.410156 821.246094 257.265625 C 828.140625 253.183594 839.15625 245.328125 837.914062 237.347656 Z M 837.914062 237.347656 " fill-opacity="1" fill-rule="nonzero"/><g clip-path="url(#6ca70cd231)"><path fill="#7ed957" d="M 768.933594 257.449219 C 750.21875 249.855469 738.589844 232.867188 734.40625 225.824219 C 730.226562 232.867188 718.597656 249.855469 699.882812 257.449219 C 680.105469 265.472656 656.292969 262.613281 648.816406 261.417969 L 648.816406 377.96875 C 648.816406 390.21875 658.023438 402.847656 674.746094 413.539062 C 690.65625 423.710938 712.390625 431.382812 734.40625 434.601562 C 756.425781 431.382812 778.15625 423.710938 794.070312 413.539062 C 810.789062 402.847656 820 390.21875 820 377.96875 L 820 261.417969 C 812.523438 262.613281 788.710938 265.472656 768.933594 257.449219 Z M 777.214844 353 L 751.027344 353 L 751.027344 379.5625 L 717.789062 379.5625 L 717.789062 353 L 691.601562 353 L 691.601562 319.289062 L 717.789062 319.289062 L 717.789062 292.726562 L 751.027344 292.726562 L 751.027344 319.289062 L 777.214844 319.289062 Z M 777.214844 353 " fill-opacity="1" fill-rule="nonzero"/></g><g clip-path="url(#3dcb94b761)"><path fill="#7ed957" d="M 844.207031 303.894531 C 844.246094 303.855469 848.363281 299.667969 848.363281 295.359375 C 848.363281 291.089844 844.699219 287.515625 844.664062 287.480469 C 844.09375 286.929688 843.910156 286.089844 844.203125 285.355469 C 844.804688 283.84375 846.089844 279.359375 844.832031 276.835938 C 844 275.167969 841.976562 273.660156 840.214844 272.621094 C 839.835938 277.691406 838.75 287.996094 835.953125 294.28125 C 832.777344 301.421875 826.171875 307.097656 823.878906 308.921875 L 823.878906 332.496094 C 825.800781 332.609375 828.617188 332.453125 830.382812 331.183594 C 832.613281 329.585938 832.894531 324.679688 832.816406 323.085938 C 832.789062 322.539062 832.996094 322.003906 833.386719 321.617188 C 833.777344 321.230469 834.308594 321.027344 834.859375 321.054688 C 836.769531 321.152344 842.183594 320.753906 844.167969 317.800781 C 846.214844 314.757812 844.5625 308.195312 843.75 305.921875 C 843.5 305.214844 843.679688 304.425781 844.207031 303.894531 Z M 844.207031 303.894531 " fill-opacity="1" fill-rule="nonzero"/></g><path fill="#050405" d="M 514.132812 341.488281 C 514.132812 341.488281 507.878906 349.523438 505.375 353.453125 C 505.375 353.453125 502.695312 357.738281 507.699219 362.203125 L 510.558594 362.203125 C 510.558594 362.203125 513.953125 364.34375 510.738281 365.597656 L 507.519531 365.597656 C 507.519531 365.597656 503.5625 365.292969 498.878906 358.371094 C 498.0625 357.160156 497.632812 355.722656 497.632812 354.261719 C 497.636719 352.378906 497.765625 349.804688 498.40625 348.632812 C 498.40625 348.632812 498.789062 348.378906 498.582031 346.132812 C 498.511719 345.347656 497.800781 344.78125 497.019531 344.890625 C 494.476562 345.253906 489.15625 346.089844 487.148438 347.023438 C 487.148438 347.023438 482.855469 348.097656 481.25 356.667969 C 481.25 356.667969 480.535156 357.378906 483.035156 358.632812 C 483.035156 358.632812 485.714844 360.417969 482.679688 361.128906 L 480.175781 361.128906 C 480.175781 361.128906 476.777344 361.128906 476.957031 355.058594 C 476.957031 355.058594 478.390625 346.308594 479.820312 344.703125 L 486.96875 335.777344 L 487.007812 335.707031 C 487.855469 334.230469 488.414062 332.609375 488.691406 330.929688 C 489.152344 328.097656 490.304688 323.339844 493.042969 320.246094 C 493.042969 320.246094 470.167969 316.136719 466.238281 305.066406 C 466.238281 305.066406 463.554688 299.890625 465.785156 292.320312 C 465.9375 291.800781 466.359375 291.402344 466.609375 290.921875 C 468.105469 288.058594 473.847656 278.703125 478.921875 292.386719 C 478.921875 292.386719 479.222656 296.890625 476.246094 294.203125 C 475.78125 293.785156 475.378906 293.296875 475.027344 292.777344 C 474.121094 291.417969 471.519531 288.058594 470.429688 292.207031 C 470.371094 292.4375 470.296875 292.667969 470.214844 292.886719 C 469.308594 295.285156 464.910156 310.417969 497.152344 312.386719 C 497.152344 312.386719 511.625 310.246094 530.929688 315.066406 C 530.929688 315.066406 539.6875 317.207031 550.054688 315.066406 C 550.054688 315.066406 555.949219 312.03125 556.84375 310.246094 C 556.84375 310.246094 560.09375 305.589844 563.699219 304.683594 C 564.683594 304.4375 565.582031 303.9375 566.25 303.175781 L 569.335938 299.632812 C 569.550781 299.386719 569.949219 299.511719 569.992188 299.832031 L 570.40625 303.273438 C 570.519531 304.203125 571.101562 305.003906 571.949219 305.40625 C 573.390625 306.097656 575.492188 307.5625 575.609375 310.246094 C 575.609375 310.246094 577.574219 314.53125 579.363281 316.675781 C 579.363281 316.675781 582.042969 319.886719 578.648438 321.136719 C 578.648438 321.136719 576.859375 323.460938 573.464844 323.101562 C 573.464844 323.101562 567.03125 323.996094 565.78125 330.78125 C 565.78125 330.78125 563.8125 350.777344 579.542969 361.847656 C 579.542969 361.847656 584.902344 362.921875 579.003906 364.527344 L 576.324219 364.707031 C 576.324219 364.707031 555.949219 348.277344 554.339844 344.707031 C 554.339844 344.707031 550.410156 341.671875 544.511719 344.886719 C 544.511719 344.886719 537.542969 354.171875 536.46875 357.742188 L 536.113281 361.136719 C 536.113281 361.136719 540.402344 364.53125 536.113281 365.601562 C 536.113281 365.601562 533.433594 367.207031 532.183594 361.851562 C 532.183594 361.851562 534.550781 349.777344 534 344.660156 C 533.894531 343.699219 533.203125 342.914062 532.265625 342.675781 C 528.484375 341.714844 517.785156 339.300781 514.132812 341.488281 Z M 514.132812 341.488281 " fill-opacity="1" fill-rule="nonzero"/><g clip-path="url(#6b1b019f42)"><path stroke-linecap="butt" transform="matrix(0.239551, 0, 0, 0.239319, 464.779999, 285.015034)" fill="none" stroke-linejoin="miter" d="M 206.022274 235.975218 C 206.022274 235.975218 179.915475 269.550369 169.462971 285.97069 C 169.462971 285.97069 158.276673 303.876349 179.165373 322.532837 L 191.101773 322.532837 C 191.101773 322.532837 205.272172 331.477505 191.851875 336.716992 L 178.415271 336.716992 C 178.415271 336.716992 161.896728 335.443845 142.345166 306.520575 C 138.937095 301.460635 137.143374 295.453997 137.143374 289.349424 C 137.15968 281.482034 137.697797 270.725581 140.372072 265.828864 C 140.372072 265.828864 141.970115 264.767909 141.105867 255.382537 C 140.812349 252.101737 137.844556 249.734991 134.583244 250.192017 C 123.967675 251.709999 101.758143 255.20299 93.376573 259.104041 C 93.376573 259.104041 75.455666 263.592697 68.75367 299.404015 C 68.75367 299.404015 65.76957 302.374689 76.205767 307.614175 C 76.205767 307.614175 87.392066 315.073506 74.721871 318.044181 L 64.269367 318.044181 C 64.269367 318.044181 50.082662 318.044181 50.832763 292.679191 C 50.832763 292.679191 56.81727 256.117044 62.78547 249.408543 L 92.626471 212.111888 L 92.789537 211.818085 C 96.32806 205.648223 98.659897 198.874432 99.817663 191.855806 C 101.741837 180.022075 106.552271 160.141408 117.983168 147.214077 C 117.983168 147.214077 22.491966 130.042926 6.087569 83.785281 C 6.087569 83.785281 -5.115036 62.158118 4.196008 30.525332 C 4.831964 28.354454 6.593072 26.689571 7.636692 24.681917 C 13.882104 12.717607 37.852744 -26.37451 59.034962 30.802812 C 59.034962 30.802812 60.290567 49.622524 47.86497 38.392722 C 45.92449 36.646227 44.244914 34.605928 42.777324 32.435051 C 38.994203 26.75486 28.134035 12.717607 23.584505 30.051982 C 23.339907 31.015003 23.030083 31.978024 22.687645 32.892078 C 18.904523 42.914023 0.543339 106.146951 135.137667 114.373434 C 135.137667 114.373434 195.553464 105.428766 276.140472 125.570592 C 276.140472 125.570592 312.699775 134.51526 355.977379 125.570592 C 355.977379 125.570592 380.583975 112.888097 384.318176 105.428766 C 384.318176 105.428766 397.885232 85.972481 412.936185 82.185687 C 417.045438 81.157376 420.795946 79.068111 423.584367 75.885245 L 436.466548 61.08084 C 437.363409 60.05253 439.026678 60.574846 439.20605 61.913282 L 440.934545 76.293305 C 441.407435 80.178033 443.837112 83.524123 447.375635 85.205328 C 453.392755 88.094391 462.165683 94.215286 462.65488 105.428766 C 462.65488 105.428766 470.857078 123.334425 478.325482 132.295415 C 478.325482 132.295415 489.51178 145.712417 475.341382 150.935581 C 475.341382 150.935581 467.872978 160.647402 453.70258 159.145742 C 453.70258 159.145742 426.845679 162.883569 421.62758 191.235555 C 421.62758 191.235555 413.409075 274.789855 479.075583 321.0475 C 479.075583 321.0475 501.448181 325.536156 476.825278 332.244658 L 465.63898 332.995487 C 465.63898 332.995487 380.583975 264.343527 373.865673 249.424865 C 373.865673 249.424865 357.461276 236.742371 332.838373 250.175695 C 332.838373 250.175695 303.747474 288.974009 299.263171 303.892671 L 297.779274 318.076826 C 297.779274 318.076826 315.683875 332.26098 297.779274 336.733314 C 297.779274 336.733314 286.592976 343.441815 281.374877 321.063822 C 281.374877 321.063822 291.256651 270.611324 288.957426 249.228997 C 288.517149 245.213689 285.630889 241.93289 281.717315 240.937224 C 265.932567 236.921917 221.268905 226.834682 206.022274 235.975218 Z M 206.022274 235.975218 " stroke="#050405" stroke-width="1" stroke-opacity="1" stroke-miterlimit="10"/></g><g clip-path="url(#ce3509e92b)"><g clip-path="url(#0e437550fe)"><g clip-path="url(#93d0bb7cfc)"><path fill="#7ed957" d="M 1131.746094 344.6875 C 1134.511719 352.128906 1132.347656 359.804688 1126.90625 361.824219 C 1121.472656 363.847656 1114.816406 359.453125 1112.050781 352.015625 C 1109.28125 344.570312 1111.445312 336.898438 1116.886719 334.875 C 1122.324219 332.851562 1128.976562 337.246094 1131.746094 344.6875 Z M 1176.8125 397.109375 C 1174.402344 397.160156 1172.070312 396.742188 1169.824219 395.859375 C 1167.578125 394.980469 1165.585938 393.699219 1163.851562 392.023438 C 1163.53125 391.71875 1163.1875 391.445312 1162.816406 391.207031 C 1162.445312 390.96875 1162.050781 390.765625 1161.640625 390.605469 C 1161.230469 390.445312 1160.804688 390.324219 1160.371094 390.246094 C 1159.933594 390.167969 1159.496094 390.132812 1159.054688 390.140625 C 1158.613281 390.148438 1158.175781 390.199219 1157.742188 390.296875 C 1157.3125 390.390625 1156.894531 390.523438 1156.488281 390.703125 C 1156.082031 390.878906 1155.699219 391.09375 1155.335938 391.347656 C 1154.972656 391.597656 1154.640625 391.882812 1154.332031 392.203125 C 1153.917969 392.632812 1153.484375 393.039062 1153.03125 393.425781 C 1152.578125 393.8125 1152.105469 394.175781 1151.617188 394.515625 C 1151.128906 394.855469 1150.625 395.171875 1150.105469 395.460938 C 1149.582031 395.753906 1149.050781 396.019531 1148.503906 396.257812 C 1147.957031 396.496094 1147.402344 396.707031 1146.835938 396.890625 C 1146.269531 397.074219 1145.691406 397.226562 1145.109375 397.355469 C 1144.527344 397.480469 1143.941406 397.582031 1143.351562 397.648438 C 1142.757812 397.71875 1142.164062 397.757812 1141.570312 397.769531 C 1140.972656 397.78125 1140.378906 397.765625 1139.785156 397.714844 C 1139.191406 397.667969 1138.601562 397.59375 1138.011719 397.488281 C 1137.425781 397.382812 1136.847656 397.25 1136.273438 397.085938 C 1135.699219 396.921875 1135.136719 396.734375 1134.582031 396.515625 C 1134.027344 396.296875 1133.484375 396.054688 1132.953125 395.78125 C 1132.421875 395.511719 1131.90625 395.214844 1131.40625 394.894531 C 1130.902344 394.570312 1130.417969 394.226562 1129.953125 393.855469 C 1129.484375 393.488281 1129.035156 393.097656 1128.605469 392.683594 C 1128.175781 392.269531 1127.769531 391.835938 1127.382812 391.382812 C 1126.996094 390.929688 1126.632812 390.457031 1126.292969 389.96875 C 1125.953125 389.480469 1125.636719 388.972656 1125.347656 388.453125 C 1125.054688 387.933594 1124.792969 387.402344 1124.554688 386.855469 C 1124.316406 386.308594 1124.105469 385.753906 1123.921875 385.183594 C 1123.738281 384.617188 1123.582031 384.042969 1123.453125 383.460938 C 1123.328125 382.878906 1123.230469 382.292969 1123.160156 381.699219 C 1123.089844 381.109375 1123.050781 380.515625 1123.039062 379.917969 C 1123.027344 379.324219 1123.046875 378.730469 1123.09375 378.132812 C 1123.140625 377.539062 1123.214844 376.949219 1123.320312 376.363281 C 1123.425781 375.777344 1123.5625 375.199219 1123.722656 374.625 C 1123.886719 374.050781 1124.074219 373.488281 1124.292969 372.933594 C 1124.511719 372.378906 1124.753906 371.835938 1125.027344 371.304688 C 1125.296875 370.773438 1125.59375 370.257812 1125.914062 369.753906 C 1126.238281 369.253906 1126.582031 368.769531 1126.953125 368.300781 C 1127.320312 367.835938 1127.714844 367.386719 1128.125 366.957031 C 1129.105469 365.9375 1130.132812 364.972656 1131.207031 364.054688 C 1132.28125 363.140625 1133.398438 362.277344 1134.558594 361.472656 C 1135.71875 360.664062 1136.914062 359.917969 1138.144531 359.226562 C 1139.378906 358.539062 1140.640625 357.910156 1141.9375 357.347656 C 1143.230469 356.78125 1144.550781 356.28125 1145.894531 355.84375 C 1147.238281 355.410156 1148.597656 355.042969 1149.980469 354.742188 C 1151.359375 354.4375 1152.75 354.207031 1154.152344 354.042969 C 1155.554688 353.875 1156.960938 353.78125 1158.375 353.753906 C 1159.785156 353.726562 1161.195312 353.769531 1162.605469 353.882812 C 1164.011719 353.996094 1165.410156 354.175781 1166.800781 354.425781 C 1168.191406 354.675781 1169.566406 354.992188 1170.925781 355.378906 C 1172.285156 355.761719 1173.621094 356.210938 1174.933594 356.730469 C 1176.25 357.246094 1177.535156 357.824219 1178.792969 358.46875 C 1180.050781 359.109375 1181.273438 359.8125 1182.460938 360.574219 C 1183.652344 361.339844 1184.800781 362.15625 1185.90625 363.03125 C 1187.015625 363.910156 1188.078125 364.835938 1189.09375 365.816406 C 1189.738281 366.4375 1190.335938 367.101562 1190.882812 367.8125 C 1191.425781 368.519531 1191.917969 369.265625 1192.355469 370.042969 C 1192.792969 370.824219 1193.167969 371.636719 1193.484375 372.472656 C 1193.804688 373.308594 1194.058594 374.164062 1194.25 375.039062 C 1194.4375 375.910156 1194.566406 376.796875 1194.625 377.6875 C 1194.6875 378.582031 1194.679688 379.472656 1194.609375 380.363281 C 1194.539062 381.257812 1194.402344 382.136719 1194.203125 383.011719 C 1194 383.882812 1193.738281 384.734375 1193.410156 385.566406 C 1193.082031 386.398438 1192.695312 387.203125 1192.25 387.980469 C 1191.804688 388.757812 1191.304688 389.496094 1190.75 390.199219 C 1190.195312 390.898438 1189.59375 391.558594 1188.941406 392.171875 C 1188.289062 392.785156 1187.597656 393.34375 1186.863281 393.855469 C 1186.128906 394.367188 1185.359375 394.820312 1184.558594 395.21875 C 1183.757812 395.617188 1182.929688 395.953125 1182.078125 396.230469 C 1181.226562 396.503906 1180.359375 396.714844 1179.480469 396.863281 C 1178.597656 397.011719 1177.707031 397.09375 1176.8125 397.109375 Z M 1156.140625 331.777344 C 1157.164062 340.796875 1152.648438 348.714844 1146.058594 349.464844 C 1139.46875 350.210938 1133.292969 343.503906 1132.269531 334.484375 C 1131.246094 325.46875 1135.757812 317.550781 1142.351562 316.800781 C 1148.941406 316.054688 1155.113281 322.757812 1156.140625 331.777344 Z M 1159.785156 331.707031 C 1159.101562 340.757812 1163.90625 348.503906 1170.523438 349.003906 C 1177.136719 349.507812 1183.054688 342.574219 1183.738281 333.523438 C 1184.425781 324.472656 1179.621094 316.730469 1173.003906 316.226562 C 1166.390625 315.726562 1160.472656 322.65625 1159.785156 331.707031 Z M 1184.644531 343.699219 C 1182.15625 351.238281 1184.609375 358.828125 1190.117188 360.640625 C 1195.628906 362.460938 1202.113281 357.820312 1204.601562 350.28125 C 1207.089844 342.742188 1204.640625 335.15625 1199.128906 333.335938 C 1193.617188 331.519531 1187.132812 336.160156 1184.644531 343.699219 Z M 1184.644531 343.699219 " fill-opacity="1" fill-rule="nonzero"/></g></g></g><g clip-path="url(#6f0c438ff7)"><g clip-path="url(#e5a966fcb5)"><g clip-path="url(#ffdb68f5e6)"><path fill="#5019dd" d="M 1134.785156 345.613281 C 1137.265625 352.285156 1135.324219 359.164062 1130.449219 360.976562 C 1125.574219 362.789062 1119.609375 358.851562 1117.128906 352.179688 C 1114.644531 345.507812 1116.585938 338.628906 1121.464844 336.816406 C 1126.339844 335.003906 1132.304688 338.941406 1134.785156 345.613281 Z M 1175.191406 392.613281 C 1173.027344 392.65625 1170.9375 392.28125 1168.925781 391.492188 C 1166.910156 390.703125 1165.125 389.554688 1163.570312 388.050781 C 1163.285156 387.777344 1162.976562 387.53125 1162.640625 387.320312 C 1162.308594 387.105469 1161.957031 386.925781 1161.585938 386.78125 C 1161.21875 386.636719 1160.839844 386.527344 1160.449219 386.457031 C 1160.058594 386.386719 1159.664062 386.355469 1159.269531 386.363281 C 1158.875 386.371094 1158.480469 386.417969 1158.09375 386.503906 C 1157.707031 386.585938 1157.332031 386.707031 1156.96875 386.867188 C 1156.605469 387.023438 1156.261719 387.21875 1155.9375 387.445312 C 1155.609375 387.671875 1155.308594 387.925781 1155.035156 388.210938 C 1154.664062 388.597656 1154.277344 388.960938 1153.871094 389.308594 C 1153.464844 389.65625 1153.039062 389.980469 1152.601562 390.285156 C 1152.164062 390.589844 1151.710938 390.875 1151.246094 391.136719 C 1150.777344 391.394531 1150.300781 391.632812 1149.808594 391.847656 C 1149.320312 392.058594 1148.820312 392.25 1148.3125 392.414062 C 1147.804688 392.578125 1147.289062 392.71875 1146.769531 392.832031 C 1146.246094 392.945312 1145.71875 393.035156 1145.191406 393.097656 C 1144.660156 393.15625 1144.125 393.195312 1143.59375 393.203125 C 1143.058594 393.214844 1142.523438 393.199219 1141.992188 393.15625 C 1141.460938 393.113281 1140.929688 393.042969 1140.40625 392.949219 C 1139.878906 392.855469 1139.359375 392.734375 1138.84375 392.589844 C 1138.332031 392.445312 1137.824219 392.273438 1137.328125 392.078125 C 1136.832031 391.882812 1136.34375 391.664062 1135.867188 391.421875 C 1135.394531 391.179688 1134.929688 390.914062 1134.480469 390.625 C 1134.03125 390.335938 1133.597656 390.027344 1133.175781 389.695312 C 1132.757812 389.363281 1132.355469 389.011719 1131.972656 388.644531 C 1131.585938 388.273438 1131.222656 387.882812 1130.875 387.476562 C 1130.527344 387.070312 1130.203125 386.648438 1129.898438 386.210938 C 1129.59375 385.769531 1129.308594 385.316406 1129.046875 384.851562 C 1128.789062 384.386719 1128.550781 383.90625 1128.335938 383.417969 C 1128.125 382.929688 1127.933594 382.429688 1127.769531 381.921875 C 1127.605469 381.414062 1127.464844 380.898438 1127.351562 380.375 C 1127.238281 379.855469 1127.148438 379.328125 1127.085938 378.796875 C 1127.023438 378.265625 1126.988281 377.734375 1126.980469 377.199219 C 1126.96875 376.664062 1126.984375 376.132812 1127.027344 375.601562 C 1127.070312 375.066406 1127.140625 374.539062 1127.234375 374.011719 C 1127.328125 373.488281 1127.449219 372.964844 1127.59375 372.453125 C 1127.738281 371.9375 1127.910156 371.433594 1128.105469 370.933594 C 1128.300781 370.4375 1128.519531 369.953125 1128.761719 369.476562 C 1129.003906 369 1129.269531 368.539062 1129.558594 368.085938 C 1129.847656 367.636719 1130.15625 367.203125 1130.488281 366.785156 C 1130.820312 366.363281 1131.171875 365.964844 1131.539062 365.578125 C 1132.417969 364.667969 1133.339844 363.800781 1134.304688 362.976562 C 1135.265625 362.15625 1136.269531 361.382812 1137.308594 360.660156 C 1138.347656 359.9375 1139.417969 359.265625 1140.523438 358.648438 C 1141.628906 358.03125 1142.761719 357.46875 1143.921875 356.960938 C 1145.082031 356.457031 1146.265625 356.007812 1147.46875 355.617188 C 1148.675781 355.226562 1149.894531 354.894531 1151.132812 354.625 C 1152.371094 354.355469 1153.617188 354.148438 1154.875 354 C 1156.132812 353.851562 1157.394531 353.765625 1158.660156 353.742188 C 1159.925781 353.71875 1161.1875 353.757812 1162.453125 353.855469 C 1163.714844 353.957031 1164.96875 354.121094 1166.214844 354.34375 C 1167.460938 354.566406 1168.691406 354.851562 1169.910156 355.195312 C 1171.128906 355.542969 1172.328125 355.945312 1173.507812 356.410156 C 1174.683594 356.871094 1175.839844 357.390625 1176.964844 357.96875 C 1178.09375 358.542969 1179.191406 359.171875 1180.253906 359.855469 C 1181.320312 360.539062 1182.351562 361.277344 1183.34375 362.0625 C 1184.335938 362.84375 1185.289062 363.675781 1186.203125 364.554688 C 1186.777344 365.113281 1187.3125 365.707031 1187.804688 366.34375 C 1188.292969 366.980469 1188.734375 367.648438 1189.125 368.347656 C 1189.515625 369.046875 1189.855469 369.773438 1190.136719 370.523438 C 1190.421875 371.273438 1190.648438 372.039062 1190.820312 372.824219 C 1190.992188 373.605469 1191.105469 374.398438 1191.160156 375.199219 C 1191.214844 376 1191.210938 376.800781 1191.144531 377.597656 C 1191.082031 378.398438 1190.960938 379.1875 1190.78125 379.972656 C 1190.601562 380.753906 1190.363281 381.515625 1190.070312 382.261719 C 1189.777344 383.011719 1189.429688 383.730469 1189.03125 384.425781 C 1188.632812 385.121094 1188.183594 385.785156 1187.6875 386.414062 C 1187.1875 387.042969 1186.648438 387.632812 1186.0625 388.183594 C 1185.480469 388.734375 1184.859375 389.238281 1184.199219 389.695312 C 1183.542969 390.152344 1182.851562 390.558594 1182.132812 390.917969 C 1181.414062 391.273438 1180.675781 391.574219 1179.910156 391.820312 C 1179.148438 392.070312 1178.371094 392.257812 1177.582031 392.390625 C 1176.789062 392.523438 1175.992188 392.597656 1175.191406 392.613281 Z M 1156.65625 334.039062 C 1157.574219 342.125 1153.527344 349.222656 1147.617188 349.894531 C 1141.707031 350.566406 1136.171875 344.554688 1135.253906 336.464844 C 1134.335938 328.382812 1138.382812 321.285156 1144.292969 320.613281 C 1150.203125 319.941406 1155.734375 325.953125 1156.65625 334.039062 Z M 1159.925781 333.976562 C 1159.308594 342.089844 1163.617188 349.035156 1169.550781 349.484375 C 1175.480469 349.933594 1180.785156 343.71875 1181.398438 335.605469 C 1182.015625 327.488281 1177.707031 320.546875 1171.777344 320.097656 C 1165.847656 319.648438 1160.539062 325.863281 1159.925781 333.976562 Z M 1182.210938 344.726562 C 1179.980469 351.484375 1182.179688 358.289062 1187.121094 359.917969 C 1192.058594 361.546875 1197.871094 357.386719 1200.105469 350.628906 C 1202.332031 343.867188 1200.136719 337.066406 1195.195312 335.4375 C 1190.253906 333.808594 1184.441406 337.964844 1182.210938 344.726562 Z M 1182.210938 344.726562 " fill-opacity="1" fill-rule="nonzero"/></g></g></g><path stroke-linecap="butt" transform="matrix(0.75, 0, 0, 0.75, 204.106374, 310.654574)" fill="none" stroke-linejoin="miter" d="M 65.748797 176.153285 C 81.993589 176.153285 102.004007 172.57516 111.613383 168.965785 C 113.243591 168.16891 114.712341 166.382451 114.550883 164.122035 C 114.035258 152.564742 113.717549 141.168908 112.925883 129.611616 C 112.566508 124.726199 108.519632 124.090783 106.254007 126.872033 C 95.64984 137.595992 84.295673 141.642867 70.477964 141.642867 C 54.83213 141.642867 44.743588 134.814741 44.743588 120.200157 C 44.743588 101.65849 53.36338 91.887656 68.48838 91.887656 C 80.045673 91.887656 88.186298 96.09599 95.175882 103.12724 C 97.639424 105.866823 101.050882 105.069948 101.530049 101.340781 C 102.483174 94.153281 103.790465 80.012655 104.785257 72.866822 C 105.102966 70.564738 104.467549 68.460571 102.321715 67.30953 C 92.910257 62.62203 81.358173 59.840779 66.227964 59.840779 C 28.186295 59.840779 2.13421 84.424114 2.13421 122.622033 C 2.13421 162.132451 28.342545 176.153285 65.748797 176.153285 Z M 170.629011 175.63766 C 185.75922 175.63766 212.920679 175.63766 223.837347 175.002244 C 226.42068 174.840785 228.207138 172.892868 228.050888 170.434535 C 227.73318 160.028284 226.57693 137.434533 225.467555 126.872033 C 225.149847 122.148074 220.10818 121.314741 217.806096 125.085574 C 209.504012 138.06995 200.889429 142.31995 184.129011 142.31995 C 169.993594 142.31995 162.84776 136.75745 162.84776 125.877241 C 162.686302 105.069948 166.576927 89.106406 171.462344 66.512655 C 172.097761 63.892863 169.832135 61.470988 166.894635 61.153279 C 161.69151 60.674113 157.326927 60.476196 151.290468 60.476196 C 142.670676 60.476196 136.321717 60.476196 129.649842 61.153279 C 127.227967 61.470988 125.28005 62.783488 124.920675 65.205363 C 122.660258 90.418906 121.03005 133.543908 120.712341 170.273077 C 120.712341 172.892868 122.816508 174.840785 125.441508 175.002244 C 134.21755 175.63766 158.915468 175.63766 170.629011 175.63766 Z M 259.436307 54.325154 C 262.535265 54.325154 264.639432 53.330362 266.587349 51.064737 L 279.134224 37.247028 C 282.707141 33.830361 281.238391 30.059528 275.879016 30.059528 L 262.852973 30.059528 C 259.436307 30.059528 257.17589 31.372028 255.70714 34.309528 L 249.352973 47.174112 C 247.087348 51.226196 248.873806 54.325154 253.759223 54.325154 Z M 256.181098 175.63766 C 260.587348 175.63766 269.681099 175.476202 274.248807 175.002244 C 276.670683 174.684535 278.972766 172.892868 278.972766 170.116827 C 278.972766 131.080366 277.347766 89.465781 275.201932 65.361613 C 275.045682 63.101196 273.254016 61.627238 270.832141 61.153279 C 266.941515 60.674113 259.915473 60.476196 256.342556 60.476196 C 252.92589 60.476196 245.618598 60.674113 241.566514 61.153279 C 239.108181 61.627238 237.321722 63.101196 237.160264 65.361613 C 235.056097 89.465781 233.587347 131.080366 233.587347 170.116827 C 233.587347 172.892868 235.691514 174.684535 238.155056 175.002244 C 242.681097 175.476202 251.972765 175.63766 256.181098 175.63766 Z M 382.394646 176.309535 C 394.587355 176.309535 398.837355 166.70016 398.675897 154.033492 C 398.519647 117.736616 396.57173 87.002239 394.587355 65.361613 C 394.269647 62.939738 392.32173 61.470988 389.899855 61.153279 C 385.493605 60.674113 378.983188 60.476196 375.248812 60.476196 C 371.358187 60.476196 364.842562 60.674113 360.75402 61.153279 C 357.696728 61.627238 355.550895 64.09078 356.227978 67.148071 C 358.806103 80.012655 362.384228 107.491823 355.91027 107.491823 C 348.243603 107.491823 333.951935 80.012655 327.118602 67.663696 C 323.707143 63.257446 321.082143 61.627238 316.358185 61.153279 C 313.102976 60.674113 308.733184 60.476196 305.957142 60.476196 C 303.535267 60.476196 297.019642 60.674113 294.238392 61.153279 C 291.816517 61.627238 290.030058 62.939738 289.873808 65.361613 C 287.571725 89.465781 285.3061 131.080366 285.3061 170.116827 C 285.3061 172.736618 287.410266 174.523077 290.030058 175.002244 C 295.076933 175.63766 302.540475 175.63766 306.790476 175.63766 C 311.316518 175.63766 319.774851 175.63766 324.660268 175.002244 C 327.597768 174.523077 329.858185 172.736618 329.384227 169.48141 C 328.74881 161.976201 326.764435 147.840784 326.764435 139.220992 C 326.920685 132.075158 328.233185 126.872033 331.488394 126.872033 C 343.045686 126.872033 355.394645 176.309535 382.394646 176.309535 Z M 427.76444 175.63766 C 432.175899 175.63766 441.269649 175.476202 445.832149 175.002244 C 448.259233 174.684535 450.561316 172.892868 450.561316 170.116827 C 450.561316 131.080366 448.931108 89.465781 446.785274 65.361613 C 446.629024 63.101196 444.842566 61.627238 442.420691 61.153279 C 438.530066 60.674113 431.498815 60.476196 427.925898 60.476196 C 424.509232 60.476196 417.20194 60.674113 413.155064 61.153279 C 410.691523 61.627238 408.905064 63.101196 408.743606 65.361613 C 406.639439 89.465781 405.170689 131.080366 405.170689 170.116827 C 405.170689 172.892868 407.274856 174.684535 409.738398 175.002244 C 414.264439 175.476202 423.556107 175.63766 427.76444 175.63766 Z M 519.352986 176.153285 C 535.597779 176.153285 555.608197 172.57516 565.217572 168.965785 C 566.84778 168.16891 568.316531 166.382451 568.160281 164.122035 C 567.639447 152.564742 567.321739 141.168908 566.530072 129.611616 C 566.170697 124.726199 562.123822 124.090783 559.858197 126.872033 C 549.25403 137.595992 537.899862 141.642867 524.082153 141.642867 C 508.436319 141.642867 498.347777 134.814741 498.347777 120.200157 C 498.347777 101.65849 506.967569 91.887656 522.09257 91.887656 C 533.649862 91.887656 541.790488 96.09599 548.780071 103.12724 C 551.243613 105.866823 554.655071 105.069948 555.134238 101.340781 C 556.087363 94.153281 557.394655 80.012655 558.389447 72.866822 C 558.707155 70.564738 558.071738 68.460571 555.925905 67.30953 C 546.514446 62.62203 534.962362 59.840779 519.832153 59.840779 C 481.790484 59.840779 455.7384 84.424114 455.7384 122.622033 C 455.7384 162.132451 481.946735 176.153285 519.352986 176.153285 Z M 593.655073 175.63766 C 598.701949 175.63766 608.311324 175.476202 613.191533 175.002244 C 615.457158 174.684535 617.561325 172.892868 617.405075 170.273077 C 616.925908 164.757451 617.087366 158.241826 617.759241 153.674117 C 618.712366 147.997034 623.915492 145.575159 629.634242 145.418909 L 635.790492 145.418909 C 641.665493 145.575159 646.868618 147.679325 647.821743 153.674117 C 648.337368 158.403284 648.493618 164.913701 648.17591 170.116827 C 647.821743 172.892868 649.962368 174.684535 652.227993 175.002244 C 656.951952 175.476202 666.045702 175.63766 670.295702 175.63766 C 674.665494 175.63766 684.27487 175.476202 688.998828 175.002244 C 691.738412 174.840785 693.52487 172.736618 692.889453 169.955368 C 686.217578 130.762658 671.727994 87.997031 660.368618 63.892863 C 659.691535 62.262655 658.222785 61.470988 656.436327 61.153279 C 650.123826 60.476196 638.566534 60.476196 632.530075 60.476196 C 626.379033 60.476196 615.13945 60.476196 609.102991 61.153279 C 607.316532 61.470988 605.889449 62.262655 605.212366 63.892863 C 593.816532 87.997031 579.201948 130.762658 572.530072 169.799118 C 571.858197 172.57516 573.681114 174.684535 576.582156 175.002244 C 580.988406 175.319952 589.129032 175.63766 593.655073 175.63766 Z M 631.259242 129.611616 C 626.217575 129.455366 623.597783 127.033491 624.748825 122.939741 C 625.863408 114.997032 628.004034 104.913698 629.95195 96.773073 C 631.57695 91.569948 633.842575 91.569948 635.311326 96.773073 C 637.415492 104.913698 639.717576 114.997032 640.670701 122.939741 C 641.826951 127.033491 639.363409 129.455366 634.321742 129.611616 Z M 793.056125 175.63766 C 808.181126 175.63766 835.342586 175.63766 846.264461 175.002244 C 848.847795 174.840785 850.634253 172.892868 850.472795 170.434535 C 850.155086 160.028284 849.004045 137.434533 847.89467 126.872033 C 847.576961 122.148074 842.530086 121.314741 840.228003 125.085574 C 831.931127 138.06995 823.311335 142.31995 806.556126 142.31995 C 792.420708 142.31995 785.269666 136.75745 785.269666 125.877241 C 785.113416 105.069948 789.004042 89.106406 793.889459 66.512655 C 794.524875 63.892863 792.25925 61.470988 789.32175 61.153279 C 784.118625 60.674113 779.754041 60.476196 773.717583 60.476196 C 765.09779 60.476196 758.743623 60.476196 752.071748 61.153279 C 749.649873 61.470988 747.707165 62.783488 747.34779 65.205363 C 745.087373 90.418906 743.457164 133.543908 743.139456 170.273077 C 743.139456 172.892868 745.243623 174.840785 747.863415 175.002244 C 756.639457 175.63766 781.337375 175.63766 793.056125 175.63766 Z M 914.743631 176.309535 C 950.519675 176.309535 974.743634 162.809535 974.743634 122.939741 C 974.743634 83.590781 950.681133 59.840779 914.743631 59.840779 C 878.925921 60.002238 854.701962 83.590781 854.701962 122.939741 C 854.701962 162.809535 879.123838 176.309535 914.743631 176.309535 Z M 914.743631 142.955367 C 904.655089 142.955367 897.629047 136.960575 897.629047 121.314741 C 897.629047 105.549115 904.300922 93.200156 914.743631 93.200156 C 925.144673 93.200156 931.816549 105.387657 931.816549 121.314741 C 931.816549 136.960575 924.826965 142.955367 914.743631 142.955367 Z M 1042.405096 176.153285 C 1058.649889 176.153285 1078.660306 172.57516 1088.269682 168.965785 C 1089.89989 168.16891 1091.36864 166.382451 1091.21239 164.122035 C 1090.691557 152.564742 1090.373848 141.168908 1089.582182 129.611616 C 1089.222807 124.726199 1085.175932 124.090783 1082.910306 126.872033 C 1072.306139 137.595992 1060.951972 141.642867 1047.134263 141.642867 C 1031.488429 141.642867 1021.399887 134.814741 1021.399887 120.200157 C 1021.399887 101.65849 1030.019679 91.887656 1045.14468 91.887656 C 1056.701972 91.887656 1064.842597 96.09599 1071.832181 103.12724 C 1074.295723 105.866823 1077.707181 105.069948 1078.186348 101.340781 C 1079.139473 94.153281 1080.446765 80.012655 1081.441556 72.866822 C 1081.759265 70.564738 1081.123848 68.460571 1078.978015 67.30953 C 1069.566556 62.62203 1058.014472 59.840779 1042.884263 59.840779 C 1004.842594 59.840779 978.79051 84.424114 978.79051 122.622033 C 978.79051 162.132451 1004.998844 176.153285 1042.405096 176.153285 Z M 1149.431143 176.309535 C 1178.535311 176.309535 1211.056146 169.319952 1211.056146 146.689742 C 1211.056146 133.543908 1198.550937 119.845991 1171.863436 114.799115 C 1168.608227 113.84599 1168.769686 111.585574 1171.863436 110.434532 C 1193.50927 106.184532 1205.540521 95.142864 1205.540521 82.955364 C 1205.540521 67.663696 1189.733228 60.319946 1159.514477 60.319946 C 1140.613434 60.319946 1124.056142 60.158488 1105.826974 61.153279 C 1103.368641 61.309529 1101.780099 62.939738 1101.582182 65.205363 C 1099.472807 89.267864 1097.36864 130.762658 1097.36864 169.63766 C 1097.36864 172.377243 1099.472807 174.840785 1102.415516 175.002244 C 1113.134266 175.63766 1137.556142 176.309535 1149.431143 176.309535 Z M 1144.228018 107.174115 C 1141.446768 107.653282 1139.504059 106.538698 1139.504059 103.762657 C 1139.342601 99.512656 1139.342601 94.986614 1139.504059 90.736614 C 1139.504059 88.153281 1141.129059 86.684531 1144.030101 86.684531 C 1145.858226 86.528281 1148.59781 86.528281 1150.899893 86.528281 C 1159.832185 86.528281 1164.561352 89.106406 1164.561352 94.470989 C 1164.561352 99.710573 1159.514477 105.069948 1144.228018 107.174115 Z M 1144.863435 145.892867 C 1141.446768 145.892867 1139.504059 144.106409 1139.504059 140.689742 C 1139.342601 135.486617 1139.342601 130.2887 1139.504059 125.085574 C 1139.504059 121.986616 1141.290518 120.200157 1144.384268 120.835574 C 1159.832185 122.783491 1168.608227 128.299116 1168.608227 135.330367 C 1168.608227 142.158492 1163.087394 146.054325 1154.47281 146.054325 C 1151.69156 146.054325 1147.644685 146.054325 1144.863435 145.892867 Z M 1274.993649 176.309535 C 1310.769693 176.309535 1334.993652 162.809535 1334.993652 122.939741 C 1334.993652 83.590781 1310.925943 59.840779 1274.993649 59.840779 C 1239.170731 60.002238 1214.95198 83.590781 1214.95198 122.939741 C 1214.95198 162.809535 1239.373856 176.309535 1274.993649 176.309535 Z M 1274.993649 142.955367 C 1264.905107 142.955367 1257.873857 136.960575 1257.873857 121.314741 C 1257.873857 105.549115 1264.545732 93.200156 1274.993649 93.200156 C 1285.394692 93.200156 1292.066567 105.387657 1292.066567 121.314741 C 1292.066567 136.960575 1285.076983 142.955367 1274.993649 142.955367 Z M 1394.675947 175.63766 C 1399.556156 175.63766 1409.170739 175.476202 1413.696781 175.002244 C 1416.155115 174.684535 1418.42074 172.892868 1418.103032 170.434535 C 1416.634282 157.606409 1414.368656 144.898075 1411.431156 128.9762 C 1410.957198 127.189741 1411.113448 125.720991 1413.061365 125.241824 C 1432.556157 120.361616 1447.530116 92.882448 1449.98845 66.830363 C 1450.306158 63.892863 1448.5197 61.627238 1445.420741 61.153279 C 1440.540533 60.476196 1433.550949 60.476196 1429.144699 60.476196 C 1424.774907 60.476196 1414.847823 60.674113 1409.962406 61.153279 C 1407.379073 61.627238 1405.394698 63.418905 1405.394698 66.194946 C 1405.238448 81.960572 1400.550947 107.809532 1394.19678 107.97099 C 1387.842613 107.97099 1383.118655 82.122031 1382.800946 66.194946 C 1382.962405 63.418905 1381.014488 61.470988 1378.233238 61.153279 C 1373.030113 60.674113 1363.103029 60.476196 1358.894695 60.476196 C 1354.488445 60.476196 1347.498861 60.674113 1342.972819 61.153279 C 1339.873861 61.627238 1338.087403 63.892863 1338.248861 66.830363 C 1340.191569 93.038698 1355.800945 120.361616 1375.493654 125.241824 C 1377.441571 125.720991 1377.597821 127.189741 1377.280113 128.81995 C 1374.186363 144.898075 1371.920738 157.767868 1370.290529 170.434535 C 1370.134279 172.892868 1372.238446 174.684535 1374.660321 175.002244 C 1379.701988 175.476202 1389.472822 175.63766 1394.675947 175.63766 Z M 1394.675947 175.63766 " stroke="#7ed957" stroke-width="12.199275" stroke-opacity="1" stroke-miterlimit="4"/><g fill="#5019dd" fill-opacity="1"><g transform="translate(204.129811, 441.904567)"><g><path d="M 49.28125 0.855469 C 61.480469 0.855469 76.484375 -1.828125 83.683594 -4.511719 C 84.902344 -5.125 86 -6.464844 85.878906 -8.171875 C 85.511719 -16.835938 85.269531 -25.375 84.660156 -34.035156 C 84.414062 -37.695312 81.367188 -38.183594 79.65625 -36.109375 C 71.730469 -28.058594 63.191406 -25.007812 52.820312 -25.007812 C 41.109375 -25.007812 33.546875 -30.132812 33.546875 -41.109375 C 33.546875 -55.015625 40.011719 -62.335938 51.355469 -62.335938 C 60.019531 -62.335938 66.117188 -59.164062 71.363281 -53.917969 C 73.191406 -51.84375 75.753906 -52.453125 76.121094 -55.261719 C 76.851562 -60.628906 77.828125 -71.242188 78.558594 -76.609375 C 78.804688 -78.316406 78.316406 -79.902344 76.730469 -80.753906 C 69.65625 -84.292969 60.992188 -86.367188 49.648438 -86.367188 C 21.105469 -86.367188 1.585938 -67.945312 1.585938 -39.28125 C 1.585938 -9.636719 21.226562 0.855469 49.28125 0.855469 Z M 49.28125 0.855469 "/></g></g></g><g fill="#5019dd" fill-opacity="1"><g transform="translate(292.19968, 441.904567)"><g><path d="M 39.890625 0.488281 C 51.234375 0.488281 71.605469 0.488281 79.78125 0 C 81.730469 -0.121094 83.074219 -1.585938 82.953125 -3.414062 C 82.707031 -11.222656 81.855469 -28.179688 81 -36.109375 C 80.753906 -39.644531 76.972656 -40.257812 75.265625 -37.449219 C 69.046875 -27.691406 62.578125 -24.519531 50.015625 -24.519531 C 39.402344 -24.519531 34.035156 -28.667969 34.035156 -36.839844 C 33.914062 -52.453125 36.839844 -64.410156 40.5 -81.367188 C 40.988281 -83.316406 39.28125 -85.148438 37.085938 -85.390625 C 33.179688 -85.757812 29.886719 -85.878906 25.375 -85.878906 C 18.90625 -85.878906 14.152344 -85.878906 9.148438 -85.390625 C 7.320312 -85.148438 5.855469 -84.171875 5.613281 -82.339844 C 3.902344 -63.433594 2.683594 -31.105469 2.441406 -3.539062 C 2.441406 -1.585938 4.027344 -0.121094 5.976562 0 C 12.566406 0.488281 31.105469 0.488281 39.890625 0.488281 Z M 39.890625 0.488281 "/></g></g></g><g fill="#5019dd" fill-opacity="1"><g transform="translate(376.854095, 441.904567)"><g><path d="M 21.835938 -90.515625 C 24.152344 -90.515625 25.738281 -91.246094 27.203125 -92.953125 L 36.597656 -103.324219 C 39.28125 -105.886719 38.183594 -108.691406 34.15625 -108.691406 L 24.398438 -108.691406 C 21.835938 -108.691406 20.128906 -107.714844 19.03125 -105.519531 L 14.273438 -95.882812 C 12.566406 -92.832031 13.90625 -90.515625 17.566406 -90.515625 Z M 19.394531 0.488281 C 22.691406 0.488281 29.519531 0.367188 32.9375 0 C 34.765625 -0.242188 36.472656 -1.585938 36.472656 -3.660156 C 36.472656 -32.9375 35.253906 -64.164062 33.667969 -82.21875 C 33.546875 -83.925781 32.203125 -85.023438 30.375 -85.390625 C 27.445312 -85.757812 22.203125 -85.878906 19.519531 -85.878906 C 16.957031 -85.878906 11.46875 -85.757812 8.417969 -85.390625 C 6.585938 -85.023438 5.246094 -83.925781 5.125 -82.21875 C 3.539062 -64.164062 2.441406 -32.9375 2.441406 -3.660156 C 2.441406 -1.585938 4.027344 -0.242188 5.855469 0 C 9.269531 0.367188 16.222656 0.488281 19.394531 0.488281 Z M 19.394531 0.488281 "/></g></g></g><g fill="#5019dd" fill-opacity="1"><g transform="translate(415.643854, 441.904567)"><g><path d="M 75.265625 0.976562 C 84.414062 0.976562 87.585938 -6.222656 87.464844 -15.738281 C 87.34375 -42.941406 85.878906 -65.996094 84.414062 -82.21875 C 84.171875 -84.050781 82.707031 -85.148438 80.878906 -85.390625 C 77.585938 -85.757812 72.703125 -85.878906 69.898438 -85.878906 C 66.972656 -85.878906 62.089844 -85.757812 59.042969 -85.390625 C 56.722656 -85.023438 55.136719 -83.195312 55.625 -80.878906 C 57.578125 -71.242188 60.261719 -50.625 55.382812 -50.625 C 49.648438 -50.625 38.914062 -71.242188 33.789062 -80.511719 C 31.230469 -83.804688 29.277344 -85.023438 25.738281 -85.390625 C 23.300781 -85.757812 20.007812 -85.878906 17.933594 -85.878906 C 16.101562 -85.878906 11.222656 -85.757812 9.148438 -85.390625 C 7.320312 -85.023438 5.976562 -84.050781 5.855469 -82.21875 C 4.148438 -64.164062 2.441406 -32.9375 2.441406 -3.660156 C 2.441406 -1.707031 4.027344 -0.367188 5.976562 0 C 9.757812 0.488281 15.371094 0.488281 18.542969 0.488281 C 21.957031 0.488281 28.300781 0.488281 31.960938 0 C 34.15625 -0.367188 35.863281 -1.707031 35.5 -4.148438 C 35.011719 -9.757812 33.546875 -20.371094 33.546875 -26.835938 C 33.667969 -32.203125 34.644531 -36.109375 37.085938 -36.109375 C 45.746094 -36.109375 55.015625 0.976562 75.265625 0.976562 Z M 75.265625 0.976562 "/></g></g></g><g fill="#5019dd" fill-opacity="1"><g transform="translate(505.543416, 441.904567)"><g><path d="M 19.394531 0.488281 C 22.691406 0.488281 29.519531 0.367188 32.9375 0 C 34.765625 -0.242188 36.472656 -1.585938 36.472656 -3.660156 C 36.472656 -32.9375 35.253906 -64.164062 33.667969 -82.21875 C 33.546875 -83.925781 32.203125 -85.023438 30.375 -85.390625 C 27.445312 -85.757812 22.203125 -85.878906 19.519531 -85.878906 C 16.957031 -85.878906 11.46875 -85.757812 8.417969 -85.390625 C 6.585938 -85.023438 5.246094 -83.925781 5.125 -82.21875 C 3.539062 -64.164062 2.441406 -32.9375 2.441406 -3.660156 C 2.441406 -1.585938 4.027344 -0.242188 5.855469 0 C 9.269531 0.367188 16.222656 0.488281 19.394531 0.488281 Z M 19.394531 0.488281 "/></g></g></g><g fill="#5019dd" fill-opacity="1"><g transform="translate(544.333186, 441.904567)"><g><path d="M 49.28125 0.855469 C 61.480469 0.855469 76.484375 -1.828125 83.683594 -4.511719 C 84.902344 -5.125 86 -6.464844 85.878906 -8.171875 C 85.511719 -16.835938 85.269531 -25.375 84.660156 -34.035156 C 84.414062 -37.695312 81.367188 -38.183594 79.65625 -36.109375 C 71.730469 -28.058594 63.191406 -25.007812 52.820312 -25.007812 C 41.109375 -25.007812 33.546875 -30.132812 33.546875 -41.109375 C 33.546875 -55.015625 40.011719 -62.335938 51.355469 -62.335938 C 60.019531 -62.335938 66.117188 -59.164062 71.363281 -53.917969 C 73.191406 -51.84375 75.753906 -52.453125 76.121094 -55.261719 C 76.851562 -60.628906 77.828125 -71.242188 78.558594 -76.609375 C 78.804688 -78.316406 78.316406 -79.902344 76.730469 -80.753906 C 69.65625 -84.292969 60.992188 -86.367188 49.648438 -86.367188 C 21.105469 -86.367188 1.585938 -67.945312 1.585938 -39.28125 C 1.585938 -9.636719 21.226562 0.855469 49.28125 0.855469 Z M 49.28125 0.855469 "/></g></g></g><g fill="#5019dd" fill-opacity="1"><g transform="translate(632.403044, 441.904567)"><g><path d="M 16.957031 0.488281 C 20.738281 0.488281 27.933594 0.367188 31.59375 0 C 33.300781 -0.242188 34.886719 -1.585938 34.765625 -3.539062 C 34.402344 -7.683594 34.523438 -12.566406 35.011719 -15.980469 C 35.742188 -20.25 39.644531 -22.078125 43.914062 -22.203125 L 48.550781 -22.203125 C 52.941406 -22.078125 56.847656 -20.492188 57.578125 -15.980469 C 57.945312 -12.441406 58.066406 -7.5625 57.820312 -3.660156 C 57.578125 -1.585938 59.164062 -0.242188 60.871094 0 C 64.410156 0.367188 71.242188 0.488281 74.414062 0.488281 C 77.707031 0.488281 84.902344 0.367188 88.441406 0 C 90.515625 -0.121094 91.855469 -1.707031 91.367188 -3.78125 C 86.367188 -33.179688 75.511719 -65.261719 66.972656 -83.316406 C 66.484375 -84.539062 65.386719 -85.148438 64.042969 -85.390625 C 59.285156 -85.878906 50.625 -85.878906 46.109375 -85.878906 C 41.476562 -85.878906 33.058594 -85.878906 28.546875 -85.390625 C 27.203125 -85.148438 26.105469 -84.539062 25.617188 -83.316406 C 17.078125 -65.261719 6.097656 -33.179688 1.097656 -3.902344 C 0.609375 -1.828125 1.953125 -0.242188 4.148438 0 C 7.441406 0.242188 13.539062 0.488281 16.957031 0.488281 Z M 45.136719 -34.035156 C 41.355469 -34.15625 39.402344 -35.984375 40.257812 -39.035156 C 41.109375 -45.011719 42.695312 -52.578125 44.160156 -58.675781 C 45.378906 -62.578125 47.085938 -62.578125 48.183594 -58.675781 C 49.769531 -52.578125 51.480469 -45.011719 52.210938 -39.035156 C 53.066406 -35.984375 51.234375 -34.15625 47.453125 -34.035156 Z M 45.136719 -34.035156 "/></g></g></g><g fill="#5019dd" fill-opacity="1"><g transform="translate(724.864206, 441.904567)"><g/></g></g><g fill="#5019dd" fill-opacity="1"><g transform="translate(759.01873, 441.904567)"><g><path d="M 39.890625 0.488281 C 51.234375 0.488281 71.605469 0.488281 79.78125 0 C 81.730469 -0.121094 83.074219 -1.585938 82.953125 -3.414062 C 82.707031 -11.222656 81.855469 -28.179688 81 -36.109375 C 80.753906 -39.644531 76.972656 -40.257812 75.265625 -37.449219 C 69.046875 -27.691406 62.578125 -24.519531 50.015625 -24.519531 C 39.402344 -24.519531 34.035156 -28.667969 34.035156 -36.839844 C 33.914062 -52.453125 36.839844 -64.410156 40.5 -81.367188 C 40.988281 -83.316406 39.28125 -85.148438 37.085938 -85.390625 C 33.179688 -85.757812 29.886719 -85.878906 25.375 -85.878906 C 18.90625 -85.878906 14.152344 -85.878906 9.148438 -85.390625 C 7.320312 -85.148438 5.855469 -84.171875 5.613281 -82.339844 C 3.902344 -63.433594 2.683594 -31.105469 2.441406 -3.539062 C 2.441406 -1.585938 4.027344 -0.121094 5.976562 0 C 12.566406 0.488281 31.105469 0.488281 39.890625 0.488281 Z M 39.890625 0.488281 "/></g></g></g><g fill="#5019dd" fill-opacity="1"><g transform="translate(843.673145, 441.904567)"><g><path d="M 46.476562 0.976562 C 73.316406 0.976562 91.492188 -9.148438 91.492188 -39.035156 C 91.492188 -68.558594 73.4375 -86.367188 46.476562 -86.367188 C 19.640625 -86.246094 1.464844 -68.558594 1.464844 -39.035156 C 1.464844 -9.148438 19.761719 0.976562 46.476562 0.976562 Z M 46.476562 -24.03125 C 38.914062 -24.03125 33.667969 -28.546875 33.667969 -40.257812 C 33.667969 -52.089844 38.671875 -61.359375 46.476562 -61.359375 C 54.285156 -61.359375 59.285156 -52.210938 59.285156 -40.257812 C 59.285156 -28.546875 54.039062 -24.03125 46.476562 -24.03125 Z M 46.476562 -24.03125 "/></g></g></g><g fill="#5019dd" fill-opacity="1"><g transform="translate(936.622237, 441.904567)"><g><path d="M 49.28125 0.855469 C 61.480469 0.855469 76.484375 -1.828125 83.683594 -4.511719 C 84.902344 -5.125 86 -6.464844 85.878906 -8.171875 C 85.511719 -16.835938 85.269531 -25.375 84.660156 -34.035156 C 84.414062 -37.695312 81.367188 -38.183594 79.65625 -36.109375 C 71.730469 -28.058594 63.191406 -25.007812 52.820312 -25.007812 C 41.109375 -25.007812 33.546875 -30.132812 33.546875 -41.109375 C 33.546875 -55.015625 40.011719 -62.335938 51.355469 -62.335938 C 60.019531 -62.335938 66.117188 -59.164062 71.363281 -53.917969 C 73.191406 -51.84375 75.753906 -52.453125 76.121094 -55.261719 C 76.851562 -60.628906 77.828125 -71.242188 78.558594 -76.609375 C 78.804688 -78.316406 78.316406 -79.902344 76.730469 -80.753906 C 69.65625 -84.292969 60.992188 -86.367188 49.648438 -86.367188 C 21.105469 -86.367188 1.585938 -67.945312 1.585938 -39.28125 C 1.585938 -9.636719 21.226562 0.855469 49.28125 0.855469 Z M 49.28125 0.855469 "/></g></g></g><g fill="#5019dd" fill-opacity="1"><g transform="translate(1024.692118, 441.904567)"><g><path d="M 41.476562 0.976562 C 63.3125 0.976562 87.710938 -4.269531 87.710938 -21.226562 C 87.710938 -31.105469 78.316406 -41.355469 58.308594 -45.136719 C 55.871094 -45.867188 55.992188 -47.574219 58.308594 -48.429688 C 74.535156 -51.601562 83.5625 -59.894531 83.5625 -69.046875 C 83.5625 -80.511719 71.730469 -86 49.039062 -86 C 34.886719 -86 22.445312 -86.125 8.78125 -85.390625 C 6.953125 -85.269531 5.734375 -84.050781 5.613281 -82.339844 C 4.027344 -64.289062 2.441406 -33.179688 2.441406 -4.027344 C 2.441406 -1.953125 4.027344 -0.121094 6.222656 0 C 14.273438 0.488281 32.570312 0.976562 41.476562 0.976562 Z M 37.570312 -50.867188 C 35.5 -50.503906 34.035156 -51.355469 34.035156 -53.429688 C 33.914062 -56.601562 33.914062 -60.019531 34.035156 -63.191406 C 34.035156 -65.140625 35.253906 -66.238281 37.449219 -66.238281 C 38.792969 -66.359375 40.867188 -66.359375 42.574219 -66.359375 C 49.28125 -66.359375 52.820312 -64.410156 52.820312 -60.382812 C 52.820312 -56.480469 49.039062 -52.453125 37.570312 -50.867188 Z M 38.058594 -21.835938 C 35.5 -21.835938 34.035156 -23.175781 34.035156 -25.738281 C 33.914062 -29.644531 33.914062 -33.546875 34.035156 -37.449219 C 34.035156 -39.769531 35.375 -41.109375 37.695312 -40.621094 C 49.28125 -39.15625 55.871094 -35.011719 55.871094 -29.765625 C 55.871094 -24.640625 51.722656 -21.714844 45.257812 -21.714844 C 43.183594 -21.714844 40.132812 -21.714844 38.058594 -21.835938 Z M 38.058594 -21.835938 "/></g></g></g><g fill="#5019dd" fill-opacity="1"><g transform="translate(1113.859808, 441.904567)"><g><path d="M 46.476562 0.976562 C 73.316406 0.976562 91.492188 -9.148438 91.492188 -39.035156 C 91.492188 -68.558594 73.4375 -86.367188 46.476562 -86.367188 C 19.640625 -86.246094 1.464844 -68.558594 1.464844 -39.035156 C 1.464844 -9.148438 19.761719 0.976562 46.476562 0.976562 Z M 46.476562 -24.03125 C 38.914062 -24.03125 33.667969 -28.546875 33.667969 -40.257812 C 33.667969 -52.089844 38.671875 -61.359375 46.476562 -61.359375 C 54.285156 -61.359375 59.285156 -52.210938 59.285156 -40.257812 C 59.285156 -28.546875 54.039062 -24.03125 46.476562 -24.03125 Z M 46.476562 -24.03125 "/></g></g></g><g fill="#5019dd" fill-opacity="1"><g transform="translate(1206.8089, 441.904567)"><g><path d="M 43.304688 0.488281 C 46.964844 0.488281 54.164062 0.367188 57.578125 0 C 59.40625 -0.242188 61.117188 -1.585938 60.871094 -3.414062 C 59.773438 -13.050781 58.066406 -22.566406 55.871094 -34.523438 C 55.503906 -35.863281 55.625 -36.960938 57.089844 -37.328125 C 71.730469 -40.988281 82.953125 -61.605469 84.78125 -81.121094 C 85.023438 -83.316406 83.683594 -85.023438 81.367188 -85.390625 C 77.707031 -85.878906 72.460938 -85.878906 69.167969 -85.878906 C 65.875 -85.878906 58.433594 -85.757812 54.773438 -85.390625 C 52.820312 -85.023438 51.355469 -83.683594 51.355469 -81.609375 C 51.234375 -69.777344 47.695312 -50.378906 42.941406 -50.257812 C 38.183594 -50.257812 34.644531 -69.65625 34.402344 -81.609375 C 34.523438 -83.683594 33.058594 -85.148438 30.984375 -85.390625 C 27.082031 -85.757812 19.640625 -85.878906 16.46875 -85.878906 C 13.175781 -85.878906 7.929688 -85.757812 4.511719 -85.390625 C 2.195312 -85.023438 0.855469 -83.316406 0.976562 -81.121094 C 2.441406 -61.480469 14.152344 -40.988281 28.910156 -37.328125 C 30.375 -36.960938 30.496094 -35.863281 30.253906 -34.644531 C 27.933594 -22.566406 26.226562 -12.929688 25.007812 -3.414062 C 24.886719 -1.585938 26.472656 -0.242188 28.300781 0 C 32.082031 0.367188 39.402344 0.488281 43.304688 0.488281 Z M 43.304688 0.488281 "/></g></g></g><g clip-path="url(#6106dd2c8e)"><g clip-path="url(#e1c08dd90c)"><g clip-path="url(#35e4b65ef5)"><path fill="#7ed957" d="M 175.285156 348.023438 C 181.996094 352.269531 184.914062 359.691406 181.808594 364.59375 C 178.707031 369.492188 170.75 370.023438 164.042969 365.777344 C 157.335938 361.527344 154.414062 354.109375 157.519531 349.207031 C 160.625 344.304688 168.578125 343.777344 175.285156 348.023438 Z M 242.894531 362.472656 C 241 363.972656 238.894531 365.050781 236.574219 365.707031 C 234.25 366.367188 231.894531 366.554688 229.496094 366.269531 C 229.058594 366.21875 228.617188 366.210938 228.175781 366.246094 C 227.734375 366.28125 227.304688 366.359375 226.878906 366.476562 C 226.453125 366.597656 226.042969 366.757812 225.648438 366.960938 C 225.253906 367.160156 224.886719 367.398438 224.539062 367.671875 C 224.191406 367.949219 223.875 368.253906 223.589844 368.589844 C 223.300781 368.925781 223.050781 369.285156 222.835938 369.671875 C 222.621094 370.058594 222.445312 370.460938 222.308594 370.882812 C 222.171875 371.304688 222.078125 371.734375 222.027344 372.171875 C 221.957031 372.765625 221.859375 373.351562 221.734375 373.933594 C 221.605469 374.515625 221.449219 375.089844 221.265625 375.65625 C 221.082031 376.222656 220.871094 376.78125 220.636719 377.328125 C 220.398438 377.875 220.132812 378.40625 219.84375 378.925781 C 219.550781 379.449219 219.234375 379.953125 218.894531 380.441406 C 218.554688 380.929688 218.191406 381.402344 217.804688 381.855469 C 217.417969 382.308594 217.011719 382.742188 216.582031 383.15625 C 216.152344 383.570312 215.707031 383.960938 215.238281 384.332031 C 214.769531 384.699219 214.285156 385.046875 213.785156 385.367188 C 213.28125 385.691406 212.765625 385.988281 212.238281 386.257812 C 211.707031 386.527344 211.164062 386.773438 210.609375 386.992188 C 210.054688 387.207031 209.488281 387.398438 208.917969 387.5625 C 208.34375 387.722656 207.761719 387.859375 207.175781 387.964844 C 206.589844 388.070312 206 388.144531 205.40625 388.191406 C 204.8125 388.242188 204.21875 388.257812 203.621094 388.246094 C 203.027344 388.238281 202.433594 388.195312 201.839844 388.128906 C 201.25 388.058594 200.660156 387.960938 200.078125 387.832031 C 199.496094 387.707031 198.921875 387.550781 198.355469 387.367188 C 197.789062 387.183594 197.230469 386.972656 196.6875 386.734375 C 196.140625 386.496094 195.605469 386.230469 195.085938 385.941406 C 194.566406 385.652344 194.0625 385.335938 193.570312 384.996094 C 193.082031 384.65625 192.609375 384.292969 192.15625 383.90625 C 191.703125 383.519531 191.269531 383.113281 190.855469 382.683594 C 190.445312 382.253906 190.050781 381.804688 189.683594 381.339844 C 189.3125 380.871094 188.96875 380.386719 188.644531 379.882812 C 188.324219 379.382812 188.027344 378.867188 187.753906 378.335938 C 187.484375 377.804688 187.238281 377.261719 187.023438 376.707031 C 186.804688 376.152344 186.613281 375.589844 186.453125 375.015625 C 186.289062 374.445312 186.15625 373.863281 186.050781 373.277344 C 185.945312 372.691406 185.867188 372.101562 185.820312 371.507812 C 185.773438 370.914062 185.753906 370.316406 185.765625 369.722656 C 185.777344 369.125 185.816406 368.53125 185.886719 367.941406 C 186.050781 366.539062 186.28125 365.144531 186.582031 363.765625 C 186.882812 362.386719 187.25 361.023438 187.683594 359.679688 C 188.121094 358.335938 188.617188 357.015625 189.183594 355.722656 C 189.746094 354.429688 190.371094 353.164062 191.0625 351.929688 C 191.75 350.699219 192.496094 349.5 193.304688 348.339844 C 194.109375 347.179688 194.96875 346.0625 195.886719 344.988281 C 196.800781 343.914062 197.765625 342.886719 198.785156 341.90625 C 199.800781 340.925781 200.863281 339.996094 201.972656 339.121094 C 203.078125 338.246094 204.226562 337.425781 205.417969 336.664062 C 206.605469 335.902344 207.828125 335.199219 209.085938 334.554688 C 210.34375 333.914062 211.628906 333.332031 212.945312 332.816406 C 214.257812 332.300781 215.59375 331.851562 216.953125 331.464844 C 218.3125 331.082031 219.6875 330.761719 221.078125 330.511719 C 222.46875 330.261719 223.867188 330.082031 225.273438 329.96875 C 226.683594 329.859375 228.089844 329.816406 229.503906 329.839844 C 230.914062 329.867188 232.324219 329.964844 233.726562 330.128906 C 234.613281 330.230469 235.492188 330.398438 236.355469 330.632812 C 237.21875 330.867188 238.058594 331.164062 238.878906 331.519531 C 239.699219 331.878906 240.492188 332.292969 241.25 332.765625 C 242.007812 333.242188 242.726562 333.769531 243.410156 334.347656 C 244.089844 334.929688 244.726562 335.554688 245.3125 336.230469 C 245.902344 336.902344 246.4375 337.617188 246.921875 338.371094 C 247.40625 339.121094 247.832031 339.90625 248.199219 340.722656 C 248.566406 341.539062 248.871094 342.375 249.117188 343.238281 C 249.359375 344.097656 249.539062 344.972656 249.65625 345.859375 C 249.769531 346.746094 249.820312 347.636719 249.800781 348.53125 C 249.785156 349.425781 249.703125 350.316406 249.554688 351.199219 C 249.410156 352.082031 249.199219 352.945312 248.921875 353.796875 C 248.644531 354.648438 248.308594 355.476562 247.914062 356.277344 C 247.515625 357.078125 247.0625 357.847656 246.550781 358.582031 C 246.039062 359.316406 245.476562 360.011719 244.863281 360.660156 C 244.253906 361.3125 243.59375 361.917969 242.894531 362.472656 Z M 186.890625 322.980469 C 193.164062 329.539062 194.363281 338.574219 189.570312 343.160156 C 184.777344 347.746094 175.800781 346.144531 169.527344 339.585938 C 163.253906 333.027344 162.054688 323.996094 166.847656 319.40625 C 171.640625 314.824219 180.613281 316.421875 186.890625 322.980469 Z M 189.75 320.71875 C 194.683594 328.339844 203.195312 331.59375 208.765625 327.988281 C 214.332031 324.382812 214.847656 315.285156 209.914062 307.664062 C 204.984375 300.042969 196.472656 296.789062 190.902344 300.394531 C 185.335938 304 184.816406 313.097656 189.75 320.71875 Z M 216.796875 315.214844 C 219.378906 322.722656 225.921875 327.28125 231.410156 325.390625 C 236.894531 323.5 239.25 315.882812 236.667969 308.375 C 234.082031 300.867188 227.539062 296.3125 222.050781 298.203125 C 216.566406 300.089844 214.210938 307.707031 216.796875 315.214844 Z M 216.796875 315.214844 " fill-opacity="1" fill-rule="nonzero"/></g></g></g><path fill="#000000" d="M 991.1875 360.652344 C 1006.054688 361.828125 1005.820312 354.308594 1005.820312 354.308594 C 1015.710938 348.042969 1008.234375 335.90625 1008.234375 335.90625 C 1009.714844 321.964844 1006.988281 316.636719 1006.988281 316.636719 C 1008.234375 305.59375 1004.886719 302.777344 1004.886719 302.777344 C 1001.460938 289.539062 996.324219 289.304688 996.324219 289.304688 C 995.546875 287.894531 993.597656 286.5625 991.964844 286.015625 C 990.328125 285.46875 990.5625 289.070312 990.5625 289.070312 C 982.933594 284.761719 982.542969 286.015625 982.542969 286.015625 C 983.480469 286.796875 984.878906 291.8125 984.878906 291.8125 C 981.066406 295.335938 981.453125 303.871094 981.453125 303.871094 C 983.867188 307.003906 985.269531 307.082031 985.269531 307.082031 C 985.269531 307.082031 983.480469 312.253906 984.335938 315.621094 C 984.335938 315.621094 967.984375 340.210938 977.875 357.519531 C 977.875 357.519531 968.21875 366.683594 958.878906 363.394531 C 949.535156 360.105469 958.878906 344.128906 958.878906 344.128906 C 958.878906 344.128906 959.90625 340.382812 956.230469 343.03125 C 950.15625 347.417969 946.03125 368.21875 955.871094 369.550781 C 983.230469 373.261719 985.90625 360.230469 991.1875 360.652344 Z M 991.1875 360.652344 " fill-opacity="1" fill-rule="nonzero"/><g clip-path="url(#dfcfe9a5fe)"><g clip-path="url(#d9e192ba3b)"><g clip-path="url(#285da3eeec)"><path fill="#5019dd" d="M 178.265625 346.921875 C 184.28125 350.726562 186.898438 357.378906 184.113281 361.773438 C 181.332031 366.167969 174.199219 366.644531 168.1875 362.835938 C 162.171875 359.027344 159.554688 352.375 162.335938 347.980469 C 165.121094 343.585938 172.253906 343.109375 178.265625 346.921875 Z M 238.878906 359.871094 C 237.183594 361.214844 235.292969 362.183594 233.210938 362.773438 C 231.128906 363.363281 229.015625 363.53125 226.867188 363.277344 C 226.472656 363.230469 226.078125 363.222656 225.683594 363.253906 C 225.289062 363.285156 224.902344 363.355469 224.519531 363.464844 C 224.136719 363.570312 223.769531 363.714844 223.417969 363.898438 C 223.066406 364.078125 222.734375 364.289062 222.421875 364.535156 C 222.109375 364.78125 221.828125 365.054688 221.570312 365.355469 C 221.3125 365.660156 221.089844 365.984375 220.894531 366.328125 C 220.703125 366.675781 220.542969 367.035156 220.421875 367.414062 C 220.300781 367.789062 220.21875 368.175781 220.171875 368.570312 C 220.109375 369.101562 220.019531 369.625 219.90625 370.148438 C 219.792969 370.671875 219.652344 371.1875 219.488281 371.695312 C 219.324219 372.203125 219.136719 372.703125 218.921875 373.191406 C 218.710938 373.679688 218.472656 374.160156 218.210938 374.625 C 217.953125 375.089844 217.667969 375.542969 217.363281 375.984375 C 217.058594 376.421875 216.734375 376.84375 216.386719 377.25 C 216.039062 377.65625 215.675781 378.046875 215.289062 378.417969 C 214.90625 378.789062 214.503906 379.140625 214.085938 379.46875 C 213.664062 379.800781 213.230469 380.109375 212.78125 380.398438 C 212.332031 380.6875 211.867188 380.953125 211.394531 381.199219 C 210.917969 381.441406 210.429688 381.660156 209.933594 381.855469 C 209.4375 382.050781 208.929688 382.222656 208.417969 382.367188 C 207.902344 382.511719 207.382812 382.632812 206.855469 382.726562 C 206.332031 382.820312 205.800781 382.890625 205.269531 382.933594 C 204.738281 382.976562 204.203125 382.992188 203.667969 382.980469 C 203.136719 382.972656 202.601562 382.9375 202.074219 382.875 C 201.542969 382.8125 201.015625 382.722656 200.492188 382.609375 C 199.972656 382.496094 199.457031 382.355469 198.949219 382.191406 C 198.441406 382.027344 197.941406 381.839844 197.453125 381.625 C 196.960938 381.410156 196.484375 381.175781 196.015625 380.914062 C 195.550781 380.652344 195.097656 380.371094 194.660156 380.066406 C 194.222656 379.761719 193.796875 379.4375 193.390625 379.089844 C 192.984375 378.742188 192.597656 378.378906 192.226562 377.992188 C 191.855469 377.609375 191.503906 377.207031 191.171875 376.785156 C 190.839844 376.367188 190.53125 375.933594 190.242188 375.484375 C 189.953125 375.035156 189.6875 374.570312 189.445312 374.097656 C 189.203125 373.621094 188.984375 373.132812 188.789062 372.636719 C 188.59375 372.140625 188.421875 371.632812 188.277344 371.121094 C 188.128906 370.605469 188.011719 370.085938 187.914062 369.558594 C 187.820312 369.035156 187.753906 368.503906 187.710938 367.972656 C 187.667969 367.441406 187.652344 366.90625 187.660156 366.371094 C 187.671875 365.839844 187.707031 365.304688 187.769531 364.773438 C 187.914062 363.519531 188.125 362.269531 188.394531 361.03125 C 188.664062 359.796875 188.992188 358.574219 189.382812 357.371094 C 189.769531 356.164062 190.21875 354.984375 190.722656 353.820312 C 191.230469 352.660156 191.792969 351.527344 192.410156 350.421875 C 193.027344 349.316406 193.695312 348.242188 194.417969 347.203125 C 195.140625 346.164062 195.914062 345.164062 196.734375 344.199219 C 197.554688 343.234375 198.421875 342.3125 199.332031 341.433594 C 200.246094 340.554688 201.195312 339.722656 202.191406 338.9375 C 203.183594 338.152344 204.210938 337.417969 205.277344 336.734375 C 206.34375 336.050781 207.441406 335.421875 208.566406 334.84375 C 209.695312 334.269531 210.847656 333.75 212.027344 333.285156 C 213.207031 332.824219 214.402344 332.417969 215.621094 332.074219 C 216.839844 331.730469 218.074219 331.445312 219.320312 331.21875 C 220.566406 330.996094 221.820312 330.835938 223.082031 330.734375 C 224.34375 330.632812 225.609375 330.59375 226.875 330.617188 C 228.140625 330.640625 229.402344 330.726562 230.660156 330.875 C 231.457031 330.96875 232.242188 331.121094 233.015625 331.328125 C 233.789062 331.539062 234.546875 331.800781 235.28125 332.121094 C 236.015625 332.441406 236.722656 332.816406 237.402344 333.242188 C 238.085938 333.664062 238.730469 334.136719 239.339844 334.660156 C 239.953125 335.179688 240.519531 335.742188 241.046875 336.34375 C 241.574219 336.949219 242.054688 337.589844 242.488281 338.265625 C 242.921875 338.9375 243.304688 339.640625 243.632812 340.375 C 243.964844 341.105469 244.238281 341.855469 244.457031 342.628906 C 244.675781 343.398438 244.835938 344.183594 244.941406 344.980469 C 245.042969 345.773438 245.085938 346.574219 245.074219 347.375 C 245.058594 348.175781 244.984375 348.972656 244.851562 349.765625 C 244.71875 350.554688 244.53125 351.332031 244.28125 352.097656 C 244.035156 352.859375 243.734375 353.601562 243.378906 354.320312 C 243.023438 355.039062 242.613281 355.726562 242.15625 356.386719 C 241.699219 357.042969 241.195312 357.664062 240.644531 358.25 C 240.097656 358.835938 239.507812 359.375 238.878906 359.871094 Z M 188.667969 324.46875 C 194.292969 330.347656 195.371094 338.449219 191.074219 342.558594 C 186.773438 346.671875 178.730469 345.234375 173.101562 339.355469 C 167.480469 333.472656 166.402344 325.375 170.703125 321.261719 C 174.996094 317.152344 183.042969 318.585938 188.667969 324.46875 Z M 191.234375 322.441406 C 195.65625 329.269531 203.289062 332.191406 208.28125 328.957031 C 213.273438 325.726562 213.734375 317.566406 209.3125 310.734375 C 204.890625 303.902344 197.257812 300.984375 192.265625 304.21875 C 187.273438 307.449219 186.8125 315.609375 191.234375 322.441406 Z M 215.480469 317.507812 C 217.796875 324.234375 223.664062 328.320312 228.582031 326.625 C 233.5 324.933594 235.609375 318.105469 233.296875 311.375 C 230.976562 304.644531 225.113281 300.558594 220.191406 302.25 C 215.273438 303.945312 213.164062 310.773438 215.480469 317.507812 Z M 215.480469 317.507812 " fill-opacity="1" fill-rule="nonzero"/></g></g></g></svg>