<svg xmlns="http://www.w3.org/2000/svg" xmlns:xlink="http://www.w3.org/1999/xlink" width="50" zoomAndPan="magnify" viewBox="0 0 37.5 37.499999" height="50" preserveAspectRatio="xMidYMid meet" version="1.0"><defs><clipPath id="d33c14c555"><path d="M 1.035156 4 L 37 4 L 37 31.824219 L 1.035156 31.824219 Z M 1.035156 4 " clip-rule="nonzero"/></clipPath></defs><g clip-path="url(#d33c14c555)"><path fill="#000000" d="M 27.59375 31.824219 C 26.925781 31.824219 26.257812 31.773438 25.597656 31.671875 C 24.394531 31.484375 23.203125 31.167969 22.609375 30.132812 C 22.035156 29.132812 22.148438 27.652344 22.945312 25.605469 C 23.023438 25.40625 23.128906 25.164062 23.253906 24.882812 C 24.085938 23.003906 25.820312 19.097656 25.101562 13.347656 C 25.09375 13.257812 25.15625 13.179688 25.242188 13.167969 C 25.332031 13.15625 25.414062 13.21875 25.425781 13.308594 C 26.152344 19.148438 24.394531 23.109375 23.550781 25.015625 C 23.429688 25.292969 23.320312 25.53125 23.246094 25.722656 C 22.496094 27.644531 22.378906 29.074219 22.890625 29.96875 C 23.417969 30.886719 24.527344 31.175781 25.648438 31.351562 C 27.851562 31.695312 30.117188 31.445312 32.195312 30.632812 C 33.210938 30.230469 34.335938 29.726562 34.753906 28.765625 C 38.410156 20.425781 34.335938 10.992188 28.464844 7.035156 C 26.988281 6.039062 24.171875 5.050781 21.917969 4.734375 C 16.953125 4.042969 13.5625 6.996094 11.980469 8.816406 C 11.53125 9.335938 11.121094 9.90625 10.722656 10.460938 C 10.019531 11.429688 9.296875 12.4375 8.339844 13.199219 C 6.757812 14.457031 4.832031 14.824219 3.5 14.910156 C 2.882812 14.949219 2.328125 15.234375 1.9375 15.707031 C 1.546875 16.183594 1.375 16.78125 1.453125 17.390625 C 1.667969 19.074219 2.527344 20.597656 3.804688 21.5625 C 5.25 22.652344 7.144531 23.058594 8.816406 23.417969 C 10.511719 23.785156 12.4375 24.199219 13.941406 25.359375 C 15.375 26.464844 16.414062 28.53125 15.632812 30.355469 C 15.597656 30.4375 15.5 30.472656 15.417969 30.4375 C 15.335938 30.402344 15.300781 30.308594 15.335938 30.226562 C 16.042969 28.574219 15.046875 26.617188 13.746094 25.617188 C 12.296875 24.5 10.410156 24.09375 8.746094 23.738281 C 7.042969 23.371094 5.109375 22.953125 3.613281 21.824219 C 2.261719 20.804688 1.355469 19.203125 1.132812 17.429688 C 1.042969 16.730469 1.238281 16.046875 1.6875 15.503906 C 2.136719 14.957031 2.773438 14.632812 3.476562 14.585938 C 4.765625 14.503906 6.621094 14.152344 8.136719 12.945312 C 9.058594 12.210938 9.769531 11.222656 10.457031 10.269531 C 10.863281 9.710938 11.277344 9.132812 11.738281 8.605469 C 13.359375 6.730469 16.847656 3.699219 21.960938 4.414062 C 24.257812 4.734375 27.132812 5.746094 28.648438 6.765625 C 34.625 10.796875 38.773438 20.402344 35.050781 28.894531 C 34.582031 29.96875 33.390625 30.511719 32.3125 30.933594 C 30.804688 31.523438 29.203125 31.824219 27.59375 31.824219 Z M 27.59375 31.824219 " fill-opacity="1" fill-rule="nonzero"/><path fill="#7ed957" d="M 27.699219 31.882812 C 27.027344 31.882812 26.359375 31.832031 25.695312 31.726562 C 24.488281 31.539062 23.292969 31.222656 22.695312 30.183594 C 22.121094 29.183594 22.230469 27.699219 23.03125 25.648438 C 23.109375 25.449219 23.21875 25.207031 23.34375 24.925781 C 24.179688 23.042969 25.917969 19.128906 25.199219 13.367188 C 25.1875 13.277344 25.25 13.199219 25.339844 13.1875 C 25.429688 13.175781 25.511719 13.238281 25.523438 13.328125 C 26.253906 19.179688 24.488281 23.148438 23.640625 25.058594 C 23.515625 25.335938 23.410156 25.574219 23.335938 25.769531 C 22.582031 27.695312 22.460938 29.125 22.976562 30.023438 C 23.507812 30.941406 24.621094 31.230469 25.746094 31.40625 C 27.957031 31.753906 30.230469 31.503906 32.320312 30.6875 C 33.339844 30.285156 34.464844 29.777344 34.890625 28.816406 C 38.558594 20.460938 34.46875 11.007812 28.574219 7.042969 C 27.089844 6.042969 24.261719 5.050781 22 4.738281 C 17.019531 4.042969 13.613281 7 12.023438 8.828125 C 11.574219 9.347656 11.160156 9.917969 10.761719 10.472656 C 10.054688 11.445312 9.328125 12.453125 8.367188 13.21875 C 6.78125 14.480469 4.847656 14.847656 3.507812 14.933594 C 2.890625 14.972656 2.335938 15.257812 1.941406 15.734375 C 1.550781 16.207031 1.378906 16.808594 1.453125 17.417969 C 1.671875 19.109375 2.53125 20.632812 3.816406 21.601562 C 5.265625 22.691406 7.167969 23.101562 8.847656 23.460938 C 10.550781 23.828125 12.480469 24.242188 13.992188 25.402344 C 15.433594 26.507812 16.476562 28.582031 15.691406 30.410156 C 15.65625 30.492188 15.558594 30.53125 15.476562 30.492188 C 15.394531 30.457031 15.355469 30.363281 15.390625 30.28125 C 16.105469 28.625 15.101562 26.664062 13.796875 25.660156 C 12.339844 24.542969 10.449219 24.136719 8.777344 23.777344 C 7.066406 23.410156 5.128906 22.996094 3.621094 21.859375 C 2.265625 20.839844 1.359375 19.234375 1.132812 17.460938 C 1.042969 16.757812 1.242188 16.070312 1.691406 15.527344 C 2.140625 14.980469 2.777344 14.65625 3.488281 14.609375 C 4.78125 14.527344 6.644531 14.171875 8.164062 12.960938 C 9.089844 12.226562 9.804688 11.238281 10.496094 10.28125 C 10.902344 9.722656 11.320312 9.144531 11.78125 8.613281 C 13.410156 6.738281 16.910156 3.699219 22.042969 4.414062 C 24.351562 4.734375 27.234375 5.75 28.757812 6.773438 C 34.761719 10.808594 38.925781 20.4375 35.1875 28.945312 C 34.714844 30.023438 33.519531 30.566406 32.4375 30.988281 C 30.921875 31.582031 29.3125 31.882812 27.699219 31.882812 Z M 27.699219 31.882812 " fill-opacity="1" fill-rule="nonzero"/></g></svg>