<svg xmlns="http://www.w3.org/2000/svg" xmlns:xlink="http://www.w3.org/1999/xlink" width="50" zoomAndPan="magnify" viewBox="0 0 37.5 37.499999" height="50" preserveAspectRatio="xMidYMid meet" version="1.0"><defs><clipPath id="dc95990bd5"><path d="M 26 1.332031 L 31 1.332031 L 31 5 L 26 5 Z M 26 1.332031 " clip-rule="nonzero"/></clipPath><clipPath id="4ac1de2ab5"><path d="M 25.480469 4 L 28 4 L 28 8 L 25.480469 8 Z M 25.480469 4 " clip-rule="nonzero"/></clipPath><clipPath id="937cb8b2f0"><path d="M 31 1.332031 L 35.839844 1.332031 L 35.839844 5 L 31 5 Z M 31 1.332031 " clip-rule="nonzero"/></clipPath><clipPath id="d3828ae75a"><path d="M 27 2 L 35 2 L 35 11.695312 L 27 11.695312 Z M 27 2 " clip-rule="nonzero"/></clipPath><clipPath id="f6867a6b6d"><path d="M 34 4 L 35.839844 4 L 35.839844 8 L 34 8 Z M 34 4 " clip-rule="nonzero"/></clipPath><clipPath id="84b5da9055"><path d="M 0 0 L 37.007812 0 L 37.007812 37.007812 L 0 37.007812 Z M 0 0 " clip-rule="nonzero"/></clipPath><clipPath id="c00f959763"><path d="M 0 0 L 37 0 L 37 37.007812 L 0 37.007812 Z M 0 0 " clip-rule="nonzero"/></clipPath><clipPath id="bb75c002d1"><path d="M 25.480469 5 L 27 5 L 27 9 L 25.480469 9 Z M 25.480469 5 " clip-rule="nonzero"/></clipPath><clipPath id="aecf0e7faf"><path d="M 27 3 L 35 3 L 35 11.621094 L 27 11.621094 Z M 27 3 " clip-rule="nonzero"/></clipPath><clipPath id="e3e78e0bf9"><path d="M 34 5 L 35.101562 5 L 35.101562 8 L 34 8 Z M 34 5 " clip-rule="nonzero"/></clipPath></defs><g clip-path="url(#dc95990bd5)"><path fill="#157900" d="M 29.425781 3.925781 C 29.660156 3.832031 29.867188 3.699219 30.050781 3.550781 C 30.019531 3.246094 29.96875 3.003906 29.898438 2.835938 C 29.695312 2.347656 29.15625 1.621094 28.839844 1.503906 C 28.789062 1.484375 28.746094 1.480469 28.71875 1.496094 C 28.53125 1.589844 28.550781 2.085938 28.613281 2.417969 C 28.742188 2.414062 28.824219 2.421875 28.832031 2.421875 C 28.878906 2.425781 28.914062 2.46875 28.910156 2.515625 C 28.90625 2.5625 28.863281 2.59375 28.816406 2.589844 C 28.8125 2.589844 28.3125 2.546875 27.894531 2.757812 C 27.476562 2.964844 27.207031 3.394531 27.203125 3.398438 C 27.1875 3.425781 27.160156 3.4375 27.132812 3.4375 C 27.117188 3.4375 27.101562 3.433594 27.085938 3.425781 C 27.046875 3.402344 27.035156 3.347656 27.058594 3.308594 C 27.0625 3.300781 27.109375 3.226562 27.191406 3.128906 C 26.96875 2.875 26.59375 2.558594 26.410156 2.652344 C 26.378906 2.664062 26.355469 2.699219 26.339844 2.753906 C 26.238281 3.082031 26.480469 3.957031 26.738281 4.417969 C 26.8125 4.550781 26.929688 4.699219 27.09375 4.867188 L 27.09375 4.15625 C 27.09375 4.128906 27.105469 4.105469 27.125 4.089844 C 27.144531 4.074219 27.167969 4.066406 27.195312 4.074219 C 27.207031 4.074219 28.457031 4.320312 29.425781 3.925781 Z M 29.425781 3.925781 " fill-opacity="1" fill-rule="nonzero"/></g><g clip-path="url(#4ac1de2ab5)"><path fill="#157900" d="M 26.554688 6.898438 C 26.203125 6.445312 26.246094 5.617188 26.289062 5.339844 C 26.320312 5.167969 26.207031 5.003906 26.039062 4.976562 C 26.023438 4.972656 26.003906 4.972656 25.988281 4.972656 C 25.835938 4.972656 25.707031 5.082031 25.683594 5.230469 C 25.660156 5.363281 25.484375 6.527344 26.070312 7.285156 C 26.273438 7.550781 26.617188 7.757812 27.09375 7.902344 L 27.09375 7.242188 C 26.839844 7.148438 26.65625 7.03125 26.554688 6.898438 Z M 26.554688 6.898438 " fill-opacity="1" fill-rule="nonzero"/></g><g clip-path="url(#937cb8b2f0)"><path fill="#157900" d="M 35.507812 3.207031 C 35.421875 2.65625 34.523438 2.765625 34.511719 2.765625 C 34.484375 2.769531 34.457031 2.757812 34.4375 2.734375 C 34.4375 2.734375 34.199219 2.460938 33.835938 2.296875 C 33.476562 2.128906 33.117188 2.132812 33.113281 2.132812 C 33.085938 2.132812 33.058594 2.117188 33.042969 2.09375 C 33.039062 2.085938 32.519531 1.332031 32.058594 1.628906 C 31.710938 1.855469 31.855469 2.65625 31.980469 3.097656 C 32.1875 2.816406 32.414062 2.582031 32.671875 2.382812 C 32.710938 2.355469 32.761719 2.363281 32.792969 2.398438 C 32.820312 2.4375 32.8125 2.492188 32.777344 2.519531 C 32.4375 2.777344 32.152344 3.105469 31.90625 3.523438 C 32.09375 3.679688 32.316406 3.824219 32.5625 3.925781 C 33.164062 4.167969 33.871094 4.167969 34.324219 4.132812 C 34.382812 3.832031 34.402344 3.542969 34.378906 3.25 C 34.375 3.203125 34.40625 3.164062 34.453125 3.160156 C 34.5 3.15625 34.542969 3.191406 34.546875 3.238281 C 34.570312 3.527344 34.554688 3.816406 34.5 4.117188 C 34.648438 4.097656 34.746094 4.082031 34.78125 4.074219 C 35.082031 3.898438 35.5625 3.554688 35.507812 3.207031 Z M 35.507812 3.207031 " fill-opacity="1" fill-rule="nonzero"/></g><g clip-path="url(#d3828ae75a)"><path fill="#157900" d="M 32.5 4.082031 C 31.683594 3.753906 31.175781 3.011719 30.996094 2.703125 C 30.8125 3.011719 30.304688 3.753906 29.488281 4.082031 C 28.628906 4.433594 27.589844 4.308594 27.261719 4.257812 L 27.261719 9.339844 C 27.261719 9.875 27.664062 10.425781 28.394531 10.890625 C 29.085938 11.332031 30.035156 11.667969 30.996094 11.808594 C 31.957031 11.667969 32.902344 11.332031 33.597656 10.890625 C 34.324219 10.425781 34.726562 9.875 34.726562 9.339844 L 34.726562 4.257812 C 34.402344 4.308594 33.363281 4.433594 32.5 4.082031 Z M 32.863281 8.25 L 31.71875 8.25 L 31.71875 9.410156 L 30.269531 9.410156 L 30.269531 8.25 L 29.128906 8.25 L 29.128906 6.78125 L 30.269531 6.78125 L 30.269531 5.621094 L 31.71875 5.621094 L 31.71875 6.78125 L 32.863281 6.78125 Z M 32.863281 8.25 " fill-opacity="1" fill-rule="nonzero"/></g><g clip-path="url(#f6867a6b6d)"><path fill="#157900" d="M 35.78125 6.109375 C 35.785156 6.105469 35.964844 5.925781 35.964844 5.738281 C 35.964844 5.550781 35.804688 5.394531 35.804688 5.394531 C 35.777344 5.371094 35.769531 5.332031 35.78125 5.300781 C 35.808594 5.234375 35.863281 5.039062 35.808594 4.929688 C 35.773438 4.855469 35.6875 4.789062 35.609375 4.746094 C 35.59375 4.964844 35.546875 5.414062 35.421875 5.691406 C 35.285156 6 34.996094 6.25 34.898438 6.328125 L 34.898438 7.355469 C 34.980469 7.359375 35.101562 7.355469 35.179688 7.300781 C 35.277344 7.230469 35.289062 7.015625 35.285156 6.945312 C 35.285156 6.921875 35.292969 6.898438 35.3125 6.882812 C 35.328125 6.863281 35.351562 6.855469 35.375 6.855469 C 35.457031 6.863281 35.695312 6.84375 35.78125 6.714844 C 35.871094 6.582031 35.796875 6.296875 35.761719 6.199219 C 35.753906 6.167969 35.761719 6.132812 35.78125 6.109375 Z M 35.78125 6.109375 " fill-opacity="1" fill-rule="nonzero"/></g><path fill="#157900" d="M 31.875 30.082031 L 31.335938 29.726562 C 31.089844 29.5625 30.933594 29.339844 30.863281 29.054688 C 30.785156 28.742188 30.65625 28.449219 30.480469 28.179688 C 30.304688 27.910156 30.089844 27.675781 29.835938 27.476562 C 29.582031 27.277344 29.304688 27.125 29 27.023438 C 28.695312 26.917969 28.382812 26.863281 28.058594 26.863281 C 27.734375 26.863281 27.421875 26.917969 27.117188 27.023438 C 26.8125 27.125 26.535156 27.277344 26.28125 27.476562 C 26.027344 27.675781 25.8125 27.910156 25.636719 28.179688 C 25.460938 28.449219 25.332031 28.742188 25.253906 29.054688 C 25.183594 29.339844 25.027344 29.5625 24.78125 29.726562 L 24.242188 30.082031 C 23.847656 30.347656 23.570312 30.703125 23.414062 31.148438 C 23.253906 31.59375 23.242188 32.042969 23.378906 32.496094 C 23.515625 32.949219 23.777344 33.316406 24.15625 33.597656 C 24.535156 33.878906 24.960938 34.023438 25.433594 34.023438 L 25.53125 34.023438 C 26.117188 34.023438 26.671875 33.890625 27.195312 33.628906 C 27.769531 33.347656 28.347656 33.347656 28.921875 33.628906 C 29.445312 33.890625 30 34.019531 30.585938 34.023438 L 30.683594 34.023438 C 31.15625 34.019531 31.582031 33.878906 31.960938 33.597656 C 32.339844 33.316406 32.601562 32.949219 32.738281 32.496094 C 32.875 32.042969 32.863281 31.59375 32.703125 31.144531 C 32.546875 30.699219 32.269531 30.347656 31.875 30.082031 Z M 30.683594 32.828125 L 30.585938 32.828125 C 30.1875 32.828125 29.8125 32.738281 29.457031 32.5625 C 29.015625 32.339844 28.550781 32.230469 28.058594 32.230469 C 27.566406 32.230469 27.101562 32.339844 26.660156 32.5625 C 26.304688 32.738281 25.925781 32.828125 25.527344 32.828125 L 25.433594 32.828125 C 25.222656 32.828125 25.03125 32.765625 24.859375 32.640625 C 24.691406 32.515625 24.578125 32.351562 24.515625 32.148438 C 24.453125 31.945312 24.460938 31.746094 24.53125 31.546875 C 24.601562 31.347656 24.726562 31.191406 24.902344 31.074219 L 25.4375 30.714844 C 25.9375 30.382812 26.261719 29.925781 26.40625 29.34375 C 26.5 28.964844 26.703125 28.65625 27.007812 28.417969 C 27.316406 28.175781 27.664062 28.058594 28.050781 28.058594 C 28.441406 28.058594 28.789062 28.175781 29.097656 28.417969 C 29.402344 28.65625 29.605469 28.964844 29.699219 29.34375 C 29.84375 29.925781 30.167969 30.382812 30.667969 30.714844 L 31.203125 31.074219 C 31.378906 31.191406 31.503906 31.347656 31.574219 31.542969 C 31.644531 31.742188 31.652344 31.941406 31.589844 32.144531 C 31.53125 32.34375 31.417969 32.507812 31.25 32.636719 C 31.082031 32.761719 30.890625 32.828125 30.683594 32.828125 Z M 30.683594 32.828125 " fill-opacity="1" fill-rule="nonzero"/><path fill="#157900" d="M 25.070312 27.457031 C 25.070312 26.117188 24.285156 25.070312 23.28125 25.070312 C 22.277344 25.070312 21.488281 26.117188 21.488281 27.457031 C 21.488281 28.796875 22.277344 29.84375 23.28125 29.84375 C 24.285156 29.84375 25.070312 28.796875 25.070312 27.457031 Z M 22.683594 27.457031 C 22.683594 26.726562 23.035156 26.261719 23.28125 26.261719 C 23.523438 26.261719 23.878906 26.726562 23.878906 27.457031 C 23.878906 28.183594 23.523438 28.648438 23.28125 28.648438 C 23.035156 28.648438 22.683594 28.183594 22.683594 27.457031 Z M 22.683594 27.457031 " fill-opacity="1" fill-rule="nonzero"/><path fill="#157900" d="M 26.265625 26.859375 C 27.269531 26.859375 28.054688 25.8125 28.054688 24.472656 C 28.054688 23.132812 27.269531 22.085938 26.265625 22.085938 C 25.261719 22.085938 24.472656 23.132812 24.472656 24.472656 C 24.472656 25.8125 25.261719 26.859375 26.265625 26.859375 Z M 26.265625 23.277344 C 26.507812 23.277344 26.863281 23.742188 26.863281 24.472656 C 26.863281 25.199219 26.507812 25.664062 26.265625 25.664062 C 26.019531 25.664062 25.667969 25.199219 25.667969 24.472656 C 25.667969 23.742188 26.019531 23.277344 26.265625 23.277344 Z M 26.265625 23.277344 " fill-opacity="1" fill-rule="nonzero"/><path fill="#157900" d="M 31.039062 27.457031 C 31.039062 28.796875 31.824219 29.84375 32.832031 29.84375 C 33.835938 29.84375 34.621094 28.796875 34.621094 27.457031 C 34.621094 26.117188 33.835938 25.070312 32.832031 25.070312 C 31.824219 25.070312 31.039062 26.117188 31.039062 27.457031 Z M 33.425781 27.457031 C 33.425781 28.183594 33.074219 28.648438 32.832031 28.648438 C 32.585938 28.648438 32.234375 28.183594 32.234375 27.457031 C 32.234375 26.726562 32.585938 26.261719 32.832031 26.261719 C 33.074219 26.261719 33.425781 26.726562 33.425781 27.457031 Z M 33.425781 27.457031 " fill-opacity="1" fill-rule="nonzero"/><path fill="#157900" d="M 29.847656 26.859375 C 30.851562 26.859375 31.636719 25.8125 31.636719 24.472656 C 31.636719 23.132812 30.851562 22.085938 29.847656 22.085938 C 28.839844 22.085938 28.054688 23.132812 28.054688 24.472656 C 28.054688 25.8125 28.839844 26.859375 29.847656 26.859375 Z M 29.847656 23.277344 C 30.089844 23.277344 30.441406 23.742188 30.441406 24.472656 C 30.441406 25.199219 30.089844 25.664062 29.847656 25.664062 C 29.601562 25.664062 29.25 25.199219 29.25 24.472656 C 29.25 23.742188 29.601562 23.277344 29.847656 23.277344 Z M 29.847656 23.277344 " fill-opacity="1" fill-rule="nonzero"/><g clip-path="url(#84b5da9055)"><path fill="#157900" d="M 28.054688 19.101562 C 26.875 19.101562 25.742188 19.324219 24.652344 19.773438 C 23.5625 20.222656 22.597656 20.863281 21.761719 21.695312 L 19.699219 21.050781 L 19.699219 19.175781 C 20.273438 18.617188 20.714844 17.96875 21.023438 17.230469 C 21.335938 16.492188 21.488281 15.722656 21.488281 14.921875 C 22.015625 14.921875 22.488281 14.765625 22.910156 14.453125 C 23.332031 14.140625 23.617188 13.734375 23.773438 13.230469 C 23.925781 12.730469 23.914062 12.230469 23.738281 11.738281 C 23.5625 11.242188 23.257812 10.847656 22.824219 10.554688 L 22.988281 9.566406 C 23.183594 8.394531 23.28125 7.214844 23.28125 6.027344 C 23.28125 5.558594 23.203125 5.101562 23.054688 4.65625 C 22.902344 4.210938 22.6875 3.804688 22.402344 3.429688 C 22.121094 3.054688 21.785156 2.734375 21.398438 2.46875 C 21.011719 2.207031 20.589844 2.007812 20.140625 1.878906 C 19.878906 1.308594 19.484375 0.851562 18.953125 0.511719 C 18.425781 0.167969 17.84375 0 17.214844 0 L 15.40625 0 C 13.832031 0 12.304688 0.269531 10.820312 0.804688 C 9.339844 1.34375 7.992188 2.113281 6.78125 3.121094 C 6.703125 3.1875 6.644531 3.265625 6.609375 3.359375 C 6.570312 3.453125 6.558594 3.550781 6.570312 3.652344 C 6.582031 3.753906 6.617188 3.84375 6.671875 3.925781 C 6.730469 4.011719 6.804688 4.074219 6.898438 4.117188 C 7.164062 4.25 7.371094 4.441406 7.527344 4.691406 C 7.683594 4.945312 7.761719 5.21875 7.761719 5.511719 C 7.761719 7.042969 7.886719 8.5625 8.140625 10.074219 L 8.21875 10.554688 C 7.785156 10.847656 7.480469 11.242188 7.304688 11.738281 C 7.128906 12.230469 7.117188 12.730469 7.269531 13.230469 C 7.421875 13.734375 7.710938 14.140625 8.132812 14.453125 C 8.554688 14.765625 9.027344 14.921875 9.550781 14.921875 C 9.550781 15.722656 9.707031 16.492188 10.019531 17.230469 C 10.328125 17.96875 10.769531 18.617188 11.34375 19.175781 L 11.34375 21.050781 L 5.113281 22.996094 C 4.113281 23.308594 3.234375 23.835938 2.484375 24.570312 C 1.738281 25.308594 1.195312 26.171875 0.859375 27.167969 C 0.691406 27.679688 0.585938 28.203125 0.546875 28.742188 L 0.00390625 36.367188 C -0.0117188 36.539062 0.0429688 36.691406 0.160156 36.816406 C 0.28125 36.945312 0.425781 37.007812 0.597656 37.007812 L 30.441406 37.007812 C 30.617188 37.007812 30.761719 36.941406 30.878906 36.816406 C 30.960938 36.722656 31.007812 36.613281 31.023438 36.492188 C 31.515625 36.316406 31.992188 36.101562 32.449219 35.847656 C 32.90625 35.589844 33.335938 35.292969 33.742188 34.960938 C 34.148438 34.628906 34.519531 34.261719 34.863281 33.863281 C 35.203125 33.464844 35.503906 33.042969 35.773438 32.589844 C 36.039062 32.136719 36.261719 31.667969 36.445312 31.175781 C 36.628906 30.683594 36.769531 30.179688 36.863281 29.664062 C 36.957031 29.148438 37.007812 28.628906 37.011719 28.105469 C 37.015625 27.582031 36.972656 27.058594 36.882812 26.542969 C 36.796875 26.027344 36.664062 25.519531 36.484375 25.027344 C 36.308594 24.535156 36.089844 24.058594 35.828125 23.605469 C 35.570312 23.148438 35.269531 22.722656 34.9375 22.316406 C 34.601562 21.914062 34.230469 21.546875 33.832031 21.207031 C 33.429688 20.871094 33.003906 20.570312 32.550781 20.304688 C 32.09375 20.042969 31.621094 19.820312 31.128906 19.640625 C 30.636719 19.460938 30.132812 19.328125 29.617188 19.234375 C 29.101562 19.144531 28.578125 19.101562 28.054688 19.101562 Z M 19.25 29.621094 C 18.886719 29.945312 18.515625 30.253906 18.128906 30.550781 C 18.5 29.703125 18.828125 28.835938 19.109375 27.953125 C 19.109375 27.984375 19.101562 28.019531 19.101562 28.054688 C 19.105469 28.582031 19.152344 29.101562 19.25 29.621094 Z M 9.332031 24.605469 C 9.1875 24.488281 9.023438 24.445312 8.835938 24.484375 L 6.933594 24.863281 C 7.148438 24.34375 7.429688 23.859375 7.773438 23.414062 L 10.84375 22.453125 C 11.082031 25.261719 11.769531 27.953125 12.90625 30.53125 C 11.683594 29.605469 10.59375 28.542969 9.632812 27.351562 L 9.550781 27.246094 L 9.550781 25.070312 C 9.550781 24.878906 9.480469 24.726562 9.332031 24.609375 Z M 8.359375 32.230469 C 8.359375 32.390625 8.328125 32.542969 8.269531 32.6875 C 8.207031 32.835938 8.121094 32.964844 8.007812 33.074219 C 7.898438 33.1875 7.769531 33.273438 7.621094 33.335938 C 7.476562 33.394531 7.324219 33.425781 7.164062 33.425781 C 7.007812 33.425781 6.855469 33.394531 6.707031 33.335938 C 6.5625 33.273438 6.433594 33.1875 6.320312 33.074219 C 6.207031 32.964844 6.121094 32.835938 6.0625 32.6875 C 6 32.542969 5.972656 32.390625 5.972656 32.230469 C 5.972656 32.074219 6 31.921875 6.0625 31.773438 C 6.121094 31.628906 6.207031 31.5 6.320312 31.386719 C 6.433594 31.277344 6.5625 31.1875 6.707031 31.128906 C 6.855469 31.066406 7.007812 31.039062 7.164062 31.039062 C 7.324219 31.039062 7.476562 31.066406 7.621094 31.128906 C 7.769531 31.1875 7.898438 31.277344 8.007812 31.386719 C 8.121094 31.5 8.207031 31.628906 8.269531 31.773438 C 8.328125 31.921875 8.359375 32.074219 8.359375 32.230469 Z M 14.871094 31.984375 L 14.109375 30.308594 C 13.40625 28.761719 12.875 27.160156 12.511719 25.5 C 13.449219 26.007812 14.453125 26.261719 15.519531 26.261719 C 16.589844 26.261719 17.59375 26.007812 18.53125 25.5 C 18.167969 27.160156 17.636719 28.761719 16.933594 30.308594 L 16.171875 31.984375 C 16.136719 32.0625 16.117188 32.144531 16.117188 32.230469 L 16.117188 35.8125 L 14.925781 35.8125 L 14.925781 32.230469 C 14.925781 32.144531 14.90625 32.0625 14.871094 31.984375 Z M 20.914062 22.679688 C 20.554688 23.152344 20.25 23.65625 19.992188 24.1875 C 20.082031 23.617188 20.148438 23.039062 20.199219 22.457031 Z M 21.488281 13.726562 L 21.488281 11.339844 C 21.648438 11.339844 21.800781 11.371094 21.945312 11.429688 C 22.09375 11.492188 22.222656 11.578125 22.335938 11.691406 C 22.445312 11.800781 22.53125 11.929688 22.59375 12.078125 C 22.652344 12.222656 22.683594 12.375 22.683594 12.535156 C 22.683594 12.691406 22.652344 12.84375 22.59375 12.992188 C 22.53125 13.136719 22.445312 13.265625 22.335938 13.378906 C 22.222656 13.492188 22.09375 13.578125 21.945312 13.636719 C 21.800781 13.699219 21.648438 13.726562 21.488281 13.726562 Z M 8.359375 12.535156 C 8.359375 12.375 8.390625 12.222656 8.449219 12.078125 C 8.511719 11.929688 8.597656 11.800781 8.707031 11.691406 C 8.820312 11.578125 8.949219 11.492188 9.09375 11.429688 C 9.242188 11.371094 9.394531 11.339844 9.550781 11.339844 L 9.550781 13.726562 C 9.394531 13.726562 9.242188 13.699219 9.09375 13.636719 C 8.949219 13.578125 8.820312 13.492188 8.707031 13.378906 C 8.597656 13.265625 8.511719 13.136719 8.449219 12.992188 C 8.390625 12.84375 8.359375 12.691406 8.359375 12.535156 Z M 10.335938 6.398438 C 9.8125 7.183594 9.550781 8.050781 9.550781 8.996094 L 9.550781 10.148438 C 9.488281 10.148438 9.425781 10.160156 9.363281 10.167969 L 9.316406 9.878906 C 9.078125 8.433594 8.957031 6.976562 8.957031 5.511719 C 8.960938 4.753906 8.695312 4.105469 8.15625 3.566406 C 9.207031 2.796875 10.355469 2.210938 11.59375 1.804688 C 12.832031 1.398438 14.105469 1.195312 15.40625 1.195312 L 17.214844 1.195312 C 17.648438 1.195312 18.042969 1.320312 18.398438 1.574219 C 18.75 1.828125 18.996094 2.164062 19.132812 2.574219 C 19.207031 2.796875 19.355469 2.925781 19.582031 2.972656 C 19.933594 3.042969 20.265625 3.171875 20.574219 3.359375 C 20.882812 3.542969 21.148438 3.777344 21.378906 4.054688 C 21.605469 4.332031 21.78125 4.640625 21.902344 4.980469 C 22.023438 5.320312 22.085938 5.667969 22.085938 6.027344 C 22.085938 7.148438 21.996094 8.265625 21.808594 9.371094 L 21.675781 10.167969 C 21.613281 10.160156 21.554688 10.148438 21.488281 10.148438 L 21.488281 8.996094 C 21.492188 8.050781 21.230469 7.183594 20.703125 6.398438 C 20.410156 5.972656 20.019531 5.671875 19.527344 5.503906 C 19.039062 5.335938 18.546875 5.332031 18.050781 5.492188 L 17.65625 5.625 C 16.234375 6.097656 14.808594 6.097656 13.382812 5.625 L 12.988281 5.492188 C 12.496094 5.332031 12.003906 5.339844 11.511719 5.507812 C 11.023438 5.675781 10.628906 5.972656 10.335938 6.398438 Z M 10.746094 14.921875 L 10.746094 8.996094 C 10.746094 8.292969 10.941406 7.648438 11.332031 7.0625 C 11.46875 6.851562 11.660156 6.707031 11.898438 6.625 C 12.132812 6.542969 12.371094 6.542969 12.613281 6.621094 L 13.007812 6.753906 C 14.683594 7.3125 16.359375 7.3125 18.035156 6.753906 L 18.429688 6.621094 C 18.667969 6.546875 18.90625 6.550781 19.144531 6.628906 C 19.378906 6.710938 19.570312 6.855469 19.710938 7.0625 C 20.101562 7.648438 20.296875 8.292969 20.296875 8.996094 L 20.296875 14.921875 C 20.296875 15.234375 20.265625 15.546875 20.203125 15.855469 C 20.144531 16.160156 20.050781 16.460938 19.933594 16.75 C 19.8125 17.039062 19.664062 17.3125 19.492188 17.574219 C 19.316406 17.835938 19.121094 18.078125 18.898438 18.296875 C 18.675781 18.519531 18.433594 18.71875 18.175781 18.890625 C 17.914062 19.066406 17.636719 19.214844 17.347656 19.332031 C 17.058594 19.453125 16.761719 19.542969 16.453125 19.605469 C 16.144531 19.667969 15.835938 19.695312 15.519531 19.695312 C 15.207031 19.695312 14.898438 19.667969 14.589844 19.605469 C 14.28125 19.542969 13.984375 19.453125 13.695312 19.332031 C 13.402344 19.214844 13.128906 19.066406 12.867188 18.890625 C 12.609375 18.71875 12.367188 18.519531 12.144531 18.296875 C 11.921875 18.078125 11.726562 17.835938 11.550781 17.574219 C 11.375 17.3125 11.230469 17.039062 11.109375 16.75 C 10.988281 16.460938 10.898438 16.160156 10.835938 15.855469 C 10.777344 15.546875 10.746094 15.234375 10.746094 14.921875 Z M 15.519531 20.890625 C 16.589844 20.890625 17.582031 20.621094 18.503906 20.082031 L 18.503906 21.488281 C 18.503906 21.78125 18.644531 21.96875 18.921875 22.058594 L 19.027344 22.089844 C 18.984375 22.683594 18.925781 23.273438 18.839844 23.855469 C 18.375 24.246094 17.855469 24.546875 17.285156 24.757812 C 16.714844 24.964844 16.128906 25.070312 15.519531 25.070312 C 14.914062 25.070312 14.324219 24.964844 13.753906 24.757812 C 13.183594 24.546875 12.667969 24.246094 12.203125 23.855469 C 12.117188 23.273438 12.058594 22.683594 12.011719 22.089844 L 12.117188 22.058594 C 12.398438 21.972656 12.535156 21.78125 12.535156 21.488281 L 12.535156 20.082031 C 13.457031 20.621094 14.453125 20.890625 15.519531 20.890625 Z M 1.738281 28.828125 C 1.769531 28.390625 1.855469 27.964844 1.992188 27.550781 C 2.265625 26.734375 2.710938 26.027344 3.320312 25.425781 C 3.933594 24.824219 4.652344 24.394531 5.472656 24.136719 L 6.03125 23.960938 C 5.953125 24.125 5.878906 24.292969 5.808594 24.460938 L 5.414062 25.445312 C 5.328125 25.667969 5.359375 25.867188 5.511719 26.050781 C 5.636719 26.199219 5.796875 26.269531 5.988281 26.257812 C 6.023438 27.511719 6.113281 28.777344 6.253906 30.027344 C 6.074219 30.097656 5.90625 30.191406 5.746094 30.304688 C 5.589844 30.417969 5.449219 30.546875 5.320312 30.695312 C 5.195312 30.839844 5.085938 31 5 31.175781 C 4.914062 31.347656 4.847656 31.527344 4.800781 31.71875 C 4.757812 31.90625 4.738281 32.097656 4.742188 32.292969 C 4.742188 32.484375 4.769531 32.675781 4.816406 32.863281 C 4.867188 33.050781 4.9375 33.230469 5.027344 33.402344 C 5.121094 33.574219 5.230469 33.730469 5.363281 33.875 C 5.492188 34.019531 5.636719 34.144531 5.796875 34.253906 C 5.960938 34.359375 6.128906 34.449219 6.3125 34.515625 C 6.496094 34.582031 6.683594 34.628906 6.875 34.648438 C 7.066406 34.671875 7.261719 34.671875 7.453125 34.644531 C 7.644531 34.621094 7.832031 34.574219 8.011719 34.503906 C 8.191406 34.433594 8.363281 34.34375 8.523438 34.230469 C 8.679688 34.121094 8.824219 33.992188 8.953125 33.84375 C 9.082031 33.699219 9.1875 33.539062 9.277344 33.367188 C 9.367188 33.195312 9.433594 33.015625 9.480469 32.828125 C 9.527344 32.640625 9.550781 32.449219 9.546875 32.253906 C 9.546875 32.058594 9.523438 31.867188 9.476562 31.679688 C 9.429688 31.492188 9.363281 31.3125 9.273438 31.140625 C 9.179688 30.96875 9.070312 30.808594 8.941406 30.664062 C 8.8125 30.519531 8.671875 30.390625 8.511719 30.28125 C 8.351562 30.171875 8.179688 30.082031 8 30.011719 C 7.816406 29.945312 7.628906 29.898438 7.4375 29.875 C 7.296875 28.597656 7.207031 27.3125 7.175781 26.035156 L 8.359375 25.796875 L 8.359375 27.457031 C 8.359375 27.597656 8.402344 27.71875 8.488281 27.828125 L 8.703125 28.097656 C 10.125 29.867188 11.800781 31.355469 13.730469 32.550781 L 13.730469 35.8125 L 1.238281 35.8125 Z M 17.3125 35.8125 L 17.3125 32.558594 C 18.105469 32.066406 18.863281 31.519531 19.578125 30.917969 C 19.933594 31.953125 20.453125 32.890625 21.148438 33.734375 C 21.839844 34.574219 22.660156 35.269531 23.609375 35.8125 Z M 28.054688 35.8125 C 27.546875 35.8125 27.042969 35.761719 26.542969 35.664062 C 26.042969 35.5625 25.558594 35.417969 25.085938 35.222656 C 24.617188 35.027344 24.167969 34.789062 23.746094 34.503906 C 23.320312 34.222656 22.929688 33.902344 22.570312 33.539062 C 22.207031 33.179688 21.886719 32.789062 21.605469 32.363281 C 21.320312 31.941406 21.082031 31.492188 20.886719 31.023438 C 20.691406 30.550781 20.542969 30.066406 20.445312 29.566406 C 20.347656 29.066406 20.296875 28.5625 20.296875 28.054688 C 20.296875 27.542969 20.347656 27.039062 20.445312 26.539062 C 20.542969 26.039062 20.691406 25.554688 20.886719 25.082031 C 21.082031 24.613281 21.320312 24.167969 21.605469 23.742188 C 21.886719 23.320312 22.207031 22.925781 22.570312 22.566406 C 22.929688 22.207031 23.320312 21.882812 23.746094 21.601562 C 24.167969 21.320312 24.617188 21.078125 25.085938 20.882812 C 25.558594 20.691406 26.042969 20.542969 26.542969 20.441406 C 27.042969 20.34375 27.546875 20.292969 28.054688 20.292969 C 28.566406 20.292969 29.070312 20.34375 29.570312 20.441406 C 30.070312 20.542969 30.554688 20.691406 31.023438 20.882812 C 31.496094 21.078125 31.941406 21.320312 32.367188 21.601562 C 32.789062 21.882812 33.183594 22.207031 33.542969 22.566406 C 33.902344 22.925781 34.222656 23.320312 34.507812 23.742188 C 34.789062 24.167969 35.03125 24.613281 35.222656 25.082031 C 35.417969 25.554688 35.566406 26.039062 35.664062 26.539062 C 35.765625 27.039062 35.816406 27.542969 35.816406 28.054688 C 35.816406 28.5625 35.765625 29.066406 35.664062 29.566406 C 35.566406 30.066406 35.417969 30.550781 35.222656 31.019531 C 35.027344 31.492188 34.789062 31.9375 34.503906 32.363281 C 34.222656 32.785156 33.898438 33.175781 33.539062 33.539062 C 33.179688 33.898438 32.789062 34.21875 32.363281 34.503906 C 31.941406 34.785156 31.492188 35.023438 31.023438 35.21875 C 30.554688 35.414062 30.066406 35.5625 29.570312 35.664062 C 29.070312 35.761719 28.566406 35.8125 28.054688 35.8125 Z M 28.054688 35.8125 " fill-opacity="1" fill-rule="nonzero"/></g><path fill="#7ed957" d="M 31.265625 30.082031 L 30.722656 29.726562 C 30.480469 29.5625 30.320312 29.339844 30.25 29.054688 C 30.171875 28.742188 30.046875 28.449219 29.871094 28.179688 C 29.695312 27.910156 29.480469 27.675781 29.226562 27.476562 C 28.972656 27.277344 28.691406 27.125 28.386719 27.023438 C 28.082031 26.917969 27.769531 26.863281 27.449219 26.863281 C 27.125 26.863281 26.8125 26.917969 26.507812 27.023438 C 26.203125 27.125 25.921875 27.277344 25.667969 27.476562 C 25.414062 27.675781 25.199219 27.910156 25.023438 28.179688 C 24.847656 28.449219 24.722656 28.742188 24.644531 29.054688 C 24.574219 29.339844 24.414062 29.5625 24.171875 29.726562 L 23.628906 30.082031 C 23.238281 30.347656 22.960938 30.703125 22.800781 31.148438 C 22.640625 31.59375 22.632812 32.042969 22.769531 32.496094 C 22.90625 32.949219 23.164062 33.316406 23.542969 33.597656 C 23.925781 33.878906 24.351562 34.023438 24.824219 34.023438 L 24.917969 34.023438 C 25.503906 34.023438 26.058594 33.890625 26.582031 33.628906 C 27.160156 33.347656 27.734375 33.347656 28.3125 33.628906 C 28.835938 33.890625 29.386719 34.019531 29.972656 34.023438 L 30.070312 34.023438 C 30.542969 34.019531 30.96875 33.878906 31.351562 33.597656 C 31.730469 33.316406 31.988281 32.949219 32.125 32.496094 C 32.261719 32.042969 32.253906 31.59375 32.09375 31.144531 C 31.933594 30.699219 31.65625 30.347656 31.265625 30.082031 Z M 30.070312 32.828125 L 29.976562 32.828125 C 29.578125 32.828125 29.203125 32.738281 28.84375 32.5625 C 28.40625 32.339844 27.9375 32.230469 27.449219 32.230469 C 26.957031 32.230469 26.488281 32.339844 26.050781 32.5625 C 25.691406 32.738281 25.316406 32.828125 24.914062 32.828125 L 24.820312 32.828125 C 24.609375 32.828125 24.417969 32.765625 24.25 32.640625 C 24.082031 32.515625 23.964844 32.351562 23.902344 32.148438 C 23.84375 31.945312 23.847656 31.746094 23.917969 31.546875 C 23.992188 31.347656 24.113281 31.191406 24.289062 31.074219 L 24.828125 30.714844 C 25.328125 30.382812 25.648438 29.925781 25.796875 29.34375 C 25.890625 28.964844 26.089844 28.65625 26.398438 28.417969 C 26.703125 28.175781 27.050781 28.058594 27.441406 28.058594 C 27.832031 28.058594 28.179688 28.175781 28.484375 28.417969 C 28.792969 28.65625 28.992188 28.964844 29.085938 29.34375 C 29.234375 29.925781 29.554688 30.382812 30.054688 30.714844 L 30.59375 31.074219 C 30.769531 31.191406 30.890625 31.347656 30.960938 31.542969 C 31.035156 31.742188 31.039062 31.941406 30.980469 32.144531 C 30.921875 32.34375 30.804688 32.507812 30.636719 32.636719 C 30.46875 32.761719 30.28125 32.828125 30.070312 32.828125 Z M 30.070312 32.828125 " fill-opacity="1" fill-rule="nonzero"/><path fill="#7ed957" d="M 24.460938 27.457031 C 24.460938 26.117188 23.675781 25.070312 22.667969 25.070312 C 21.664062 25.070312 20.878906 26.117188 20.878906 27.457031 C 20.878906 28.796875 21.664062 29.84375 22.667969 29.84375 C 23.675781 29.84375 24.460938 28.796875 24.460938 27.457031 Z M 22.074219 27.457031 C 22.074219 26.726562 22.425781 26.261719 22.667969 26.261719 C 22.914062 26.261719 23.265625 26.726562 23.265625 27.457031 C 23.265625 28.183594 22.914062 28.648438 22.667969 28.648438 C 22.425781 28.648438 22.074219 28.183594 22.074219 27.457031 Z M 22.074219 27.457031 " fill-opacity="1" fill-rule="nonzero"/><path fill="#7ed957" d="M 25.652344 26.859375 C 26.660156 26.859375 27.445312 25.8125 27.445312 24.472656 C 27.445312 23.132812 26.660156 22.085938 25.652344 22.085938 C 24.648438 22.085938 23.863281 23.132812 23.863281 24.472656 C 23.863281 25.8125 24.648438 26.859375 25.652344 26.859375 Z M 25.652344 23.277344 C 25.898438 23.277344 26.25 23.742188 26.25 24.472656 C 26.25 25.199219 25.898438 25.664062 25.652344 25.664062 C 25.410156 25.664062 25.058594 25.199219 25.058594 24.472656 C 25.058594 23.742188 25.410156 23.277344 25.652344 23.277344 Z M 25.652344 23.277344 " fill-opacity="1" fill-rule="nonzero"/><path fill="#7ed957" d="M 30.429688 27.457031 C 30.429688 28.796875 31.214844 29.84375 32.21875 29.84375 C 33.222656 29.84375 34.011719 28.796875 34.011719 27.457031 C 34.011719 26.117188 33.222656 25.070312 32.21875 25.070312 C 31.214844 25.070312 30.429688 26.117188 30.429688 27.457031 Z M 32.816406 27.457031 C 32.816406 28.183594 32.464844 28.648438 32.21875 28.648438 C 31.976562 28.648438 31.621094 28.183594 31.621094 27.457031 C 31.621094 26.726562 31.976562 26.261719 32.21875 26.261719 C 32.464844 26.261719 32.816406 26.726562 32.816406 27.457031 Z M 32.816406 27.457031 " fill-opacity="1" fill-rule="nonzero"/><path fill="#7ed957" d="M 29.234375 26.859375 C 30.238281 26.859375 31.027344 25.8125 31.027344 24.472656 C 31.027344 23.132812 30.238281 22.085938 29.234375 22.085938 C 28.230469 22.085938 27.445312 23.132812 27.445312 24.472656 C 27.445312 25.8125 28.230469 26.859375 29.234375 26.859375 Z M 29.234375 23.277344 C 29.476562 23.277344 29.832031 23.742188 29.832031 24.472656 C 29.832031 25.199219 29.476562 25.664062 29.234375 25.664062 C 28.992188 25.664062 28.636719 25.199219 28.636719 24.472656 C 28.636719 23.742188 28.992188 23.277344 29.234375 23.277344 Z M 29.234375 23.277344 " fill-opacity="1" fill-rule="nonzero"/><g clip-path="url(#c00f959763)"><path fill="#7ed957" d="M 27.445312 19.101562 C 26.265625 19.101562 25.132812 19.324219 24.039062 19.773438 C 22.949219 20.222656 21.988281 20.863281 21.152344 21.695312 L 19.089844 21.050781 L 19.089844 19.175781 C 19.660156 18.617188 20.101562 17.96875 20.414062 17.230469 C 20.722656 16.492188 20.878906 15.722656 20.878906 14.921875 C 21.402344 14.921875 21.875 14.765625 22.296875 14.453125 C 22.71875 14.140625 23.007812 13.734375 23.160156 13.230469 C 23.3125 12.730469 23.304688 12.230469 23.128906 11.738281 C 22.953125 11.242188 22.648438 10.847656 22.210938 10.554688 L 22.375 9.566406 C 22.570312 8.394531 22.667969 7.214844 22.667969 6.027344 C 22.667969 5.558594 22.59375 5.101562 22.441406 4.65625 C 22.292969 4.210938 22.074219 3.804688 21.792969 3.429688 C 21.507812 3.054688 21.175781 2.734375 20.785156 2.46875 C 20.398438 2.207031 19.980469 2.007812 19.527344 1.878906 C 19.265625 1.308594 18.871094 0.851562 18.34375 0.511719 C 17.8125 0.167969 17.234375 0 16.601562 0 L 14.796875 0 C 13.21875 0 11.691406 0.269531 10.210938 0.804688 C 8.726562 1.34375 7.382812 2.113281 6.171875 3.121094 C 6.09375 3.1875 6.035156 3.265625 5.996094 3.359375 C 5.957031 3.453125 5.945312 3.550781 5.957031 3.652344 C 5.96875 3.753906 6.003906 3.84375 6.0625 3.925781 C 6.121094 4.011719 6.195312 4.074219 6.285156 4.117188 C 6.550781 4.25 6.761719 4.441406 6.917969 4.691406 C 7.074219 4.945312 7.152344 5.21875 7.152344 5.511719 C 7.152344 7.042969 7.277344 8.5625 7.527344 10.074219 L 7.609375 10.554688 C 7.171875 10.847656 6.867188 11.242188 6.691406 11.738281 C 6.515625 12.230469 6.503906 12.730469 6.660156 13.230469 C 6.8125 13.734375 7.097656 14.140625 7.519531 14.453125 C 7.941406 14.765625 8.417969 14.921875 8.941406 14.921875 C 8.941406 15.722656 9.097656 16.492188 9.40625 17.230469 C 9.71875 17.96875 10.160156 18.617188 10.730469 19.175781 L 10.730469 21.050781 L 4.503906 22.996094 C 3.5 23.308594 2.625 23.835938 1.875 24.570312 C 1.125 25.308594 0.582031 26.171875 0.25 27.167969 C 0.078125 27.679688 -0.0234375 28.203125 -0.0625 28.742188 L -0.609375 36.367188 C -0.621094 36.539062 -0.566406 36.691406 -0.449219 36.816406 C -0.332031 36.945312 -0.1875 37.007812 -0.0117188 37.007812 L 29.832031 37.007812 C 30.003906 37.007812 30.152344 36.941406 30.269531 36.816406 C 30.351562 36.722656 30.398438 36.613281 30.410156 36.492188 C 30.90625 36.316406 31.382812 36.101562 31.839844 35.847656 C 32.292969 35.589844 32.726562 35.292969 33.132812 34.960938 C 33.535156 34.628906 33.910156 34.261719 34.25 33.863281 C 34.589844 33.464844 34.894531 33.042969 35.160156 32.589844 C 35.425781 32.136719 35.652344 31.667969 35.835938 31.175781 C 36.019531 30.683594 36.15625 30.179688 36.25 29.664062 C 36.347656 29.148438 36.394531 28.628906 36.398438 28.105469 C 36.402344 27.582031 36.359375 27.058594 36.273438 26.542969 C 36.183594 26.027344 36.050781 25.519531 35.875 25.027344 C 35.699219 24.535156 35.480469 24.058594 35.21875 23.605469 C 34.957031 23.148438 34.660156 22.722656 34.324219 22.316406 C 33.988281 21.914062 33.621094 21.546875 33.21875 21.207031 C 32.820312 20.871094 32.390625 20.570312 31.9375 20.304688 C 31.484375 20.042969 31.011719 19.820312 30.519531 19.640625 C 30.027344 19.460938 29.523438 19.328125 29.003906 19.234375 C 28.488281 19.144531 27.96875 19.101562 27.445312 19.101562 Z M 18.636719 29.621094 C 18.277344 29.945312 17.902344 30.253906 17.515625 30.550781 C 17.890625 29.703125 18.21875 28.835938 18.496094 27.953125 C 18.496094 27.984375 18.492188 28.019531 18.492188 28.054688 C 18.492188 28.582031 18.542969 29.101562 18.636719 29.621094 Z M 8.722656 24.605469 C 8.578125 24.488281 8.410156 24.445312 8.226562 24.484375 L 6.324219 24.863281 C 6.539062 24.34375 6.820312 23.859375 7.164062 23.414062 L 10.230469 22.453125 C 10.46875 25.261719 11.15625 27.953125 12.292969 30.53125 C 11.074219 29.605469 9.984375 28.542969 9.023438 27.351562 L 8.941406 27.246094 L 8.941406 25.070312 C 8.941406 24.878906 8.867188 24.726562 8.722656 24.609375 Z M 7.746094 32.230469 C 7.746094 32.390625 7.71875 32.542969 7.65625 32.6875 C 7.597656 32.835938 7.507812 32.964844 7.398438 33.074219 C 7.285156 33.1875 7.15625 33.273438 7.011719 33.335938 C 6.863281 33.394531 6.710938 33.425781 6.554688 33.425781 C 6.394531 33.425781 6.242188 33.394531 6.097656 33.335938 C 5.949219 33.273438 5.820312 33.1875 5.710938 33.074219 C 5.597656 32.964844 5.511719 32.835938 5.449219 32.6875 C 5.390625 32.542969 5.359375 32.390625 5.359375 32.230469 C 5.359375 32.074219 5.390625 31.921875 5.449219 31.773438 C 5.511719 31.628906 5.597656 31.5 5.710938 31.386719 C 5.820312 31.277344 5.949219 31.1875 6.097656 31.128906 C 6.242188 31.066406 6.394531 31.039062 6.554688 31.039062 C 6.710938 31.039062 6.863281 31.066406 7.011719 31.128906 C 7.15625 31.1875 7.285156 31.277344 7.398438 31.386719 C 7.507812 31.5 7.597656 31.628906 7.65625 31.773438 C 7.71875 31.921875 7.746094 32.074219 7.746094 32.230469 Z M 14.257812 31.984375 L 13.5 30.308594 C 12.796875 28.761719 12.261719 27.160156 11.898438 25.5 C 12.839844 26.007812 13.84375 26.261719 14.910156 26.261719 C 15.976562 26.261719 16.980469 26.007812 17.917969 25.5 C 17.554688 27.160156 17.023438 28.761719 16.320312 30.308594 L 15.558594 31.984375 C 15.523438 32.0625 15.507812 32.144531 15.507812 32.230469 L 15.507812 35.8125 L 14.3125 35.8125 L 14.3125 32.230469 C 14.3125 32.144531 14.292969 32.0625 14.257812 31.984375 Z M 20.300781 22.679688 C 19.945312 23.152344 19.636719 23.65625 19.382812 24.1875 C 19.46875 23.617188 19.535156 23.039062 19.585938 22.457031 Z M 20.878906 13.726562 L 20.878906 11.339844 C 21.035156 11.339844 21.1875 11.371094 21.335938 11.429688 C 21.480469 11.492188 21.609375 11.578125 21.722656 11.691406 C 21.835938 11.800781 21.921875 11.929688 21.980469 12.078125 C 22.042969 12.222656 22.074219 12.375 22.074219 12.535156 C 22.074219 12.691406 22.042969 12.84375 21.980469 12.992188 C 21.921875 13.136719 21.835938 13.265625 21.722656 13.378906 C 21.609375 13.492188 21.480469 13.578125 21.335938 13.636719 C 21.1875 13.699219 21.035156 13.726562 20.878906 13.726562 Z M 7.746094 12.535156 C 7.746094 12.375 7.777344 12.222656 7.839844 12.078125 C 7.898438 11.929688 7.984375 11.800781 8.097656 11.691406 C 8.207031 11.578125 8.339844 11.492188 8.484375 11.429688 C 8.628906 11.371094 8.78125 11.339844 8.941406 11.339844 L 8.941406 13.726562 C 8.78125 13.726562 8.628906 13.699219 8.484375 13.636719 C 8.339844 13.578125 8.207031 13.492188 8.097656 13.378906 C 7.984375 13.265625 7.898438 13.136719 7.839844 12.992188 C 7.777344 12.84375 7.746094 12.691406 7.746094 12.535156 Z M 9.726562 6.398438 C 9.203125 7.183594 8.941406 8.050781 8.941406 8.996094 L 8.941406 10.148438 C 8.875 10.148438 8.816406 10.160156 8.753906 10.167969 L 8.707031 9.878906 C 8.464844 8.433594 8.347656 6.976562 8.347656 5.511719 C 8.347656 4.753906 8.082031 4.105469 7.546875 3.566406 C 8.597656 2.796875 9.742188 2.210938 10.980469 1.804688 C 12.222656 1.398438 13.492188 1.195312 14.796875 1.195312 L 16.601562 1.195312 C 17.039062 1.195312 17.433594 1.320312 17.785156 1.574219 C 18.140625 1.828125 18.382812 2.164062 18.523438 2.574219 C 18.59375 2.796875 18.746094 2.925781 18.96875 2.972656 C 19.324219 3.042969 19.652344 3.171875 19.960938 3.359375 C 20.269531 3.542969 20.539062 3.777344 20.765625 4.054688 C 20.996094 4.332031 21.171875 4.640625 21.292969 4.980469 C 21.414062 5.320312 21.476562 5.667969 21.476562 6.027344 C 21.476562 7.148438 21.382812 8.265625 21.199219 9.371094 L 21.066406 10.167969 C 21.003906 10.160156 20.941406 10.148438 20.878906 10.148438 L 20.878906 8.996094 C 20.878906 8.050781 20.617188 7.183594 20.09375 6.398438 C 19.800781 5.972656 19.410156 5.671875 18.917969 5.503906 C 18.425781 5.335938 17.933594 5.332031 17.441406 5.492188 L 17.046875 5.625 C 15.621094 6.097656 14.195312 6.097656 12.773438 5.625 L 12.375 5.492188 C 11.882812 5.332031 11.390625 5.339844 10.902344 5.507812 C 10.410156 5.675781 10.019531 5.972656 9.726562 6.398438 Z M 10.136719 14.921875 L 10.136719 8.996094 C 10.132812 8.292969 10.328125 7.648438 10.71875 7.0625 C 10.859375 6.851562 11.046875 6.707031 11.285156 6.625 C 11.523438 6.542969 11.761719 6.542969 12 6.621094 L 12.394531 6.753906 C 14.070312 7.3125 15.75 7.3125 17.425781 6.753906 L 17.820312 6.621094 C 18.058594 6.546875 18.296875 6.550781 18.53125 6.628906 C 18.769531 6.710938 18.957031 6.855469 19.101562 7.0625 C 19.492188 7.648438 19.6875 8.292969 19.683594 8.996094 L 19.683594 14.921875 C 19.683594 15.234375 19.652344 15.546875 19.59375 15.855469 C 19.53125 16.160156 19.441406 16.460938 19.320312 16.75 C 19.203125 17.039062 19.054688 17.3125 18.878906 17.574219 C 18.707031 17.835938 18.507812 18.078125 18.285156 18.296875 C 18.066406 18.519531 17.824219 18.71875 17.5625 18.890625 C 17.300781 19.066406 17.027344 19.214844 16.738281 19.332031 C 16.449219 19.453125 16.148438 19.542969 15.839844 19.605469 C 15.535156 19.667969 15.222656 19.695312 14.910156 19.695312 C 14.597656 19.695312 14.285156 19.667969 13.976562 19.605469 C 13.671875 19.542969 13.371094 19.453125 13.082031 19.332031 C 12.792969 19.214844 12.519531 19.066406 12.257812 18.890625 C 11.996094 18.71875 11.753906 18.519531 11.535156 18.296875 C 11.3125 18.078125 11.113281 17.835938 10.941406 17.574219 C 10.765625 17.3125 10.617188 17.039062 10.5 16.75 C 10.378906 16.460938 10.289062 16.160156 10.226562 15.855469 C 10.164062 15.546875 10.136719 15.234375 10.136719 14.921875 Z M 14.910156 20.890625 C 15.976562 20.890625 16.972656 20.621094 17.894531 20.082031 L 17.894531 21.488281 C 17.894531 21.78125 18.03125 21.96875 18.3125 22.058594 L 18.417969 22.089844 C 18.371094 22.683594 18.3125 23.273438 18.226562 23.855469 C 17.761719 24.246094 17.246094 24.546875 16.675781 24.757812 C 16.105469 24.964844 15.515625 25.070312 14.910156 25.070312 C 14.300781 25.070312 13.714844 24.964844 13.144531 24.757812 C 12.574219 24.546875 12.054688 24.246094 11.589844 23.855469 C 11.503906 23.273438 11.445312 22.683594 11.402344 22.089844 L 11.503906 22.058594 C 11.785156 21.972656 11.925781 21.78125 11.925781 21.488281 L 11.925781 20.082031 C 12.847656 20.621094 13.84375 20.890625 14.910156 20.890625 Z M 1.125 28.828125 C 1.160156 28.390625 1.242188 27.964844 1.382812 27.550781 C 1.65625 26.734375 2.097656 26.027344 2.710938 25.425781 C 3.324219 24.824219 4.039062 24.394531 4.859375 24.136719 L 5.421875 23.960938 C 5.339844 24.125 5.269531 24.292969 5.199219 24.460938 L 4.804688 25.445312 C 4.714844 25.667969 4.75 25.867188 4.898438 26.050781 C 5.023438 26.199219 5.183594 26.269531 5.378906 26.257812 C 5.414062 27.511719 5.5 28.777344 5.644531 30.027344 C 5.464844 30.097656 5.292969 30.191406 5.136719 30.304688 C 4.976562 30.417969 4.835938 30.546875 4.710938 30.695312 C 4.582031 30.839844 4.476562 31 4.386719 31.175781 C 4.300781 31.347656 4.234375 31.527344 4.191406 31.71875 C 4.148438 31.90625 4.125 32.097656 4.128906 32.292969 C 4.132812 32.484375 4.15625 32.675781 4.207031 32.863281 C 4.253906 33.050781 4.324219 33.230469 4.417969 33.402344 C 4.507812 33.574219 4.621094 33.730469 4.75 33.875 C 4.882812 34.019531 5.027344 34.144531 5.1875 34.253906 C 5.347656 34.359375 5.519531 34.449219 5.703125 34.515625 C 5.882812 34.582031 6.070312 34.628906 6.261719 34.648438 C 6.457031 34.671875 6.648438 34.671875 6.839844 34.644531 C 7.035156 34.621094 7.21875 34.574219 7.402344 34.503906 C 7.582031 34.433594 7.753906 34.34375 7.910156 34.230469 C 8.070312 34.121094 8.214844 33.992188 8.339844 33.84375 C 8.46875 33.699219 8.578125 33.539062 8.667969 33.367188 C 8.757812 33.195312 8.824219 33.015625 8.871094 32.828125 C 8.914062 32.640625 8.9375 32.449219 8.9375 32.253906 C 8.9375 32.058594 8.914062 31.867188 8.867188 31.679688 C 8.820312 31.492188 8.75 31.3125 8.660156 31.140625 C 8.570312 30.96875 8.460938 30.808594 8.332031 30.664062 C 8.203125 30.519531 8.058594 30.390625 7.898438 30.28125 C 7.738281 30.171875 7.570312 30.082031 7.386719 30.011719 C 7.207031 29.945312 7.019531 29.898438 6.828125 29.875 C 6.683594 28.597656 6.597656 27.3125 6.566406 26.035156 L 7.746094 25.796875 L 7.746094 27.457031 C 7.746094 27.597656 7.789062 27.71875 7.878906 27.828125 L 8.089844 28.097656 C 9.511719 29.867188 11.1875 31.355469 13.121094 32.550781 L 13.121094 35.8125 L 0.628906 35.8125 Z M 16.699219 35.8125 L 16.699219 32.558594 C 17.496094 32.066406 18.25 31.519531 18.96875 30.917969 C 19.320312 31.953125 19.84375 32.890625 20.535156 33.734375 C 21.230469 34.574219 22.050781 35.269531 22.996094 35.8125 Z M 27.445312 35.8125 C 26.933594 35.8125 26.429688 35.761719 25.929688 35.664062 C 25.429688 35.5625 24.945312 35.417969 24.476562 35.222656 C 24.003906 35.027344 23.558594 34.789062 23.132812 34.503906 C 22.710938 34.222656 22.316406 33.902344 21.957031 33.539062 C 21.597656 33.179688 21.277344 32.789062 20.992188 32.363281 C 20.710938 31.941406 20.46875 31.492188 20.277344 31.023438 C 20.082031 30.550781 19.933594 30.066406 19.832031 29.566406 C 19.734375 29.066406 19.683594 28.5625 19.683594 28.054688 C 19.683594 27.542969 19.734375 27.039062 19.832031 26.539062 C 19.933594 26.039062 20.082031 25.554688 20.277344 25.082031 C 20.46875 24.613281 20.710938 24.167969 20.992188 23.742188 C 21.277344 23.320312 21.597656 22.925781 21.957031 22.566406 C 22.316406 22.207031 22.710938 21.882812 23.132812 21.601562 C 23.558594 21.320312 24.003906 21.078125 24.476562 20.882812 C 24.945312 20.691406 25.429688 20.542969 25.929688 20.441406 C 26.429688 20.34375 26.933594 20.292969 27.445312 20.292969 C 27.953125 20.292969 28.457031 20.34375 28.957031 20.441406 C 29.457031 20.542969 29.941406 20.691406 30.414062 20.882812 C 30.882812 21.078125 31.332031 21.320312 31.753906 21.601562 C 32.179688 21.882812 32.570312 22.207031 32.929688 22.566406 C 33.292969 22.925781 33.613281 23.320312 33.894531 23.742188 C 34.179688 24.167969 34.417969 24.613281 34.613281 25.082031 C 34.808594 25.554688 34.957031 26.039062 35.054688 26.539062 C 35.152344 27.039062 35.203125 27.542969 35.203125 28.054688 C 35.203125 28.5625 35.152344 29.066406 35.054688 29.566406 C 34.953125 30.066406 34.804688 30.550781 34.609375 31.019531 C 34.414062 31.492188 34.175781 31.9375 33.894531 32.363281 C 33.609375 32.785156 33.289062 33.175781 32.929688 33.539062 C 32.566406 33.898438 32.175781 34.21875 31.753906 34.503906 C 31.328125 34.785156 30.882812 35.023438 30.414062 35.21875 C 29.941406 35.414062 29.457031 35.5625 28.957031 35.664062 C 28.457031 35.761719 27.953125 35.8125 27.445312 35.8125 Z M 27.445312 35.8125 " fill-opacity="1" fill-rule="nonzero"/></g><path fill="#7ed957" d="M 29.171875 4.429688 C 29.390625 4.339844 29.585938 4.214844 29.757812 4.078125 C 29.726562 3.792969 29.679688 3.566406 29.613281 3.410156 C 29.425781 2.949219 28.921875 2.269531 28.621094 2.160156 C 28.574219 2.140625 28.535156 2.140625 28.507812 2.152344 C 28.335938 2.242188 28.355469 2.703125 28.410156 3.015625 C 28.53125 3.011719 28.609375 3.019531 28.617188 3.019531 C 28.660156 3.023438 28.691406 3.0625 28.6875 3.105469 C 28.683594 3.148438 28.648438 3.183594 28.601562 3.179688 C 28.597656 3.179688 28.128906 3.136719 27.738281 3.332031 C 27.347656 3.53125 27.09375 3.929688 27.089844 3.933594 C 27.074219 3.960938 27.050781 3.972656 27.023438 3.972656 C 27.007812 3.972656 26.992188 3.96875 26.980469 3.960938 C 26.945312 3.9375 26.933594 3.886719 26.957031 3.851562 C 26.960938 3.84375 27.003906 3.777344 27.078125 3.683594 C 26.871094 3.445312 26.519531 3.148438 26.347656 3.234375 C 26.316406 3.25 26.296875 3.28125 26.28125 3.328125 C 26.1875 3.640625 26.410156 4.460938 26.652344 4.890625 C 26.722656 5.011719 26.835938 5.152344 26.988281 5.308594 L 26.988281 4.644531 C 26.988281 4.621094 26.996094 4.597656 27.015625 4.582031 C 27.035156 4.570312 27.058594 4.5625 27.082031 4.566406 C 27.09375 4.570312 28.265625 4.796875 29.171875 4.429688 Z M 29.171875 4.429688 " fill-opacity="1" fill-rule="nonzero"/><g clip-path="url(#bb75c002d1)"><path fill="#7ed957" d="M 26.480469 7.214844 C 26.15625 6.789062 26.191406 6.015625 26.234375 5.753906 C 26.261719 5.59375 26.15625 5.441406 26 5.414062 C 25.984375 5.410156 25.964844 5.410156 25.949219 5.410156 C 25.808594 5.410156 25.691406 5.511719 25.664062 5.652344 C 25.644531 5.773438 25.480469 6.867188 26.027344 7.578125 C 26.21875 7.824219 26.542969 8.019531 26.988281 8.15625 L 26.988281 7.535156 C 26.75 7.445312 26.578125 7.339844 26.480469 7.214844 Z M 26.480469 7.214844 " fill-opacity="1" fill-rule="nonzero"/></g><path fill="#7ed957" d="M 34.871094 3.753906 C 34.792969 3.242188 33.949219 3.339844 33.9375 3.339844 C 33.914062 3.34375 33.886719 3.335938 33.867188 3.3125 C 33.867188 3.3125 33.644531 3.054688 33.304688 2.902344 C 32.964844 2.746094 32.632812 2.746094 32.628906 2.746094 C 32.628906 2.746094 32.628906 2.746094 32.625 2.746094 C 32.601562 2.746094 32.574219 2.734375 32.5625 2.710938 C 32.554688 2.707031 32.070312 2 31.636719 2.277344 C 31.3125 2.488281 31.449219 3.242188 31.566406 3.65625 C 31.757812 3.390625 31.972656 3.167969 32.214844 2.984375 C 32.25 2.957031 32.300781 2.964844 32.324219 3 C 32.351562 3.035156 32.347656 3.085938 32.3125 3.109375 C 31.996094 3.351562 31.726562 3.660156 31.496094 4.050781 C 31.671875 4.199219 31.878906 4.335938 32.113281 4.429688 C 32.675781 4.65625 33.335938 4.65625 33.761719 4.621094 C 33.816406 4.339844 33.832031 4.070312 33.8125 3.796875 C 33.808594 3.753906 33.839844 3.714844 33.882812 3.710938 C 33.929688 3.707031 33.964844 3.742188 33.96875 3.785156 C 33.992188 4.054688 33.976562 4.324219 33.929688 4.605469 C 34.0625 4.589844 34.15625 4.574219 34.191406 4.570312 C 34.472656 4.402344 34.921875 4.082031 34.871094 3.753906 Z M 34.871094 3.753906 " fill-opacity="1" fill-rule="nonzero"/><g clip-path="url(#aecf0e7faf)"><path fill="#7ed957" d="M 32.054688 4.578125 C 31.289062 4.265625 30.8125 3.574219 30.644531 3.285156 C 30.472656 3.574219 29.996094 4.265625 29.230469 4.578125 C 28.425781 4.90625 27.453125 4.789062 27.144531 4.738281 L 27.144531 9.5 C 27.144531 10 27.523438 10.515625 28.207031 10.953125 C 28.855469 11.371094 29.742188 11.683594 30.644531 11.816406 C 31.542969 11.683594 32.429688 11.371094 33.082031 10.953125 C 33.761719 10.515625 34.140625 10 34.140625 9.5 L 34.140625 4.738281 C 33.835938 4.789062 32.859375 4.90625 32.054688 4.578125 Z M 32.390625 8.480469 L 31.320312 8.480469 L 31.320312 9.566406 L 29.964844 9.566406 L 29.964844 8.480469 L 28.894531 8.480469 L 28.894531 7.101562 L 29.964844 7.101562 L 29.964844 6.019531 L 31.320312 6.019531 L 31.320312 7.101562 L 32.390625 7.101562 Z M 32.390625 8.480469 " fill-opacity="1" fill-rule="nonzero"/></g><g clip-path="url(#e3e78e0bf9)"><path fill="#7ed957" d="M 35.128906 6.476562 C 35.128906 6.472656 35.296875 6.300781 35.296875 6.125 C 35.296875 5.953125 35.148438 5.804688 35.148438 5.804688 C 35.125 5.78125 35.117188 5.746094 35.128906 5.71875 C 35.152344 5.65625 35.207031 5.472656 35.152344 5.367188 C 35.121094 5.300781 35.039062 5.238281 34.964844 5.195312 C 34.949219 5.402344 34.90625 5.824219 34.792969 6.082031 C 34.660156 6.375 34.390625 6.605469 34.296875 6.679688 L 34.296875 7.644531 C 34.375 7.648438 34.492188 7.640625 34.5625 7.589844 C 34.65625 7.523438 34.667969 7.324219 34.664062 7.257812 C 34.660156 7.234375 34.671875 7.214844 34.6875 7.199219 C 34.703125 7.183594 34.722656 7.175781 34.746094 7.175781 C 34.824219 7.179688 35.046875 7.164062 35.125 7.042969 C 35.210938 6.917969 35.144531 6.648438 35.109375 6.558594 C 35.101562 6.527344 35.105469 6.496094 35.128906 6.476562 Z M 35.128906 6.476562 " fill-opacity="1" fill-rule="nonzero"/></g></svg>