<svg xmlns="http://www.w3.org/2000/svg" xmlns:xlink="http://www.w3.org/1999/xlink" width="50" zoomAndPan="magnify" viewBox="0 0 37.5 37.499999" height="50" preserveAspectRatio="xMidYMid meet" version="1.0"><defs><clipPath id="a7aed4ab8c"><path d="M 0 0 L 37 0 L 37 37.007812 L 0 37.007812 Z M 0 0 " clip-rule="nonzero"/></clipPath><clipPath id="ce685c40d3"><path d="M 0 0 L 37 0 L 37 37.007812 L 0 37.007812 Z M 0 0 " clip-rule="nonzero"/></clipPath></defs><g clip-path="url(#a7aed4ab8c)"><path fill="#7ed957" d="M 34.613281 3.011719 C 33.246094 1.253906 31.238281 0.390625 28.8125 0.507812 C 28.042969 -0.828125 26.433594 -0.0976562 25.644531 0.265625 C 25.550781 0.308594 25.464844 0.351562 25.378906 0.386719 C 25.277344 0.429688 25.171875 0.472656 25.0625 0.515625 C 24.410156 0.785156 23.59375 1.121094 23.289062 1.898438 C 23.101562 2.386719 23.152344 2.957031 23.445312 3.589844 L 23.484375 3.675781 C 23.78125 4.324219 24.191406 4.722656 24.6875 4.851562 C 24.816406 4.886719 24.9375 4.898438 25.0625 4.898438 C 25.71875 4.898438 26.328125 4.464844 26.832031 4.105469 C 26.929688 4.039062 27.023438 3.972656 27.117188 3.90625 C 27.191406 3.855469 27.273438 3.800781 27.359375 3.742188 C 27.953125 3.351562 28.929688 2.710938 29.101562 1.789062 C 31.011719 1.753906 32.519531 2.429688 33.589844 3.800781 C 35.695312 6.5 35.601562 11.117188 34.625 14.261719 C 33.808594 16.886719 32.449219 18.976562 31.476562 20.238281 C 30.925781 20.089844 30.308594 20.253906 29.90625 20.714844 C 28.148438 22.714844 23.800781 25.25 21.574219 26.433594 C 19.367188 25.25 15.070312 22.714844 13.3125 20.714844 C 12.914062 20.265625 12.316406 20.097656 11.773438 20.230469 C 10.800781 18.960938 9.445312 16.875 8.636719 14.261719 C 7.648438 11.085938 7.566406 6.453125 9.699219 3.761719 C 10.742188 2.449219 12.191406 1.789062 14.007812 1.785156 C 14.171875 2.707031 15.152344 3.351562 15.746094 3.738281 C 15.832031 3.792969 15.914062 3.847656 15.992188 3.902344 C 16.085938 3.964844 16.179688 4.035156 16.273438 4.101562 C 16.777344 4.460938 17.386719 4.894531 18.042969 4.894531 C 18.164062 4.894531 18.292969 4.875 18.417969 4.847656 C 18.921875 4.714844 19.324219 4.320312 19.625 3.675781 L 19.664062 3.585938 C 19.960938 2.953125 20.011719 2.382812 19.820312 1.894531 C 19.519531 1.113281 18.699219 0.78125 18.046875 0.511719 C 17.941406 0.464844 17.835938 0.421875 17.730469 0.382812 C 17.648438 0.34375 17.558594 0.304688 17.464844 0.261719 C 16.679688 -0.0976562 15.070312 -0.832031 14.296875 0.5 C 11.960938 0.425781 10.027344 1.273438 8.6875 2.960938 C 6.929688 5.175781 5.847656 9.652344 7.402344 14.648438 C 8.28125 17.480469 9.71875 19.691406 10.757812 21.042969 C 10.480469 21.589844 10.546875 22.277344 10.976562 22.769531 C 13.746094 25.925781 20.582031 29.433594 20.867188 29.582031 L 20.964844 29.628906 C 21.183594 32.363281 20.453125 34.542969 18.886719 35.714844 C 17.617188 36.664062 15.988281 36.789062 14.515625 36.050781 C 12.359375 34.96875 11.074219 32.28125 11.070312 28.851562 C 11.070312 28.84375 11.070312 28.839844 11.070312 28.835938 C 11.070312 28.835938 11.070312 28.832031 11.070312 28.832031 C 11.066406 26.414062 10.125 24.523438 8.488281 23.636719 C 7.285156 22.984375 5.921875 23.019531 4.835938 23.726562 C 3.679688 24.480469 3.046875 25.875 3.042969 27.609375 C 1.117188 27.929688 -0.355469 29.605469 -0.355469 31.621094 C -0.355469 33.863281 1.472656 35.691406 3.714844 35.691406 C 5.957031 35.691406 7.785156 33.859375 7.785156 31.621094 C 7.785156 29.589844 6.285156 27.902344 4.335938 27.601562 C 4.339844 26.320312 4.765625 25.316406 5.542969 24.808594 C 6.222656 24.367188 7.09375 24.351562 7.867188 24.773438 C 9.074219 25.425781 9.769531 26.90625 9.769531 28.835938 C 9.769531 32.832031 11.285156 35.882812 13.925781 37.210938 C 14.730469 37.613281 15.597656 37.8125 16.445312 37.8125 C 17.589844 37.8125 18.710938 37.453125 19.652344 36.75 C 21.574219 35.316406 22.488281 32.75 22.253906 29.589844 L 22.265625 29.582031 C 22.554688 29.433594 29.46875 25.925781 32.238281 22.769531 C 32.660156 22.289062 32.730469 21.621094 32.476562 21.078125 C 33.519531 19.730469 34.972656 17.5 35.859375 14.648438 C 37.398438 9.691406 36.34375 5.230469 34.613281 3.011719 Z M 27.738281 1.246094 L 27.769531 1.304688 C 27.941406 1.671875 27.675781 1.992188 26.648438 2.664062 C 26.554688 2.722656 26.464844 2.78125 26.386719 2.835938 C 26.285156 2.90625 26.183594 2.980469 26.078125 3.050781 C 25.742188 3.292969 25.242188 3.65625 25.019531 3.597656 C 24.941406 3.574219 24.804688 3.441406 24.660156 3.125 L 24.621094 3.042969 C 24.523438 2.835938 24.425781 2.550781 24.5 2.371094 C 24.601562 2.109375 25.109375 1.898438 25.558594 1.710938 C 25.679688 1.667969 25.792969 1.617188 25.902344 1.570312 C 25.992188 1.53125 26.085938 1.484375 26.183594 1.441406 C 27.347656 0.90625 27.601562 0.941406 27.730469 1.214844 M 15.335938 1.300781 L 15.367188 1.222656 C 15.425781 1.101562 15.507812 1.027344 15.679688 1.027344 C 15.898438 1.027344 16.265625 1.148438 16.914062 1.445312 C 17.011719 1.492188 17.109375 1.535156 17.195312 1.574219 C 17.304688 1.625 17.425781 1.671875 17.539062 1.714844 C 17.984375 1.902344 18.496094 2.113281 18.601562 2.375 C 18.671875 2.554688 18.570312 2.839844 18.472656 3.046875 L 18.4375 3.132812 C 18.292969 3.445312 18.152344 3.578125 18.074219 3.601562 C 17.855469 3.660156 17.351562 3.292969 17.015625 3.054688 C 16.910156 2.980469 16.808594 2.910156 16.707031 2.839844 C 16.625 2.785156 16.535156 2.726562 16.445312 2.667969 C 15.421875 1.992188 15.160156 1.675781 15.335938 1.300781 Z M 6.492188 31.621094 C 6.492188 33.148438 5.242188 34.394531 3.714844 34.394531 C 2.183594 34.394531 0.9375 33.148438 0.9375 31.621094 C 0.9375 30.089844 2.183594 28.84375 3.714844 28.84375 C 5.242188 28.84375 6.492188 30.089844 6.492188 31.621094 Z M 6.492188 31.621094 " fill-opacity="1" fill-rule="nonzero"/></g><path fill="#7ed957" d="M 22.839844 11.839844 C 23.421875 12.054688 23.929688 11.882812 24.363281 11.484375 C 24.980469 10.914062 25.21875 10.191406 25.117188 9.359375 C 25.054688 8.859375 24.84375 8.421875 24.398438 8.144531 C 24.226562 8.042969 24.011719 8.003906 23.8125 7.929688 C 23.734375 7.929688 23.660156 7.929688 23.582031 7.929688 C 23.558594 7.941406 23.539062 7.949219 23.515625 7.953125 C 23.234375 7.992188 22.984375 8.105469 22.765625 8.277344 C 22.027344 8.855469 21.683594 9.917969 21.953125 10.816406 C 22.097656 11.285156 22.363281 11.664062 22.839844 11.839844 Z M 22.839844 11.839844 " fill-opacity="1" fill-rule="nonzero"/><path fill="#7ed957" d="M 19.265625 7.929688 C 19.191406 7.929688 19.113281 7.929688 19.035156 7.929688 C 19.019531 7.9375 19.003906 7.949219 18.992188 7.949219 C 18.601562 7.996094 18.292969 8.1875 18.066406 8.503906 C 17.746094 8.953125 17.652344 9.457031 17.722656 9.988281 C 17.820312 10.703125 18.136719 11.296875 18.765625 11.695312 C 19.417969 12.105469 20.1875 11.96875 20.625 11.347656 C 20.992188 10.835938 21.050781 10.257812 20.921875 9.660156 C 20.769531 8.976562 20.425781 8.425781 19.785156 8.101562 C 19.625 8.019531 19.4375 7.984375 19.265625 7.929688 Z M 19.265625 7.929688 " fill-opacity="1" fill-rule="nonzero"/><path fill="#7ed957" d="M 18.429688 14.382812 C 18.792969 13.390625 18.316406 12.136719 17.394531 11.613281 C 16.585938 11.15625 15.707031 11.441406 15.359375 12.285156 C 15.292969 12.453125 15.261719 12.632812 15.210938 12.8125 C 15.210938 12.957031 15.210938 13.101562 15.210938 13.25 C 15.222656 13.277344 15.230469 13.308594 15.234375 13.335938 C 15.320312 13.960938 15.585938 14.492188 16.066406 14.902344 C 16.394531 15.183594 16.777344 15.355469 17.214844 15.332031 C 17.828125 15.292969 18.226562 14.941406 18.429688 14.382812 Z M 18.429688 14.382812 " fill-opacity="1" fill-rule="nonzero"/><path fill="#7ed957" d="M 19.835938 13.339844 C 19.625 13.652344 19.515625 14.011719 19.433594 14.375 C 19.328125 14.878906 19.160156 15.359375 18.828125 15.761719 C 18.574219 16.058594 18.292969 16.332031 18.011719 16.605469 C 17.582031 17.019531 17.273438 17.496094 17.210938 18.101562 C 17.167969 18.527344 17.277344 18.902344 17.613281 19.175781 C 18.074219 19.554688 18.621094 19.671875 19.191406 19.5625 C 20.132812 19.378906 21.078125 19.273438 22.035156 19.335938 C 22.59375 19.375 23.15625 19.441406 23.707031 19.539062 C 24.140625 19.617188 24.550781 19.601562 24.957031 19.457031 C 25.546875 19.246094 25.871094 18.785156 25.839844 18.183594 C 25.816406 17.796875 25.707031 17.429688 25.46875 17.121094 C 25.261719 16.855469 25.035156 16.605469 24.785156 16.382812 C 24.171875 15.824219 23.753906 15.160156 23.601562 14.332031 C 23.5625 14.132812 23.5 13.941406 23.429688 13.75 C 23.125 12.9375 22.394531 12.4375 21.53125 12.4375 C 20.8125 12.441406 20.238281 12.742188 19.835938 13.339844 Z M 19.835938 13.339844 " fill-opacity="1" fill-rule="nonzero"/><path fill="#7ed957" d="M 24.777344 14.964844 C 25.214844 15.402344 25.910156 15.453125 26.496094 15.097656 C 27.292969 14.621094 27.765625 13.589844 27.59375 12.679688 C 27.519531 12.253906 27.34375 11.878906 26.972656 11.632812 C 26.457031 11.28125 25.921875 11.324219 25.414062 11.636719 C 24.65625 12.101562 24.324219 12.820312 24.285156 13.597656 C 24.296875 14.171875 24.425781 14.609375 24.777344 14.964844 Z M 24.777344 14.964844 " fill-opacity="1" fill-rule="nonzero"/><path fill="#7ed957" d="M 4.898438 31.621094 C 4.898438 31.777344 4.867188 31.925781 4.808594 32.074219 C 4.746094 32.21875 4.660156 32.34375 4.550781 32.457031 C 4.441406 32.566406 4.3125 32.652344 4.167969 32.714844 C 4.023438 32.773438 3.871094 32.804688 3.714844 32.804688 C 3.558594 32.804688 3.40625 32.773438 3.261719 32.714844 C 3.117188 32.652344 2.988281 32.566406 2.875 32.457031 C 2.765625 32.34375 2.679688 32.21875 2.621094 32.074219 C 2.558594 31.925781 2.53125 31.777344 2.53125 31.621094 C 2.53125 31.460938 2.558594 31.3125 2.621094 31.167969 C 2.679688 31.019531 2.765625 30.894531 2.875 30.78125 C 2.988281 30.671875 3.117188 30.585938 3.261719 30.527344 C 3.40625 30.464844 3.558594 30.433594 3.714844 30.433594 C 3.871094 30.433594 4.023438 30.464844 4.167969 30.527344 C 4.3125 30.585938 4.441406 30.671875 4.550781 30.78125 C 4.660156 30.894531 4.746094 31.019531 4.808594 31.167969 C 4.867188 31.3125 4.898438 31.460938 4.898438 31.621094 Z M 4.898438 31.621094 " fill-opacity="1" fill-rule="nonzero"/><g clip-path="url(#ce685c40d3)"><path fill="#5019dd" d="M 34.269531 3.339844 C 32.929688 1.621094 30.964844 0.777344 28.589844 0.894531 C 27.835938 -0.414062 26.261719 0.300781 25.492188 0.65625 C 25.402344 0.699219 25.3125 0.742188 25.230469 0.773438 C 25.132812 0.820312 25.03125 0.859375 24.921875 0.902344 C 24.285156 1.164062 23.484375 1.496094 23.1875 2.253906 C 23 2.730469 23.050781 3.289062 23.339844 3.910156 L 23.375 3.992188 C 23.667969 4.628906 24.070312 5.015625 24.554688 5.144531 C 24.679688 5.175781 24.796875 5.1875 24.921875 5.1875 C 25.566406 5.1875 26.160156 4.765625 26.652344 4.414062 C 26.75 4.347656 26.839844 4.28125 26.929688 4.21875 C 27.003906 4.171875 27.085938 4.117188 27.167969 4.058594 C 27.75 3.675781 28.707031 3.050781 28.871094 2.144531 C 30.742188 2.113281 32.21875 2.773438 33.265625 4.117188 C 35.324219 6.753906 35.234375 11.273438 34.277344 14.347656 C 33.480469 16.917969 32.148438 18.960938 31.195312 20.199219 C 30.65625 20.054688 30.054688 20.214844 29.660156 20.664062 C 27.941406 22.625 23.683594 25.101562 21.507812 26.257812 C 19.347656 25.101562 15.144531 22.625 13.425781 20.664062 C 13.035156 20.222656 12.453125 20.058594 11.917969 20.191406 C 10.96875 18.949219 9.640625 16.910156 8.847656 14.347656 C 7.882812 11.246094 7.800781 6.710938 9.890625 4.074219 C 10.910156 2.792969 12.328125 2.144531 14.105469 2.140625 C 14.265625 3.042969 15.226562 3.675781 15.808594 4.054688 C 15.890625 4.109375 15.972656 4.160156 16.046875 4.214844 C 16.136719 4.277344 16.230469 4.34375 16.324219 4.410156 C 16.8125 4.761719 17.410156 5.183594 18.054688 5.183594 C 18.171875 5.183594 18.296875 5.167969 18.421875 5.140625 C 18.910156 5.011719 19.308594 4.625 19.601562 3.992188 L 19.640625 3.90625 C 19.929688 3.285156 19.980469 2.726562 19.792969 2.25 C 19.496094 1.488281 18.695312 1.160156 18.058594 0.898438 C 17.953125 0.851562 17.851562 0.808594 17.75 0.769531 C 17.667969 0.730469 17.578125 0.695312 17.488281 0.652344 C 16.71875 0.300781 15.144531 -0.417969 14.390625 0.882812 C 12.101562 0.8125 10.207031 1.644531 8.898438 3.292969 C 7.179688 5.460938 6.117188 9.839844 7.640625 14.726562 C 8.5 17.5 9.90625 19.664062 10.925781 20.988281 C 10.652344 21.523438 10.71875 22.195312 11.140625 22.675781 C 13.847656 25.765625 20.535156 29.195312 20.816406 29.339844 L 20.910156 29.386719 C 21.125 32.0625 20.410156 34.195312 18.878906 35.339844 C 17.636719 36.269531 16.042969 36.394531 14.601562 35.671875 C 12.492188 34.613281 11.234375 31.980469 11.230469 28.625 C 11.230469 28.617188 11.230469 28.613281 11.230469 28.609375 C 11.230469 28.609375 11.230469 28.605469 11.230469 28.605469 C 11.226562 26.242188 10.308594 24.390625 8.703125 23.523438 C 7.527344 22.886719 6.191406 22.921875 5.128906 23.613281 C 4 24.351562 3.382812 25.714844 3.378906 27.410156 C 1.492188 27.722656 0.0507812 29.363281 0.0507812 31.335938 C 0.0507812 33.53125 1.839844 35.316406 4.03125 35.316406 C 6.226562 35.316406 8.015625 33.527344 8.015625 31.335938 C 8.015625 29.347656 6.546875 27.699219 4.644531 27.402344 C 4.648438 26.148438 5.0625 25.167969 5.820312 24.671875 C 6.484375 24.238281 7.339844 24.222656 8.097656 24.636719 C 9.277344 25.273438 9.957031 26.722656 9.957031 28.609375 C 9.957031 32.523438 11.441406 35.507812 14.027344 36.804688 C 14.8125 37.199219 15.660156 37.394531 16.492188 37.394531 C 17.609375 37.394531 18.707031 37.042969 19.628906 36.355469 C 21.507812 34.949219 22.402344 32.4375 22.171875 29.347656 L 22.183594 29.339844 C 22.46875 29.195312 29.234375 25.765625 31.941406 22.675781 C 32.355469 22.207031 32.425781 21.550781 32.175781 21.019531 C 33.195312 19.699219 34.617188 17.519531 35.484375 14.726562 C 36.992188 9.878906 35.957031 5.515625 34.269531 3.339844 Z M 27.539062 1.613281 L 27.570312 1.671875 C 27.738281 2.03125 27.476562 2.34375 26.472656 3.003906 C 26.382812 3.0625 26.296875 3.117188 26.214844 3.171875 C 26.117188 3.238281 26.019531 3.3125 25.914062 3.382812 C 25.585938 3.617188 25.09375 3.972656 24.882812 3.914062 C 24.800781 3.894531 24.671875 3.761719 24.527344 3.453125 L 24.488281 3.375 C 24.394531 3.171875 24.300781 2.890625 24.371094 2.714844 C 24.46875 2.460938 24.96875 2.253906 25.410156 2.070312 C 25.523438 2.027344 25.636719 1.976562 25.742188 1.933594 C 25.828125 1.894531 25.925781 1.847656 26.019531 1.808594 C 27.15625 1.285156 27.402344 1.316406 27.53125 1.585938 M 15.402344 1.667969 L 15.4375 1.59375 C 15.492188 1.472656 15.570312 1.398438 15.742188 1.398438 C 15.957031 1.398438 16.3125 1.519531 16.949219 1.8125 C 17.042969 1.859375 17.140625 1.898438 17.226562 1.9375 C 17.332031 1.984375 17.449219 2.03125 17.558594 2.074219 C 17.996094 2.257812 18.496094 2.464844 18.597656 2.71875 C 18.667969 2.894531 18.570312 3.175781 18.472656 3.378906 L 18.4375 3.460938 C 18.296875 3.765625 18.160156 3.898438 18.082031 3.917969 C 17.867188 3.976562 17.378906 3.617188 17.046875 3.386719 C 16.945312 3.3125 16.847656 3.242188 16.746094 3.175781 C 16.664062 3.125 16.578125 3.066406 16.492188 3.007812 C 15.488281 2.34375 15.234375 2.035156 15.402344 1.667969 Z M 6.75 31.335938 C 6.75 32.832031 5.53125 34.050781 4.03125 34.050781 C 2.535156 34.050781 1.316406 32.832031 1.316406 31.335938 C 1.316406 29.835938 2.535156 28.617188 4.03125 28.617188 C 5.53125 28.617188 6.75 29.835938 6.75 31.335938 Z M 6.75 31.335938 " fill-opacity="1" fill-rule="nonzero"/></g><path fill="#5019dd" d="M 22.746094 11.984375 C 23.3125 12.191406 23.8125 12.023438 24.238281 11.632812 C 24.839844 11.074219 25.074219 10.367188 24.976562 9.554688 C 24.914062 9.0625 24.707031 8.636719 24.269531 8.367188 C 24.101562 8.265625 23.890625 8.226562 23.699219 8.15625 C 23.625 8.15625 23.550781 8.15625 23.472656 8.15625 C 23.449219 8.164062 23.429688 8.171875 23.410156 8.175781 C 23.132812 8.214844 22.890625 8.324219 22.675781 8.496094 C 21.949219 9.058594 21.617188 10.097656 21.878906 10.980469 C 22.019531 11.4375 22.28125 11.808594 22.746094 11.984375 Z M 22.746094 11.984375 " fill-opacity="1" fill-rule="nonzero"/><path fill="#5019dd" d="M 19.25 8.15625 C 19.175781 8.15625 19.101562 8.15625 19.023438 8.15625 C 19.011719 8.160156 18.992188 8.171875 18.980469 8.171875 C 18.597656 8.21875 18.296875 8.410156 18.074219 8.71875 C 17.761719 9.15625 17.671875 9.648438 17.742188 10.167969 C 17.835938 10.871094 18.144531 11.449219 18.757812 11.839844 C 19.398438 12.242188 20.152344 12.105469 20.582031 11.5 C 20.941406 10.996094 20.996094 10.433594 20.871094 9.847656 C 20.722656 9.179688 20.382812 8.640625 19.757812 8.320312 C 19.601562 8.242188 19.417969 8.210938 19.25 8.15625 Z M 19.25 8.15625 " fill-opacity="1" fill-rule="nonzero"/><path fill="#5019dd" d="M 18.433594 14.46875 C 18.789062 13.5 18.320312 12.269531 17.417969 11.761719 C 16.628906 11.3125 15.765625 11.589844 15.429688 12.414062 C 15.363281 12.582031 15.332031 12.757812 15.285156 12.929688 C 15.285156 13.074219 15.285156 13.214844 15.285156 13.359375 C 15.292969 13.386719 15.300781 13.417969 15.304688 13.445312 C 15.390625 14.054688 15.652344 14.574219 16.121094 14.976562 C 16.441406 15.25 16.8125 15.421875 17.242188 15.394531 C 17.84375 15.359375 18.230469 15.015625 18.433594 14.46875 Z M 18.433594 14.46875 " fill-opacity="1" fill-rule="nonzero"/><path fill="#5019dd" d="M 19.804688 13.449219 C 19.601562 13.753906 19.492188 14.105469 19.414062 14.460938 C 19.3125 14.953125 19.144531 15.425781 18.820312 15.816406 C 18.574219 16.109375 18.296875 16.378906 18.019531 16.644531 C 17.601562 17.050781 17.300781 17.515625 17.238281 18.109375 C 17.195312 18.523438 17.304688 18.890625 17.632812 19.160156 C 18.082031 19.53125 18.617188 19.640625 19.175781 19.535156 C 20.097656 19.359375 21.023438 19.253906 21.957031 19.316406 C 22.507812 19.355469 23.054688 19.417969 23.59375 19.515625 C 24.019531 19.589844 24.417969 19.578125 24.820312 19.433594 C 25.394531 19.226562 25.714844 18.777344 25.679688 18.1875 C 25.660156 17.808594 25.554688 17.449219 25.316406 17.148438 C 25.117188 16.886719 24.894531 16.644531 24.648438 16.425781 C 24.046875 15.878906 23.640625 15.230469 23.492188 14.417969 C 23.453125 14.226562 23.394531 14.035156 23.324219 13.851562 C 23.027344 13.054688 22.3125 12.5625 21.46875 12.5625 C 20.761719 12.566406 20.203125 12.863281 19.804688 13.449219 Z M 19.804688 13.449219 " fill-opacity="1" fill-rule="nonzero"/><path fill="#5019dd" d="M 24.640625 15.039062 C 25.070312 15.464844 25.75 15.515625 26.324219 15.167969 C 27.101562 14.703125 27.566406 13.695312 27.398438 12.804688 C 27.324219 12.386719 27.152344 12.019531 26.789062 11.777344 C 26.285156 11.433594 25.761719 11.476562 25.265625 11.78125 C 24.523438 12.238281 24.199219 12.9375 24.160156 13.703125 C 24.171875 14.261719 24.300781 14.691406 24.640625 15.039062 Z M 24.640625 15.039062 " fill-opacity="1" fill-rule="nonzero"/><path fill="#5019dd" d="M 5.191406 31.335938 C 5.191406 31.488281 5.160156 31.636719 5.101562 31.777344 C 5.042969 31.917969 4.960938 32.042969 4.851562 32.152344 C 4.742188 32.261719 4.617188 32.347656 4.476562 32.40625 C 4.335938 32.464844 4.1875 32.492188 4.03125 32.492188 C 3.878906 32.492188 3.730469 32.464844 3.589844 32.40625 C 3.449219 32.347656 3.324219 32.261719 3.214844 32.152344 C 3.105469 32.042969 3.019531 31.917969 2.960938 31.777344 C 2.902344 31.636719 2.875 31.488281 2.875 31.335938 C 2.875 31.179688 2.902344 31.03125 2.960938 30.890625 C 3.019531 30.75 3.105469 30.625 3.214844 30.515625 C 3.324219 30.40625 3.449219 30.324219 3.589844 30.265625 C 3.730469 30.207031 3.878906 30.175781 4.03125 30.175781 C 4.1875 30.175781 4.335938 30.207031 4.476562 30.265625 C 4.617188 30.324219 4.742188 30.40625 4.851562 30.515625 C 4.960938 30.625 5.042969 30.75 5.101562 30.890625 C 5.160156 31.03125 5.191406 31.179688 5.191406 31.335938 Z M 5.191406 31.335938 " fill-opacity="1" fill-rule="nonzero"/></svg>