<svg xmlns="http://www.w3.org/2000/svg" xmlns:xlink="http://www.w3.org/1999/xlink" width="1920" zoomAndPan="magnify" viewBox="0 0 1440 809.999993" height="1080" preserveAspectRatio="xMidYMid meet" version="1.0"><defs><g/><clipPath id="4aa670161b"><path d="M 1247 342 L 1325 342 L 1325 410 L 1247 410 Z M 1247 342 " clip-rule="nonzero"/></clipPath><clipPath id="04ae708906"><path d="M 1245.769531 342.507812 L 1325.261719 341.425781 L 1326.191406 409.667969 L 1246.699219 410.75 Z M 1245.769531 342.507812 " clip-rule="nonzero"/></clipPath><clipPath id="ef76296f1a"><path d="M 1245.769531 342.507812 L 1325.261719 341.425781 L 1326.191406 409.667969 L 1246.699219 410.75 Z M 1245.769531 342.507812 " clip-rule="nonzero"/></clipPath><clipPath id="0de1b0d648"><path d="M 1250 345 L 1322 345 L 1322 407 L 1250 407 Z M 1250 345 " clip-rule="nonzero"/></clipPath><clipPath id="45d061f0b2"><path d="M 1248.8125 345.035156 L 1322.304688 344.03125 L 1323.164062 407.027344 L 1249.667969 408.027344 Z M 1248.8125 345.035156 " clip-rule="nonzero"/></clipPath><clipPath id="87b591b01b"><path d="M 1248.8125 345.035156 L 1322.304688 344.03125 L 1323.164062 407.027344 L 1249.667969 408.027344 Z M 1248.8125 345.035156 " clip-rule="nonzero"/></clipPath><clipPath id="a1440fab87"><path d="M 23 323 L 101 323 L 101 398 L 23 398 Z M 23 323 " clip-rule="nonzero"/></clipPath><clipPath id="0cf016d776"><path d="M 10.265625 357.195312 L 72.636719 307.898438 L 114.957031 361.445312 L 52.585938 410.742188 Z M 10.265625 357.195312 " clip-rule="nonzero"/></clipPath><clipPath id="19ab32ebe6"><path d="M 10.265625 357.195312 L 72.636719 307.898438 L 114.957031 361.445312 L 52.585938 410.742188 Z M 10.265625 357.195312 " clip-rule="nonzero"/></clipPath><clipPath id="5c66daaf7c"><path d="M 26 325 L 98 325 L 98 395 L 26 395 Z M 26 325 " clip-rule="nonzero"/></clipPath><clipPath id="34bb0c07bc"><path d="M 14.214844 357.351562 L 71.878906 311.773438 L 110.945312 361.199219 L 53.28125 406.777344 Z M 14.214844 357.351562 " clip-rule="nonzero"/></clipPath><clipPath id="565b968414"><path d="M 14.214844 357.351562 L 71.878906 311.773438 L 110.945312 361.199219 L 53.28125 406.777344 Z M 14.214844 357.351562 " clip-rule="nonzero"/></clipPath></defs><g clip-path="url(#4aa670161b)"><g clip-path="url(#04ae708906)"><g clip-path="url(#ef76296f1a)"><path fill="#7ed957" d="M 1264.4375 365.742188 C 1266.664062 371.824219 1264.863281 378.074219 1260.417969 379.699219 C 1255.976562 381.328125 1250.566406 377.71875 1248.339844 371.636719 C 1246.113281 365.554688 1247.910156 359.304688 1252.355469 357.675781 C 1256.800781 356.050781 1262.210938 359.660156 1264.4375 365.742188 Z M 1300.980469 408.691406 C 1299.011719 408.71875 1297.113281 408.371094 1295.285156 407.640625 C 1293.457031 406.914062 1291.839844 405.863281 1290.429688 404.488281 C 1290.171875 404.234375 1289.890625 404.011719 1289.589844 403.816406 C 1289.285156 403.621094 1288.964844 403.453125 1288.632812 403.320312 C 1288.296875 403.1875 1287.953125 403.085938 1287.597656 403.023438 C 1287.242188 402.957031 1286.886719 402.925781 1286.523438 402.929688 C 1286.164062 402.9375 1285.808594 402.976562 1285.453125 403.050781 C 1285.101562 403.125 1284.761719 403.234375 1284.429688 403.378906 C 1284.097656 403.519531 1283.785156 403.695312 1283.488281 403.898438 C 1283.191406 404.101562 1282.914062 404.335938 1282.664062 404.59375 C 1281.984375 405.292969 1281.242188 405.917969 1280.441406 406.46875 C 1279.636719 407.023438 1278.789062 407.492188 1277.894531 407.875 C 1277 408.261719 1276.074219 408.554688 1275.121094 408.757812 C 1274.167969 408.960938 1273.203125 409.070312 1272.230469 409.082031 C 1271.253906 409.09375 1270.289062 409.015625 1269.332031 408.835938 C 1268.371094 408.660156 1267.441406 408.390625 1266.535156 408.03125 C 1265.628906 407.667969 1264.769531 407.222656 1263.949219 406.695312 C 1263.132812 406.164062 1262.375 405.558594 1261.675781 404.878906 C 1260.980469 404.199219 1260.355469 403.457031 1259.800781 402.65625 C 1259.25 401.851562 1258.78125 401.003906 1258.394531 400.109375 C 1258.011719 399.210938 1257.714844 398.289062 1257.511719 397.335938 C 1257.308594 396.382812 1257.203125 395.417969 1257.1875 394.445312 C 1257.175781 393.46875 1257.257812 392.503906 1257.433594 391.546875 C 1257.613281 390.585938 1257.878906 389.65625 1258.242188 388.75 C 1258.601562 387.84375 1259.046875 386.984375 1259.578125 386.164062 C 1260.109375 385.347656 1260.710938 384.589844 1261.390625 383.890625 C 1262.195312 383.066406 1263.039062 382.28125 1263.917969 381.539062 C 1264.796875 380.796875 1265.710938 380.097656 1266.660156 379.445312 C 1267.609375 378.789062 1268.589844 378.183594 1269.597656 377.628906 C 1270.605469 377.070312 1271.640625 376.566406 1272.699219 376.109375 C 1273.753906 375.652344 1274.832031 375.25 1275.929688 374.902344 C 1277.027344 374.550781 1278.140625 374.257812 1279.269531 374.015625 C 1280.394531 373.777344 1281.53125 373.59375 1282.675781 373.464844 C 1283.820312 373.335938 1284.96875 373.261719 1286.121094 373.246094 C 1287.273438 373.230469 1288.421875 373.273438 1289.570312 373.371094 C 1290.71875 373.46875 1291.859375 373.621094 1292.992188 373.832031 C 1294.125 374.039062 1295.242188 374.304688 1296.351562 374.625 C 1297.457031 374.945312 1298.546875 375.316406 1299.617188 375.742188 C 1300.6875 376.167969 1301.734375 376.648438 1302.757812 377.175781 C 1303.78125 377.707031 1304.773438 378.285156 1305.742188 378.910156 C 1306.707031 379.539062 1307.640625 380.210938 1308.539062 380.929688 C 1309.441406 381.648438 1310.304688 382.410156 1311.128906 383.214844 C 1311.652344 383.722656 1312.136719 384.269531 1312.578125 384.847656 C 1313.019531 385.429688 1313.417969 386.039062 1313.769531 386.675781 C 1314.125 387.316406 1314.429688 387.976562 1314.683594 388.660156 C 1314.9375 389.34375 1315.140625 390.042969 1315.292969 390.757812 C 1315.445312 391.472656 1315.546875 392.191406 1315.589844 392.921875 C 1315.636719 393.648438 1315.628906 394.375 1315.566406 395.105469 C 1315.503906 395.832031 1315.390625 396.550781 1315.222656 397.261719 C 1315.054688 397.96875 1314.835938 398.664062 1314.566406 399.34375 C 1314.296875 400.019531 1313.976562 400.675781 1313.613281 401.304688 C 1313.246094 401.9375 1312.835938 402.539062 1312.378906 403.109375 C 1311.921875 403.679688 1311.429688 404.214844 1310.894531 404.710938 C 1310.359375 405.207031 1309.792969 405.664062 1309.191406 406.078125 C 1308.589844 406.492188 1307.960938 406.859375 1307.308594 407.179688 C 1306.652344 407.5 1305.976562 407.769531 1305.28125 407.992188 C 1304.585938 408.214844 1303.875 408.382812 1303.15625 408.5 C 1302.4375 408.617188 1301.710938 408.679688 1300.980469 408.691406 Z M 1284.386719 355.3125 C 1285.1875 362.671875 1281.472656 369.113281 1276.09375 369.695312 C 1270.710938 370.28125 1265.703125 364.785156 1264.90625 357.421875 C 1264.109375 350.0625 1267.820312 343.621094 1273.203125 343.039062 C 1278.582031 342.457031 1283.589844 347.949219 1284.386719 355.3125 Z M 1287.363281 355.269531 C 1286.765625 362.652344 1290.652344 368.988281 1296.050781 369.425781 C 1301.441406 369.859375 1306.296875 364.230469 1306.894531 356.851562 C 1307.492188 349.472656 1303.605469 343.136719 1298.210938 342.699219 C 1292.816406 342.261719 1287.960938 347.890625 1287.363281 355.269531 Z M 1307.589844 365.15625 C 1305.53125 371.292969 1307.496094 377.492188 1311.984375 379 C 1316.472656 380.503906 1321.78125 376.746094 1323.84375 370.609375 C 1325.902344 364.46875 1323.933594 358.269531 1319.449219 356.761719 C 1314.960938 355.257812 1309.652344 359.015625 1307.589844 365.15625 Z M 1307.589844 365.15625 " fill-opacity="1" fill-rule="nonzero"/></g></g></g><g clip-path="url(#0de1b0d648)"><g clip-path="url(#45d061f0b2)"><g clip-path="url(#87b591b01b)"><path fill="#5019dd" d="M 1266.074219 366.519531 C 1268.132812 372.144531 1266.46875 377.925781 1262.359375 379.429688 C 1258.25 380.933594 1253.246094 377.59375 1251.1875 371.972656 C 1249.128906 366.347656 1250.789062 360.566406 1254.902344 359.0625 C 1259.011719 357.554688 1264.015625 360.894531 1266.074219 366.519531 Z M 1299.871094 406.238281 C 1298.050781 406.265625 1296.296875 405.945312 1294.605469 405.269531 C 1292.914062 404.597656 1291.414062 403.625 1290.113281 402.351562 C 1289.875 402.121094 1289.613281 401.914062 1289.335938 401.730469 C 1289.054688 401.550781 1288.761719 401.398438 1288.449219 401.273438 C 1288.140625 401.152344 1287.820312 401.058594 1287.492188 401 C 1287.164062 400.9375 1286.835938 400.910156 1286.5 400.914062 C 1286.167969 400.917969 1285.839844 400.957031 1285.511719 401.023438 C 1285.1875 401.09375 1284.871094 401.195312 1284.5625 401.328125 C 1284.257812 401.460938 1283.964844 401.621094 1283.691406 401.808594 C 1283.417969 401.996094 1283.164062 402.210938 1282.929688 402.453125 C 1282.300781 403.097656 1281.617188 403.675781 1280.875 404.1875 C 1280.132812 404.695312 1279.347656 405.128906 1278.519531 405.488281 C 1277.691406 405.84375 1276.835938 406.113281 1275.953125 406.300781 C 1275.074219 406.492188 1274.183594 406.589844 1273.28125 406.601562 C 1272.378906 406.613281 1271.484375 406.539062 1270.601562 406.375 C 1269.714844 406.210938 1268.851562 405.964844 1268.015625 405.628906 C 1267.175781 405.296875 1266.378906 404.882812 1265.625 404.394531 C 1264.867188 403.902344 1264.167969 403.34375 1263.523438 402.714844 C 1262.875 402.085938 1262.296875 401.402344 1261.785156 400.660156 C 1261.277344 399.914062 1260.84375 399.128906 1260.484375 398.300781 C 1260.128906 397.476562 1259.859375 396.621094 1259.671875 395.738281 C 1259.480469 394.855469 1259.382812 393.964844 1259.371094 393.066406 C 1259.359375 392.164062 1259.433594 391.269531 1259.597656 390.382812 C 1259.761719 389.496094 1260.011719 388.636719 1260.34375 387.796875 C 1260.675781 386.960938 1261.089844 386.164062 1261.578125 385.410156 C 1262.070312 384.652344 1262.628906 383.953125 1263.257812 383.304688 C 1264 382.542969 1264.78125 381.816406 1265.59375 381.128906 C 1266.40625 380.441406 1267.253906 379.796875 1268.132812 379.191406 C 1269.007812 378.585938 1269.914062 378.027344 1270.847656 377.511719 C 1271.777344 376.996094 1272.734375 376.53125 1273.714844 376.109375 C 1274.691406 375.6875 1275.6875 375.316406 1276.703125 374.992188 C 1277.71875 374.667969 1278.746094 374.394531 1279.789062 374.171875 C 1280.832031 373.949219 1281.882812 373.78125 1282.941406 373.660156 C 1284 373.542969 1285.0625 373.476562 1286.128906 373.460938 C 1287.191406 373.445312 1288.257812 373.484375 1289.316406 373.574219 C 1290.378906 373.664062 1291.433594 373.808594 1292.480469 374 C 1293.53125 374.195312 1294.566406 374.4375 1295.589844 374.734375 C 1296.613281 375.03125 1297.621094 375.375 1298.609375 375.769531 C 1299.597656 376.164062 1300.566406 376.605469 1301.511719 377.09375 C 1302.460938 377.585938 1303.378906 378.121094 1304.273438 378.699219 C 1305.167969 379.28125 1306.03125 379.902344 1306.863281 380.566406 C 1307.695312 381.230469 1308.492188 381.9375 1309.257812 382.679688 C 1310.230469 383.625 1311.042969 384.691406 1311.699219 385.882812 C 1312.355469 387.070312 1312.824219 388.328125 1313.109375 389.65625 C 1313.390625 390.984375 1313.476562 392.324219 1313.359375 393.675781 C 1313.246094 395.027344 1312.9375 396.335938 1312.4375 397.59375 C 1311.933594 398.855469 1311.257812 400.015625 1310.414062 401.078125 C 1309.566406 402.140625 1308.582031 403.054688 1307.464844 403.824219 C 1306.347656 404.59375 1305.140625 405.183594 1303.847656 405.59375 C 1302.554688 406.007812 1301.230469 406.222656 1299.871094 406.238281 Z M 1284.527344 356.875 C 1285.261719 363.679688 1281.828125 369.636719 1276.855469 370.175781 C 1271.878906 370.714844 1267.246094 365.632812 1266.507812 358.824219 C 1265.769531 352.019531 1269.203125 346.0625 1274.179688 345.523438 C 1279.15625 344.984375 1283.785156 350.066406 1284.527344 356.875 Z M 1287.277344 356.835938 C 1286.726562 363.660156 1290.320312 369.523438 1295.308594 369.925781 C 1300.296875 370.328125 1304.789062 365.121094 1305.339844 358.296875 C 1305.894531 351.472656 1302.296875 345.613281 1297.308594 345.207031 C 1292.320312 344.804688 1287.828125 350.011719 1287.277344 356.835938 Z M 1305.984375 365.976562 C 1304.078125 371.65625 1305.898438 377.386719 1310.046875 378.78125 C 1314.199219 380.171875 1319.109375 376.699219 1321.015625 371.019531 C 1322.917969 365.339844 1321.101562 359.609375 1316.949219 358.214844 C 1312.800781 356.824219 1307.890625 360.296875 1305.984375 365.976562 Z M 1305.984375 365.976562 " fill-opacity="1" fill-rule="nonzero"/></g></g></g><path stroke-linecap="butt" transform="matrix(0.75, 0, 0, 0.75, -74.502705, 323.342435)" fill="none" stroke-linejoin="miter" d="M 236.295286 151.991344 C 250.274453 151.991344 267.50362 148.913219 275.774454 145.803844 C 277.175496 145.121552 278.435913 143.585094 278.300496 141.637177 C 277.857788 131.68926 277.581746 121.881968 276.899454 111.934051 C 276.592163 107.730926 273.107787 107.18405 271.159871 109.574676 C 262.03487 118.803843 252.258828 122.293426 240.362994 122.293426 C 226.899452 122.293426 218.21716 116.413218 218.21716 103.835092 C 218.21716 87.876758 225.633827 79.465299 238.654661 79.465299 C 248.602578 79.465299 255.607786 83.090299 261.623412 89.137175 C 263.743204 91.49655 266.680704 90.814258 267.092162 87.600716 C 267.90987 81.413216 269.040079 69.246549 269.894246 63.095507 C 270.165079 61.11634 269.618204 59.30384 267.774454 58.309048 C 259.675495 54.277798 249.727578 51.887173 236.706744 51.887173 C 203.967159 51.887173 181.545283 73.043424 181.545283 105.918425 C 181.545283 139.928844 204.102576 151.991344 236.295286 151.991344 Z M 304.592164 152.126761 C 314.670289 152.126761 323.76404 146.934052 328.409873 134.491344 C 329.503624 131.824677 331.487999 132.371552 331.352582 135.173635 C 331.04529 138.116344 330.498415 142.730927 330.086957 145.392386 C 329.503624 148.470511 331.758832 150.590303 335.248416 151.001761 C 339.175499 151.408011 344.920291 151.548636 348.711958 151.548636 C 352.607791 151.548636 358.623417 151.408011 362.14425 151.001761 C 364.368209 150.590303 365.76925 149.053844 365.76925 146.658011 C 365.357792 132.512177 363.95675 113.064259 362.691125 101.303842 C 361.01925 85.345508 351.482791 73.725715 322.941123 73.725715 C 307.258831 73.725715 296.35258 75.980924 291.024455 77.793424 C 289.347372 78.475716 288.493205 80.152799 288.357788 82.267383 C 287.94633 88.147591 287.534871 95.699675 287.670288 101.579884 C 287.670288 105.37155 290.612997 106.913217 292.972372 104.381967 C 300.967164 98.913217 312.451539 95.699675 319.73279 95.699675 C 327.696332 95.699675 330.498415 98.230925 330.498415 100.897592 C 330.498415 104.658009 325.883832 105.647592 317.066123 106.772592 C 298.16508 108.996551 282.47758 116.413218 282.47758 130.97051 C 282.47758 145.668427 290.336955 152.126761 304.592164 152.126761 Z M 321.816123 128.168427 C 317.336956 128.168427 315.38904 126.355926 315.38904 122.152801 C 315.38904 116.548634 320.685915 112.517384 325.883832 112.517384 C 329.23279 112.517384 330.904665 114.876759 330.904665 117.949676 C 330.904665 124.40801 325.336957 128.168427 321.816123 128.168427 Z M 399.935919 152.126761 C 411.284878 152.126761 419.795295 145.975719 424.581753 136.027802 C 426.118212 133.090302 428.201545 133.50176 427.930712 136.850719 C 427.790087 139.928844 427.383837 143.444469 426.800503 146.658011 C 426.389045 149.053844 428.201545 150.725719 430.456754 151.001761 C 434.21717 151.408011 440.816129 151.548636 444.435921 151.548636 C 448.092171 151.548636 455.508838 151.408011 459.852588 151.001761 C 461.935922 150.725719 463.47238 149.053844 463.47238 146.798636 C 463.47238 113.746551 461.935922 75.262174 460.258838 54.96009 C 460.123422 52.876756 458.586963 51.475714 456.639047 51.204881 C 452.842171 50.621548 446.831754 50.621548 443.170296 50.621548 C 439.685921 50.621548 432.133837 50.621548 428.066129 51.033006 C 425.84217 51.475714 423.863003 53.288214 424.274462 55.543423 C 425.982795 65.043423 427.790087 78.751757 428.201545 89.960091 C 428.336962 93.751758 426.118212 93.616341 424.581753 90.949675 C 419.24842 79.605924 411.967169 73.861132 399.800502 73.861132 C 381.58696 73.861132 369.826542 89.2778 369.826542 114.600718 C 369.826542 139.517385 382.029668 152.126761 399.935919 152.126761 Z M 416.446336 126.22051 C 409.576544 126.22051 404.961961 121.335093 404.961961 113.335092 C 404.961961 105.37155 409.441128 99.9028 416.446336 99.9028 C 423.180712 99.9028 427.790087 105.37155 427.790087 113.335092 C 427.790087 121.335093 423.040087 126.22051 416.446336 126.22051 Z M 490.07134 152.126761 C 500.149465 152.126761 509.243216 146.934052 513.889049 134.491344 C 514.9828 131.824677 516.967175 132.371552 516.831758 135.173635 C 516.524466 138.116344 515.977591 142.730927 515.566133 145.392386 C 514.9828 148.470511 517.243216 150.590303 520.727592 151.001761 C 524.654675 151.408011 530.399467 151.548636 534.191134 151.548636 C 538.086967 151.548636 544.102593 151.408011 547.623426 151.001761 C 549.847385 150.590303 551.248426 149.053844 551.248426 146.658011 C 550.836968 132.512177 549.435926 113.064259 548.170301 101.303842 C 546.498426 85.345508 536.961967 73.725715 508.425508 73.725715 C 492.738007 73.725715 481.831756 75.980924 476.503631 77.793424 C 474.826548 78.475716 473.972381 80.152799 473.836964 82.267383 C 473.425506 88.147591 473.014047 95.699675 473.149464 101.579884 C 473.149464 105.37155 476.092173 106.913217 478.451548 104.381967 C 486.44634 98.913217 497.930715 95.699675 505.211966 95.699675 C 513.175508 95.699675 515.977591 98.230925 515.977591 100.897592 C 515.977591 104.658009 511.363008 105.647592 502.545299 106.772592 C 483.644256 108.996551 467.956756 116.413218 467.956756 130.97051 C 467.956756 145.668427 475.816131 152.126761 490.07134 152.126761 Z M 507.295299 128.168427 C 502.816132 128.168427 500.868216 126.355926 500.868216 122.152801 C 500.868216 116.548634 506.165091 112.517384 511.363008 112.517384 C 514.711966 112.517384 516.383841 114.876759 516.383841 117.949676 C 516.383841 124.40801 510.816133 128.168427 507.295299 128.168427 Z M 594.644262 151.991344 C 620.139055 151.991344 634.258847 143.585094 634.258847 129.163218 C 634.258847 103.116342 591.842178 109.131967 591.842178 100.314258 C 591.842178 96.9653 596.18072 95.017383 604.592179 95.1528 C 611.154679 95.293425 618.738013 97.376758 624.040097 100.314258 C 626.430722 102.126759 629.232805 101.168425 629.097389 97.647592 C 628.956764 92.350716 628.378639 85.616341 627.96718 80.460091 C 627.831764 78.751757 626.701555 77.381966 625.02968 76.798632 C 616.482805 74.850716 603.738012 73.861132 594.779679 73.861132 C 571.680719 73.861132 558.51926 80.460091 558.51926 95.017383 C 558.51926 120.345509 597.58697 114.465301 597.58697 123.418426 C 597.58697 127.074676 593.96197 128.887177 586.373428 128.887177 C 578.545303 128.887177 569.180719 126.22051 561.45676 121.199676 C 559.23801 119.215301 555.889052 119.934051 555.717177 123.28301 C 555.58176 130.152802 555.446343 136.715302 555.58176 143.585094 C 555.58176 145.392386 556.70676 146.658011 558.51926 147.204886 C 568.467177 150.006969 583.159886 151.991344 594.644262 151.991344 Z M 681.1651 152.126761 C 689.842183 152.126761 697.670309 150.861136 704.816142 148.913219 C 706.488018 148.199678 707.889059 146.387177 707.889059 143.855927 C 708.024476 139.241344 708.165101 130.152802 708.024476 124.954885 C 707.889059 121.605926 705.222392 120.480926 703.139059 122.017385 C 700.748434 123.28301 696.13385 124.548635 693.191142 124.548635 C 687.316142 124.548635 682.836975 121.746551 682.566141 116.137176 C 682.2901 111.798634 682.2901 106.772592 682.701558 101.850717 C 682.972391 99.49655 684.514058 97.954883 687.451558 97.954883 C 691.7901 97.954883 698.524475 98.230925 702.868226 98.501758 C 704.951559 98.7778 706.764059 96.694467 706.764059 94.439258 L 706.764059 78.751757 C 706.764059 76.527799 704.951559 74.715299 702.868226 74.715299 C 697.399475 74.715299 690.972392 74.991341 685.503641 74.991341 C 684.373433 74.991341 683.555725 73.861132 683.555725 72.189257 C 683.555725 68.699674 684.238016 65.17884 684.956766 61.251757 C 685.232808 59.027798 683.38385 57.079881 681.1651 56.77259 C 677.232808 56.361131 669.680724 56.225715 666.19114 56.225715 C 662.810932 56.361131 657.649473 56.361131 654.264057 56.77259 C 652.31614 57.079881 650.779681 58.61634 650.50364 60.569465 C 650.09739 64.189257 649.790098 69.246549 649.649473 73.043424 C 649.514056 73.996549 648.831765 74.850716 647.701556 74.850716 L 640.831764 74.850716 C 638.748431 74.850716 637.211972 76.527799 637.076556 78.611132 C 637.076556 83.944466 636.935931 89.137175 637.076556 94.298633 C 637.211972 96.418425 638.748431 98.230925 640.831764 98.230925 C 642.816139 98.095508 644.764056 98.095508 646.576556 98.095508 C 647.701556 97.954883 648.696348 98.7778 648.555723 99.9028 C 647.430723 108.585092 647.430723 117.538218 647.430723 123.418426 C 647.430723 143.444469 661.988015 152.126761 681.1651 152.126761 Z M 730.586977 151.548636 C 734.482811 151.548636 742.206769 151.548636 745.961978 151.137178 C 748.08177 150.861136 750.170311 149.053844 749.758853 146.387177 C 748.628645 139.517385 747.639061 131.111135 747.639061 122.428843 C 747.639061 111.798634 755.774478 105.100717 763.73802 105.100717 C 770.331771 105.100717 774.946354 107.595509 779.284896 111.527801 C 781.232813 114.053842 784.753646 112.788217 785.029688 109.408009 C 785.748438 100.897592 786.43073 92.350716 786.977605 83.668424 C 786.977605 81.689258 786.43073 80.012174 784.894271 78.611132 C 781.68073 75.673632 777.066146 73.861132 771.321354 73.861132 C 760.659895 73.861132 753.685937 82.131966 750.170311 97.647592 C 749.482811 100.314258 747.36302 100.178842 747.36302 97.100717 C 747.36302 91.225716 747.946353 85.892383 749.17552 79.465299 C 749.758853 77.210091 748.222395 75.126757 745.555728 74.850716 C 742.477603 74.408007 734.206769 74.27259 731.128644 74.27259 C 727.92031 74.27259 721.904685 74.27259 718.248435 74.850716 C 716.300518 75.126757 714.758851 76.527799 714.623435 78.475716 C 712.779684 97.819467 711.821351 116.991343 711.685934 146.934052 C 711.685934 149.189261 713.35781 150.725719 715.305726 151.001761 C 719.649477 151.272594 727.066144 151.548636 730.586977 151.548636 Z M 812.316148 152.126761 C 822.394273 152.126761 831.488024 146.934052 836.133857 134.491344 C 837.227607 131.824677 839.211983 132.371552 839.076566 135.173635 C 838.769274 138.116344 838.222399 142.730927 837.810941 145.392386 C 837.227607 148.470511 839.482816 150.590303 842.972399 151.001761 C 846.899483 151.408011 852.644275 151.548636 856.435942 151.548636 C 860.331775 151.548636 866.347401 151.408011 869.868234 151.001761 C 872.092193 150.590303 873.493234 149.053844 873.493234 146.658011 C 873.081776 132.512177 871.680734 113.064259 870.415109 101.303842 C 868.738026 85.345508 859.206775 73.725715 830.665107 73.725715 C 814.977606 73.725715 804.076564 75.980924 798.74323 77.793424 C 797.071355 78.475716 796.217189 80.152799 796.081772 82.267383 C 795.670314 88.147591 795.258855 95.699675 795.394272 101.579884 C 795.394272 105.37155 798.33698 106.913217 800.691147 104.381967 C 808.691148 98.913217 820.175523 95.699675 827.456774 95.699675 C 835.415107 95.699675 838.222399 98.230925 838.222399 100.897592 C 838.222399 104.658009 833.607816 105.647592 824.790107 106.772592 C 805.889064 108.996551 790.201563 116.413218 790.201563 130.97051 C 790.201563 145.668427 798.060939 152.126761 812.316148 152.126761 Z M 829.540107 128.168427 C 825.06094 128.168427 823.113023 126.355926 823.113023 122.152801 C 823.113023 116.548634 828.409899 112.517384 833.607816 112.517384 C 836.956774 112.517384 838.628649 114.876759 838.628649 117.949676 C 838.628649 124.40801 833.060941 128.168427 829.540107 128.168427 Z M 897.305735 151.548636 C 901.201569 151.548636 908.925528 151.548636 912.685945 151.137178 C 914.805736 150.861136 916.88907 149.053844 916.477611 146.387177 C 915.352611 139.517385 914.35782 131.111135 914.35782 122.428843 C 914.35782 111.798634 922.493237 105.100717 930.456779 105.100717 C 937.055737 105.100717 941.670321 107.595509 946.008863 111.527801 C 947.95678 114.053842 951.477613 112.788217 951.748447 109.408009 C 952.467197 100.897592 953.149488 92.350716 953.696363 83.668424 C 953.696363 81.689258 953.149488 80.012174 951.61303 78.611132 C 948.399488 75.673632 943.784904 73.861132 938.045321 73.861132 C 927.383862 73.861132 920.409903 82.131966 916.88907 97.647592 C 916.206778 100.314258 914.086986 100.178842 914.086986 97.100717 C 914.086986 91.225716 914.67032 85.892383 915.899486 79.465299 C 916.477611 77.210091 914.941153 75.126757 912.274486 74.850716 C 909.201569 74.408007 900.930736 74.27259 897.85261 74.27259 C 894.639069 74.27259 888.623443 74.27259 884.967193 74.850716 C 883.019276 75.126757 881.482818 76.527799 881.347401 78.475716 C 879.498443 97.819467 878.54011 116.991343 878.404693 146.934052 C 878.404693 149.189261 880.081776 150.725719 882.029693 151.001761 C 886.368235 151.272594 893.784902 151.548636 897.305735 151.548636 Z M 1051.008868 151.991344 C 1064.982827 151.991344 1082.211995 148.913219 1090.482829 145.803844 C 1091.88387 145.121552 1093.149495 143.585094 1093.00887 141.637177 C 1092.566162 131.68926 1092.295329 121.881968 1091.607829 111.934051 C 1091.300537 107.730926 1087.816162 107.18405 1085.868245 109.574676 C 1076.743244 118.803843 1066.967202 122.293426 1055.071368 122.293426 C 1041.607826 122.293426 1032.925534 116.413218 1032.925534 103.835092 C 1032.925534 87.876758 1040.342201 79.465299 1053.363035 79.465299 C 1063.310952 79.465299 1070.316161 83.090299 1076.331786 89.137175 C 1078.451578 91.49655 1081.389078 90.814258 1081.800536 87.600716 C 1082.618245 81.413216 1083.748453 69.246549 1084.60262 63.095507 C 1084.878662 61.11634 1084.331787 59.30384 1082.482828 58.309048 C 1074.383869 54.277798 1064.435952 51.887173 1051.415118 51.887173 C 1018.675533 51.887173 996.253657 73.043424 996.253657 105.918425 C 996.253657 139.928844 1018.81095 151.991344 1051.008868 151.991344 Z M 1140.456789 152.126761 C 1165.644291 152.126761 1183.550542 141.908011 1183.550542 115.012176 C 1183.550542 89.68405 1165.779707 73.725715 1140.456789 73.725715 C 1115.097413 73.725715 1097.185954 89.68405 1097.185954 115.012176 C 1097.185954 141.908011 1115.26408 152.126761 1140.456789 152.126761 Z M 1140.456789 127.621552 C 1133.586997 127.621552 1128.696372 122.017385 1128.696372 113.064259 C 1128.696372 104.381967 1133.446372 98.095508 1140.456789 98.095508 C 1147.461998 98.095508 1152.211998 104.381967 1152.211998 113.064259 C 1152.211998 122.017385 1147.326581 127.621552 1140.456789 127.621552 Z M 1207.352626 151.548636 C 1211.149501 151.548636 1217.712002 151.408011 1221.368252 151.001761 C 1223.587002 150.725719 1225.128669 149.189261 1224.988044 146.798636 C 1223.863044 117.267384 1224.170335 82.131966 1226.972419 55.543423 C 1227.24846 53.152798 1225.571377 51.340298 1223.316169 51.033006 C 1219.113043 50.621548 1211.696376 50.621548 1208.071376 50.621548 C 1204.550543 50.621548 1198.675542 50.756964 1195.185959 51.204881 C 1193.066167 51.475714 1191.529709 52.876756 1191.258875 54.824673 C 1189.717208 75.673632 1188.045333 114.465301 1188.045333 146.798636 C 1188.045333 149.053844 1189.717208 150.725719 1191.837 151.001761 C 1196.008875 151.408011 1203.290126 151.548636 1207.352626 151.548636 Z M 1253.545337 152.126761 C 1263.628671 152.126761 1272.717213 146.934052 1277.368255 134.491344 C 1278.462005 131.824677 1280.441171 132.371552 1280.305755 135.173635 C 1279.998463 138.116344 1279.451588 142.730927 1279.04013 145.392386 C 1278.462005 148.470511 1280.717213 150.590303 1284.201588 151.001761 C 1288.13388 151.408011 1293.873464 151.548636 1297.665131 151.548636 C 1301.566172 151.548636 1307.576589 151.408011 1311.097423 151.001761 C 1313.321381 150.590303 1314.722423 149.053844 1314.722423 146.658011 C 1314.310965 132.512177 1312.909923 113.064259 1311.644298 101.303842 C 1309.972423 85.345508 1300.435964 73.725715 1271.899504 73.725715 C 1256.212004 73.725715 1245.305753 75.980924 1239.977628 77.793424 C 1238.300544 78.475716 1237.446378 80.152799 1237.310961 82.267383 C 1236.899503 88.147591 1236.488044 95.699675 1236.628669 101.579884 C 1236.628669 105.37155 1239.566169 106.913217 1241.925544 104.381967 C 1249.920337 98.913217 1261.404712 95.699675 1268.685962 95.699675 C 1276.649505 95.699675 1279.451588 98.230925 1279.451588 100.897592 C 1279.451588 104.658009 1274.837004 105.647592 1266.019296 106.772592 C 1247.118253 108.996551 1231.430752 116.413218 1231.430752 130.97051 C 1231.430752 145.668427 1239.290128 152.126761 1253.545337 152.126761 Z M 1270.769296 128.168427 C 1266.290129 128.168427 1264.342212 126.355926 1264.342212 122.152801 C 1264.342212 116.548634 1269.644296 112.517384 1274.837004 112.517384 C 1278.185963 112.517384 1279.863046 114.876759 1279.863046 117.949676 C 1279.863046 124.40801 1274.290129 128.168427 1270.769296 128.168427 Z M 1383.477635 152.126761 C 1401.389094 152.126761 1413.555761 139.517385 1413.555761 114.600718 C 1413.555761 89.2778 1401.800552 73.861132 1383.61826 73.861132 C 1371.415134 73.861132 1364.133884 79.605924 1358.837009 90.949675 C 1357.30055 93.616341 1355.045342 93.751758 1355.180758 89.960091 C 1355.592217 78.751757 1357.435967 65.043423 1359.11305 55.543423 C 1359.5193 53.288214 1357.571384 51.475714 1355.316175 51.033006 C 1351.248467 50.621548 1343.696383 50.621548 1340.212008 50.621548 C 1336.555758 50.621548 1330.540132 50.621548 1326.779715 51.204881 C 1324.79534 51.475714 1323.258882 52.876756 1323.123465 54.96009 C 1321.446382 75.262174 1319.909923 113.746551 1319.909923 146.798636 C 1319.909923 149.189261 1321.446382 150.725719 1323.534924 151.001761 C 1327.873465 151.408011 1335.290132 151.548636 1338.946383 151.548636 C 1342.571383 151.548636 1349.165133 151.408011 1352.9568 151.001761 C 1355.180758 150.725719 1356.993259 149.053844 1356.5818 146.658011 C 1356.034925 143.444469 1355.592217 139.928844 1355.4568 136.850719 C 1355.180758 133.50176 1357.30055 133.090302 1358.837009 136.027802 C 1363.587009 145.975719 1372.133884 152.126761 1383.477635 152.126761 Z M 1366.935967 126.22051 C 1360.23805 126.22051 1355.592217 121.335093 1355.592217 113.335092 C 1355.592217 105.37155 1360.23805 99.9028 1366.935967 99.9028 C 1373.946384 99.9028 1378.420343 105.37155 1378.420343 113.335092 C 1378.420343 121.335093 1373.805759 126.22051 1366.935967 126.22051 Z M 1460.180764 152.126761 C 1485.368265 152.126761 1503.274516 141.908011 1503.274516 115.012176 C 1503.274516 89.68405 1485.503682 73.725715 1460.180764 73.725715 C 1434.821387 73.725715 1416.909928 89.68405 1416.909928 115.012176 C 1416.909928 141.908011 1434.993262 152.126761 1460.180764 152.126761 Z M 1460.180764 127.621552 C 1453.310972 127.621552 1448.420347 122.017385 1448.420347 113.064259 C 1448.420347 104.381967 1453.175555 98.095508 1460.180764 98.095508 C 1467.185972 98.095508 1471.935973 104.381967 1471.935973 113.064259 C 1471.935973 122.017385 1467.050556 127.621552 1460.180764 127.621552 Z M 1526.394309 151.548636 C 1530.290142 151.548636 1538.014101 151.548636 1541.774518 151.137178 C 1543.89431 150.861136 1545.977643 149.053844 1545.571393 146.387177 C 1544.441185 139.517385 1543.451601 131.111135 1543.451601 122.428843 C 1543.451601 111.798634 1551.58181 105.100717 1559.545352 105.100717 C 1566.144311 105.100717 1570.758894 107.595509 1575.097436 111.527801 C 1577.045353 114.053842 1580.566186 112.788217 1580.842228 109.408009 C 1581.55577 100.897592 1582.24327 92.350716 1582.790145 83.668424 C 1582.790145 81.689258 1582.24327 80.012174 1580.701603 78.611132 C 1577.488061 75.673632 1572.878686 73.861132 1567.133894 73.861132 C 1556.472435 73.861132 1549.498477 82.131966 1545.977643 97.647592 C 1545.295351 100.314258 1543.17556 100.178842 1543.17556 97.100717 C 1543.17556 91.225716 1543.758893 85.892383 1544.98806 79.465299 C 1545.571393 77.210091 1544.029726 75.126757 1541.36306 74.850716 C 1538.290143 74.408007 1530.019309 74.27259 1526.941184 74.27259 C 1523.727642 74.27259 1517.712017 74.27259 1514.055766 74.850716 C 1512.10785 75.126757 1510.571391 76.527799 1510.435975 78.475716 C 1508.587016 97.819467 1507.633891 116.991343 1507.493266 146.934052 C 1507.493266 149.189261 1509.17035 150.725719 1511.118266 151.001761 C 1515.456808 151.272594 1522.873475 151.548636 1526.394309 151.548636 Z M 1608.12348 152.126761 C 1618.206813 152.126761 1627.300564 146.934052 1631.946397 134.491344 C 1633.040147 131.824677 1635.024523 132.371552 1634.883898 135.173635 C 1634.576606 138.116344 1634.029731 142.730927 1633.623481 145.392386 C 1633.040147 148.470511 1635.295356 150.590303 1638.779731 151.001761 C 1642.712023 151.408011 1648.451607 151.548636 1652.248482 151.548636 C 1656.144315 151.548636 1662.159941 151.408011 1665.680774 151.001761 C 1667.899524 150.590303 1669.300566 149.053844 1669.300566 146.658011 C 1668.894316 132.512177 1667.493274 113.064259 1666.227649 101.303842 C 1664.550566 85.345508 1655.014107 73.725715 1626.477647 73.725715 C 1610.790146 73.725715 1599.889104 75.980924 1594.555771 77.793424 C 1592.883895 78.475716 1592.029729 80.152799 1591.889104 82.267383 C 1591.482854 88.147591 1591.071395 95.699675 1591.206812 101.579884 C 1591.206812 105.37155 1594.144312 106.913217 1596.503687 104.381967 C 1604.503688 98.913217 1615.988063 95.699675 1623.264105 95.699675 C 1631.227647 95.699675 1634.029731 98.230925 1634.029731 100.897592 C 1634.029731 104.658009 1629.415147 105.647592 1620.597439 106.772592 C 1601.701604 108.996551 1586.014103 116.413218 1586.014103 130.97051 C 1586.014103 145.668427 1593.873479 152.126761 1608.12348 152.126761 Z M 1625.352647 128.168427 C 1620.87348 128.168427 1618.925563 126.355926 1618.925563 122.152801 C 1618.925563 116.548634 1624.222439 112.517384 1629.415147 112.517384 C 1632.769314 112.517384 1634.441189 114.876759 1634.441189 117.949676 C 1634.441189 124.40801 1628.868272 128.168427 1625.352647 128.168427 Z M 1703.472443 152.126761 C 1714.821402 152.126761 1723.331819 145.975719 1728.113069 136.027802 C 1729.654736 133.090302 1731.738069 133.50176 1731.462027 136.850719 C 1731.326611 139.928844 1730.915152 143.444469 1730.337027 146.658011 C 1729.925569 149.053844 1731.738069 150.725719 1733.993278 151.001761 C 1737.753694 151.408011 1744.347445 151.548636 1747.972445 151.548636 C 1751.628695 151.548636 1759.045362 151.408011 1763.383904 151.001761 C 1765.472446 150.725719 1767.008904 149.053844 1767.008904 146.798636 C 1767.008904 113.746551 1765.472446 75.262174 1763.795362 54.96009 C 1763.659946 52.876756 1762.118279 51.475714 1760.170362 51.204881 C 1756.378695 50.621548 1750.36307 50.621548 1746.70682 50.621548 C 1743.222445 50.621548 1735.665153 50.621548 1731.602652 51.033006 C 1729.378694 51.475714 1727.394319 53.288214 1727.805777 55.543423 C 1729.514111 65.043423 1731.326611 78.751757 1731.738069 89.960091 C 1731.873486 93.751758 1729.654736 93.616341 1728.113069 90.949675 C 1722.784944 79.605924 1715.503693 73.861132 1703.337026 73.861132 C 1685.118275 73.861132 1673.363066 89.2778 1673.363066 114.600718 C 1673.363066 139.517385 1685.566192 152.126761 1703.472443 152.126761 Z M 1719.977652 126.22051 C 1713.113068 126.22051 1708.498485 121.335093 1708.498485 113.335092 C 1708.498485 105.37155 1712.972443 99.9028 1719.977652 99.9028 C 1726.712027 99.9028 1731.326611 105.37155 1731.326611 113.335092 C 1731.326611 121.335093 1726.576611 126.22051 1719.977652 126.22051 Z M 1814.758907 152.126761 C 1839.946408 152.126761 1857.857867 141.908011 1857.857867 115.012176 C 1857.857867 89.68405 1840.087033 73.725715 1814.758907 73.725715 C 1789.39953 73.725715 1771.493279 89.68405 1771.493279 115.012176 C 1771.493279 141.908011 1789.571405 152.126761 1814.758907 152.126761 Z M 1814.758907 127.621552 C 1807.889115 127.621552 1803.003698 122.017385 1803.003698 113.064259 C 1803.003698 104.381967 1807.753698 98.095508 1814.758907 98.095508 C 1821.764115 98.095508 1826.519324 104.381967 1826.519324 113.064259 C 1826.519324 122.017385 1821.628699 127.621552 1814.758907 127.621552 Z M 1880.97766 151.548636 C 1884.873493 151.548636 1892.597452 151.548636 1896.357869 151.137178 C 1898.472452 150.861136 1900.560994 149.053844 1900.149536 146.387177 C 1899.019328 139.517385 1898.029744 131.111135 1898.029744 122.428843 C 1898.029744 111.798634 1906.165161 105.100717 1914.128703 105.100717 C 1920.722454 105.100717 1925.337037 107.595509 1929.680787 111.527801 C 1931.628704 114.053842 1935.144329 112.788217 1935.420371 109.408009 C 1936.139121 100.897592 1936.821413 92.350716 1937.368288 83.668424 C 1937.368288 81.689258 1936.821413 80.012174 1935.284954 78.611132 C 1932.071413 75.673632 1927.456829 73.861132 1921.717245 73.861132 C 1911.050578 73.861132 1904.081828 82.131966 1900.560994 97.647592 C 1899.873494 100.314258 1897.758911 100.178842 1897.758911 97.100717 C 1897.758911 91.225716 1898.337036 85.892383 1899.566203 79.465299 C 1900.149536 77.210091 1898.613077 75.126757 1895.946411 74.850716 C 1892.868286 74.408007 1884.597452 74.27259 1881.524535 74.27259 C 1878.310993 74.27259 1872.295368 74.27259 1868.639118 74.850716 C 1866.691201 75.126757 1865.149534 76.527799 1865.014117 78.475716 C 1863.170367 97.819467 1862.212034 116.991343 1862.076617 146.934052 C 1862.076617 149.189261 1863.748492 150.725719 1865.696409 151.001761 C 1870.040159 151.272594 1877.456826 151.548636 1880.97766 151.548636 Z M 1880.97766 151.548636 " stroke="#7ed957" stroke-width="10.4997" stroke-opacity="1" stroke-miterlimit="4"/><g fill="#5019dd" fill-opacity="1"><g transform="translate(60.298073, 436.592429)"><g><path d="M 42.417969 0.734375 C 52.917969 0.734375 65.832031 -1.574219 72.023438 -3.882812 C 73.074219 -4.410156 74.019531 -5.566406 73.914062 -7.035156 C 73.601562 -14.488281 73.390625 -21.839844 72.863281 -29.292969 C 72.65625 -32.441406 70.03125 -32.863281 68.558594 -31.078125 C 61.734375 -24.148438 54.386719 -21.523438 45.460938 -21.523438 C 35.382812 -21.523438 28.871094 -25.933594 28.871094 -35.382812 C 28.871094 -47.351562 34.4375 -53.652344 44.203125 -53.652344 C 51.65625 -53.652344 56.90625 -50.921875 61.421875 -46.40625 C 62.996094 -44.621094 65.199219 -45.148438 65.515625 -47.5625 C 66.144531 -52.179688 66.984375 -61.316406 67.613281 -65.933594 C 67.824219 -67.40625 67.40625 -68.769531 66.039062 -69.503906 C 59.949219 -72.550781 52.496094 -74.335938 42.730469 -74.335938 C 18.164062 -74.335938 1.363281 -58.480469 1.363281 -33.808594 C 1.363281 -8.292969 18.269531 0.734375 42.417969 0.734375 Z M 42.417969 0.734375 "/></g></g></g><g fill="#5019dd" fill-opacity="1"><g transform="translate(136.099602, 436.592429)"><g><path d="M 17.847656 0.839844 C 25.40625 0.839844 32.234375 -3.042969 35.699219 -12.390625 C 36.539062 -14.382812 38.007812 -13.964844 37.902344 -11.863281 C 37.691406 -9.660156 37.273438 -6.195312 36.957031 -4.199219 C 36.539062 -1.890625 38.21875 -0.316406 40.84375 0 C 43.78125 0.316406 48.085938 0.421875 50.921875 0.421875 C 53.859375 0.421875 58.375 0.316406 61 0 C 62.679688 -0.316406 63.730469 -1.46875 63.730469 -3.253906 C 63.414062 -13.859375 62.367188 -28.453125 61.421875 -37.273438 C 60.160156 -49.242188 53.019531 -57.957031 31.601562 -57.957031 C 19.84375 -57.957031 11.652344 -56.277344 7.664062 -54.910156 C 6.40625 -54.386719 5.773438 -53.125 5.667969 -51.550781 C 5.355469 -47.140625 5.039062 -41.472656 5.144531 -37.0625 C 5.144531 -34.226562 7.347656 -33.074219 9.132812 -34.960938 C 15.117188 -39.058594 23.726562 -41.472656 29.1875 -41.472656 C 35.171875 -41.472656 37.273438 -39.582031 37.273438 -37.585938 C 37.273438 -34.753906 33.808594 -34.015625 27.191406 -33.175781 C 13.019531 -31.496094 1.261719 -25.933594 1.261719 -15.015625 C 1.261719 -3.988281 7.140625 0.839844 17.847656 0.839844 Z M 30.761719 -17.113281 C 27.402344 -17.113281 25.933594 -18.480469 25.933594 -21.628906 C 25.933594 -25.828125 29.921875 -28.871094 33.808594 -28.871094 C 36.328125 -28.871094 37.585938 -27.089844 37.585938 -24.777344 C 37.585938 -19.949219 33.386719 -17.113281 30.761719 -17.113281 Z M 30.761719 -17.113281 "/></g></g></g><g fill="#5019dd" fill-opacity="1"><g transform="translate(201.612286, 436.592429)"><g><path d="M 23.832031 0.839844 C 32.335938 0.839844 38.742188 -3.78125 42.3125 -11.234375 C 43.46875 -13.4375 45.042969 -13.125 44.832031 -10.605469 C 44.726562 -8.292969 44.410156 -5.667969 43.992188 -3.253906 C 43.675781 -1.46875 45.042969 -0.210938 46.722656 0 C 49.554688 0.316406 54.492188 0.421875 57.222656 0.421875 C 59.949219 0.421875 65.515625 0.316406 68.769531 0 C 70.34375 -0.210938 71.5 -1.46875 71.5 -3.148438 C 71.5 -27.929688 70.34375 -56.800781 69.085938 -72.023438 C 68.980469 -73.601562 67.824219 -74.648438 66.355469 -74.859375 C 63.519531 -75.28125 59.003906 -75.28125 56.277344 -75.28125 C 53.652344 -75.28125 47.980469 -75.28125 44.9375 -74.964844 C 43.257812 -74.648438 41.785156 -73.285156 42.101562 -71.605469 C 43.363281 -64.464844 44.726562 -54.175781 45.042969 -45.777344 C 45.148438 -42.941406 43.46875 -43.046875 42.3125 -45.042969 C 38.320312 -53.546875 32.863281 -57.851562 23.726562 -57.851562 C 10.078125 -57.851562 1.261719 -46.300781 1.261719 -27.296875 C 1.261719 -8.609375 10.394531 0.839844 23.832031 0.839844 Z M 36.222656 -18.582031 C 31.078125 -18.582031 27.613281 -22.257812 27.613281 -28.242188 C 27.613281 -34.226562 30.972656 -38.320312 36.222656 -38.320312 C 41.261719 -38.320312 44.726562 -34.226562 44.726562 -28.242188 C 44.726562 -22.257812 41.15625 -18.582031 36.222656 -18.582031 Z M 36.222656 -18.582031 "/></g></g></g><g fill="#5019dd" fill-opacity="1"><g transform="translate(275.209065, 436.592429)"><g><path d="M 17.847656 0.839844 C 25.40625 0.839844 32.234375 -3.042969 35.699219 -12.390625 C 36.539062 -14.382812 38.007812 -13.964844 37.902344 -11.863281 C 37.691406 -9.660156 37.273438 -6.195312 36.957031 -4.199219 C 36.539062 -1.890625 38.21875 -0.316406 40.84375 0 C 43.78125 0.316406 48.085938 0.421875 50.921875 0.421875 C 53.859375 0.421875 58.375 0.316406 61 0 C 62.679688 -0.316406 63.730469 -1.46875 63.730469 -3.253906 C 63.414062 -13.859375 62.367188 -28.453125 61.421875 -37.273438 C 60.160156 -49.242188 53.019531 -57.957031 31.601562 -57.957031 C 19.84375 -57.957031 11.652344 -56.277344 7.664062 -54.910156 C 6.40625 -54.386719 5.773438 -53.125 5.667969 -51.550781 C 5.355469 -47.140625 5.039062 -41.472656 5.144531 -37.0625 C 5.144531 -34.226562 7.347656 -33.074219 9.132812 -34.960938 C 15.117188 -39.058594 23.726562 -41.472656 29.1875 -41.472656 C 35.171875 -41.472656 37.273438 -39.582031 37.273438 -37.585938 C 37.273438 -34.753906 33.808594 -34.015625 27.191406 -33.175781 C 13.019531 -31.496094 1.261719 -25.933594 1.261719 -15.015625 C 1.261719 -3.988281 7.140625 0.839844 17.847656 0.839844 Z M 30.761719 -17.113281 C 27.402344 -17.113281 25.933594 -18.480469 25.933594 -21.628906 C 25.933594 -25.828125 29.921875 -28.871094 33.808594 -28.871094 C 36.328125 -28.871094 37.585938 -27.089844 37.585938 -24.777344 C 37.585938 -19.949219 33.386719 -17.113281 30.761719 -17.113281 Z M 30.761719 -17.113281 "/></g></g></g><g fill="#5019dd" fill-opacity="1"><g transform="translate(340.721749, 436.592429)"><g><path d="M 30.761719 0.734375 C 49.871094 0.734375 60.476562 -5.566406 60.476562 -16.378906 C 60.476562 -35.90625 28.664062 -31.394531 28.664062 -38.007812 C 28.664062 -40.527344 31.917969 -41.996094 38.21875 -41.890625 C 43.152344 -41.785156 48.820312 -40.210938 52.8125 -38.007812 C 54.597656 -36.640625 56.695312 -37.378906 56.589844 -40.003906 C 56.484375 -43.992188 56.066406 -49.03125 55.75 -52.917969 C 55.644531 -54.175781 54.804688 -55.226562 53.546875 -55.644531 C 47.140625 -57.117188 37.585938 -57.851562 30.867188 -57.851562 C 13.542969 -57.851562 3.675781 -52.917969 3.675781 -41.996094 C 3.675781 -22.992188 32.96875 -27.402344 32.96875 -20.683594 C 32.96875 -17.953125 30.238281 -16.589844 24.566406 -16.589844 C 18.6875 -16.589844 11.652344 -18.582031 5.878906 -22.363281 C 4.199219 -23.832031 1.679688 -23.308594 1.574219 -20.789062 C 1.46875 -15.644531 1.363281 -10.710938 1.46875 -5.566406 C 1.46875 -4.199219 2.308594 -3.253906 3.675781 -2.835938 C 11.128906 -0.734375 22.152344 0.734375 30.761719 0.734375 Z M 30.761719 0.734375 "/></g></g></g><g fill="#5019dd" fill-opacity="1"><g transform="translate(402.559851, 436.592429)"><g><path d="M 33.808594 0.839844 C 40.316406 0.839844 46.195312 -0.105469 51.550781 -1.574219 C 52.8125 -2.101562 53.859375 -3.464844 53.859375 -5.355469 C 53.964844 -8.820312 54.070312 -15.644531 53.964844 -19.527344 C 53.859375 -22.046875 51.867188 -22.886719 50.292969 -21.734375 C 48.507812 -20.789062 45.042969 -19.84375 42.835938 -19.84375 C 38.425781 -19.84375 35.066406 -21.945312 34.859375 -26.144531 C 34.648438 -29.398438 34.648438 -33.175781 34.960938 -36.851562 C 35.171875 -38.636719 36.328125 -39.792969 38.53125 -39.792969 C 41.785156 -39.792969 46.828125 -39.582031 50.082031 -39.371094 C 51.65625 -39.164062 53.019531 -40.738281 53.019531 -42.417969 L 53.019531 -54.175781 C 53.019531 -55.855469 51.65625 -57.222656 50.082031 -57.222656 C 45.988281 -57.222656 41.15625 -57.011719 37.0625 -57.011719 C 36.222656 -57.011719 35.59375 -57.851562 35.59375 -59.109375 C 35.59375 -61.734375 36.117188 -64.359375 36.640625 -67.300781 C 36.851562 -68.980469 35.488281 -70.449219 33.808594 -70.660156 C 30.867188 -70.976562 25.199219 -71.078125 22.574219 -71.078125 C 20.054688 -70.976562 16.167969 -70.976562 13.648438 -70.660156 C 12.179688 -70.449219 11.023438 -69.296875 10.8125 -67.824219 C 10.5 -65.09375 10.289062 -61.316406 10.183594 -58.480469 C 10.078125 -57.746094 9.554688 -57.117188 8.714844 -57.117188 L 3.570312 -57.117188 C 1.996094 -57.117188 0.839844 -55.855469 0.734375 -54.28125 C 0.734375 -50.292969 0.628906 -46.40625 0.734375 -42.523438 C 0.839844 -40.945312 1.996094 -39.582031 3.570312 -39.582031 C 5.039062 -39.6875 6.507812 -39.6875 7.875 -39.6875 C 8.714844 -39.792969 9.449219 -39.164062 9.34375 -38.320312 C 8.503906 -31.8125 8.503906 -25.09375 8.503906 -20.683594 C 8.503906 -5.667969 19.421875 0.839844 33.808594 0.839844 Z M 33.808594 0.839844 "/></g></g></g><g fill="#5019dd" fill-opacity="1"><g transform="translate(457.363727, 436.592429)"><g><path d="M 16.0625 0.421875 C 19.003906 0.421875 24.777344 0.421875 27.613281 0.105469 C 29.1875 -0.105469 30.761719 -1.46875 30.449219 -3.464844 C 29.609375 -8.609375 28.871094 -14.910156 28.871094 -21.417969 C 28.871094 -29.398438 34.960938 -34.4375 40.945312 -34.4375 C 45.882812 -34.4375 49.347656 -32.546875 52.601562 -29.609375 C 54.070312 -27.71875 56.695312 -28.664062 56.90625 -31.183594 C 57.429688 -37.585938 57.957031 -43.992188 58.375 -50.5 C 58.375 -51.972656 57.957031 -53.230469 56.800781 -54.28125 C 54.386719 -56.484375 50.921875 -57.851562 46.617188 -57.851562 C 38.636719 -57.851562 33.386719 -51.65625 30.761719 -40.003906 C 30.238281 -38.007812 28.664062 -38.113281 28.664062 -40.421875 C 28.664062 -44.832031 29.082031 -48.820312 30.027344 -53.652344 C 30.449219 -55.332031 29.292969 -56.90625 27.296875 -57.117188 C 24.988281 -57.429688 18.792969 -57.535156 16.484375 -57.535156 C 14.070312 -57.535156 9.554688 -57.535156 6.824219 -57.117188 C 5.355469 -56.90625 4.199219 -55.855469 4.09375 -54.386719 C 2.730469 -39.898438 1.996094 -25.511719 1.890625 -3.042969 C 1.890625 -1.363281 3.148438 -0.210938 4.621094 0 C 7.875 0.210938 13.4375 0.421875 16.0625 0.421875 Z M 16.0625 0.421875 "/></g></g></g><g fill="#5019dd" fill-opacity="1"><g transform="translate(516.89209, 436.592429)"><g><path d="M 17.847656 0.839844 C 25.40625 0.839844 32.234375 -3.042969 35.699219 -12.390625 C 36.539062 -14.382812 38.007812 -13.964844 37.902344 -11.863281 C 37.691406 -9.660156 37.273438 -6.195312 36.957031 -4.199219 C 36.539062 -1.890625 38.21875 -0.316406 40.84375 0 C 43.78125 0.316406 48.085938 0.421875 50.921875 0.421875 C 53.859375 0.421875 58.375 0.316406 61 0 C 62.679688 -0.316406 63.730469 -1.46875 63.730469 -3.253906 C 63.414062 -13.859375 62.367188 -28.453125 61.421875 -37.273438 C 60.160156 -49.242188 53.019531 -57.957031 31.601562 -57.957031 C 19.84375 -57.957031 11.652344 -56.277344 7.664062 -54.910156 C 6.40625 -54.386719 5.773438 -53.125 5.667969 -51.550781 C 5.355469 -47.140625 5.039062 -41.472656 5.144531 -37.0625 C 5.144531 -34.226562 7.347656 -33.074219 9.132812 -34.960938 C 15.117188 -39.058594 23.726562 -41.472656 29.1875 -41.472656 C 35.171875 -41.472656 37.273438 -39.582031 37.273438 -37.585938 C 37.273438 -34.753906 33.808594 -34.015625 27.191406 -33.175781 C 13.019531 -31.496094 1.261719 -25.933594 1.261719 -15.015625 C 1.261719 -3.988281 7.140625 0.839844 17.847656 0.839844 Z M 30.761719 -17.113281 C 27.402344 -17.113281 25.933594 -18.480469 25.933594 -21.628906 C 25.933594 -25.828125 29.921875 -28.871094 33.808594 -28.871094 C 36.328125 -28.871094 37.585938 -27.089844 37.585938 -24.777344 C 37.585938 -19.949219 33.386719 -17.113281 30.761719 -17.113281 Z M 30.761719 -17.113281 "/></g></g></g><g fill="#5019dd" fill-opacity="1"><g transform="translate(582.404797, 436.592429)"><g><path d="M 16.0625 0.421875 C 19.003906 0.421875 24.777344 0.421875 27.613281 0.105469 C 29.1875 -0.105469 30.761719 -1.46875 30.449219 -3.464844 C 29.609375 -8.609375 28.871094 -14.910156 28.871094 -21.417969 C 28.871094 -29.398438 34.960938 -34.4375 40.945312 -34.4375 C 45.882812 -34.4375 49.347656 -32.546875 52.601562 -29.609375 C 54.070312 -27.71875 56.695312 -28.664062 56.90625 -31.183594 C 57.429688 -37.585938 57.957031 -43.992188 58.375 -50.5 C 58.375 -51.972656 57.957031 -53.230469 56.800781 -54.28125 C 54.386719 -56.484375 50.921875 -57.851562 46.617188 -57.851562 C 38.636719 -57.851562 33.386719 -51.65625 30.761719 -40.003906 C 30.238281 -38.007812 28.664062 -38.113281 28.664062 -40.421875 C 28.664062 -44.832031 29.082031 -48.820312 30.027344 -53.652344 C 30.449219 -55.332031 29.292969 -56.90625 27.296875 -57.117188 C 24.988281 -57.429688 18.792969 -57.535156 16.484375 -57.535156 C 14.070312 -57.535156 9.554688 -57.535156 6.824219 -57.117188 C 5.355469 -56.90625 4.199219 -55.855469 4.09375 -54.386719 C 2.730469 -39.898438 1.996094 -25.511719 1.890625 -3.042969 C 1.890625 -1.363281 3.148438 -0.210938 4.621094 0 C 7.875 0.210938 13.4375 0.421875 16.0625 0.421875 Z M 16.0625 0.421875 "/></g></g></g><g fill="#5019dd" fill-opacity="1"><g transform="translate(641.93316, 436.592429)"><g/></g></g><g fill="#5019dd" fill-opacity="1"><g transform="translate(671.329872, 436.592429)"><g><path d="M 42.417969 0.734375 C 52.917969 0.734375 65.832031 -1.574219 72.023438 -3.882812 C 73.074219 -4.410156 74.019531 -5.566406 73.914062 -7.035156 C 73.601562 -14.488281 73.390625 -21.839844 72.863281 -29.292969 C 72.65625 -32.441406 70.03125 -32.863281 68.558594 -31.078125 C 61.734375 -24.148438 54.386719 -21.523438 45.460938 -21.523438 C 35.382812 -21.523438 28.871094 -25.933594 28.871094 -35.382812 C 28.871094 -47.351562 34.4375 -53.652344 44.203125 -53.652344 C 51.65625 -53.652344 56.90625 -50.921875 61.421875 -46.40625 C 62.996094 -44.621094 65.199219 -45.148438 65.515625 -47.5625 C 66.144531 -52.179688 66.984375 -61.316406 67.613281 -65.933594 C 67.824219 -67.40625 67.40625 -68.769531 66.039062 -69.503906 C 59.949219 -72.550781 52.496094 -74.335938 42.730469 -74.335938 C 18.164062 -74.335938 1.363281 -58.480469 1.363281 -33.808594 C 1.363281 -8.292969 18.269531 0.734375 42.417969 0.734375 Z M 42.417969 0.734375 "/></g></g></g><g fill="#5019dd" fill-opacity="1"><g transform="translate(747.131413, 436.592429)"><g><path d="M 33.703125 0.839844 C 52.601562 0.839844 66.039062 -6.824219 66.039062 -26.984375 C 66.039062 -45.988281 52.707031 -57.957031 33.703125 -57.957031 C 14.699219 -57.957031 1.261719 -45.988281 1.261719 -26.984375 C 1.261719 -6.824219 14.804688 0.839844 33.703125 0.839844 Z M 33.703125 -17.535156 C 28.558594 -17.535156 24.882812 -21.734375 24.882812 -28.453125 C 24.882812 -34.960938 28.453125 -39.6875 33.703125 -39.6875 C 38.953125 -39.6875 42.523438 -34.960938 42.523438 -28.453125 C 42.523438 -21.734375 38.847656 -17.535156 33.703125 -17.535156 Z M 33.703125 -17.535156 "/></g></g></g><g fill="#5019dd" fill-opacity="1"><g transform="translate(814.428895, 436.592429)"><g><path d="M 16.589844 0.421875 C 19.421875 0.421875 24.359375 0.316406 27.089844 0 C 28.769531 -0.210938 29.921875 -1.363281 29.816406 -3.148438 C 28.976562 -25.304688 29.1875 -51.65625 31.289062 -71.605469 C 31.496094 -73.390625 30.238281 -74.753906 28.558594 -74.964844 C 25.40625 -75.28125 19.84375 -75.28125 17.113281 -75.28125 C 14.488281 -75.28125 10.078125 -75.175781 7.453125 -74.859375 C 5.878906 -74.648438 4.726562 -73.601562 4.515625 -72.128906 C 3.359375 -56.484375 2.101562 -27.402344 2.101562 -3.148438 C 2.101562 -1.46875 3.359375 -0.210938 4.933594 0 C 8.085938 0.316406 13.542969 0.421875 16.589844 0.421875 Z M 16.589844 0.421875 "/></g></g></g><g fill="#5019dd" fill-opacity="1"><g transform="translate(847.815154, 436.592429)"><g><path d="M 17.847656 0.839844 C 25.40625 0.839844 32.234375 -3.042969 35.699219 -12.390625 C 36.539062 -14.382812 38.007812 -13.964844 37.902344 -11.863281 C 37.691406 -9.660156 37.273438 -6.195312 36.957031 -4.199219 C 36.539062 -1.890625 38.21875 -0.316406 40.84375 0 C 43.78125 0.316406 48.085938 0.421875 50.921875 0.421875 C 53.859375 0.421875 58.375 0.316406 61 0 C 62.679688 -0.316406 63.730469 -1.46875 63.730469 -3.253906 C 63.414062 -13.859375 62.367188 -28.453125 61.421875 -37.273438 C 60.160156 -49.242188 53.019531 -57.957031 31.601562 -57.957031 C 19.84375 -57.957031 11.652344 -56.277344 7.664062 -54.910156 C 6.40625 -54.386719 5.773438 -53.125 5.667969 -51.550781 C 5.355469 -47.140625 5.039062 -41.472656 5.144531 -37.0625 C 5.144531 -34.226562 7.347656 -33.074219 9.132812 -34.960938 C 15.117188 -39.058594 23.726562 -41.472656 29.1875 -41.472656 C 35.171875 -41.472656 37.273438 -39.582031 37.273438 -37.585938 C 37.273438 -34.753906 33.808594 -34.015625 27.191406 -33.175781 C 13.019531 -31.496094 1.261719 -25.933594 1.261719 -15.015625 C 1.261719 -3.988281 7.140625 0.839844 17.847656 0.839844 Z M 30.761719 -17.113281 C 27.402344 -17.113281 25.933594 -18.480469 25.933594 -21.628906 C 25.933594 -25.828125 29.921875 -28.871094 33.808594 -28.871094 C 36.328125 -28.871094 37.585938 -27.089844 37.585938 -24.777344 C 37.585938 -19.949219 33.386719 -17.113281 30.761719 -17.113281 Z M 30.761719 -17.113281 "/></g></g></g><g fill="#5019dd" fill-opacity="1"><g transform="translate(913.327816, 436.592429)"><g><path d="M 49.765625 0.839844 C 63.207031 0.839844 72.339844 -8.609375 72.339844 -27.296875 C 72.339844 -46.300781 63.519531 -57.851562 49.871094 -57.851562 C 40.738281 -57.851562 35.277344 -53.546875 31.289062 -45.042969 C 30.132812 -43.046875 28.453125 -42.941406 28.558594 -45.777344 C 28.871094 -54.175781 30.238281 -64.464844 31.496094 -71.605469 C 31.8125 -73.285156 30.34375 -74.648438 28.664062 -74.964844 C 25.617188 -75.28125 19.949219 -75.28125 17.324219 -75.28125 C 14.59375 -75.28125 10.078125 -75.28125 7.246094 -74.859375 C 5.773438 -74.648438 4.621094 -73.601562 4.515625 -72.023438 C 3.253906 -56.800781 2.101562 -27.929688 2.101562 -3.148438 C 2.101562 -1.363281 3.253906 -0.210938 4.828125 0 C 8.085938 0.316406 13.648438 0.421875 16.378906 0.421875 C 19.109375 0.421875 24.042969 0.316406 26.878906 0 C 28.558594 -0.210938 29.921875 -1.46875 29.609375 -3.253906 C 29.1875 -5.667969 28.871094 -8.292969 28.769531 -10.605469 C 28.558594 -13.125 30.132812 -13.4375 31.289062 -11.234375 C 34.859375 -3.78125 41.261719 0.839844 49.765625 0.839844 Z M 37.378906 -18.582031 C 32.335938 -18.582031 28.871094 -22.257812 28.871094 -28.242188 C 28.871094 -34.226562 32.335938 -38.320312 37.378906 -38.320312 C 42.628906 -38.320312 45.988281 -34.226562 45.988281 -28.242188 C 45.988281 -22.257812 42.523438 -18.582031 37.378906 -18.582031 Z M 37.378906 -18.582031 "/></g></g></g><g fill="#5019dd" fill-opacity="1"><g transform="translate(986.924583, 436.592429)"><g><path d="M 33.703125 0.839844 C 52.601562 0.839844 66.039062 -6.824219 66.039062 -26.984375 C 66.039062 -45.988281 52.707031 -57.957031 33.703125 -57.957031 C 14.699219 -57.957031 1.261719 -45.988281 1.261719 -26.984375 C 1.261719 -6.824219 14.804688 0.839844 33.703125 0.839844 Z M 33.703125 -17.535156 C 28.558594 -17.535156 24.882812 -21.734375 24.882812 -28.453125 C 24.882812 -34.960938 28.453125 -39.6875 33.703125 -39.6875 C 38.953125 -39.6875 42.523438 -34.960938 42.523438 -28.453125 C 42.523438 -21.734375 38.847656 -17.535156 33.703125 -17.535156 Z M 33.703125 -17.535156 "/></g></g></g><g fill="#5019dd" fill-opacity="1"><g transform="translate(1054.222065, 436.592429)"><g><path d="M 16.0625 0.421875 C 19.003906 0.421875 24.777344 0.421875 27.613281 0.105469 C 29.1875 -0.105469 30.761719 -1.46875 30.449219 -3.464844 C 29.609375 -8.609375 28.871094 -14.910156 28.871094 -21.417969 C 28.871094 -29.398438 34.960938 -34.4375 40.945312 -34.4375 C 45.882812 -34.4375 49.347656 -32.546875 52.601562 -29.609375 C 54.070312 -27.71875 56.695312 -28.664062 56.90625 -31.183594 C 57.429688 -37.585938 57.957031 -43.992188 58.375 -50.5 C 58.375 -51.972656 57.957031 -53.230469 56.800781 -54.28125 C 54.386719 -56.484375 50.921875 -57.851562 46.617188 -57.851562 C 38.636719 -57.851562 33.386719 -51.65625 30.761719 -40.003906 C 30.238281 -38.007812 28.664062 -38.113281 28.664062 -40.421875 C 28.664062 -44.832031 29.082031 -48.820312 30.027344 -53.652344 C 30.449219 -55.332031 29.292969 -56.90625 27.296875 -57.117188 C 24.988281 -57.429688 18.792969 -57.535156 16.484375 -57.535156 C 14.070312 -57.535156 9.554688 -57.535156 6.824219 -57.117188 C 5.355469 -56.90625 4.199219 -55.855469 4.09375 -54.386719 C 2.730469 -39.898438 1.996094 -25.511719 1.890625 -3.042969 C 1.890625 -1.363281 3.148438 -0.210938 4.621094 0 C 7.875 0.210938 13.4375 0.421875 16.0625 0.421875 Z M 16.0625 0.421875 "/></g></g></g><g fill="#5019dd" fill-opacity="1"><g transform="translate(1113.750382, 436.592429)"><g><path d="M 17.847656 0.839844 C 25.40625 0.839844 32.234375 -3.042969 35.699219 -12.390625 C 36.539062 -14.382812 38.007812 -13.964844 37.902344 -11.863281 C 37.691406 -9.660156 37.273438 -6.195312 36.957031 -4.199219 C 36.539062 -1.890625 38.21875 -0.316406 40.84375 0 C 43.78125 0.316406 48.085938 0.421875 50.921875 0.421875 C 53.859375 0.421875 58.375 0.316406 61 0 C 62.679688 -0.316406 63.730469 -1.46875 63.730469 -3.253906 C 63.414062 -13.859375 62.367188 -28.453125 61.421875 -37.273438 C 60.160156 -49.242188 53.019531 -57.957031 31.601562 -57.957031 C 19.84375 -57.957031 11.652344 -56.277344 7.664062 -54.910156 C 6.40625 -54.386719 5.773438 -53.125 5.667969 -51.550781 C 5.355469 -47.140625 5.039062 -41.472656 5.144531 -37.0625 C 5.144531 -34.226562 7.347656 -33.074219 9.132812 -34.960938 C 15.117188 -39.058594 23.726562 -41.472656 29.1875 -41.472656 C 35.171875 -41.472656 37.273438 -39.582031 37.273438 -37.585938 C 37.273438 -34.753906 33.808594 -34.015625 27.191406 -33.175781 C 13.019531 -31.496094 1.261719 -25.933594 1.261719 -15.015625 C 1.261719 -3.988281 7.140625 0.839844 17.847656 0.839844 Z M 30.761719 -17.113281 C 27.402344 -17.113281 25.933594 -18.480469 25.933594 -21.628906 C 25.933594 -25.828125 29.921875 -28.871094 33.808594 -28.871094 C 36.328125 -28.871094 37.585938 -27.089844 37.585938 -24.777344 C 37.585938 -19.949219 33.386719 -17.113281 30.761719 -17.113281 Z M 30.761719 -17.113281 "/></g></g></g><g fill="#5019dd" fill-opacity="1"><g transform="translate(1179.263044, 436.592429)"><g><path d="M 23.832031 0.839844 C 32.335938 0.839844 38.742188 -3.78125 42.3125 -11.234375 C 43.46875 -13.4375 45.042969 -13.125 44.832031 -10.605469 C 44.726562 -8.292969 44.410156 -5.667969 43.992188 -3.253906 C 43.675781 -1.46875 45.042969 -0.210938 46.722656 0 C 49.554688 0.316406 54.492188 0.421875 57.222656 0.421875 C 59.949219 0.421875 65.515625 0.316406 68.769531 0 C 70.34375 -0.210938 71.5 -1.46875 71.5 -3.148438 C 71.5 -27.929688 70.34375 -56.800781 69.085938 -72.023438 C 68.980469 -73.601562 67.824219 -74.648438 66.355469 -74.859375 C 63.519531 -75.28125 59.003906 -75.28125 56.277344 -75.28125 C 53.652344 -75.28125 47.980469 -75.28125 44.9375 -74.964844 C 43.257812 -74.648438 41.785156 -73.285156 42.101562 -71.605469 C 43.363281 -64.464844 44.726562 -54.175781 45.042969 -45.777344 C 45.148438 -42.941406 43.46875 -43.046875 42.3125 -45.042969 C 38.320312 -53.546875 32.863281 -57.851562 23.726562 -57.851562 C 10.078125 -57.851562 1.261719 -46.300781 1.261719 -27.296875 C 1.261719 -8.609375 10.394531 0.839844 23.832031 0.839844 Z M 36.222656 -18.582031 C 31.078125 -18.582031 27.613281 -22.257812 27.613281 -28.242188 C 27.613281 -34.226562 30.972656 -38.320312 36.222656 -38.320312 C 41.261719 -38.320312 44.726562 -34.226562 44.726562 -28.242188 C 44.726562 -22.257812 41.15625 -18.582031 36.222656 -18.582031 Z M 36.222656 -18.582031 "/></g></g></g><g fill="#5019dd" fill-opacity="1"><g transform="translate(1252.859811, 436.592429)"><g><path d="M 33.703125 0.839844 C 52.601562 0.839844 66.039062 -6.824219 66.039062 -26.984375 C 66.039062 -45.988281 52.707031 -57.957031 33.703125 -57.957031 C 14.699219 -57.957031 1.261719 -45.988281 1.261719 -26.984375 C 1.261719 -6.824219 14.804688 0.839844 33.703125 0.839844 Z M 33.703125 -17.535156 C 28.558594 -17.535156 24.882812 -21.734375 24.882812 -28.453125 C 24.882812 -34.960938 28.453125 -39.6875 33.703125 -39.6875 C 38.953125 -39.6875 42.523438 -34.960938 42.523438 -28.453125 C 42.523438 -21.734375 38.847656 -17.535156 33.703125 -17.535156 Z M 33.703125 -17.535156 "/></g></g></g><g fill="#5019dd" fill-opacity="1"><g transform="translate(1320.157293, 436.592429)"><g><path d="M 16.0625 0.421875 C 19.003906 0.421875 24.777344 0.421875 27.613281 0.105469 C 29.1875 -0.105469 30.761719 -1.46875 30.449219 -3.464844 C 29.609375 -8.609375 28.871094 -14.910156 28.871094 -21.417969 C 28.871094 -29.398438 34.960938 -34.4375 40.945312 -34.4375 C 45.882812 -34.4375 49.347656 -32.546875 52.601562 -29.609375 C 54.070312 -27.71875 56.695312 -28.664062 56.90625 -31.183594 C 57.429688 -37.585938 57.957031 -43.992188 58.375 -50.5 C 58.375 -51.972656 57.957031 -53.230469 56.800781 -54.28125 C 54.386719 -56.484375 50.921875 -57.851562 46.617188 -57.851562 C 38.636719 -57.851562 33.386719 -51.65625 30.761719 -40.003906 C 30.238281 -38.007812 28.664062 -38.113281 28.664062 -40.421875 C 28.664062 -44.832031 29.082031 -48.820312 30.027344 -53.652344 C 30.449219 -55.332031 29.292969 -56.90625 27.296875 -57.117188 C 24.988281 -57.429688 18.792969 -57.535156 16.484375 -57.535156 C 14.070312 -57.535156 9.554688 -57.535156 6.824219 -57.117188 C 5.355469 -56.90625 4.199219 -55.855469 4.09375 -54.386719 C 2.730469 -39.898438 1.996094 -25.511719 1.890625 -3.042969 C 1.890625 -1.363281 3.148438 -0.210938 4.621094 0 C 7.875 0.210938 13.4375 0.421875 16.0625 0.421875 Z M 16.0625 0.421875 "/></g></g></g><g clip-path="url(#a1440fab87)"><g clip-path="url(#0cf016d776)"><g clip-path="url(#19ab32ebe6)"><path fill="#7ed957" d="M 39.222656 364.246094 C 44.695312 367.710938 47.078125 373.765625 44.546875 377.761719 C 42.011719 381.757812 35.523438 382.191406 30.054688 378.726562 C 24.582031 375.261719 22.199219 369.210938 24.730469 365.210938 C 27.265625 361.214844 33.753906 360.78125 39.222656 364.246094 Z M 94.371094 376.03125 C 92.828125 377.253906 91.109375 378.132812 89.214844 378.671875 C 87.324219 379.207031 85.398438 379.359375 83.445312 379.128906 C 83.085938 379.085938 82.726562 379.082031 82.367188 379.109375 C 82.007812 379.136719 81.65625 379.199219 81.308594 379.300781 C 80.960938 379.398438 80.625 379.527344 80.304688 379.691406 C 79.984375 379.855469 79.683594 380.050781 79.398438 380.273438 C 79.117188 380.496094 78.859375 380.746094 78.625 381.023438 C 78.390625 381.296875 78.1875 381.589844 78.011719 381.90625 C 77.835938 382.21875 77.691406 382.550781 77.578125 382.894531 C 77.46875 383.234375 77.394531 383.585938 77.351562 383.945312 C 77.238281 384.914062 77.03125 385.859375 76.730469 386.789062 C 76.429688 387.714844 76.042969 388.601562 75.570312 389.453125 C 75.09375 390.304688 74.539062 391.101562 73.90625 391.84375 C 73.277344 392.585938 72.578125 393.257812 71.8125 393.863281 C 71.046875 394.464844 70.230469 394.992188 69.363281 395.433594 C 68.496094 395.878906 67.59375 396.230469 66.65625 396.496094 C 65.71875 396.761719 64.765625 396.933594 63.792969 397.011719 C 62.820312 397.089844 61.851562 397.070312 60.882812 396.957031 C 59.917969 396.84375 58.96875 396.640625 58.042969 396.339844 C 57.113281 396.039062 56.226562 395.652344 55.375 395.175781 C 54.523438 394.699219 53.726562 394.148438 52.984375 393.515625 C 52.246094 392.882812 51.570312 392.183594 50.96875 391.421875 C 50.363281 390.65625 49.839844 389.839844 49.394531 388.972656 C 48.953125 388.105469 48.597656 387.203125 48.332031 386.265625 C 48.066406 385.328125 47.894531 384.371094 47.816406 383.402344 C 47.738281 382.429688 47.757812 381.460938 47.871094 380.492188 C 48.003906 379.347656 48.191406 378.214844 48.4375 377.085938 C 48.683594 375.960938 48.984375 374.851562 49.335938 373.753906 C 49.691406 372.660156 50.097656 371.582031 50.558594 370.527344 C 51.019531 369.46875 51.53125 368.4375 52.09375 367.433594 C 52.652344 366.425781 53.261719 365.449219 53.921875 364.503906 C 54.578125 363.558594 55.28125 362.648438 56.027344 361.769531 C 56.773438 360.894531 57.5625 360.054688 58.390625 359.253906 C 59.222656 358.457031 60.085938 357.699219 60.992188 356.984375 C 61.894531 356.269531 62.832031 355.601562 63.800781 354.980469 C 64.769531 354.355469 65.769531 353.785156 66.792969 353.261719 C 67.820312 352.734375 68.867188 352.261719 69.941406 351.839844 C 71.015625 351.421875 72.105469 351.054688 73.210938 350.738281 C 74.320312 350.425781 75.441406 350.167969 76.574219 349.960938 C 77.710938 349.757812 78.851562 349.609375 80 349.519531 C 81.148438 349.429688 82.296875 349.394531 83.449219 349.414062 C 84.601562 349.4375 85.75 349.515625 86.894531 349.648438 C 87.617188 349.734375 88.332031 349.871094 89.039062 350.0625 C 89.742188 350.25 90.429688 350.492188 91.097656 350.785156 C 91.769531 351.074219 92.410156 351.414062 93.03125 351.800781 C 93.648438 352.1875 94.238281 352.617188 94.792969 353.089844 C 95.347656 353.5625 95.867188 354.074219 96.347656 354.625 C 96.828125 355.175781 97.261719 355.757812 97.65625 356.371094 C 98.050781 356.984375 98.398438 357.625 98.699219 358.289062 C 99 358.957031 99.25 359.640625 99.449219 360.339844 C 99.648438 361.042969 99.792969 361.757812 99.886719 362.480469 C 99.980469 363.203125 100.019531 363.929688 100.007812 364.660156 C 99.992188 365.390625 99.925781 366.117188 99.808594 366.835938 C 99.6875 367.554688 99.515625 368.261719 99.289062 368.957031 C 99.066406 369.652344 98.789062 370.324219 98.464844 370.980469 C 98.140625 371.632812 97.773438 372.257812 97.355469 372.859375 C 96.9375 373.457031 96.480469 374.023438 95.980469 374.554688 C 95.480469 375.085938 94.945312 375.578125 94.371094 376.03125 Z M 48.6875 343.820312 C 53.804688 349.167969 54.785156 356.539062 50.875 360.277344 C 46.964844 364.019531 39.644531 362.714844 34.527344 357.363281 C 29.410156 352.011719 28.429688 344.644531 32.339844 340.902344 C 36.25 337.164062 43.570312 338.46875 48.6875 343.820312 Z M 51.023438 341.972656 C 55.046875 348.1875 61.988281 350.84375 66.535156 347.902344 C 71.074219 344.964844 71.496094 337.539062 67.472656 331.324219 C 63.449219 325.109375 56.503906 322.453125 51.960938 325.394531 C 47.421875 328.335938 47 335.757812 51.023438 341.972656 Z M 73.082031 337.484375 C 75.191406 343.609375 80.527344 347.324219 85.003906 345.78125 C 89.480469 344.242188 91.398438 338.027344 89.292969 331.90625 C 87.183594 325.78125 81.847656 322.066406 77.371094 323.605469 C 72.894531 325.144531 70.976562 331.359375 73.082031 337.484375 Z M 73.082031 337.484375 " fill-opacity="1" fill-rule="nonzero"/></g></g></g><g clip-path="url(#5c66daaf7c)"><g clip-path="url(#34bb0c07bc)"><g clip-path="url(#565b968414)"><path fill="#5019dd" d="M 40.996094 363.871094 C 46.058594 367.074219 48.261719 372.671875 45.917969 376.367188 C 43.574219 380.066406 37.574219 380.46875 32.515625 377.261719 C 27.453125 374.058594 25.25 368.460938 27.59375 364.761719 C 29.933594 361.0625 35.9375 360.664062 40.996094 363.871094 Z M 92 374.769531 C 90.570312 375.898438 88.984375 376.710938 87.230469 377.210938 C 85.480469 377.707031 83.699219 377.847656 81.890625 377.632812 C 81.5625 377.59375 81.230469 377.589844 80.898438 377.613281 C 80.5625 377.640625 80.238281 377.699219 79.917969 377.789062 C 79.59375 377.882812 79.285156 378.003906 78.988281 378.15625 C 78.691406 378.304688 78.414062 378.484375 78.152344 378.691406 C 77.890625 378.898438 77.652344 379.128906 77.433594 379.382812 C 77.21875 379.636719 77.03125 379.910156 76.867188 380.203125 C 76.703125 380.492188 76.570312 380.796875 76.46875 381.113281 C 76.367188 381.429688 76.296875 381.753906 76.257812 382.085938 C 76.152344 382.980469 75.960938 383.859375 75.683594 384.714844 C 75.40625 385.574219 75.046875 386.394531 74.609375 387.183594 C 74.167969 387.96875 73.65625 388.707031 73.074219 389.390625 C 72.488281 390.078125 71.84375 390.699219 71.136719 391.257812 C 70.429688 391.816406 69.671875 392.300781 68.871094 392.710938 C 68.070312 393.121094 67.234375 393.449219 66.367188 393.695312 C 65.5 393.941406 64.617188 394.101562 63.71875 394.171875 C 62.820312 394.246094 61.921875 394.226562 61.027344 394.121094 C 60.132812 394.019531 59.257812 393.828125 58.398438 393.550781 C 57.542969 393.273438 56.71875 392.914062 55.933594 392.472656 C 55.144531 392.035156 54.410156 391.523438 53.722656 390.9375 C 53.039062 390.355469 52.414062 389.707031 51.855469 389 C 51.296875 388.292969 50.8125 387.539062 50.402344 386.738281 C 49.992188 385.933594 49.664062 385.097656 49.417969 384.234375 C 49.171875 383.367188 49.015625 382.484375 48.941406 381.585938 C 48.871094 380.6875 48.886719 379.789062 48.992188 378.894531 C 49.117188 377.835938 49.292969 376.785156 49.519531 375.746094 C 49.746094 374.703125 50.023438 373.675781 50.347656 372.664062 C 50.675781 371.648438 51.054688 370.652344 51.480469 369.675781 C 51.90625 368.699219 52.378906 367.746094 52.898438 366.816406 C 53.414062 365.886719 53.980469 364.984375 54.585938 364.109375 C 55.195312 363.234375 55.84375 362.390625 56.535156 361.578125 C 57.226562 360.769531 57.957031 359.992188 58.722656 359.253906 C 59.488281 358.515625 60.292969 357.8125 61.128906 357.152344 C 61.964844 356.492188 62.828125 355.875 63.726562 355.300781 C 64.621094 354.722656 65.546875 354.191406 66.492188 353.707031 C 67.441406 353.222656 68.414062 352.785156 69.40625 352.398438 C 70.394531 352.007812 71.40625 351.667969 72.429688 351.378906 C 73.453125 351.085938 74.492188 350.847656 75.539062 350.660156 C 76.589844 350.46875 77.644531 350.335938 78.707031 350.25 C 79.769531 350.164062 80.832031 350.132812 81.898438 350.152344 C 82.964844 350.171875 84.023438 350.242188 85.082031 350.367188 C 86.429688 350.527344 87.726562 350.875 88.972656 351.417969 C 90.214844 351.960938 91.355469 352.671875 92.386719 353.550781 C 93.421875 354.433594 94.304688 355.441406 95.039062 356.585938 C 95.769531 357.726562 96.324219 358.953125 96.691406 360.257812 C 97.0625 361.5625 97.234375 362.894531 97.210938 364.253906 C 97.1875 365.609375 96.964844 366.933594 96.546875 368.226562 C 96.128906 369.515625 95.53125 370.71875 94.757812 371.835938 C 93.984375 372.949219 93.0625 373.925781 92 374.769531 Z M 49.75 344.976562 C 54.480469 349.925781 55.386719 356.742188 51.773438 360.199219 C 48.15625 363.660156 41.386719 362.453125 36.652344 357.503906 C 31.917969 352.554688 31.011719 345.742188 34.628906 342.28125 C 38.246094 338.820312 45.015625 340.027344 49.75 344.976562 Z M 51.90625 343.269531 C 55.628906 349.019531 62.050781 351.476562 66.253906 348.753906 C 70.453125 346.035156 70.839844 339.171875 67.121094 333.421875 C 63.398438 327.671875 56.976562 325.21875 52.777344 327.9375 C 48.578125 330.65625 48.1875 337.523438 51.90625 343.269531 Z M 72.308594 339.117188 C 74.261719 344.78125 79.195312 348.21875 83.335938 346.792969 C 87.472656 345.367188 89.25 339.621094 87.300781 333.957031 C 85.351562 328.296875 80.414062 324.859375 76.277344 326.28125 C 72.136719 327.707031 70.363281 333.453125 72.308594 339.117188 Z M 72.308594 339.117188 " fill-opacity="1" fill-rule="nonzero"/></g></g></g></svg>