<svg xmlns="http://www.w3.org/2000/svg" xmlns:xlink="http://www.w3.org/1999/xlink" width="50" zoomAndPan="magnify" viewBox="0 0 37.5 37.499999" height="50" preserveAspectRatio="xMidYMid meet" version="1.0"><defs><clipPath id="56990eafba"><path d="M 26 1.332031 L 31 1.332031 L 31 5 L 26 5 Z M 26 1.332031 " clip-rule="nonzero"/></clipPath><clipPath id="32a7bbd779"><path d="M 25.480469 4 L 28 4 L 28 8 L 25.480469 8 Z M 25.480469 4 " clip-rule="nonzero"/></clipPath><clipPath id="fff77f47cd"><path d="M 31 1.332031 L 35.839844 1.332031 L 35.839844 5 L 31 5 Z M 31 1.332031 " clip-rule="nonzero"/></clipPath><clipPath id="11558365f2"><path d="M 27 2 L 35 2 L 35 11.695312 L 27 11.695312 Z M 27 2 " clip-rule="nonzero"/></clipPath><clipPath id="26179dfd3d"><path d="M 34 4 L 35.839844 4 L 35.839844 8 L 34 8 Z M 34 4 " clip-rule="nonzero"/></clipPath><clipPath id="d159f35110"><path d="M 0 0 L 37.007812 0 L 37.007812 37.007812 L 0 37.007812 Z M 0 0 " clip-rule="nonzero"/></clipPath><clipPath id="37e30d4f5b"><path d="M 0.371094 0.195312 L 37.007812 0.195312 L 37.007812 37.007812 L 0.371094 37.007812 Z M 0.371094 0.195312 " clip-rule="nonzero"/></clipPath><clipPath id="af545799a2"><path d="M 25.8125 5 L 28 5 L 28 9 L 25.8125 9 Z M 25.8125 5 " clip-rule="nonzero"/></clipPath><clipPath id="2aa192eefe"><path d="M 31 2 L 35.433594 2 L 35.433594 5 L 31 5 Z M 31 2 " clip-rule="nonzero"/></clipPath><clipPath id="5070b1f78e"><path d="M 27 3 L 35 3 L 35 11.621094 L 27 11.621094 Z M 27 3 " clip-rule="nonzero"/></clipPath><clipPath id="bfdeeb9e8d"><path d="M 34 5 L 35.433594 5 L 35.433594 8 L 34 8 Z M 34 5 " clip-rule="nonzero"/></clipPath></defs><g clip-path="url(#56990eafba)"><path fill="#180744" d="M 29.425781 3.925781 C 29.660156 3.832031 29.867188 3.699219 30.050781 3.550781 C 30.019531 3.246094 29.96875 3.003906 29.898438 2.835938 C 29.695312 2.347656 29.15625 1.621094 28.839844 1.503906 C 28.789062 1.484375 28.746094 1.480469 28.71875 1.496094 C 28.53125 1.589844 28.550781 2.085938 28.613281 2.417969 C 28.742188 2.414062 28.824219 2.421875 28.832031 2.421875 C 28.878906 2.425781 28.914062 2.46875 28.910156 2.515625 C 28.90625 2.5625 28.863281 2.59375 28.816406 2.589844 C 28.8125 2.589844 28.3125 2.546875 27.894531 2.757812 C 27.476562 2.964844 27.207031 3.394531 27.203125 3.398438 C 27.1875 3.425781 27.160156 3.4375 27.132812 3.4375 C 27.117188 3.4375 27.101562 3.433594 27.085938 3.425781 C 27.046875 3.402344 27.035156 3.347656 27.058594 3.308594 C 27.0625 3.300781 27.109375 3.226562 27.191406 3.128906 C 26.96875 2.875 26.59375 2.558594 26.410156 2.652344 C 26.378906 2.664062 26.355469 2.699219 26.339844 2.753906 C 26.238281 3.082031 26.480469 3.957031 26.738281 4.417969 C 26.8125 4.550781 26.929688 4.699219 27.09375 4.867188 L 27.09375 4.15625 C 27.09375 4.128906 27.105469 4.105469 27.125 4.089844 C 27.144531 4.074219 27.167969 4.066406 27.195312 4.074219 C 27.207031 4.074219 28.457031 4.320312 29.425781 3.925781 Z M 29.425781 3.925781 " fill-opacity="1" fill-rule="nonzero"/></g><g clip-path="url(#32a7bbd779)"><path fill="#180744" d="M 26.554688 6.898438 C 26.203125 6.445312 26.246094 5.617188 26.289062 5.339844 C 26.320312 5.167969 26.207031 5.003906 26.039062 4.976562 C 26.023438 4.972656 26.003906 4.972656 25.988281 4.972656 C 25.835938 4.972656 25.707031 5.082031 25.683594 5.230469 C 25.660156 5.363281 25.484375 6.527344 26.070312 7.285156 C 26.273438 7.550781 26.617188 7.757812 27.09375 7.902344 L 27.09375 7.242188 C 26.839844 7.148438 26.65625 7.03125 26.554688 6.898438 Z M 26.554688 6.898438 " fill-opacity="1" fill-rule="nonzero"/></g><g clip-path="url(#fff77f47cd)"><path fill="#180744" d="M 35.507812 3.207031 C 35.421875 2.65625 34.523438 2.765625 34.511719 2.765625 C 34.484375 2.769531 34.457031 2.757812 34.4375 2.734375 C 34.4375 2.734375 34.199219 2.460938 33.835938 2.296875 C 33.476562 2.128906 33.117188 2.132812 33.113281 2.132812 C 33.085938 2.132812 33.058594 2.117188 33.042969 2.09375 C 33.039062 2.085938 32.519531 1.332031 32.058594 1.628906 C 31.710938 1.855469 31.855469 2.65625 31.980469 3.097656 C 32.1875 2.816406 32.414062 2.582031 32.671875 2.382812 C 32.710938 2.355469 32.761719 2.363281 32.792969 2.398438 C 32.820312 2.4375 32.8125 2.492188 32.777344 2.519531 C 32.4375 2.777344 32.152344 3.105469 31.90625 3.523438 C 32.09375 3.679688 32.316406 3.824219 32.5625 3.925781 C 33.164062 4.167969 33.871094 4.167969 34.324219 4.132812 C 34.382812 3.832031 34.402344 3.542969 34.378906 3.25 C 34.375 3.203125 34.40625 3.164062 34.453125 3.160156 C 34.5 3.15625 34.542969 3.191406 34.546875 3.238281 C 34.570312 3.527344 34.554688 3.816406 34.5 4.117188 C 34.648438 4.097656 34.746094 4.082031 34.78125 4.074219 C 35.082031 3.898438 35.5625 3.554688 35.507812 3.207031 Z M 35.507812 3.207031 " fill-opacity="1" fill-rule="nonzero"/></g><g clip-path="url(#11558365f2)"><path fill="#180744" d="M 32.5 4.082031 C 31.683594 3.753906 31.175781 3.011719 30.996094 2.703125 C 30.8125 3.011719 30.304688 3.753906 29.488281 4.082031 C 28.628906 4.433594 27.589844 4.308594 27.261719 4.257812 L 27.261719 9.339844 C 27.261719 9.875 27.664062 10.425781 28.394531 10.890625 C 29.085938 11.332031 30.035156 11.667969 30.996094 11.808594 C 31.957031 11.667969 32.902344 11.332031 33.597656 10.890625 C 34.324219 10.425781 34.726562 9.875 34.726562 9.339844 L 34.726562 4.257812 C 34.402344 4.308594 33.363281 4.433594 32.5 4.082031 Z M 32.863281 8.25 L 31.71875 8.25 L 31.71875 9.410156 L 30.269531 9.410156 L 30.269531 8.25 L 29.128906 8.25 L 29.128906 6.78125 L 30.269531 6.78125 L 30.269531 5.621094 L 31.71875 5.621094 L 31.71875 6.78125 L 32.863281 6.78125 Z M 32.863281 8.25 " fill-opacity="1" fill-rule="nonzero"/></g><g clip-path="url(#26179dfd3d)"><path fill="#180744" d="M 35.78125 6.109375 C 35.785156 6.105469 35.964844 5.925781 35.964844 5.738281 C 35.964844 5.550781 35.804688 5.394531 35.804688 5.394531 C 35.777344 5.371094 35.769531 5.332031 35.78125 5.300781 C 35.808594 5.234375 35.863281 5.039062 35.808594 4.929688 C 35.773438 4.855469 35.6875 4.789062 35.609375 4.746094 C 35.59375 4.964844 35.546875 5.414062 35.421875 5.691406 C 35.285156 6 34.996094 6.25 34.898438 6.328125 L 34.898438 7.355469 C 34.980469 7.359375 35.101562 7.355469 35.179688 7.300781 C 35.277344 7.230469 35.289062 7.015625 35.285156 6.945312 C 35.285156 6.921875 35.292969 6.898438 35.3125 6.882812 C 35.328125 6.863281 35.351562 6.855469 35.375 6.855469 C 35.457031 6.863281 35.695312 6.84375 35.78125 6.714844 C 35.871094 6.582031 35.796875 6.296875 35.761719 6.199219 C 35.753906 6.167969 35.761719 6.132812 35.78125 6.109375 Z M 35.78125 6.109375 " fill-opacity="1" fill-rule="nonzero"/></g><path fill="#7ed957" d="M 32.695312 30.375 L 32.140625 30.007812 C 31.890625 29.839844 31.730469 29.613281 31.65625 29.320312 C 31.578125 29 31.445312 28.699219 31.265625 28.421875 C 31.085938 28.144531 30.867188 27.90625 30.605469 27.703125 C 30.34375 27.5 30.058594 27.34375 29.746094 27.234375 C 29.433594 27.128906 29.113281 27.074219 28.78125 27.074219 C 28.449219 27.074219 28.128906 27.128906 27.816406 27.234375 C 27.503906 27.34375 27.21875 27.5 26.957031 27.703125 C 26.695312 27.90625 26.476562 28.144531 26.296875 28.421875 C 26.117188 28.699219 25.984375 29 25.90625 29.320312 C 25.832031 29.613281 25.671875 29.839844 25.421875 30.007812 L 24.867188 30.375 C 24.464844 30.644531 24.179688 31.007812 24.015625 31.464844 C 23.851562 31.921875 23.84375 32.382812 23.984375 32.847656 C 24.125 33.3125 24.390625 33.691406 24.777344 33.980469 C 25.167969 34.269531 25.605469 34.414062 26.089844 34.414062 L 26.1875 34.414062 C 26.789062 34.414062 27.359375 34.28125 27.894531 34.011719 C 28.484375 33.722656 29.078125 33.722656 29.667969 34.011719 C 30.203125 34.28125 30.773438 34.414062 31.371094 34.414062 L 31.472656 34.414062 C 31.957031 34.414062 32.394531 34.269531 32.785156 33.980469 C 33.175781 33.691406 33.4375 33.3125 33.578125 32.847656 C 33.722656 32.382812 33.710938 31.921875 33.546875 31.464844 C 33.382812 31.007812 33.097656 30.644531 32.695312 30.375 Z M 31.472656 33.191406 L 31.375 33.191406 C 30.964844 33.191406 30.582031 33.097656 30.214844 32.917969 C 29.765625 32.691406 29.285156 32.578125 28.78125 32.578125 C 28.277344 32.578125 27.800781 32.691406 27.347656 32.917969 C 26.980469 33.101562 26.59375 33.191406 26.183594 33.191406 L 26.085938 33.191406 C 25.871094 33.191406 25.675781 33.125 25.503906 32.996094 C 25.328125 32.867188 25.210938 32.699219 25.148438 32.492188 C 25.085938 32.285156 25.089844 32.082031 25.164062 31.875 C 25.234375 31.671875 25.363281 31.511719 25.542969 31.390625 L 26.09375 31.023438 C 26.605469 30.683594 26.9375 30.214844 27.085938 29.617188 C 27.183594 29.226562 27.390625 28.910156 27.703125 28.664062 C 28.019531 28.421875 28.375 28.296875 28.773438 28.296875 C 29.175781 28.296875 29.53125 28.421875 29.847656 28.664062 C 30.160156 28.910156 30.367188 29.226562 30.464844 29.617188 C 30.613281 30.214844 30.945312 30.683594 31.457031 31.023438 L 32.007812 31.390625 C 32.1875 31.511719 32.3125 31.671875 32.386719 31.875 C 32.460938 32.078125 32.464844 32.28125 32.40625 32.488281 C 32.34375 32.695312 32.226562 32.863281 32.054688 32.992188 C 31.882812 33.125 31.6875 33.1875 31.472656 33.191406 Z M 31.472656 33.191406 " fill-opacity="1" fill-rule="nonzero"/><path fill="#7ed957" d="M 25.71875 27.679688 C 25.71875 26.308594 24.910156 25.234375 23.882812 25.234375 C 22.851562 25.234375 22.042969 26.308594 22.042969 27.679688 C 22.042969 29.054688 22.851562 30.128906 23.882812 30.128906 C 24.910156 30.128906 25.71875 29.054688 25.71875 27.679688 Z M 23.269531 27.679688 C 23.269531 26.933594 23.632812 26.457031 23.882812 26.457031 C 24.128906 26.457031 24.492188 26.933594 24.492188 27.679688 C 24.492188 28.429688 24.128906 28.90625 23.882812 28.90625 C 23.632812 28.90625 23.269531 28.429688 23.269531 27.679688 Z M 23.269531 27.679688 " fill-opacity="1" fill-rule="nonzero"/><path fill="#7ed957" d="M 26.941406 27.070312 C 27.972656 27.070312 28.777344 25.992188 28.777344 24.621094 C 28.777344 23.246094 27.972656 22.171875 26.941406 22.171875 C 25.910156 22.171875 25.105469 23.246094 25.105469 24.621094 C 25.105469 25.992188 25.910156 27.070312 26.941406 27.070312 Z M 26.941406 23.394531 C 27.191406 23.394531 27.554688 23.875 27.554688 24.621094 C 27.554688 25.367188 27.191406 25.84375 26.941406 25.84375 C 26.691406 25.84375 26.328125 25.367188 26.328125 24.621094 C 26.328125 23.875 26.691406 23.394531 26.941406 23.394531 Z M 26.941406 23.394531 " fill-opacity="1" fill-rule="nonzero"/><path fill="#7ed957" d="M 31.839844 27.679688 C 31.839844 29.054688 32.644531 30.128906 33.675781 30.128906 C 34.707031 30.128906 35.511719 29.054688 35.511719 27.679688 C 35.511719 26.308594 34.707031 25.234375 33.675781 25.234375 C 32.644531 25.234375 31.839844 26.308594 31.839844 27.679688 Z M 34.289062 27.679688 C 34.289062 28.429688 33.925781 28.90625 33.675781 28.90625 C 33.425781 28.90625 33.0625 28.429688 33.0625 27.679688 C 33.0625 26.933594 33.425781 26.457031 33.675781 26.457031 C 33.925781 26.457031 34.289062 26.933594 34.289062 27.679688 Z M 34.289062 27.679688 " fill-opacity="1" fill-rule="nonzero"/><path fill="#7ed957" d="M 30.613281 27.070312 C 31.644531 27.070312 32.453125 25.992188 32.453125 24.621094 C 32.453125 23.246094 31.644531 22.171875 30.613281 22.171875 C 29.585938 22.171875 28.777344 23.246094 28.777344 24.621094 C 28.777344 25.992188 29.585938 27.070312 30.613281 27.070312 Z M 30.613281 23.394531 C 30.863281 23.394531 31.226562 23.875 31.226562 24.621094 C 31.226562 25.367188 30.863281 25.84375 30.613281 25.84375 C 30.363281 25.84375 30.003906 25.367188 30.003906 24.621094 C 30.003906 23.875 30.363281 23.394531 30.613281 23.394531 Z M 30.613281 23.394531 " fill-opacity="1" fill-rule="nonzero"/><g clip-path="url(#d159f35110)"><path fill="#7ed957" d="M 28.777344 19.109375 C 27.570312 19.109375 26.40625 19.339844 25.289062 19.800781 C 24.167969 20.261719 23.183594 20.917969 22.324219 21.769531 L 20.207031 21.109375 L 20.207031 19.191406 C 20.796875 18.617188 21.25 17.949219 21.566406 17.191406 C 21.886719 16.4375 22.042969 15.648438 22.042969 14.824219 C 22.582031 14.824219 23.066406 14.664062 23.5 14.34375 C 23.933594 14.023438 24.226562 13.605469 24.386719 13.09375 C 24.542969 12.578125 24.53125 12.066406 24.351562 11.558594 C 24.171875 11.050781 23.859375 10.648438 23.410156 10.347656 L 23.582031 9.332031 C 23.78125 8.132812 23.878906 6.921875 23.882812 5.703125 C 23.878906 5.222656 23.800781 4.753906 23.648438 4.296875 C 23.496094 3.84375 23.273438 3.421875 22.980469 3.039062 C 22.691406 2.65625 22.347656 2.328125 21.949219 2.054688 C 21.554688 1.78125 21.121094 1.582031 20.660156 1.449219 C 20.390625 0.863281 19.988281 0.394531 19.441406 0.0429688 C 18.898438 -0.304688 18.304688 -0.480469 17.660156 -0.480469 L 15.804688 -0.480469 C 14.191406 -0.476562 12.621094 -0.203125 11.101562 0.347656 C 9.582031 0.898438 8.203125 1.691406 6.960938 2.722656 C 6.878906 2.789062 6.820312 2.871094 6.78125 2.96875 C 6.742188 3.0625 6.730469 3.164062 6.742188 3.265625 C 6.753906 3.371094 6.789062 3.464844 6.847656 3.550781 C 6.910156 3.632812 6.984375 3.699219 7.078125 3.746094 C 7.351562 3.878906 7.566406 4.074219 7.726562 4.332031 C 7.886719 4.589844 7.964844 4.871094 7.964844 5.175781 C 7.964844 6.746094 8.09375 8.304688 8.351562 9.851562 L 8.433594 10.347656 C 7.988281 10.648438 7.675781 11.050781 7.496094 11.558594 C 7.316406 12.066406 7.304688 12.578125 7.460938 13.09375 C 7.617188 13.605469 7.914062 14.023438 8.34375 14.34375 C 8.777344 14.664062 9.261719 14.824219 9.800781 14.824219 C 9.800781 15.648438 9.960938 16.4375 10.277344 17.191406 C 10.597656 17.949219 11.050781 18.617188 11.636719 19.191406 L 11.636719 21.109375 L 5.25 23.105469 C 4.222656 23.429688 3.324219 23.96875 2.554688 24.722656 C 1.785156 25.476562 1.230469 26.363281 0.886719 27.386719 C 0.710938 27.910156 0.605469 28.449219 0.566406 29 L 0.0078125 36.820312 C -0.0078125 37 0.046875 37.152344 0.167969 37.28125 C 0.289062 37.410156 0.441406 37.476562 0.617188 37.476562 L 31.226562 37.476562 C 31.40625 37.476562 31.554688 37.410156 31.675781 37.28125 C 31.757812 37.183594 31.808594 37.074219 31.820312 36.949219 C 32.328125 36.769531 32.816406 36.550781 33.285156 36.285156 C 33.753906 36.023438 34.195312 35.71875 34.609375 35.378906 C 35.027344 35.039062 35.410156 34.664062 35.757812 34.253906 C 36.109375 33.84375 36.417969 33.410156 36.691406 32.945312 C 36.964844 32.484375 37.195312 32 37.382812 31.496094 C 37.570312 30.992188 37.714844 30.476562 37.8125 29.945312 C 37.910156 29.417969 37.960938 28.882812 37.960938 28.347656 C 37.964844 27.808594 37.921875 27.273438 37.832031 26.746094 C 37.742188 26.214844 37.605469 25.695312 37.425781 25.191406 C 37.242188 24.683594 37.019531 24.199219 36.75 23.730469 C 36.484375 23.265625 36.179688 22.824219 35.835938 22.410156 C 35.492188 22 35.113281 21.617188 34.703125 21.273438 C 34.289062 20.925781 33.851562 20.617188 33.386719 20.347656 C 32.921875 20.078125 32.4375 19.851562 31.929688 19.667969 C 31.425781 19.484375 30.910156 19.34375 30.378906 19.25 C 29.851562 19.15625 29.316406 19.109375 28.777344 19.109375 Z M 19.746094 29.902344 C 19.375 30.230469 18.992188 30.550781 18.59375 30.855469 C 18.980469 29.984375 19.316406 29.097656 19.601562 28.191406 C 19.601562 28.222656 19.597656 28.257812 19.597656 28.292969 C 19.597656 28.832031 19.648438 29.371094 19.746094 29.902344 Z M 9.578125 24.757812 C 9.425781 24.636719 9.257812 24.59375 9.066406 24.632812 L 7.117188 25.023438 C 7.335938 24.488281 7.625 23.992188 7.976562 23.535156 L 11.125 22.550781 C 11.367188 25.429688 12.074219 28.191406 13.242188 30.835938 C 11.988281 29.882812 10.871094 28.796875 9.886719 27.570312 L 9.800781 27.46875 L 9.800781 25.234375 C 9.800781 25.039062 9.726562 24.882812 9.578125 24.757812 Z M 8.578125 32.578125 C 8.578125 32.742188 8.546875 32.898438 8.484375 33.046875 C 8.421875 33.199219 8.332031 33.328125 8.21875 33.445312 C 8.101562 33.558594 7.972656 33.648438 7.820312 33.710938 C 7.671875 33.773438 7.515625 33.804688 7.351562 33.804688 C 7.191406 33.804688 7.035156 33.773438 6.882812 33.710938 C 6.734375 33.648438 6.601562 33.558594 6.488281 33.445312 C 6.371094 33.328125 6.285156 33.199219 6.222656 33.046875 C 6.160156 32.898438 6.128906 32.742188 6.128906 32.578125 C 6.128906 32.417969 6.160156 32.261719 6.222656 32.109375 C 6.285156 31.960938 6.371094 31.828125 6.488281 31.714844 C 6.601562 31.597656 6.734375 31.511719 6.882812 31.449219 C 7.035156 31.386719 7.191406 31.355469 7.351562 31.355469 C 7.515625 31.355469 7.671875 31.386719 7.820312 31.449219 C 7.972656 31.511719 8.101562 31.597656 8.21875 31.714844 C 8.332031 31.828125 8.421875 31.960938 8.484375 32.109375 C 8.546875 32.261719 8.578125 32.417969 8.578125 32.578125 Z M 15.253906 32.324219 L 14.476562 30.605469 C 13.753906 29.019531 13.207031 27.375 12.835938 25.675781 C 13.796875 26.195312 14.828125 26.457031 15.921875 26.457031 C 17.019531 26.457031 18.046875 26.195312 19.011719 25.675781 C 18.636719 27.375 18.089844 29.019531 17.371094 30.609375 L 16.589844 32.324219 C 16.554688 32.40625 16.535156 32.492188 16.535156 32.578125 L 16.535156 36.25 L 15.308594 36.25 L 15.308594 32.578125 C 15.3125 32.492188 15.292969 32.40625 15.253906 32.324219 Z M 21.453125 22.785156 C 21.085938 23.269531 20.773438 23.785156 20.507812 24.328125 C 20.601562 23.742188 20.667969 23.148438 20.71875 22.554688 Z M 22.042969 13.601562 L 22.042969 11.152344 C 22.207031 11.152344 22.363281 11.183594 22.511719 11.246094 C 22.664062 11.308594 22.796875 11.398438 22.910156 11.511719 C 23.023438 11.625 23.113281 11.757812 23.175781 11.910156 C 23.238281 12.058594 23.269531 12.214844 23.269531 12.378906 C 23.269531 12.539062 23.238281 12.695312 23.175781 12.84375 C 23.113281 12.996094 23.023438 13.128906 22.910156 13.242188 C 22.796875 13.359375 22.664062 13.445312 22.511719 13.507812 C 22.363281 13.570312 22.207031 13.601562 22.042969 13.601562 Z M 8.578125 12.378906 C 8.578125 12.214844 8.609375 12.058594 8.667969 11.910156 C 8.730469 11.757812 8.820312 11.625 8.933594 11.511719 C 9.050781 11.398438 9.183594 11.308594 9.332031 11.246094 C 9.484375 11.183594 9.636719 11.152344 9.800781 11.152344 L 9.800781 13.601562 C 9.636719 13.601562 9.480469 13.570312 9.332031 13.507812 C 9.183594 13.445312 9.050781 13.359375 8.933594 13.242188 C 8.820312 13.128906 8.730469 12.996094 8.667969 12.84375 C 8.609375 12.695312 8.578125 12.539062 8.578125 12.378906 Z M 10.605469 6.085938 C 10.070312 6.890625 9.800781 7.777344 9.800781 8.746094 L 9.800781 9.929688 C 9.734375 9.929688 9.671875 9.941406 9.609375 9.949219 L 9.558594 9.652344 C 9.3125 8.167969 9.191406 6.675781 9.191406 5.175781 C 9.195312 4.394531 8.921875 3.730469 8.367188 3.179688 C 9.449219 2.390625 10.625 1.789062 11.894531 1.371094 C 13.164062 0.957031 14.46875 0.746094 15.804688 0.746094 L 17.660156 0.746094 C 18.105469 0.746094 18.511719 0.875 18.871094 1.136719 C 19.234375 1.398438 19.484375 1.738281 19.628906 2.164062 C 19.703125 2.386719 19.855469 2.523438 20.085938 2.570312 C 20.449219 2.644531 20.789062 2.773438 21.105469 2.964844 C 21.421875 3.15625 21.695312 3.394531 21.929688 3.679688 C 22.164062 3.964844 22.34375 4.28125 22.46875 4.628906 C 22.59375 4.976562 22.65625 5.335938 22.65625 5.703125 C 22.65625 6.855469 22.5625 7.996094 22.375 9.132812 L 22.238281 9.949219 C 22.171875 9.941406 22.109375 9.929688 22.042969 9.929688 L 22.042969 8.746094 C 22.046875 7.777344 21.777344 6.890625 21.238281 6.085938 C 20.9375 5.644531 20.535156 5.339844 20.035156 5.167969 C 19.53125 4.996094 19.027344 4.992188 18.519531 5.152344 L 18.113281 5.289062 C 16.652344 5.773438 15.191406 5.773438 13.730469 5.289062 L 13.324219 5.152344 C 12.820312 4.992188 12.3125 4.996094 11.8125 5.167969 C 11.308594 5.339844 10.90625 5.644531 10.605469 6.085938 Z M 11.023438 14.824219 L 11.023438 8.746094 C 11.023438 8.027344 11.222656 7.363281 11.625 6.765625 C 11.769531 6.550781 11.960938 6.402344 12.207031 6.316406 C 12.449219 6.234375 12.695312 6.234375 12.9375 6.3125 L 13.34375 6.449219 C 15.0625 7.019531 16.78125 7.019531 18.503906 6.449219 L 18.90625 6.3125 C 19.152344 6.234375 19.394531 6.238281 19.636719 6.320312 C 19.882812 6.40625 20.074219 6.550781 20.21875 6.765625 C 20.621094 7.363281 20.820312 8.027344 20.820312 8.746094 L 20.820312 14.824219 C 20.820312 15.148438 20.789062 15.464844 20.726562 15.78125 C 20.664062 16.097656 20.570312 16.402344 20.449219 16.699219 C 20.324219 16.996094 20.171875 17.277344 19.996094 17.546875 C 19.816406 17.8125 19.613281 18.0625 19.386719 18.289062 C 19.160156 18.515625 18.910156 18.71875 18.644531 18.898438 C 18.375 19.078125 18.09375 19.226562 17.796875 19.351562 C 17.5 19.472656 17.195312 19.566406 16.878906 19.628906 C 16.5625 19.691406 16.246094 19.722656 15.921875 19.722656 C 15.601562 19.722656 15.28125 19.691406 14.96875 19.628906 C 14.652344 19.566406 14.34375 19.472656 14.046875 19.351562 C 13.75 19.226562 13.46875 19.078125 13.203125 18.898438 C 12.933594 18.71875 12.6875 18.515625 12.460938 18.289062 C 12.230469 18.0625 12.03125 17.8125 11.851562 17.546875 C 11.671875 17.277344 11.519531 16.996094 11.398438 16.699219 C 11.273438 16.402344 11.183594 16.097656 11.121094 15.78125 C 11.058594 15.464844 11.023438 15.148438 11.023438 14.824219 Z M 15.921875 20.949219 C 17.019531 20.945312 18.039062 20.671875 18.984375 20.121094 L 18.984375 21.558594 C 18.984375 21.859375 19.125 22.054688 19.414062 22.144531 L 19.519531 22.179688 C 19.472656 22.785156 19.414062 23.390625 19.324219 23.988281 C 18.847656 24.390625 18.320312 24.699219 17.734375 24.914062 C 17.148438 25.125 16.546875 25.234375 15.921875 25.234375 C 15.300781 25.234375 14.695312 25.125 14.109375 24.914062 C 13.527344 24.699219 12.996094 24.390625 12.519531 23.988281 C 12.429688 23.390625 12.371094 22.785156 12.324219 22.179688 L 12.429688 22.144531 C 12.71875 22.054688 12.863281 21.859375 12.863281 21.558594 L 12.863281 20.121094 C 13.808594 20.671875 14.828125 20.945312 15.921875 20.949219 Z M 1.785156 29.089844 C 1.820312 28.640625 1.90625 28.203125 2.046875 27.777344 C 2.328125 26.941406 2.78125 26.214844 3.410156 25.597656 C 4.039062 24.980469 4.773438 24.539062 5.613281 24.277344 L 6.191406 24.097656 C 6.109375 24.265625 6.035156 24.433594 5.964844 24.609375 L 5.558594 25.621094 C 5.46875 25.84375 5.5 26.050781 5.65625 26.238281 C 5.785156 26.390625 5.949219 26.460938 6.144531 26.453125 C 6.183594 27.738281 6.273438 29.035156 6.417969 30.316406 C 6.234375 30.390625 6.058594 30.488281 5.898438 30.601562 C 5.738281 30.71875 5.589844 30.851562 5.460938 31 C 5.332031 31.152344 5.222656 31.316406 5.132812 31.496094 C 5.042969 31.671875 4.972656 31.859375 4.929688 32.050781 C 4.882812 32.246094 4.863281 32.441406 4.867188 32.640625 C 4.867188 32.839844 4.894531 33.035156 4.945312 33.226562 C 4.996094 33.421875 5.066406 33.605469 5.160156 33.78125 C 5.253906 33.953125 5.371094 34.117188 5.503906 34.261719 C 5.636719 34.410156 5.785156 34.539062 5.949219 34.652344 C 6.117188 34.761719 6.292969 34.851562 6.476562 34.921875 C 6.664062 34.992188 6.855469 35.035156 7.054688 35.058594 C 7.253906 35.082031 7.449219 35.078125 7.648438 35.054688 C 7.84375 35.027344 8.035156 34.980469 8.222656 34.910156 C 8.40625 34.835938 8.582031 34.742188 8.746094 34.628906 C 8.90625 34.515625 9.054688 34.382812 9.1875 34.234375 C 9.316406 34.085938 9.429688 33.921875 9.519531 33.746094 C 9.613281 33.566406 9.679688 33.382812 9.726562 33.191406 C 9.773438 32.996094 9.796875 32.800781 9.796875 32.601562 C 9.796875 32.402344 9.773438 32.207031 9.722656 32.011719 C 9.675781 31.820312 9.605469 31.636719 9.511719 31.460938 C 9.421875 31.285156 9.308594 31.121094 9.175781 30.972656 C 9.042969 30.824219 8.894531 30.691406 8.730469 30.578125 C 8.570312 30.464844 8.394531 30.375 8.207031 30.304688 C 8.023438 30.234375 7.832031 30.1875 7.632812 30.160156 C 7.484375 28.855469 7.394531 27.535156 7.363281 26.222656 L 8.578125 25.980469 L 8.578125 27.679688 C 8.578125 27.824219 8.621094 27.953125 8.710938 28.0625 L 8.929688 28.335938 C 10.386719 30.15625 12.105469 31.679688 14.085938 32.90625 L 14.085938 36.25 L 1.273438 36.25 Z M 17.757812 36.25 L 17.757812 32.914062 C 18.574219 32.410156 19.347656 31.847656 20.085938 31.230469 C 20.445312 32.292969 20.984375 33.253906 21.695312 34.117188 C 22.40625 34.984375 23.246094 35.695312 24.214844 36.25 Z M 28.777344 36.25 C 28.253906 36.25 27.738281 36.199219 27.226562 36.097656 C 26.714844 35.996094 26.214844 35.847656 25.734375 35.644531 C 25.25 35.445312 24.792969 35.199219 24.355469 34.910156 C 23.921875 34.621094 23.519531 34.289062 23.152344 33.921875 C 22.78125 33.550781 22.453125 33.148438 22.160156 32.714844 C 21.871094 32.28125 21.625 31.820312 21.425781 31.339844 C 21.226562 30.855469 21.074219 30.359375 20.972656 29.847656 C 20.871094 29.332031 20.820312 28.816406 20.820312 28.292969 C 20.820312 27.769531 20.871094 27.253906 20.972656 26.742188 C 21.074219 26.230469 21.226562 25.730469 21.425781 25.25 C 21.625 24.765625 21.871094 24.308594 22.160156 23.871094 C 22.453125 23.4375 22.78125 23.035156 23.152344 22.667969 C 23.519531 22.296875 23.921875 21.96875 24.355469 21.675781 C 24.792969 21.386719 25.25 21.140625 25.734375 20.941406 C 26.214844 20.742188 26.714844 20.589844 27.226562 20.488281 C 27.738281 20.386719 28.253906 20.335938 28.777344 20.335938 C 29.300781 20.335938 29.820312 20.386719 30.332031 20.488281 C 30.84375 20.589844 31.339844 20.742188 31.824219 20.941406 C 32.308594 21.140625 32.765625 21.386719 33.199219 21.675781 C 33.632812 21.96875 34.035156 22.296875 34.40625 22.667969 C 34.773438 23.035156 35.105469 23.4375 35.394531 23.871094 C 35.6875 24.308594 35.929688 24.765625 36.132812 25.25 C 36.332031 25.730469 36.480469 26.230469 36.582031 26.742188 C 36.6875 27.253906 36.738281 27.769531 36.738281 28.292969 C 36.734375 28.816406 36.683594 29.332031 36.582031 29.84375 C 36.480469 30.359375 36.328125 30.855469 36.128906 31.335938 C 35.929688 31.820312 35.683594 32.277344 35.394531 32.710938 C 35.101562 33.148438 34.773438 33.550781 34.402344 33.917969 C 34.035156 34.289062 33.632812 34.617188 33.199219 34.90625 C 32.761719 35.199219 32.304688 35.445312 31.824219 35.644531 C 31.339844 35.84375 30.84375 35.996094 30.332031 36.097656 C 29.816406 36.199219 29.300781 36.25 28.777344 36.25 Z M 28.777344 36.25 " fill-opacity="1" fill-rule="nonzero"/></g><path fill="#5019dd" d="M 32.078125 30.117188 L 31.539062 29.761719 C 31.296875 29.597656 31.140625 29.375 31.070312 29.09375 C 30.992188 28.78125 30.867188 28.492188 30.691406 28.222656 C 30.515625 27.953125 30.304688 27.722656 30.050781 27.523438 C 29.796875 27.328125 29.519531 27.175781 29.21875 27.070312 C 28.914062 26.96875 28.601562 26.914062 28.28125 26.914062 C 27.960938 26.914062 27.648438 26.96875 27.34375 27.070312 C 27.042969 27.175781 26.765625 27.328125 26.511719 27.523438 C 26.257812 27.722656 26.046875 27.953125 25.871094 28.222656 C 25.695312 28.492188 25.570312 28.78125 25.492188 29.09375 C 25.421875 29.375 25.265625 29.597656 25.023438 29.761719 L 24.484375 30.117188 C 24.09375 30.378906 23.820312 30.730469 23.660156 31.175781 C 23.5 31.617188 23.492188 32.066406 23.628906 32.515625 C 23.765625 32.964844 24.019531 33.332031 24.398438 33.613281 C 24.777344 33.894531 25.199219 34.035156 25.671875 34.035156 L 25.765625 34.035156 C 26.347656 34.035156 26.902344 33.90625 27.421875 33.644531 C 27.996094 33.363281 28.566406 33.363281 29.140625 33.644531 C 29.660156 33.902344 30.210938 34.035156 30.792969 34.035156 L 30.890625 34.035156 C 31.363281 34.035156 31.785156 33.894531 32.164062 33.613281 C 32.542969 33.332031 32.796875 32.964844 32.933594 32.515625 C 33.070312 32.066406 33.0625 31.617188 32.902344 31.175781 C 32.742188 30.730469 32.46875 30.378906 32.078125 30.117188 Z M 30.890625 32.847656 L 30.796875 32.847656 C 30.402344 32.847656 30.027344 32.757812 29.671875 32.582031 C 29.234375 32.363281 28.769531 32.253906 28.28125 32.253906 C 27.792969 32.253906 27.328125 32.363281 26.890625 32.582031 C 26.535156 32.757812 26.160156 32.847656 25.761719 32.847656 L 25.667969 32.847656 C 25.457031 32.847656 25.269531 32.785156 25.101562 32.660156 C 24.933594 32.535156 24.816406 32.371094 24.757812 32.171875 C 24.695312 31.96875 24.699219 31.769531 24.773438 31.574219 C 24.84375 31.375 24.964844 31.21875 25.140625 31.101562 L 25.675781 30.746094 C 26.171875 30.414062 26.492188 29.960938 26.636719 29.378906 C 26.730469 29.003906 26.929688 28.695312 27.238281 28.457031 C 27.542969 28.21875 27.886719 28.101562 28.273438 28.101562 C 28.664062 28.101562 29.007812 28.21875 29.3125 28.457031 C 29.617188 28.695312 29.820312 29.003906 29.914062 29.378906 C 30.058594 29.960938 30.378906 30.414062 30.875 30.746094 L 31.410156 31.101562 C 31.585938 31.21875 31.707031 31.375 31.777344 31.570312 C 31.847656 31.765625 31.855469 31.964844 31.796875 32.167969 C 31.734375 32.367188 31.621094 32.53125 31.457031 32.65625 C 31.289062 32.78125 31.101562 32.84375 30.890625 32.847656 Z M 30.890625 32.847656 " fill-opacity="1" fill-rule="nonzero"/><path fill="#5019dd" d="M 25.308594 27.503906 C 25.308594 26.171875 24.527344 25.128906 23.527344 25.128906 C 22.53125 25.128906 21.746094 26.171875 21.746094 27.503906 C 21.746094 28.835938 22.53125 29.878906 23.527344 29.878906 C 24.527344 29.878906 25.308594 28.835938 25.308594 27.503906 Z M 22.933594 27.503906 C 22.933594 26.777344 23.285156 26.316406 23.527344 26.316406 C 23.769531 26.316406 24.121094 26.777344 24.121094 27.503906 C 24.121094 28.230469 23.769531 28.691406 23.527344 28.691406 C 23.285156 28.691406 22.933594 28.230469 22.933594 27.503906 Z M 22.933594 27.503906 " fill-opacity="1" fill-rule="nonzero"/><path fill="#5019dd" d="M 26.496094 26.910156 C 27.496094 26.910156 28.277344 25.867188 28.277344 24.535156 C 28.277344 23.203125 27.496094 22.160156 26.496094 22.160156 C 25.496094 22.160156 24.714844 23.203125 24.714844 24.535156 C 24.714844 25.867188 25.496094 26.910156 26.496094 26.910156 Z M 26.496094 23.347656 C 26.738281 23.347656 27.089844 23.8125 27.089844 24.535156 C 27.089844 25.261719 26.738281 25.722656 26.496094 25.722656 C 26.253906 25.722656 25.902344 25.261719 25.902344 24.535156 C 25.902344 23.8125 26.253906 23.347656 26.496094 23.347656 Z M 26.496094 23.347656 " fill-opacity="1" fill-rule="nonzero"/><path fill="#5019dd" d="M 31.246094 27.503906 C 31.246094 28.835938 32.027344 29.878906 33.027344 29.878906 C 34.027344 29.878906 34.808594 28.835938 34.808594 27.503906 C 34.808594 26.171875 34.027344 25.128906 33.027344 25.128906 C 32.027344 25.128906 31.246094 26.171875 31.246094 27.503906 Z M 33.621094 27.503906 C 33.621094 28.230469 33.269531 28.691406 33.027344 28.691406 C 32.785156 28.691406 32.433594 28.230469 32.433594 27.503906 C 32.433594 26.777344 32.785156 26.316406 33.027344 26.316406 C 33.269531 26.316406 33.621094 26.777344 33.621094 27.503906 Z M 33.621094 27.503906 " fill-opacity="1" fill-rule="nonzero"/><path fill="#5019dd" d="M 30.058594 26.910156 C 31.058594 26.910156 31.839844 25.867188 31.839844 24.535156 C 31.839844 23.203125 31.058594 22.160156 30.058594 22.160156 C 29.058594 22.160156 28.277344 23.203125 28.277344 24.535156 C 28.277344 25.867188 29.058594 26.910156 30.058594 26.910156 Z M 30.058594 23.347656 C 30.300781 23.347656 30.652344 23.8125 30.652344 24.535156 C 30.652344 25.261719 30.300781 25.722656 30.058594 25.722656 C 29.816406 25.722656 29.464844 25.261719 29.464844 24.535156 C 29.464844 23.8125 29.816406 23.347656 30.058594 23.347656 Z M 30.058594 23.347656 " fill-opacity="1" fill-rule="nonzero"/><g clip-path="url(#37e30d4f5b)"><path fill="#5019dd" d="M 28.277344 19.191406 C 27.105469 19.191406 25.976562 19.414062 24.894531 19.863281 C 23.808594 20.308594 22.851562 20.945312 22.019531 21.773438 L 19.964844 21.128906 L 19.964844 19.269531 C 20.535156 18.710938 20.976562 18.066406 21.285156 17.332031 C 21.59375 16.597656 21.746094 15.832031 21.746094 15.035156 C 22.269531 15.035156 22.738281 14.878906 23.160156 14.570312 C 23.578125 14.257812 23.863281 13.855469 24.015625 13.355469 C 24.167969 12.855469 24.160156 12.359375 23.984375 11.867188 C 23.808594 11.375 23.507812 10.984375 23.074219 10.691406 L 23.238281 9.707031 C 23.429688 8.542969 23.527344 7.371094 23.527344 6.191406 C 23.527344 5.722656 23.453125 5.269531 23.304688 4.824219 C 23.152344 4.382812 22.9375 3.976562 22.65625 3.605469 C 22.375 3.230469 22.042969 2.914062 21.65625 2.652344 C 21.269531 2.386719 20.851562 2.191406 20.40625 2.0625 C 20.144531 1.492188 19.75 1.039062 19.222656 0.699219 C 18.699219 0.363281 18.121094 0.191406 17.496094 0.195312 L 15.699219 0.195312 C 14.128906 0.195312 12.609375 0.460938 11.136719 0.996094 C 9.660156 1.527344 8.320312 2.296875 7.117188 3.300781 C 7.039062 3.363281 6.980469 3.441406 6.945312 3.535156 C 6.90625 3.628906 6.894531 3.726562 6.90625 3.828125 C 6.917969 3.925781 6.953125 4.015625 7.011719 4.101562 C 7.066406 4.183594 7.140625 4.246094 7.230469 4.289062 C 7.496094 4.421875 7.707031 4.609375 7.859375 4.859375 C 8.015625 5.109375 8.09375 5.382812 8.09375 5.675781 C 8.09375 7.199219 8.21875 8.710938 8.46875 10.214844 L 8.546875 10.691406 C 8.113281 10.984375 7.8125 11.375 7.636719 11.867188 C 7.460938 12.359375 7.449219 12.855469 7.601562 13.355469 C 7.753906 13.855469 8.042969 14.257812 8.460938 14.570312 C 8.878906 14.878906 9.351562 15.035156 9.875 15.035156 C 9.871094 15.832031 10.027344 16.597656 10.335938 17.332031 C 10.644531 18.066406 11.085938 18.710938 11.65625 19.269531 L 11.65625 21.128906 L 5.460938 23.066406 C 4.460938 23.378906 3.589844 23.902344 2.84375 24.632812 C 2.097656 25.367188 1.558594 26.226562 1.226562 27.21875 C 1.058594 27.726562 0.957031 28.246094 0.917969 28.78125 L 0.375 36.367188 C 0.363281 36.539062 0.414062 36.6875 0.53125 36.816406 C 0.648438 36.941406 0.796875 37.003906 0.96875 37.003906 L 30.652344 37.003906 C 30.824219 37.003906 30.96875 36.941406 31.085938 36.8125 C 31.167969 36.722656 31.214844 36.613281 31.226562 36.492188 C 31.71875 36.320312 32.195312 36.105469 32.648438 35.847656 C 33.101562 35.59375 33.53125 35.300781 33.933594 34.96875 C 34.335938 34.636719 34.707031 34.273438 35.046875 33.878906 C 35.386719 33.480469 35.6875 33.058594 35.953125 32.609375 C 36.21875 32.160156 36.441406 31.691406 36.625 31.203125 C 36.804688 30.714844 36.945312 30.214844 37.039062 29.699219 C 37.132812 29.1875 37.183594 28.671875 37.183594 28.148438 C 37.1875 27.628906 37.148438 27.109375 37.058594 26.59375 C 36.972656 26.082031 36.839844 25.578125 36.664062 25.089844 C 36.488281 24.597656 36.269531 24.125 36.011719 23.671875 C 35.753906 23.21875 35.457031 22.792969 35.121094 22.394531 C 34.789062 21.992188 34.421875 21.625 34.023438 21.289062 C 33.625 20.953125 33.199219 20.652344 32.746094 20.390625 C 32.296875 20.128906 31.824219 19.910156 31.335938 19.730469 C 30.847656 19.550781 30.34375 19.417969 29.832031 19.328125 C 29.316406 19.238281 28.800781 19.191406 28.277344 19.191406 Z M 19.519531 29.65625 C 19.160156 29.976562 18.789062 30.289062 18.402344 30.582031 C 18.773438 29.738281 19.101562 28.875 19.378906 27.996094 C 19.378906 28.03125 19.371094 28.0625 19.371094 28.097656 C 19.375 28.621094 19.421875 29.140625 19.519531 29.65625 Z M 9.65625 24.667969 C 9.511719 24.550781 9.347656 24.511719 9.164062 24.546875 L 7.269531 24.925781 C 7.484375 24.40625 7.761719 23.925781 8.105469 23.484375 L 11.15625 22.527344 C 11.394531 25.320312 12.078125 28 13.210938 30.5625 C 11.996094 29.640625 10.910156 28.585938 9.953125 27.398438 L 9.875 27.296875 L 9.875 25.128906 C 9.871094 24.941406 9.800781 24.789062 9.65625 24.671875 Z M 8.6875 32.253906 C 8.6875 32.410156 8.65625 32.5625 8.59375 32.707031 C 8.535156 32.855469 8.449219 32.980469 8.339844 33.09375 C 8.226562 33.203125 8.097656 33.289062 7.953125 33.351562 C 7.808594 33.410156 7.65625 33.441406 7.5 33.441406 C 7.339844 33.441406 7.191406 33.410156 7.042969 33.351562 C 6.898438 33.289062 6.769531 33.203125 6.660156 33.09375 C 6.546875 32.980469 6.460938 32.855469 6.402344 32.707031 C 6.339844 32.5625 6.3125 32.410156 6.3125 32.253906 C 6.3125 32.097656 6.339844 31.945312 6.402344 31.800781 C 6.460938 31.652344 6.546875 31.527344 6.660156 31.414062 C 6.769531 31.304688 6.898438 31.21875 7.042969 31.15625 C 7.191406 31.097656 7.339844 31.066406 7.5 31.066406 C 7.65625 31.066406 7.808594 31.097656 7.953125 31.15625 C 8.097656 31.21875 8.226562 31.304688 8.339844 31.414062 C 8.449219 31.527344 8.535156 31.652344 8.59375 31.800781 C 8.65625 31.945312 8.6875 32.097656 8.6875 32.253906 Z M 15.164062 32.007812 L 14.40625 30.339844 C 13.707031 28.800781 13.179688 27.207031 12.816406 25.558594 C 13.75 26.0625 14.75 26.316406 15.808594 26.316406 C 16.871094 26.316406 17.871094 26.0625 18.804688 25.558594 C 18.441406 27.207031 17.914062 28.804688 17.214844 30.34375 L 16.457031 32.007812 C 16.421875 32.085938 16.402344 32.167969 16.402344 32.253906 L 16.402344 35.816406 L 15.214844 35.816406 L 15.214844 32.253906 C 15.214844 32.167969 15.199219 32.085938 15.164062 32.007812 Z M 21.171875 22.753906 C 20.820312 23.222656 20.511719 23.722656 20.257812 24.253906 C 20.347656 23.683594 20.414062 23.109375 20.460938 22.53125 Z M 21.746094 13.847656 L 21.746094 11.472656 C 21.90625 11.472656 22.054688 11.503906 22.203125 11.5625 C 22.347656 11.625 22.476562 11.710938 22.585938 11.820312 C 22.699219 11.933594 22.785156 12.0625 22.84375 12.207031 C 22.90625 12.351562 22.933594 12.503906 22.933594 12.660156 C 22.933594 12.820312 22.90625 12.96875 22.84375 13.117188 C 22.785156 13.261719 22.699219 13.390625 22.585938 13.5 C 22.476562 13.613281 22.347656 13.699219 22.203125 13.757812 C 22.054688 13.820312 21.90625 13.847656 21.746094 13.847656 Z M 8.6875 12.660156 C 8.6875 12.503906 8.714844 12.351562 8.777344 12.207031 C 8.835938 12.0625 8.921875 11.933594 9.035156 11.820312 C 9.144531 11.710938 9.273438 11.625 9.417969 11.5625 C 9.5625 11.503906 9.714844 11.472656 9.875 11.472656 L 9.875 13.847656 C 9.714844 13.847656 9.5625 13.820312 9.417969 13.757812 C 9.273438 13.699219 9.144531 13.613281 9.035156 13.5 C 8.921875 13.390625 8.835938 13.261719 8.777344 13.117188 C 8.714844 12.96875 8.6875 12.820312 8.6875 12.660156 Z M 10.65625 6.558594 C 10.132812 7.339844 9.871094 8.203125 9.875 9.140625 L 9.875 10.285156 C 9.808594 10.285156 9.75 10.300781 9.6875 10.304688 L 9.640625 10.019531 C 9.402344 8.582031 9.28125 7.132812 9.28125 5.675781 C 9.285156 4.921875 9.019531 4.277344 8.484375 3.742188 C 9.53125 2.976562 10.671875 2.390625 11.902344 1.988281 C 13.136719 1.585938 14.402344 1.382812 15.699219 1.378906 L 17.496094 1.378906 C 17.925781 1.378906 18.320312 1.507812 18.671875 1.761719 C 19.023438 2.011719 19.265625 2.34375 19.402344 2.757812 C 19.476562 2.972656 19.625 3.105469 19.847656 3.148438 C 20.199219 3.222656 20.527344 3.347656 20.835938 3.535156 C 21.144531 3.71875 21.410156 3.949219 21.636719 4.226562 C 21.863281 4.503906 22.039062 4.808594 22.160156 5.148438 C 22.28125 5.484375 22.339844 5.832031 22.339844 6.191406 C 22.339844 7.304688 22.25 8.414062 22.066406 9.515625 L 21.933594 10.308594 C 21.871094 10.300781 21.8125 10.285156 21.746094 10.285156 L 21.746094 9.140625 C 21.75 8.203125 21.488281 7.339844 20.964844 6.558594 C 20.675781 6.132812 20.285156 5.835938 19.796875 5.667969 C 19.308594 5.503906 18.820312 5.496094 18.328125 5.65625 L 17.9375 5.785156 C 16.519531 6.257812 15.101562 6.257812 13.683594 5.785156 L 13.289062 5.65625 C 12.800781 5.5 12.308594 5.503906 11.824219 5.671875 C 11.335938 5.835938 10.945312 6.132812 10.652344 6.558594 Z M 11.0625 15.035156 L 11.0625 9.140625 C 11.058594 8.441406 11.253906 7.800781 11.640625 7.21875 C 11.78125 7.011719 11.96875 6.867188 12.207031 6.785156 C 12.441406 6.703125 12.679688 6.703125 12.914062 6.78125 L 13.308594 6.910156 C 14.976562 7.464844 16.644531 7.464844 18.3125 6.910156 L 18.703125 6.78125 C 18.941406 6.707031 19.179688 6.707031 19.414062 6.789062 C 19.648438 6.871094 19.835938 7.011719 19.976562 7.21875 C 20.367188 7.800781 20.5625 8.441406 20.558594 9.140625 L 20.558594 15.035156 C 20.558594 15.347656 20.53125 15.65625 20.46875 15.960938 C 20.40625 16.269531 20.316406 16.566406 20.199219 16.855469 C 20.078125 17.140625 19.933594 17.414062 19.757812 17.675781 C 19.585938 17.933594 19.390625 18.175781 19.167969 18.394531 C 18.949219 18.613281 18.707031 18.8125 18.449219 18.984375 C 18.191406 19.160156 17.917969 19.304688 17.628906 19.425781 C 17.339844 19.542969 17.042969 19.632812 16.738281 19.695312 C 16.429688 19.753906 16.121094 19.785156 15.808594 19.785156 C 15.5 19.785156 15.191406 19.753906 14.882812 19.695312 C 14.578125 19.632812 14.28125 19.542969 13.992188 19.425781 C 13.703125 19.304688 13.429688 19.160156 13.171875 18.984375 C 12.914062 18.8125 12.671875 18.613281 12.453125 18.394531 C 12.230469 18.175781 12.035156 17.933594 11.859375 17.675781 C 11.6875 17.414062 11.542969 17.140625 11.421875 16.855469 C 11.304688 16.566406 11.210938 16.269531 11.152344 15.960938 C 11.089844 15.65625 11.0625 15.347656 11.0625 15.035156 Z M 15.808594 20.972656 C 16.871094 20.972656 17.863281 20.707031 18.777344 20.171875 L 18.777344 21.566406 C 18.777344 21.859375 18.917969 22.046875 19.195312 22.132812 L 19.300781 22.167969 C 19.253906 22.753906 19.195312 23.339844 19.109375 23.921875 C 18.648438 24.3125 18.132812 24.609375 17.566406 24.820312 C 17 25.027344 16.414062 25.128906 15.808594 25.128906 C 15.207031 25.128906 14.621094 25.027344 14.050781 24.820312 C 13.484375 24.609375 12.972656 24.3125 12.507812 23.921875 C 12.421875 23.34375 12.363281 22.753906 12.320312 22.167969 L 12.425781 22.132812 C 12.703125 22.046875 12.84375 21.859375 12.839844 21.566406 L 12.839844 20.171875 C 13.757812 20.707031 14.75 20.972656 15.808594 20.972656 Z M 2.101562 28.871094 C 2.132812 28.433594 2.21875 28.011719 2.355469 27.597656 C 2.625 26.785156 3.066406 26.082031 3.675781 25.484375 C 4.285156 24.886719 5 24.457031 5.8125 24.203125 L 6.371094 24.027344 C 6.292969 24.191406 6.21875 24.355469 6.152344 24.523438 L 5.757812 25.503906 C 5.671875 25.722656 5.703125 25.925781 5.855469 26.105469 C 5.976562 26.253906 6.136719 26.320312 6.328125 26.3125 C 6.363281 27.558594 6.453125 28.816406 6.59375 30.0625 C 6.414062 30.132812 6.246094 30.222656 6.089844 30.335938 C 5.929688 30.449219 5.789062 30.578125 5.664062 30.722656 C 5.539062 30.871094 5.433594 31.03125 5.34375 31.203125 C 5.257812 31.375 5.191406 31.554688 5.148438 31.742188 C 5.105469 31.929688 5.085938 32.121094 5.085938 32.3125 C 5.089844 32.507812 5.113281 32.695312 5.164062 32.882812 C 5.210938 33.070312 5.28125 33.25 5.375 33.417969 C 5.464844 33.589844 5.574219 33.746094 5.707031 33.886719 C 5.835938 34.03125 5.980469 34.15625 6.140625 34.265625 C 6.300781 34.371094 6.46875 34.460938 6.652344 34.527344 C 6.832031 34.59375 7.019531 34.636719 7.210938 34.660156 C 7.402344 34.679688 7.59375 34.679688 7.785156 34.65625 C 7.976562 34.628906 8.160156 34.582031 8.339844 34.511719 C 8.519531 34.441406 8.691406 34.351562 8.847656 34.242188 C 9.007812 34.132812 9.148438 34.003906 9.277344 33.859375 C 9.402344 33.714844 9.511719 33.554688 9.601562 33.382812 C 9.691406 33.214844 9.757812 33.035156 9.800781 32.847656 C 9.847656 32.660156 9.871094 32.46875 9.871094 32.277344 C 9.871094 32.082031 9.84375 31.890625 9.800781 31.707031 C 9.753906 31.519531 9.683594 31.339844 9.59375 31.167969 C 9.503906 30.996094 9.394531 30.839844 9.265625 30.695312 C 9.140625 30.550781 8.996094 30.425781 8.835938 30.316406 C 8.679688 30.203125 8.507812 30.117188 8.328125 30.046875 C 8.148438 29.980469 7.960938 29.933594 7.769531 29.910156 C 7.628906 28.640625 7.539062 27.363281 7.511719 26.089844 L 8.6875 25.855469 L 8.6875 27.503906 C 8.6875 27.644531 8.730469 27.765625 8.816406 27.875 L 9.027344 28.140625 C 10.441406 29.902344 12.109375 31.378906 14.027344 32.570312 L 14.027344 35.816406 L 1.605469 35.816406 Z M 17.589844 35.816406 L 17.589844 32.578125 C 18.382812 32.089844 19.132812 31.542969 19.847656 30.949219 C 20.199219 31.976562 20.71875 32.910156 21.40625 33.746094 C 22.097656 34.585938 22.914062 35.273438 23.855469 35.816406 Z M 28.277344 35.816406 C 27.769531 35.816406 27.269531 35.765625 26.773438 35.667969 C 26.277344 35.570312 25.792969 35.421875 25.324219 35.226562 C 24.855469 35.035156 24.410156 34.796875 23.988281 34.515625 C 23.570312 34.234375 23.179688 33.914062 22.820312 33.554688 C 22.460938 33.195312 22.140625 32.808594 21.859375 32.386719 C 21.578125 31.964844 21.339844 31.519531 21.148438 31.050781 C 20.953125 30.582031 20.808594 30.101562 20.707031 29.601562 C 20.609375 29.105469 20.558594 28.605469 20.558594 28.097656 C 20.558594 27.589844 20.609375 27.089844 20.707031 26.59375 C 20.808594 26.09375 20.953125 25.613281 21.148438 25.144531 C 21.339844 24.675781 21.578125 24.230469 21.859375 23.808594 C 22.140625 23.386719 22.460938 23 22.820312 22.640625 C 23.179688 22.28125 23.570312 21.960938 23.988281 21.679688 C 24.410156 21.398438 24.855469 21.160156 25.324219 20.96875 C 25.792969 20.773438 26.277344 20.625 26.773438 20.527344 C 27.269531 20.429688 27.769531 20.378906 28.277344 20.378906 C 28.785156 20.378906 29.285156 20.429688 29.785156 20.527344 C 30.28125 20.625 30.761719 20.773438 31.230469 20.96875 C 31.699219 21.160156 32.144531 21.398438 32.566406 21.679688 C 32.988281 21.960938 33.378906 22.28125 33.734375 22.640625 C 34.09375 23 34.414062 23.386719 34.695312 23.808594 C 34.976562 24.230469 35.214844 24.675781 35.410156 25.144531 C 35.601562 25.613281 35.75 26.09375 35.847656 26.59375 C 35.945312 27.089844 35.996094 27.589844 35.996094 28.097656 C 35.996094 28.605469 35.945312 29.105469 35.847656 29.601562 C 35.746094 30.101562 35.601562 30.582031 35.40625 31.050781 C 35.210938 31.519531 34.972656 31.960938 34.691406 32.382812 C 34.410156 32.804688 34.089844 33.195312 33.734375 33.554688 C 33.375 33.910156 32.984375 34.230469 32.5625 34.511719 C 32.144531 34.792969 31.699219 35.03125 31.230469 35.226562 C 30.761719 35.421875 30.28125 35.566406 29.785156 35.667969 C 29.285156 35.765625 28.785156 35.816406 28.277344 35.816406 Z M 28.277344 35.816406 " fill-opacity="1" fill-rule="nonzero"/></g><path fill="#7ed957" d="M 29.503906 4.429688 C 29.726562 4.339844 29.921875 4.214844 30.089844 4.078125 C 30.0625 3.792969 30.011719 3.566406 29.949219 3.410156 C 29.757812 2.949219 29.253906 2.269531 28.953125 2.160156 C 28.90625 2.140625 28.871094 2.140625 28.84375 2.152344 C 28.667969 2.242188 28.6875 2.703125 28.746094 3.015625 C 28.863281 3.011719 28.941406 3.019531 28.949219 3.019531 C 28.996094 3.023438 29.027344 3.0625 29.023438 3.105469 C 29.019531 3.148438 28.980469 3.183594 28.9375 3.179688 C 28.929688 3.179688 28.460938 3.136719 28.070312 3.332031 C 27.679688 3.53125 27.425781 3.929688 27.421875 3.933594 C 27.40625 3.960938 27.382812 3.972656 27.355469 3.972656 C 27.339844 3.972656 27.328125 3.96875 27.3125 3.960938 C 27.277344 3.9375 27.265625 3.886719 27.289062 3.851562 C 27.292969 3.84375 27.335938 3.777344 27.414062 3.683594 C 27.203125 3.445312 26.851562 3.148438 26.679688 3.234375 C 26.652344 3.25 26.628906 3.28125 26.613281 3.328125 C 26.519531 3.640625 26.746094 4.460938 26.988281 4.890625 C 27.054688 5.011719 27.167969 5.152344 27.320312 5.308594 L 27.320312 4.644531 C 27.320312 4.621094 27.332031 4.597656 27.347656 4.582031 C 27.367188 4.570312 27.390625 4.5625 27.414062 4.566406 C 27.425781 4.570312 28.597656 4.796875 29.503906 4.429688 Z M 29.503906 4.429688 " fill-opacity="1" fill-rule="nonzero"/><g clip-path="url(#af545799a2)"><path fill="#7ed957" d="M 26.816406 7.214844 C 26.488281 6.789062 26.527344 6.015625 26.570312 5.753906 C 26.59375 5.59375 26.488281 5.441406 26.332031 5.414062 C 26.316406 5.410156 26.300781 5.410156 26.285156 5.410156 C 26.144531 5.410156 26.023438 5.511719 26 5.652344 C 25.976562 5.773438 25.8125 6.867188 26.359375 7.578125 C 26.554688 7.824219 26.875 8.019531 27.320312 8.15625 L 27.320312 7.535156 C 27.082031 7.445312 26.914062 7.339844 26.816406 7.214844 Z M 26.816406 7.214844 " fill-opacity="1" fill-rule="nonzero"/></g><g clip-path="url(#2aa192eefe)"><path fill="#7ed957" d="M 35.203125 3.753906 C 35.125 3.242188 34.28125 3.339844 34.273438 3.339844 C 34.246094 3.34375 34.21875 3.335938 34.203125 3.3125 C 34.199219 3.3125 33.976562 3.054688 33.640625 2.902344 C 33.300781 2.746094 32.964844 2.746094 32.960938 2.746094 C 32.933594 2.746094 32.910156 2.734375 32.894531 2.710938 C 32.890625 2.707031 32.402344 2 31.972656 2.277344 C 31.648438 2.488281 31.78125 3.242188 31.898438 3.65625 C 32.089844 3.390625 32.304688 3.167969 32.546875 2.984375 C 32.582031 2.957031 32.632812 2.964844 32.660156 3 C 32.6875 3.035156 32.679688 3.085938 32.644531 3.109375 C 32.328125 3.351562 32.058594 3.660156 31.828125 4.050781 C 32.003906 4.199219 32.210938 4.335938 32.445312 4.429688 C 33.007812 4.65625 33.671875 4.65625 34.097656 4.621094 C 34.148438 4.339844 34.167969 4.070312 34.144531 3.796875 C 34.140625 3.753906 34.171875 3.714844 34.21875 3.710938 C 34.261719 3.707031 34.300781 3.742188 34.300781 3.785156 C 34.324219 4.054688 34.3125 4.324219 34.261719 4.605469 C 34.398438 4.589844 34.492188 4.574219 34.523438 4.570312 C 34.804688 4.402344 35.253906 4.082031 35.203125 3.753906 Z M 35.203125 3.753906 " fill-opacity="1" fill-rule="nonzero"/></g><g clip-path="url(#5070b1f78e)"><path fill="#7ed957" d="M 32.386719 4.578125 C 31.621094 4.265625 31.148438 3.574219 30.976562 3.285156 C 30.804688 3.574219 30.328125 4.265625 29.566406 4.578125 C 28.757812 4.90625 27.785156 4.789062 27.480469 4.738281 L 27.480469 9.5 C 27.480469 10 27.855469 10.515625 28.539062 10.953125 C 29.1875 11.371094 30.078125 11.683594 30.976562 11.816406 C 31.875 11.683594 32.761719 11.371094 33.414062 10.953125 C 34.097656 10.515625 34.472656 10 34.472656 9.5 L 34.472656 4.738281 C 34.167969 4.789062 33.195312 4.90625 32.386719 4.578125 Z M 32.722656 8.480469 L 31.65625 8.480469 L 31.65625 9.566406 L 30.296875 9.566406 L 30.296875 8.480469 L 29.226562 8.480469 L 29.226562 7.101562 L 30.296875 7.101562 L 30.296875 6.019531 L 31.65625 6.019531 L 31.65625 7.101562 L 32.722656 7.101562 Z M 32.722656 8.480469 " fill-opacity="1" fill-rule="nonzero"/></g><g clip-path="url(#bfdeeb9e8d)"><path fill="#7ed957" d="M 35.460938 6.476562 C 35.464844 6.472656 35.632812 6.300781 35.632812 6.125 C 35.632812 5.953125 35.480469 5.804688 35.480469 5.804688 C 35.457031 5.78125 35.449219 5.746094 35.460938 5.71875 C 35.484375 5.65625 35.539062 5.472656 35.488281 5.367188 C 35.453125 5.300781 35.371094 5.238281 35.296875 5.195312 C 35.28125 5.402344 35.238281 5.824219 35.125 6.082031 C 34.996094 6.375 34.726562 6.605469 34.632812 6.679688 L 34.632812 7.644531 C 34.710938 7.648438 34.824219 7.640625 34.898438 7.589844 C 34.988281 7.523438 35 7.324219 34.996094 7.257812 C 34.996094 7.234375 35.003906 7.214844 35.019531 7.199219 C 35.035156 7.183594 35.058594 7.175781 35.078125 7.175781 C 35.15625 7.179688 35.378906 7.164062 35.460938 7.042969 C 35.542969 6.917969 35.476562 6.648438 35.441406 6.558594 C 35.433594 6.527344 35.441406 6.496094 35.460938 6.476562 Z M 35.460938 6.476562 " fill-opacity="1" fill-rule="nonzero"/></g></svg>