<svg xmlns="http://www.w3.org/2000/svg" xmlns:xlink="http://www.w3.org/1999/xlink" width="1920" zoomAndPan="magnify" viewBox="0 0 1440 809.999993" height="1080" preserveAspectRatio="xMidYMid meet" version="1.0"><defs><g/><clipPath id="9d0cdf78c2"><path d="M 877 344 L 956 344 L 956 412 L 877 412 Z M 877 344 " clip-rule="nonzero"/></clipPath><clipPath id="195de5c902"><path d="M 875.65625 345.414062 L 955.089844 342.164062 L 957.878906 410.355469 L 878.445312 413.605469 Z M 875.65625 345.414062 " clip-rule="nonzero"/></clipPath><clipPath id="6dd9777bc7"><path d="M 875.65625 345.414062 L 955.089844 342.164062 L 957.878906 410.355469 L 878.445312 413.605469 Z M 875.65625 345.414062 " clip-rule="nonzero"/></clipPath><clipPath id="17cb69c570"><path d="M 877 344 L 950 344 L 950 407 L 877 407 Z M 877 344 " clip-rule="nonzero"/></clipPath><clipPath id="fa3595bc9b"><path d="M 875.65625 345.414062 L 949.09375 342.410156 L 951.671875 405.355469 L 878.230469 408.363281 Z M 875.65625 345.414062 " clip-rule="nonzero"/></clipPath><clipPath id="cdfd1d5cc6"><path d="M 875.65625 345.414062 L 949.09375 342.410156 L 951.671875 405.355469 L 878.230469 408.363281 Z M 875.65625 345.414062 " clip-rule="nonzero"/></clipPath><clipPath id="4b8dea0d45"><path d="M 393 317 L 471 317 L 471 392 L 393 392 Z M 393 317 " clip-rule="nonzero"/></clipPath><clipPath id="c04c1566a6"><path d="M 380.453125 351.46875 L 442.824219 302.171875 L 485.144531 355.71875 L 422.777344 405.015625 Z M 380.453125 351.46875 " clip-rule="nonzero"/></clipPath><clipPath id="26b3caa54e"><path d="M 380.453125 351.46875 L 442.824219 302.171875 L 485.144531 355.71875 L 422.777344 405.015625 Z M 380.453125 351.46875 " clip-rule="nonzero"/></clipPath><clipPath id="dc17208fdf"><path d="M 396 320 L 468 320 L 468 389 L 396 389 Z M 396 320 " clip-rule="nonzero"/></clipPath><clipPath id="153abe5981"><path d="M 384.40625 351.625 L 442.066406 306.046875 L 481.132812 355.472656 L 423.46875 401.050781 Z M 384.40625 351.625 " clip-rule="nonzero"/></clipPath><clipPath id="4769959df6"><path d="M 384.40625 351.625 L 442.066406 306.046875 L 481.132812 355.472656 L 423.46875 401.050781 Z M 384.40625 351.625 " clip-rule="nonzero"/></clipPath></defs><g clip-path="url(#9d0cdf78c2)"><g clip-path="url(#195de5c902)"><g clip-path="url(#6dd9777bc7)"><path fill="#7ed957" d="M 894.949219 368.132812 C 897.339844 374.148438 895.714844 380.449219 891.3125 382.195312 C 886.917969 383.941406 881.410156 380.480469 879.019531 374.460938 C 876.628906 368.441406 878.253906 362.148438 882.652344 360.398438 C 887.050781 358.652344 892.558594 362.113281 894.949219 368.132812 Z M 932.652344 410.066406 C 930.683594 410.152344 928.777344 409.851562 926.929688 409.175781 C 925.082031 408.496094 923.433594 407.488281 921.988281 406.152344 C 921.722656 405.910156 921.4375 405.695312 921.128906 405.503906 C 920.820312 405.316406 920.5 405.160156 920.160156 405.035156 C 919.820312 404.914062 919.472656 404.824219 919.117188 404.765625 C 918.761719 404.710938 918.402344 404.691406 918.042969 404.703125 C 917.683594 404.71875 917.328125 404.769531 916.976562 404.855469 C 916.625 404.9375 916.289062 405.058594 915.960938 405.207031 C 915.632812 405.359375 915.324219 405.542969 915.03125 405.753906 C 914.742188 405.96875 914.472656 406.207031 914.230469 406.472656 C 913.570312 407.1875 912.84375 407.832031 912.058594 408.40625 C 911.269531 408.980469 910.433594 409.472656 909.550781 409.882812 C 908.664062 410.292969 907.75 410.613281 906.800781 410.839844 C 905.855469 411.070312 904.894531 411.203125 903.921875 411.242188 C 902.945312 411.285156 901.980469 411.226562 901.015625 411.078125 C 900.054688 410.925781 899.113281 410.683594 898.199219 410.347656 C 897.285156 410.011719 896.410156 409.589844 895.582031 409.082031 C 894.75 408.574219 893.972656 407.988281 893.257812 407.328125 C 892.542969 406.667969 891.894531 405.945312 891.320312 405.15625 C 890.746094 404.371094 890.257812 403.535156 889.847656 402.648438 C 889.4375 401.765625 889.117188 400.847656 888.890625 399.902344 C 888.660156 398.953125 888.527344 397.996094 888.484375 397.019531 C 888.445312 396.046875 888.5 395.078125 888.652344 394.117188 C 888.804688 393.152344 889.046875 392.214844 889.382812 391.300781 C 889.71875 390.386719 890.140625 389.511719 890.648438 388.679688 C 891.15625 387.847656 891.742188 387.074219 892.402344 386.359375 C 893.179688 385.511719 894 384.703125 894.859375 383.9375 C 895.71875 383.167969 896.617188 382.445312 897.546875 381.769531 C 898.476562 381.089844 899.4375 380.457031 900.433594 379.871094 C 901.425781 379.289062 902.445312 378.753906 903.488281 378.269531 C 904.535156 377.785156 905.601562 377.355469 906.6875 376.976562 C 907.777344 376.59375 908.878906 376.269531 910 376 C 911.121094 375.730469 912.25 375.511719 913.390625 375.355469 C 914.53125 375.195312 915.679688 375.089844 916.828125 375.042969 C 917.980469 374.996094 919.132812 375.003906 920.28125 375.070312 C 921.429688 375.136719 922.574219 375.261719 923.714844 375.4375 C 924.851562 375.617188 925.976562 375.851562 927.09375 376.140625 C 928.207031 376.429688 929.308594 376.773438 930.386719 377.167969 C 931.46875 377.566406 932.527344 378.015625 933.566406 378.515625 C 934.605469 379.019531 935.613281 379.570312 936.597656 380.171875 C 937.578125 380.769531 938.53125 381.417969 939.449219 382.113281 C 940.371094 382.804688 941.253906 383.542969 942.101562 384.324219 C 942.636719 384.820312 943.136719 385.351562 943.59375 385.917969 C 944.050781 386.484375 944.464844 387.085938 944.835938 387.714844 C 945.207031 388.34375 945.527344 388.996094 945.800781 389.671875 C 946.074219 390.347656 946.296875 391.042969 946.46875 391.75 C 946.640625 392.460938 946.761719 393.179688 946.824219 393.90625 C 946.890625 394.632812 946.902344 395.359375 946.863281 396.089844 C 946.820312 396.816406 946.726562 397.539062 946.578125 398.253906 C 946.429688 398.96875 946.226562 399.667969 945.976562 400.351562 C 945.726562 401.039062 945.425781 401.703125 945.074219 402.34375 C 944.726562 402.984375 944.332031 403.59375 943.890625 404.175781 C 943.453125 404.761719 942.972656 405.308594 942.453125 405.820312 C 941.933594 406.332031 941.378906 406.800781 940.789062 407.230469 C 940.199219 407.660156 939.578125 408.046875 938.933594 408.382812 C 938.285156 408.722656 937.617188 409.011719 936.929688 409.253906 C 936.242188 409.492188 935.539062 409.679688 934.820312 409.816406 C 934.101562 409.953125 933.378906 410.039062 932.652344 410.066406 Z M 914.609375 357.160156 C 915.605469 364.496094 912.070312 371.039062 906.707031 371.765625 C 901.347656 372.496094 896.1875 367.140625 895.191406 359.800781 C 894.191406 352.464844 897.730469 345.929688 903.09375 345.199219 C 908.453125 344.46875 913.609375 349.824219 914.609375 357.160156 Z M 917.582031 357.039062 C 917.1875 364.433594 921.246094 370.660156 926.648438 370.949219 C 932.050781 371.238281 936.753906 365.480469 937.148438 358.085938 C 937.546875 350.691406 933.484375 344.464844 928.082031 344.175781 C 922.679688 343.886719 917.976562 349.644531 917.582031 357.039062 Z M 938.070312 366.367188 C 936.179688 372.5625 938.316406 378.707031 942.839844 380.085938 C 947.367188 381.46875 952.574219 377.570312 954.464844 371.375 C 956.355469 365.179688 954.222656 359.039062 949.695312 357.65625 C 945.167969 356.273438 939.964844 360.171875 938.070312 366.367188 Z M 938.070312 366.367188 " fill-opacity="1" fill-rule="nonzero"/></g></g></g><g clip-path="url(#17cb69c570)"><g clip-path="url(#fa3595bc9b)"><g clip-path="url(#cdfd1d5cc6)"><path fill="#5019dd" d="M 893.5 366.421875 C 895.710938 371.988281 894.207031 377.8125 890.136719 379.425781 C 886.070312 381.042969 880.976562 377.84375 878.765625 372.277344 C 876.554688 366.710938 878.058594 360.886719 882.128906 359.269531 C 886.195312 357.652344 891.285156 360.855469 893.5 366.421875 Z M 928.367188 405.207031 C 926.546875 405.28125 924.785156 405.007812 923.074219 404.378906 C 921.367188 403.753906 919.84375 402.820312 918.503906 401.585938 C 918.261719 401.359375 917.996094 401.160156 917.710938 400.984375 C 917.425781 400.8125 917.128906 400.667969 916.816406 400.554688 C 916.5 400.4375 916.179688 400.355469 915.851562 400.304688 C 915.519531 400.25 915.191406 400.230469 914.855469 400.246094 C 914.523438 400.257812 914.195312 400.304688 913.871094 400.382812 C 913.546875 400.460938 913.234375 400.570312 912.929688 400.710938 C 912.628906 400.851562 912.34375 401.019531 912.074219 401.21875 C 911.804688 401.414062 911.554688 401.632812 911.328125 401.878906 C 910.71875 402.542969 910.050781 403.140625 909.320312 403.671875 C 908.59375 404.203125 907.820312 404.65625 907 405.035156 C 906.183594 405.414062 905.335938 405.707031 904.460938 405.921875 C 903.585938 406.132812 902.695312 406.257812 901.796875 406.292969 C 900.894531 406.328125 900 406.277344 899.109375 406.140625 C 898.21875 406 897.351562 405.773438 896.503906 405.464844 C 895.660156 405.152344 894.851562 404.761719 894.082031 404.292969 C 893.3125 403.824219 892.597656 403.285156 891.933594 402.671875 C 891.273438 402.0625 890.675781 401.390625 890.144531 400.664062 C 889.613281 399.9375 889.160156 399.164062 888.78125 398.34375 C 888.402344 397.527344 888.105469 396.679688 887.894531 395.804688 C 887.683594 394.929688 887.558594 394.039062 887.523438 393.140625 C 887.484375 392.238281 887.535156 391.34375 887.675781 390.453125 C 887.816406 389.5625 888.039062 388.695312 888.351562 387.847656 C 888.660156 387.003906 889.050781 386.195312 889.523438 385.425781 C 889.992188 384.65625 890.53125 383.941406 891.140625 383.277344 C 891.863281 382.492188 892.621094 381.746094 893.417969 381.039062 C 894.210938 380.328125 895.039062 379.660156 895.902344 379.03125 C 896.761719 378.40625 897.652344 377.820312 898.570312 377.28125 C 899.488281 376.738281 900.429688 376.246094 901.398438 375.796875 C 902.363281 375.351562 903.351562 374.949219 904.355469 374.601562 C 905.363281 374.25 906.382812 373.949219 907.417969 373.699219 C 908.453125 373.449219 909.5 373.25 910.554688 373.101562 C 911.609375 372.953125 912.671875 372.859375 913.734375 372.8125 C 914.800781 372.769531 915.863281 372.777344 916.925781 372.839844 C 917.992188 372.902344 919.046875 373.015625 920.101562 373.179688 C 921.152344 373.34375 922.195312 373.5625 923.226562 373.828125 C 924.257812 374.09375 925.273438 374.414062 926.273438 374.78125 C 927.273438 375.148438 928.253906 375.5625 929.214844 376.027344 C 930.171875 376.488281 931.105469 377 932.015625 377.554688 C 932.925781 378.109375 933.804688 378.710938 934.65625 379.351562 C 935.507812 379.992188 936.324219 380.675781 937.105469 381.398438 C 938.105469 382.316406 938.949219 383.363281 939.636719 384.53125 C 940.324219 385.703125 940.828125 386.945312 941.148438 388.265625 C 941.464844 389.585938 941.585938 390.921875 941.507812 392.277344 C 941.433594 393.632812 941.160156 394.945312 940.691406 396.222656 C 940.222656 397.496094 939.582031 398.675781 938.761719 399.757812 C 937.945312 400.839844 936.988281 401.78125 935.890625 402.582031 C 934.796875 403.382812 933.605469 404.003906 932.324219 404.453125 C 931.042969 404.898438 929.722656 405.148438 928.367188 405.207031 Z M 911.679688 356.277344 C 912.605469 363.058594 909.332031 369.109375 904.375 369.785156 C 899.414062 370.457031 894.644531 365.503906 893.722656 358.71875 C 892.800781 351.933594 896.070312 345.886719 901.03125 345.210938 C 905.988281 344.539062 910.757812 349.488281 911.679688 356.277344 Z M 914.429688 356.164062 C 914.066406 363 917.816406 368.761719 922.816406 369.027344 C 927.8125 369.296875 932.160156 363.96875 932.527344 357.128906 C 932.894531 350.292969 929.140625 344.535156 924.140625 344.265625 C 919.144531 344 914.796875 349.324219 914.429688 356.164062 Z M 933.378906 364.789062 C 931.628906 370.519531 933.605469 376.199219 937.792969 377.476562 C 941.980469 378.757812 946.792969 375.148438 948.542969 369.421875 C 950.292969 363.691406 948.316406 358.011719 944.128906 356.734375 C 939.941406 355.453125 935.128906 359.0625 933.378906 364.789062 Z M 933.378906 364.789062 " fill-opacity="1" fill-rule="nonzero"/></g></g></g><path stroke-linecap="butt" transform="matrix(0.75, 0, 0, 0.75, -74.502705, 323.342435)" fill="none" stroke-linejoin="miter" d="M 725.404685 151.991344 C 739.383853 151.991344 756.61302 148.913219 764.883854 145.803844 C 766.284896 145.121552 767.545312 143.585094 767.409896 141.637177 C 766.967187 131.68926 766.691146 121.881968 766.008854 111.934051 C 765.701562 107.730926 762.217187 107.18405 760.26927 109.574676 C 751.14427 118.803843 741.368228 122.293426 729.472394 122.293426 C 716.008851 122.293426 707.326559 116.413218 707.326559 103.835092 C 707.326559 87.876758 714.743226 79.465299 727.76406 79.465299 C 737.711977 79.465299 744.717186 83.090299 750.732811 89.137175 C 752.852603 91.49655 755.790103 90.814258 756.201562 87.600716 C 757.01927 81.413216 758.149478 69.246549 759.003645 63.095507 C 759.274479 61.11634 758.727603 59.30384 756.883853 58.309048 C 748.784895 54.277798 738.836977 51.887173 725.816143 51.887173 C 693.076559 51.887173 670.654682 73.043424 670.654682 105.918425 C 670.654682 139.928844 693.211975 151.991344 725.404685 151.991344 Z M 793.701564 152.126761 C 803.779689 152.126761 812.87344 146.934052 817.519273 134.491344 C 818.613023 131.824677 820.597398 132.371552 820.461982 135.173635 C 820.15469 138.116344 819.607815 142.730927 819.196357 145.392386 C 818.613023 148.470511 820.868232 150.590303 824.357815 151.001761 C 828.284899 151.408011 834.029691 151.548636 837.821357 151.548636 C 841.717191 151.548636 847.732816 151.408011 851.25365 151.001761 C 853.477608 150.590303 854.87865 149.053844 854.87865 146.658011 C 854.467192 132.512177 853.06615 113.064259 851.800525 101.303842 C 850.12865 85.345508 840.592191 73.725715 812.050523 73.725715 C 796.36823 73.725715 785.46198 75.980924 780.133855 77.793424 C 778.456771 78.475716 777.602604 80.152799 777.467188 82.267383 C 777.055729 88.147591 776.644271 95.699675 776.779688 101.579884 C 776.779688 105.37155 779.722396 106.913217 782.081771 104.381967 C 790.076563 98.913217 801.560939 95.699675 808.842189 95.699675 C 816.805731 95.699675 819.607815 98.230925 819.607815 100.897592 C 819.607815 104.658009 814.993231 105.647592 806.175523 106.772592 C 787.27448 108.996551 771.586979 116.413218 771.586979 130.97051 C 771.586979 145.668427 779.446355 152.126761 793.701564 152.126761 Z M 810.925523 128.168427 C 806.446356 128.168427 804.498439 126.355926 804.498439 122.152801 C 804.498439 116.548634 809.795314 112.517384 814.993231 112.517384 C 818.34219 112.517384 820.014065 114.876759 820.014065 117.949676 C 820.014065 124.40801 814.446356 128.168427 810.925523 128.168427 Z M 889.045318 152.126761 C 900.394277 152.126761 908.904694 145.975719 913.691153 136.027802 C 915.227611 133.090302 917.310945 133.50176 917.040111 136.850719 C 916.899486 139.928844 916.493236 143.444469 915.909903 146.658011 C 915.498445 149.053844 917.310945 150.725719 919.566153 151.001761 C 923.32657 151.408011 929.925529 151.548636 933.545321 151.548636 C 937.201571 151.548636 944.618238 151.408011 948.961988 151.001761 C 951.045321 150.725719 952.58178 149.053844 952.58178 146.798636 C 952.58178 113.746551 951.045321 75.262174 949.368238 54.96009 C 949.232821 52.876756 947.696363 51.475714 945.748446 51.204881 C 941.951571 50.621548 935.941154 50.621548 932.279696 50.621548 C 928.79532 50.621548 921.243237 50.621548 917.175528 51.033006 C 914.95157 51.475714 912.972403 53.288214 913.383861 55.543423 C 915.092195 65.043423 916.899486 78.751757 917.310945 89.960091 C 917.446361 93.751758 915.227611 93.616341 913.691153 90.949675 C 908.357819 79.605924 901.076569 73.861132 888.909902 73.861132 C 870.696359 73.861132 858.935942 89.2778 858.935942 114.600718 C 858.935942 139.517385 871.139067 152.126761 889.045318 152.126761 Z M 905.555736 126.22051 C 898.685944 126.22051 894.07136 121.335093 894.07136 113.335092 C 894.07136 105.37155 898.550527 99.9028 905.555736 99.9028 C 912.290111 99.9028 916.899486 105.37155 916.899486 113.335092 C 916.899486 121.335093 912.149486 126.22051 905.555736 126.22051 Z M 979.18074 152.126761 C 989.258865 152.126761 998.352616 146.934052 1002.998449 134.491344 C 1004.092199 131.824677 1006.076574 132.371552 1005.941158 135.173635 C 1005.633866 138.116344 1005.086991 142.730927 1004.675533 145.392386 C 1004.092199 148.470511 1006.347408 150.590303 1009.836991 151.001761 C 1013.764075 151.408011 1019.508867 151.548636 1023.300533 151.548636 C 1027.196367 151.548636 1033.211992 151.408011 1036.732826 151.001761 C 1038.956784 150.590303 1040.357826 149.053844 1040.357826 146.658011 C 1039.946368 132.512177 1038.545326 113.064259 1037.279701 101.303842 C 1035.607826 85.345508 1026.071367 73.725715 997.529699 73.725715 C 981.847406 73.725715 970.941156 75.980924 965.613031 77.793424 C 963.935947 78.475716 963.08178 80.152799 962.946364 82.267383 C 962.534905 88.147591 962.123447 95.699675 962.258864 101.579884 C 962.258864 105.37155 965.201572 106.913217 967.560947 104.381967 C 975.555739 98.913217 987.040115 95.699675 994.321365 95.699675 C 1002.284907 95.699675 1005.086991 98.230925 1005.086991 100.897592 C 1005.086991 104.658009 1000.472407 105.647592 991.654699 106.772592 C 972.753656 108.996551 957.066155 116.413218 957.066155 130.97051 C 957.066155 145.668427 964.925531 152.126761 979.18074 152.126761 Z M 996.404699 128.168427 C 991.925532 128.168427 989.977615 126.355926 989.977615 122.152801 C 989.977615 116.548634 995.27449 112.517384 1000.472407 112.517384 C 1003.821366 112.517384 1005.493241 114.876759 1005.493241 117.949676 C 1005.493241 124.40801 999.925532 128.168427 996.404699 128.168427 Z M 1083.753661 151.991344 C 1109.248454 151.991344 1123.368247 143.585094 1123.368247 129.163218 C 1123.368247 103.116342 1080.951578 109.131967 1080.951578 100.314258 C 1080.951578 96.9653 1085.29012 95.017383 1093.701579 95.1528 C 1100.264079 95.293425 1107.847413 97.376758 1113.149496 100.314258 C 1115.540121 102.126759 1118.342205 101.168425 1118.206788 97.647592 C 1118.066163 92.350716 1117.488038 85.616341 1117.07658 80.460091 C 1116.941163 78.751757 1115.810955 77.381966 1114.13908 76.798632 C 1105.592204 74.850716 1092.847412 73.861132 1083.889078 73.861132 C 1060.78491 73.861132 1047.62866 80.460091 1047.62866 95.017383 C 1047.62866 120.345509 1086.69637 114.465301 1086.69637 123.418426 C 1086.69637 127.074676 1083.07137 128.887177 1075.482828 128.887177 C 1067.654702 128.887177 1058.290119 126.22051 1050.56616 121.199676 C 1048.34741 119.215301 1044.998451 119.934051 1044.826576 123.28301 C 1044.69116 130.152802 1044.555743 136.715302 1044.69116 143.585094 C 1044.69116 145.392386 1045.81616 146.658011 1047.62866 147.204886 C 1057.576577 150.006969 1072.269286 151.991344 1083.753661 151.991344 Z M 1170.274499 152.126761 C 1178.951583 152.126761 1186.779708 150.861136 1193.925542 148.913219 C 1195.597417 148.199678 1196.998459 146.387177 1196.998459 143.855927 C 1197.133876 139.241344 1197.274501 130.152802 1197.133876 124.954885 C 1196.998459 121.605926 1194.331792 120.480926 1192.248459 122.017385 C 1189.857833 123.28301 1185.24325 124.548635 1182.300541 124.548635 C 1176.425541 124.548635 1171.946374 121.746551 1171.675541 116.137176 C 1171.399499 111.798634 1171.399499 106.772592 1171.810958 101.850717 C 1172.081791 99.49655 1173.623458 97.954883 1176.560958 97.954883 C 1180.8995 97.954883 1187.633875 98.230925 1191.977625 98.501758 C 1194.060959 98.7778 1195.873459 96.694467 1195.873459 94.439258 L 1195.873459 78.751757 C 1195.873459 76.527799 1194.060959 74.715299 1191.977625 74.715299 C 1186.508875 74.715299 1180.081791 74.991341 1174.613041 74.991341 C 1173.482833 74.991341 1172.665124 73.861132 1172.665124 72.189257 C 1172.665124 68.699674 1173.347416 65.17884 1174.066166 61.251757 C 1174.342208 59.027798 1172.493249 57.079881 1170.274499 56.77259 C 1166.342207 56.361131 1158.790124 56.225715 1155.30054 56.225715 C 1151.920332 56.361131 1146.758873 56.361131 1143.373456 56.77259 C 1141.425539 57.079881 1139.889081 58.61634 1139.618248 60.569465 C 1139.206789 64.189257 1138.899498 69.246549 1138.758873 73.043424 C 1138.623456 73.996549 1137.941164 74.850716 1136.810956 74.850716 L 1129.941164 74.850716 C 1127.85783 74.850716 1126.321372 76.527799 1126.185955 78.611132 C 1126.185955 83.944466 1126.04533 89.137175 1126.185955 94.298633 C 1126.321372 96.418425 1127.85783 98.230925 1129.941164 98.230925 C 1131.925539 98.095508 1133.873456 98.095508 1135.685956 98.095508 C 1136.810956 97.954883 1137.805748 98.7778 1137.665123 99.9028 C 1136.540122 108.585092 1136.540122 117.538218 1136.540122 123.418426 C 1136.540122 143.444469 1151.097415 152.126761 1170.274499 152.126761 Z M 1219.691168 151.548636 C 1223.59221 151.548636 1231.316169 151.548636 1235.071377 151.137178 C 1237.191169 150.861136 1239.279711 149.053844 1238.868253 146.387177 C 1237.738044 139.517385 1236.748461 131.111135 1236.748461 122.428843 C 1236.748461 111.798634 1244.883878 105.100717 1252.84742 105.100717 C 1259.44117 105.100717 1264.055754 107.595509 1268.394296 111.527801 C 1270.342213 114.053842 1273.863046 112.788217 1274.139088 109.408009 C 1274.857838 100.897592 1275.540129 92.350716 1276.087005 83.668424 C 1276.087005 81.689258 1275.540129 80.012174 1274.003671 78.611132 C 1270.790129 75.673632 1266.175546 73.861132 1260.430754 73.861132 C 1249.769295 73.861132 1242.795336 82.131966 1239.279711 97.647592 C 1238.592211 100.314258 1236.472419 100.178842 1236.472419 97.100717 C 1236.472419 91.225716 1237.055753 85.892383 1238.284919 79.465299 C 1238.868253 77.210091 1237.331794 75.126757 1234.665127 74.850716 C 1231.587002 74.408007 1223.316169 74.27259 1220.238043 74.27259 C 1217.02971 74.27259 1211.014085 74.27259 1207.357834 74.850716 C 1205.409918 75.126757 1203.868251 76.527799 1203.732834 78.475716 C 1201.889084 97.819467 1200.930751 116.991343 1200.795334 146.934052 C 1200.795334 149.189261 1202.467209 150.725719 1204.415126 151.001761 C 1208.758876 151.272594 1216.175543 151.548636 1219.691168 151.548636 Z M 1322.57659 152.126761 C 1347.7693 152.126761 1365.675551 141.908011 1365.675551 115.012176 C 1365.675551 89.68405 1347.904716 73.725715 1322.57659 73.725715 C 1297.217214 73.725715 1279.310963 89.68405 1279.310963 115.012176 C 1279.310963 141.908011 1297.389089 152.126761 1322.57659 152.126761 Z M 1322.57659 127.621552 C 1315.706798 127.621552 1310.821381 122.017385 1310.821381 113.064259 C 1310.821381 104.381967 1315.571381 98.095508 1322.57659 98.095508 C 1329.587007 98.095508 1334.337007 104.381967 1334.337007 113.064259 C 1334.337007 122.017385 1329.446382 127.621552 1322.57659 127.621552 Z M 1408.378678 151.991344 C 1433.873471 151.991344 1447.988055 143.585094 1447.988055 129.163218 C 1447.988055 103.116342 1405.576594 109.131967 1405.576594 100.314258 C 1405.576594 96.9653 1409.915136 95.017383 1418.321387 95.1528 C 1424.883887 95.293425 1432.472429 97.376758 1437.769304 100.314258 C 1440.165138 102.126759 1442.967221 101.168425 1442.826596 97.647592 C 1442.69118 92.350716 1442.113055 85.616341 1441.701596 80.460091 C 1441.566179 78.751757 1440.435971 77.381966 1438.764096 76.798632 C 1430.217221 74.850716 1417.46722 73.861132 1408.514094 73.861132 C 1385.409927 73.861132 1372.253676 80.460091 1372.253676 95.017383 C 1372.253676 120.345509 1411.316178 114.465301 1411.316178 123.418426 C 1411.316178 127.074676 1407.696386 128.887177 1400.107844 128.887177 C 1392.279719 128.887177 1382.915135 126.22051 1375.191176 121.199676 C 1372.972426 119.215301 1369.623468 119.934051 1369.451593 123.28301 C 1369.316176 130.152802 1369.175551 136.715302 1369.316176 143.585094 C 1369.316176 145.392386 1370.441176 146.658011 1372.253676 147.204886 C 1382.196385 150.006969 1396.894302 151.991344 1408.378678 151.991344 Z M 1408.378678 151.991344 " stroke="#7ed957" stroke-width="10.4997" stroke-opacity="1" stroke-miterlimit="4"/><g fill="#5019dd" fill-opacity="1"><g transform="translate(427.130082, 436.592429)"><g><path d="M 42.421875 0.734375 C 52.921875 0.734375 65.828125 -1.578125 72.03125 -3.890625 C 73.078125 -4.40625 74.03125 -5.5625 73.921875 -7.03125 C 73.609375 -14.484375 73.390625 -21.84375 72.875 -29.296875 C 72.65625 -32.4375 70.03125 -32.859375 68.5625 -31.078125 C 61.734375 -24.15625 54.390625 -21.53125 45.46875 -21.53125 C 35.390625 -21.53125 28.875 -25.9375 28.875 -35.390625 C 28.875 -47.359375 34.4375 -53.65625 44.203125 -53.65625 C 51.65625 -53.65625 56.90625 -50.921875 61.421875 -46.40625 C 63 -44.625 65.203125 -45.15625 65.515625 -47.5625 C 66.15625 -52.1875 66.984375 -61.3125 67.625 -65.9375 C 67.828125 -67.40625 67.40625 -68.78125 66.046875 -69.515625 C 59.953125 -72.5625 52.5 -74.34375 42.734375 -74.34375 C 18.171875 -74.34375 1.359375 -58.484375 1.359375 -33.8125 C 1.359375 -8.296875 18.265625 0.734375 42.421875 0.734375 Z M 42.421875 0.734375 "/></g></g></g><g fill="#5019dd" fill-opacity="1"><g transform="translate(502.931611, 436.592429)"><g><path d="M 17.84375 0.84375 C 25.40625 0.84375 32.234375 -3.046875 35.703125 -12.390625 C 36.546875 -14.390625 38.015625 -13.96875 37.90625 -11.859375 C 37.6875 -9.65625 37.28125 -6.1875 36.953125 -4.203125 C 36.546875 -1.890625 38.21875 -0.3125 40.84375 0 C 43.78125 0.3125 48.09375 0.421875 50.921875 0.421875 C 53.859375 0.421875 58.375 0.3125 61 0 C 62.6875 -0.3125 63.734375 -1.46875 63.734375 -3.25 C 63.421875 -13.859375 62.375 -28.453125 61.421875 -37.28125 C 60.171875 -49.25 53.03125 -57.953125 31.609375 -57.953125 C 19.84375 -57.953125 11.65625 -56.28125 7.671875 -54.921875 C 6.40625 -54.390625 5.78125 -53.125 5.671875 -51.5625 C 5.359375 -47.140625 5.046875 -41.46875 5.140625 -37.0625 C 5.140625 -34.234375 7.34375 -33.078125 9.140625 -34.96875 C 15.125 -39.0625 23.734375 -41.46875 29.1875 -41.46875 C 35.171875 -41.46875 37.28125 -39.578125 37.28125 -37.59375 C 37.28125 -34.75 33.8125 -34.015625 27.1875 -33.1875 C 13.015625 -31.5 1.265625 -25.9375 1.265625 -15.015625 C 1.265625 -3.984375 7.140625 0.84375 17.84375 0.84375 Z M 30.765625 -17.109375 C 27.40625 -17.109375 25.9375 -18.484375 25.9375 -21.625 C 25.9375 -25.828125 29.921875 -28.875 33.8125 -28.875 C 36.328125 -28.875 37.59375 -27.09375 37.59375 -24.78125 C 37.59375 -19.953125 33.390625 -17.109375 30.765625 -17.109375 Z M 30.765625 -17.109375 "/></g></g></g><g fill="#5019dd" fill-opacity="1"><g transform="translate(568.444295, 436.592429)"><g><path d="M 23.828125 0.84375 C 32.34375 0.84375 38.75 -3.78125 42.3125 -11.234375 C 43.46875 -13.4375 45.046875 -13.125 44.828125 -10.609375 C 44.734375 -8.296875 44.421875 -5.671875 44 -3.25 C 43.6875 -1.46875 45.046875 -0.203125 46.71875 0 C 49.5625 0.3125 54.5 0.421875 57.21875 0.421875 C 59.953125 0.421875 65.515625 0.3125 68.78125 0 C 70.34375 -0.203125 71.5 -1.46875 71.5 -3.15625 C 71.5 -27.9375 70.34375 -56.8125 69.09375 -72.03125 C 68.984375 -73.609375 67.828125 -74.65625 66.359375 -74.859375 C 63.53125 -75.28125 59.015625 -75.28125 56.28125 -75.28125 C 53.65625 -75.28125 47.984375 -75.28125 44.9375 -74.96875 C 43.265625 -74.65625 41.796875 -73.296875 42.109375 -71.609375 C 43.359375 -64.46875 44.734375 -54.1875 45.046875 -45.78125 C 45.15625 -42.9375 43.46875 -43.046875 42.3125 -45.046875 C 38.328125 -53.546875 32.859375 -57.859375 23.734375 -57.859375 C 10.078125 -57.859375 1.265625 -46.3125 1.265625 -27.296875 C 1.265625 -8.609375 10.390625 0.84375 23.828125 0.84375 Z M 36.21875 -18.578125 C 31.078125 -18.578125 27.609375 -22.265625 27.609375 -28.25 C 27.609375 -34.234375 30.96875 -38.328125 36.21875 -38.328125 C 41.265625 -38.328125 44.734375 -34.234375 44.734375 -28.25 C 44.734375 -22.265625 41.15625 -18.578125 36.21875 -18.578125 Z M 36.21875 -18.578125 "/></g></g></g><g fill="#5019dd" fill-opacity="1"><g transform="translate(642.041074, 436.592429)"><g><path d="M 17.84375 0.84375 C 25.40625 0.84375 32.234375 -3.046875 35.703125 -12.390625 C 36.546875 -14.390625 38.015625 -13.96875 37.90625 -11.859375 C 37.6875 -9.65625 37.28125 -6.1875 36.953125 -4.203125 C 36.546875 -1.890625 38.21875 -0.3125 40.84375 0 C 43.78125 0.3125 48.09375 0.421875 50.921875 0.421875 C 53.859375 0.421875 58.375 0.3125 61 0 C 62.6875 -0.3125 63.734375 -1.46875 63.734375 -3.25 C 63.421875 -13.859375 62.375 -28.453125 61.421875 -37.28125 C 60.171875 -49.25 53.03125 -57.953125 31.609375 -57.953125 C 19.84375 -57.953125 11.65625 -56.28125 7.671875 -54.921875 C 6.40625 -54.390625 5.78125 -53.125 5.671875 -51.5625 C 5.359375 -47.140625 5.046875 -41.46875 5.140625 -37.0625 C 5.140625 -34.234375 7.34375 -33.078125 9.140625 -34.96875 C 15.125 -39.0625 23.734375 -41.46875 29.1875 -41.46875 C 35.171875 -41.46875 37.28125 -39.578125 37.28125 -37.59375 C 37.28125 -34.75 33.8125 -34.015625 27.1875 -33.1875 C 13.015625 -31.5 1.265625 -25.9375 1.265625 -15.015625 C 1.265625 -3.984375 7.140625 0.84375 17.84375 0.84375 Z M 30.765625 -17.109375 C 27.40625 -17.109375 25.9375 -18.484375 25.9375 -21.625 C 25.9375 -25.828125 29.921875 -28.875 33.8125 -28.875 C 36.328125 -28.875 37.59375 -27.09375 37.59375 -24.78125 C 37.59375 -19.953125 33.390625 -17.109375 30.765625 -17.109375 Z M 30.765625 -17.109375 "/></g></g></g><g fill="#5019dd" fill-opacity="1"><g transform="translate(707.553758, 436.592429)"><g><path d="M 30.765625 0.734375 C 49.875 0.734375 60.484375 -5.5625 60.484375 -16.375 C 60.484375 -35.90625 28.671875 -31.390625 28.671875 -38.015625 C 28.671875 -40.53125 31.921875 -42 38.21875 -41.890625 C 43.15625 -41.796875 48.828125 -40.21875 52.8125 -38.015625 C 54.59375 -36.640625 56.703125 -37.375 56.59375 -40 C 56.484375 -44 56.0625 -49.03125 55.75 -52.921875 C 55.65625 -54.1875 54.8125 -55.234375 53.546875 -55.65625 C 47.140625 -57.125 37.59375 -57.859375 30.875 -57.859375 C 13.546875 -57.859375 3.671875 -52.921875 3.671875 -42 C 3.671875 -23 32.96875 -27.40625 32.96875 -20.6875 C 32.96875 -17.953125 30.234375 -16.59375 24.5625 -16.59375 C 18.6875 -16.59375 11.65625 -18.578125 5.875 -22.359375 C 4.203125 -23.828125 1.6875 -23.3125 1.578125 -20.796875 C 1.46875 -15.640625 1.359375 -10.703125 1.46875 -5.5625 C 1.46875 -4.203125 2.3125 -3.25 3.671875 -2.828125 C 11.125 -0.734375 22.15625 0.734375 30.765625 0.734375 Z M 30.765625 0.734375 "/></g></g></g><g fill="#5019dd" fill-opacity="1"><g transform="translate(769.39186, 436.592429)"><g><path d="M 33.8125 0.84375 C 40.3125 0.84375 46.203125 -0.109375 51.5625 -1.578125 C 52.8125 -2.09375 53.859375 -3.46875 53.859375 -5.359375 C 53.96875 -8.8125 54.078125 -15.640625 53.96875 -19.53125 C 53.859375 -22.046875 51.875 -22.890625 50.296875 -21.734375 C 48.515625 -20.796875 45.046875 -19.84375 42.84375 -19.84375 C 38.4375 -19.84375 35.0625 -21.9375 34.859375 -26.140625 C 34.65625 -29.40625 34.65625 -33.1875 34.96875 -36.859375 C 35.171875 -38.640625 36.328125 -39.796875 38.53125 -39.796875 C 41.796875 -39.796875 46.828125 -39.578125 50.078125 -39.375 C 51.65625 -39.171875 53.03125 -40.734375 53.03125 -42.421875 L 53.03125 -54.1875 C 53.03125 -55.859375 51.65625 -57.21875 50.078125 -57.21875 C 45.984375 -57.21875 41.15625 -57.015625 37.0625 -57.015625 C 36.21875 -57.015625 35.59375 -57.859375 35.59375 -59.109375 C 35.59375 -61.734375 36.125 -64.359375 36.640625 -67.3125 C 36.859375 -68.984375 35.484375 -70.453125 33.8125 -70.671875 C 30.875 -70.984375 25.203125 -71.078125 22.578125 -71.078125 C 20.0625 -70.984375 16.171875 -70.984375 13.65625 -70.671875 C 12.1875 -70.453125 11.03125 -69.296875 10.8125 -67.828125 C 10.5 -65.09375 10.296875 -61.3125 10.1875 -58.484375 C 10.078125 -57.75 9.5625 -57.125 8.71875 -57.125 L 3.5625 -57.125 C 2 -57.125 0.84375 -55.859375 0.734375 -54.28125 C 0.734375 -50.296875 0.625 -46.40625 0.734375 -42.53125 C 0.84375 -40.953125 2 -39.578125 3.5625 -39.578125 C 5.046875 -39.6875 6.515625 -39.6875 7.875 -39.6875 C 8.71875 -39.796875 9.453125 -39.171875 9.34375 -38.328125 C 8.5 -31.8125 8.5 -25.09375 8.5 -20.6875 C 8.5 -5.671875 19.421875 0.84375 33.8125 0.84375 Z M 33.8125 0.84375 "/></g></g></g><g fill="#5019dd" fill-opacity="1"><g transform="translate(824.195736, 436.592429)"><g><path d="M 16.0625 0.421875 C 19 0.421875 24.78125 0.421875 27.609375 0.109375 C 29.1875 -0.109375 30.765625 -1.46875 30.453125 -3.46875 C 29.609375 -8.609375 28.875 -14.90625 28.875 -21.421875 C 28.875 -29.40625 34.96875 -34.4375 40.953125 -34.4375 C 45.890625 -34.4375 49.34375 -32.546875 52.609375 -29.609375 C 54.078125 -27.71875 56.703125 -28.671875 56.90625 -31.1875 C 57.4375 -37.59375 57.953125 -44 58.375 -50.5 C 58.375 -51.96875 57.953125 -53.234375 56.8125 -54.28125 C 54.390625 -56.484375 50.921875 -57.859375 46.625 -57.859375 C 38.640625 -57.859375 33.390625 -51.65625 30.765625 -40 C 30.234375 -38.015625 28.671875 -38.109375 28.671875 -40.421875 C 28.671875 -44.828125 29.078125 -48.828125 30.03125 -53.65625 C 30.453125 -55.328125 29.296875 -56.90625 27.296875 -57.125 C 24.984375 -57.4375 18.796875 -57.546875 16.484375 -57.546875 C 14.0625 -57.546875 9.5625 -57.546875 6.828125 -57.125 C 5.359375 -56.90625 4.203125 -55.859375 4.09375 -54.390625 C 2.734375 -39.90625 2 -25.515625 1.890625 -3.046875 C 1.890625 -1.359375 3.15625 -0.203125 4.625 0 C 7.875 0.203125 13.4375 0.421875 16.0625 0.421875 Z M 16.0625 0.421875 "/></g></g></g><g fill="#5019dd" fill-opacity="1"><g transform="translate(883.724099, 436.592429)"><g><path d="M 33.703125 0.84375 C 52.609375 0.84375 66.046875 -6.828125 66.046875 -26.984375 C 66.046875 -45.984375 52.703125 -57.953125 33.703125 -57.953125 C 14.703125 -57.953125 1.265625 -45.984375 1.265625 -26.984375 C 1.265625 -6.828125 14.8125 0.84375 33.703125 0.84375 Z M 33.703125 -17.53125 C 28.5625 -17.53125 24.890625 -21.734375 24.890625 -28.453125 C 24.890625 -34.96875 28.453125 -39.6875 33.703125 -39.6875 C 38.953125 -39.6875 42.53125 -34.96875 42.53125 -28.453125 C 42.53125 -21.734375 38.84375 -17.53125 33.703125 -17.53125 Z M 33.703125 -17.53125 "/></g></g></g><g fill="#5019dd" fill-opacity="1"><g transform="translate(951.02158, 436.592429)"><g><path d="M 30.765625 0.734375 C 49.875 0.734375 60.484375 -5.5625 60.484375 -16.375 C 60.484375 -35.90625 28.671875 -31.390625 28.671875 -38.015625 C 28.671875 -40.53125 31.921875 -42 38.21875 -41.890625 C 43.15625 -41.796875 48.828125 -40.21875 52.8125 -38.015625 C 54.59375 -36.640625 56.703125 -37.375 56.59375 -40 C 56.484375 -44 56.0625 -49.03125 55.75 -52.921875 C 55.65625 -54.1875 54.8125 -55.234375 53.546875 -55.65625 C 47.140625 -57.125 37.59375 -57.859375 30.875 -57.859375 C 13.546875 -57.859375 3.671875 -52.921875 3.671875 -42 C 3.671875 -23 32.96875 -27.40625 32.96875 -20.6875 C 32.96875 -17.953125 30.234375 -16.59375 24.5625 -16.59375 C 18.6875 -16.59375 11.65625 -18.578125 5.875 -22.359375 C 4.203125 -23.828125 1.6875 -23.3125 1.578125 -20.796875 C 1.46875 -15.640625 1.359375 -10.703125 1.46875 -5.5625 C 1.46875 -4.203125 2.3125 -3.25 3.671875 -2.828125 C 11.125 -0.734375 22.15625 0.734375 30.765625 0.734375 Z M 30.765625 0.734375 "/></g></g></g><g clip-path="url(#4b8dea0d45)"><g clip-path="url(#c04c1566a6)"><g clip-path="url(#26b3caa54e)"><path fill="#7ed957" d="M 409.414062 358.519531 C 414.882812 361.984375 417.265625 368.035156 414.734375 372.035156 C 412.203125 376.03125 405.710938 376.464844 400.242188 373 C 394.769531 369.535156 392.386719 363.484375 394.917969 359.484375 C 397.453125 355.484375 403.941406 355.054688 409.414062 358.519531 Z M 464.558594 370.304688 C 463.015625 371.527344 461.296875 372.40625 459.40625 372.945312 C 457.511719 373.480469 455.585938 373.632812 453.632812 373.402344 C 453.273438 373.359375 452.914062 373.355469 452.554688 373.382812 C 452.195312 373.410156 451.84375 373.472656 451.496094 373.574219 C 451.148438 373.671875 450.816406 373.800781 450.492188 373.964844 C 450.171875 374.128906 449.871094 374.324219 449.585938 374.546875 C 449.304688 374.769531 449.046875 375.019531 448.8125 375.292969 C 448.578125 375.570312 448.375 375.863281 448.199219 376.179688 C 448.023438 376.492188 447.878906 376.824219 447.769531 377.167969 C 447.65625 377.507812 447.582031 377.859375 447.539062 378.21875 C 447.425781 379.1875 447.21875 380.132812 446.917969 381.0625 C 446.621094 381.988281 446.230469 382.875 445.757812 383.726562 C 445.28125 384.578125 444.726562 385.375 444.097656 386.117188 C 443.464844 386.859375 442.765625 387.53125 442 388.136719 C 441.238281 388.738281 440.421875 389.261719 439.554688 389.707031 C 438.683594 390.152344 437.78125 390.503906 436.84375 390.769531 C 435.90625 391.035156 434.953125 391.207031 433.980469 391.285156 C 433.011719 391.363281 432.039062 391.34375 431.074219 391.230469 C 430.105469 391.117188 429.15625 390.914062 428.230469 390.613281 C 427.304688 390.3125 426.414062 389.925781 425.5625 389.449219 C 424.710938 388.972656 423.914062 388.421875 423.175781 387.789062 C 422.433594 387.15625 421.757812 386.457031 421.15625 385.695312 C 420.550781 384.929688 420.027344 384.113281 419.582031 383.246094 C 419.140625 382.378906 418.785156 381.476562 418.519531 380.539062 C 418.253906 379.601562 418.082031 378.644531 418.003906 377.675781 C 417.925781 376.703125 417.945312 375.734375 418.058594 374.765625 C 418.191406 373.621094 418.382812 372.484375 418.625 371.359375 C 418.871094 370.234375 419.171875 369.125 419.527344 368.027344 C 419.878906 366.933594 420.289062 365.855469 420.746094 364.800781 C 421.207031 363.742188 421.71875 362.710938 422.28125 361.707031 C 422.839844 360.699219 423.449219 359.722656 424.109375 358.777344 C 424.765625 357.832031 425.46875 356.921875 426.214844 356.042969 C 426.960938 355.167969 427.75 354.328125 428.578125 353.527344 C 429.410156 352.730469 430.277344 351.972656 431.179688 351.257812 C 432.082031 350.542969 433.019531 349.875 433.988281 349.253906 C 434.957031 348.628906 435.957031 348.058594 436.980469 347.53125 C 438.007812 347.007812 439.058594 346.535156 440.128906 346.113281 C 441.203125 345.695312 442.292969 345.328125 443.402344 345.011719 C 444.507812 344.699219 445.628906 344.441406 446.765625 344.234375 C 447.898438 344.03125 449.039062 343.882812 450.1875 343.792969 C 451.335938 343.703125 452.484375 343.667969 453.636719 343.6875 C 454.789062 343.710938 455.9375 343.789062 457.082031 343.921875 C 457.808594 344.007812 458.523438 344.144531 459.226562 344.335938 C 459.929688 344.523438 460.617188 344.765625 461.285156 345.058594 C 461.957031 345.347656 462.601562 345.6875 463.21875 346.074219 C 463.835938 346.460938 464.425781 346.890625 464.980469 347.363281 C 465.535156 347.835938 466.054688 348.347656 466.535156 348.898438 C 467.015625 349.449219 467.453125 350.03125 467.847656 350.644531 C 468.242188 351.257812 468.585938 351.898438 468.886719 352.5625 C 469.1875 353.230469 469.4375 353.914062 469.636719 354.613281 C 469.835938 355.316406 469.980469 356.03125 470.074219 356.753906 C 470.167969 357.476562 470.207031 358.203125 470.195312 358.933594 C 470.183594 359.664062 470.117188 360.386719 469.996094 361.109375 C 469.875 361.828125 469.703125 362.535156 469.476562 363.230469 C 469.253906 363.925781 468.976562 364.597656 468.652344 365.253906 C 468.328125 365.90625 467.960938 366.53125 467.542969 367.132812 C 467.125 367.730469 466.667969 368.296875 466.167969 368.828125 C 465.667969 369.359375 465.132812 369.851562 464.558594 370.304688 Z M 418.875 338.089844 C 423.992188 343.441406 424.972656 350.8125 421.066406 354.550781 C 417.152344 358.292969 409.832031 356.988281 404.714844 351.636719 C 399.597656 346.285156 398.617188 338.917969 402.53125 335.175781 C 406.4375 331.4375 413.757812 332.742188 418.875 338.089844 Z M 421.210938 336.246094 C 425.234375 342.460938 432.179688 345.117188 436.722656 342.175781 C 441.261719 339.238281 441.683594 331.8125 437.660156 325.597656 C 433.636719 319.382812 426.691406 316.726562 422.148438 319.667969 C 417.609375 322.609375 417.1875 330.03125 421.210938 336.246094 Z M 443.273438 331.757812 C 445.378906 337.878906 450.71875 341.597656 455.191406 340.054688 C 459.667969 338.515625 461.585938 332.300781 459.480469 326.179688 C 457.371094 320.054688 452.035156 316.339844 447.558594 317.878906 C 443.082031 319.417969 441.164062 325.632812 443.273438 331.757812 Z M 443.273438 331.757812 " fill-opacity="1" fill-rule="nonzero"/></g></g></g><g clip-path="url(#dc17208fdf)"><g clip-path="url(#153abe5981)"><g clip-path="url(#4769959df6)"><path fill="#5019dd" d="M 411.183594 358.144531 C 416.246094 361.347656 418.449219 366.945312 416.105469 370.640625 C 413.765625 374.339844 407.761719 374.738281 402.703125 371.535156 C 397.640625 368.328125 395.4375 362.734375 397.78125 359.035156 C 400.125 355.335938 406.125 354.9375 411.183594 358.144531 Z M 462.1875 369.042969 C 460.757812 370.171875 459.171875 370.984375 457.417969 371.484375 C 455.667969 371.980469 453.886719 372.121094 452.082031 371.90625 C 451.75 371.867188 451.417969 371.863281 451.085938 371.886719 C 450.753906 371.914062 450.425781 371.972656 450.105469 372.0625 C 449.785156 372.15625 449.476562 372.277344 449.179688 372.429688 C 448.882812 372.578125 448.601562 372.757812 448.339844 372.964844 C 448.078125 373.171875 447.839844 373.402344 447.625 373.65625 C 447.40625 373.910156 447.21875 374.183594 447.054688 374.472656 C 446.890625 374.765625 446.761719 375.070312 446.65625 375.386719 C 446.554688 375.703125 446.484375 376.027344 446.445312 376.359375 C 446.339844 377.253906 446.148438 378.132812 445.871094 378.988281 C 445.59375 379.847656 445.234375 380.667969 444.796875 381.457031 C 444.359375 382.242188 443.84375 382.980469 443.261719 383.664062 C 442.675781 384.351562 442.03125 384.972656 441.324219 385.53125 C 440.617188 386.089844 439.863281 386.574219 439.058594 386.984375 C 438.257812 387.394531 437.421875 387.722656 436.554688 387.96875 C 435.6875 388.214844 434.804688 388.375 433.90625 388.445312 C 433.007812 388.519531 432.113281 388.5 431.214844 388.394531 C 430.320312 388.292969 429.445312 388.101562 428.585938 387.824219 C 427.730469 387.546875 426.90625 387.1875 426.121094 386.746094 C 425.335938 386.308594 424.597656 385.796875 423.910156 385.210938 C 423.226562 384.628906 422.601562 383.980469 422.042969 383.273438 C 421.484375 382.566406 421 381.8125 420.589844 381.011719 C 420.179688 380.207031 419.851562 379.371094 419.605469 378.503906 C 419.363281 377.636719 419.203125 376.757812 419.132812 375.859375 C 419.058594 374.960938 419.074219 374.0625 419.179688 373.167969 C 419.304688 372.109375 419.480469 371.058594 419.707031 370.019531 C 419.933594 368.976562 420.210938 367.949219 420.539062 366.9375 C 420.867188 365.921875 421.242188 364.925781 421.667969 363.949219 C 422.09375 362.972656 422.566406 362.019531 423.085938 361.089844 C 423.605469 360.160156 424.167969 359.257812 424.777344 358.382812 C 425.382812 357.507812 426.03125 356.664062 426.722656 355.851562 C 427.414062 355.042969 428.144531 354.265625 428.910156 353.527344 C 429.679688 352.789062 430.480469 352.085938 431.316406 351.425781 C 432.152344 350.765625 433.015625 350.148438 433.914062 349.570312 C 434.8125 348.996094 435.734375 348.464844 436.683594 347.980469 C 437.632812 347.496094 438.601562 347.058594 439.59375 346.671875 C 440.585938 346.28125 441.59375 345.941406 442.617188 345.652344 C 443.644531 345.359375 444.679688 345.121094 445.730469 344.933594 C 446.777344 344.742188 447.832031 344.605469 448.894531 344.523438 C 449.957031 344.4375 451.019531 344.40625 452.085938 344.425781 C 453.152344 344.445312 454.210938 344.515625 455.269531 344.640625 C 456.621094 344.800781 457.914062 345.148438 459.160156 345.691406 C 460.402344 346.234375 461.542969 346.945312 462.578125 347.824219 C 463.609375 348.707031 464.492188 349.714844 465.226562 350.859375 C 465.960938 352 466.511719 353.226562 466.882812 354.53125 C 467.25 355.835938 467.425781 357.167969 467.398438 358.527344 C 467.375 359.882812 467.152344 361.207031 466.734375 362.5 C 466.316406 363.789062 465.722656 364.992188 464.945312 366.109375 C 464.171875 367.222656 463.25 368.199219 462.1875 369.042969 Z M 419.9375 339.25 C 424.671875 344.199219 425.574219 351.015625 421.960938 354.472656 C 418.34375 357.933594 411.574219 356.726562 406.839844 351.777344 C 402.105469 346.828125 401.199219 340.015625 404.820312 336.554688 C 408.433594 333.09375 415.203125 334.300781 419.9375 339.25 Z M 422.097656 337.542969 C 425.816406 343.292969 432.238281 345.75 436.441406 343.027344 C 440.640625 340.308594 441.03125 333.445312 437.308594 327.695312 C 433.589844 321.945312 427.167969 319.492188 422.964844 322.210938 C 418.765625 324.929688 418.375 331.796875 422.097656 337.542969 Z M 442.5 333.390625 C 444.449219 339.054688 449.382812 342.492188 453.523438 341.066406 C 457.664062 339.640625 459.4375 333.894531 457.488281 328.230469 C 455.539062 322.570312 450.605469 319.132812 446.464844 320.554688 C 442.324219 321.980469 440.550781 327.726562 442.5 333.390625 Z M 442.5 333.390625 " fill-opacity="1" fill-rule="nonzero"/></g></g></g></svg>