<svg xmlns="http://www.w3.org/2000/svg" xmlns:xlink="http://www.w3.org/1999/xlink" width="50" zoomAndPan="magnify" viewBox="0 0 37.5 37.499999" height="50" preserveAspectRatio="xMidYMid meet" version="1.0"><defs><clipPath id="654214536d"><path d="M 4 27 L 12 27 L 12 34 L 4 34 Z M 4 27 " clip-rule="nonzero"/></clipPath><clipPath id="55ea58d715"><path d="M 6.527344 27.0625 L 11.691406 31.324219 L 9.332031 34.175781 L 4.171875 29.914062 Z M 6.527344 27.0625 " clip-rule="nonzero"/></clipPath><clipPath id="b72285e975"><path d="M 7.671875 28.003906 L 10.539062 30.371094 C 10.839844 30.621094 11.03125 30.980469 11.070312 31.371094 C 11.105469 31.761719 10.988281 32.152344 10.738281 32.453125 L 10.265625 33.027344 C 10.015625 33.328125 9.65625 33.519531 9.265625 33.558594 C 8.875 33.59375 8.484375 33.476562 8.179688 33.226562 L 5.3125 30.859375 C 5.011719 30.609375 4.820312 30.246094 4.78125 29.855469 C 4.746094 29.464844 4.863281 29.078125 5.113281 28.773438 L 5.585938 28.203125 C 5.835938 27.898438 6.195312 27.710938 6.585938 27.671875 C 6.976562 27.632812 7.367188 27.753906 7.671875 28.003906 Z M 7.671875 28.003906 " clip-rule="nonzero"/></clipPath><clipPath id="95e3bbcdc4"><path d="M 8.746094 26.792969 L 28.277344 26.792969 L 28.277344 36.671875 L 8.746094 36.671875 Z M 8.746094 26.792969 " clip-rule="nonzero"/></clipPath><clipPath id="26a398e509"><path d="M 18.503906 26.792969 C 13.117188 26.792969 8.746094 29.003906 8.746094 31.734375 C 8.746094 34.460938 13.117188 36.671875 18.503906 36.671875 C 23.890625 36.671875 28.257812 34.460938 28.257812 31.734375 C 28.257812 29.003906 23.890625 26.792969 18.503906 26.792969 Z M 18.503906 26.792969 " clip-rule="nonzero"/></clipPath><clipPath id="dc0b22cda3"><path d="M 3.699219 8 L 33.304688 8 L 33.304688 29.679688 L 3.699219 29.679688 Z M 3.699219 8 " clip-rule="nonzero"/></clipPath><clipPath id="4ed761a2ca"><path d="M 4.171875 9 L 33 9 L 33 29.710938 L 4.171875 29.710938 Z M 4.171875 9 " clip-rule="nonzero"/></clipPath><clipPath id="b32f59f348"><path d="M 0 0 L 37.007812 0 L 37.007812 37 L 0 37 Z M 0 0 " clip-rule="nonzero"/></clipPath><clipPath id="df96e5ec1b"><path d="M 0.332031 0.332031 L 36.597656 0.332031 L 36.597656 36.597656 L 0.332031 36.597656 Z M 0.332031 0.332031 " clip-rule="nonzero"/></clipPath><clipPath id="df77f4dc07"><path d="M 26 27 L 33 27 L 33 34 L 26 34 Z M 26 27 " clip-rule="nonzero"/></clipPath><clipPath id="b949cb344b"><path d="M 25.613281 31.460938 L 30.34375 26.730469 L 32.960938 29.34375 L 28.230469 34.078125 Z M 25.613281 31.460938 " clip-rule="nonzero"/></clipPath><clipPath id="cd5dcb445f"><path d="M 26.660156 30.414062 L 29.289062 27.785156 C 29.566406 27.507812 29.941406 27.351562 30.335938 27.351562 C 30.726562 27.351562 31.105469 27.507812 31.382812 27.785156 L 31.90625 28.308594 C 32.183594 28.585938 32.339844 28.964844 32.339844 29.355469 C 32.339844 29.75 32.183594 30.125 31.90625 30.402344 L 29.277344 33.03125 C 29 33.308594 28.621094 33.464844 28.230469 33.464844 C 27.835938 33.464844 27.460938 33.308594 27.183594 33.03125 L 26.660156 32.507812 C 26.382812 32.230469 26.226562 31.855469 26.226562 31.460938 C 26.226562 31.070312 26.382812 30.691406 26.660156 30.414062 Z M 26.660156 30.414062 " clip-rule="nonzero"/></clipPath></defs><g clip-path="url(#654214536d)"><g clip-path="url(#55ea58d715)"><g clip-path="url(#b72285e975)"><path fill="#5019dd" d="M 6.527344 27.0625 L 11.679688 31.3125 L 9.324219 34.167969 L 4.171875 29.914062 Z M 6.527344 27.0625 " fill-opacity="1" fill-rule="nonzero"/></g></g></g><g clip-path="url(#95e3bbcdc4)"><g clip-path="url(#26a398e509)"><path fill="#5019dd" d="M 8.746094 26.792969 L 28.277344 26.792969 L 28.277344 36.671875 L 8.746094 36.671875 Z M 8.746094 26.792969 " fill-opacity="1" fill-rule="nonzero"/></g></g><g clip-path="url(#dc0b22cda3)"><path fill="#000000" d="M 13.359375 17.101562 C 10.277344 9.722656 21.003906 5.265625 23.953125 12.683594 C 26.25 19.667969 16.5625 23.695312 13.359375 17.101562 Z M 26.683594 20.421875 C 32.863281 20.152344 32.078125 10.929688 25.9375 11.75 C 26.195312 12.425781 26.363281 13.121094 26.433594 13.84375 C 26.507812 14.5625 26.484375 15.28125 26.367188 15.996094 C 26.246094 16.710938 26.039062 17.394531 25.734375 18.050781 C 25.433594 18.707031 25.050781 19.3125 24.589844 19.863281 C 25.238281 20.238281 25.9375 20.421875 26.683594 20.421875 Z M 10.433594 20.421875 C 11.179688 20.421875 11.878906 20.238281 12.527344 19.863281 C 12.0625 19.3125 11.683594 18.707031 11.378906 18.050781 C 11.078125 17.394531 10.867188 16.710938 10.75 15.996094 C 10.632812 15.28125 10.609375 14.5625 10.679688 13.84375 C 10.753906 13.121094 10.917969 12.425781 11.179688 11.75 C 5.035156 10.929688 4.253906 20.15625 10.433594 20.421875 Z M 23.140625 22.664062 C 21.933594 22.667969 18.832031 22.660156 17.667969 22.664062 L 13.976562 22.664062 C 13.671875 22.664062 13.375 22.691406 13.078125 22.75 C 12.785156 22.8125 12.496094 22.898438 12.21875 23.015625 C 11.941406 23.132812 11.675781 23.273438 11.425781 23.441406 C 11.175781 23.613281 10.941406 23.804688 10.730469 24.019531 C 10.515625 24.234375 10.324219 24.46875 10.15625 24.722656 C 9.988281 24.976562 9.847656 25.246094 9.730469 25.527344 C 9.617188 25.808594 9.527344 26.097656 9.46875 26.398438 C 9.410156 26.695312 9.378906 27 9.378906 27.304688 L 9.378906 29.636719 L 27.746094 29.636719 L 27.734375 27.304688 C 27.734375 27 27.707031 26.695312 27.648438 26.398438 C 27.585938 26.097656 27.5 25.808594 27.382812 25.527344 C 27.269531 25.246094 27.125 24.976562 26.960938 24.722656 C 26.792969 24.46875 26.601562 24.234375 26.386719 24.019531 C 26.175781 23.804688 25.941406 23.613281 25.691406 23.441406 C 25.441406 23.273438 25.175781 23.132812 24.898438 23.015625 C 24.621094 22.898438 24.332031 22.8125 24.035156 22.75 C 23.742188 22.691406 23.441406 22.664062 23.140625 22.664062 Z M 33.207031 27.304688 C 33.207031 26.976562 33.167969 26.652344 33.101562 26.335938 C 33.03125 26.015625 32.929688 25.707031 32.800781 25.410156 C 32.667969 25.113281 32.503906 24.832031 32.316406 24.566406 C 32.125 24.304688 31.910156 24.0625 31.667969 23.84375 C 31.429688 23.625 31.171875 23.433594 30.890625 23.269531 C 30.613281 23.109375 30.320312 22.976562 30.011719 22.875 C 29.707031 22.773438 29.390625 22.703125 29.070312 22.667969 C 28.75 22.632812 28.429688 22.628906 28.109375 22.664062 C 28.691406 23.292969 29.140625 24.007812 29.453125 24.808594 C 29.765625 25.609375 29.917969 26.441406 29.917969 27.304688 L 29.941406 29.636719 L 33.21875 29.636719 Z M 3.910156 27.304688 L 3.898438 29.636719 L 7.1875 29.636719 L 7.1875 27.304688 C 7.1875 26.441406 7.34375 25.609375 7.660156 24.808594 C 7.972656 24.003906 8.421875 23.289062 9.007812 22.664062 C 8.6875 22.628906 8.367188 22.632812 8.042969 22.667969 C 7.722656 22.703125 7.410156 22.773438 7.105469 22.875 C 6.796875 22.976562 6.503906 23.109375 6.226562 23.269531 C 5.945312 23.433594 5.6875 23.625 5.445312 23.84375 C 5.207031 24.0625 4.992188 24.304688 4.800781 24.566406 C 4.609375 24.832031 4.449219 25.113281 4.316406 25.410156 C 4.183594 25.707031 4.085938 26.015625 4.015625 26.335938 C 3.945312 26.652344 3.910156 26.976562 3.910156 27.304688 Z M 3.910156 27.304688 " fill-opacity="1" fill-rule="nonzero"/></g><g clip-path="url(#4ed761a2ca)"><path fill="#5019dd" d="M 13.523438 17.351562 C 10.542969 10.296875 20.921875 6.035156 23.777344 13.125 C 26 19.804688 16.621094 23.652344 13.523438 17.351562 Z M 26.417969 20.523438 C 32.402344 20.265625 31.640625 11.449219 25.699219 12.234375 C 25.949219 12.878906 26.109375 13.546875 26.179688 14.234375 C 26.25 14.925781 26.226562 15.609375 26.113281 16.292969 C 25.996094 16.976562 25.792969 17.632812 25.503906 18.257812 C 25.210938 18.886719 24.839844 19.464844 24.390625 19.992188 C 25.019531 20.347656 25.695312 20.523438 26.417969 20.523438 Z M 10.691406 20.523438 C 11.414062 20.523438 12.089844 20.347656 12.71875 19.992188 C 12.269531 19.464844 11.898438 18.886719 11.609375 18.257812 C 11.316406 17.632812 11.113281 16.976562 10.996094 16.292969 C 10.882812 15.609375 10.859375 14.925781 10.929688 14.234375 C 11 13.546875 11.160156 12.878906 11.414062 12.234375 C 5.464844 11.449219 4.710938 20.269531 10.691406 20.523438 Z M 22.992188 22.667969 C 21.820312 22.671875 18.820312 22.664062 17.695312 22.667969 L 14.117188 22.667969 C 13.828125 22.667969 13.539062 22.695312 13.253906 22.75 C 12.964844 22.808594 12.6875 22.890625 12.417969 23.003906 C 12.148438 23.113281 11.894531 23.25 11.652344 23.414062 C 11.40625 23.574219 11.183594 23.757812 10.976562 23.964844 C 10.769531 24.171875 10.585938 24.394531 10.425781 24.636719 C 10.261719 24.878906 10.125 25.136719 10.011719 25.402344 C 9.902344 25.671875 9.816406 25.949219 9.757812 26.238281 C 9.699219 26.523438 9.671875 26.8125 9.671875 27.101562 L 9.671875 29.332031 L 27.449219 29.332031 L 27.4375 27.101562 C 27.4375 26.8125 27.410156 26.523438 27.351562 26.238281 C 27.292969 25.949219 27.210938 25.671875 27.097656 25.402344 C 26.984375 25.136719 26.847656 24.878906 26.6875 24.636719 C 26.523438 24.394531 26.339844 24.171875 26.132812 23.964844 C 25.925781 23.757812 25.703125 23.574219 25.460938 23.414062 C 25.214844 23.25 24.960938 23.113281 24.691406 23.003906 C 24.421875 22.890625 24.144531 22.808594 23.859375 22.75 C 23.570312 22.695312 23.28125 22.667969 22.992188 22.667969 Z M 32.734375 27.101562 C 32.730469 26.789062 32.699219 26.480469 32.628906 26.175781 C 32.5625 25.871094 32.464844 25.578125 32.339844 25.292969 C 32.210938 25.007812 32.054688 24.738281 31.871094 24.488281 C 31.6875 24.234375 31.476562 24.003906 31.246094 23.796875 C 31.011719 23.585938 30.761719 23.40625 30.492188 23.25 C 30.222656 23.09375 29.9375 22.964844 29.640625 22.867188 C 29.34375 22.769531 29.039062 22.707031 28.730469 22.671875 C 28.421875 22.636719 28.109375 22.636719 27.800781 22.667969 C 28.363281 23.269531 28.796875 23.953125 29.097656 24.71875 C 29.402344 25.484375 29.550781 26.277344 29.550781 27.101562 L 29.570312 29.332031 L 32.746094 29.332031 Z M 4.375 27.101562 L 4.363281 29.332031 L 7.550781 29.332031 L 7.550781 27.101562 C 7.550781 26.277344 7.703125 25.484375 8.007812 24.714844 C 8.3125 23.949219 8.746094 23.265625 9.3125 22.667969 C 9 22.636719 8.691406 22.636719 8.378906 22.671875 C 8.070312 22.707031 7.765625 22.769531 7.46875 22.867188 C 7.171875 22.964844 6.886719 23.09375 6.617188 23.25 C 6.347656 23.40625 6.097656 23.585938 5.863281 23.796875 C 5.632812 24.003906 5.425781 24.234375 5.238281 24.488281 C 5.054688 24.738281 4.898438 25.007812 4.773438 25.292969 C 4.644531 25.578125 4.546875 25.871094 4.480469 26.175781 C 4.414062 26.480469 4.378906 26.789062 4.375 27.101562 Z M 4.375 27.101562 " fill-opacity="1" fill-rule="nonzero"/></g><g clip-path="url(#b32f59f348)"><path fill="#000000" d="M 18.507812 36.136719 C 8.78125 36.136719 0.867188 28.222656 0.867188 18.496094 C 0.867188 8.769531 8.78125 0.859375 18.507812 0.859375 C 28.230469 0.859375 36.144531 8.769531 36.144531 18.496094 C 36.144531 28.222656 28.230469 36.136719 18.507812 36.136719 Z M 18.507812 -0.00390625 C 8.304688 -0.00390625 0.00390625 8.296875 0.00390625 18.496094 C 0.00390625 28.699219 8.304688 36.996094 18.507812 36.996094 C 28.707031 36.996094 37.007812 28.699219 37.007812 18.496094 C 37.007812 8.296875 28.707031 -0.00390625 18.507812 -0.00390625 " fill-opacity="1" fill-rule="nonzero"/></g><path fill="#000000" d="M 18.507812 0.613281 C 8.644531 0.613281 0.621094 8.636719 0.621094 18.496094 C 0.621094 28.359375 8.644531 36.378906 18.507812 36.378906 C 28.367188 36.378906 36.390625 28.359375 36.390625 18.496094 C 36.390625 8.636719 28.367188 0.613281 18.507812 0.613281 Z M 18.507812 36.75 C 8.441406 36.75 0.25 28.5625 0.25 18.496094 C 0.25 8.429688 8.441406 0.242188 18.507812 0.242188 C 28.570312 0.242188 36.761719 8.429688 36.761719 18.496094 C 36.761719 28.5625 28.570312 36.75 18.507812 36.75 " fill-opacity="1" fill-rule="nonzero"/><g clip-path="url(#df96e5ec1b)"><path fill="#5019dd" d="M 18.503906 35.8125 C 8.953125 35.8125 1.183594 28.042969 1.183594 18.496094 C 1.183594 8.945312 8.953125 1.175781 18.503906 1.175781 C 28.054688 1.175781 35.824219 8.945312 35.824219 18.496094 C 35.824219 28.042969 28.054688 35.8125 18.503906 35.8125 Z M 18.503906 0.328125 C 8.488281 0.328125 0.339844 8.476562 0.339844 18.496094 C 0.339844 28.511719 8.488281 36.660156 18.503906 36.660156 C 28.519531 36.660156 36.667969 28.511719 36.667969 18.496094 C 36.667969 8.476562 28.519531 0.328125 18.503906 0.328125 " fill-opacity="1" fill-rule="nonzero"/><path fill="#5019dd" d="M 18.503906 0.933594 C 8.820312 0.933594 0.945312 8.8125 0.945312 18.496094 C 0.945312 28.175781 8.820312 36.054688 18.503906 36.054688 C 28.1875 36.054688 36.0625 28.175781 36.0625 18.496094 C 36.0625 8.8125 28.1875 0.933594 18.503906 0.933594 Z M 18.503906 36.417969 C 8.621094 36.417969 0.578125 28.378906 0.578125 18.496094 C 0.578125 8.609375 8.621094 0.570312 18.503906 0.570312 C 28.386719 0.570312 36.429688 8.609375 36.429688 18.496094 C 36.429688 28.378906 28.386719 36.417969 18.503906 36.417969 " fill-opacity="1" fill-rule="nonzero"/></g><g clip-path="url(#df77f4dc07)"><g clip-path="url(#b949cb344b)"><g clip-path="url(#cd5dcb445f)"><path fill="#5019dd" d="M 25.613281 31.460938 L 30.335938 26.738281 L 32.953125 29.355469 L 28.230469 34.078125 Z M 25.613281 31.460938 " fill-opacity="1" fill-rule="nonzero"/></g></g></g></svg>