<svg xmlns="http://www.w3.org/2000/svg" xmlns:xlink="http://www.w3.org/1999/xlink" width="50" zoomAndPan="magnify" viewBox="0 0 37.5 37.499999" height="50" preserveAspectRatio="xMidYMid meet" version="1.0"><defs><clipPath id="98d3d287c0"><path d="M 0 0.59375 L 36.265625 0.59375 L 36.265625 36.859375 L 0 36.859375 Z M 0 0.59375 " clip-rule="nonzero"/></clipPath><clipPath id="dfb6bd32cb"><path d="M 0.371094 0.925781 L 35.894531 0.925781 L 35.894531 36.453125 L 0.371094 36.453125 Z M 0.371094 0.925781 " clip-rule="nonzero"/></clipPath></defs><g clip-path="url(#98d3d287c0)"><path fill="#000000" d="M 18.132812 0.59375 C 17.929688 0.589844 17.734375 0.625 17.546875 0.699219 C 17.359375 0.777344 17.195312 0.886719 17.050781 1.027344 C 16.90625 1.167969 16.796875 1.332031 16.71875 1.519531 C 16.640625 1.707031 16.601562 1.902344 16.601562 2.101562 C 16.601562 2.304688 16.640625 2.5 16.71875 2.6875 C 16.796875 2.875 16.90625 3.039062 17.050781 3.179688 C 17.195312 3.320312 17.359375 3.429688 17.546875 3.503906 C 17.734375 3.582031 17.929688 3.617188 18.132812 3.613281 C 26.496094 3.613281 33.246094 10.363281 33.246094 18.726562 C 33.246094 27.089844 26.496094 33.835938 18.132812 33.835938 C 17.929688 33.832031 17.734375 33.871094 17.546875 33.945312 C 17.359375 34.019531 17.195312 34.128906 17.050781 34.269531 C 16.90625 34.414062 16.796875 34.578125 16.71875 34.765625 C 16.640625 34.949219 16.601562 35.144531 16.601562 35.347656 C 16.601562 35.550781 16.640625 35.742188 16.71875 35.929688 C 16.796875 36.117188 16.90625 36.28125 17.050781 36.421875 C 17.195312 36.566406 17.359375 36.675781 17.546875 36.75 C 17.734375 36.824219 17.929688 36.863281 18.132812 36.859375 C 28.128906 36.859375 36.265625 28.722656 36.265625 18.726562 C 36.265625 8.730469 28.128906 0.59375 18.132812 0.59375 Z M 11.78125 1.859375 C 11.578125 1.855469 11.382812 1.894531 11.195312 1.972656 C 11.007812 2.050781 10.847656 2.160156 10.703125 2.300781 C 10.5625 2.441406 10.453125 2.605469 10.375 2.789062 C 10.300781 2.972656 10.261719 3.167969 10.261719 3.367188 C 10.261719 3.566406 10.296875 3.757812 10.375 3.945312 C 10.449219 4.128906 10.558594 4.292969 10.699219 4.4375 C 10.84375 4.578125 11.007812 4.6875 11.191406 4.765625 C 11.375 4.839844 11.570312 4.878906 11.769531 4.878906 C 11.96875 4.878906 12.164062 4.84375 12.347656 4.765625 C 12.535156 4.6875 12.699219 4.578125 12.839844 4.4375 C 12.980469 4.296875 13.089844 4.132812 13.167969 3.949219 C 13.246094 3.761719 13.285156 3.570312 13.285156 3.371094 C 13.285156 3.167969 13.246094 2.976562 13.167969 2.789062 C 13.050781 2.511719 12.867188 2.285156 12.617188 2.117188 C 12.363281 1.945312 12.085938 1.859375 11.78125 1.859375 Z M 6.402344 5.460938 C 5.976562 5.457031 5.613281 5.605469 5.3125 5.90625 C 5.171875 6.046875 5.0625 6.210938 4.984375 6.394531 C 4.910156 6.578125 4.871094 6.773438 4.871094 6.972656 C 4.871094 7.171875 4.910156 7.367188 4.984375 7.550781 C 5.0625 7.734375 5.171875 7.898438 5.3125 8.042969 C 5.453125 8.183594 5.617188 8.292969 5.800781 8.367188 C 5.988281 8.445312 6.179688 8.484375 6.382812 8.484375 C 6.582031 8.484375 6.773438 8.445312 6.960938 8.367188 C 7.144531 8.292969 7.308594 8.183594 7.449219 8.042969 C 7.589844 7.898438 7.699219 7.734375 7.777344 7.550781 C 7.851562 7.367188 7.890625 7.171875 7.890625 6.972656 C 7.890625 6.773438 7.851562 6.578125 7.777344 6.394531 C 7.699219 6.210938 7.589844 6.046875 7.449219 5.90625 C 7.160156 5.613281 6.8125 5.46875 6.402344 5.460938 Z M 2.808594 10.855469 C 2.5 10.847656 2.210938 10.929688 1.953125 11.097656 C 1.691406 11.269531 1.5 11.5 1.382812 11.785156 C 1.304688 11.972656 1.265625 12.164062 1.265625 12.363281 C 1.265625 12.566406 1.304688 12.757812 1.382812 12.941406 C 1.457031 13.128906 1.566406 13.292969 1.707031 13.433594 C 1.851562 13.574219 2.011719 13.683594 2.199219 13.761719 C 2.382812 13.835938 2.578125 13.875 2.777344 13.875 C 2.976562 13.875 3.171875 13.835938 3.355469 13.761719 C 3.542969 13.683594 3.703125 13.574219 3.847656 13.433594 C 3.988281 13.289062 4.097656 13.125 4.171875 12.941406 C 4.25 12.753906 4.289062 12.5625 4.289062 12.363281 C 4.289062 12.160156 4.25 11.96875 4.171875 11.785156 C 4.09375 11.597656 3.984375 11.433594 3.84375 11.292969 C 3.703125 11.152344 3.539062 11.042969 3.351562 10.964844 C 3.179688 10.894531 2.996094 10.859375 2.808594 10.855469 Z M 27.171875 12.667969 C 26.761719 12.679688 26.414062 12.832031 26.132812 13.125 L 16.621094 22.632812 L 13.15625 19.167969 C 13.015625 19.023438 12.851562 18.90625 12.667969 18.828125 C 12.480469 18.746094 12.285156 18.707031 12.082031 18.703125 C 11.878906 18.703125 11.683594 18.738281 11.496094 18.816406 C 11.308594 18.890625 11.140625 19.003906 11 19.144531 C 10.855469 19.289062 10.746094 19.457031 10.667969 19.644531 C 10.589844 19.832031 10.554688 20.027344 10.554688 20.230469 C 10.558594 20.433594 10.597656 20.628906 10.679688 20.8125 C 10.761719 21 10.875 21.164062 11.019531 21.304688 L 15.554688 25.839844 C 15.695312 25.980469 15.859375 26.089844 16.042969 26.164062 C 16.230469 26.242188 16.421875 26.28125 16.621094 26.28125 C 16.824219 26.28125 17.015625 26.242188 17.199219 26.164062 C 17.386719 26.089844 17.546875 25.980469 17.691406 25.839844 L 28.269531 15.261719 C 28.492188 15.042969 28.632812 14.78125 28.695312 14.476562 C 28.757812 14.171875 28.726562 13.875 28.605469 13.585938 C 28.484375 13.300781 28.292969 13.074219 28.03125 12.90625 C 27.769531 12.738281 27.480469 12.65625 27.171875 12.667969 Z M 1.511719 17.214844 C 1.3125 17.214844 1.117188 17.253906 0.933594 17.328125 C 0.746094 17.40625 0.585938 17.515625 0.441406 17.65625 C 0.300781 17.796875 0.191406 17.960938 0.113281 18.148438 C 0.0390625 18.332031 0 18.523438 0 18.726562 C 0 18.925781 0.0390625 19.117188 0.113281 19.304688 C 0.191406 19.488281 0.300781 19.652344 0.441406 19.792969 C 0.585938 19.933594 0.746094 20.042969 0.933594 20.121094 C 1.117188 20.199219 1.3125 20.238281 1.511719 20.238281 C 1.710938 20.238281 1.902344 20.199219 2.089844 20.121094 C 2.273438 20.042969 2.4375 19.933594 2.578125 19.792969 C 2.722656 19.652344 2.832031 19.488281 2.90625 19.304688 C 2.984375 19.117188 3.023438 18.925781 3.023438 18.726562 C 3.023438 18.523438 2.984375 18.332031 2.90625 18.148438 C 2.832031 17.960938 2.722656 17.796875 2.578125 17.65625 C 2.4375 17.515625 2.273438 17.40625 2.089844 17.328125 C 1.902344 17.253906 1.710938 17.214844 1.511719 17.214844 Z M 2.785156 23.574219 C 2.582031 23.574219 2.386719 23.613281 2.199219 23.691406 C 2.011719 23.765625 1.851562 23.875 1.707031 24.015625 C 1.566406 24.160156 1.457031 24.324219 1.382812 24.507812 C 1.304688 24.691406 1.265625 24.886719 1.265625 25.085938 C 1.265625 25.285156 1.304688 25.480469 1.382812 25.664062 C 1.457031 25.847656 1.566406 26.011719 1.707031 26.15625 C 1.851562 26.296875 2.011719 26.40625 2.199219 26.484375 C 2.382812 26.558594 2.578125 26.597656 2.777344 26.597656 C 2.976562 26.597656 3.171875 26.5625 3.355469 26.484375 C 3.539062 26.40625 3.703125 26.296875 3.847656 26.15625 C 3.988281 26.015625 4.097656 25.851562 4.171875 25.667969 C 4.25 25.480469 4.289062 25.289062 4.289062 25.089844 C 4.289062 24.886719 4.25 24.695312 4.171875 24.511719 C 4.058594 24.230469 3.875 24.003906 3.621094 23.832031 C 3.367188 23.664062 3.089844 23.578125 2.785156 23.574219 Z M 6.402344 28.964844 C 5.976562 28.960938 5.613281 29.109375 5.3125 29.410156 C 5.171875 29.550781 5.0625 29.714844 4.984375 29.898438 C 4.910156 30.085938 4.871094 30.277344 4.871094 30.476562 C 4.871094 30.679688 4.910156 30.871094 4.984375 31.054688 C 5.0625 31.242188 5.171875 31.40625 5.3125 31.546875 C 5.453125 31.6875 5.617188 31.796875 5.800781 31.875 C 5.988281 31.949219 6.179688 31.988281 6.382812 31.988281 C 6.582031 31.988281 6.773438 31.949219 6.960938 31.875 C 7.144531 31.796875 7.308594 31.6875 7.449219 31.546875 C 7.589844 31.40625 7.699219 31.242188 7.777344 31.054688 C 7.851562 30.871094 7.890625 30.679688 7.890625 30.476562 C 7.890625 30.277344 7.851562 30.085938 7.777344 29.898438 C 7.699219 29.714844 7.589844 29.550781 7.449219 29.410156 C 7.160156 29.121094 6.8125 28.972656 6.402344 28.964844 Z M 11.804688 32.570312 C 11.492188 32.5625 11.207031 32.644531 10.945312 32.816406 C 10.6875 32.984375 10.496094 33.214844 10.378906 33.503906 C 10.300781 33.6875 10.261719 33.878906 10.261719 34.082031 C 10.261719 34.28125 10.300781 34.472656 10.375 34.660156 C 10.453125 34.84375 10.5625 35.007812 10.703125 35.148438 C 10.847656 35.292969 11.007812 35.402344 11.195312 35.476562 C 11.378906 35.554688 11.574219 35.59375 11.773438 35.59375 C 11.972656 35.59375 12.164062 35.554688 12.351562 35.476562 C 12.535156 35.402344 12.699219 35.292969 12.839844 35.148438 C 12.984375 35.007812 13.09375 34.84375 13.167969 34.660156 C 13.246094 34.476562 13.285156 34.28125 13.285156 34.082031 C 13.285156 33.882812 13.246094 33.6875 13.167969 33.503906 C 13.09375 33.316406 12.984375 33.15625 12.839844 33.011719 C 12.699219 32.871094 12.535156 32.761719 12.351562 32.683594 C 12.175781 32.613281 11.996094 32.574219 11.804688 32.570312 Z M 11.804688 32.570312 " fill-opacity="1" fill-rule="nonzero"/></g><g clip-path="url(#dfb6bd32cb)"><path fill="#7ed957" d="M 17.949219 0.925781 C 17.753906 0.921875 17.5625 0.957031 17.382812 1.03125 C 17.199219 1.105469 17.039062 1.210938 16.898438 1.347656 C 16.757812 1.484375 16.652344 1.644531 16.574219 1.824219 C 16.5 2.003906 16.460938 2.195312 16.460938 2.390625 C 16.460938 2.585938 16.5 2.773438 16.574219 2.957031 C 16.652344 3.136719 16.757812 3.296875 16.898438 3.433594 C 17.039062 3.570312 17.199219 3.675781 17.382812 3.75 C 17.5625 3.824219 17.753906 3.859375 17.949219 3.855469 C 26.054688 3.855469 32.597656 10.394531 32.597656 18.503906 C 32.597656 26.609375 26.054688 33.152344 17.949219 33.152344 C 17.753906 33.148438 17.5625 33.183594 17.382812 33.257812 C 17.199219 33.332031 17.039062 33.4375 16.898438 33.574219 C 16.757812 33.710938 16.652344 33.871094 16.574219 34.050781 C 16.5 34.230469 16.460938 34.421875 16.460938 34.617188 C 16.460938 34.8125 16.5 35 16.574219 35.183594 C 16.652344 35.363281 16.757812 35.523438 16.898438 35.660156 C 17.039062 35.796875 17.199219 35.902344 17.382812 35.976562 C 17.5625 36.050781 17.753906 36.085938 17.949219 36.082031 C 27.640625 36.082031 35.527344 28.195312 35.527344 18.503906 C 35.527344 8.8125 27.640625 0.925781 17.949219 0.925781 Z M 11.792969 2.152344 C 11.59375 2.152344 11.402344 2.1875 11.222656 2.265625 C 11.042969 2.339844 10.882812 2.445312 10.746094 2.582031 C 10.609375 2.71875 10.503906 2.875 10.429688 3.054688 C 10.355469 3.234375 10.316406 3.421875 10.316406 3.613281 C 10.316406 3.808594 10.351562 3.996094 10.425781 4.175781 C 10.5 4.355469 10.605469 4.515625 10.742188 4.652344 C 10.878906 4.789062 11.039062 4.894531 11.21875 4.96875 C 11.398438 5.042969 11.585938 5.082031 11.78125 5.082031 C 11.972656 5.082031 12.160156 5.046875 12.339844 4.96875 C 12.519531 4.898438 12.679688 4.789062 12.816406 4.652344 C 12.953125 4.515625 13.058594 4.359375 13.136719 4.179688 C 13.210938 4 13.246094 3.8125 13.246094 3.617188 C 13.246094 3.421875 13.210938 3.234375 13.136719 3.054688 C 13.023438 2.785156 12.84375 2.566406 12.601562 2.402344 C 12.355469 2.238281 12.085938 2.152344 11.792969 2.152344 Z M 6.574219 5.644531 C 6.164062 5.640625 5.8125 5.785156 5.519531 6.074219 C 5.382812 6.210938 5.277344 6.371094 5.203125 6.550781 C 5.128906 6.730469 5.089844 6.917969 5.089844 7.109375 C 5.089844 7.304688 5.128906 7.492188 5.203125 7.671875 C 5.277344 7.851562 5.382812 8.007812 5.519531 8.144531 C 5.65625 8.285156 5.816406 8.390625 5.996094 8.464844 C 6.175781 8.539062 6.363281 8.574219 6.554688 8.574219 C 6.75 8.574219 6.9375 8.539062 7.117188 8.464844 C 7.296875 8.390625 7.453125 8.285156 7.589844 8.144531 C 7.730469 8.007812 7.835938 7.851562 7.910156 7.671875 C 7.984375 7.492188 8.019531 7.304688 8.019531 7.109375 C 8.019531 6.917969 7.984375 6.730469 7.910156 6.550781 C 7.835938 6.371094 7.730469 6.210938 7.589844 6.074219 C 7.3125 5.792969 6.972656 5.652344 6.574219 5.644531 Z M 3.09375 10.871094 C 2.792969 10.867188 2.515625 10.945312 2.261719 11.109375 C 2.007812 11.277344 1.824219 11.496094 1.710938 11.777344 C 1.632812 11.957031 1.597656 12.144531 1.597656 12.335938 C 1.597656 12.53125 1.632812 12.71875 1.707031 12.898438 C 1.78125 13.078125 1.890625 13.234375 2.027344 13.375 C 2.164062 13.511719 2.320312 13.617188 2.5 13.691406 C 2.679688 13.765625 2.867188 13.800781 3.0625 13.800781 C 3.257812 13.800781 3.445312 13.765625 3.625 13.691406 C 3.804688 13.617188 3.960938 13.507812 4.097656 13.371094 C 4.234375 13.234375 4.339844 13.074219 4.414062 12.894531 C 4.488281 12.714844 4.527344 12.527344 4.527344 12.335938 C 4.527344 12.140625 4.488281 11.953125 4.414062 11.773438 C 4.339844 11.59375 4.234375 11.4375 4.097656 11.296875 C 3.957031 11.160156 3.800781 11.054688 3.621094 10.980469 C 3.453125 10.914062 3.277344 10.875 3.09375 10.871094 Z M 26.707031 12.628906 C 26.3125 12.640625 25.976562 12.789062 25.703125 13.074219 L 16.484375 22.292969 L 13.125 18.933594 C 12.988281 18.789062 12.828125 18.679688 12.648438 18.601562 C 12.46875 18.523438 12.28125 18.484375 12.082031 18.480469 C 11.886719 18.480469 11.695312 18.515625 11.515625 18.589844 C 11.332031 18.664062 11.171875 18.773438 11.03125 18.910156 C 10.894531 19.050781 10.785156 19.210938 10.710938 19.394531 C 10.636719 19.574219 10.601562 19.765625 10.601562 19.960938 C 10.605469 20.160156 10.644531 20.347656 10.722656 20.527344 C 10.800781 20.707031 10.910156 20.867188 11.054688 21.003906 L 15.449219 25.398438 C 15.585938 25.535156 15.742188 25.640625 15.921875 25.714844 C 16.101562 25.789062 16.289062 25.828125 16.484375 25.828125 C 16.675781 25.828125 16.863281 25.789062 17.042969 25.714844 C 17.222656 25.640625 17.382812 25.535156 17.519531 25.398438 L 27.773438 15.144531 C 27.988281 14.933594 28.128906 14.679688 28.1875 14.382812 C 28.246094 14.089844 28.21875 13.800781 28.101562 13.523438 C 27.984375 13.246094 27.796875 13.023438 27.542969 12.859375 C 27.289062 12.699219 27.011719 12.621094 26.707031 12.628906 Z M 1.835938 17.039062 C 1.640625 17.039062 1.453125 17.074219 1.273438 17.148438 C 1.09375 17.222656 0.9375 17.332031 0.800781 17.46875 C 0.660156 17.605469 0.554688 17.761719 0.480469 17.941406 C 0.40625 18.121094 0.371094 18.308594 0.371094 18.503906 C 0.371094 18.699219 0.40625 18.882812 0.480469 19.0625 C 0.554688 19.242188 0.660156 19.402344 0.800781 19.539062 C 0.9375 19.675781 1.09375 19.78125 1.273438 19.855469 C 1.453125 19.929688 1.640625 19.96875 1.835938 19.96875 C 2.027344 19.96875 2.214844 19.929688 2.394531 19.855469 C 2.574219 19.78125 2.734375 19.675781 2.871094 19.539062 C 3.007812 19.402344 3.113281 19.242188 3.1875 19.0625 C 3.261719 18.882812 3.300781 18.699219 3.300781 18.503906 C 3.300781 18.308594 3.261719 18.121094 3.1875 17.941406 C 3.113281 17.761719 3.007812 17.605469 2.871094 17.46875 C 2.734375 17.332031 2.574219 17.222656 2.394531 17.148438 C 2.214844 17.074219 2.027344 17.039062 1.835938 17.039062 Z M 3.070312 23.203125 C 2.875 23.203125 2.683594 23.238281 2.5 23.316406 C 2.320312 23.390625 2.164062 23.496094 2.027344 23.632812 C 1.890625 23.769531 1.78125 23.929688 1.707031 24.109375 C 1.632812 24.289062 1.597656 24.476562 1.597656 24.667969 C 1.597656 24.863281 1.632812 25.050781 1.710938 25.230469 C 1.78125 25.410156 1.890625 25.566406 2.027344 25.707031 C 2.164062 25.84375 2.320312 25.949219 2.5 26.023438 C 2.679688 26.097656 2.867188 26.136719 3.0625 26.136719 C 3.257812 26.136719 3.445312 26.097656 3.625 26.023438 C 3.800781 25.949219 3.960938 25.84375 4.097656 25.707031 C 4.234375 25.570312 4.339844 25.410156 4.414062 25.230469 C 4.488281 25.050781 4.527344 24.867188 4.527344 24.671875 C 4.527344 24.476562 4.488281 24.289062 4.414062 24.109375 C 4.304688 23.839844 4.125 23.621094 3.878906 23.453125 C 3.636719 23.289062 3.367188 23.207031 3.070312 23.203125 Z M 6.574219 28.429688 C 6.164062 28.425781 5.8125 28.570312 5.519531 28.859375 C 5.382812 28.996094 5.277344 29.15625 5.203125 29.335938 C 5.128906 29.515625 5.089844 29.703125 5.089844 29.894531 C 5.089844 30.089844 5.128906 30.277344 5.203125 30.457031 C 5.277344 30.636719 5.382812 30.792969 5.519531 30.929688 C 5.65625 31.070312 5.816406 31.175781 5.996094 31.25 C 6.175781 31.324219 6.363281 31.359375 6.554688 31.359375 C 6.75 31.359375 6.9375 31.324219 7.117188 31.25 C 7.296875 31.175781 7.453125 31.070312 7.589844 30.929688 C 7.730469 30.792969 7.835938 30.636719 7.910156 30.457031 C 7.984375 30.277344 8.019531 30.089844 8.019531 29.894531 C 8.019531 29.703125 7.984375 29.515625 7.910156 29.335938 C 7.835938 29.15625 7.730469 28.996094 7.589844 28.859375 C 7.3125 28.578125 6.972656 28.4375 6.574219 28.429688 Z M 11.8125 31.925781 C 11.511719 31.917969 11.234375 31.996094 10.980469 32.164062 C 10.730469 32.328125 10.546875 32.550781 10.429688 32.828125 C 10.355469 33.007812 10.316406 33.195312 10.316406 33.390625 C 10.316406 33.582031 10.355469 33.769531 10.429688 33.949219 C 10.503906 34.128906 10.609375 34.289062 10.746094 34.425781 C 10.882812 34.5625 11.042969 34.667969 11.222656 34.742188 C 11.402344 34.816406 11.589844 34.855469 11.78125 34.855469 C 11.976562 34.855469 12.164062 34.816406 12.34375 34.742188 C 12.523438 34.667969 12.679688 34.5625 12.816406 34.425781 C 12.957031 34.289062 13.0625 34.128906 13.136719 33.949219 C 13.210938 33.769531 13.246094 33.582031 13.246094 33.390625 C 13.246094 33.195312 13.210938 33.007812 13.136719 32.828125 C 13.0625 32.648438 12.957031 32.492188 12.820312 32.355469 C 12.679688 32.214844 12.523438 32.109375 12.34375 32.035156 C 12.175781 31.964844 11.996094 31.929688 11.8125 31.925781 Z M 11.8125 31.925781 " fill-opacity="1" fill-rule="nonzero"/></g></svg>