<svg xmlns="http://www.w3.org/2000/svg" xmlns:xlink="http://www.w3.org/1999/xlink" width="50" zoomAndPan="magnify" viewBox="0 0 37.5 37.499999" height="50" preserveAspectRatio="xMidYMid meet" version="1.0"><defs><clipPath id="ea5a2dd52e"><path d="M 0 2.515625 L 37 2.515625 L 37 36.5625 L 0 36.5625 Z M 0 2.515625 " clip-rule="nonzero"/></clipPath><clipPath id="8c4765863a"><path d="M 0 1.582031 L 37 1.582031 L 37 35.628906 L 0 35.628906 Z M 0 1.582031 " clip-rule="nonzero"/></clipPath></defs><g clip-path="url(#ea5a2dd52e)"><path fill="#010101" d="M 32.523438 19.152344 L 32.523438 8.132812 C 32.523438 7.277344 32.191406 6.46875 31.589844 5.863281 C 30.996094 5.265625 30.171875 4.921875 29.332031 4.921875 L 25.089844 4.921875 L 25.089844 3.242188 C 25.089844 2.890625 24.800781 2.601562 24.449219 2.601562 C 24.097656 2.601562 23.8125 2.890625 23.8125 3.242188 L 23.8125 4.921875 L 16.90625 4.921875 L 16.90625 3.242188 C 16.90625 2.890625 16.621094 2.601562 16.269531 2.601562 C 15.917969 2.601562 15.632812 2.890625 15.632812 3.242188 L 15.632812 4.921875 L 8.726562 4.921875 L 8.726562 3.242188 C 8.726562 2.890625 8.441406 2.601562 8.089844 2.601562 C 7.738281 2.601562 7.453125 2.890625 7.453125 3.242188 L 7.453125 4.921875 L 3.210938 4.921875 C 2.367188 4.921875 1.546875 5.265625 0.953125 5.863281 C 0.347656 6.46875 0.015625 7.277344 0.015625 8.132812 L 0.015625 27.421875 C 0.015625 28.277344 0.347656 29.085938 0.953125 29.691406 C 1.546875 30.292969 2.367188 30.632812 3.210938 30.632812 L 19.183594 30.632812 C 20.570312 34.019531 23.878906 36.414062 27.738281 36.414062 C 32.839844 36.414062 36.992188 32.234375 36.992188 27.105469 C 36.992188 23.734375 35.195312 20.785156 32.523438 19.152344 Z M 27.738281 17.796875 C 26.679688 17.796875 25.664062 17.984375 24.714844 18.316406 L 24.714844 14.347656 L 31.25 14.347656 L 31.25 18.496094 C 30.164062 18.046875 28.980469 17.796875 27.738281 17.796875 Z M 20.585938 21.207031 L 16.90625 21.207031 L 16.90625 14.347656 L 23.441406 14.347656 L 23.441406 18.867188 C 22.339844 19.453125 21.371094 20.246094 20.585938 21.207031 Z M 9.101562 21.207031 L 9.101562 14.347656 L 15.632812 14.347656 L 15.632812 21.207031 Z M 15.632812 22.492188 L 15.632812 29.351562 L 9.101562 29.351562 L 9.101562 22.492188 Z M 1.292969 14.347656 L 7.824219 14.347656 L 7.824219 21.207031 L 1.292969 21.207031 Z M 1.855469 6.769531 C 2.210938 6.410156 2.703125 6.203125 3.210938 6.203125 L 7.453125 6.203125 L 7.453125 7.785156 C 7.453125 8.136719 7.738281 8.425781 8.089844 8.425781 C 8.441406 8.425781 8.726562 8.136719 8.726562 7.785156 L 8.726562 6.203125 L 15.632812 6.203125 L 15.632812 7.785156 C 15.632812 8.136719 15.917969 8.425781 16.269531 8.425781 C 16.621094 8.425781 16.90625 8.136719 16.90625 7.785156 L 16.90625 6.203125 L 23.8125 6.203125 L 23.8125 7.785156 C 23.8125 8.136719 24.097656 8.425781 24.449219 8.425781 C 24.800781 8.425781 25.089844 8.136719 25.089844 7.785156 L 25.089844 6.203125 L 29.332031 6.203125 C 29.835938 6.203125 30.328125 6.410156 30.6875 6.769531 C 31.050781 7.132812 31.25 7.621094 31.25 8.132812 L 31.25 13.0625 L 1.292969 13.0625 L 1.292969 8.132812 C 1.292969 7.621094 1.492188 7.132812 1.855469 6.769531 Z M 1.855469 28.785156 C 1.492188 28.421875 1.292969 27.9375 1.292969 27.421875 L 1.292969 22.492188 L 7.824219 22.492188 L 7.824219 29.351562 L 3.210938 29.351562 C 2.703125 29.351562 2.210938 29.144531 1.855469 28.785156 Z M 16.90625 29.351562 L 16.90625 22.492188 L 19.714844 22.492188 C 18.9375 23.851562 18.488281 25.425781 18.488281 27.105469 C 18.488281 27.878906 18.59375 28.628906 18.773438 29.351562 Z M 27.738281 35.128906 C 23.339844 35.128906 19.765625 31.527344 19.765625 27.101562 C 19.765625 22.679688 23.339844 19.078125 27.738281 19.078125 C 32.136719 19.078125 35.714844 22.679688 35.714844 27.101562 C 35.714844 31.527344 32.136719 35.128906 27.738281 35.128906 Z M 27.738281 35.128906 " fill-opacity="1" fill-rule="nonzero"/></g><path fill="#010101" d="M 30.714844 26.363281 L 28.378906 26.363281 L 28.378906 22.710938 C 28.378906 22.355469 28.09375 22.070312 27.738281 22.070312 C 27.386719 22.070312 27.101562 22.355469 27.101562 22.710938 L 27.101562 27.007812 C 27.101562 27.359375 27.386719 27.648438 27.738281 27.648438 L 30.714844 27.648438 C 31.066406 27.648438 31.351562 27.359375 31.351562 27.007812 C 31.351562 26.652344 31.066406 26.363281 30.714844 26.363281 Z M 30.714844 26.363281 " fill-opacity="1" fill-rule="nonzero"/><g clip-path="url(#8c4765863a)"><path fill="#7ed957" d="M 32.523438 18.117188 L 32.523438 7.164062 C 32.523438 6.3125 32.191406 5.511719 31.589844 4.90625 C 30.996094 4.3125 30.171875 3.972656 29.332031 3.972656 L 25.089844 3.972656 L 25.089844 2.304688 C 25.089844 1.953125 24.800781 1.667969 24.449219 1.667969 C 24.097656 1.667969 23.8125 1.953125 23.8125 2.304688 L 23.8125 3.972656 L 16.90625 3.972656 L 16.90625 2.304688 C 16.90625 1.953125 16.621094 1.667969 16.269531 1.667969 C 15.917969 1.667969 15.632812 1.953125 15.632812 2.304688 L 15.632812 3.972656 L 8.726562 3.972656 L 8.726562 2.304688 C 8.726562 1.953125 8.441406 1.667969 8.089844 1.667969 C 7.738281 1.667969 7.453125 1.953125 7.453125 2.304688 L 7.453125 3.972656 L 3.210938 3.972656 C 2.367188 3.972656 1.546875 4.3125 0.953125 4.90625 C 0.347656 5.511719 0.015625 6.3125 0.015625 7.164062 L 0.015625 26.335938 C 0.015625 27.1875 0.347656 27.988281 0.953125 28.59375 C 1.546875 29.1875 2.367188 29.527344 3.210938 29.527344 L 19.183594 29.527344 C 20.570312 32.894531 23.878906 35.269531 27.738281 35.269531 C 32.839844 35.269531 36.992188 31.121094 36.992188 26.019531 C 36.992188 22.667969 35.195312 19.738281 32.523438 18.117188 Z M 27.738281 16.765625 C 26.679688 16.765625 25.664062 16.957031 24.714844 17.285156 L 24.714844 13.339844 L 31.25 13.339844 L 31.25 17.460938 C 30.164062 17.015625 28.980469 16.765625 27.738281 16.765625 Z M 20.585938 20.160156 L 16.90625 20.160156 L 16.90625 13.339844 L 23.441406 13.339844 L 23.441406 17.832031 C 22.339844 18.414062 21.371094 19.203125 20.585938 20.160156 Z M 9.101562 20.160156 L 9.101562 13.339844 L 15.632812 13.339844 L 15.632812 20.160156 Z M 15.632812 21.433594 L 15.632812 28.253906 L 9.101562 28.253906 L 9.101562 21.433594 Z M 1.292969 13.339844 L 7.824219 13.339844 L 7.824219 20.160156 L 1.292969 20.160156 Z M 1.855469 5.808594 C 2.210938 5.453125 2.703125 5.246094 3.210938 5.246094 L 7.453125 5.246094 L 7.453125 6.816406 C 7.453125 7.167969 7.738281 7.453125 8.089844 7.453125 C 8.441406 7.453125 8.726562 7.167969 8.726562 6.816406 L 8.726562 5.246094 L 15.632812 5.246094 L 15.632812 6.816406 C 15.632812 7.167969 15.917969 7.453125 16.269531 7.453125 C 16.621094 7.453125 16.90625 7.167969 16.90625 6.816406 L 16.90625 5.246094 L 23.8125 5.246094 L 23.8125 6.816406 C 23.8125 7.167969 24.097656 7.453125 24.449219 7.453125 C 24.800781 7.453125 25.089844 7.167969 25.089844 6.816406 L 25.089844 5.246094 L 29.332031 5.246094 C 29.835938 5.246094 30.328125 5.453125 30.6875 5.808594 C 31.050781 6.171875 31.25 6.652344 31.25 7.164062 L 31.25 12.066406 L 1.292969 12.066406 L 1.292969 7.164062 C 1.292969 6.652344 1.492188 6.171875 1.855469 5.808594 Z M 1.855469 27.691406 C 1.492188 27.328125 1.292969 26.847656 1.292969 26.332031 L 1.292969 21.433594 L 7.824219 21.433594 L 7.824219 28.25 L 3.210938 28.25 C 2.703125 28.25 2.210938 28.046875 1.855469 27.691406 Z M 16.90625 28.25 L 16.90625 21.433594 L 19.714844 21.433594 C 18.9375 22.789062 18.488281 24.351562 18.488281 26.019531 C 18.488281 26.789062 18.59375 27.535156 18.773438 28.253906 L 16.90625 28.253906 Z M 27.738281 33.992188 C 23.339844 33.992188 19.765625 30.417969 19.765625 26.019531 C 19.765625 21.621094 23.339844 18.042969 27.738281 18.042969 C 32.136719 18.042969 35.714844 21.621094 35.714844 26.019531 C 35.714844 30.417969 32.136719 33.992188 27.738281 33.992188 Z M 27.738281 33.992188 " fill-opacity="1" fill-rule="nonzero"/></g><path fill="#7ed957" d="M 30.714844 25.285156 L 28.378906 25.285156 L 28.378906 21.652344 C 28.378906 21.300781 28.09375 21.015625 27.738281 21.015625 C 27.386719 21.015625 27.101562 21.300781 27.101562 21.652344 L 27.101562 25.921875 C 27.101562 26.273438 27.386719 26.558594 27.738281 26.558594 L 30.714844 26.558594 C 31.066406 26.558594 31.351562 26.273438 31.351562 25.921875 C 31.351562 25.570312 31.066406 25.285156 30.714844 25.285156 Z M 30.714844 25.285156 " fill-opacity="1" fill-rule="nonzero"/></svg>