<svg xmlns="http://www.w3.org/2000/svg" xmlns:xlink="http://www.w3.org/1999/xlink" width="50" zoomAndPan="magnify" viewBox="0 0 37.5 37.499999" height="50" preserveAspectRatio="xMidYMid meet" version="1.0"><defs><clipPath id="b216a53369"><path d="M 26 0.519531 L 36.785156 0.519531 L 36.785156 11 L 26 11 Z M 26 0.519531 " clip-rule="nonzero"/></clipPath><clipPath id="09c0177cec"><path d="M 0.519531 2 L 36 2 L 36 36.785156 L 0.519531 36.785156 Z M 0.519531 2 " clip-rule="nonzero"/></clipPath><clipPath id="beaba6b7ed"><path d="M 26 1.183594 L 35.96875 1.183594 L 35.96875 11 L 26 11 Z M 26 1.183594 " clip-rule="nonzero"/></clipPath><clipPath id="4da89cd724"><path d="M 1.183594 2 L 35 2 L 35 35.96875 L 1.183594 35.96875 Z M 1.183594 2 " clip-rule="nonzero"/></clipPath></defs><path fill="#000000" d="M 10.101562 20.890625 L 25.070312 5.917969 L 31.382812 12.230469 L 16.410156 27.203125 L 9.3125 27.992188 Z M 10.101562 20.890625 " fill-opacity="1" fill-rule="nonzero"/><g clip-path="url(#b216a53369)"><path fill="#000000" d="M 26.984375 4.003906 L 29.566406 1.425781 C 29.773438 1.21875 30.015625 1.058594 30.289062 0.945312 C 30.5625 0.832031 30.847656 0.777344 31.144531 0.777344 C 31.4375 0.777344 31.722656 0.832031 31.996094 0.945312 C 32.269531 1.058594 32.511719 1.21875 32.71875 1.425781 L 35.875 4.582031 C 36.085938 4.792969 36.246094 5.03125 36.359375 5.304688 C 36.472656 5.578125 36.527344 5.863281 36.527344 6.160156 C 36.527344 6.457031 36.472656 6.742188 36.359375 7.015625 C 36.246094 7.285156 36.085938 7.527344 35.875 7.738281 L 33.296875 10.316406 Z M 26.984375 4.003906 " fill-opacity="1" fill-rule="nonzero"/></g><g clip-path="url(#09c0177cec)"><path fill="#000000" d="M 33.957031 20.066406 C 33.785156 20.066406 33.621094 20.097656 33.464844 20.164062 C 33.304688 20.230469 33.167969 20.320312 33.046875 20.441406 C 32.925781 20.5625 32.832031 20.703125 32.765625 20.859375 C 32.703125 21.015625 32.667969 21.179688 32.667969 21.351562 L 32.667969 32.925781 C 32.667969 33.097656 32.636719 33.261719 32.570312 33.417969 C 32.507812 33.574219 32.414062 33.714844 32.292969 33.835938 C 32.171875 33.957031 32.03125 34.050781 31.875 34.113281 C 31.71875 34.179688 31.554688 34.210938 31.382812 34.210938 L 4.375 34.210938 C 4.207031 34.210938 4.042969 34.179688 3.882812 34.113281 C 3.726562 34.050781 3.585938 33.957031 3.46875 33.835938 C 3.347656 33.714844 3.253906 33.574219 3.1875 33.417969 C 3.121094 33.261719 3.089844 33.097656 3.089844 32.925781 L 3.089844 5.917969 C 3.089844 5.75 3.121094 5.585938 3.1875 5.425781 C 3.253906 5.269531 3.347656 5.128906 3.46875 5.011719 C 3.585938 4.890625 3.726562 4.796875 3.882812 4.730469 C 4.042969 4.667969 4.207031 4.632812 4.375 4.632812 L 15.949219 4.632812 C 16.121094 4.632812 16.285156 4.601562 16.441406 4.535156 C 16.601562 4.46875 16.738281 4.378906 16.859375 4.257812 C 16.980469 4.136719 17.074219 3.996094 17.140625 3.839844 C 17.203125 3.683594 17.238281 3.519531 17.238281 3.347656 C 17.238281 3.175781 17.203125 3.011719 17.140625 2.855469 C 17.074219 2.699219 16.980469 2.558594 16.859375 2.4375 C 16.738281 2.316406 16.601562 2.222656 16.441406 2.160156 C 16.285156 2.09375 16.121094 2.0625 15.949219 2.0625 L 4.375 2.0625 C 3.863281 2.0625 3.371094 2.160156 2.898438 2.355469 C 2.425781 2.550781 2.011719 2.828125 1.648438 3.191406 C 1.285156 3.554688 1.007812 3.96875 0.8125 4.441406 C 0.617188 4.914062 0.519531 5.40625 0.519531 5.917969 L 0.519531 32.925781 C 0.519531 33.4375 0.617188 33.929688 0.8125 34.402344 C 1.007812 34.875 1.285156 35.292969 1.648438 35.65625 C 2.011719 36.015625 2.425781 36.296875 2.898438 36.492188 C 3.371094 36.6875 3.863281 36.785156 4.375 36.785156 L 31.382812 36.785156 C 31.894531 36.785156 32.386719 36.6875 32.859375 36.492188 C 33.332031 36.296875 33.75 36.015625 34.109375 35.65625 C 34.472656 35.292969 34.75 34.875 34.949219 34.402344 C 35.144531 33.929688 35.242188 33.4375 35.242188 32.925781 L 35.242188 21.351562 C 35.242188 21.179688 35.207031 21.015625 35.144531 20.859375 C 35.078125 20.703125 34.984375 20.5625 34.863281 20.441406 C 34.742188 20.320312 34.605469 20.230469 34.449219 20.164062 C 34.289062 20.097656 34.125 20.066406 33.957031 20.066406 Z M 33.957031 20.066406 " fill-opacity="1" fill-rule="nonzero"/></g><path fill="#5019dd" d="M 10.335938 20.640625 L 24.632812 6.34375 L 30.660156 12.371094 L 16.363281 26.667969 L 9.582031 27.421875 Z M 10.335938 20.640625 " fill-opacity="1" fill-rule="nonzero"/><g clip-path="url(#beaba6b7ed)"><path fill="#5019dd" d="M 26.460938 4.515625 L 28.925781 2.050781 C 29.125 1.851562 29.355469 1.699219 29.617188 1.589844 C 29.878906 1.484375 30.148438 1.429688 30.433594 1.429688 C 30.714844 1.429688 30.984375 1.484375 31.246094 1.589844 C 31.507812 1.699219 31.738281 1.851562 31.9375 2.050781 L 34.953125 5.066406 C 35.152344 5.265625 35.304688 5.496094 35.414062 5.757812 C 35.519531 6.019531 35.574219 6.289062 35.574219 6.574219 C 35.574219 6.855469 35.519531 7.125 35.414062 7.386719 C 35.304688 7.648438 35.152344 7.878906 34.953125 8.078125 L 32.488281 10.542969 Z M 26.460938 4.515625 " fill-opacity="1" fill-rule="nonzero"/></g><g clip-path="url(#4da89cd724)"><path fill="#5019dd" d="M 33.117188 19.851562 C 32.957031 19.851562 32.796875 19.882812 32.648438 19.945312 C 32.496094 20.007812 32.363281 20.097656 32.25 20.214844 C 32.132812 20.328125 32.046875 20.460938 31.984375 20.613281 C 31.921875 20.761719 31.890625 20.917969 31.890625 21.082031 L 31.890625 32.136719 C 31.890625 32.296875 31.859375 32.453125 31.796875 32.605469 C 31.734375 32.757812 31.644531 32.890625 31.53125 33.003906 C 31.414062 33.117188 31.28125 33.207031 31.132812 33.269531 C 30.980469 33.332031 30.824219 33.363281 30.660156 33.363281 L 4.867188 33.363281 C 4.707031 33.363281 4.550781 33.332031 4.398438 33.269531 C 4.25 33.207031 4.117188 33.117188 4 33.003906 C 3.886719 32.890625 3.796875 32.757812 3.734375 32.605469 C 3.671875 32.453125 3.640625 32.296875 3.640625 32.136719 L 3.640625 6.34375 C 3.640625 6.179688 3.671875 6.023438 3.734375 5.871094 C 3.796875 5.722656 3.886719 5.589844 4 5.472656 C 4.117188 5.359375 4.25 5.269531 4.398438 5.207031 C 4.550781 5.144531 4.707031 5.113281 4.867188 5.113281 L 15.921875 5.113281 C 16.085938 5.113281 16.242188 5.082031 16.394531 5.019531 C 16.542969 4.957031 16.675781 4.871094 16.792969 4.753906 C 16.90625 4.640625 16.996094 4.507812 17.058594 4.355469 C 17.121094 4.207031 17.152344 4.050781 17.152344 3.886719 C 17.152344 3.722656 17.121094 3.566406 17.058594 3.417969 C 16.996094 3.265625 16.90625 3.132812 16.792969 3.019531 C 16.675781 2.902344 16.542969 2.8125 16.394531 2.75 C 16.242188 2.6875 16.085938 2.65625 15.921875 2.65625 L 4.867188 2.65625 C 4.378906 2.65625 3.910156 2.75 3.457031 2.9375 C 3.007812 3.125 2.609375 3.390625 2.261719 3.738281 C 1.917969 4.082031 1.652344 4.480469 1.464844 4.933594 C 1.277344 5.382812 1.183594 5.855469 1.183594 6.34375 L 1.183594 32.136719 C 1.183594 32.625 1.277344 33.09375 1.464844 33.546875 C 1.652344 33.996094 1.917969 34.394531 2.261719 34.742188 C 2.609375 35.085938 3.007812 35.351562 3.457031 35.539062 C 3.910156 35.726562 4.378906 35.820312 4.867188 35.820312 L 30.660156 35.820312 C 31.148438 35.820312 31.621094 35.726562 32.070312 35.539062 C 32.523438 35.351562 32.921875 35.085938 33.265625 34.742188 C 33.613281 34.394531 33.878906 33.996094 34.066406 33.546875 C 34.253906 33.09375 34.347656 32.625 34.347656 32.136719 L 34.347656 21.082031 C 34.347656 20.917969 34.316406 20.761719 34.253906 20.613281 C 34.191406 20.460938 34.101562 20.328125 33.988281 20.214844 C 33.871094 20.097656 33.738281 20.007812 33.589844 19.945312 C 33.4375 19.882812 33.28125 19.851562 33.117188 19.851562 Z M 33.117188 19.851562 " fill-opacity="1" fill-rule="nonzero"/></g></svg>