<svg xmlns="http://www.w3.org/2000/svg" xmlns:xlink="http://www.w3.org/1999/xlink" width="1920" zoomAndPan="magnify" viewBox="0 0 1440 809.999993" height="1080" preserveAspectRatio="xMidYMid meet" version="1.0"><defs><g/><clipPath id="37215bf11a"><path d="M 1238 345 L 1317 345 L 1317 412 L 1238 412 Z M 1238 345 " clip-rule="nonzero"/></clipPath><clipPath id="28d7339790"><path d="M 1237.34375 345 L 1316.835938 343.917969 L 1317.765625 412.160156 L 1238.273438 413.242188 Z M 1237.34375 345 " clip-rule="nonzero"/></clipPath><clipPath id="159b055a9a"><path d="M 1237.34375 345 L 1316.835938 343.917969 L 1317.765625 412.160156 L 1238.273438 413.242188 Z M 1237.34375 345 " clip-rule="nonzero"/></clipPath><clipPath id="8b2d381ed7"><path d="M 1238 345 L 1311 345 L 1311 407 L 1238 407 Z M 1238 345 " clip-rule="nonzero"/></clipPath><clipPath id="c86489ac1d"><path d="M 1237.34375 345 L 1310.839844 344 L 1311.695312 406.992188 L 1238.203125 407.996094 Z M 1237.34375 345 " clip-rule="nonzero"/></clipPath><clipPath id="2ccd52c8c6"><path d="M 1237.34375 345 L 1310.839844 344 L 1311.695312 406.992188 L 1238.203125 407.996094 Z M 1237.34375 345 " clip-rule="nonzero"/></clipPath><clipPath id="eae0bdf473"><path d="M 94 310 L 171 310 L 171 385 L 94 385 Z M 94 310 " clip-rule="nonzero"/></clipPath><clipPath id="36ceac64c4"><path d="M 81.003906 344.625 L 143.371094 295.328125 L 185.695312 348.871094 L 123.324219 398.167969 Z M 81.003906 344.625 " clip-rule="nonzero"/></clipPath><clipPath id="de1172f0b4"><path d="M 81.003906 344.625 L 143.371094 295.328125 L 185.695312 348.871094 L 123.324219 398.167969 Z M 81.003906 344.625 " clip-rule="nonzero"/></clipPath><clipPath id="f684ea552d"><path d="M 97 313 L 168 313 L 168 382 L 97 382 Z M 97 313 " clip-rule="nonzero"/></clipPath><clipPath id="14cb299116"><path d="M 84.953125 344.777344 L 142.617188 299.203125 L 181.679688 348.628906 L 124.019531 394.203125 Z M 84.953125 344.777344 " clip-rule="nonzero"/></clipPath><clipPath id="8097752d24"><path d="M 84.953125 344.777344 L 142.617188 299.203125 L 181.679688 348.628906 L 124.019531 394.203125 Z M 84.953125 344.777344 " clip-rule="nonzero"/></clipPath></defs><g clip-path="url(#37215bf11a)"><g clip-path="url(#28d7339790)"><g clip-path="url(#159b055a9a)"><path fill="#7ed957" d="M 1256.011719 368.234375 C 1258.238281 374.316406 1256.4375 380.566406 1251.992188 382.195312 C 1247.550781 383.820312 1242.140625 380.210938 1239.914062 374.128906 C 1237.6875 368.046875 1239.484375 361.796875 1243.929688 360.167969 C 1248.375 358.542969 1253.785156 362.152344 1256.011719 368.234375 Z M 1292.554688 411.183594 C 1290.585938 411.210938 1288.6875 410.863281 1286.859375 410.136719 C 1285.03125 409.40625 1283.414062 408.355469 1282.003906 406.980469 C 1281.746094 406.730469 1281.464844 406.503906 1281.160156 406.308594 C 1280.859375 406.113281 1280.539062 405.949219 1280.207031 405.8125 C 1279.871094 405.679688 1279.527344 405.582031 1279.171875 405.515625 C 1278.816406 405.449219 1278.460938 405.417969 1278.097656 405.425781 C 1277.738281 405.429688 1277.382812 405.46875 1277.027344 405.542969 C 1276.675781 405.621094 1276.335938 405.730469 1276.003906 405.871094 C 1275.671875 406.015625 1275.359375 406.1875 1275.0625 406.390625 C 1274.761719 406.597656 1274.488281 406.828125 1274.238281 407.085938 C 1273.558594 407.785156 1272.816406 408.410156 1272.015625 408.960938 C 1271.210938 409.515625 1270.363281 409.984375 1269.46875 410.367188 C 1268.570312 410.753906 1267.648438 411.046875 1266.695312 411.25 C 1265.742188 411.453125 1264.777344 411.5625 1263.804688 411.574219 C 1262.828125 411.589844 1261.863281 411.507812 1260.90625 411.328125 C 1259.945312 411.152344 1259.015625 410.882812 1258.109375 410.523438 C 1257.203125 410.164062 1256.34375 409.714844 1255.523438 409.1875 C 1254.707031 408.65625 1253.949219 408.050781 1253.25 407.371094 C 1252.554688 406.691406 1251.929688 405.949219 1251.375 405.148438 C 1250.824219 404.34375 1250.355469 403.496094 1249.96875 402.601562 C 1249.585938 401.707031 1249.289062 400.78125 1249.085938 399.828125 C 1248.882812 398.875 1248.777344 397.910156 1248.761719 396.9375 C 1248.75 395.960938 1248.832031 394.996094 1249.007812 394.039062 C 1249.183594 393.078125 1249.453125 392.148438 1249.816406 391.242188 C 1250.175781 390.335938 1250.621094 389.476562 1251.152344 388.660156 C 1251.683594 387.839844 1252.285156 387.082031 1252.964844 386.386719 C 1253.769531 385.558594 1254.613281 384.773438 1255.492188 384.03125 C 1256.371094 383.289062 1257.285156 382.589844 1258.234375 381.9375 C 1259.183594 381.285156 1260.164062 380.679688 1261.171875 380.121094 C 1262.179688 379.5625 1263.214844 379.058594 1264.269531 378.601562 C 1265.328125 378.148438 1266.40625 377.746094 1267.503906 377.394531 C 1268.601562 377.046875 1269.714844 376.75 1270.84375 376.511719 C 1271.96875 376.269531 1273.105469 376.085938 1274.25 375.957031 C 1275.394531 375.828125 1276.542969 375.757812 1277.695312 375.742188 C 1278.847656 375.726562 1279.996094 375.765625 1281.144531 375.863281 C 1282.292969 375.960938 1283.433594 376.113281 1284.566406 376.324219 C 1285.699219 376.53125 1286.816406 376.796875 1287.925781 377.117188 C 1289.03125 377.4375 1290.121094 377.808594 1291.191406 378.234375 C 1292.261719 378.664062 1293.308594 379.140625 1294.332031 379.667969 C 1295.355469 380.199219 1296.347656 380.777344 1297.316406 381.40625 C 1298.28125 382.03125 1299.214844 382.703125 1300.113281 383.421875 C 1301.015625 384.140625 1301.878906 384.902344 1302.703125 385.707031 C 1303.226562 386.214844 1303.710938 386.761719 1304.152344 387.339844 C 1304.59375 387.921875 1304.992188 388.53125 1305.34375 389.167969 C 1305.699219 389.808594 1306.003906 390.46875 1306.257812 391.152344 C 1306.511719 391.835938 1306.714844 392.535156 1306.867188 393.25 C 1307.019531 393.964844 1307.121094 394.683594 1307.164062 395.414062 C 1307.210938 396.140625 1307.203125 396.871094 1307.140625 397.597656 C 1307.078125 398.324219 1306.964844 399.042969 1306.796875 399.753906 C 1306.628906 400.464844 1306.410156 401.15625 1306.140625 401.835938 C 1305.871094 402.515625 1305.550781 403.167969 1305.1875 403.800781 C 1304.820312 404.429688 1304.410156 405.03125 1303.953125 405.601562 C 1303.496094 406.171875 1303.003906 406.707031 1302.46875 407.203125 C 1301.933594 407.699219 1301.367188 408.15625 1300.765625 408.570312 C 1300.164062 408.984375 1299.535156 409.351562 1298.878906 409.671875 C 1298.226562 409.992188 1297.550781 410.265625 1296.855469 410.484375 C 1296.160156 410.707031 1295.449219 410.875 1294.730469 410.992188 C 1294.011719 411.109375 1293.285156 411.171875 1292.554688 411.183594 Z M 1275.960938 357.804688 C 1276.761719 365.164062 1273.046875 371.605469 1267.667969 372.1875 C 1262.285156 372.773438 1257.277344 367.277344 1256.480469 359.914062 C 1255.683594 352.554688 1259.394531 346.117188 1264.777344 345.53125 C 1270.15625 344.949219 1275.164062 350.441406 1275.960938 357.804688 Z M 1278.9375 357.765625 C 1278.339844 365.144531 1282.226562 371.480469 1287.621094 371.917969 C 1293.015625 372.355469 1297.871094 366.722656 1298.46875 359.34375 C 1299.066406 351.964844 1295.179688 345.628906 1289.785156 345.191406 C 1284.390625 344.753906 1279.535156 350.382812 1278.9375 357.765625 Z M 1299.164062 367.648438 C 1297.105469 373.785156 1299.070312 379.988281 1303.558594 381.492188 C 1308.046875 382.996094 1313.355469 379.238281 1315.417969 373.101562 C 1317.476562 366.960938 1315.507812 360.761719 1311.023438 359.253906 C 1306.535156 357.75 1301.226562 361.507812 1299.164062 367.648438 Z M 1299.164062 367.648438 " fill-opacity="1" fill-rule="nonzero"/></g></g></g><g clip-path="url(#8b2d381ed7)"><g clip-path="url(#c86489ac1d)"><g clip-path="url(#2ccd52c8c6)"><path fill="#5019dd" d="M 1254.605469 366.484375 C 1256.667969 372.109375 1255.003906 377.890625 1250.890625 379.394531 C 1246.78125 380.898438 1241.78125 377.5625 1239.722656 371.9375 C 1237.660156 366.3125 1239.324219 360.53125 1243.433594 359.027344 C 1247.546875 357.519531 1252.546875 360.859375 1254.605469 366.484375 Z M 1288.40625 406.207031 C 1286.585938 406.234375 1284.828125 405.910156 1283.136719 405.238281 C 1281.445312 404.5625 1279.949219 403.589844 1278.644531 402.320312 C 1278.40625 402.085938 1278.148438 401.878906 1277.867188 401.699219 C 1277.589844 401.515625 1277.292969 401.363281 1276.984375 401.242188 C 1276.675781 401.117188 1276.355469 401.023438 1276.027344 400.964844 C 1275.699219 400.902344 1275.367188 400.875 1275.035156 400.878906 C 1274.703125 400.882812 1274.371094 400.921875 1274.046875 400.992188 C 1273.71875 401.0625 1273.402344 401.160156 1273.097656 401.292969 C 1272.789062 401.425781 1272.5 401.585938 1272.226562 401.773438 C 1271.949219 401.964844 1271.699219 402.179688 1271.464844 402.417969 C 1270.835938 403.0625 1270.152344 403.640625 1269.410156 404.152344 C 1268.664062 404.664062 1267.878906 405.097656 1267.054688 405.453125 C 1266.226562 405.808594 1265.371094 406.082031 1264.488281 406.269531 C 1263.605469 406.457031 1262.714844 406.554688 1261.816406 406.570312 C 1260.914062 406.582031 1260.019531 406.503906 1259.132812 406.339844 C 1258.246094 406.175781 1257.386719 405.929688 1256.546875 405.59375 C 1255.710938 405.261719 1254.914062 404.851562 1254.160156 404.359375 C 1253.402344 403.867188 1252.703125 403.308594 1252.054688 402.679688 C 1251.410156 402.050781 1250.832031 401.367188 1250.320312 400.625 C 1249.808594 399.882812 1249.375 399.097656 1249.019531 398.269531 C 1248.664062 397.441406 1248.390625 396.585938 1248.203125 395.703125 C 1248.015625 394.824219 1247.917969 393.933594 1247.902344 393.03125 C 1247.890625 392.128906 1247.96875 391.234375 1248.132812 390.351562 C 1248.296875 389.464844 1248.542969 388.601562 1248.878906 387.765625 C 1249.210938 386.925781 1249.625 386.128906 1250.113281 385.375 C 1250.605469 384.617188 1251.164062 383.917969 1251.792969 383.273438 C 1252.535156 382.507812 1253.3125 381.78125 1254.128906 381.09375 C 1254.941406 380.40625 1255.789062 379.761719 1256.664062 379.15625 C 1257.542969 378.554688 1258.449219 377.992188 1259.378906 377.480469 C 1260.3125 376.964844 1261.269531 376.496094 1262.246094 376.074219 C 1263.226562 375.652344 1264.222656 375.28125 1265.238281 374.957031 C 1266.253906 374.632812 1267.28125 374.363281 1268.324219 374.140625 C 1269.367188 373.917969 1270.417969 373.746094 1271.476562 373.628906 C 1272.535156 373.507812 1273.597656 373.441406 1274.660156 373.425781 C 1275.726562 373.414062 1276.789062 373.449219 1277.851562 373.539062 C 1278.914062 373.628906 1279.96875 373.773438 1281.015625 373.964844 C 1282.0625 374.160156 1283.097656 374.40625 1284.121094 374.699219 C 1285.148438 374.996094 1286.152344 375.339844 1287.144531 375.734375 C 1288.132812 376.128906 1289.101562 376.570312 1290.046875 377.0625 C 1290.992188 377.550781 1291.914062 378.085938 1292.808594 378.664062 C 1293.699219 379.246094 1294.5625 379.867188 1295.398438 380.53125 C 1296.230469 381.199219 1297.027344 381.902344 1297.789062 382.644531 C 1298.761719 383.589844 1299.578125 384.660156 1300.234375 385.847656 C 1300.890625 387.035156 1301.359375 388.292969 1301.644531 389.621094 C 1301.925781 390.949219 1302.011719 392.289062 1301.894531 393.640625 C 1301.78125 394.992188 1301.472656 396.300781 1300.96875 397.5625 C 1300.46875 398.820312 1299.792969 399.984375 1298.945312 401.042969 C 1298.101562 402.105469 1297.117188 403.019531 1296 403.789062 C 1294.878906 404.558594 1293.675781 405.148438 1292.382812 405.5625 C 1291.089844 405.972656 1289.761719 406.1875 1288.40625 406.207031 Z M 1273.058594 356.839844 C 1273.796875 363.648438 1270.363281 369.605469 1265.386719 370.144531 C 1260.410156 370.683594 1255.777344 365.601562 1255.042969 358.792969 C 1254.304688 351.984375 1257.738281 346.027344 1262.714844 345.488281 C 1267.6875 344.949219 1272.320312 350.03125 1273.058594 356.839844 Z M 1275.8125 356.800781 C 1275.257812 363.625 1278.855469 369.488281 1283.84375 369.890625 C 1288.832031 370.296875 1293.320312 365.089844 1293.875 358.261719 C 1294.425781 351.4375 1290.832031 345.578125 1285.84375 345.175781 C 1280.855469 344.769531 1276.363281 349.976562 1275.8125 356.800781 Z M 1294.519531 365.941406 C 1292.613281 371.621094 1294.433594 377.355469 1298.582031 378.746094 C 1302.734375 380.136719 1307.640625 376.664062 1309.546875 370.984375 C 1311.453125 365.308594 1309.632812 359.574219 1305.484375 358.179688 C 1301.332031 356.789062 1296.425781 360.261719 1294.519531 365.941406 Z M 1294.519531 365.941406 " fill-opacity="1" fill-rule="nonzero"/></g></g></g><path stroke-linecap="butt" transform="matrix(0.75, 0, 0, 0.75, -74.502705, 323.342435)" fill="none" stroke-linejoin="miter" d="M 318.310915 151.548636 C 331.331749 151.548636 355.014041 151.548636 364.378625 151.001761 C 366.639042 150.861136 368.003625 149.189261 368.003625 147.069469 C 367.732792 138.116344 366.909875 122.293426 365.784875 113.199676 C 365.373417 109.267384 361.029667 108.720509 359.185917 111.663217 C 351.904666 122.600718 344.487999 126.355926 329.930707 126.355926 C 318.618206 126.355926 311.336956 122.871551 311.336956 115.590301 L 311.336956 113.335092 C 311.336956 107.048634 316.498415 104.658009 325.592165 104.517384 C 332.185915 104.381967 338.066124 105.647592 344.628624 108.861134 C 346.743208 110.397592 349.139041 109.267384 349.139041 106.4653 L 349.274458 95.1528 C 349.274458 92.897591 347.290083 91.225716 344.935916 91.49655 C 338.066124 91.772591 331.774457 92.350716 325.316123 92.350716 C 315.816123 92.350716 311.336956 90.095508 311.336956 85.892383 L 311.336956 85.210091 C 311.336956 80.595507 316.086956 77.381966 325.316123 77.381966 C 336.935916 77.381966 346.165083 80.460091 353.889041 86.475716 C 356.691125 89.137175 359.904667 88.012175 359.904667 84.355924 C 359.76925 77.381966 359.357792 63.918423 358.915083 56.77259 C 358.639042 54.55384 357.238 53.152798 355.014041 53.012173 C 347.019249 52.605923 331.915082 52.434048 318.753623 52.434048 C 309.081748 52.434048 289.63383 52.605923 283.04008 53.012173 C 280.956746 53.152798 279.279663 54.413214 278.972371 56.501756 C 277.024454 78.204882 275.623413 115.319468 275.347371 146.934052 C 275.347371 149.189261 277.159871 150.861136 279.415079 151.001761 C 286.967163 151.548636 308.227581 151.548636 318.310915 151.548636 Z M 402.180711 152.126761 C 413.529669 152.126761 422.040087 145.975719 426.821337 136.027802 C 428.363004 133.090302 430.446337 133.50176 430.170295 136.850719 C 430.034879 139.928844 429.62342 143.444469 429.045295 146.658011 C 428.633837 149.053844 430.446337 150.725719 432.701545 151.001761 C 436.461962 151.408011 443.055713 151.548636 446.680713 151.548636 C 450.336963 151.548636 457.75363 151.408011 462.092172 151.001761 C 464.180714 150.725719 465.717172 149.053844 465.717172 146.798636 C 465.717172 113.746551 464.180714 75.262174 462.50363 54.96009 C 462.368214 52.876756 460.826547 51.475714 458.87863 51.204881 C 455.086963 50.621548 449.071338 50.621548 445.415088 50.621548 C 441.930713 50.621548 434.37342 50.621548 430.31092 51.033006 C 428.086962 51.475714 426.102587 53.288214 426.514045 55.543423 C 428.222379 65.043423 430.034879 78.751757 430.446337 89.960091 C 430.581754 93.751758 428.363004 93.616341 426.821337 90.949675 C 421.493212 79.605924 414.211961 73.861132 402.045294 73.861132 C 383.826543 73.861132 372.071334 89.2778 372.071334 114.600718 C 372.071334 139.517385 384.27446 152.126761 402.180711 152.126761 Z M 418.68592 126.22051 C 411.821336 126.22051 407.206752 121.335093 407.206752 113.335092 C 407.206752 105.37155 411.680711 99.9028 418.68592 99.9028 C 425.420295 99.9028 430.034879 105.37155 430.034879 113.335092 C 430.034879 121.335093 425.284878 126.22051 418.68592 126.22051 Z M 489.50884 70.24134 C 500.722382 70.24134 506.461966 64.361132 506.461966 56.361131 C 506.461966 48.538214 500.722382 42.658006 489.50884 42.658006 C 478.472381 42.658006 472.863006 48.538214 472.863006 56.361131 C 472.863006 64.361132 478.472381 70.24134 489.50884 70.24134 Z M 489.951548 151.548636 C 493.441132 151.548636 500.034882 151.408011 504.071341 151.001761 C 506.050507 150.725719 507.727591 149.053844 507.727591 146.934052 C 507.727591 119.626759 506.326549 96.111133 504.925507 78.475716 C 504.784882 76.527799 503.383841 75.126757 501.269257 74.850716 C 498.191132 74.408007 492.618215 74.27259 489.816132 74.27259 C 486.435923 74.27259 481.274465 74.408007 477.753631 74.850716 C 475.805714 75.126757 474.269256 76.527799 474.128631 78.475716 C 472.727589 96.111133 471.326547 119.626759 471.326547 146.934052 C 471.326547 149.053844 473.003631 150.725719 475.123423 151.001761 C 479.290089 151.408011 486.435923 151.548636 489.951548 151.548636 Z M 555.73801 152.126761 C 564.420302 152.126761 572.248427 150.861136 579.389053 148.913219 C 581.066136 148.199678 582.467178 146.387177 582.467178 143.855927 C 582.602595 139.241344 582.738011 130.152802 582.602595 124.954885 C 582.467178 121.605926 579.800511 120.480926 577.717178 122.017385 C 575.321344 123.28301 570.711969 124.548635 567.769261 124.548635 C 561.89426 124.548635 557.415093 121.746551 557.139052 116.137176 C 556.868218 111.798634 556.868218 106.772592 557.279677 101.850717 C 557.55051 99.49655 559.086968 97.954883 562.029677 97.954883 C 566.368219 97.954883 573.102594 98.230925 577.441136 98.501758 C 579.529678 98.7778 581.33697 96.694467 581.33697 94.439258 L 581.33697 78.751757 C 581.33697 76.527799 579.529678 74.715299 577.441136 74.715299 C 571.972386 74.715299 565.55051 74.991341 560.08176 74.991341 C 558.951552 74.991341 558.133843 73.861132 558.133843 72.189257 C 558.133843 68.699674 558.816135 65.17884 559.534885 61.251757 C 559.805718 59.027798 557.961968 57.079881 555.73801 56.77259 C 551.810926 56.361131 544.258843 56.225715 540.769259 56.225715 C 537.389051 56.361131 532.227592 56.361131 528.842175 56.77259 C 526.894258 57.079881 525.3578 58.61634 525.081758 60.569465 C 524.675508 64.189257 524.363008 69.246549 524.227592 73.043424 C 524.092175 73.996549 523.409883 74.850716 522.279675 74.850716 L 515.409883 74.850716 C 513.326549 74.850716 511.790091 76.527799 511.649466 78.611132 C 511.649466 83.944466 511.514049 89.137175 511.649466 94.298633 C 511.790091 96.418425 513.326549 98.230925 515.409883 98.230925 C 517.394258 98.095508 519.342175 98.095508 521.154675 98.095508 C 522.279675 97.954883 523.269258 98.7778 523.133842 99.9028 C 522.008842 108.585092 522.008842 117.538218 522.008842 123.418426 C 522.008842 143.444469 536.566134 152.126761 555.73801 152.126761 Z M 607.519263 152.126761 C 617.602596 152.126761 626.691139 146.934052 631.34218 134.491344 C 632.43593 131.824677 634.415097 132.371552 634.279681 135.173635 C 633.972389 138.116344 633.425514 142.730927 633.014055 145.392386 C 632.43593 148.470511 634.691139 150.590303 638.175514 151.001761 C 642.107806 151.408011 647.84739 151.548636 651.644265 151.548636 C 655.540098 151.548636 661.555724 151.408011 665.076557 151.001761 C 667.295307 150.590303 668.696349 149.053844 668.696349 146.658011 C 668.284891 132.512177 666.883849 113.064259 665.618224 101.303842 C 663.946349 85.345508 654.40989 73.725715 625.87343 73.725715 C 610.185929 73.725715 599.284887 75.980924 593.951554 77.793424 C 592.27447 78.475716 591.420303 80.152799 591.284887 82.267383 C 590.873428 88.147591 590.467178 95.699675 590.602595 101.579884 C 590.602595 105.37155 593.540095 106.913217 595.89947 104.381967 C 603.894262 98.913217 615.378638 95.699675 622.659888 95.699675 C 630.62343 95.699675 633.425514 98.230925 633.425514 100.897592 C 633.425514 104.658009 628.81093 105.647592 619.993221 106.772592 C 601.092179 108.996551 585.404678 116.413218 585.404678 130.97051 C 585.404678 145.668427 593.269262 152.126761 607.519263 152.126761 Z M 624.743222 128.168427 C 620.269263 128.168427 618.321346 126.355926 618.321346 122.152801 C 618.321346 116.548634 623.618222 112.517384 628.81093 112.517384 C 632.159889 112.517384 633.836972 114.876759 633.836972 117.949676 C 633.836972 124.40801 628.264055 128.168427 624.743222 128.168427 Z M 692.514058 151.548636 C 696.409892 151.548636 704.133851 151.548636 707.889059 151.137178 C 710.008851 150.861136 712.097393 149.053844 711.685934 146.387177 C 710.555726 139.517385 709.566143 131.111135 709.566143 122.428843 C 709.566143 111.798634 717.70156 105.100717 725.665102 105.100717 C 732.258852 105.100717 736.873436 107.595509 741.211978 111.527801 C 743.159894 114.053842 746.680728 112.788217 746.95677 109.408009 C 747.67552 100.897592 748.357811 92.350716 748.904686 83.668424 C 748.904686 81.689258 748.357811 80.012174 746.821353 78.611132 C 743.607811 75.673632 738.993227 73.861132 733.248436 73.861132 C 722.586977 73.861132 715.613018 82.131966 712.097393 97.647592 C 711.409893 100.314258 709.290101 100.178842 709.290101 97.100717 C 709.290101 91.225716 709.873434 85.892383 711.102601 79.465299 C 711.685934 77.210091 710.149476 75.126757 707.482809 74.850716 C 704.404684 74.408007 696.13385 74.27259 693.060934 74.27259 C 689.847392 74.27259 683.831766 74.27259 680.175516 74.850716 C 678.227599 75.126757 676.685933 76.527799 676.550516 78.475716 C 674.706766 97.819467 673.748433 116.991343 673.613016 146.934052 C 673.613016 149.189261 675.284891 150.725719 677.232808 151.001761 C 681.576558 151.272594 688.993225 151.548636 692.514058 151.548636 Z M 809.097398 151.548636 C 813.43594 151.548636 821.706773 151.408011 825.909899 151.001761 C 827.857815 150.725719 829.670315 149.189261 829.534899 146.934052 C 829.12344 142.184052 829.258857 136.574677 829.84219 132.647593 C 830.659899 127.756968 835.139066 125.673635 840.060941 125.538218 L 845.357816 125.538218 C 850.415108 125.673635 854.894275 127.486135 855.711983 132.647593 C 856.1599 136.715302 856.295317 142.319469 856.019275 146.798636 C 855.711983 149.189261 857.560942 150.725719 859.508859 151.001761 C 863.576567 151.408011 871.399484 151.548636 875.055734 151.548636 C 878.816151 151.548636 887.086985 151.408011 891.154693 151.001761 C 893.514069 150.861136 895.050527 149.053844 894.503652 146.658011 C 888.764068 112.928842 876.290109 76.116341 866.514067 55.371548 C 865.930734 53.970506 864.670317 53.288214 863.12865 53.012173 C 857.696358 52.434048 847.748441 52.434048 842.555733 52.434048 C 837.258857 52.434048 827.586982 52.434048 822.389065 53.012173 C 820.852607 53.288214 819.62344 53.970506 819.040107 55.371548 C 809.232814 76.116341 796.654689 112.928842 790.915105 146.522594 C 790.331772 148.913219 791.904688 150.725719 794.39948 151.001761 C 798.191147 151.272594 805.201564 151.548636 809.097398 151.548636 Z M 841.461983 111.934051 C 837.123441 111.798634 834.863024 109.715301 835.857816 106.194467 C 836.816149 99.355925 838.659899 90.678841 840.331774 83.668424 C 841.732816 79.194466 843.685941 79.194466 844.946358 83.668424 C 846.758858 90.678841 848.743233 99.355925 849.560941 106.194467 C 850.550525 109.715301 848.435941 111.798634 844.092191 111.934051 Z M 940.425529 184.324679 C 971.769281 184.324679 991.076573 173.522595 991.076573 146.522594 C 991.076573 121.335093 989.982823 94.881967 988.139073 78.611132 C 987.863032 76.663216 986.602615 75.126757 984.514073 74.850716 C 981.441156 74.579882 974.706781 74.27259 971.222406 74.27259 C 967.701572 74.27259 962.128655 74.27259 958.201572 74.850716 C 955.941155 75.262174 953.993238 76.939257 954.540113 79.194466 C 955.39428 82.954883 955.670322 86.027799 955.941155 90.814258 C 956.08178 93.616341 953.993238 94.0278 952.868238 91.49655 C 948.389071 80.319466 939.024488 73.725715 927.816154 73.725715 C 910.180736 73.725715 898.014069 86.746549 898.014069 111.663217 C 898.014069 135.585094 910.045319 150.006969 928.227612 150.006969 C 939.300529 150.006969 948.389071 144.574677 952.868238 133.090302 C 954.133863 130.017385 956.217197 130.423635 956.217197 133.225718 L 956.217197 137.704885 C 956.217197 149.600719 944.321363 157.730928 930.48282 157.730928 C 921.38907 157.730928 912.128653 155.204886 905.566153 151.855928 C 903.175527 150.147594 900.644277 151.684053 900.373444 154.621553 C 900.097402 161.220512 899.550527 171.16322 899.378652 176.324679 C 899.243236 178.309054 900.508861 180.121554 902.352611 180.668429 C 911.305736 183.059054 930.342195 184.324679 940.425529 184.324679 Z M 944.321363 125.809051 C 937.623446 125.809051 933.008862 120.480926 933.008862 112.210092 C 933.008862 104.381967 937.488029 99.355925 944.321363 99.355925 C 951.191155 99.355925 955.670322 104.381967 955.670322 112.210092 C 955.670322 120.480926 951.055738 125.809051 944.321363 125.809051 Z M 1040.222409 152.126761 C 1051.430743 152.126761 1065.274494 150.590303 1073.133869 145.975719 C 1074.670328 144.845511 1075.493244 143.309052 1075.352619 141.189261 C 1075.081786 136.303844 1074.363036 128.475718 1073.816161 123.553843 C 1073.404703 119.486134 1070.331786 118.533009 1068.211994 121.027801 C 1061.206785 127.210093 1053.925535 129.710093 1044.149493 129.710093 C 1035.472409 129.710093 1025.93595 125.538218 1022.857825 118.803843 C 1021.321367 116.277801 1022.993242 114.736134 1025.253659 116.413218 C 1030.857826 120.069468 1037.279701 121.746551 1044.014076 121.746551 C 1058.711994 121.746551 1072.415119 112.928842 1072.415119 100.314258 C 1072.415119 82.543424 1058.711994 73.725715 1036.597409 73.725715 C 1012.0922 73.725715 995.139074 87.600716 995.139074 111.934051 C 995.139074 137.840302 1012.503658 152.126761 1040.222409 152.126761 Z M 1035.878659 110.668426 C 1031.264076 110.668426 1024.394284 108.585092 1024.394284 104.24655 C 1024.394284 98.913217 1029.5922 95.1528 1035.060951 95.1528 C 1041.347409 95.1528 1043.878659 98.366342 1043.878659 103.256967 C 1043.878659 108.038217 1040.628659 110.668426 1035.878659 110.668426 Z M 1099.019287 151.548636 C 1102.951579 151.548636 1109.373454 151.408011 1113.17033 151.001761 C 1115.253663 150.725719 1117.066163 149.189261 1116.790121 146.798636 C 1116.10783 137.840302 1115.665121 128.616343 1115.529705 121.027801 C 1115.529705 111.663217 1120.003663 103.699675 1127.284914 103.699675 C 1134.425539 103.699675 1138.769289 111.527801 1138.904706 120.892385 C 1138.904706 127.756968 1138.081789 137.434052 1137.227623 146.658011 C 1137.092206 149.053844 1138.904706 150.725719 1141.024498 151.001761 C 1145.909915 151.408011 1151.378665 151.548636 1155.857832 151.548636 C 1160.196374 151.548636 1165.357832 151.408011 1170.003666 151.001761 C 1172.092208 150.725719 1173.493249 149.460094 1173.628666 147.204886 C 1173.764083 136.168427 1173.352624 119.934051 1172.639083 111.934051 C 1170.826583 88.970508 1161.326582 73.861132 1143.51929 73.861132 C 1132.342206 73.861132 1123.38908 80.730924 1118.602622 94.439258 C 1117.644288 96.9653 1115.529705 96.829883 1115.529705 93.892383 C 1115.665121 89.413216 1116.383871 86.475716 1118.331788 79.605924 C 1119.04533 77.381966 1117.066163 74.991341 1114.842205 74.850716 C 1110.503663 74.408007 1104.352621 74.27259 1100.831787 74.27259 C 1097.206787 74.27259 1090.47762 74.408007 1086.988037 74.850716 C 1084.868245 75.126757 1083.607828 76.939257 1083.19637 79.059049 C 1081.113036 95.428842 1079.982828 113.918426 1079.982828 146.798636 C 1079.847411 149.053844 1081.519286 150.725719 1083.607828 151.001761 C 1087.94637 151.408011 1094.951579 151.548636 1099.019287 151.548636 Z M 1207.790126 152.126761 C 1219.139085 152.126761 1227.649502 145.975719 1232.430752 136.027802 C 1233.972419 133.090302 1236.055752 133.50176 1235.779711 136.850719 C 1235.644294 139.928844 1235.232836 143.444469 1234.654711 146.658011 C 1234.243252 149.053844 1236.055752 150.725719 1238.310961 151.001761 C 1242.071378 151.408011 1248.665128 151.548636 1252.290128 151.548636 C 1255.946378 151.548636 1263.363046 151.408011 1267.701587 151.001761 C 1269.790129 150.725719 1271.326588 149.053844 1271.326588 146.798636 C 1271.326588 113.746551 1269.790129 75.262174 1268.113046 54.96009 C 1267.977629 52.876756 1266.441171 51.475714 1264.493254 51.204881 C 1260.696379 50.621548 1254.680753 50.621548 1251.024503 50.621548 C 1247.540128 50.621548 1239.988044 50.621548 1235.920336 51.033006 C 1233.696377 51.475714 1231.717211 53.288214 1232.123461 55.543423 C 1233.831794 65.043423 1235.644294 78.751757 1236.055752 89.960091 C 1236.191169 93.751758 1233.972419 93.616341 1232.430752 90.949675 C 1227.102627 79.605924 1219.821377 73.861132 1207.654709 73.861132 C 1189.435958 73.861132 1177.68075 89.2778 1177.68075 114.600718 C 1177.68075 139.517385 1189.883875 152.126761 1207.790126 152.126761 Z M 1224.300544 126.22051 C 1217.430752 126.22051 1212.816168 121.335093 1212.816168 113.335092 C 1212.816168 105.37155 1217.290127 99.9028 1224.300544 99.9028 C 1231.029711 99.9028 1235.644294 105.37155 1235.644294 113.335092 C 1235.644294 121.335093 1230.894294 126.22051 1224.300544 126.22051 Z M 1297.920339 152.126761 C 1308.003673 152.126761 1317.097423 146.934052 1321.743257 134.491344 C 1322.837007 131.824677 1324.821382 132.371552 1324.680757 135.173635 C 1324.373465 138.116344 1323.82659 142.730927 1323.42034 145.392386 C 1322.837007 148.470511 1325.092215 150.590303 1328.581799 151.001761 C 1332.508882 151.408011 1338.253674 151.548636 1342.045341 151.548636 C 1345.941175 151.548636 1351.9568 151.408011 1355.477633 151.001761 C 1357.696384 150.590303 1359.097425 149.053844 1359.097425 146.658011 C 1358.691175 132.512177 1357.290134 113.064259 1356.024509 101.303842 C 1354.347425 85.345508 1344.816175 73.725715 1316.274507 73.725715 C 1300.587006 73.725715 1289.685964 75.980924 1284.35263 77.793424 C 1282.680755 78.475716 1281.826588 80.152799 1281.685963 82.267383 C 1281.279713 88.147591 1280.868255 95.699675 1281.003671 101.579884 C 1281.003671 105.37155 1283.94638 106.913217 1286.300547 104.381967 C 1294.300547 98.913217 1305.784923 95.699675 1313.060965 95.699675 C 1321.024507 95.699675 1323.82659 98.230925 1323.82659 100.897592 C 1323.82659 104.658009 1319.217215 105.647592 1310.399506 106.772592 C 1291.498464 108.996551 1275.810963 116.413218 1275.810963 130.97051 C 1275.810963 145.668427 1283.670338 152.126761 1297.920339 152.126761 Z M 1315.149506 128.168427 C 1310.67034 128.168427 1308.722423 126.355926 1308.722423 122.152801 C 1308.722423 116.548634 1314.019298 112.517384 1319.217215 112.517384 C 1322.566174 112.517384 1324.238049 114.876759 1324.238049 117.949676 C 1324.238049 124.40801 1318.67034 128.168427 1315.149506 128.168427 Z M 1381.238051 151.548636 C 1384.58701 151.548636 1392.415135 151.408011 1396.482844 151.001761 C 1398.566177 150.725719 1400.550552 149.053844 1400.274511 146.658011 C 1399.696386 139.381969 1398.873469 129.87676 1399.014094 122.736135 C 1399.149511 114.053842 1401.675552 107.460092 1405.712011 107.460092 C 1410.493261 107.460092 1413.300553 113.611134 1413.571386 122.736135 C 1413.706803 129.022593 1413.128678 139.241344 1412.71722 146.522594 C 1412.581803 149.053844 1414.389095 150.725719 1416.649512 151.001761 C 1420.852637 151.408011 1428.128679 151.548636 1431.889096 151.548636 C 1435.274513 151.548636 1441.701596 151.548636 1445.62868 151.001761 C 1447.852638 150.590303 1449.831805 149.053844 1449.524513 146.522594 C 1448.842222 137.980927 1447.988055 128.887177 1447.988055 122.293426 C 1447.988055 113.475717 1450.925555 107.460092 1454.857847 107.460092 C 1459.47243 107.460092 1462.274514 113.199676 1462.545347 123.006968 C 1462.685972 128.887177 1462.274514 139.381969 1461.863056 146.522594 C 1461.592222 149.053844 1463.264097 150.590303 1465.623472 151.001761 C 1469.691181 151.548636 1477.243265 151.548636 1480.764098 151.548636 C 1484.113057 151.548636 1490.57139 151.548636 1494.467224 151.001761 C 1496.722432 150.590303 1498.534932 149.053844 1498.399516 146.522594 C 1497.545349 129.434052 1497.133891 117.678843 1495.185974 104.24655 C 1492.113057 81.996549 1482.029723 74.27259 1470.102639 74.27259 C 1459.337014 74.27259 1451.06618 83.397591 1448.123471 95.699675 C 1447.165138 99.355925 1445.050555 99.49655 1444.227638 95.699675 C 1440.300554 79.465299 1433.019304 74.27259 1422.93597 74.27259 C 1412.988053 74.27259 1405.300553 83.397591 1401.675552 96.111133 C 1400.685969 99.631967 1398.738052 98.913217 1398.738052 95.699675 C 1398.873469 92.2153 1400.107844 84.355924 1401.097427 79.329882 C 1401.675552 76.939257 1399.831802 75.262174 1397.472427 74.850716 C 1393.68076 74.408007 1385.988052 74.27259 1382.472427 74.27259 C 1378.982843 74.27259 1374.097426 74.27259 1370.576593 74.850716 C 1368.493259 75.262174 1367.092217 76.527799 1366.816176 78.611132 C 1365.107842 96.24655 1364.014092 119.215301 1364.014092 146.798636 C 1364.014092 149.053844 1365.550551 150.725719 1367.639092 151.001761 C 1371.430759 151.408011 1378.128676 151.548636 1381.238051 151.548636 Z M 1547.524518 152.126761 C 1558.732852 152.126761 1572.576603 150.590303 1580.435978 145.975719 C 1581.972437 144.845511 1582.795353 143.309052 1582.659937 141.189261 C 1582.383895 136.303844 1581.665145 128.475718 1581.11827 123.553843 C 1580.71202 119.486134 1577.633895 118.533009 1575.514103 121.027801 C 1568.508894 127.210093 1561.227644 129.710093 1551.45681 129.710093 C 1542.774518 129.710093 1533.238059 125.538218 1530.159934 118.803843 C 1528.623476 116.277801 1530.300559 114.736134 1532.555767 116.413218 C 1538.159934 120.069468 1544.587018 121.746551 1551.316185 121.746551 C 1566.014102 121.746551 1579.717228 112.928842 1579.717228 100.314258 C 1579.717228 82.543424 1566.014102 73.725715 1543.899518 73.725715 C 1519.394308 73.725715 1502.446391 87.600716 1502.446391 111.934051 C 1502.446391 137.840302 1519.805767 152.126761 1547.524518 152.126761 Z M 1543.185976 110.668426 C 1538.571393 110.668426 1531.701601 108.585092 1531.701601 104.24655 C 1531.701601 98.913217 1536.894309 95.1528 1542.36306 95.1528 C 1548.649518 95.1528 1551.180768 98.366342 1551.180768 103.256967 C 1551.180768 108.038217 1547.935977 110.668426 1543.185976 110.668426 Z M 1606.321396 151.548636 C 1610.253688 151.548636 1616.680772 151.408011 1620.472438 151.001761 C 1622.555772 150.725719 1624.368272 149.189261 1624.097439 146.798636 C 1623.409939 137.840302 1622.96723 128.616343 1622.831814 121.027801 C 1622.831814 111.663217 1627.305772 103.699675 1634.587023 103.699675 C 1641.732856 103.699675 1646.071398 111.527801 1646.206815 120.892385 C 1646.206815 127.756968 1645.389106 137.434052 1644.53494 146.658011 C 1644.394315 149.053844 1646.206815 150.725719 1648.326607 151.001761 C 1653.212023 151.408011 1658.680774 151.548636 1663.159941 151.548636 C 1667.498483 151.548636 1672.659941 151.408011 1677.310983 151.001761 C 1679.394316 150.725719 1680.795358 149.460094 1680.930775 147.204886 C 1681.066192 136.168427 1680.659942 119.934051 1679.941191 111.934051 C 1678.128691 88.970508 1668.628691 73.861132 1650.821398 73.861132 C 1639.644314 73.861132 1630.691189 80.730924 1625.90473 94.439258 C 1624.951605 96.9653 1622.831814 96.829883 1622.831814 93.892383 C 1622.96723 89.413216 1623.68598 86.475716 1625.633897 79.605924 C 1626.352647 77.381966 1624.368272 74.991341 1622.144314 74.850716 C 1617.805772 74.408007 1611.65473 74.27259 1608.133896 74.27259 C 1604.508896 74.27259 1597.779729 74.408007 1594.290146 74.850716 C 1592.175562 75.126757 1590.909937 76.939257 1590.498479 79.059049 C 1588.415145 95.428842 1587.284937 113.918426 1587.284937 146.798636 C 1587.14952 149.053844 1588.826604 150.725719 1590.909937 151.001761 C 1595.248479 151.408011 1602.253688 151.548636 1606.321396 151.548636 Z M 1728.389111 152.126761 C 1737.071403 152.126761 1744.89432 150.861136 1752.040153 148.913219 C 1753.712029 148.199678 1755.11307 146.387177 1755.11307 143.855927 C 1755.253695 139.241344 1755.389112 130.152802 1755.253695 124.954885 C 1755.11307 121.605926 1752.451612 120.480926 1750.36307 122.017385 C 1747.972445 123.28301 1743.357861 124.548635 1740.420361 124.548635 C 1734.540153 124.548635 1730.066194 121.746551 1729.790152 116.137176 C 1729.519319 111.798634 1729.519319 106.772592 1729.925569 101.850717 C 1730.201611 99.49655 1731.738069 97.954883 1734.675569 97.954883 C 1739.019319 97.954883 1745.748486 98.230925 1750.092237 98.501758 C 1752.17557 98.7778 1753.98807 96.694467 1753.98807 94.439258 L 1753.98807 78.751757 C 1753.98807 76.527799 1752.17557 74.715299 1750.092237 74.715299 C 1744.623486 74.715299 1738.196403 74.991341 1732.727652 74.991341 C 1731.602652 74.991341 1730.779736 73.861132 1730.779736 72.189257 C 1730.779736 68.699674 1731.467236 65.17884 1732.180777 61.251757 C 1732.456819 59.027798 1730.613069 57.079881 1728.389111 56.77259 C 1724.456819 56.361131 1716.904735 56.225715 1713.42036 56.225715 C 1710.034943 56.361131 1704.873484 56.361131 1701.493276 56.77259 C 1699.545359 57.079881 1698.003692 58.61634 1697.732859 60.569465 C 1697.321401 64.189257 1697.014109 69.246549 1696.878692 73.043424 C 1696.743276 73.996549 1696.055776 74.850716 1694.930776 74.850716 L 1688.060984 74.850716 C 1685.972442 74.850716 1684.435983 76.527799 1684.300567 78.611132 C 1684.300567 83.944466 1684.16515 89.137175 1684.300567 94.298633 C 1684.435983 96.418425 1685.972442 98.230925 1688.060984 98.230925 C 1690.04015 98.095508 1691.988067 98.095508 1693.800567 98.095508 C 1694.930776 97.954883 1695.920359 98.7778 1695.784942 99.9028 C 1694.654734 108.585092 1694.654734 117.538218 1694.654734 123.418426 C 1694.654734 143.444469 1709.217235 152.126761 1728.389111 152.126761 Z M 1801.326614 152.126761 C 1826.514116 152.126761 1844.420366 141.908011 1844.420366 115.012176 C 1844.420366 89.68405 1826.649532 73.725715 1801.326614 73.725715 C 1775.967238 73.725715 1758.055779 89.68405 1758.055779 115.012176 C 1758.055779 141.908011 1776.133905 152.126761 1801.326614 152.126761 Z M 1801.326614 127.621552 C 1794.456822 127.621552 1789.566197 122.017385 1789.566197 113.064259 C 1789.566197 104.381967 1794.316197 98.095508 1801.326614 98.095508 C 1808.331823 98.095508 1813.081823 104.381967 1813.081823 113.064259 C 1813.081823 122.017385 1808.191198 127.621552 1801.326614 127.621552 Z M 1801.326614 127.621552 " stroke="#7ed957" stroke-width="10.4997" stroke-opacity="1" stroke-miterlimit="4"/><g fill="#5019dd" fill-opacity="1"><g transform="translate(129.907444, 436.592429)"><g><path d="M 34.328125 0.421875 C 44.09375 0.421875 61.84375 0.421875 68.875 0 C 70.5625 -0.109375 71.609375 -1.359375 71.609375 -2.9375 C 71.40625 -9.65625 70.765625 -21.53125 69.9375 -28.34375 C 69.609375 -31.296875 66.359375 -31.703125 65 -29.5 C 59.53125 -21.3125 53.96875 -18.484375 43.046875 -18.484375 C 34.546875 -18.484375 29.078125 -21.109375 29.078125 -26.5625 L 29.078125 -28.25 C 29.078125 -32.96875 32.96875 -34.75 39.796875 -34.859375 C 44.734375 -34.96875 49.140625 -34.015625 54.078125 -31.609375 C 55.65625 -30.453125 57.4375 -31.296875 57.4375 -33.390625 L 57.546875 -41.890625 C 57.546875 -43.578125 56.0625 -44.828125 54.28125 -44.625 C 49.140625 -44.421875 44.421875 -44 39.578125 -44 C 32.4375 -44 29.078125 -45.671875 29.078125 -48.828125 L 29.078125 -49.34375 C 29.078125 -52.8125 32.65625 -55.234375 39.578125 -55.234375 C 48.296875 -55.234375 55.234375 -52.921875 61 -48.40625 C 63.109375 -46.40625 65.515625 -47.25 65.515625 -49.984375 C 65.421875 -55.234375 65.09375 -65.3125 64.78125 -70.671875 C 64.578125 -72.34375 63.53125 -73.390625 61.84375 -73.5 C 55.859375 -73.8125 44.515625 -73.921875 34.65625 -73.921875 C 27.40625 -73.921875 12.8125 -73.8125 7.875 -73.5 C 6.296875 -73.390625 5.046875 -72.453125 4.828125 -70.875 C 3.359375 -54.59375 2.3125 -26.78125 2.09375 -3.046875 C 2.09375 -1.359375 3.46875 -0.109375 5.140625 0 C 10.8125 0.421875 26.78125 0.421875 34.328125 0.421875 Z M 34.328125 0.421875 "/></g></g></g><g fill="#5019dd" fill-opacity="1"><g transform="translate(203.294247, 436.592429)"><g><path d="M 23.828125 0.84375 C 32.34375 0.84375 38.75 -3.78125 42.3125 -11.234375 C 43.46875 -13.4375 45.046875 -13.125 44.828125 -10.609375 C 44.734375 -8.296875 44.421875 -5.671875 44 -3.25 C 43.6875 -1.46875 45.046875 -0.203125 46.71875 0 C 49.5625 0.3125 54.5 0.421875 57.21875 0.421875 C 59.953125 0.421875 65.515625 0.3125 68.78125 0 C 70.34375 -0.203125 71.5 -1.46875 71.5 -3.15625 C 71.5 -27.9375 70.34375 -56.8125 69.09375 -72.03125 C 68.984375 -73.609375 67.828125 -74.65625 66.359375 -74.859375 C 63.53125 -75.28125 59.015625 -75.28125 56.28125 -75.28125 C 53.65625 -75.28125 47.984375 -75.28125 44.9375 -74.96875 C 43.265625 -74.65625 41.796875 -73.296875 42.109375 -71.609375 C 43.359375 -64.46875 44.734375 -54.1875 45.046875 -45.78125 C 45.15625 -42.9375 43.46875 -43.046875 42.3125 -45.046875 C 38.328125 -53.546875 32.859375 -57.859375 23.734375 -57.859375 C 10.078125 -57.859375 1.265625 -46.3125 1.265625 -27.296875 C 1.265625 -8.609375 10.390625 0.84375 23.828125 0.84375 Z M 36.21875 -18.578125 C 31.078125 -18.578125 27.609375 -22.265625 27.609375 -28.25 C 27.609375 -34.234375 30.96875 -38.328125 36.21875 -38.328125 C 41.265625 -38.328125 44.734375 -34.234375 44.734375 -28.25 C 44.734375 -22.265625 41.15625 -18.578125 36.21875 -18.578125 Z M 36.21875 -18.578125 "/></g></g></g><g fill="#5019dd" fill-opacity="1"><g transform="translate(276.891026, 436.592429)"><g><path d="M 15.75 -60.578125 C 24.15625 -60.578125 28.453125 -65 28.453125 -70.984375 C 28.453125 -76.859375 24.15625 -81.265625 15.75 -81.265625 C 7.453125 -81.265625 3.25 -76.859375 3.25 -70.984375 C 3.25 -65 7.453125 -60.578125 15.75 -60.578125 Z M 16.0625 0.421875 C 18.6875 0.421875 23.625 0.3125 26.671875 0 C 28.140625 -0.203125 29.40625 -1.46875 29.40625 -3.046875 C 29.40625 -23.515625 28.34375 -41.15625 27.296875 -54.390625 C 27.1875 -55.859375 26.140625 -56.90625 24.5625 -57.125 C 22.265625 -57.4375 18.0625 -57.546875 15.953125 -57.546875 C 13.4375 -57.546875 9.5625 -57.4375 6.9375 -57.125 C 5.453125 -56.90625 4.3125 -55.859375 4.203125 -54.390625 C 3.15625 -41.15625 2.09375 -23.515625 2.09375 -3.046875 C 2.09375 -1.46875 3.359375 -0.203125 4.9375 0 C 8.078125 0.3125 13.4375 0.421875 16.0625 0.421875 Z M 16.0625 0.421875 "/></g></g></g><g fill="#5019dd" fill-opacity="1"><g transform="translate(308.4925, 436.592429)"><g><path d="M 33.8125 0.84375 C 40.3125 0.84375 46.203125 -0.109375 51.5625 -1.578125 C 52.8125 -2.09375 53.859375 -3.46875 53.859375 -5.359375 C 53.96875 -8.8125 54.078125 -15.640625 53.96875 -19.53125 C 53.859375 -22.046875 51.875 -22.890625 50.296875 -21.734375 C 48.515625 -20.796875 45.046875 -19.84375 42.84375 -19.84375 C 38.4375 -19.84375 35.0625 -21.9375 34.859375 -26.140625 C 34.65625 -29.40625 34.65625 -33.1875 34.96875 -36.859375 C 35.171875 -38.640625 36.328125 -39.796875 38.53125 -39.796875 C 41.796875 -39.796875 46.828125 -39.578125 50.078125 -39.375 C 51.65625 -39.171875 53.03125 -40.734375 53.03125 -42.421875 L 53.03125 -54.1875 C 53.03125 -55.859375 51.65625 -57.21875 50.078125 -57.21875 C 45.984375 -57.21875 41.15625 -57.015625 37.0625 -57.015625 C 36.21875 -57.015625 35.59375 -57.859375 35.59375 -59.109375 C 35.59375 -61.734375 36.125 -64.359375 36.640625 -67.3125 C 36.859375 -68.984375 35.484375 -70.453125 33.8125 -70.671875 C 30.875 -70.984375 25.203125 -71.078125 22.578125 -71.078125 C 20.0625 -70.984375 16.171875 -70.984375 13.65625 -70.671875 C 12.1875 -70.453125 11.03125 -69.296875 10.8125 -67.828125 C 10.5 -65.09375 10.296875 -61.3125 10.1875 -58.484375 C 10.078125 -57.75 9.5625 -57.125 8.71875 -57.125 L 3.5625 -57.125 C 2 -57.125 0.84375 -55.859375 0.734375 -54.28125 C 0.734375 -50.296875 0.625 -46.40625 0.734375 -42.53125 C 0.84375 -40.953125 2 -39.578125 3.5625 -39.578125 C 5.046875 -39.6875 6.515625 -39.6875 7.875 -39.6875 C 8.71875 -39.796875 9.453125 -39.171875 9.34375 -38.328125 C 8.5 -31.8125 8.5 -25.09375 8.5 -20.6875 C 8.5 -5.671875 19.421875 0.84375 33.8125 0.84375 Z M 33.8125 0.84375 "/></g></g></g><g fill="#5019dd" fill-opacity="1"><g transform="translate(363.296364, 436.592429)"><g><path d="M 17.84375 0.84375 C 25.40625 0.84375 32.234375 -3.046875 35.703125 -12.390625 C 36.546875 -14.390625 38.015625 -13.96875 37.90625 -11.859375 C 37.6875 -9.65625 37.28125 -6.1875 36.953125 -4.203125 C 36.546875 -1.890625 38.21875 -0.3125 40.84375 0 C 43.78125 0.3125 48.09375 0.421875 50.921875 0.421875 C 53.859375 0.421875 58.375 0.3125 61 0 C 62.6875 -0.3125 63.734375 -1.46875 63.734375 -3.25 C 63.421875 -13.859375 62.375 -28.453125 61.421875 -37.28125 C 60.171875 -49.25 53.03125 -57.953125 31.609375 -57.953125 C 19.84375 -57.953125 11.65625 -56.28125 7.671875 -54.921875 C 6.40625 -54.390625 5.78125 -53.125 5.671875 -51.5625 C 5.359375 -47.140625 5.046875 -41.46875 5.140625 -37.0625 C 5.140625 -34.234375 7.34375 -33.078125 9.140625 -34.96875 C 15.125 -39.0625 23.734375 -41.46875 29.1875 -41.46875 C 35.171875 -41.46875 37.28125 -39.578125 37.28125 -37.59375 C 37.28125 -34.75 33.8125 -34.015625 27.1875 -33.1875 C 13.015625 -31.5 1.265625 -25.9375 1.265625 -15.015625 C 1.265625 -3.984375 7.140625 0.84375 17.84375 0.84375 Z M 30.765625 -17.109375 C 27.40625 -17.109375 25.9375 -18.484375 25.9375 -21.625 C 25.9375 -25.828125 29.921875 -28.875 33.8125 -28.875 C 36.328125 -28.875 37.59375 -27.09375 37.59375 -24.78125 C 37.59375 -19.953125 33.390625 -17.109375 30.765625 -17.109375 Z M 30.765625 -17.109375 "/></g></g></g><g fill="#5019dd" fill-opacity="1"><g transform="translate(428.809048, 436.592429)"><g><path d="M 16.0625 0.421875 C 19 0.421875 24.78125 0.421875 27.609375 0.109375 C 29.1875 -0.109375 30.765625 -1.46875 30.453125 -3.46875 C 29.609375 -8.609375 28.875 -14.90625 28.875 -21.421875 C 28.875 -29.40625 34.96875 -34.4375 40.953125 -34.4375 C 45.890625 -34.4375 49.34375 -32.546875 52.609375 -29.609375 C 54.078125 -27.71875 56.703125 -28.671875 56.90625 -31.1875 C 57.4375 -37.59375 57.953125 -44 58.375 -50.5 C 58.375 -51.96875 57.953125 -53.234375 56.8125 -54.28125 C 54.390625 -56.484375 50.921875 -57.859375 46.625 -57.859375 C 38.640625 -57.859375 33.390625 -51.65625 30.765625 -40 C 30.234375 -38.015625 28.671875 -38.109375 28.671875 -40.421875 C 28.671875 -44.828125 29.078125 -48.828125 30.03125 -53.65625 C 30.453125 -55.328125 29.296875 -56.90625 27.296875 -57.125 C 24.984375 -57.4375 18.796875 -57.546875 16.484375 -57.546875 C 14.0625 -57.546875 9.5625 -57.546875 6.828125 -57.125 C 5.359375 -56.90625 4.203125 -55.859375 4.09375 -54.390625 C 2.734375 -39.90625 2 -25.515625 1.890625 -3.046875 C 1.890625 -1.359375 3.15625 -0.203125 4.625 0 C 7.875 0.203125 13.4375 0.421875 16.0625 0.421875 Z M 16.0625 0.421875 "/></g></g></g><g fill="#5019dd" fill-opacity="1"><g transform="translate(488.337388, 436.592429)"><g/></g></g><g fill="#5019dd" fill-opacity="1"><g transform="translate(517.7341, 436.592429)"><g><path d="M 14.59375 0.421875 C 17.84375 0.421875 24.046875 0.3125 27.1875 0 C 28.671875 -0.203125 30.03125 -1.359375 29.921875 -3.046875 C 29.609375 -6.609375 29.71875 -10.8125 30.140625 -13.75 C 30.765625 -17.4375 34.125 -19 37.796875 -19.109375 L 41.796875 -19.109375 C 45.5625 -19 48.9375 -17.640625 49.5625 -13.75 C 49.875 -10.703125 49.984375 -6.515625 49.765625 -3.15625 C 49.5625 -1.359375 50.921875 -0.203125 52.390625 0 C 55.4375 0.3125 61.3125 0.421875 64.046875 0.421875 C 66.890625 0.421875 73.078125 0.3125 76.125 0 C 77.90625 -0.109375 79.0625 -1.46875 78.640625 -3.25 C 74.34375 -28.5625 65 -56.171875 57.640625 -71.71875 C 57.21875 -72.765625 56.28125 -73.296875 55.125 -73.5 C 51.03125 -73.921875 43.578125 -73.921875 39.6875 -73.921875 C 35.703125 -73.921875 28.453125 -73.921875 24.5625 -73.5 C 23.421875 -73.296875 22.46875 -72.765625 22.046875 -71.71875 C 14.703125 -56.171875 5.25 -28.5625 0.9375 -3.359375 C 0.53125 -1.578125 1.6875 -0.203125 3.5625 0 C 6.40625 0.203125 11.65625 0.421875 14.59375 0.421875 Z M 38.84375 -29.296875 C 35.59375 -29.40625 33.921875 -30.96875 34.65625 -33.59375 C 35.390625 -38.75 36.75 -45.25 38.015625 -50.5 C 39.0625 -53.859375 40.53125 -53.859375 41.46875 -50.5 C 42.84375 -45.25 44.3125 -38.75 44.9375 -33.59375 C 45.671875 -30.96875 44.09375 -29.40625 40.84375 -29.296875 Z M 38.84375 -29.296875 "/></g></g></g><g fill="#5019dd" fill-opacity="1"><g transform="translate(597.315212, 436.592429)"><g><path d="M 33.5 24.984375 C 57.015625 24.984375 71.5 16.90625 71.5 -3.359375 C 71.5 -22.265625 70.671875 -42.109375 69.296875 -54.28125 C 69.09375 -55.75 68.140625 -56.90625 66.5625 -57.125 C 64.265625 -57.328125 59.21875 -57.546875 56.59375 -57.546875 C 53.96875 -57.546875 49.765625 -57.546875 46.828125 -57.125 C 45.15625 -56.8125 43.6875 -55.546875 44.09375 -53.859375 C 44.734375 -51.03125 44.9375 -48.71875 45.15625 -45.15625 C 45.25 -43.046875 43.6875 -42.734375 42.84375 -44.625 C 39.484375 -53.03125 32.4375 -57.953125 24.046875 -57.953125 C 10.8125 -57.953125 1.6875 -48.1875 1.6875 -29.5 C 1.6875 -11.546875 10.703125 -0.734375 24.359375 -0.734375 C 32.65625 -0.734375 39.484375 -4.828125 42.84375 -13.4375 C 43.78125 -15.75 45.359375 -15.4375 45.359375 -13.328125 L 45.359375 -9.96875 C 45.359375 -1.046875 36.4375 5.046875 26.046875 5.046875 C 19.21875 5.046875 12.28125 3.15625 7.34375 0.625 C 5.5625 -0.625 3.671875 0.53125 3.46875 2.734375 C 3.25 7.671875 2.828125 15.125 2.734375 19 C 2.625 20.46875 3.5625 21.84375 4.9375 22.265625 C 11.65625 24.046875 25.9375 24.984375 33.5 24.984375 Z M 36.4375 -18.90625 C 31.390625 -18.90625 27.9375 -22.890625 27.9375 -29.078125 C 27.9375 -34.96875 31.296875 -38.75 36.4375 -38.75 C 41.578125 -38.75 44.9375 -34.96875 44.9375 -29.078125 C 44.9375 -22.890625 41.46875 -18.90625 36.4375 -18.90625 Z M 36.4375 -18.90625 "/></g></g></g><g fill="#5019dd" fill-opacity="1"><g transform="translate(670.597038, 436.592429)"><g><path d="M 35.0625 0.84375 C 43.46875 0.84375 53.859375 -0.3125 59.75 -3.78125 C 60.90625 -4.625 61.53125 -5.78125 61.421875 -7.34375 C 61.21875 -11.03125 60.6875 -16.90625 60.265625 -20.578125 C 59.953125 -23.625 57.640625 -24.359375 56.0625 -22.46875 C 50.8125 -17.84375 45.359375 -15.953125 38.015625 -15.953125 C 31.5 -15.953125 24.359375 -19.109375 22.046875 -24.15625 C 20.890625 -26.046875 22.15625 -27.1875 23.828125 -25.9375 C 28.03125 -23.203125 32.859375 -21.9375 37.90625 -21.9375 C 48.9375 -21.9375 59.21875 -28.5625 59.21875 -38.015625 C 59.21875 -51.34375 48.9375 -57.953125 32.34375 -57.953125 C 13.96875 -57.953125 1.265625 -47.5625 1.265625 -29.296875 C 1.265625 -9.875 14.28125 0.84375 35.0625 0.84375 Z M 31.8125 -30.234375 C 28.34375 -30.234375 23.203125 -31.8125 23.203125 -35.0625 C 23.203125 -39.0625 27.09375 -41.890625 31.1875 -41.890625 C 35.90625 -41.890625 37.796875 -39.484375 37.796875 -35.8125 C 37.796875 -32.234375 35.390625 -30.234375 31.8125 -30.234375 Z M 31.8125 -30.234375 "/></g></g></g><g fill="#5019dd" fill-opacity="1"><g transform="translate(733.48502, 436.592429)"><g><path d="M 16.28125 0.421875 C 19.21875 0.421875 24.046875 0.3125 26.875 0 C 28.453125 -0.203125 29.8125 -1.359375 29.609375 -3.15625 C 29.078125 -9.875 28.765625 -16.796875 28.671875 -22.46875 C 28.671875 -29.5 32.03125 -35.484375 37.484375 -35.484375 C 42.84375 -35.484375 46.09375 -29.609375 46.203125 -22.578125 C 46.203125 -17.4375 45.5625 -10.1875 44.9375 -3.25 C 44.828125 -1.46875 46.203125 -0.203125 47.78125 0 C 51.453125 0.3125 55.546875 0.421875 58.90625 0.421875 C 62.15625 0.421875 66.046875 0.3125 69.515625 0 C 71.078125 -0.203125 72.140625 -1.15625 72.234375 -2.828125 C 72.34375 -11.125 72.03125 -23.3125 71.5 -29.296875 C 70.140625 -46.515625 63 -57.859375 49.671875 -57.859375 C 41.265625 -57.859375 34.546875 -52.703125 30.96875 -42.421875 C 30.234375 -40.53125 28.671875 -40.640625 28.671875 -42.84375 C 28.765625 -46.203125 29.296875 -48.40625 30.765625 -53.546875 C 31.296875 -55.234375 29.8125 -57.015625 28.140625 -57.125 C 24.890625 -57.4375 20.265625 -57.546875 17.640625 -57.546875 C 14.90625 -57.546875 9.875 -57.4375 7.25 -57.125 C 5.671875 -56.90625 4.71875 -55.546875 4.40625 -53.96875 C 2.828125 -41.6875 2 -27.828125 2 -3.15625 C 1.890625 -1.46875 3.15625 -0.203125 4.71875 0 C 7.984375 0.3125 13.234375 0.421875 16.28125 0.421875 Z M 16.28125 0.421875 "/></g></g></g><g fill="#5019dd" fill-opacity="1"><g transform="translate(807.50174, 436.592429)"><g><path d="M 23.828125 0.84375 C 32.34375 0.84375 38.75 -3.78125 42.3125 -11.234375 C 43.46875 -13.4375 45.046875 -13.125 44.828125 -10.609375 C 44.734375 -8.296875 44.421875 -5.671875 44 -3.25 C 43.6875 -1.46875 45.046875 -0.203125 46.71875 0 C 49.5625 0.3125 54.5 0.421875 57.21875 0.421875 C 59.953125 0.421875 65.515625 0.3125 68.78125 0 C 70.34375 -0.203125 71.5 -1.46875 71.5 -3.15625 C 71.5 -27.9375 70.34375 -56.8125 69.09375 -72.03125 C 68.984375 -73.609375 67.828125 -74.65625 66.359375 -74.859375 C 63.53125 -75.28125 59.015625 -75.28125 56.28125 -75.28125 C 53.65625 -75.28125 47.984375 -75.28125 44.9375 -74.96875 C 43.265625 -74.65625 41.796875 -73.296875 42.109375 -71.609375 C 43.359375 -64.46875 44.734375 -54.1875 45.046875 -45.78125 C 45.15625 -42.9375 43.46875 -43.046875 42.3125 -45.046875 C 38.328125 -53.546875 32.859375 -57.859375 23.734375 -57.859375 C 10.078125 -57.859375 1.265625 -46.3125 1.265625 -27.296875 C 1.265625 -8.609375 10.390625 0.84375 23.828125 0.84375 Z M 36.21875 -18.578125 C 31.078125 -18.578125 27.609375 -22.265625 27.609375 -28.25 C 27.609375 -34.234375 30.96875 -38.328125 36.21875 -38.328125 C 41.265625 -38.328125 44.734375 -34.234375 44.734375 -28.25 C 44.734375 -22.265625 41.15625 -18.578125 36.21875 -18.578125 Z M 36.21875 -18.578125 "/></g></g></g><g fill="#5019dd" fill-opacity="1"><g transform="translate(881.098507, 436.592429)"><g><path d="M 17.84375 0.84375 C 25.40625 0.84375 32.234375 -3.046875 35.703125 -12.390625 C 36.546875 -14.390625 38.015625 -13.96875 37.90625 -11.859375 C 37.6875 -9.65625 37.28125 -6.1875 36.953125 -4.203125 C 36.546875 -1.890625 38.21875 -0.3125 40.84375 0 C 43.78125 0.3125 48.09375 0.421875 50.921875 0.421875 C 53.859375 0.421875 58.375 0.3125 61 0 C 62.6875 -0.3125 63.734375 -1.46875 63.734375 -3.25 C 63.421875 -13.859375 62.375 -28.453125 61.421875 -37.28125 C 60.171875 -49.25 53.03125 -57.953125 31.609375 -57.953125 C 19.84375 -57.953125 11.65625 -56.28125 7.671875 -54.921875 C 6.40625 -54.390625 5.78125 -53.125 5.671875 -51.5625 C 5.359375 -47.140625 5.046875 -41.46875 5.140625 -37.0625 C 5.140625 -34.234375 7.34375 -33.078125 9.140625 -34.96875 C 15.125 -39.0625 23.734375 -41.46875 29.1875 -41.46875 C 35.171875 -41.46875 37.28125 -39.578125 37.28125 -37.59375 C 37.28125 -34.75 33.8125 -34.015625 27.1875 -33.1875 C 13.015625 -31.5 1.265625 -25.9375 1.265625 -15.015625 C 1.265625 -3.984375 7.140625 0.84375 17.84375 0.84375 Z M 30.765625 -17.109375 C 27.40625 -17.109375 25.9375 -18.484375 25.9375 -21.625 C 25.9375 -25.828125 29.921875 -28.875 33.8125 -28.875 C 36.328125 -28.875 37.59375 -27.09375 37.59375 -24.78125 C 37.59375 -19.953125 33.390625 -17.109375 30.765625 -17.109375 Z M 30.765625 -17.109375 "/></g></g></g><g fill="#5019dd" fill-opacity="1"><g transform="translate(946.611169, 436.592429)"><g><path d="M 14.8125 0.421875 C 17.328125 0.421875 23.203125 0.3125 26.25 0 C 27.828125 -0.203125 29.296875 -1.46875 29.078125 -3.25 C 28.671875 -8.71875 28.03125 -15.859375 28.140625 -21.203125 C 28.25 -27.71875 30.140625 -32.65625 33.1875 -32.65625 C 36.75 -32.65625 38.84375 -28.03125 39.0625 -21.203125 C 39.171875 -16.484375 38.75 -8.8125 38.4375 -3.359375 C 38.328125 -1.46875 39.6875 -0.203125 41.375 0 C 44.515625 0.3125 49.984375 0.421875 52.8125 0.421875 C 55.328125 0.421875 60.171875 0.421875 63.109375 0 C 64.78125 -0.3125 66.25 -1.46875 66.046875 -3.359375 C 65.515625 -9.765625 64.890625 -16.59375 64.890625 -21.53125 C 64.890625 -28.140625 67.09375 -32.65625 70.03125 -32.65625 C 73.5 -32.65625 75.59375 -28.34375 75.8125 -21 C 75.921875 -16.59375 75.59375 -8.71875 75.28125 -3.359375 C 75.078125 -1.46875 76.328125 -0.3125 78.125 0 C 81.171875 0.421875 86.828125 0.421875 89.453125 0.421875 C 91.984375 0.421875 96.8125 0.421875 99.75 0 C 101.4375 -0.3125 102.796875 -1.46875 102.6875 -3.359375 C 102.0625 -16.171875 101.75 -24.984375 100.28125 -35.0625 C 97.96875 -51.765625 90.40625 -57.546875 81.484375 -57.546875 C 73.390625 -57.546875 67.203125 -50.71875 65 -41.46875 C 64.265625 -38.75 62.6875 -38.640625 62.0625 -41.46875 C 59.109375 -53.65625 53.65625 -57.546875 46.09375 -57.546875 C 38.640625 -57.546875 32.859375 -50.71875 30.140625 -41.15625 C 29.40625 -38.53125 27.9375 -39.0625 27.9375 -41.46875 C 28.03125 -44.09375 28.984375 -49.984375 29.71875 -53.765625 C 30.140625 -55.546875 28.765625 -56.8125 26.984375 -57.125 C 24.15625 -57.4375 18.375 -57.546875 15.75 -57.546875 C 13.125 -57.546875 9.453125 -57.546875 6.828125 -57.125 C 5.25 -56.8125 4.203125 -55.859375 3.984375 -54.28125 C 2.734375 -41.0625 1.890625 -23.828125 1.890625 -3.15625 C 1.890625 -1.46875 3.046875 -0.203125 4.625 0 C 7.453125 0.3125 12.5 0.421875 14.8125 0.421875 Z M 14.8125 0.421875 "/></g></g></g><g fill="#5019dd" fill-opacity="1"><g transform="translate(1051.074482, 436.592429)"><g><path d="M 35.0625 0.84375 C 43.46875 0.84375 53.859375 -0.3125 59.75 -3.78125 C 60.90625 -4.625 61.53125 -5.78125 61.421875 -7.34375 C 61.21875 -11.03125 60.6875 -16.90625 60.265625 -20.578125 C 59.953125 -23.625 57.640625 -24.359375 56.0625 -22.46875 C 50.8125 -17.84375 45.359375 -15.953125 38.015625 -15.953125 C 31.5 -15.953125 24.359375 -19.109375 22.046875 -24.15625 C 20.890625 -26.046875 22.15625 -27.1875 23.828125 -25.9375 C 28.03125 -23.203125 32.859375 -21.9375 37.90625 -21.9375 C 48.9375 -21.9375 59.21875 -28.5625 59.21875 -38.015625 C 59.21875 -51.34375 48.9375 -57.953125 32.34375 -57.953125 C 13.96875 -57.953125 1.265625 -47.5625 1.265625 -29.296875 C 1.265625 -9.875 14.28125 0.84375 35.0625 0.84375 Z M 31.8125 -30.234375 C 28.34375 -30.234375 23.203125 -31.8125 23.203125 -35.0625 C 23.203125 -39.0625 27.09375 -41.890625 31.1875 -41.890625 C 35.90625 -41.890625 37.796875 -39.484375 37.796875 -35.8125 C 37.796875 -32.234375 35.390625 -30.234375 31.8125 -30.234375 Z M 31.8125 -30.234375 "/></g></g></g><g fill="#5019dd" fill-opacity="1"><g transform="translate(1113.962418, 436.592429)"><g><path d="M 16.28125 0.421875 C 19.21875 0.421875 24.046875 0.3125 26.875 0 C 28.453125 -0.203125 29.8125 -1.359375 29.609375 -3.15625 C 29.078125 -9.875 28.765625 -16.796875 28.671875 -22.46875 C 28.671875 -29.5 32.03125 -35.484375 37.484375 -35.484375 C 42.84375 -35.484375 46.09375 -29.609375 46.203125 -22.578125 C 46.203125 -17.4375 45.5625 -10.1875 44.9375 -3.25 C 44.828125 -1.46875 46.203125 -0.203125 47.78125 0 C 51.453125 0.3125 55.546875 0.421875 58.90625 0.421875 C 62.15625 0.421875 66.046875 0.3125 69.515625 0 C 71.078125 -0.203125 72.140625 -1.15625 72.234375 -2.828125 C 72.34375 -11.125 72.03125 -23.3125 71.5 -29.296875 C 70.140625 -46.515625 63 -57.859375 49.671875 -57.859375 C 41.265625 -57.859375 34.546875 -52.703125 30.96875 -42.421875 C 30.234375 -40.53125 28.671875 -40.640625 28.671875 -42.84375 C 28.765625 -46.203125 29.296875 -48.40625 30.765625 -53.546875 C 31.296875 -55.234375 29.8125 -57.015625 28.140625 -57.125 C 24.890625 -57.4375 20.265625 -57.546875 17.640625 -57.546875 C 14.90625 -57.546875 9.875 -57.4375 7.25 -57.125 C 5.671875 -56.90625 4.71875 -55.546875 4.40625 -53.96875 C 2.828125 -41.6875 2 -27.828125 2 -3.15625 C 1.890625 -1.46875 3.15625 -0.203125 4.71875 0 C 7.984375 0.3125 13.234375 0.421875 16.28125 0.421875 Z M 16.28125 0.421875 "/></g></g></g><g fill="#5019dd" fill-opacity="1"><g transform="translate(1187.979138, 436.592429)"><g><path d="M 33.8125 0.84375 C 40.3125 0.84375 46.203125 -0.109375 51.5625 -1.578125 C 52.8125 -2.09375 53.859375 -3.46875 53.859375 -5.359375 C 53.96875 -8.8125 54.078125 -15.640625 53.96875 -19.53125 C 53.859375 -22.046875 51.875 -22.890625 50.296875 -21.734375 C 48.515625 -20.796875 45.046875 -19.84375 42.84375 -19.84375 C 38.4375 -19.84375 35.0625 -21.9375 34.859375 -26.140625 C 34.65625 -29.40625 34.65625 -33.1875 34.96875 -36.859375 C 35.171875 -38.640625 36.328125 -39.796875 38.53125 -39.796875 C 41.796875 -39.796875 46.828125 -39.578125 50.078125 -39.375 C 51.65625 -39.171875 53.03125 -40.734375 53.03125 -42.421875 L 53.03125 -54.1875 C 53.03125 -55.859375 51.65625 -57.21875 50.078125 -57.21875 C 45.984375 -57.21875 41.15625 -57.015625 37.0625 -57.015625 C 36.21875 -57.015625 35.59375 -57.859375 35.59375 -59.109375 C 35.59375 -61.734375 36.125 -64.359375 36.640625 -67.3125 C 36.859375 -68.984375 35.484375 -70.453125 33.8125 -70.671875 C 30.875 -70.984375 25.203125 -71.078125 22.578125 -71.078125 C 20.0625 -70.984375 16.171875 -70.984375 13.65625 -70.671875 C 12.1875 -70.453125 11.03125 -69.296875 10.8125 -67.828125 C 10.5 -65.09375 10.296875 -61.3125 10.1875 -58.484375 C 10.078125 -57.75 9.5625 -57.125 8.71875 -57.125 L 3.5625 -57.125 C 2 -57.125 0.84375 -55.859375 0.734375 -54.28125 C 0.734375 -50.296875 0.625 -46.40625 0.734375 -42.53125 C 0.84375 -40.953125 2 -39.578125 3.5625 -39.578125 C 5.046875 -39.6875 6.515625 -39.6875 7.875 -39.6875 C 8.71875 -39.796875 9.453125 -39.171875 9.34375 -38.328125 C 8.5 -31.8125 8.5 -25.09375 8.5 -20.6875 C 8.5 -5.671875 19.421875 0.84375 33.8125 0.84375 Z M 33.8125 0.84375 "/></g></g></g><g fill="#5019dd" fill-opacity="1"><g transform="translate(1242.783059, 436.592429)"><g><path d="M 33.703125 0.84375 C 52.609375 0.84375 66.046875 -6.828125 66.046875 -26.984375 C 66.046875 -45.984375 52.703125 -57.953125 33.703125 -57.953125 C 14.703125 -57.953125 1.265625 -45.984375 1.265625 -26.984375 C 1.265625 -6.828125 14.8125 0.84375 33.703125 0.84375 Z M 33.703125 -17.53125 C 28.5625 -17.53125 24.890625 -21.734375 24.890625 -28.453125 C 24.890625 -34.96875 28.453125 -39.6875 33.703125 -39.6875 C 38.953125 -39.6875 42.53125 -34.96875 42.53125 -28.453125 C 42.53125 -21.734375 38.84375 -17.53125 33.703125 -17.53125 Z M 33.703125 -17.53125 "/></g></g></g><g clip-path="url(#eae0bdf473)"><g clip-path="url(#36ceac64c4)"><g clip-path="url(#de1172f0b4)"><path fill="#7ed957" d="M 109.960938 351.675781 C 115.433594 355.136719 117.816406 361.191406 115.28125 365.1875 C 112.75 369.1875 106.257812 369.621094 100.789062 366.15625 C 95.316406 362.6875 92.933594 356.636719 95.46875 352.640625 C 98 348.640625 104.488281 348.207031 109.960938 351.675781 Z M 165.105469 363.457031 C 163.566406 364.679688 161.847656 365.5625 159.953125 366.097656 C 158.058594 366.632812 156.132812 366.789062 154.179688 366.554688 C 153.820312 366.515625 153.460938 366.507812 153.101562 366.535156 C 152.742188 366.566406 152.390625 366.628906 152.042969 366.726562 C 151.695312 366.824219 151.363281 366.957031 151.042969 367.121094 C 150.71875 367.285156 150.417969 367.476562 150.136719 367.703125 C 149.851562 367.925781 149.59375 368.175781 149.359375 368.449219 C 149.125 368.722656 148.921875 369.019531 148.746094 369.332031 C 148.570312 369.648438 148.425781 369.976562 148.316406 370.320312 C 148.207031 370.664062 148.128906 371.015625 148.085938 371.371094 C 147.972656 372.339844 147.765625 373.289062 147.46875 374.214844 C 147.167969 375.140625 146.78125 376.03125 146.304688 376.882812 C 145.828125 377.730469 145.277344 378.527344 144.644531 379.269531 C 144.011719 380.011719 143.3125 380.683594 142.550781 381.289062 C 141.785156 381.894531 140.96875 382.417969 140.101562 382.859375 C 139.234375 383.304688 138.332031 383.660156 137.394531 383.925781 C 136.457031 384.191406 135.5 384.363281 134.53125 384.441406 C 133.558594 384.515625 132.589844 384.5 131.621094 384.386719 C 130.652344 384.273438 129.707031 384.066406 128.777344 383.765625 C 127.851562 383.464844 126.960938 383.078125 126.109375 382.601562 C 125.261719 382.128906 124.464844 381.574219 123.722656 380.941406 C 122.980469 380.3125 122.308594 379.613281 121.703125 378.847656 C 121.097656 378.082031 120.574219 377.265625 120.132812 376.398438 C 119.6875 375.53125 119.332031 374.628906 119.066406 373.691406 C 118.800781 372.753906 118.628906 371.800781 118.554688 370.828125 C 118.476562 369.855469 118.492188 368.886719 118.605469 367.917969 C 118.738281 366.773438 118.929688 365.640625 119.175781 364.515625 C 119.417969 363.390625 119.71875 362.277344 120.074219 361.183594 C 120.429688 360.085938 120.835938 359.007812 121.296875 357.953125 C 121.753906 356.898438 122.265625 355.867188 122.828125 354.859375 C 123.390625 353.855469 124 352.878906 124.65625 351.933594 C 125.3125 350.984375 126.015625 350.074219 126.761719 349.199219 C 127.511719 348.320312 128.296875 347.480469 129.128906 346.683594 C 129.957031 345.882812 130.824219 345.125 131.726562 344.410156 C 132.632812 343.699219 133.566406 343.027344 134.539062 342.40625 C 135.507812 341.785156 136.503906 341.210938 137.53125 340.6875 C 138.554688 340.164062 139.605469 339.691406 140.675781 339.269531 C 141.75 338.847656 142.839844 338.480469 143.949219 338.167969 C 145.058594 337.851562 146.179688 337.59375 147.3125 337.390625 C 148.445312 337.1875 149.585938 337.039062 150.734375 336.945312 C 151.882812 336.855469 153.035156 336.820312 154.1875 336.839844 C 155.335938 336.863281 156.484375 336.941406 157.628906 337.074219 C 158.355469 337.160156 159.070312 337.296875 159.773438 337.488281 C 160.480469 337.679688 161.164062 337.917969 161.835938 338.210938 C 162.503906 338.503906 163.148438 338.839844 163.765625 339.226562 C 164.386719 339.613281 164.972656 340.042969 165.527344 340.519531 C 166.085938 340.992188 166.601562 341.503906 167.082031 342.050781 C 167.5625 342.601562 168 343.183594 168.394531 343.796875 C 168.789062 344.410156 169.136719 345.050781 169.433594 345.71875 C 169.734375 346.382812 169.984375 347.066406 170.183594 347.769531 C 170.382812 348.472656 170.527344 349.183594 170.621094 349.90625 C 170.714844 350.632812 170.757812 351.359375 170.742188 352.085938 C 170.730469 352.816406 170.664062 353.542969 170.542969 354.261719 C 170.421875 354.980469 170.25 355.6875 170.023438 356.382812 C 169.800781 357.078125 169.527344 357.753906 169.203125 358.40625 C 168.878906 359.058594 168.507812 359.6875 168.089844 360.285156 C 167.675781 360.886719 167.214844 361.449219 166.714844 361.980469 C 166.214844 362.515625 165.679688 363.007812 165.105469 363.457031 Z M 119.425781 331.246094 C 124.542969 336.59375 125.523438 343.964844 121.613281 347.707031 C 117.703125 351.445312 110.382812 350.140625 105.261719 344.789062 C 100.144531 339.441406 99.164062 332.070312 103.078125 328.332031 C 106.988281 324.589844 114.304688 325.894531 119.425781 331.246094 Z M 121.757812 329.402344 C 125.78125 335.617188 132.726562 338.273438 137.269531 335.332031 C 141.8125 332.390625 142.230469 324.96875 138.207031 318.75 C 134.183594 312.535156 127.242188 309.882812 122.699219 312.820312 C 118.15625 315.761719 117.734375 323.183594 121.757812 329.402344 Z M 143.820312 324.910156 C 145.925781 331.035156 151.265625 334.753906 155.738281 333.210938 C 160.214844 331.667969 162.136719 325.457031 160.027344 319.332031 C 157.917969 313.207031 152.582031 309.492188 148.105469 311.03125 C 143.632812 312.574219 141.710938 318.785156 143.820312 324.910156 Z M 143.820312 324.910156 " fill-opacity="1" fill-rule="nonzero"/></g></g></g><g clip-path="url(#f684ea552d)"><g clip-path="url(#14cb299116)"><g clip-path="url(#8097752d24)"><path fill="#5019dd" d="M 111.730469 351.296875 C 116.792969 354.5 118.996094 360.097656 116.652344 363.796875 C 114.3125 367.492188 108.308594 367.894531 103.25 364.691406 C 98.191406 361.484375 95.984375 355.886719 98.328125 352.1875 C 100.671875 348.492188 106.671875 348.089844 111.730469 351.296875 Z M 162.734375 362.195312 C 161.308594 363.328125 159.71875 364.140625 157.96875 364.636719 C 156.214844 365.132812 154.4375 365.273438 152.628906 365.058594 C 152.296875 365.023438 151.964844 365.015625 151.632812 365.042969 C 151.300781 365.066406 150.972656 365.125 150.652344 365.21875 C 150.332031 365.308594 150.023438 365.429688 149.726562 365.582031 C 149.429688 365.734375 149.148438 365.914062 148.886719 366.121094 C 148.625 366.328125 148.386719 366.558594 148.171875 366.8125 C 147.953125 367.066406 147.765625 367.335938 147.601562 367.628906 C 147.441406 367.917969 147.308594 368.222656 147.207031 368.542969 C 147.101562 368.859375 147.03125 369.183594 146.992188 369.515625 C 146.886719 370.410156 146.699219 371.285156 146.421875 372.144531 C 146.144531 373 145.785156 373.824219 145.34375 374.609375 C 144.90625 375.394531 144.394531 376.132812 143.808594 376.820312 C 143.222656 377.503906 142.578125 378.128906 141.871094 378.6875 C 141.164062 379.246094 140.410156 379.730469 139.605469 380.140625 C 138.804688 380.550781 137.96875 380.878906 137.101562 381.125 C 136.234375 381.367188 135.351562 381.527344 134.453125 381.601562 C 133.554688 381.671875 132.660156 381.65625 131.765625 381.550781 C 130.871094 381.445312 129.992188 381.253906 129.136719 380.976562 C 128.277344 380.699219 127.457031 380.339844 126.667969 379.902344 C 125.882812 379.460938 125.144531 378.949219 124.460938 378.367188 C 123.773438 377.78125 123.152344 377.136719 122.59375 376.429688 C 122.035156 375.722656 121.550781 374.964844 121.140625 374.164062 C 120.730469 373.363281 120.402344 372.527344 120.15625 371.660156 C 119.910156 370.792969 119.75 369.910156 119.679688 369.011719 C 119.605469 368.113281 119.625 367.214844 119.726562 366.320312 C 119.851562 365.261719 120.027344 364.214844 120.253906 363.171875 C 120.480469 362.132812 120.757812 361.105469 121.085938 360.089844 C 121.414062 359.074219 121.789062 358.082031 122.214844 357.105469 C 122.640625 356.128906 123.113281 355.171875 123.632812 354.242188 C 124.152344 353.3125 124.714844 352.410156 125.324219 351.535156 C 125.929688 350.660156 126.582031 349.816406 127.273438 349.007812 C 127.960938 348.195312 128.691406 347.421875 129.457031 346.679688 C 130.226562 345.941406 131.027344 345.242188 131.863281 344.582031 C 132.699219 343.917969 133.566406 343.300781 134.460938 342.726562 C 135.359375 342.152344 136.28125 341.621094 137.230469 341.136719 C 138.179688 340.652344 139.148438 340.214844 140.140625 339.824219 C 141.132812 339.433594 142.140625 339.09375 143.164062 338.804688 C 144.191406 338.515625 145.226562 338.273438 146.277344 338.085938 C 147.324219 337.898438 148.378906 337.761719 149.441406 337.675781 C 150.503906 337.589844 151.570312 337.558594 152.632812 337.578125 C 153.699219 337.597656 154.761719 337.671875 155.820312 337.796875 C 157.167969 337.953125 158.464844 338.304688 159.707031 338.84375 C 160.953125 339.386719 162.089844 340.097656 163.125 340.980469 C 164.15625 341.859375 165.039062 342.871094 165.773438 344.011719 C 166.507812 345.15625 167.058594 346.378906 167.429688 347.683594 C 167.800781 348.992188 167.972656 350.324219 167.945312 351.679688 C 167.921875 353.035156 167.699219 354.359375 167.28125 355.652344 C 166.863281 356.945312 166.269531 358.148438 165.492188 359.261719 C 164.71875 360.375 163.800781 361.355469 162.734375 362.195312 Z M 120.484375 332.402344 C 125.21875 337.351562 126.125 344.167969 122.507812 347.625 C 118.890625 351.085938 112.121094 349.878906 107.386719 344.929688 C 102.65625 339.984375 101.75 333.167969 105.367188 329.707031 C 108.980469 326.25 115.75 327.457031 120.484375 332.402344 Z M 122.644531 330.699219 C 126.363281 336.445312 132.785156 338.902344 136.988281 336.179688 C 141.1875 333.460938 141.578125 326.597656 137.855469 320.847656 C 134.136719 315.101562 127.714844 312.644531 123.511719 315.363281 C 119.3125 318.085938 118.921875 324.949219 122.644531 330.699219 Z M 143.046875 326.546875 C 144.996094 332.207031 149.933594 335.648438 154.070312 334.222656 C 158.210938 332.796875 159.984375 327.050781 158.039062 321.386719 C 156.085938 315.722656 151.152344 312.285156 147.011719 313.710938 C 142.871094 315.136719 141.097656 320.882812 143.046875 326.546875 Z M 143.046875 326.546875 " fill-opacity="1" fill-rule="nonzero"/></g></g></g></svg>