<svg xmlns="http://www.w3.org/2000/svg" xmlns:xlink="http://www.w3.org/1999/xlink" width="50" zoomAndPan="magnify" viewBox="0 0 37.5 37.499999" height="50" preserveAspectRatio="xMidYMid meet" version="1.0"><defs><clipPath id="82a0aad8e3"><path d="M 3.699219 0 L 31.085938 0 L 31.085938 37 L 3.699219 37 Z M 3.699219 0 " clip-rule="nonzero"/></clipPath><clipPath id="495c40b605"><path d="M 4.222656 0.695312 L 30.867188 0.695312 L 30.867188 36 L 4.222656 36 Z M 4.222656 0.695312 " clip-rule="nonzero"/></clipPath></defs><g clip-path="url(#82a0aad8e3)"><path fill="#000000" d="M 28.484375 10.621094 L 29.792969 10.621094 C 29.390625 13.886719 27.65625 27.984375 26.945312 33.75 C 26.808594 34.859375 25.878906 35.691406 24.777344 35.691406 C 21.046875 35.691406 13.992188 35.691406 10.261719 35.691406 C 9.160156 35.691406 8.230469 34.859375 8.09375 33.75 C 8.09375 33.75 5.246094 10.621094 5.246094 10.621094 C 5.246094 10.621094 25.625 10.621094 25.625 10.621094 C 25.953125 10.621094 26.222656 10.347656 26.222656 10.011719 C 26.222656 9.675781 25.953125 9.40625 25.625 9.40625 L 4.566406 9.40625 C 4.394531 9.40625 4.230469 9.480469 4.117188 9.609375 C 4.003906 9.742188 3.949219 9.914062 3.972656 10.089844 C 3.972656 10.089844 6.097656 27.359375 6.90625 33.902344 C 7.117188 35.621094 8.554688 36.910156 10.261719 36.910156 C 13.992188 36.910156 21.046875 36.910156 24.777344 36.910156 C 26.484375 36.910156 27.921875 35.621094 28.136719 33.902344 C 28.941406 27.359375 31.066406 10.089844 31.066406 10.089844 C 31.089844 9.914062 31.035156 9.742188 30.921875 9.609375 C 30.808594 9.480469 30.644531 9.40625 30.472656 9.40625 L 28.484375 9.40625 C 28.152344 9.40625 27.882812 9.675781 27.882812 10.011719 C 27.882812 10.347656 28.152344 10.621094 28.484375 10.621094 Z M 16.921875 16.585938 L 16.921875 29.726562 C 16.921875 30.0625 17.1875 30.335938 17.519531 30.335938 C 17.851562 30.335938 18.117188 30.0625 18.117188 29.726562 L 18.117188 16.585938 C 18.117188 16.25 17.851562 15.976562 17.519531 15.976562 C 17.1875 15.976562 16.921875 16.25 16.921875 16.585938 Z M 10.003906 16.65625 L 11.066406 29.757812 C 11.09375 30.089844 11.382812 30.339844 11.714844 30.3125 C 12.042969 30.285156 12.289062 29.992188 12.261719 29.65625 L 11.199219 16.558594 C 11.171875 16.222656 10.882812 15.972656 10.550781 16 C 10.222656 16.027344 9.976562 16.324219 10.003906 16.65625 Z M 23.664062 16.558594 L 22.601562 29.65625 C 22.574219 29.992188 22.820312 30.285156 23.148438 30.3125 C 23.476562 30.339844 23.769531 30.089844 23.796875 29.757812 L 24.859375 16.65625 C 24.886719 16.324219 24.640625 16.027344 24.3125 16 C 23.980469 15.972656 23.691406 16.222656 23.664062 16.558594 Z M 13.011719 5.257812 L 4.207031 7.652344 C 3.886719 7.738281 3.695312 8.070312 3.78125 8.398438 C 3.867188 8.71875 4.195312 8.914062 4.515625 8.824219 L 29.539062 2.023438 C 29.859375 1.9375 30.050781 1.601562 29.964844 1.277344 C 29.878906 0.953125 29.546875 0.761719 29.230469 0.847656 L 20.425781 3.242188 L 19.742188 0.65625 C 19.65625 0.332031 19.328125 0.136719 19.007812 0.226562 L 12.75 1.925781 C 12.429688 2.011719 12.242188 2.347656 12.328125 2.671875 Z M 19.265625 3.554688 L 18.738281 1.558594 C 18.738281 1.558594 13.640625 2.945312 13.640625 2.945312 L 14.167969 4.941406 Z M 19.265625 3.554688 " fill-opacity="1" fill-rule="evenodd"/></g><g clip-path="url(#495c40b605)"><path fill="#dd3434" d="M 28.230469 10.835938 L 29.5 10.835938 C 29.109375 13.953125 27.429688 27.410156 26.742188 32.917969 C 26.609375 33.976562 25.707031 34.769531 24.640625 34.769531 C 21.027344 34.769531 14.195312 34.769531 10.578125 34.769531 C 9.511719 34.769531 8.613281 33.976562 8.480469 32.917969 C 8.480469 32.917969 5.71875 10.835938 5.71875 10.835938 C 5.71875 10.835938 25.460938 10.835938 25.460938 10.835938 C 25.78125 10.835938 26.042969 10.574219 26.042969 10.253906 C 26.042969 9.933594 25.78125 9.671875 25.460938 9.671875 L 5.0625 9.671875 C 4.894531 9.671875 4.738281 9.746094 4.625 9.871094 C 4.515625 9.996094 4.464844 10.160156 4.484375 10.324219 C 4.484375 10.324219 6.546875 26.8125 7.328125 33.0625 C 7.53125 34.703125 8.925781 35.933594 10.578125 35.933594 C 14.195312 35.933594 21.027344 35.933594 24.640625 35.933594 C 26.292969 35.933594 27.6875 34.703125 27.894531 33.0625 C 28.675781 26.8125 30.734375 10.324219 30.734375 10.324219 C 30.753906 10.160156 30.703125 9.996094 30.59375 9.871094 C 30.484375 9.746094 30.324219 9.671875 30.160156 9.671875 L 28.230469 9.671875 C 27.910156 9.671875 27.648438 9.933594 27.648438 10.253906 C 27.648438 10.574219 27.910156 10.835938 28.230469 10.835938 Z M 17.027344 16.527344 L 17.027344 29.078125 C 17.027344 29.398438 17.289062 29.65625 17.609375 29.65625 C 17.929688 29.65625 18.191406 29.398438 18.191406 29.078125 L 18.191406 16.527344 C 18.191406 16.207031 17.929688 15.949219 17.609375 15.949219 C 17.289062 15.949219 17.027344 16.207031 17.027344 16.527344 Z M 10.328125 16.597656 L 11.359375 29.105469 C 11.386719 29.421875 11.667969 29.660156 11.984375 29.632812 C 12.304688 29.609375 12.542969 29.328125 12.515625 29.007812 L 11.484375 16.503906 C 11.460938 16.183594 11.179688 15.945312 10.859375 15.96875 C 10.539062 15.996094 10.300781 16.277344 10.328125 16.597656 Z M 23.5625 16.503906 L 22.53125 29.007812 C 22.503906 29.328125 22.742188 29.609375 23.0625 29.632812 C 23.382812 29.660156 23.664062 29.421875 23.6875 29.105469 L 24.71875 16.597656 C 24.746094 16.277344 24.507812 15.996094 24.191406 15.96875 C 23.871094 15.945312 23.589844 16.183594 23.5625 16.503906 Z M 13.242188 5.714844 L 4.710938 8 C 4.402344 8.082031 4.21875 8.402344 4.300781 8.710938 C 4.382812 9.019531 4.703125 9.203125 5.011719 9.121094 L 29.253906 2.625 C 29.5625 2.542969 29.746094 2.222656 29.664062 1.914062 C 29.582031 1.605469 29.261719 1.421875 28.953125 1.503906 L 20.421875 3.789062 L 19.761719 1.320312 C 19.679688 1.007812 19.359375 0.828125 19.050781 0.910156 L 12.992188 2.53125 C 12.679688 2.617188 12.496094 2.933594 12.578125 3.246094 Z M 19.300781 4.089844 L 18.789062 2.183594 C 18.789062 2.183594 13.851562 3.503906 13.851562 3.503906 L 14.363281 5.414062 Z M 19.300781 4.089844 " fill-opacity="1" fill-rule="evenodd"/></g></svg>