<svg xmlns="http://www.w3.org/2000/svg" xmlns:xlink="http://www.w3.org/1999/xlink" width="50" zoomAndPan="magnify" viewBox="0 0 37.5 37.499999" height="50" preserveAspectRatio="xMidYMid meet" version="1.0"><defs><clipPath id="31752ba0e8"><path d="M 2.554688 1.851562 L 19.578125 1.851562 L 19.578125 35.15625 L 2.554688 35.15625 Z M 2.554688 1.851562 " clip-rule="nonzero"/></clipPath><clipPath id="74c8ee864e"><path d="M 18.652344 1.851562 L 35.628906 1.851562 L 35.628906 35.15625 L 18.652344 35.15625 Z M 18.652344 1.851562 " clip-rule="nonzero"/></clipPath><clipPath id="404a58311b"><path d="M 2.554688 1.851562 L 19.578125 1.851562 L 19.578125 35.15625 L 2.554688 35.15625 Z M 2.554688 1.851562 " clip-rule="nonzero"/></clipPath><clipPath id="addc32774a"><path d="M 18.652344 1.851562 L 35.628906 1.851562 L 35.628906 35.15625 L 18.652344 35.15625 Z M 18.652344 1.851562 " clip-rule="nonzero"/></clipPath><clipPath id="ace3c309f2"><path d="M 11.15625 11.324219 L 27.441406 11.324219 L 27.441406 27.605469 L 11.15625 27.605469 Z M 11.15625 11.324219 " clip-rule="nonzero"/></clipPath></defs><g clip-path="url(#31752ba0e8)"><path fill="#000000" d="M 19.207031 1.851562 C 19.019531 1.847656 18.839844 1.882812 18.667969 1.949219 C 18.496094 2.019531 18.34375 2.121094 18.210938 2.25 C 18.082031 2.378906 17.976562 2.53125 17.90625 2.703125 C 17.835938 2.875 17.800781 3.050781 17.800781 3.238281 C 17.800781 3.421875 17.835938 3.601562 17.90625 3.773438 C 17.976562 3.945312 18.082031 4.097656 18.210938 4.226562 C 18.34375 4.355469 18.496094 4.457031 18.667969 4.527344 C 18.839844 4.59375 19.019531 4.628906 19.207031 4.625 C 26.886719 4.625 33.082031 10.824219 33.082031 18.503906 C 33.082031 26.183594 26.886719 32.378906 19.207031 32.378906 C 19.019531 32.378906 18.839844 32.410156 18.667969 32.480469 C 18.496094 32.550781 18.34375 32.648438 18.210938 32.78125 C 18.082031 32.910156 17.976562 33.0625 17.90625 33.234375 C 17.835938 33.402344 17.800781 33.582031 17.800781 33.769531 C 17.800781 33.953125 17.835938 34.132812 17.90625 34.304688 C 17.976562 34.476562 18.082031 34.625 18.210938 34.757812 C 18.34375 34.886719 18.496094 34.988281 18.667969 35.054688 C 18.839844 35.125 19.019531 35.160156 19.207031 35.15625 C 28.386719 35.15625 35.859375 27.683594 35.859375 18.503906 C 35.859375 9.324219 28.386719 1.851562 19.207031 1.851562 Z M 13.375 3.011719 C 13.1875 3.011719 13.007812 3.046875 12.835938 3.117188 C 12.664062 3.1875 12.515625 3.289062 12.382812 3.417969 C 12.253906 3.546875 12.152344 3.699219 12.082031 3.867188 C 12.011719 4.039062 11.976562 4.214844 11.976562 4.398438 C 11.976562 4.582031 12.011719 4.757812 12.082031 4.929688 C 12.152344 5.101562 12.25 5.25 12.382812 5.378906 C 12.511719 5.511719 12.660156 5.609375 12.832031 5.683594 C 13 5.753906 13.179688 5.789062 13.363281 5.789062 C 13.546875 5.789062 13.722656 5.753906 13.894531 5.683594 C 14.0625 5.613281 14.214844 5.511719 14.34375 5.382812 C 14.476562 5.253906 14.574219 5.101562 14.648438 4.933594 C 14.71875 4.761719 14.753906 4.585938 14.753906 4.402344 C 14.753906 4.21875 14.71875 4.039062 14.648438 3.871094 C 14.539062 3.613281 14.371094 3.40625 14.140625 3.25 C 13.90625 3.09375 13.652344 3.015625 13.375 3.011719 Z M 8.433594 6.324219 C 8.042969 6.316406 7.707031 6.453125 7.433594 6.730469 C 7.300781 6.859375 7.203125 7.007812 7.132812 7.179688 C 7.0625 7.347656 7.027344 7.527344 7.027344 7.710938 C 7.027344 7.894531 7.0625 8.070312 7.132812 8.242188 C 7.203125 8.410156 7.300781 8.5625 7.433594 8.691406 C 7.5625 8.820312 7.710938 8.921875 7.882812 8.992188 C 8.050781 9.0625 8.230469 9.097656 8.414062 9.097656 C 8.597656 9.097656 8.773438 9.0625 8.945312 8.992188 C 9.113281 8.921875 9.265625 8.820312 9.394531 8.691406 C 9.523438 8.5625 9.625 8.410156 9.695312 8.242188 C 9.765625 8.070312 9.800781 7.894531 9.800781 7.710938 C 9.800781 7.527344 9.765625 7.347656 9.695312 7.179688 C 9.625 7.007812 9.523438 6.859375 9.394531 6.730469 C 9.128906 6.464844 8.808594 6.328125 8.433594 6.324219 Z M 5.132812 11.273438 C 4.847656 11.269531 4.585938 11.34375 4.34375 11.5 C 4.105469 11.65625 3.929688 11.867188 3.820312 12.132812 C 3.75 12.300781 3.714844 12.476562 3.714844 12.660156 C 3.714844 12.847656 3.75 13.023438 3.820312 13.191406 C 3.890625 13.363281 3.992188 13.511719 4.121094 13.644531 C 4.253906 13.773438 4.402344 13.875 4.574219 13.945312 C 4.742188 14.015625 4.921875 14.050781 5.105469 14.050781 C 5.289062 14.050781 5.464844 14.015625 5.636719 13.945312 C 5.804688 13.871094 5.957031 13.773438 6.085938 13.640625 C 6.214844 13.511719 6.316406 13.359375 6.386719 13.191406 C 6.457031 13.019531 6.492188 12.84375 6.492188 12.660156 C 6.492188 12.476562 6.457031 12.296875 6.386719 12.128906 C 6.3125 11.957031 6.214844 11.808594 6.082031 11.679688 C 5.953125 11.546875 5.804688 11.449219 5.632812 11.378906 C 5.472656 11.3125 5.304688 11.277344 5.132812 11.273438 Z M 27.503906 12.9375 C 27.132812 12.949219 26.8125 13.089844 26.550781 13.359375 L 17.820312 22.09375 L 14.636719 18.910156 C 14.507812 18.773438 14.355469 18.671875 14.1875 18.597656 C 14.015625 18.523438 13.835938 18.484375 13.648438 18.484375 C 13.464844 18.480469 13.285156 18.515625 13.109375 18.585938 C 12.9375 18.65625 12.785156 18.757812 12.652344 18.890625 C 12.523438 19.023438 12.421875 19.171875 12.351562 19.347656 C 12.28125 19.519531 12.246094 19.699219 12.246094 19.886719 C 12.25 20.070312 12.289062 20.25 12.363281 20.421875 C 12.433594 20.59375 12.539062 20.742188 12.675781 20.871094 L 16.835938 25.035156 C 16.96875 25.164062 17.117188 25.265625 17.289062 25.335938 C 17.457031 25.40625 17.632812 25.441406 17.820312 25.441406 C 18.003906 25.441406 18.179688 25.40625 18.351562 25.335938 C 18.519531 25.265625 18.667969 25.164062 18.800781 25.035156 L 28.515625 15.320312 C 28.71875 15.121094 28.851562 14.882812 28.90625 14.601562 C 28.964844 14.320312 28.9375 14.046875 28.824219 13.785156 C 28.714844 13.523438 28.535156 13.3125 28.296875 13.15625 C 28.054688 13.003906 27.792969 12.929688 27.503906 12.9375 Z M 3.941406 17.117188 C 3.757812 17.117188 3.582031 17.152344 3.410156 17.222656 C 3.238281 17.292969 3.089844 17.390625 2.960938 17.523438 C 2.828125 17.652344 2.730469 17.800781 2.660156 17.972656 C 2.589844 18.140625 2.554688 18.320312 2.554688 18.503906 C 2.554688 18.6875 2.589844 18.863281 2.660156 19.035156 C 2.730469 19.203125 2.828125 19.355469 2.960938 19.484375 C 3.089844 19.613281 3.238281 19.714844 3.410156 19.785156 C 3.582031 19.855469 3.757812 19.890625 3.941406 19.890625 C 4.125 19.890625 4.300781 19.855469 4.472656 19.785156 C 4.640625 19.714844 4.792969 19.613281 4.921875 19.484375 C 5.050781 19.355469 5.152344 19.203125 5.222656 19.035156 C 5.292969 18.863281 5.328125 18.6875 5.328125 18.503906 C 5.328125 18.320312 5.292969 18.140625 5.222656 17.972656 C 5.152344 17.800781 5.050781 17.652344 4.921875 17.523438 C 4.792969 17.390625 4.640625 17.292969 4.472656 17.222656 C 4.300781 17.152344 4.125 17.117188 3.941406 17.117188 Z M 5.113281 22.957031 C 4.925781 22.957031 4.746094 22.992188 4.574219 23.0625 C 4.402344 23.132812 4.253906 23.234375 4.121094 23.363281 C 3.992188 23.492188 3.890625 23.644531 3.820312 23.8125 C 3.75 23.984375 3.714844 24.160156 3.714844 24.34375 C 3.714844 24.527344 3.75 24.707031 3.820312 24.875 C 3.890625 25.046875 3.992188 25.195312 4.121094 25.328125 C 4.253906 25.457031 4.402344 25.558594 4.574219 25.628906 C 4.742188 25.699219 4.917969 25.734375 5.105469 25.734375 C 5.289062 25.734375 5.464844 25.699219 5.636719 25.628906 C 5.804688 25.558594 5.957031 25.457031 6.085938 25.328125 C 6.214844 25.199219 6.316406 25.046875 6.386719 24.878906 C 6.457031 24.707031 6.492188 24.53125 6.492188 24.347656 C 6.492188 24.164062 6.457031 23.984375 6.386719 23.816406 C 6.28125 23.558594 6.109375 23.351562 5.878906 23.195312 C 5.648438 23.039062 5.390625 22.957031 5.113281 22.957031 Z M 8.433594 27.910156 C 8.042969 27.902344 7.707031 28.039062 7.433594 28.316406 C 7.300781 28.445312 7.203125 28.59375 7.132812 28.765625 C 7.0625 28.933594 7.027344 29.113281 7.027344 29.296875 C 7.027344 29.480469 7.0625 29.65625 7.132812 29.828125 C 7.203125 29.996094 7.300781 30.148438 7.433594 30.277344 C 7.5625 30.40625 7.710938 30.507812 7.882812 30.578125 C 8.050781 30.648438 8.230469 30.683594 8.414062 30.683594 C 8.597656 30.683594 8.773438 30.648438 8.945312 30.578125 C 9.113281 30.507812 9.265625 30.40625 9.394531 30.277344 C 9.523438 30.148438 9.625 29.996094 9.695312 29.828125 C 9.765625 29.65625 9.800781 29.480469 9.800781 29.296875 C 9.800781 29.113281 9.765625 28.933594 9.695312 28.765625 C 9.625 28.59375 9.523438 28.445312 9.394531 28.316406 C 9.128906 28.050781 8.808594 27.914062 8.433594 27.910156 Z M 13.394531 31.21875 C 13.109375 31.210938 12.847656 31.285156 12.605469 31.445312 C 12.367188 31.601562 12.191406 31.808594 12.082031 32.074219 C 12.011719 32.246094 11.976562 32.421875 11.976562 32.605469 C 11.976562 32.789062 12.011719 32.964844 12.082031 33.136719 C 12.152344 33.308594 12.253906 33.457031 12.382812 33.585938 C 12.515625 33.71875 12.664062 33.816406 12.835938 33.886719 C 13.003906 33.957031 13.179688 33.992188 13.363281 33.992188 C 13.550781 33.992188 13.726562 33.957031 13.894531 33.886719 C 14.066406 33.816406 14.214844 33.71875 14.347656 33.585938 C 14.476562 33.457031 14.578125 33.308594 14.648438 33.136719 C 14.71875 32.96875 14.753906 32.789062 14.753906 32.605469 C 14.753906 32.421875 14.71875 32.246094 14.648438 32.074219 C 14.578125 31.90625 14.476562 31.753906 14.347656 31.625 C 14.214844 31.496094 14.066406 31.394531 13.898438 31.324219 C 13.734375 31.257812 13.570312 31.222656 13.394531 31.21875 Z M 13.394531 31.21875 " fill-opacity="1" fill-rule="nonzero"/></g><g clip-path="url(#74c8ee864e)"><path fill="#000000" d="M 18.976562 1.851562 C 19.160156 1.847656 19.339844 1.882812 19.511719 1.949219 C 19.683594 2.019531 19.835938 2.121094 19.96875 2.25 C 20.101562 2.378906 20.203125 2.53125 20.273438 2.703125 C 20.347656 2.875 20.382812 3.050781 20.382812 3.238281 C 20.382812 3.421875 20.347656 3.601562 20.273438 3.773438 C 20.203125 3.945312 20.101562 4.097656 19.96875 4.226562 C 19.835938 4.355469 19.683594 4.457031 19.511719 4.527344 C 19.339844 4.59375 19.160156 4.628906 18.976562 4.625 C 11.292969 4.625 5.097656 10.824219 5.097656 18.503906 C 5.097656 26.183594 11.292969 32.378906 18.976562 32.378906 C 19.160156 32.378906 19.339844 32.410156 19.511719 32.480469 C 19.683594 32.550781 19.835938 32.648438 19.96875 32.78125 C 20.101562 32.910156 20.203125 33.0625 20.273438 33.234375 C 20.347656 33.402344 20.382812 33.582031 20.382812 33.769531 C 20.382812 33.953125 20.347656 34.132812 20.273438 34.304688 C 20.203125 34.476562 20.101562 34.625 19.96875 34.757812 C 19.835938 34.886719 19.683594 34.988281 19.511719 35.054688 C 19.339844 35.125 19.160156 35.160156 18.976562 35.15625 C 9.792969 35.15625 2.320312 27.683594 2.320312 18.503906 C 2.320312 9.324219 9.792969 1.851562 18.976562 1.851562 Z M 24.808594 3.011719 C 24.996094 3.011719 25.175781 3.046875 25.347656 3.117188 C 25.515625 3.1875 25.667969 3.289062 25.796875 3.417969 C 25.925781 3.546875 26.027344 3.699219 26.097656 3.867188 C 26.167969 4.039062 26.203125 4.214844 26.207031 4.398438 C 26.207031 4.582031 26.171875 4.757812 26.101562 4.929688 C 26.03125 5.101562 25.929688 5.25 25.800781 5.378906 C 25.671875 5.511719 25.519531 5.609375 25.351562 5.683594 C 25.179688 5.753906 25.003906 5.789062 24.820312 5.789062 C 24.636719 5.789062 24.457031 5.753906 24.289062 5.683594 C 24.117188 5.613281 23.96875 5.511719 23.835938 5.382812 C 23.707031 5.253906 23.605469 5.101562 23.535156 4.933594 C 23.464844 4.761719 23.429688 4.585938 23.429688 4.402344 C 23.429688 4.21875 23.464844 4.039062 23.535156 3.871094 C 23.640625 3.613281 23.808594 3.40625 24.042969 3.25 C 24.273438 3.09375 24.527344 3.015625 24.808594 3.011719 Z M 29.75 6.324219 C 30.140625 6.316406 30.472656 6.453125 30.75 6.730469 C 30.878906 6.859375 30.980469 7.007812 31.050781 7.179688 C 31.121094 7.347656 31.15625 7.527344 31.15625 7.710938 C 31.15625 7.894531 31.121094 8.070312 31.050781 8.242188 C 30.980469 8.410156 30.878906 8.5625 30.75 8.691406 C 30.621094 8.820312 30.46875 8.921875 30.300781 8.992188 C 30.128906 9.0625 29.953125 9.097656 29.769531 9.097656 C 29.585938 9.097656 29.40625 9.0625 29.238281 8.992188 C 29.066406 8.921875 28.917969 8.820312 28.785156 8.691406 C 28.65625 8.5625 28.554688 8.410156 28.484375 8.242188 C 28.414062 8.070312 28.378906 7.894531 28.378906 7.710938 C 28.378906 7.527344 28.414062 7.347656 28.484375 7.179688 C 28.554688 7.007812 28.65625 6.859375 28.785156 6.730469 C 29.050781 6.464844 29.375 6.328125 29.75 6.324219 Z M 33.046875 11.273438 C 33.332031 11.269531 33.597656 11.34375 33.835938 11.5 C 34.074219 11.65625 34.25 11.867188 34.359375 12.132812 C 34.429688 12.300781 34.464844 12.476562 34.464844 12.660156 C 34.464844 12.847656 34.429688 13.023438 34.359375 13.191406 C 34.289062 13.363281 34.1875 13.511719 34.058594 13.644531 C 33.929688 13.773438 33.777344 13.875 33.609375 13.945312 C 33.4375 14.015625 33.261719 14.050781 33.078125 14.050781 C 32.894531 14.050781 32.714844 14.015625 32.546875 13.945312 C 32.375 13.871094 32.226562 13.773438 32.097656 13.640625 C 31.964844 13.511719 31.867188 13.359375 31.796875 13.191406 C 31.726562 13.019531 31.691406 12.84375 31.691406 12.660156 C 31.691406 12.476562 31.726562 12.296875 31.796875 12.128906 C 31.867188 11.957031 31.96875 11.808594 32.097656 11.679688 C 32.226562 11.546875 32.378906 11.449219 32.550781 11.378906 C 32.707031 11.3125 32.875 11.277344 33.046875 11.273438 Z M 10.675781 12.9375 C 11.050781 12.949219 11.367188 13.089844 11.628906 13.359375 L 20.363281 22.09375 L 23.546875 18.910156 C 23.675781 18.773438 23.824219 18.671875 23.996094 18.597656 C 24.167969 18.523438 24.34375 18.484375 24.53125 18.484375 C 24.71875 18.480469 24.898438 18.515625 25.070312 18.585938 C 25.242188 18.65625 25.394531 18.757812 25.527344 18.890625 C 25.660156 19.023438 25.761719 19.171875 25.832031 19.347656 C 25.902344 19.519531 25.9375 19.699219 25.933594 19.886719 C 25.933594 20.070312 25.894531 20.25 25.820312 20.421875 C 25.746094 20.59375 25.640625 20.742188 25.507812 20.871094 L 21.34375 25.035156 C 21.214844 25.164062 21.0625 25.265625 20.894531 25.335938 C 20.722656 25.40625 20.546875 25.441406 20.363281 25.441406 C 20.179688 25.441406 20 25.40625 19.832031 25.335938 C 19.660156 25.265625 19.511719 25.164062 19.382812 25.035156 L 9.667969 15.320312 C 9.460938 15.121094 9.332031 14.882812 9.273438 14.601562 C 9.21875 14.320312 9.246094 14.046875 9.355469 13.785156 C 9.46875 13.523438 9.644531 13.3125 9.886719 13.15625 C 10.125 13.003906 10.390625 12.929688 10.675781 12.9375 Z M 34.242188 17.117188 C 34.425781 17.117188 34.601562 17.152344 34.769531 17.222656 C 34.941406 17.292969 35.089844 17.390625 35.222656 17.523438 C 35.351562 17.652344 35.453125 17.800781 35.523438 17.972656 C 35.59375 18.140625 35.628906 18.320312 35.628906 18.503906 C 35.628906 18.6875 35.59375 18.863281 35.523438 19.035156 C 35.453125 19.203125 35.351562 19.355469 35.222656 19.484375 C 35.089844 19.613281 34.941406 19.714844 34.769531 19.785156 C 34.601562 19.855469 34.425781 19.890625 34.242188 19.890625 C 34.054688 19.890625 33.878906 19.855469 33.710938 19.785156 C 33.539062 19.714844 33.390625 19.613281 33.257812 19.484375 C 33.128906 19.355469 33.027344 19.203125 32.957031 19.035156 C 32.886719 18.863281 32.851562 18.6875 32.851562 18.503906 C 32.851562 18.320312 32.886719 18.140625 32.957031 17.972656 C 33.027344 17.800781 33.128906 17.652344 33.257812 17.523438 C 33.390625 17.390625 33.539062 17.292969 33.710938 17.222656 C 33.878906 17.152344 34.054688 17.117188 34.242188 17.117188 Z M 33.070312 22.957031 C 33.257812 22.957031 33.4375 22.992188 33.609375 23.0625 C 33.777344 23.132812 33.929688 23.234375 34.058594 23.363281 C 34.1875 23.492188 34.289062 23.644531 34.359375 23.8125 C 34.429688 23.984375 34.464844 24.160156 34.464844 24.34375 C 34.464844 24.527344 34.429688 24.707031 34.359375 24.875 C 34.289062 25.046875 34.1875 25.195312 34.058594 25.328125 C 33.929688 25.457031 33.777344 25.558594 33.609375 25.628906 C 33.4375 25.699219 33.261719 25.734375 33.078125 25.734375 C 32.894531 25.734375 32.714844 25.699219 32.546875 25.628906 C 32.375 25.558594 32.226562 25.457031 32.097656 25.328125 C 31.964844 25.199219 31.867188 25.046875 31.796875 24.878906 C 31.726562 24.707031 31.691406 24.53125 31.691406 24.347656 C 31.691406 24.164062 31.726562 23.984375 31.796875 23.816406 C 31.902344 23.558594 32.070312 23.351562 32.300781 23.195312 C 32.535156 23.039062 32.789062 22.957031 33.070312 22.957031 Z M 29.75 27.910156 C 30.140625 27.902344 30.472656 28.039062 30.75 28.316406 C 30.878906 28.445312 30.980469 28.59375 31.050781 28.765625 C 31.121094 28.933594 31.15625 29.113281 31.15625 29.296875 C 31.15625 29.480469 31.121094 29.65625 31.050781 29.828125 C 30.980469 29.996094 30.878906 30.148438 30.75 30.277344 C 30.621094 30.40625 30.46875 30.507812 30.300781 30.578125 C 30.128906 30.648438 29.953125 30.683594 29.769531 30.683594 C 29.585938 30.683594 29.40625 30.648438 29.238281 30.578125 C 29.066406 30.507812 28.917969 30.40625 28.785156 30.277344 C 28.65625 30.148438 28.554688 29.996094 28.484375 29.828125 C 28.414062 29.65625 28.378906 29.480469 28.378906 29.296875 C 28.378906 29.113281 28.414062 28.933594 28.484375 28.765625 C 28.554688 28.59375 28.65625 28.445312 28.785156 28.316406 C 29.050781 28.050781 29.375 27.914062 29.75 27.910156 Z M 24.785156 31.21875 C 25.074219 31.210938 25.335938 31.285156 25.574219 31.445312 C 25.8125 31.601562 25.988281 31.808594 26.097656 32.074219 C 26.167969 32.246094 26.203125 32.421875 26.203125 32.605469 C 26.203125 32.789062 26.167969 32.964844 26.097656 33.136719 C 26.027344 33.308594 25.925781 33.457031 25.796875 33.585938 C 25.667969 33.71875 25.515625 33.816406 25.347656 33.886719 C 25.175781 33.957031 25 33.992188 24.816406 33.992188 C 24.632812 33.992188 24.457031 33.957031 24.285156 33.886719 C 24.113281 33.816406 23.964844 33.71875 23.835938 33.585938 C 23.703125 33.457031 23.605469 33.308594 23.535156 33.136719 C 23.464844 32.96875 23.429688 32.789062 23.429688 32.605469 C 23.429688 32.421875 23.464844 32.246094 23.535156 32.074219 C 23.605469 31.90625 23.703125 31.753906 23.835938 31.625 C 23.964844 31.496094 24.113281 31.394531 24.285156 31.324219 C 24.445312 31.257812 24.613281 31.222656 24.785156 31.21875 Z M 24.785156 31.21875 " fill-opacity="1" fill-rule="nonzero"/></g><g clip-path="url(#404a58311b)"><path fill="#5019dd" d="M 19.207031 1.851562 C 19.019531 1.847656 18.839844 1.882812 18.667969 1.949219 C 18.496094 2.019531 18.34375 2.121094 18.210938 2.25 C 18.082031 2.378906 17.976562 2.53125 17.90625 2.703125 C 17.835938 2.875 17.800781 3.050781 17.800781 3.238281 C 17.800781 3.421875 17.835938 3.601562 17.90625 3.773438 C 17.976562 3.945312 18.082031 4.097656 18.210938 4.226562 C 18.34375 4.355469 18.496094 4.457031 18.667969 4.527344 C 18.839844 4.59375 19.019531 4.628906 19.207031 4.625 C 26.886719 4.625 33.082031 10.824219 33.082031 18.503906 C 33.082031 26.183594 26.886719 32.378906 19.207031 32.378906 C 19.019531 32.378906 18.839844 32.410156 18.667969 32.480469 C 18.496094 32.550781 18.34375 32.648438 18.210938 32.78125 C 18.082031 32.910156 17.976562 33.0625 17.90625 33.234375 C 17.835938 33.402344 17.800781 33.582031 17.800781 33.769531 C 17.800781 33.953125 17.835938 34.132812 17.90625 34.304688 C 17.976562 34.476562 18.082031 34.625 18.210938 34.757812 C 18.34375 34.886719 18.496094 34.988281 18.667969 35.054688 C 18.839844 35.125 19.019531 35.160156 19.207031 35.15625 C 28.386719 35.15625 35.859375 27.683594 35.859375 18.503906 C 35.859375 9.324219 28.386719 1.851562 19.207031 1.851562 Z M 13.375 3.011719 C 13.1875 3.011719 13.007812 3.046875 12.835938 3.117188 C 12.664062 3.1875 12.515625 3.289062 12.382812 3.417969 C 12.253906 3.546875 12.152344 3.699219 12.082031 3.867188 C 12.011719 4.039062 11.976562 4.214844 11.976562 4.398438 C 11.976562 4.582031 12.011719 4.757812 12.082031 4.929688 C 12.152344 5.101562 12.25 5.25 12.382812 5.378906 C 12.511719 5.511719 12.660156 5.609375 12.832031 5.683594 C 13 5.753906 13.179688 5.789062 13.363281 5.789062 C 13.546875 5.789062 13.722656 5.753906 13.894531 5.683594 C 14.0625 5.613281 14.214844 5.511719 14.34375 5.382812 C 14.476562 5.253906 14.574219 5.101562 14.648438 4.933594 C 14.71875 4.761719 14.753906 4.585938 14.753906 4.402344 C 14.753906 4.21875 14.71875 4.039062 14.648438 3.871094 C 14.539062 3.613281 14.371094 3.40625 14.140625 3.25 C 13.90625 3.09375 13.652344 3.015625 13.375 3.011719 Z M 8.433594 6.324219 C 8.042969 6.316406 7.707031 6.453125 7.433594 6.730469 C 7.300781 6.859375 7.203125 7.007812 7.132812 7.179688 C 7.0625 7.347656 7.027344 7.527344 7.027344 7.710938 C 7.027344 7.894531 7.0625 8.070312 7.132812 8.242188 C 7.203125 8.410156 7.300781 8.5625 7.433594 8.691406 C 7.5625 8.820312 7.710938 8.921875 7.882812 8.992188 C 8.050781 9.0625 8.230469 9.097656 8.414062 9.097656 C 8.597656 9.097656 8.773438 9.0625 8.945312 8.992188 C 9.113281 8.921875 9.265625 8.820312 9.394531 8.691406 C 9.523438 8.5625 9.625 8.410156 9.695312 8.242188 C 9.765625 8.070312 9.800781 7.894531 9.800781 7.710938 C 9.800781 7.527344 9.765625 7.347656 9.695312 7.179688 C 9.625 7.007812 9.523438 6.859375 9.394531 6.730469 C 9.128906 6.464844 8.808594 6.328125 8.433594 6.324219 Z M 5.132812 11.273438 C 4.847656 11.269531 4.585938 11.34375 4.34375 11.5 C 4.105469 11.65625 3.929688 11.867188 3.820312 12.132812 C 3.75 12.300781 3.714844 12.476562 3.714844 12.660156 C 3.714844 12.847656 3.75 13.023438 3.820312 13.191406 C 3.890625 13.363281 3.992188 13.511719 4.121094 13.644531 C 4.253906 13.773438 4.402344 13.875 4.574219 13.945312 C 4.742188 14.015625 4.921875 14.050781 5.105469 14.050781 C 5.289062 14.050781 5.464844 14.015625 5.636719 13.945312 C 5.804688 13.871094 5.957031 13.773438 6.085938 13.640625 C 6.214844 13.511719 6.316406 13.359375 6.386719 13.191406 C 6.457031 13.019531 6.492188 12.84375 6.492188 12.660156 C 6.492188 12.476562 6.457031 12.296875 6.386719 12.128906 C 6.3125 11.957031 6.214844 11.808594 6.082031 11.679688 C 5.953125 11.546875 5.804688 11.449219 5.632812 11.378906 C 5.472656 11.3125 5.304688 11.277344 5.132812 11.273438 Z M 27.503906 12.9375 C 27.132812 12.949219 26.8125 13.089844 26.550781 13.359375 L 17.820312 22.09375 L 14.636719 18.910156 C 14.507812 18.773438 14.355469 18.671875 14.1875 18.597656 C 14.015625 18.523438 13.835938 18.484375 13.648438 18.484375 C 13.464844 18.480469 13.285156 18.515625 13.109375 18.585938 C 12.9375 18.65625 12.785156 18.757812 12.652344 18.890625 C 12.523438 19.023438 12.421875 19.171875 12.351562 19.347656 C 12.28125 19.519531 12.246094 19.699219 12.246094 19.886719 C 12.25 20.070312 12.289062 20.25 12.363281 20.421875 C 12.433594 20.59375 12.539062 20.742188 12.675781 20.871094 L 16.835938 25.035156 C 16.96875 25.164062 17.117188 25.265625 17.289062 25.335938 C 17.457031 25.40625 17.632812 25.441406 17.820312 25.441406 C 18.003906 25.441406 18.179688 25.40625 18.351562 25.335938 C 18.519531 25.265625 18.667969 25.164062 18.800781 25.035156 L 28.515625 15.320312 C 28.71875 15.121094 28.851562 14.882812 28.90625 14.601562 C 28.964844 14.320312 28.9375 14.046875 28.824219 13.785156 C 28.714844 13.523438 28.535156 13.3125 28.296875 13.15625 C 28.054688 13.003906 27.792969 12.929688 27.503906 12.9375 Z M 3.941406 17.117188 C 3.757812 17.117188 3.582031 17.152344 3.410156 17.222656 C 3.238281 17.292969 3.089844 17.390625 2.960938 17.523438 C 2.828125 17.652344 2.730469 17.800781 2.660156 17.972656 C 2.589844 18.140625 2.554688 18.320312 2.554688 18.503906 C 2.554688 18.6875 2.589844 18.863281 2.660156 19.035156 C 2.730469 19.203125 2.828125 19.355469 2.960938 19.484375 C 3.089844 19.613281 3.238281 19.714844 3.410156 19.785156 C 3.582031 19.855469 3.757812 19.890625 3.941406 19.890625 C 4.125 19.890625 4.300781 19.855469 4.472656 19.785156 C 4.640625 19.714844 4.792969 19.613281 4.921875 19.484375 C 5.050781 19.355469 5.152344 19.203125 5.222656 19.035156 C 5.292969 18.863281 5.328125 18.6875 5.328125 18.503906 C 5.328125 18.320312 5.292969 18.140625 5.222656 17.972656 C 5.152344 17.800781 5.050781 17.652344 4.921875 17.523438 C 4.792969 17.390625 4.640625 17.292969 4.472656 17.222656 C 4.300781 17.152344 4.125 17.117188 3.941406 17.117188 Z M 5.113281 22.957031 C 4.925781 22.957031 4.746094 22.992188 4.574219 23.0625 C 4.402344 23.132812 4.253906 23.234375 4.121094 23.363281 C 3.992188 23.492188 3.890625 23.644531 3.820312 23.8125 C 3.75 23.984375 3.714844 24.160156 3.714844 24.34375 C 3.714844 24.527344 3.75 24.707031 3.820312 24.875 C 3.890625 25.046875 3.992188 25.195312 4.121094 25.328125 C 4.253906 25.457031 4.402344 25.558594 4.574219 25.628906 C 4.742188 25.699219 4.917969 25.734375 5.105469 25.734375 C 5.289062 25.734375 5.464844 25.699219 5.636719 25.628906 C 5.804688 25.558594 5.957031 25.457031 6.085938 25.328125 C 6.214844 25.199219 6.316406 25.046875 6.386719 24.878906 C 6.457031 24.707031 6.492188 24.53125 6.492188 24.347656 C 6.492188 24.164062 6.457031 23.984375 6.386719 23.816406 C 6.28125 23.558594 6.109375 23.351562 5.878906 23.195312 C 5.648438 23.039062 5.390625 22.957031 5.113281 22.957031 Z M 8.433594 27.910156 C 8.042969 27.902344 7.707031 28.039062 7.433594 28.316406 C 7.300781 28.445312 7.203125 28.59375 7.132812 28.765625 C 7.0625 28.933594 7.027344 29.113281 7.027344 29.296875 C 7.027344 29.480469 7.0625 29.65625 7.132812 29.828125 C 7.203125 29.996094 7.300781 30.148438 7.433594 30.277344 C 7.5625 30.40625 7.710938 30.507812 7.882812 30.578125 C 8.050781 30.648438 8.230469 30.683594 8.414062 30.683594 C 8.597656 30.683594 8.773438 30.648438 8.945312 30.578125 C 9.113281 30.507812 9.265625 30.40625 9.394531 30.277344 C 9.523438 30.148438 9.625 29.996094 9.695312 29.828125 C 9.765625 29.65625 9.800781 29.480469 9.800781 29.296875 C 9.800781 29.113281 9.765625 28.933594 9.695312 28.765625 C 9.625 28.59375 9.523438 28.445312 9.394531 28.316406 C 9.128906 28.050781 8.808594 27.914062 8.433594 27.910156 Z M 13.394531 31.21875 C 13.109375 31.210938 12.847656 31.285156 12.605469 31.445312 C 12.367188 31.601562 12.191406 31.808594 12.082031 32.074219 C 12.011719 32.246094 11.976562 32.421875 11.976562 32.605469 C 11.976562 32.789062 12.011719 32.964844 12.082031 33.136719 C 12.152344 33.308594 12.253906 33.457031 12.382812 33.585938 C 12.515625 33.71875 12.664062 33.816406 12.835938 33.886719 C 13.003906 33.957031 13.179688 33.992188 13.363281 33.992188 C 13.550781 33.992188 13.726562 33.957031 13.894531 33.886719 C 14.066406 33.816406 14.214844 33.71875 14.347656 33.585938 C 14.476562 33.457031 14.578125 33.308594 14.648438 33.136719 C 14.71875 32.96875 14.753906 32.789062 14.753906 32.605469 C 14.753906 32.421875 14.71875 32.246094 14.648438 32.074219 C 14.578125 31.90625 14.476562 31.753906 14.347656 31.625 C 14.214844 31.496094 14.066406 31.394531 13.898438 31.324219 C 13.734375 31.257812 13.570312 31.222656 13.394531 31.21875 Z M 13.394531 31.21875 " fill-opacity="1" fill-rule="nonzero"/></g><g clip-path="url(#addc32774a)"><path fill="#5019dd" d="M 18.976562 1.851562 C 19.160156 1.847656 19.339844 1.882812 19.511719 1.949219 C 19.683594 2.019531 19.835938 2.121094 19.96875 2.25 C 20.101562 2.378906 20.203125 2.53125 20.273438 2.703125 C 20.347656 2.875 20.382812 3.050781 20.382812 3.238281 C 20.382812 3.421875 20.347656 3.601562 20.273438 3.773438 C 20.203125 3.945312 20.101562 4.097656 19.96875 4.226562 C 19.835938 4.355469 19.683594 4.457031 19.511719 4.527344 C 19.339844 4.59375 19.160156 4.628906 18.976562 4.625 C 11.292969 4.625 5.097656 10.824219 5.097656 18.503906 C 5.097656 26.183594 11.292969 32.378906 18.976562 32.378906 C 19.160156 32.378906 19.339844 32.410156 19.511719 32.480469 C 19.683594 32.550781 19.835938 32.648438 19.96875 32.78125 C 20.101562 32.910156 20.203125 33.0625 20.273438 33.234375 C 20.347656 33.402344 20.382812 33.582031 20.382812 33.769531 C 20.382812 33.953125 20.347656 34.132812 20.273438 34.304688 C 20.203125 34.476562 20.101562 34.625 19.96875 34.757812 C 19.835938 34.886719 19.683594 34.988281 19.511719 35.054688 C 19.339844 35.125 19.160156 35.160156 18.976562 35.15625 C 9.792969 35.15625 2.320312 27.683594 2.320312 18.503906 C 2.320312 9.324219 9.792969 1.851562 18.976562 1.851562 Z M 24.808594 3.011719 C 24.996094 3.011719 25.175781 3.046875 25.347656 3.117188 C 25.515625 3.1875 25.667969 3.289062 25.796875 3.417969 C 25.925781 3.546875 26.027344 3.699219 26.097656 3.867188 C 26.167969 4.039062 26.203125 4.214844 26.207031 4.398438 C 26.207031 4.582031 26.171875 4.757812 26.101562 4.929688 C 26.03125 5.101562 25.929688 5.25 25.800781 5.378906 C 25.671875 5.511719 25.519531 5.609375 25.351562 5.683594 C 25.179688 5.753906 25.003906 5.789062 24.820312 5.789062 C 24.636719 5.789062 24.457031 5.753906 24.289062 5.683594 C 24.117188 5.613281 23.96875 5.511719 23.835938 5.382812 C 23.707031 5.253906 23.605469 5.101562 23.535156 4.933594 C 23.464844 4.761719 23.429688 4.585938 23.429688 4.402344 C 23.429688 4.21875 23.464844 4.039062 23.535156 3.871094 C 23.640625 3.613281 23.808594 3.40625 24.042969 3.25 C 24.273438 3.09375 24.527344 3.015625 24.808594 3.011719 Z M 29.75 6.324219 C 30.140625 6.316406 30.472656 6.453125 30.75 6.730469 C 30.878906 6.859375 30.980469 7.007812 31.050781 7.179688 C 31.121094 7.347656 31.15625 7.527344 31.15625 7.710938 C 31.15625 7.894531 31.121094 8.070312 31.050781 8.242188 C 30.980469 8.410156 30.878906 8.5625 30.75 8.691406 C 30.621094 8.820312 30.46875 8.921875 30.300781 8.992188 C 30.128906 9.0625 29.953125 9.097656 29.769531 9.097656 C 29.585938 9.097656 29.40625 9.0625 29.238281 8.992188 C 29.066406 8.921875 28.917969 8.820312 28.785156 8.691406 C 28.65625 8.5625 28.554688 8.410156 28.484375 8.242188 C 28.414062 8.070312 28.378906 7.894531 28.378906 7.710938 C 28.378906 7.527344 28.414062 7.347656 28.484375 7.179688 C 28.554688 7.007812 28.65625 6.859375 28.785156 6.730469 C 29.050781 6.464844 29.375 6.328125 29.75 6.324219 Z M 33.046875 11.273438 C 33.332031 11.269531 33.597656 11.34375 33.835938 11.5 C 34.074219 11.65625 34.25 11.867188 34.359375 12.132812 C 34.429688 12.300781 34.464844 12.476562 34.464844 12.660156 C 34.464844 12.847656 34.429688 13.023438 34.359375 13.191406 C 34.289062 13.363281 34.1875 13.511719 34.058594 13.644531 C 33.929688 13.773438 33.777344 13.875 33.609375 13.945312 C 33.4375 14.015625 33.261719 14.050781 33.078125 14.050781 C 32.894531 14.050781 32.714844 14.015625 32.546875 13.945312 C 32.375 13.871094 32.226562 13.773438 32.097656 13.640625 C 31.964844 13.511719 31.867188 13.359375 31.796875 13.191406 C 31.726562 13.019531 31.691406 12.84375 31.691406 12.660156 C 31.691406 12.476562 31.726562 12.296875 31.796875 12.128906 C 31.867188 11.957031 31.96875 11.808594 32.097656 11.679688 C 32.226562 11.546875 32.378906 11.449219 32.550781 11.378906 C 32.707031 11.3125 32.875 11.277344 33.046875 11.273438 Z M 10.675781 12.9375 C 11.050781 12.949219 11.367188 13.089844 11.628906 13.359375 L 20.363281 22.09375 L 23.546875 18.910156 C 23.675781 18.773438 23.824219 18.671875 23.996094 18.597656 C 24.167969 18.523438 24.34375 18.484375 24.53125 18.484375 C 24.71875 18.480469 24.898438 18.515625 25.070312 18.585938 C 25.242188 18.65625 25.394531 18.757812 25.527344 18.890625 C 25.660156 19.023438 25.761719 19.171875 25.832031 19.347656 C 25.902344 19.519531 25.9375 19.699219 25.933594 19.886719 C 25.933594 20.070312 25.894531 20.25 25.820312 20.421875 C 25.746094 20.59375 25.640625 20.742188 25.507812 20.871094 L 21.34375 25.035156 C 21.214844 25.164062 21.0625 25.265625 20.894531 25.335938 C 20.722656 25.40625 20.546875 25.441406 20.363281 25.441406 C 20.179688 25.441406 20 25.40625 19.832031 25.335938 C 19.660156 25.265625 19.511719 25.164062 19.382812 25.035156 L 9.667969 15.320312 C 9.460938 15.121094 9.332031 14.882812 9.273438 14.601562 C 9.21875 14.320312 9.246094 14.046875 9.355469 13.785156 C 9.46875 13.523438 9.644531 13.3125 9.886719 13.15625 C 10.125 13.003906 10.390625 12.929688 10.675781 12.9375 Z M 34.242188 17.117188 C 34.425781 17.117188 34.601562 17.152344 34.769531 17.222656 C 34.941406 17.292969 35.089844 17.390625 35.222656 17.523438 C 35.351562 17.652344 35.453125 17.800781 35.523438 17.972656 C 35.59375 18.140625 35.628906 18.320312 35.628906 18.503906 C 35.628906 18.6875 35.59375 18.863281 35.523438 19.035156 C 35.453125 19.203125 35.351562 19.355469 35.222656 19.484375 C 35.089844 19.613281 34.941406 19.714844 34.769531 19.785156 C 34.601562 19.855469 34.425781 19.890625 34.242188 19.890625 C 34.054688 19.890625 33.878906 19.855469 33.710938 19.785156 C 33.539062 19.714844 33.390625 19.613281 33.257812 19.484375 C 33.128906 19.355469 33.027344 19.203125 32.957031 19.035156 C 32.886719 18.863281 32.851562 18.6875 32.851562 18.503906 C 32.851562 18.320312 32.886719 18.140625 32.957031 17.972656 C 33.027344 17.800781 33.128906 17.652344 33.257812 17.523438 C 33.390625 17.390625 33.539062 17.292969 33.710938 17.222656 C 33.878906 17.152344 34.054688 17.117188 34.242188 17.117188 Z M 33.070312 22.957031 C 33.257812 22.957031 33.4375 22.992188 33.609375 23.0625 C 33.777344 23.132812 33.929688 23.234375 34.058594 23.363281 C 34.1875 23.492188 34.289062 23.644531 34.359375 23.8125 C 34.429688 23.984375 34.464844 24.160156 34.464844 24.34375 C 34.464844 24.527344 34.429688 24.707031 34.359375 24.875 C 34.289062 25.046875 34.1875 25.195312 34.058594 25.328125 C 33.929688 25.457031 33.777344 25.558594 33.609375 25.628906 C 33.4375 25.699219 33.261719 25.734375 33.078125 25.734375 C 32.894531 25.734375 32.714844 25.699219 32.546875 25.628906 C 32.375 25.558594 32.226562 25.457031 32.097656 25.328125 C 31.964844 25.199219 31.867188 25.046875 31.796875 24.878906 C 31.726562 24.707031 31.691406 24.53125 31.691406 24.347656 C 31.691406 24.164062 31.726562 23.984375 31.796875 23.816406 C 31.902344 23.558594 32.070312 23.351562 32.300781 23.195312 C 32.535156 23.039062 32.789062 22.957031 33.070312 22.957031 Z M 29.75 27.910156 C 30.140625 27.902344 30.472656 28.039062 30.75 28.316406 C 30.878906 28.445312 30.980469 28.59375 31.050781 28.765625 C 31.121094 28.933594 31.15625 29.113281 31.15625 29.296875 C 31.15625 29.480469 31.121094 29.65625 31.050781 29.828125 C 30.980469 29.996094 30.878906 30.148438 30.75 30.277344 C 30.621094 30.40625 30.46875 30.507812 30.300781 30.578125 C 30.128906 30.648438 29.953125 30.683594 29.769531 30.683594 C 29.585938 30.683594 29.40625 30.648438 29.238281 30.578125 C 29.066406 30.507812 28.917969 30.40625 28.785156 30.277344 C 28.65625 30.148438 28.554688 29.996094 28.484375 29.828125 C 28.414062 29.65625 28.378906 29.480469 28.378906 29.296875 C 28.378906 29.113281 28.414062 28.933594 28.484375 28.765625 C 28.554688 28.59375 28.65625 28.445312 28.785156 28.316406 C 29.050781 28.050781 29.375 27.914062 29.75 27.910156 Z M 24.785156 31.21875 C 25.074219 31.210938 25.335938 31.285156 25.574219 31.445312 C 25.8125 31.601562 25.988281 31.808594 26.097656 32.074219 C 26.167969 32.246094 26.203125 32.421875 26.203125 32.605469 C 26.203125 32.789062 26.167969 32.964844 26.097656 33.136719 C 26.027344 33.308594 25.925781 33.457031 25.796875 33.585938 C 25.667969 33.71875 25.515625 33.816406 25.347656 33.886719 C 25.175781 33.957031 25 33.992188 24.816406 33.992188 C 24.632812 33.992188 24.457031 33.957031 24.285156 33.886719 C 24.113281 33.816406 23.964844 33.71875 23.835938 33.585938 C 23.703125 33.457031 23.605469 33.308594 23.535156 33.136719 C 23.464844 32.96875 23.429688 32.789062 23.429688 32.605469 C 23.429688 32.421875 23.464844 32.246094 23.535156 32.074219 C 23.605469 31.90625 23.703125 31.753906 23.835938 31.625 C 23.964844 31.496094 24.113281 31.394531 24.285156 31.324219 C 24.445312 31.257812 24.613281 31.222656 24.785156 31.21875 Z M 24.785156 31.21875 " fill-opacity="1" fill-rule="nonzero"/></g><g clip-path="url(#ace3c309f2)"><path fill="#ffffff" d="M 27.441406 19.464844 C 27.441406 20 27.386719 20.53125 27.285156 21.054688 C 27.179688 21.578125 27.023438 22.085938 26.820312 22.582031 C 26.617188 23.074219 26.363281 23.542969 26.066406 23.988281 C 25.769531 24.433594 25.433594 24.84375 25.054688 25.222656 C 24.675781 25.601562 24.265625 25.9375 23.820312 26.234375 C 23.378906 26.53125 22.910156 26.78125 22.414062 26.988281 C 21.921875 27.191406 21.410156 27.347656 20.886719 27.449219 C 20.363281 27.554688 19.832031 27.605469 19.296875 27.605469 C 18.765625 27.605469 18.234375 27.554688 17.710938 27.449219 C 17.1875 27.347656 16.675781 27.191406 16.183594 26.988281 C 15.6875 26.78125 15.21875 26.53125 14.777344 26.234375 C 14.332031 25.9375 13.921875 25.601562 13.542969 25.222656 C 13.164062 24.84375 12.828125 24.433594 12.53125 23.988281 C 12.234375 23.542969 11.980469 23.074219 11.777344 22.582031 C 11.574219 22.085938 11.417969 21.578125 11.3125 21.054688 C 11.210938 20.53125 11.15625 20 11.15625 19.464844 C 11.15625 18.929688 11.210938 18.402344 11.3125 17.878906 C 11.417969 17.351562 11.574219 16.84375 11.777344 16.351562 C 11.980469 15.855469 12.234375 15.386719 12.53125 14.941406 C 12.828125 14.496094 13.164062 14.085938 13.542969 13.707031 C 13.921875 13.332031 14.332031 12.992188 14.777344 12.695312 C 15.21875 12.398438 15.6875 12.148438 16.183594 11.945312 C 16.675781 11.738281 17.1875 11.585938 17.710938 11.480469 C 18.234375 11.375 18.765625 11.324219 19.296875 11.324219 C 19.832031 11.324219 20.363281 11.375 20.886719 11.480469 C 21.410156 11.585938 21.921875 11.738281 22.414062 11.945312 C 22.910156 12.148438 23.378906 12.398438 23.820312 12.695312 C 24.265625 12.992188 24.675781 13.332031 25.054688 13.707031 C 25.433594 14.085938 25.769531 14.496094 26.066406 14.941406 C 26.363281 15.386719 26.617188 15.855469 26.820312 16.351562 C 27.023438 16.84375 27.179688 17.351562 27.285156 17.878906 C 27.386719 18.402344 27.441406 18.929688 27.441406 19.464844 Z M 27.441406 19.464844 " fill-opacity="1" fill-rule="nonzero"/></g></svg>