<svg xmlns="http://www.w3.org/2000/svg" xmlns:xlink="http://www.w3.org/1999/xlink" width="50" zoomAndPan="magnify" viewBox="0 0 37.5 37.499999" height="50" preserveAspectRatio="xMidYMid meet" version="1.0"><defs><clipPath id="f8f30134db"><path d="M 0.582031 6.742188 L 36.109375 6.742188 L 36.109375 30.425781 L 0.582031 30.425781 Z M 0.582031 6.742188 " clip-rule="nonzero"/></clipPath><clipPath id="f5b1ba350d"><path d="M 0.976562 7 L 35.761719 7 L 35.761719 29.941406 L 0.976562 29.941406 Z M 0.976562 7 " clip-rule="nonzero"/></clipPath><clipPath id="710e9395e9"><path d="M 14.394531 14.816406 L 22.535156 14.816406 L 22.535156 22.214844 L 14.394531 22.214844 Z M 14.394531 14.816406 " clip-rule="nonzero"/></clipPath></defs><g clip-path="url(#f8f30134db)"><path fill="#000000" d="M 34.074219 6.800781 L 2.589844 6.800781 C 2.320312 6.804688 2.0625 6.855469 1.816406 6.960938 C 1.570312 7.0625 1.351562 7.210938 1.164062 7.402344 C 0.972656 7.597656 0.828125 7.816406 0.726562 8.066406 C 0.621094 8.320312 0.570312 8.582031 0.570312 8.851562 L 0.570312 28.34375 C 0.570312 28.617188 0.621094 28.878906 0.726562 29.128906 C 0.828125 29.378906 0.972656 29.601562 1.164062 29.792969 C 1.351562 29.984375 1.570312 30.132812 1.816406 30.238281 C 2.0625 30.34375 2.320312 30.394531 2.589844 30.394531 L 34.074219 30.394531 C 34.34375 30.394531 34.597656 30.34375 34.847656 30.238281 C 35.09375 30.132812 35.3125 29.984375 35.5 29.792969 C 35.691406 29.601562 35.835938 29.378906 35.9375 29.128906 C 36.042969 28.878906 36.09375 28.617188 36.09375 28.34375 L 36.09375 8.851562 C 36.09375 8.582031 36.042969 8.320312 35.9375 8.066406 C 35.835938 7.816406 35.691406 7.59375 35.5 7.402344 C 35.3125 7.210938 35.09375 7.0625 34.847656 6.960938 C 34.597656 6.855469 34.34375 6.804688 34.074219 6.800781 Z M 23.914062 18.597656 L 35 8.5625 C 35.03125 8.65625 35.046875 8.753906 35.046875 8.851562 L 35.046875 28.34375 C 35.046875 28.445312 35.03125 28.542969 35 28.636719 Z M 34.074219 7.863281 C 34.109375 7.867188 34.148438 7.871094 34.183594 7.875 L 18.976562 21.644531 C 18.792969 21.8125 18.574219 21.894531 18.328125 21.894531 C 18.082031 21.894531 17.867188 21.8125 17.683594 21.644531 L 2.480469 7.875 C 2.515625 7.871094 2.550781 7.867188 2.589844 7.863281 Z M 1.664062 28.636719 C 1.632812 28.542969 1.617188 28.445312 1.617188 28.34375 L 1.617188 8.851562 C 1.617188 8.753906 1.632812 8.65625 1.664062 8.5625 L 12.75 18.597656 Z M 2.589844 29.332031 C 2.550781 29.332031 2.515625 29.328125 2.480469 29.324219 L 13.535156 19.3125 L 16.988281 22.4375 C 17.175781 22.605469 17.382812 22.734375 17.613281 22.824219 C 17.84375 22.914062 18.085938 22.957031 18.332031 22.957031 C 18.578125 22.957031 18.820312 22.914062 19.050781 22.824219 C 19.28125 22.734375 19.488281 22.605469 19.671875 22.4375 L 23.128906 19.308594 L 34.183594 29.320312 C 34.148438 29.328125 34.109375 29.332031 34.074219 29.332031 Z M 2.589844 29.332031 " fill-opacity="1" fill-rule="nonzero"/></g><g clip-path="url(#f5b1ba350d)"><path fill="#7ed957" d="M 34.019531 7.054688 L 2.953125 7.054688 C 2.6875 7.054688 2.433594 7.105469 2.191406 7.207031 C 1.949219 7.308594 1.734375 7.453125 1.546875 7.640625 C 1.359375 7.824219 1.214844 8.042969 1.113281 8.285156 C 1.011719 8.527344 0.960938 8.78125 0.960938 9.046875 L 0.960938 27.980469 C 0.960938 28.246094 1.011719 28.5 1.113281 28.742188 C 1.214844 28.988281 1.359375 29.203125 1.546875 29.386719 C 1.734375 29.574219 1.949219 29.71875 2.191406 29.820312 C 2.433594 29.921875 2.6875 29.972656 2.953125 29.972656 L 34.019531 29.972656 C 34.28125 29.972656 34.535156 29.921875 34.78125 29.820312 C 35.023438 29.71875 35.238281 29.574219 35.425781 29.390625 C 35.613281 29.203125 35.757812 28.988281 35.859375 28.742188 C 35.960938 28.5 36.011719 28.246094 36.011719 27.980469 L 36.011719 9.046875 C 36.011719 8.78125 35.960938 8.527344 35.859375 8.285156 C 35.757812 8.042969 35.613281 7.824219 35.425781 7.640625 C 35.238281 7.453125 35.023438 7.308594 34.78125 7.207031 C 34.535156 7.105469 34.28125 7.054688 34.019531 7.054688 Z M 23.996094 18.515625 L 34.929688 8.765625 C 34.960938 8.855469 34.976562 8.949219 34.980469 9.046875 L 34.980469 27.980469 C 34.976562 28.078125 34.960938 28.171875 34.929688 28.261719 Z M 34.019531 8.085938 C 34.054688 8.089844 34.089844 8.09375 34.125 8.097656 L 19.121094 21.472656 C 18.941406 21.636719 18.726562 21.714844 18.484375 21.714844 C 18.238281 21.714844 18.027344 21.636719 17.847656 21.472656 L 2.84375 8.097656 C 2.878906 8.09375 2.917969 8.089844 2.953125 8.085938 Z M 2.042969 28.261719 C 2.011719 28.171875 1.996094 28.078125 1.992188 27.980469 L 1.992188 9.046875 C 1.996094 8.949219 2.011719 8.855469 2.042969 8.765625 L 12.976562 18.515625 Z M 2.953125 28.941406 C 2.917969 28.941406 2.878906 28.9375 2.84375 28.929688 L 13.753906 19.207031 L 17.164062 22.242188 C 17.34375 22.40625 17.550781 22.53125 17.777344 22.617188 C 18.007812 22.703125 18.242188 22.75 18.484375 22.75 C 18.730469 22.75 18.964844 22.703125 19.195312 22.617188 C 19.421875 22.53125 19.628906 22.40625 19.808594 22.242188 L 23.21875 19.203125 L 34.128906 28.929688 C 34.089844 28.933594 34.054688 28.9375 34.019531 28.941406 Z M 2.953125 28.941406 " fill-opacity="1" fill-rule="nonzero"/></g><path fill="#7ed957" d="M 19.335938 18.882812 C 19.222656 18.820312 19.140625 18.71875 19.101562 18.597656 C 19.019531 18.316406 18.777344 18.121094 18.5 18.121094 C 18.222656 18.121094 17.980469 18.328125 17.894531 18.597656 C 17.859375 18.71875 17.773438 18.820312 17.664062 18.882812 C 17.226562 19.136719 17.132812 19.628906 17.132812 19.980469 C 17.132812 20.464844 18.054688 20.480469 18.332031 19.960938 C 18.40625 19.832031 18.59375 19.832031 18.65625 19.960938 C 18.9375 20.480469 19.855469 20.464844 19.855469 19.980469 C 19.863281 19.636719 19.773438 19.136719 19.335938 18.882812 Z M 19.335938 18.882812 " fill-opacity="1" fill-rule="nonzero"/><path fill="#7ed957" d="M 17.398438 17.847656 C 17.539062 17.984375 17.621094 18.140625 17.648438 18.3125 C 17.675781 18.480469 17.640625 18.617188 17.539062 18.71875 C 17.4375 18.820312 17.300781 18.859375 17.128906 18.832031 C 16.960938 18.804688 16.804688 18.722656 16.664062 18.582031 C 16.523438 18.441406 16.441406 18.285156 16.414062 18.117188 C 16.386719 17.945312 16.425781 17.808594 16.527344 17.707031 C 16.628906 17.605469 16.765625 17.570312 16.933594 17.597656 C 17.105469 17.625 17.261719 17.707031 17.398438 17.847656 Z M 17.398438 17.847656 " fill-opacity="1" fill-rule="nonzero"/><path fill="#7ed957" d="M 18.394531 17.238281 C 18.441406 17.40625 18.4375 17.5625 18.375 17.710938 C 18.3125 17.859375 18.214844 17.953125 18.078125 17.992188 C 17.9375 18.035156 17.804688 18.011719 17.671875 17.921875 C 17.539062 17.832031 17.445312 17.703125 17.398438 17.539062 C 17.347656 17.371094 17.351562 17.214844 17.414062 17.066406 C 17.476562 16.917969 17.578125 16.824219 17.714844 16.785156 C 17.851562 16.742188 17.988281 16.765625 18.121094 16.855469 C 18.25 16.945312 18.34375 17.070312 18.394531 17.238281 Z M 18.394531 17.238281 " fill-opacity="1" fill-rule="nonzero"/><path fill="#7ed957" d="M 20.472656 17.710938 C 20.574219 17.8125 20.613281 17.949219 20.585938 18.117188 C 20.558594 18.289062 20.476562 18.445312 20.335938 18.585938 C 20.195312 18.722656 20.042969 18.808594 19.871094 18.832031 C 19.699219 18.859375 19.5625 18.824219 19.460938 18.722656 C 19.359375 18.621094 19.324219 18.484375 19.351562 18.3125 C 19.378906 18.144531 19.460938 17.988281 19.601562 17.847656 C 19.738281 17.707031 19.894531 17.625 20.066406 17.597656 C 20.234375 17.570312 20.371094 17.609375 20.472656 17.710938 Z M 20.472656 17.710938 " fill-opacity="1" fill-rule="nonzero"/><path fill="#7ed957" d="M 19.28125 16.785156 C 19.421875 16.828125 19.519531 16.921875 19.582031 17.070312 C 19.644531 17.214844 19.648438 17.375 19.601562 17.539062 C 19.550781 17.707031 19.457031 17.835938 19.324219 17.925781 C 19.191406 18.011719 19.058594 18.039062 18.921875 17.996094 C 18.78125 17.953125 18.683594 17.859375 18.621094 17.714844 C 18.558594 17.566406 18.554688 17.410156 18.601562 17.242188 C 18.652344 17.074219 18.746094 16.945312 18.878906 16.859375 C 19.011719 16.769531 19.144531 16.746094 19.28125 16.785156 Z M 19.28125 16.785156 " fill-opacity="1" fill-rule="nonzero"/><g clip-path="url(#710e9395e9)"><path fill="#7ed957" d="M 20.46875 15 C 19.625 14.835938 18.890625 15.160156 18.5 15.875 C 18.109375 15.167969 17.386719 14.835938 16.53125 15 C 15.472656 15.214844 14.394531 16.238281 14.441406 17.574219 C 14.523438 20.007812 17.960938 21.957031 18.453125 22.152344 C 18.472656 22.164062 18.492188 22.164062 18.5 22.164062 C 18.507812 22.164062 18.535156 22.164062 18.546875 22.152344 C 19.027344 21.957031 22.476562 20.007812 22.558594 17.574219 C 22.605469 16.238281 21.527344 15.214844 20.46875 15 Z M 22.28125 17.566406 C 22.214844 19.738281 19.101562 21.585938 18.5 21.867188 C 17.894531 21.585938 14.785156 19.738281 14.71875 17.566406 C 14.683594 16.375 15.640625 15.464844 16.59375 15.28125 C 16.726562 15.253906 16.847656 15.242188 16.96875 15.242188 C 17.617188 15.242188 18.128906 15.605469 18.371094 16.265625 C 18.386719 16.320312 18.445312 16.359375 18.5 16.359375 C 18.554688 16.359375 18.609375 16.320312 18.628906 16.265625 C 18.925781 15.484375 19.585938 15.121094 20.414062 15.289062 C 21.359375 15.464844 22.328125 16.375 22.28125 17.566406 Z M 22.28125 17.566406 " fill-opacity="1" fill-rule="nonzero"/></g></svg>