<svg xmlns="http://www.w3.org/2000/svg" xmlns:xlink="http://www.w3.org/1999/xlink" width="50" zoomAndPan="magnify" viewBox="0 0 37.5 37.499999" height="50" preserveAspectRatio="xMidYMid meet" version="1.0"><defs><clipPath id="f664515ce6"><path d="M 6 1.414062 L 12 1.414062 L 12 22 L 6 22 Z M 6 1.414062 " clip-rule="nonzero"/></clipPath><clipPath id="fcb34a5375"><path d="M 12 1.414062 L 22 1.414062 L 22 15 L 12 15 Z M 12 1.414062 " clip-rule="nonzero"/></clipPath><clipPath id="2b12e9e546"><path d="M 3.699219 10 L 8 10 L 8 11 L 3.699219 11 Z M 3.699219 10 " clip-rule="nonzero"/></clipPath><clipPath id="1c9d98d501"><path d="M 4 14 L 33.304688 14 L 33.304688 35.460938 L 4 35.460938 Z M 4 14 " clip-rule="nonzero"/></clipPath><clipPath id="b93a39d882"><path d="M 6 0.679688 L 12 0.679688 L 12 22 L 6 22 Z M 6 0.679688 " clip-rule="nonzero"/></clipPath><clipPath id="b3771a4922"><path d="M 12 0.679688 L 22 0.679688 L 22 15 L 12 15 Z M 12 0.679688 " clip-rule="nonzero"/></clipPath><clipPath id="90144baab4"><path d="M 3.699219 9 L 8 9 L 8 10 L 3.699219 10 Z M 3.699219 9 " clip-rule="nonzero"/></clipPath><clipPath id="0f3f8aeb58"><path d="M 4 14 L 33.304688 14 L 33.304688 34.726562 L 4 34.726562 Z M 4 14 " clip-rule="nonzero"/></clipPath></defs><g clip-path="url(#f664515ce6)"><path fill="#545454" d="M 8.257812 1.4375 C 8.074219 1.46875 7.945312 1.609375 7.875 1.863281 C 7.820312 2.0625 7.796875 2.214844 7.75 2.695312 C 7.675781 3.503906 7.667969 3.636719 7.675781 4.476562 C 7.691406 5.929688 7.6875 6.277344 7.648438 6.742188 C 7.628906 6.976562 7.59375 7.320312 7.574219 7.445312 C 7.566406 7.503906 7.550781 7.617188 7.539062 7.703125 C 7.480469 8.113281 7.390625 8.585938 7.289062 9.035156 C 7.1875 9.480469 7.179688 9.53125 7.148438 9.757812 C 7.136719 9.882812 7.128906 10.390625 7.140625 10.519531 C 7.144531 10.554688 7.15625 10.664062 7.164062 10.769531 C 7.195312 11.117188 7.246094 11.46875 7.3125 11.757812 C 7.328125 11.835938 7.351562 11.925781 7.355469 11.960938 C 7.390625 12.132812 7.585938 12.769531 7.800781 13.417969 C 8.027344 14.089844 8.066406 14.285156 8.066406 14.738281 C 8.066406 15.066406 8.046875 15.214844 7.976562 15.460938 C 7.882812 15.78125 7.773438 15.996094 7.464844 16.464844 C 7.359375 16.625 7.25 16.800781 7.21875 16.851562 C 7.144531 16.972656 6.914062 17.429688 6.867188 17.546875 C 6.847656 17.59375 6.8125 17.6875 6.785156 17.746094 C 6.761719 17.804688 6.714844 17.917969 6.6875 17.996094 C 6.660156 18.070312 6.621094 18.175781 6.601562 18.230469 C 6.433594 18.683594 6.257812 19.417969 6.207031 19.859375 C 6.199219 19.910156 6.191406 19.964844 6.1875 19.984375 C 6.183594 20.007812 6.179688 20.1875 6.175781 20.386719 C 6.164062 21.035156 6.230469 21.265625 6.515625 21.636719 C 6.566406 21.703125 6.617188 21.753906 6.625 21.75 C 6.640625 21.738281 6.726562 21.472656 6.765625 21.324219 C 6.785156 21.238281 6.789062 21.152344 6.785156 20.753906 C 6.785156 20.042969 6.820312 19.734375 6.972656 19.136719 C 7.058594 18.796875 7.246094 18.21875 7.34375 18 C 7.355469 17.96875 7.390625 17.886719 7.421875 17.820312 C 7.550781 17.519531 7.730469 17.179688 7.882812 16.949219 C 7.972656 16.808594 8.078125 16.652344 8.113281 16.597656 C 8.152344 16.539062 8.191406 16.476562 8.207031 16.453125 C 8.253906 16.382812 8.433594 16.019531 8.476562 15.910156 C 8.621094 15.523438 8.683594 15.160156 8.6875 14.699219 C 8.6875 14.40625 8.636719 14.042969 8.550781 13.742188 C 8.539062 13.699219 8.441406 13.40625 8.339844 13.082031 C 8.011719 12.078125 7.9375 11.796875 7.839844 11.246094 C 7.800781 11.042969 7.765625 10.632812 7.742188 10.246094 C 7.730469 9.96875 7.765625 9.714844 7.898438 9.128906 C 7.972656 8.800781 8 8.660156 8.082031 8.199219 C 8.101562 8.082031 8.125 7.949219 8.132812 7.902344 C 8.140625 7.851562 8.152344 7.761719 8.160156 7.703125 C 8.203125 7.414062 8.25 6.960938 8.285156 6.414062 C 8.304688 6.152344 8.304688 5.953125 8.296875 5.449219 C 8.28125 4.394531 8.285156 3.710938 8.3125 3.339844 C 8.355469 2.785156 8.398438 2.355469 8.417969 2.253906 C 8.425781 2.210938 8.464844 2.179688 8.519531 2.164062 C 8.5625 2.152344 8.785156 2.296875 9.140625 2.5625 C 9.199219 2.609375 9.265625 2.65625 9.285156 2.671875 C 9.320312 2.699219 9.832031 3.105469 10.035156 3.265625 C 10.152344 3.363281 10.515625 3.632812 10.679688 3.75 C 10.808594 3.839844 11.128906 4.082031 11.1875 4.128906 C 11.328125 4.246094 11.417969 4.308594 11.53125 4.371094 C 11.640625 4.425781 11.675781 4.4375 11.742188 4.4375 C 11.890625 4.4375 11.941406 4.394531 11.941406 4.257812 C 11.941406 4.160156 11.925781 4.113281 11.828125 3.960938 C 11.753906 3.847656 11.53125 3.621094 11.371094 3.5 C 11.335938 3.472656 11.265625 3.417969 11.214844 3.382812 C 11.167969 3.34375 11.097656 3.292969 11.066406 3.269531 C 11.035156 3.25 10.984375 3.214844 10.957031 3.195312 C 10.929688 3.171875 10.839844 3.105469 10.761719 3.046875 C 10.683594 2.984375 10.59375 2.921875 10.570312 2.902344 C 10.542969 2.878906 10.484375 2.835938 10.4375 2.800781 C 10.386719 2.761719 10.300781 2.695312 10.238281 2.644531 C 10.179688 2.597656 10.113281 2.542969 10.09375 2.527344 C 10.070312 2.511719 9.988281 2.445312 9.910156 2.382812 C 9.675781 2.195312 9.644531 2.171875 9.488281 2.054688 C 9.335938 1.9375 9.289062 1.90625 9.070312 1.757812 C 8.835938 1.605469 8.785156 1.574219 8.65625 1.511719 C 8.554688 1.464844 8.375 1.414062 8.335938 1.425781 C 8.332031 1.425781 8.296875 1.429688 8.257812 1.4375 Z M 8.257812 1.4375 " fill-opacity="1" fill-rule="nonzero"/></g><g clip-path="url(#fcb34a5375)"><path fill="#545454" d="M 20.289062 1.546875 C 20.175781 1.578125 20.054688 1.636719 19.976562 1.695312 C 19.894531 1.757812 19.542969 2.035156 19.382812 2.167969 C 19.328125 2.214844 19.238281 2.285156 19.1875 2.324219 C 19.09375 2.398438 18.972656 2.496094 18.871094 2.582031 C 18.847656 2.601562 18.761719 2.664062 18.6875 2.722656 C 18.351562 2.980469 18.152344 3.128906 18.121094 3.148438 C 18.105469 3.160156 18.003906 3.238281 17.902344 3.316406 C 17.800781 3.398438 17.675781 3.496094 17.628906 3.535156 C 17.386719 3.722656 17.203125 3.773438 16.578125 3.835938 C 15.554688 3.9375 14.960938 3.933594 14.332031 3.824219 C 14.292969 3.816406 14.21875 3.804688 14.171875 3.796875 C 13.886719 3.746094 13.664062 3.699219 13.476562 3.644531 C 12.957031 3.503906 12.894531 3.492188 12.636719 3.507812 C 12.398438 3.519531 12.320312 3.53125 12.320312 3.550781 C 12.320312 3.566406 12.488281 3.757812 12.609375 3.875 C 12.734375 3.992188 12.800781 4.035156 13.078125 4.164062 C 13.21875 4.222656 13.492188 4.292969 13.9375 4.378906 C 14.476562 4.480469 14.90625 4.527344 15.371094 4.527344 C 15.664062 4.527344 16.472656 4.476562 16.777344 4.4375 C 17.535156 4.34375 17.664062 4.292969 18.148438 3.90625 C 18.300781 3.785156 18.503906 3.628906 18.832031 3.382812 C 18.976562 3.277344 19.140625 3.148438 19.25 3.0625 C 19.292969 3.03125 19.351562 2.980469 19.382812 2.957031 C 19.417969 2.929688 19.523438 2.84375 19.617188 2.769531 C 20.132812 2.347656 20.21875 2.285156 20.25 2.277344 C 20.273438 2.269531 20.300781 2.277344 20.324219 2.296875 C 20.363281 2.324219 20.363281 2.328125 20.367188 2.527344 C 20.375 2.792969 20.363281 2.871094 20.222656 3.65625 C 20.203125 3.78125 20.171875 3.917969 20.082031 4.285156 C 19.925781 4.910156 19.898438 5.070312 19.871094 5.476562 C 19.84375 5.878906 19.871094 6.441406 19.929688 6.792969 C 19.960938 6.96875 20.019531 7.246094 20.054688 7.378906 C 20.132812 7.6875 20.171875 7.820312 20.246094 8.070312 C 20.5 8.917969 20.539062 9.144531 20.539062 9.816406 C 20.539062 10.335938 20.527344 10.527344 20.453125 11.035156 C 20.441406 11.113281 20.425781 11.210938 20.421875 11.246094 C 20.417969 11.28125 20.40625 11.347656 20.398438 11.390625 C 20.386719 11.472656 20.371094 11.574219 20.339844 11.773438 C 20.269531 12.238281 20.226562 12.414062 20.03125 13.003906 C 19.96875 13.183594 19.882812 13.441406 19.839844 13.582031 C 19.796875 13.714844 19.71875 13.945312 19.667969 14.089844 C 19.621094 14.230469 19.578125 14.363281 19.578125 14.378906 C 19.578125 14.394531 19.570312 14.445312 19.558594 14.492188 C 19.511719 14.664062 19.59375 14.863281 19.710938 14.863281 C 19.914062 14.863281 20.125 14.617188 20.277344 14.207031 C 20.324219 14.074219 20.425781 13.765625 20.589844 13.265625 C 20.664062 13.035156 20.738281 12.8125 20.75 12.769531 C 20.773438 12.699219 20.789062 12.636719 20.855469 12.382812 C 20.871094 12.324219 20.875 12.296875 20.925781 11.992188 C 20.984375 11.640625 21.050781 11.214844 21.085938 10.9375 C 21.167969 10.332031 21.179688 9.460938 21.109375 9.019531 C 21.058594 8.714844 21.015625 8.515625 20.929688 8.230469 C 20.800781 7.789062 20.6875 7.382812 20.640625 7.191406 C 20.511719 6.65625 20.46875 6.277344 20.480469 5.71875 C 20.488281 5.246094 20.515625 5.078125 20.695312 4.355469 C 20.75 4.125 20.800781 3.90625 20.808594 3.867188 C 20.816406 3.832031 20.847656 3.644531 20.882812 3.449219 C 20.972656 2.933594 20.988281 2.78125 20.988281 2.535156 C 20.984375 2.375 20.96875 2.199219 20.941406 2.039062 C 20.917969 1.914062 20.824219 1.730469 20.746094 1.664062 C 20.613281 1.550781 20.4375 1.507812 20.289062 1.546875 Z M 20.289062 1.546875 " fill-opacity="1" fill-rule="nonzero"/></g><path fill="#545454" d="M 4.589844 7.988281 C 4.464844 8.007812 4.351562 8.023438 4.34375 8.023438 C 4.296875 8.023438 4.339844 8.054688 4.550781 8.160156 C 4.828125 8.300781 4.878906 8.320312 5.207031 8.382812 C 5.949219 8.53125 6.441406 8.695312 6.777344 8.910156 C 6.890625 8.980469 7.003906 9.035156 7.050781 9.035156 C 7.140625 9.035156 7.160156 8.933594 7.097656 8.804688 C 6.976562 8.566406 6.613281 8.339844 6.117188 8.191406 C 5.996094 8.152344 5.710938 8.078125 5.636719 8.0625 C 5.613281 8.058594 5.558594 8.046875 5.519531 8.039062 C 5.089844 7.949219 4.90625 7.9375 4.589844 7.988281 Z M 4.589844 7.988281 " fill-opacity="1" fill-rule="nonzero"/><path fill="#545454" d="M 23.011719 8.398438 C 22.53125 8.457031 21.910156 8.652344 21.667969 8.820312 C 21.605469 8.859375 21.515625 8.957031 21.492188 9.015625 C 21.460938 9.074219 21.460938 9.117188 21.492188 9.144531 C 21.527344 9.179688 21.589844 9.167969 21.972656 9.058594 C 22.601562 8.875 22.832031 8.820312 23.226562 8.773438 C 23.351562 8.757812 23.527344 8.726562 23.613281 8.703125 C 23.835938 8.644531 24.285156 8.507812 24.300781 8.492188 C 24.316406 8.476562 24.289062 8.472656 23.988281 8.433594 C 23.847656 8.414062 23.695312 8.398438 23.648438 8.390625 C 23.515625 8.375 23.183594 8.378906 23.011719 8.398438 Z M 23.011719 8.398438 " fill-opacity="1" fill-rule="nonzero"/><path fill="#545454" d="M 14.859375 10.03125 C 14.835938 10.039062 14.773438 10.082031 14.71875 10.132812 C 14.640625 10.199219 14.609375 10.246094 14.554688 10.355469 C 14.519531 10.429688 14.476562 10.519531 14.464844 10.550781 C 14.453125 10.582031 14.421875 10.65625 14.398438 10.714844 C 14.375 10.773438 14.332031 10.871094 14.308594 10.925781 C 14.285156 10.984375 14.253906 11.058594 14.242188 11.09375 C 14.214844 11.164062 14.1875 11.1875 14.121094 11.1875 C 14.070312 11.1875 14.050781 11.175781 13.925781 11.042969 C 13.851562 10.964844 13.710938 10.816406 13.613281 10.710938 C 13.5 10.589844 13.398438 10.496094 13.335938 10.453125 C 13.25 10.398438 13.230469 10.390625 13.132812 10.386719 C 13.003906 10.378906 12.925781 10.414062 12.855469 10.511719 C 12.8125 10.570312 12.808594 10.582031 12.808594 10.699219 C 12.808594 10.824219 12.8125 10.832031 12.871094 10.929688 C 12.90625 10.988281 13.0625 11.175781 13.238281 11.371094 C 13.402344 11.558594 13.570312 11.753906 13.605469 11.804688 C 13.644531 11.855469 13.730469 11.953125 13.796875 12.023438 C 13.910156 12.132812 13.933594 12.148438 14.027344 12.183594 C 14.121094 12.214844 14.140625 12.214844 14.21875 12.203125 C 14.335938 12.179688 14.488281 12.105469 14.5625 12.03125 C 14.65625 11.933594 14.890625 11.605469 14.972656 11.453125 C 14.988281 11.425781 15.007812 11.390625 15.019531 11.378906 C 15.042969 11.347656 15.125 11.191406 15.304688 10.847656 C 15.5 10.46875 15.523438 10.363281 15.453125 10.222656 C 15.402344 10.125 15.332031 10.085938 15.175781 10.070312 C 15.125 10.0625 15.058594 10.046875 15.027344 10.035156 C 14.957031 10.011719 14.921875 10.011719 14.859375 10.03125 Z M 14.859375 10.03125 " fill-opacity="1" fill-rule="nonzero"/><g clip-path="url(#2b12e9e546)"><path fill="#545454" d="M 4.605469 10.148438 C 4.328125 10.160156 4.195312 10.175781 4.074219 10.210938 C 3.972656 10.242188 3.710938 10.382812 3.710938 10.402344 C 3.710938 10.421875 3.835938 10.472656 3.996094 10.519531 C 4.078125 10.542969 4.1875 10.546875 5.246094 10.550781 C 5.886719 10.554688 6.453125 10.558594 6.5 10.5625 C 6.632812 10.574219 6.839844 10.546875 6.929688 10.507812 C 6.96875 10.488281 7.003906 10.464844 7.003906 10.457031 C 7.003906 10.421875 6.878906 10.320312 6.777344 10.273438 C 6.640625 10.207031 6.535156 10.179688 6.316406 10.164062 C 6.101562 10.144531 4.988281 10.136719 4.605469 10.148438 Z M 4.605469 10.148438 " fill-opacity="1" fill-rule="nonzero"/></g><path fill="#545454" d="M 21.765625 10.191406 C 21.660156 10.226562 21.613281 10.261719 21.589844 10.320312 C 21.574219 10.359375 21.574219 10.375 21.589844 10.40625 C 21.632812 10.5 21.726562 10.523438 22.246094 10.574219 C 22.523438 10.601562 22.976562 10.660156 23.386719 10.726562 C 23.460938 10.738281 23.589844 10.757812 23.664062 10.769531 C 23.804688 10.792969 23.90625 10.808594 24.199219 10.863281 C 24.429688 10.90625 24.578125 10.910156 24.796875 10.875 C 24.910156 10.859375 24.980469 10.839844 24.980469 10.828125 C 24.980469 10.8125 24.8125 10.6875 24.703125 10.625 C 24.5 10.507812 24.304688 10.464844 23.351562 10.316406 C 22.371094 10.164062 21.933594 10.128906 21.765625 10.191406 Z M 21.765625 10.191406 " fill-opacity="1" fill-rule="nonzero"/><path fill="#545454" d="M 6.992188 11.601562 C 6.917969 11.621094 6.707031 11.722656 6.523438 11.824219 C 6.46875 11.855469 6.328125 11.929688 6.207031 11.996094 C 6.085938 12.058594 5.941406 12.140625 5.882812 12.171875 C 5.621094 12.324219 5.234375 12.605469 5.085938 12.753906 C 4.984375 12.855469 4.738281 13.195312 4.761719 13.203125 C 4.777344 13.207031 5.09375 13.117188 5.203125 13.078125 C 5.28125 13.050781 5.402344 12.984375 5.492188 12.921875 C 5.523438 12.898438 5.628906 12.824219 5.71875 12.757812 C 5.933594 12.605469 6.074219 12.519531 6.308594 12.394531 C 6.75 12.164062 6.953125 12.039062 7.0625 11.941406 C 7.132812 11.875 7.21875 11.757812 7.238281 11.695312 C 7.257812 11.640625 7.253906 11.632812 7.222656 11.609375 C 7.1875 11.578125 7.105469 11.578125 6.992188 11.601562 Z M 6.992188 11.601562 " fill-opacity="1" fill-rule="nonzero"/><path fill="#545454" d="M 21.414062 11.945312 C 21.371094 11.96875 21.320312 12.035156 21.320312 12.078125 C 21.320312 12.1875 21.449219 12.273438 21.753906 12.378906 C 21.859375 12.414062 22.058594 12.484375 22.191406 12.535156 C 22.503906 12.648438 23.0625 12.839844 23.210938 12.882812 C 23.269531 12.902344 23.4375 12.953125 23.582031 12.996094 C 24 13.125 24.121094 13.144531 24.296875 13.121094 C 24.449219 13.09375 24.453125 13.089844 24.402344 13.015625 C 24.34375 12.925781 24.214844 12.820312 24.105469 12.761719 C 24 12.707031 23.929688 12.683594 23.628906 12.59375 C 23.273438 12.488281 22.851562 12.347656 22.457031 12.203125 C 21.835938 11.980469 21.714844 11.945312 21.578125 11.9375 C 21.507812 11.9375 21.433594 11.941406 21.414062 11.945312 Z M 21.414062 11.945312 " fill-opacity="1" fill-rule="nonzero"/><g clip-path="url(#1c9d98d501)"><path fill="#545454" d="M 19.160156 14.984375 C 19.164062 14.996094 19.191406 15.09375 19.222656 15.207031 C 19.332031 15.625 19.363281 15.71875 19.476562 15.933594 C 19.574219 16.128906 19.621094 16.207031 19.75 16.414062 C 19.816406 16.519531 20.019531 16.878906 20.09375 17.019531 C 20.113281 17.058594 20.171875 17.171875 20.222656 17.269531 C 20.445312 17.679688 20.53125 17.851562 20.75 18.292969 C 20.878906 18.550781 21.03125 18.867188 21.085938 18.996094 C 21.144531 19.125 21.199219 19.242188 21.203125 19.257812 C 21.210938 19.269531 21.234375 19.324219 21.257812 19.375 C 21.339844 19.570312 21.363281 19.632812 21.417969 19.75 C 21.480469 19.902344 21.773438 20.636719 21.792969 20.6875 C 21.796875 20.707031 21.828125 20.789062 21.855469 20.863281 C 21.925781 21.042969 22.070312 21.472656 22.097656 21.589844 C 22.222656 22.066406 22.253906 22.222656 22.292969 22.570312 C 22.359375 23.144531 22.371094 24.011719 22.324219 24.722656 C 22.304688 24.988281 22.261719 25.457031 22.238281 25.609375 C 22.234375 25.636719 22.214844 25.777344 22.191406 25.921875 C 22.171875 26.066406 22.132812 26.304688 22.109375 26.449219 C 22.085938 26.59375 22.0625 26.75 22.054688 26.792969 C 22.027344 26.964844 21.964844 27.265625 21.898438 27.554688 C 21.878906 27.644531 21.855469 27.746094 21.847656 27.773438 C 21.773438 28.109375 21.554688 28.84375 21.414062 29.238281 C 21.378906 29.332031 21.246094 29.660156 21.167969 29.839844 C 21.050781 30.117188 20.71875 30.757812 20.585938 30.964844 C 20.398438 31.253906 20.265625 31.445312 20.109375 31.648438 C 20.035156 31.75 19.96875 31.785156 19.871094 31.785156 C 19.8125 31.785156 19.785156 31.769531 18.664062 31.199219 C 18.222656 30.972656 17.292969 30.507812 16.746094 30.242188 C 16.097656 29.921875 15.742188 29.75 15.621094 29.691406 C 15.554688 29.660156 15.417969 29.59375 15.3125 29.546875 C 14.863281 29.328125 14.753906 29.277344 14.449219 29.140625 C 14.019531 28.945312 13.894531 28.886719 13.796875 28.847656 C 13.386719 28.679688 13.214844 28.609375 13 28.527344 C 12.953125 28.507812 12.867188 28.476562 12.808594 28.453125 C 12.484375 28.328125 11.984375 28.148438 11.835938 28.101562 C 11.800781 28.089844 11.714844 28.066406 11.644531 28.042969 C 11.375 27.960938 10.882812 27.847656 10.605469 27.804688 C 10.5625 27.796875 10.429688 27.773438 10.3125 27.753906 C 10.195312 27.734375 10.046875 27.710938 9.976562 27.699219 C 9.90625 27.691406 9.828125 27.679688 9.800781 27.675781 C 9.257812 27.597656 8.414062 27.5625 7.808594 27.589844 C 7.402344 27.609375 6.941406 27.671875 6.621094 27.753906 C 6.265625 27.839844 5.871094 28.039062 5.59375 28.265625 C 5.492188 28.34375 5.226562 28.613281 5.160156 28.703125 C 4.636719 29.378906 4.394531 30.203125 4.457031 31.085938 C 4.472656 31.335938 4.488281 31.449219 4.546875 31.703125 C 4.589844 31.898438 4.699219 32.230469 4.742188 32.3125 C 4.753906 32.332031 4.777344 32.378906 4.792969 32.414062 C 4.898438 32.644531 5.171875 32.972656 5.496094 33.242188 C 5.757812 33.457031 5.785156 33.480469 6.140625 33.714844 C 6.609375 34.027344 7.117188 34.308594 7.625 34.535156 C 7.699219 34.566406 7.820312 34.621094 7.898438 34.65625 C 8.046875 34.722656 8.230469 34.792969 8.535156 34.910156 C 8.671875 34.964844 9.046875 35.09375 9.128906 35.117188 C 9.164062 35.128906 9.238281 35.148438 9.296875 35.167969 C 9.8125 35.316406 10.21875 35.398438 10.832031 35.472656 C 10.898438 35.480469 11.003906 35.496094 11.066406 35.503906 C 11.523438 35.5625 12.578125 35.589844 12.847656 35.550781 C 12.90625 35.542969 13.011719 35.527344 13.078125 35.519531 C 13.21875 35.5 13.332031 35.480469 13.476562 35.449219 C 13.71875 35.402344 14.003906 35.339844 14.082031 35.320312 C 14.132812 35.308594 14.234375 35.285156 14.308594 35.269531 C 14.59375 35.207031 14.878906 35.136719 15.269531 35.035156 C 15.398438 35 15.535156 34.964844 15.574219 34.953125 C 15.617188 34.945312 15.710938 34.917969 15.78125 34.894531 C 15.855469 34.875 15.949219 34.847656 15.992188 34.835938 C 16.089844 34.808594 16.792969 34.574219 16.929688 34.519531 C 17.269531 34.386719 17.429688 34.320312 17.648438 34.21875 C 17.804688 34.148438 18.34375 33.878906 18.445312 33.820312 C 18.503906 33.789062 18.582031 33.746094 18.621094 33.722656 C 18.660156 33.703125 18.714844 33.671875 18.746094 33.652344 C 18.773438 33.632812 18.84375 33.589844 18.898438 33.554688 C 19.03125 33.476562 19.386719 33.234375 19.492188 33.15625 C 19.628906 33.054688 19.726562 32.976562 19.882812 32.832031 C 20.019531 32.707031 20.039062 32.695312 20.113281 32.679688 C 20.210938 32.65625 20.183594 32.648438 20.644531 32.871094 C 20.792969 32.941406 20.917969 33 20.917969 33 C 20.921875 33 21.015625 33.042969 21.128906 33.09375 C 21.394531 33.222656 21.382812 33.214844 21.652344 33.339844 C 21.929688 33.460938 22.117188 33.546875 22.230469 33.59375 C 22.273438 33.609375 22.398438 33.664062 22.507812 33.710938 C 22.617188 33.757812 22.734375 33.804688 22.769531 33.820312 C 22.808594 33.835938 22.902344 33.871094 22.984375 33.90625 C 23.386719 34.070312 23.894531 34.246094 24.132812 34.3125 C 24.523438 34.417969 24.734375 34.460938 25.054688 34.507812 C 25.386719 34.554688 26.003906 34.578125 26.300781 34.554688 C 26.609375 34.527344 27.089844 34.460938 27.332031 34.40625 C 27.371094 34.398438 27.453125 34.378906 27.507812 34.367188 C 27.878906 34.285156 28.09375 34.226562 28.457031 34.105469 C 28.742188 34.011719 28.867188 33.960938 29.199219 33.820312 C 29.257812 33.796875 29.34375 33.757812 29.386719 33.738281 C 29.636719 33.636719 30.078125 33.421875 30.257812 33.308594 C 30.382812 33.234375 30.742188 32.996094 30.839844 32.925781 C 31.359375 32.535156 31.648438 32.230469 31.988281 31.714844 C 32.136719 31.492188 32.15625 31.460938 32.230469 31.332031 C 32.429688 30.976562 32.445312 30.949219 32.574219 30.6875 C 32.726562 30.378906 32.722656 30.386719 32.902344 29.972656 C 32.925781 29.917969 32.945312 29.867188 32.945312 29.859375 C 32.945312 29.855469 32.957031 29.828125 32.96875 29.804688 C 33.039062 29.652344 33.191406 29.167969 33.230469 28.980469 C 33.28125 28.714844 33.285156 28.644531 33.292969 28.265625 C 33.296875 27.730469 33.269531 27.503906 33.148438 27.078125 C 33.09375 26.886719 33.007812 26.636719 32.949219 26.507812 C 32.785156 26.167969 32.769531 26.136719 32.640625 25.925781 C 32.433594 25.59375 32.113281 25.214844 31.875 25.019531 C 31.785156 24.945312 31.609375 24.847656 31.503906 24.804688 C 31.390625 24.757812 31.125 24.691406 30.976562 24.671875 C 30.777344 24.640625 30.421875 24.648438 30.15625 24.6875 C 29.902344 24.722656 29.84375 24.734375 29.746094 24.753906 C 29.257812 24.863281 28.929688 25.007812 28.261719 25.402344 C 28.144531 25.472656 27.84375 25.671875 27.722656 25.765625 C 27.660156 25.8125 27.59375 25.863281 27.574219 25.878906 C 27.554688 25.894531 27.488281 25.945312 27.429688 25.996094 C 27.371094 26.042969 27.292969 26.105469 27.257812 26.132812 C 26.945312 26.386719 26.734375 26.582031 26.625 26.71875 C 26.515625 26.859375 26.429688 27.027344 26.429688 27.117188 C 26.429688 27.277344 26.589844 27.367188 26.738281 27.289062 C 26.769531 27.273438 26.824219 27.246094 26.859375 27.230469 C 26.894531 27.214844 26.949219 27.179688 26.980469 27.152344 C 27.011719 27.128906 27.054688 27.097656 27.078125 27.082031 C 27.097656 27.070312 27.171875 27.011719 27.238281 26.949219 C 27.441406 26.78125 27.523438 26.707031 27.71875 26.550781 C 27.75 26.527344 27.820312 26.46875 27.882812 26.417969 C 28.105469 26.238281 28.515625 25.957031 28.738281 25.835938 C 28.792969 25.800781 28.867188 25.761719 28.898438 25.746094 C 29.054688 25.65625 29.382812 25.503906 29.5 25.460938 C 30.003906 25.285156 30.714844 25.21875 31.089844 25.320312 C 31.304688 25.375 31.433594 25.445312 31.585938 25.589844 C 32.101562 26.074219 32.507812 26.847656 32.640625 27.59375 C 32.660156 27.722656 32.671875 27.855469 32.679688 28.109375 C 32.6875 28.605469 32.65625 28.832031 32.507812 29.265625 C 32.304688 29.867188 31.957031 30.605469 31.621094 31.152344 C 31.589844 31.203125 31.550781 31.265625 31.535156 31.292969 C 31.476562 31.386719 31.300781 31.632812 31.214844 31.742188 C 31.03125 31.972656 30.671875 32.296875 30.371094 32.507812 C 30.066406 32.714844 29.890625 32.820312 29.617188 32.957031 C 29.324219 33.101562 29.132812 33.183594 28.664062 33.375 C 28.109375 33.605469 27.410156 33.785156 26.6875 33.894531 C 25.953125 34 25.160156 33.953125 24.417969 33.753906 C 24.191406 33.691406 23.734375 33.539062 23.453125 33.429688 C 23.085938 33.285156 23.058594 33.273438 22.996094 33.246094 C 22.960938 33.234375 22.929688 33.21875 22.925781 33.21875 C 22.921875 33.21875 22.597656 33.082031 22.457031 33.023438 C 22.433594 33.011719 22.367188 32.984375 22.308594 32.960938 C 22.085938 32.863281 21.199219 32.457031 20.984375 32.351562 C 20.855469 32.289062 20.730469 32.230469 20.703125 32.21875 C 20.640625 32.195312 20.597656 32.132812 20.597656 32.070312 C 20.597656 32.027344 20.613281 32.007812 20.761719 31.800781 C 20.816406 31.726562 20.886719 31.625 21.046875 31.386719 C 21.078125 31.339844 21.101562 31.300781 21.101562 31.292969 C 21.101562 31.289062 21.121094 31.257812 21.144531 31.222656 C 21.167969 31.191406 21.203125 31.128906 21.226562 31.082031 C 21.25 31.042969 21.289062 30.972656 21.3125 30.929688 C 21.449219 30.691406 21.679688 30.21875 21.777344 29.976562 C 21.847656 29.808594 21.980469 29.46875 22.011719 29.390625 C 22.082031 29.183594 22.199219 28.820312 22.234375 28.695312 C 22.257812 28.621094 22.28125 28.539062 22.289062 28.519531 C 22.300781 28.484375 22.378906 28.191406 22.433594 27.964844 C 22.53125 27.574219 22.660156 26.941406 22.726562 26.496094 C 22.734375 26.441406 22.746094 26.355469 22.757812 26.304688 C 22.765625 26.253906 22.777344 26.164062 22.785156 26.105469 C 22.792969 26.042969 22.808594 25.957031 22.816406 25.90625 C 22.824219 25.859375 22.835938 25.765625 22.84375 25.703125 C 22.851562 25.636719 22.863281 25.535156 22.875 25.476562 C 22.929688 25.066406 22.972656 24.167969 22.964844 23.570312 C 22.953125 22.324219 22.8125 21.621094 22.316406 20.335938 C 22.21875 20.085938 22.199219 20.042969 22.121094 19.847656 C 22.074219 19.734375 22.023438 19.613281 22.011719 19.574219 C 21.996094 19.539062 21.976562 19.484375 21.960938 19.457031 C 21.949219 19.429688 21.917969 19.359375 21.890625 19.296875 C 21.867188 19.238281 21.835938 19.160156 21.820312 19.128906 C 21.414062 18.242188 21.210938 17.820312 20.945312 17.320312 C 20.90625 17.246094 20.828125 17.09375 20.773438 16.992188 C 20.613281 16.683594 20.503906 16.488281 20.289062 16.121094 C 20.023438 15.664062 19.859375 15.472656 19.503906 15.203125 C 19.210938 14.980469 19.140625 14.9375 19.160156 14.984375 Z M 9.171875 28.226562 C 9.238281 28.234375 9.367188 28.25 9.457031 28.257812 C 9.546875 28.265625 9.664062 28.277344 9.71875 28.285156 C 9.777344 28.292969 9.871094 28.308594 9.925781 28.316406 C 10.109375 28.34375 10.496094 28.40625 10.554688 28.417969 C 10.585938 28.425781 10.652344 28.4375 10.699219 28.445312 C 10.75 28.457031 10.863281 28.480469 10.949219 28.5 C 11.09375 28.53125 11.164062 28.546875 11.402344 28.613281 C 11.460938 28.628906 12.148438 28.863281 12.296875 28.914062 C 12.335938 28.929688 12.421875 28.964844 12.488281 28.988281 C 12.550781 29.015625 12.636719 29.046875 12.675781 29.0625 C 12.71875 29.078125 12.800781 29.109375 12.859375 29.132812 C 12.921875 29.15625 13.007812 29.191406 13.050781 29.207031 C 13.09375 29.222656 13.144531 29.246094 13.160156 29.253906 C 13.175781 29.257812 13.289062 29.304688 13.410156 29.355469 C 13.636719 29.445312 13.925781 29.574219 14.085938 29.648438 C 14.136719 29.671875 14.179688 29.691406 14.183594 29.691406 C 14.1875 29.691406 14.308594 29.746094 14.449219 29.816406 C 14.59375 29.886719 14.710938 29.941406 14.714844 29.941406 C 14.714844 29.941406 14.820312 29.988281 14.941406 30.046875 C 15.066406 30.105469 15.230469 30.1875 15.304688 30.222656 C 16.066406 30.585938 17.652344 31.371094 18.4375 31.773438 C 18.652344 31.882812 18.953125 32.035156 19.105469 32.113281 C 19.257812 32.191406 19.394531 32.269531 19.410156 32.285156 C 19.4375 32.316406 19.441406 32.375 19.417969 32.414062 C 19.378906 32.488281 18.832031 32.886719 18.511719 33.074219 C 18.453125 33.105469 18.378906 33.152344 18.347656 33.167969 C 18.164062 33.285156 17.367188 33.683594 17.179688 33.753906 C 17.152344 33.765625 17.074219 33.796875 17.003906 33.828125 C 16.933594 33.855469 16.847656 33.894531 16.804688 33.90625 C 16.765625 33.925781 16.6875 33.953125 16.628906 33.972656 C 16.503906 34.023438 15.96875 34.199219 15.816406 34.246094 C 15.757812 34.261719 15.667969 34.289062 15.621094 34.304688 C 15.4375 34.355469 15.007812 34.472656 14.910156 34.492188 C 14.882812 34.5 14.832031 34.511719 14.800781 34.519531 C 14.742188 34.535156 14.496094 34.597656 14.25 34.652344 C 13.160156 34.90625 12.730469 34.96875 12.136719 34.957031 C 11.8125 34.945312 11.441406 34.925781 11.332031 34.910156 C 11.316406 34.90625 11.257812 34.902344 11.199219 34.894531 C 11.078125 34.886719 10.664062 34.835938 10.597656 34.824219 C 10.574219 34.820312 10.488281 34.804688 10.410156 34.792969 C 10.210938 34.761719 9.957031 34.707031 9.785156 34.664062 C 9.710938 34.644531 9.632812 34.621094 9.609375 34.617188 C 9.386719 34.5625 8.902344 34.398438 8.5625 34.261719 C 7.695312 33.921875 7.09375 33.609375 6.382812 33.140625 C 6.027344 32.90625 5.664062 32.589844 5.488281 32.363281 C 5.140625 31.910156 4.980469 31.070312 5.101562 30.34375 C 5.199219 29.734375 5.445312 29.253906 5.851562 28.863281 C 6.265625 28.460938 6.730469 28.292969 7.625 28.21875 C 7.894531 28.195312 8.960938 28.203125 9.171875 28.226562 Z M 9.171875 28.226562 " fill-opacity="1" fill-rule="nonzero"/></g><g clip-path="url(#b93a39d882)"><path fill="#7ed957" d="M 8.257812 0.703125 C 8.074219 0.734375 7.945312 0.878906 7.875 1.132812 C 7.820312 1.328125 7.796875 1.480469 7.75 1.960938 C 7.675781 2.769531 7.667969 2.902344 7.675781 3.742188 C 7.691406 5.195312 7.6875 5.542969 7.648438 6.011719 C 7.628906 6.242188 7.59375 6.585938 7.574219 6.714844 C 7.566406 6.769531 7.550781 6.882812 7.539062 6.96875 C 7.480469 7.378906 7.390625 7.855469 7.289062 8.300781 C 7.1875 8.746094 7.179688 8.796875 7.148438 9.027344 C 7.136719 9.148438 7.128906 9.65625 7.140625 9.789062 C 7.144531 9.820312 7.15625 9.929688 7.164062 10.035156 C 7.195312 10.382812 7.246094 10.734375 7.3125 11.023438 C 7.328125 11.101562 7.351562 11.191406 7.355469 11.226562 C 7.390625 11.402344 7.585938 12.039062 7.800781 12.683594 C 8.027344 13.355469 8.066406 13.550781 8.066406 14.003906 C 8.066406 14.335938 8.046875 14.480469 7.976562 14.726562 C 7.882812 15.046875 7.773438 15.265625 7.464844 15.730469 C 7.359375 15.890625 7.25 16.066406 7.21875 16.117188 C 7.144531 16.238281 6.914062 16.695312 6.867188 16.8125 C 6.847656 16.859375 6.8125 16.953125 6.785156 17.011719 C 6.761719 17.070312 6.714844 17.183594 6.6875 17.261719 C 6.660156 17.335938 6.621094 17.441406 6.601562 17.496094 C 6.433594 17.953125 6.257812 18.683594 6.207031 19.128906 C 6.199219 19.175781 6.191406 19.230469 6.1875 19.25 C 6.183594 19.273438 6.179688 19.453125 6.175781 19.65625 C 6.164062 20.300781 6.230469 20.53125 6.515625 20.902344 C 6.566406 20.96875 6.617188 21.019531 6.625 21.015625 C 6.640625 21.003906 6.726562 20.738281 6.765625 20.589844 C 6.785156 20.503906 6.789062 20.421875 6.785156 20.019531 C 6.785156 19.308594 6.820312 19 6.972656 18.402344 C 7.058594 18.066406 7.246094 17.484375 7.34375 17.269531 C 7.355469 17.234375 7.390625 17.152344 7.421875 17.085938 C 7.550781 16.785156 7.730469 16.445312 7.882812 16.214844 C 7.972656 16.078125 8.078125 15.917969 8.113281 15.863281 C 8.152344 15.804688 8.191406 15.742188 8.207031 15.71875 C 8.253906 15.652344 8.433594 15.285156 8.476562 15.175781 C 8.621094 14.789062 8.683594 14.425781 8.6875 13.96875 C 8.6875 13.671875 8.636719 13.308594 8.550781 13.007812 C 8.539062 12.96875 8.441406 12.671875 8.339844 12.347656 C 8.011719 11.34375 7.9375 11.0625 7.839844 10.511719 C 7.800781 10.308594 7.765625 9.898438 7.742188 9.511719 C 7.730469 9.238281 7.765625 8.980469 7.898438 8.398438 C 7.972656 8.066406 8 7.925781 8.082031 7.46875 C 8.101562 7.351562 8.125 7.214844 8.132812 7.167969 C 8.140625 7.117188 8.152344 7.03125 8.160156 6.96875 C 8.203125 6.683594 8.25 6.230469 8.285156 5.679688 C 8.304688 5.421875 8.304688 5.21875 8.296875 4.714844 C 8.28125 3.660156 8.285156 2.976562 8.3125 2.605469 C 8.355469 2.050781 8.398438 1.621094 8.417969 1.519531 C 8.425781 1.476562 8.464844 1.445312 8.519531 1.429688 C 8.5625 1.417969 8.785156 1.5625 9.140625 1.828125 C 9.199219 1.875 9.265625 1.925781 9.285156 1.9375 C 9.320312 1.964844 9.832031 2.371094 10.035156 2.53125 C 10.152344 2.628906 10.515625 2.898438 10.679688 3.015625 C 10.808594 3.105469 11.128906 3.347656 11.1875 3.394531 C 11.328125 3.511719 11.417969 3.574219 11.53125 3.636719 C 11.640625 3.691406 11.675781 3.703125 11.742188 3.703125 C 11.890625 3.703125 11.941406 3.660156 11.941406 3.523438 C 11.941406 3.425781 11.925781 3.378906 11.828125 3.230469 C 11.753906 3.113281 11.53125 2.886719 11.371094 2.765625 C 11.335938 2.738281 11.265625 2.6875 11.214844 2.648438 C 11.167969 2.609375 11.097656 2.558594 11.066406 2.539062 C 11.035156 2.515625 10.984375 2.480469 10.957031 2.460938 C 10.929688 2.4375 10.839844 2.371094 10.761719 2.3125 C 10.683594 2.253906 10.59375 2.1875 10.570312 2.167969 C 10.542969 2.148438 10.484375 2.101562 10.4375 2.066406 C 10.386719 2.03125 10.300781 1.960938 10.238281 1.910156 C 10.179688 1.863281 10.113281 1.808594 10.09375 1.792969 C 10.070312 1.777344 9.988281 1.710938 9.910156 1.648438 C 9.675781 1.460938 9.644531 1.4375 9.488281 1.320312 C 9.335938 1.207031 9.289062 1.171875 9.070312 1.027344 C 8.835938 0.871094 8.785156 0.839844 8.65625 0.78125 C 8.554688 0.730469 8.375 0.679688 8.335938 0.691406 C 8.332031 0.691406 8.296875 0.699219 8.257812 0.703125 Z M 8.257812 0.703125 " fill-opacity="1" fill-rule="nonzero"/></g><g clip-path="url(#b3771a4922)"><path fill="#7ed957" d="M 20.289062 0.8125 C 20.175781 0.84375 20.054688 0.902344 19.976562 0.960938 C 19.894531 1.023438 19.542969 1.300781 19.382812 1.433594 C 19.328125 1.480469 19.238281 1.550781 19.1875 1.59375 C 19.09375 1.664062 18.972656 1.761719 18.871094 1.847656 C 18.847656 1.867188 18.761719 1.933594 18.6875 1.992188 C 18.351562 2.246094 18.152344 2.394531 18.121094 2.417969 C 18.105469 2.429688 18.003906 2.503906 17.902344 2.585938 C 17.800781 2.664062 17.675781 2.761719 17.628906 2.800781 C 17.386719 2.988281 17.203125 3.042969 16.578125 3.101562 C 15.554688 3.203125 14.960938 3.199219 14.332031 3.089844 C 14.292969 3.082031 14.21875 3.070312 14.171875 3.0625 C 13.886719 3.011719 13.664062 2.964844 13.476562 2.914062 C 12.957031 2.769531 12.894531 2.761719 12.636719 2.773438 C 12.398438 2.785156 12.320312 2.796875 12.320312 2.816406 C 12.320312 2.832031 12.488281 3.023438 12.609375 3.140625 C 12.734375 3.257812 12.800781 3.300781 13.078125 3.429688 C 13.21875 3.492188 13.492188 3.5625 13.9375 3.644531 C 14.476562 3.75 14.90625 3.792969 15.371094 3.792969 C 15.664062 3.792969 16.472656 3.742188 16.777344 3.703125 C 17.535156 3.609375 17.664062 3.5625 18.148438 3.171875 C 18.300781 3.050781 18.503906 2.898438 18.832031 2.652344 C 18.976562 2.542969 19.140625 2.414062 19.25 2.328125 C 19.292969 2.296875 19.351562 2.246094 19.382812 2.222656 C 19.417969 2.195312 19.523438 2.113281 19.617188 2.035156 C 20.132812 1.617188 20.21875 1.550781 20.25 1.542969 C 20.273438 1.535156 20.300781 1.542969 20.324219 1.5625 C 20.363281 1.59375 20.363281 1.59375 20.367188 1.796875 C 20.375 2.058594 20.363281 2.136719 20.222656 2.921875 C 20.203125 3.046875 20.171875 3.183594 20.082031 3.550781 C 19.925781 4.175781 19.898438 4.335938 19.871094 4.742188 C 19.84375 5.148438 19.871094 5.707031 19.929688 6.058594 C 19.960938 6.234375 20.019531 6.515625 20.054688 6.648438 C 20.132812 6.953125 20.171875 7.085938 20.246094 7.335938 C 20.5 8.1875 20.539062 8.414062 20.539062 9.085938 C 20.539062 9.601562 20.527344 9.792969 20.453125 10.300781 C 20.441406 10.378906 20.425781 10.476562 20.421875 10.511719 C 20.417969 10.546875 20.40625 10.613281 20.398438 10.660156 C 20.386719 10.742188 20.371094 10.839844 20.339844 11.039062 C 20.269531 11.503906 20.226562 11.679688 20.03125 12.269531 C 19.96875 12.449219 19.882812 12.710938 19.839844 12.847656 C 19.796875 12.984375 19.71875 13.214844 19.667969 13.355469 C 19.621094 13.5 19.578125 13.628906 19.578125 13.644531 C 19.578125 13.660156 19.570312 13.710938 19.558594 13.757812 C 19.511719 13.933594 19.59375 14.128906 19.710938 14.128906 C 19.914062 14.128906 20.125 13.886719 20.277344 13.472656 C 20.324219 13.339844 20.425781 13.03125 20.589844 12.53125 C 20.664062 12.300781 20.738281 12.078125 20.75 12.035156 C 20.773438 11.964844 20.789062 11.90625 20.855469 11.648438 C 20.871094 11.589844 20.875 11.566406 20.925781 11.257812 C 20.984375 10.90625 21.050781 10.484375 21.085938 10.203125 C 21.167969 9.601562 21.179688 8.726562 21.109375 8.285156 C 21.058594 7.980469 21.015625 7.78125 20.929688 7.496094 C 20.800781 7.054688 20.6875 6.648438 20.640625 6.457031 C 20.511719 5.921875 20.46875 5.542969 20.480469 4.984375 C 20.488281 4.515625 20.515625 4.34375 20.695312 3.621094 C 20.75 3.390625 20.800781 3.171875 20.808594 3.136719 C 20.816406 3.097656 20.847656 2.910156 20.882812 2.714844 C 20.972656 2.203125 20.988281 2.050781 20.988281 1.800781 C 20.984375 1.640625 20.96875 1.464844 20.941406 1.304688 C 20.917969 1.179688 20.824219 0.996094 20.746094 0.929688 C 20.613281 0.816406 20.4375 0.773438 20.289062 0.8125 Z M 20.289062 0.8125 " fill-opacity="1" fill-rule="nonzero"/></g><path fill="#7ed957" d="M 4.589844 7.253906 C 4.464844 7.273438 4.351562 7.292969 4.34375 7.292969 C 4.296875 7.292969 4.339844 7.320312 4.550781 7.425781 C 4.828125 7.566406 4.878906 7.585938 5.207031 7.648438 C 5.949219 7.796875 6.441406 7.960938 6.777344 8.179688 C 6.890625 8.25 7.003906 8.300781 7.050781 8.300781 C 7.140625 8.300781 7.160156 8.199219 7.097656 8.070312 C 6.976562 7.835938 6.613281 7.605469 6.117188 7.457031 C 5.996094 7.421875 5.710938 7.34375 5.636719 7.328125 C 5.613281 7.324219 5.558594 7.3125 5.519531 7.304688 C 5.089844 7.214844 4.90625 7.203125 4.589844 7.253906 Z M 4.589844 7.253906 " fill-opacity="1" fill-rule="nonzero"/><path fill="#7ed957" d="M 23.011719 7.664062 C 22.53125 7.726562 21.910156 7.917969 21.667969 8.085938 C 21.605469 8.128906 21.515625 8.226562 21.492188 8.28125 C 21.460938 8.34375 21.460938 8.382812 21.492188 8.410156 C 21.527344 8.445312 21.589844 8.4375 21.972656 8.324219 C 22.601562 8.140625 22.832031 8.085938 23.226562 8.039062 C 23.351562 8.023438 23.527344 7.992188 23.613281 7.96875 C 23.835938 7.910156 24.285156 7.773438 24.300781 7.757812 C 24.316406 7.742188 24.289062 7.738281 23.988281 7.699219 C 23.847656 7.683594 23.695312 7.664062 23.648438 7.65625 C 23.515625 7.640625 23.183594 7.644531 23.011719 7.664062 Z M 23.011719 7.664062 " fill-opacity="1" fill-rule="nonzero"/><path fill="#7ed957" d="M 14.859375 9.296875 C 14.835938 9.304688 14.773438 9.351562 14.71875 9.398438 C 14.640625 9.46875 14.609375 9.511719 14.554688 9.621094 C 14.519531 9.695312 14.476562 9.785156 14.464844 9.816406 C 14.453125 9.847656 14.421875 9.921875 14.398438 9.980469 C 14.375 10.039062 14.332031 10.136719 14.308594 10.191406 C 14.285156 10.25 14.253906 10.324219 14.242188 10.359375 C 14.214844 10.429688 14.1875 10.453125 14.121094 10.453125 C 14.070312 10.453125 14.050781 10.441406 13.925781 10.308594 C 13.851562 10.234375 13.710938 10.082031 13.613281 9.976562 C 13.5 9.855469 13.398438 9.761719 13.335938 9.722656 C 13.25 9.664062 13.230469 9.660156 13.132812 9.652344 C 13.003906 9.644531 12.925781 9.683594 12.855469 9.777344 C 12.8125 9.835938 12.808594 9.847656 12.808594 9.96875 C 12.808594 10.089844 12.8125 10.097656 12.871094 10.199219 C 12.90625 10.257812 13.0625 10.441406 13.238281 10.636719 C 13.402344 10.824219 13.570312 11.019531 13.605469 11.070312 C 13.644531 11.121094 13.730469 11.21875 13.796875 11.289062 C 13.910156 11.402344 13.933594 11.417969 14.027344 11.449219 C 14.121094 11.480469 14.140625 11.484375 14.21875 11.46875 C 14.335938 11.445312 14.488281 11.371094 14.5625 11.296875 C 14.65625 11.203125 14.890625 10.871094 14.972656 10.71875 C 14.988281 10.691406 15.007812 10.65625 15.019531 10.644531 C 15.042969 10.613281 15.125 10.457031 15.304688 10.113281 C 15.5 9.734375 15.523438 9.628906 15.453125 9.488281 C 15.402344 9.390625 15.332031 9.351562 15.175781 9.335938 C 15.125 9.328125 15.058594 9.316406 15.027344 9.304688 C 14.957031 9.28125 14.921875 9.28125 14.859375 9.296875 Z M 14.859375 9.296875 " fill-opacity="1" fill-rule="nonzero"/><g clip-path="url(#90144baab4)"><path fill="#7ed957" d="M 4.605469 9.414062 C 4.328125 9.425781 4.195312 9.441406 4.074219 9.480469 C 3.972656 9.507812 3.710938 9.648438 3.710938 9.671875 C 3.710938 9.6875 3.835938 9.742188 3.996094 9.789062 C 4.078125 9.8125 4.1875 9.8125 5.246094 9.816406 C 5.886719 9.820312 6.453125 9.828125 6.5 9.828125 C 6.632812 9.839844 6.839844 9.8125 6.929688 9.773438 C 6.96875 9.753906 7.003906 9.730469 7.003906 9.722656 C 7.003906 9.6875 6.878906 9.585938 6.777344 9.539062 C 6.640625 9.472656 6.535156 9.449219 6.316406 9.429688 C 6.101562 9.410156 4.988281 9.402344 4.605469 9.414062 Z M 4.605469 9.414062 " fill-opacity="1" fill-rule="nonzero"/></g><path fill="#7ed957" d="M 21.765625 9.457031 C 21.660156 9.496094 21.613281 9.53125 21.589844 9.585938 C 21.574219 9.625 21.574219 9.640625 21.589844 9.671875 C 21.632812 9.765625 21.726562 9.789062 22.246094 9.839844 C 22.523438 9.867188 22.976562 9.925781 23.386719 9.992188 C 23.460938 10.003906 23.589844 10.023438 23.664062 10.035156 C 23.804688 10.058594 23.90625 10.074219 24.199219 10.132812 C 24.429688 10.175781 24.578125 10.175781 24.796875 10.140625 C 24.910156 10.125 24.980469 10.105469 24.980469 10.097656 C 24.980469 10.078125 24.8125 9.957031 24.703125 9.890625 C 24.5 9.773438 24.304688 9.730469 23.351562 9.582031 C 22.371094 9.433594 21.933594 9.398438 21.765625 9.457031 Z M 21.765625 9.457031 " fill-opacity="1" fill-rule="nonzero"/><path fill="#7ed957" d="M 6.992188 10.871094 C 6.917969 10.886719 6.707031 10.988281 6.523438 11.089844 C 6.46875 11.121094 6.328125 11.195312 6.207031 11.261719 C 6.085938 11.324219 5.941406 11.40625 5.882812 11.4375 C 5.621094 11.59375 5.234375 11.871094 5.085938 12.019531 C 4.984375 12.121094 4.738281 12.464844 4.761719 12.472656 C 4.777344 12.476562 5.09375 12.382812 5.203125 12.34375 C 5.28125 12.316406 5.402344 12.25 5.492188 12.1875 C 5.523438 12.164062 5.628906 12.089844 5.71875 12.027344 C 5.933594 11.871094 6.074219 11.785156 6.308594 11.660156 C 6.75 11.429688 6.953125 11.308594 7.0625 11.207031 C 7.132812 11.140625 7.21875 11.027344 7.238281 10.960938 C 7.257812 10.90625 7.253906 10.898438 7.222656 10.875 C 7.1875 10.84375 7.105469 10.84375 6.992188 10.871094 Z M 6.992188 10.871094 " fill-opacity="1" fill-rule="nonzero"/><path fill="#7ed957" d="M 21.414062 11.214844 C 21.371094 11.234375 21.320312 11.300781 21.320312 11.347656 C 21.320312 11.453125 21.449219 11.542969 21.753906 11.648438 C 21.859375 11.683594 22.058594 11.75 22.191406 11.800781 C 22.503906 11.914062 23.0625 12.105469 23.210938 12.148438 C 23.269531 12.167969 23.4375 12.21875 23.582031 12.265625 C 24 12.390625 24.121094 12.414062 24.296875 12.386719 C 24.449219 12.359375 24.453125 12.355469 24.402344 12.285156 C 24.34375 12.195312 24.214844 12.085938 24.105469 12.027344 C 24 11.972656 23.929688 11.949219 23.628906 11.859375 C 23.273438 11.753906 22.851562 11.613281 22.457031 11.472656 C 21.835938 11.246094 21.714844 11.210938 21.578125 11.203125 C 21.507812 11.203125 21.433594 11.207031 21.414062 11.214844 Z M 21.414062 11.214844 " fill-opacity="1" fill-rule="nonzero"/><g clip-path="url(#0f3f8aeb58)"><path fill="#7ed957" d="M 19.160156 14.25 C 19.164062 14.261719 19.191406 14.359375 19.222656 14.472656 C 19.332031 14.890625 19.363281 14.984375 19.476562 15.199219 C 19.574219 15.394531 19.621094 15.472656 19.75 15.679688 C 19.816406 15.785156 20.019531 16.144531 20.09375 16.289062 C 20.113281 16.328125 20.171875 16.441406 20.222656 16.535156 C 20.445312 16.949219 20.53125 17.117188 20.75 17.5625 C 20.878906 17.820312 21.03125 18.136719 21.085938 18.265625 C 21.144531 18.394531 21.199219 18.507812 21.203125 18.523438 C 21.210938 18.535156 21.234375 18.589844 21.257812 18.640625 C 21.339844 18.835938 21.363281 18.898438 21.417969 19.019531 C 21.480469 19.167969 21.773438 19.902344 21.792969 19.953125 C 21.796875 19.976562 21.828125 20.054688 21.855469 20.128906 C 21.925781 20.308594 22.070312 20.738281 22.097656 20.855469 C 22.222656 21.332031 22.253906 21.488281 22.292969 21.835938 C 22.359375 22.410156 22.371094 23.277344 22.324219 23.988281 C 22.304688 24.253906 22.261719 24.722656 22.238281 24.875 C 22.234375 24.902344 22.214844 25.042969 22.191406 25.1875 C 22.171875 25.332031 22.132812 25.570312 22.109375 25.714844 C 22.085938 25.859375 22.0625 26.015625 22.054688 26.058594 C 22.027344 26.230469 21.964844 26.53125 21.898438 26.820312 C 21.878906 26.914062 21.855469 27.011719 21.847656 27.039062 C 21.773438 27.375 21.554688 28.113281 21.414062 28.503906 C 21.378906 28.597656 21.246094 28.925781 21.167969 29.105469 C 21.050781 29.382812 20.71875 30.023438 20.585938 30.230469 C 20.398438 30.519531 20.265625 30.714844 20.109375 30.914062 C 20.035156 31.015625 19.96875 31.050781 19.871094 31.050781 C 19.8125 31.050781 19.785156 31.035156 18.664062 30.464844 C 18.222656 30.238281 17.292969 29.773438 16.746094 29.507812 C 16.097656 29.1875 15.742188 29.015625 15.621094 28.957031 C 15.554688 28.925781 15.417969 28.863281 15.3125 28.8125 C 14.863281 28.59375 14.753906 28.546875 14.449219 28.40625 C 14.019531 28.210938 13.894531 28.152344 13.796875 28.113281 C 13.386719 27.945312 13.214844 27.878906 13 27.792969 C 12.953125 27.773438 12.867188 27.742188 12.808594 27.722656 C 12.484375 27.59375 11.984375 27.414062 11.835938 27.371094 C 11.800781 27.359375 11.714844 27.332031 11.644531 27.3125 C 11.375 27.226562 10.882812 27.113281 10.605469 27.070312 C 10.5625 27.0625 10.429688 27.039062 10.3125 27.019531 C 10.195312 27 10.046875 26.976562 9.976562 26.96875 C 9.90625 26.957031 9.828125 26.949219 9.800781 26.945312 C 9.257812 26.867188 8.414062 26.828125 7.808594 26.855469 C 7.402344 26.875 6.941406 26.9375 6.621094 27.019531 C 6.265625 27.109375 5.871094 27.304688 5.59375 27.53125 C 5.492188 27.609375 5.226562 27.878906 5.160156 27.96875 C 4.636719 28.644531 4.394531 29.46875 4.457031 30.351562 C 4.472656 30.601562 4.488281 30.714844 4.546875 30.972656 C 4.589844 31.164062 4.699219 31.496094 4.742188 31.578125 C 4.753906 31.597656 4.777344 31.644531 4.792969 31.679688 C 4.898438 31.914062 5.171875 32.238281 5.496094 32.507812 C 5.757812 32.726562 5.785156 32.746094 6.140625 32.984375 C 6.609375 33.296875 7.117188 33.574219 7.625 33.800781 C 7.699219 33.832031 7.820312 33.886719 7.898438 33.921875 C 8.046875 33.988281 8.230469 34.0625 8.535156 34.175781 C 8.671875 34.230469 9.046875 34.359375 9.128906 34.382812 C 9.164062 34.394531 9.238281 34.414062 9.296875 34.433594 C 9.8125 34.585938 10.21875 34.664062 10.832031 34.742188 C 10.898438 34.746094 11.003906 34.761719 11.066406 34.769531 C 11.523438 34.828125 12.578125 34.855469 12.847656 34.816406 C 12.90625 34.808594 13.011719 34.792969 13.078125 34.785156 C 13.21875 34.765625 13.332031 34.746094 13.476562 34.71875 C 13.71875 34.667969 14.003906 34.605469 14.082031 34.585938 C 14.132812 34.574219 14.234375 34.550781 14.308594 34.535156 C 14.59375 34.472656 14.878906 34.402344 15.269531 34.300781 C 15.398438 34.269531 15.535156 34.230469 15.574219 34.222656 C 15.617188 34.210938 15.710938 34.183594 15.78125 34.164062 C 15.855469 34.140625 15.949219 34.113281 15.992188 34.101562 C 16.089844 34.074219 16.792969 33.839844 16.929688 33.785156 C 17.269531 33.652344 17.429688 33.585938 17.648438 33.484375 C 17.804688 33.414062 18.34375 33.144531 18.445312 33.085938 C 18.503906 33.054688 18.582031 33.011719 18.621094 32.988281 C 18.660156 32.96875 18.714844 32.9375 18.746094 32.917969 C 18.773438 32.902344 18.84375 32.859375 18.898438 32.824219 C 19.03125 32.742188 19.386719 32.503906 19.492188 32.421875 C 19.628906 32.320312 19.726562 32.242188 19.882812 32.097656 C 20.019531 31.976562 20.039062 31.960938 20.113281 31.945312 C 20.210938 31.925781 20.183594 31.914062 20.644531 32.136719 C 20.792969 32.207031 20.917969 32.265625 20.917969 32.265625 C 20.921875 32.265625 21.015625 32.308594 21.128906 32.363281 C 21.394531 32.488281 21.382812 32.484375 21.652344 32.605469 C 21.929688 32.730469 22.117188 32.8125 22.230469 32.859375 C 22.273438 32.878906 22.398438 32.929688 22.507812 32.976562 C 22.617188 33.023438 22.734375 33.070312 22.769531 33.085938 C 22.808594 33.101562 22.902344 33.140625 22.984375 33.171875 C 23.386719 33.335938 23.894531 33.515625 24.132812 33.578125 C 24.523438 33.683594 24.734375 33.726562 25.054688 33.773438 C 25.386719 33.820312 26.003906 33.84375 26.300781 33.820312 C 26.609375 33.792969 27.089844 33.726562 27.332031 33.671875 C 27.371094 33.664062 27.453125 33.648438 27.507812 33.632812 C 27.878906 33.554688 28.09375 33.492188 28.457031 33.371094 C 28.742188 33.277344 28.867188 33.226562 29.199219 33.085938 C 29.257812 33.0625 29.34375 33.023438 29.386719 33.003906 C 29.636719 32.902344 30.078125 32.6875 30.257812 32.578125 C 30.382812 32.503906 30.742188 32.261719 30.839844 32.191406 C 31.359375 31.800781 31.648438 31.496094 31.988281 30.984375 C 32.136719 30.757812 32.15625 30.726562 32.230469 30.597656 C 32.429688 30.246094 32.445312 30.21875 32.574219 29.953125 C 32.726562 29.644531 32.722656 29.652344 32.902344 29.242188 C 32.925781 29.183594 32.945312 29.132812 32.945312 29.125 C 32.945312 29.121094 32.957031 29.09375 32.96875 29.070312 C 33.039062 28.917969 33.191406 28.433594 33.230469 28.246094 C 33.28125 27.980469 33.285156 27.910156 33.292969 27.53125 C 33.296875 26.996094 33.269531 26.773438 33.148438 26.34375 C 33.09375 26.152344 33.007812 25.902344 32.949219 25.773438 C 32.785156 25.433594 32.769531 25.402344 32.640625 25.191406 C 32.433594 24.863281 32.113281 24.480469 31.875 24.285156 C 31.785156 24.214844 31.609375 24.113281 31.503906 24.070312 C 31.390625 24.027344 31.125 23.957031 30.976562 23.9375 C 30.777344 23.90625 30.421875 23.914062 30.15625 23.953125 C 29.902344 23.988281 29.84375 24 29.746094 24.019531 C 29.257812 24.128906 28.929688 24.273438 28.261719 24.667969 C 28.144531 24.738281 27.84375 24.9375 27.722656 25.03125 C 27.660156 25.078125 27.59375 25.128906 27.574219 25.144531 C 27.554688 25.160156 27.488281 25.214844 27.429688 25.261719 C 27.371094 25.308594 27.292969 25.371094 27.257812 25.402344 C 26.945312 25.652344 26.734375 25.847656 26.625 25.984375 C 26.515625 26.125 26.429688 26.296875 26.429688 26.382812 C 26.429688 26.546875 26.589844 26.632812 26.738281 26.558594 C 26.769531 26.539062 26.824219 26.511719 26.859375 26.496094 C 26.894531 26.480469 26.949219 26.445312 26.980469 26.417969 C 27.011719 26.394531 27.054688 26.363281 27.078125 26.347656 C 27.097656 26.335938 27.171875 26.277344 27.238281 26.21875 C 27.441406 26.046875 27.523438 25.972656 27.71875 25.816406 C 27.75 25.792969 27.820312 25.734375 27.882812 25.6875 C 28.105469 25.503906 28.515625 25.222656 28.738281 25.101562 C 28.792969 25.066406 28.867188 25.027344 28.898438 25.011719 C 29.054688 24.921875 29.382812 24.769531 29.5 24.726562 C 30.003906 24.550781 30.714844 24.488281 31.089844 24.585938 C 31.304688 24.640625 31.433594 24.710938 31.585938 24.859375 C 32.101562 25.34375 32.507812 26.113281 32.640625 26.863281 C 32.660156 26.988281 32.671875 27.121094 32.679688 27.375 C 32.6875 27.875 32.65625 28.097656 32.507812 28.535156 C 32.304688 29.132812 31.957031 29.871094 31.621094 30.417969 C 31.589844 30.46875 31.550781 30.535156 31.535156 30.558594 C 31.476562 30.652344 31.300781 30.902344 31.214844 31.007812 C 31.03125 31.238281 30.671875 31.5625 30.371094 31.773438 C 30.066406 31.984375 29.890625 32.085938 29.617188 32.222656 C 29.324219 32.367188 29.132812 32.449219 28.664062 32.644531 C 28.109375 32.871094 27.410156 33.050781 26.6875 33.160156 C 25.953125 33.265625 25.160156 33.21875 24.417969 33.019531 C 24.191406 32.960938 23.734375 32.808594 23.453125 32.695312 C 23.085938 32.554688 23.058594 32.542969 22.996094 32.515625 C 22.960938 32.5 22.929688 32.484375 22.925781 32.484375 C 22.921875 32.484375 22.597656 32.351562 22.457031 32.289062 C 22.433594 32.277344 22.367188 32.25 22.308594 32.226562 C 22.085938 32.128906 21.199219 31.722656 20.984375 31.617188 C 20.855469 31.554688 20.730469 31.496094 20.703125 31.484375 C 20.640625 31.460938 20.597656 31.398438 20.597656 31.339844 C 20.597656 31.292969 20.613281 31.273438 20.761719 31.070312 C 20.816406 30.992188 20.886719 30.890625 21.046875 30.652344 C 21.078125 30.605469 21.101562 30.566406 21.101562 30.558594 C 21.101562 30.554688 21.121094 30.523438 21.144531 30.492188 C 21.167969 30.457031 21.203125 30.394531 21.226562 30.351562 C 21.25 30.308594 21.289062 30.238281 21.3125 30.195312 C 21.449219 29.957031 21.679688 29.484375 21.777344 29.242188 C 21.847656 29.078125 21.980469 28.738281 22.011719 28.65625 C 22.082031 28.449219 22.199219 28.085938 22.234375 27.960938 C 22.257812 27.886719 22.28125 27.808594 22.289062 27.785156 C 22.300781 27.75 22.378906 27.457031 22.433594 27.230469 C 22.53125 26.839844 22.660156 26.207031 22.726562 25.761719 C 22.734375 25.707031 22.746094 25.625 22.757812 25.570312 C 22.765625 25.523438 22.777344 25.429688 22.785156 25.371094 C 22.792969 25.3125 22.808594 25.222656 22.816406 25.171875 C 22.824219 25.125 22.835938 25.03125 22.84375 24.96875 C 22.851562 24.902344 22.863281 24.800781 22.875 24.742188 C 22.929688 24.332031 22.972656 23.433594 22.964844 22.839844 C 22.953125 21.589844 22.8125 20.886719 22.316406 19.601562 C 22.21875 19.351562 22.199219 19.308594 22.121094 19.113281 C 22.074219 19 22.023438 18.878906 22.011719 18.84375 C 21.996094 18.804688 21.976562 18.753906 21.960938 18.726562 C 21.949219 18.695312 21.917969 18.625 21.890625 18.5625 C 21.867188 18.503906 21.835938 18.425781 21.820312 18.394531 C 21.414062 17.507812 21.210938 17.085938 20.945312 16.585938 C 20.90625 16.511719 20.828125 16.363281 20.773438 16.257812 C 20.613281 15.949219 20.503906 15.753906 20.289062 15.386719 C 20.023438 14.933594 19.859375 14.738281 19.503906 14.46875 C 19.210938 14.25 19.140625 14.203125 19.160156 14.25 Z M 9.171875 27.492188 C 9.238281 27.5 9.367188 27.515625 9.457031 27.523438 C 9.546875 27.53125 9.664062 27.546875 9.71875 27.550781 C 9.777344 27.5625 9.871094 27.574219 9.925781 27.582031 C 10.109375 27.609375 10.496094 27.671875 10.554688 27.683594 C 10.585938 27.691406 10.652344 27.703125 10.699219 27.714844 C 10.75 27.722656 10.863281 27.746094 10.949219 27.765625 C 11.09375 27.796875 11.164062 27.816406 11.402344 27.878906 C 11.460938 27.894531 12.148438 28.128906 12.296875 28.183594 C 12.335938 28.195312 12.421875 28.230469 12.488281 28.253906 C 12.550781 28.28125 12.636719 28.3125 12.675781 28.328125 C 12.71875 28.34375 12.800781 28.375 12.859375 28.398438 C 12.921875 28.421875 13.007812 28.457031 13.050781 28.472656 C 13.09375 28.492188 13.144531 28.511719 13.160156 28.519531 C 13.175781 28.527344 13.289062 28.570312 13.410156 28.621094 C 13.636719 28.714844 13.925781 28.839844 14.085938 28.914062 C 14.136719 28.9375 14.179688 28.957031 14.183594 28.957031 C 14.1875 28.957031 14.308594 29.011719 14.449219 29.082031 C 14.59375 29.152344 14.710938 29.207031 14.714844 29.207031 C 14.714844 29.207031 14.820312 29.253906 14.941406 29.316406 C 15.066406 29.375 15.230469 29.453125 15.304688 29.488281 C 16.066406 29.851562 17.652344 30.636719 18.4375 31.039062 C 18.652344 31.148438 18.953125 31.300781 19.105469 31.378906 C 19.257812 31.457031 19.394531 31.535156 19.410156 31.550781 C 19.4375 31.585938 19.441406 31.640625 19.417969 31.679688 C 19.378906 31.753906 18.832031 32.152344 18.511719 32.339844 C 18.453125 32.375 18.378906 32.417969 18.347656 32.4375 C 18.164062 32.554688 17.367188 32.949219 17.179688 33.019531 C 17.152344 33.03125 17.074219 33.0625 17.003906 33.09375 C 16.933594 33.121094 16.847656 33.160156 16.804688 33.175781 C 16.765625 33.191406 16.6875 33.21875 16.628906 33.238281 C 16.503906 33.289062 15.96875 33.464844 15.816406 33.511719 C 15.757812 33.527344 15.667969 33.554688 15.621094 33.570312 C 15.4375 33.625 15.007812 33.738281 14.910156 33.761719 C 14.882812 33.765625 14.832031 33.777344 14.800781 33.785156 C 14.742188 33.800781 14.496094 33.863281 14.25 33.917969 C 13.160156 34.175781 12.730469 34.234375 12.136719 34.222656 C 11.8125 34.214844 11.441406 34.191406 11.332031 34.175781 C 11.316406 34.175781 11.257812 34.167969 11.199219 34.164062 C 11.078125 34.152344 10.664062 34.101562 10.597656 34.089844 C 10.574219 34.085938 10.488281 34.070312 10.410156 34.058594 C 10.210938 34.027344 9.957031 33.972656 9.785156 33.929688 C 9.710938 33.910156 9.632812 33.886719 9.609375 33.882812 C 9.386719 33.828125 8.902344 33.664062 8.5625 33.53125 C 7.695312 33.1875 7.09375 32.875 6.382812 32.40625 C 6.027344 32.175781 5.664062 31.855469 5.488281 31.628906 C 5.140625 31.175781 4.980469 30.335938 5.101562 29.609375 C 5.199219 29 5.445312 28.523438 5.851562 28.128906 C 6.265625 27.726562 6.730469 27.5625 7.625 27.484375 C 7.894531 27.464844 8.960938 27.46875 9.171875 27.492188 Z M 9.171875 27.492188 " fill-opacity="1" fill-rule="nonzero"/></g></svg>