<svg xmlns="http://www.w3.org/2000/svg" xmlns:xlink="http://www.w3.org/1999/xlink" width="50" zoomAndPan="magnify" viewBox="0 0 37.5 37.499999" height="50" preserveAspectRatio="xMidYMid meet" version="1.0"><defs><clipPath id="48bdbbce6e"><path d="M 3.796875 21 L 33.203125 21 L 33.203125 35.15625 L 3.796875 35.15625 Z M 3.796875 21 " clip-rule="nonzero"/></clipPath><clipPath id="2b257fca36"><path d="M 9 1.851562 L 28 1.851562 L 28 22 L 9 22 Z M 9 1.851562 " clip-rule="nonzero"/></clipPath><clipPath id="22666b5472"><path d="M 4.1875 21 L 32.804688 21 L 32.804688 34.730469 L 4.1875 34.730469 Z M 4.1875 21 " clip-rule="nonzero"/></clipPath><clipPath id="43c2d34d2f"><path d="M 9 2.269531 L 28 2.269531 L 28 22 L 9 22 Z M 9 2.269531 " clip-rule="nonzero"/></clipPath></defs><g clip-path="url(#48bdbbce6e)"><path fill="#100f0d" d="M 13.003906 22.035156 C 13.054688 22.027344 13.105469 22.058594 13.125 22.113281 L 16.003906 30.625 C 16.101562 30.917969 16.417969 31.074219 16.710938 30.976562 C 16.839844 30.929688 16.949219 30.84375 17.019531 30.722656 C 17.523438 29.847656 17.894531 28.898438 18.125 27.910156 C 18.164062 27.742188 18.132812 27.558594 18.035156 27.410156 C 17.5625 26.707031 17.179688 25.953125 16.90625 25.152344 C 16.835938 24.949219 16.894531 24.722656 17.058594 24.578125 C 17.882812 23.855469 19.117188 23.855469 19.941406 24.578125 C 20.105469 24.722656 20.164062 24.949219 20.09375 25.152344 C 19.8125 25.953125 19.4375 26.707031 18.96875 27.410156 C 18.871094 27.558594 18.832031 27.742188 18.875 27.910156 C 19.105469 28.898438 19.480469 29.847656 19.984375 30.722656 C 20.136719 30.988281 20.476562 31.082031 20.746094 30.929688 C 20.863281 30.859375 20.953125 30.75 20.996094 30.625 L 23.875 22.113281 C 23.890625 22.054688 23.960938 22.023438 24.019531 22.039062 C 24.023438 22.042969 24.035156 22.046875 24.039062 22.050781 C 25.574219 22.949219 27.1875 23.695312 28.863281 24.289062 C 31.097656 25.074219 32.589844 27.179688 32.589844 29.542969 L 32.589844 34.433594 C 32.589844 34.492188 32.539062 34.542969 32.472656 34.542969 L 4.523438 34.542969 C 4.457031 34.542969 4.410156 34.492188 4.410156 34.433594 L 4.410156 29.542969 C 4.410156 27.179688 5.902344 25.074219 8.132812 24.289062 C 9.808594 23.695312 11.425781 22.949219 12.957031 22.050781 C 12.96875 22.042969 12.988281 22.035156 13.003906 22.035156 Z M 13.046875 21.425781 C 12.90625 21.417969 12.769531 21.453125 12.648438 21.523438 C 11.148438 22.402344 9.566406 23.132812 7.929688 23.714844 C 5.449219 24.582031 3.796875 26.921875 3.796875 29.542969 L 3.796875 34.433594 C 3.796875 34.832031 4.121094 35.15625 4.519531 35.15625 C 4.523438 35.15625 4.523438 35.15625 4.523438 35.15625 L 32.472656 35.15625 C 32.875 35.15625 33.199219 34.832031 33.199219 34.433594 L 33.199219 29.542969 C 33.199219 26.921875 31.542969 24.585938 29.070312 23.714844 C 27.429688 23.132812 25.847656 22.402344 24.351562 21.523438 C 24.003906 21.320312 23.558594 21.4375 23.355469 21.78125 C 23.332031 21.828125 23.3125 21.871094 23.292969 21.917969 L 20.453125 30.316406 C 20.007812 29.515625 19.675781 28.652344 19.46875 27.761719 C 19.96875 27.011719 20.375 26.207031 20.667969 25.355469 C 20.824219 24.914062 20.695312 24.425781 20.339844 24.117188 C 19.285156 23.191406 17.707031 23.191406 16.652344 24.117188 C 16.300781 24.425781 16.175781 24.914062 16.328125 25.355469 C 16.625 26.207031 17.03125 27.011719 17.53125 27.761719 C 17.324219 28.652344 16.992188 29.515625 16.542969 30.316406 L 13.703125 21.917969 C 13.609375 21.632812 13.347656 21.4375 13.046875 21.425781 " fill-opacity="1" fill-rule="nonzero"/></g><g clip-path="url(#2b257fca36)"><path fill="#100f0d" d="M 25.757812 12.820312 C 26.585938 13.085938 27.042969 13.972656 26.773438 14.800781 C 26.621094 15.285156 26.242188 15.660156 25.757812 15.816406 C 25.964844 14.828125 25.964844 13.808594 25.757812 12.820312 Z M 11.242188 12.820312 C 11.035156 13.808594 11.035156 14.828125 11.242188 15.816406 C 10.410156 15.550781 9.957031 14.664062 10.226562 13.835938 C 10.378906 13.351562 10.753906 12.976562 11.242188 12.820312 Z M 13.984375 9.238281 C 16.597656 11.417969 20.402344 11.417969 23.011719 9.238281 C 25.824219 11.730469 26.078125 16.023438 23.585938 18.824219 C 21.09375 21.632812 16.792969 21.886719 13.984375 19.394531 C 11.175781 16.910156 10.917969 12.617188 13.410156 9.8125 C 13.59375 9.609375 13.78125 9.417969 13.984375 9.238281 Z M 18.386719 2.460938 C 20.246094 2.4375 22.066406 3 23.585938 4.066406 C 24.074219 4.53125 24.398438 5.148438 24.503906 5.8125 C 24.539062 6.0625 24.699219 6.28125 24.921875 6.394531 C 25.945312 6.914062 26.621094 7.929688 26.699219 9.074219 C 26.867188 10.246094 26.839844 11.433594 26.621094 12.59375 C 26.324219 12.363281 25.96875 12.210938 25.589844 12.15625 C 25.183594 10.820312 24.402344 9.625 23.34375 8.714844 C 23.15625 8.554688 22.878906 8.554688 22.691406 8.714844 C 20.28125 10.78125 16.722656 10.78125 14.308594 8.714844 C 14.121094 8.554688 13.847656 8.554688 13.660156 8.714844 C 12.601562 9.625 11.820312 10.820312 11.410156 12.15625 C 11.035156 12.210938 10.679688 12.363281 10.382812 12.59375 C 10.160156 11.433594 10.136719 10.246094 10.300781 9.074219 C 10.378906 7.929688 11.050781 6.914062 12.074219 6.394531 C 12.304688 6.28125 12.460938 6.0625 12.5 5.8125 C 12.601562 5.144531 12.925781 4.53125 13.417969 4.066406 C 14.875 3.042969 16.605469 2.484375 18.386719 2.460938 Z M 18.664062 1.851562 C 16.648438 1.816406 14.671875 2.425781 13.027344 3.59375 C 12.417969 4.152344 12.019531 4.902344 11.890625 5.71875 C 11.882812 5.773438 11.851562 5.820312 11.800781 5.847656 C 10.589844 6.460938 9.789062 7.65625 9.691406 9.007812 C 9.496094 10.390625 9.558594 11.796875 9.871094 13.15625 C 9.230469 14.175781 9.539062 15.527344 10.558594 16.167969 C 10.816406 16.328125 11.105469 16.4375 11.40625 16.480469 C 12.601562 20.390625 16.742188 22.59375 20.65625 21.402344 C 23.019531 20.683594 24.871094 18.835938 25.589844 16.480469 C 26.785156 16.304688 27.613281 15.199219 27.4375 14.003906 C 27.394531 13.703125 27.285156 13.414062 27.125 13.15625 C 27.441406 11.796875 27.503906 10.390625 27.304688 9.007812 C 27.207031 7.65625 26.40625 6.460938 25.199219 5.847656 C 25.148438 5.820312 25.113281 5.773438 25.101562 5.71875 C 24.980469 4.902344 24.574219 4.152344 23.96875 3.59375 C 22.417969 2.492188 20.570312 1.886719 18.664062 1.851562 " fill-opacity="1" fill-rule="nonzero"/></g><g clip-path="url(#22666b5472)"><path fill="#7ed957" d="M 13.144531 21.941406 C 13.199219 21.933594 13.246094 21.964844 13.265625 22.019531 L 16.066406 30.3125 C 16.160156 30.597656 16.46875 30.75 16.753906 30.65625 C 16.882812 30.613281 16.988281 30.527344 17.054688 30.410156 C 17.542969 29.554688 17.90625 28.632812 18.132812 27.671875 C 18.167969 27.503906 18.136719 27.324219 18.042969 27.179688 C 17.585938 26.496094 17.210938 25.757812 16.945312 24.980469 C 16.875 24.78125 16.933594 24.558594 17.09375 24.421875 C 17.894531 23.714844 19.097656 23.714844 19.898438 24.421875 C 20.058594 24.558594 20.113281 24.78125 20.046875 24.980469 C 19.773438 25.757812 19.410156 26.496094 18.949219 27.179688 C 18.855469 27.324219 18.820312 27.503906 18.859375 27.671875 C 19.085938 28.632812 19.449219 29.554688 19.9375 30.410156 C 20.089844 30.667969 20.421875 30.757812 20.683594 30.609375 C 20.792969 30.542969 20.882812 30.4375 20.925781 30.3125 L 23.726562 22.019531 C 23.742188 21.960938 23.808594 21.929688 23.867188 21.945312 C 23.871094 21.949219 23.882812 21.953125 23.886719 21.957031 C 25.378906 22.832031 26.949219 23.558594 28.582031 24.140625 C 30.753906 24.902344 32.207031 26.957031 32.207031 29.257812 L 32.207031 34.023438 C 32.207031 34.085938 32.15625 34.132812 32.09375 34.132812 L 4.894531 34.132812 C 4.832031 34.132812 4.78125 34.085938 4.78125 34.023438 L 4.78125 29.257812 C 4.78125 26.957031 6.234375 24.902344 8.410156 24.140625 C 10.039062 23.558594 11.609375 22.832031 13.101562 21.957031 C 13.113281 21.949219 13.132812 21.945312 13.144531 21.941406 Z M 13.1875 21.347656 C 13.054688 21.339844 12.917969 21.375 12.800781 21.441406 C 11.34375 22.300781 9.804688 23.011719 8.210938 23.578125 C 5.796875 24.425781 4.1875 26.703125 4.1875 29.257812 L 4.1875 34.023438 C 4.1875 34.414062 4.503906 34.730469 4.890625 34.730469 C 4.894531 34.730469 4.894531 34.730469 4.894531 34.730469 L 32.09375 34.730469 C 32.484375 34.730469 32.800781 34.414062 32.800781 34.023438 L 32.800781 29.257812 C 32.800781 26.703125 31.191406 24.429688 28.78125 23.578125 C 27.1875 23.011719 25.648438 22.300781 24.191406 21.441406 C 23.851562 21.246094 23.417969 21.359375 23.222656 21.695312 C 23.199219 21.738281 23.179688 21.78125 23.160156 21.828125 L 20.398438 30.011719 C 19.960938 29.230469 19.640625 28.394531 19.4375 27.523438 C 19.925781 26.792969 20.320312 26.007812 20.605469 25.175781 C 20.757812 24.746094 20.628906 24.273438 20.289062 23.972656 C 19.261719 23.070312 17.726562 23.070312 16.699219 23.972656 C 16.355469 24.273438 16.234375 24.746094 16.382812 25.175781 C 16.671875 26.007812 17.066406 26.792969 17.550781 27.523438 C 17.351562 28.394531 17.027344 29.230469 16.59375 30.011719 L 13.828125 21.828125 C 13.738281 21.550781 13.484375 21.363281 13.1875 21.347656 " fill-opacity="1" fill-rule="nonzero"/></g><g clip-path="url(#43c2d34d2f)"><path fill="#7ed957" d="M 25.558594 12.960938 C 26.367188 13.21875 26.808594 14.085938 26.546875 14.890625 C 26.398438 15.363281 26.027344 15.730469 25.558594 15.878906 C 25.761719 14.917969 25.761719 13.921875 25.558594 12.960938 Z M 11.429688 12.960938 C 11.230469 13.921875 11.230469 14.917969 11.429688 15.878906 C 10.625 15.621094 10.179688 14.757812 10.441406 13.949219 C 10.59375 13.480469 10.957031 13.113281 11.429688 12.960938 Z M 14.101562 9.472656 C 16.644531 11.59375 20.34375 11.59375 22.886719 9.472656 C 25.621094 11.898438 25.871094 16.082031 23.441406 18.8125 C 21.019531 21.550781 16.835938 21.796875 14.101562 19.371094 C 11.367188 16.945312 11.117188 12.761719 13.542969 10.03125 C 13.71875 9.832031 13.902344 9.648438 14.101562 9.472656 Z M 18.386719 2.867188 C 20.195312 2.84375 21.964844 3.390625 23.441406 4.429688 C 23.921875 4.882812 24.234375 5.480469 24.335938 6.128906 C 24.375 6.375 24.527344 6.585938 24.746094 6.699219 C 25.742188 7.203125 26.398438 8.195312 26.476562 9.308594 C 26.640625 10.449219 26.613281 11.609375 26.398438 12.742188 C 26.109375 12.515625 25.761719 12.367188 25.394531 12.3125 C 25 11.011719 24.238281 9.847656 23.210938 8.957031 C 23.027344 8.800781 22.757812 8.800781 22.574219 8.957031 C 20.230469 10.972656 16.765625 10.972656 14.417969 8.957031 C 14.234375 8.800781 13.96875 8.800781 13.785156 8.957031 C 12.753906 9.847656 11.996094 11.011719 11.597656 12.3125 C 11.234375 12.367188 10.886719 12.515625 10.59375 12.742188 C 10.378906 11.609375 10.355469 10.449219 10.519531 9.308594 C 10.59375 8.195312 11.246094 7.203125 12.246094 6.699219 C 12.464844 6.585938 12.617188 6.375 12.65625 6.128906 C 12.757812 5.480469 13.070312 4.882812 13.550781 4.429688 C 14.96875 3.433594 16.652344 2.886719 18.386719 2.867188 Z M 18.65625 2.273438 C 16.695312 2.238281 14.769531 2.832031 13.167969 3.96875 C 12.578125 4.515625 12.1875 5.242188 12.066406 6.039062 C 12.058594 6.09375 12.023438 6.140625 11.976562 6.164062 C 10.796875 6.761719 10.019531 7.929688 9.925781 9.246094 C 9.734375 10.59375 9.792969 11.964844 10.097656 13.285156 C 9.476562 14.285156 9.773438 15.597656 10.769531 16.222656 C 11.019531 16.382812 11.300781 16.484375 11.59375 16.527344 C 12.753906 20.339844 16.785156 22.484375 20.597656 21.324219 C 22.894531 20.625 24.695312 18.824219 25.394531 16.527344 C 26.558594 16.359375 27.363281 15.277344 27.191406 14.113281 C 27.152344 13.820312 27.046875 13.539062 26.890625 13.285156 C 27.195312 11.964844 27.257812 10.59375 27.0625 9.246094 C 26.96875 7.929688 26.191406 6.761719 25.015625 6.164062 C 24.964844 6.140625 24.929688 6.09375 24.921875 6.039062 C 24.800781 5.242188 24.410156 4.515625 23.816406 3.96875 C 22.308594 2.894531 20.507812 2.304688 18.65625 2.273438 " fill-opacity="1" fill-rule="nonzero"/></g></svg>