<svg xmlns="http://www.w3.org/2000/svg" xmlns:xlink="http://www.w3.org/1999/xlink" width="500" zoomAndPan="magnify" viewBox="0 0 375 374.999991" height="500" preserveAspectRatio="xMidYMid meet" version="1.0"><defs><clipPath id="8dd385a382"><path d="M 111 102 L 275 102 L 275 301.75 L 111 301.75 Z M 111 102 " clip-rule="nonzero"/></clipPath><clipPath id="988669d53b"><path d="M 278 147 L 302.355469 147 L 302.355469 205 L 278 205 Z M 278 147 " clip-rule="nonzero"/></clipPath><clipPath id="9adcf4b275"><path d="M 113 104 L 274 104 L 274 299.65625 L 113 299.65625 Z M 113 104 " clip-rule="nonzero"/></clipPath><clipPath id="02d9b6be28"><path d="M 276 148 L 299.515625 148 L 299.515625 205 L 276 205 Z M 276 148 " clip-rule="nonzero"/></clipPath></defs><path fill="#11003b" d="M 159.117188 129.707031 C 164.234375 127.628906 168.792969 124.714844 172.757812 121.492188 C 172.066406 114.828125 170.945312 109.578125 169.421875 105.878906 C 165.019531 95.199219 153.238281 79.328125 146.273438 76.71875 C 145.171875 76.308594 144.285156 76.261719 143.640625 76.585938 C 139.566406 78.625 140.019531 89.429688 141.359375 96.746094 C 144.132812 96.644531 145.984375 96.800781 146.171875 96.820312 C 147.191406 96.914062 147.9375 97.8125 147.84375 98.828125 C 147.753906 99.847656 146.855469 100.601562 145.835938 100.503906 C 145.726562 100.492188 134.789062 99.570312 125.667969 104.128906 C 116.515625 108.707031 110.597656 118.0625 110.539062 118.15625 C 110.1875 118.71875 109.585938 119.027344 108.96875 119.027344 C 108.632812 119.027344 108.296875 118.933594 107.992188 118.746094 C 107.125 118.203125 106.863281 117.0625 107.402344 116.195312 C 107.503906 116.035156 108.515625 114.4375 110.300781 112.253906 C 105.402344 106.730469 97.234375 99.785156 93.1875 101.8125 C 92.53125 102.136719 92.019531 102.890625 91.667969 104.042969 C 89.464844 111.25 94.699219 130.40625 100.371094 140.449219 C 101.984375 143.3125 104.59375 146.597656 108.140625 150.246094 L 108.140625 134.714844 C 108.140625 134.160156 108.386719 133.636719 108.816406 133.285156 C 109.246094 132.933594 109.808594 132.792969 110.351562 132.902344 C 110.625 132.957031 137.972656 138.285156 159.117188 129.707031 Z M 159.117188 129.707031 " fill-opacity="1" fill-rule="nonzero"/><path fill="#11003b" d="M 96.363281 194.632812 C 88.714844 184.71875 89.609375 166.6875 90.601562 160.574219 C 91.234375 156.828125 88.757812 153.269531 85.082031 152.628906 C 84.714844 152.5625 84.335938 152.53125 83.957031 152.53125 C 80.667969 152.53125 77.875 154.929688 77.3125 158.230469 C 76.832031 161.078125 72.96875 186.527344 85.757812 203.109375 C 90.238281 208.917969 97.761719 213.445312 108.140625 216.597656 L 108.140625 202.160156 C 102.578125 200.085938 98.617188 197.554688 96.363281 194.632812 Z M 96.363281 194.632812 " fill-opacity="1" fill-rule="nonzero"/><path fill="#11003b" d="M 292.066406 113.976562 C 290.199219 101.960938 270.515625 104.285156 270.316406 104.3125 C 269.703125 104.386719 269.085938 104.152344 268.679688 103.679688 C 268.628906 103.621094 263.425781 97.640625 255.539062 94.039062 C 247.617188 90.421875 239.804688 90.464844 239.71875 90.457031 C 239.714844 90.457031 239.707031 90.457031 239.703125 90.457031 C 239.089844 90.457031 238.515625 90.152344 238.167969 89.640625 C 238.058594 89.476562 226.71875 72.988281 216.644531 79.519531 C 209.082031 84.417969 212.199219 101.957031 214.945312 111.613281 C 219.433594 105.449219 224.441406 100.289062 230.09375 95.988281 C 230.90625 95.371094 232.066406 95.53125 232.683594 96.34375 C 233.304688 97.15625 233.144531 98.316406 232.332031 98.933594 C 224.949219 104.550781 218.710938 111.734375 213.296875 120.855469 C 217.441406 124.328125 222.253906 127.492188 227.710938 129.703125 C 240.800781 135.015625 256.265625 134.996094 266.214844 134.199219 C 267.46875 127.597656 267.84375 121.28125 267.332031 114.941406 C 267.25 113.921875 268.007812 113.03125 269.027344 112.949219 C 270.050781 112.867188 270.9375 113.625 271.019531 114.644531 C 271.53125 120.980469 271.210938 127.28125 270.050781 133.828125 C 273.222656 133.472656 275.414062 133.097656 276.175781 132.957031 C 282.75 129.070312 293.246094 121.582031 292.066406 113.976562 Z M 292.066406 113.976562 " fill-opacity="1" fill-rule="nonzero"/><g clip-path="url(#8dd385a382)"><path fill="#11003b" d="M 226.320312 133.132812 C 208.484375 125.898438 197.398438 109.707031 193.414062 102.992188 C 189.429688 109.707031 178.34375 125.898438 160.507812 133.132812 C 141.660156 140.78125 118.964844 138.054688 111.835938 136.917969 L 111.835938 248 C 111.835938 259.671875 120.613281 271.710938 136.550781 281.898438 C 151.714844 291.59375 172.429688 298.90625 193.414062 301.976562 C 214.398438 298.90625 235.109375 291.59375 250.273438 281.898438 C 266.210938 271.710938 274.988281 259.671875 274.988281 248 L 274.988281 136.917969 C 267.867188 138.054688 245.167969 140.78125 226.320312 133.132812 Z M 234.210938 224.203125 L 209.253906 224.203125 L 209.253906 249.519531 L 177.574219 249.519531 L 177.574219 224.203125 L 152.617188 224.203125 L 152.617188 192.070312 L 177.574219 192.070312 L 177.574219 166.753906 L 209.253906 166.753906 L 209.253906 192.070312 L 234.210938 192.070312 Z M 234.210938 224.203125 " fill-opacity="1" fill-rule="nonzero"/></g><g clip-path="url(#988669d53b)"><path fill="#11003b" d="M 298.0625 177.402344 C 298.101562 177.363281 302.023438 173.371094 302.023438 169.265625 C 302.023438 165.195312 298.53125 161.789062 298.496094 161.753906 C 297.953125 161.230469 297.777344 160.429688 298.058594 159.730469 C 298.628906 158.289062 299.855469 154.015625 298.65625 151.609375 C 297.863281 150.019531 295.933594 148.585938 294.257812 147.59375 C 293.894531 152.425781 292.859375 162.246094 290.195312 168.238281 C 287.167969 175.042969 280.871094 180.453125 278.6875 182.1875 L 278.6875 204.660156 C 280.519531 204.765625 283.203125 204.617188 284.886719 203.410156 C 287.011719 201.882812 287.277344 197.207031 287.207031 195.691406 C 287.179688 195.167969 287.378906 194.660156 287.75 194.289062 C 288.121094 193.921875 288.628906 193.726562 289.152344 193.753906 C 290.972656 193.847656 296.132812 193.46875 298.023438 190.652344 C 299.972656 187.753906 298.398438 181.496094 297.628906 179.332031 C 297.386719 178.660156 297.558594 177.90625 298.0625 177.402344 Z M 298.0625 177.402344 " fill-opacity="1" fill-rule="nonzero"/></g><path fill="#7ed957" d="M 159.714844 130.917969 C 164.726562 128.886719 169.1875 126.03125 173.066406 122.878906 C 172.390625 116.355469 171.292969 111.214844 169.804688 107.597656 C 165.496094 97.136719 153.960938 81.601562 147.140625 79.050781 C 146.0625 78.644531 145.195312 78.601562 144.566406 78.917969 C 140.574219 80.910156 141.015625 91.492188 142.328125 98.652344 C 145.046875 98.554688 146.859375 98.707031 147.042969 98.722656 C 148.039062 98.816406 148.773438 99.695312 148.679688 100.691406 C 148.589844 101.6875 147.710938 102.429688 146.710938 102.332031 C 146.609375 102.320312 135.898438 101.417969 126.972656 105.882812 C 118.007812 110.363281 112.214844 119.519531 112.160156 119.613281 C 111.816406 120.164062 111.226562 120.464844 110.621094 120.464844 C 110.292969 120.464844 109.960938 120.375 109.664062 120.1875 C 108.816406 119.660156 108.558594 118.542969 109.089844 117.695312 C 109.1875 117.535156 110.179688 115.972656 111.925781 113.832031 C 107.128906 108.425781 99.136719 101.628906 95.171875 103.613281 C 94.53125 103.933594 94.03125 104.667969 93.6875 105.796875 C 91.527344 112.851562 96.652344 131.605469 102.203125 141.4375 C 103.785156 144.238281 106.339844 147.457031 109.808594 151.027344 L 109.808594 135.824219 C 109.808594 135.28125 110.054688 134.765625 110.472656 134.421875 C 110.894531 134.078125 111.445312 133.941406 111.976562 134.046875 C 112.242188 134.101562 139.015625 139.320312 159.714844 130.917969 Z M 159.714844 130.917969 " fill-opacity="1" fill-rule="nonzero"/><path fill="#7ed957" d="M 98.28125 194.480469 C 90.796875 184.777344 91.671875 167.121094 92.640625 161.136719 C 93.257812 157.472656 90.835938 153.988281 87.234375 153.359375 C 86.875 153.296875 86.503906 153.265625 86.136719 153.265625 C 82.917969 153.265625 80.179688 155.613281 79.632812 158.84375 C 79.160156 161.628906 75.378906 186.546875 87.898438 202.78125 C 92.285156 208.464844 99.652344 212.898438 109.808594 215.984375 L 109.808594 201.847656 C 104.363281 199.816406 100.488281 197.339844 98.28125 194.480469 Z M 98.28125 194.480469 " fill-opacity="1" fill-rule="nonzero"/><path fill="#7ed957" d="M 289.867188 115.519531 C 288.039062 103.761719 268.769531 106.035156 268.574219 106.058594 C 267.976562 106.132812 267.371094 105.902344 266.972656 105.441406 C 266.925781 105.382812 261.832031 99.527344 254.109375 96.003906 C 246.351562 92.464844 238.707031 92.503906 238.621094 92.496094 C 238.617188 92.496094 238.609375 92.496094 238.605469 92.496094 C 238.003906 92.496094 237.441406 92.195312 237.105469 91.695312 C 236.996094 91.535156 225.894531 75.394531 216.03125 81.789062 C 208.628906 86.585938 211.683594 103.753906 214.371094 113.207031 C 218.765625 107.171875 223.664062 102.125 229.199219 97.914062 C 229.996094 97.304688 231.128906 97.460938 231.734375 98.257812 C 232.339844 99.054688 232.1875 100.1875 231.390625 100.792969 C 224.164062 106.292969 218.058594 113.328125 212.757812 122.253906 C 216.8125 125.65625 221.523438 128.75 226.867188 130.917969 C 239.679688 136.117188 254.820312 136.097656 264.558594 135.316406 C 265.789062 128.855469 266.15625 122.671875 265.65625 116.464844 C 265.574219 115.46875 266.316406 114.597656 267.3125 114.515625 C 268.316406 114.433594 269.183594 115.179688 269.265625 116.175781 C 269.761719 122.375 269.449219 128.546875 268.316406 134.957031 C 271.421875 134.609375 273.566406 134.238281 274.3125 134.101562 C 280.746094 130.296875 291.023438 122.964844 289.867188 115.519531 Z M 289.867188 115.519531 " fill-opacity="1" fill-rule="nonzero"/><g clip-path="url(#9adcf4b275)"><path fill="#7ed957" d="M 225.503906 134.273438 C 208.042969 127.191406 197.191406 111.339844 193.289062 104.765625 C 189.390625 111.339844 178.539062 127.191406 161.078125 134.273438 C 142.625 141.761719 120.40625 139.09375 113.429688 137.980469 L 113.429688 246.726562 C 113.429688 258.152344 122.023438 269.9375 137.625 279.914062 C 152.46875 289.402344 172.746094 296.558594 193.289062 299.566406 C 213.835938 296.558594 234.109375 289.402344 248.957031 279.914062 C 264.558594 269.9375 273.148438 258.152344 273.148438 246.726562 L 273.148438 137.980469 C 266.175781 139.09375 243.957031 141.761719 225.503906 134.273438 Z M 233.230469 223.429688 L 208.796875 223.429688 L 208.796875 248.210938 L 177.785156 248.210938 L 177.785156 223.429688 L 153.351562 223.429688 L 153.351562 191.972656 L 177.785156 191.972656 L 177.785156 167.191406 L 208.796875 167.191406 L 208.796875 191.972656 L 233.230469 191.972656 Z M 233.230469 223.429688 " fill-opacity="1" fill-rule="nonzero"/></g><g clip-path="url(#02d9b6be28)"><path fill="#7ed957" d="M 295.738281 177.613281 C 295.773438 177.574219 299.617188 173.667969 299.617188 169.648438 C 299.617188 165.664062 296.199219 162.328125 296.164062 162.292969 C 295.632812 161.78125 295.460938 160.996094 295.734375 160.3125 C 296.292969 158.902344 297.492188 154.71875 296.320312 152.363281 C 295.542969 150.808594 293.65625 149.402344 292.011719 148.433594 C 291.65625 153.164062 290.644531 162.777344 288.035156 168.640625 C 285.070312 175.304688 278.910156 180.597656 276.769531 182.300781 L 276.769531 204.296875 C 278.5625 204.402344 281.191406 204.257812 282.839844 203.074219 C 284.917969 201.578125 285.179688 197.003906 285.109375 195.515625 C 285.085938 195.003906 285.277344 194.507812 285.640625 194.144531 C 286.003906 193.785156 286.503906 193.59375 287.015625 193.621094 C 288.796875 193.714844 293.847656 193.339844 295.699219 190.585938 C 297.609375 187.746094 296.066406 181.621094 295.3125 179.503906 C 295.078125 178.84375 295.242188 178.105469 295.738281 177.613281 Z M 295.738281 177.613281 " fill-opacity="1" fill-rule="nonzero"/></g></svg>