<svg xmlns="http://www.w3.org/2000/svg" xmlns:xlink="http://www.w3.org/1999/xlink" width="50" zoomAndPan="magnify" viewBox="0 0 37.5 37.499999" height="50" preserveAspectRatio="xMidYMid meet" version="1.0"><defs><clipPath id="d5eb75bcb6"><path d="M 0 0 L 37.007812 0 L 37.007812 36.71875 L 0 36.71875 Z M 0 0 " clip-rule="nonzero"/></clipPath><clipPath id="f0158d4203"><path d="M 0 0 L 34.785156 0 L 34.785156 35.621094 L 0 35.621094 Z M 0 0 " clip-rule="nonzero"/></clipPath></defs><g clip-path="url(#d5eb75bcb6)"><path fill="#157900" d="M 30.339844 2.105469 L 28.539062 2.105469 L 28.539062 -0.582031 C 28.539062 -1.230469 28.015625 -1.75 27.371094 -1.75 C 26.726562 -1.75 26.203125 -1.222656 26.203125 -0.582031 L 26.203125 2.109375 L 10.152344 2.109375 L 10.152344 -0.582031 C 10.152344 -1.230469 9.628906 -1.75 8.984375 -1.75 C 8.339844 -1.75 7.816406 -1.222656 7.816406 -0.582031 L 7.816406 2.109375 L 6.683594 2.109375 C 2.992188 2.109375 0 5.101562 0 8.792969 L 0 30.292969 C 0 33.984375 2.992188 36.976562 6.683594 36.976562 L 30.339844 36.976562 C 34.03125 36.976562 37.023438 33.984375 37.023438 30.292969 L 37.023438 8.792969 C 37.03125 5.101562 34.03125 2.105469 30.339844 2.105469 Z M 26.199219 3.339844 L 26.199219 5.769531 C 26.199219 6.414062 26.726562 6.9375 27.367188 6.9375 C 28.015625 6.9375 28.535156 6.410156 28.535156 5.769531 L 28.535156 3.433594 C 29.285156 3.867188 29.789062 4.679688 29.789062 5.605469 C 29.789062 6.988281 28.667969 8.113281 27.28125 8.113281 C 25.894531 8.113281 24.773438 6.988281 24.773438 5.605469 C 24.78125 4.605469 25.359375 3.746094 26.199219 3.339844 Z M 7.8125 3.382812 L 7.8125 5.769531 C 7.8125 6.414062 8.339844 6.9375 8.980469 6.9375 C 9.628906 6.9375 10.148438 6.410156 10.148438 5.769531 L 10.148438 3.382812 C 10.945312 3.804688 11.484375 4.640625 11.484375 5.601562 C 11.484375 6.984375 10.363281 8.109375 8.976562 8.109375 C 7.589844 8.109375 6.46875 6.984375 6.46875 5.601562 C 6.476562 4.640625 7.023438 3.804688 7.8125 3.382812 Z M 34.6875 30.289062 C 34.6875 32.6875 32.738281 34.632812 30.347656 34.632812 L 6.683594 34.632812 C 4.285156 34.632812 2.339844 32.683594 2.339844 30.289062 L 2.339844 12.480469 L 34.6875 12.480469 Z M 34.6875 30.289062 " fill-opacity="1" fill-rule="nonzero"/></g><path fill="#157900" d="M 10.1875 19.222656 L 6.949219 19.222656 C 6.6875 19.222656 6.476562 19.011719 6.476562 18.75 L 6.476562 15.511719 C 6.476562 15.25 6.6875 15.039062 6.949219 15.039062 L 10.1875 15.039062 C 10.449219 15.039062 10.660156 15.25 10.660156 15.511719 L 10.660156 18.75 C 10.65625 19.011719 10.449219 19.222656 10.1875 19.222656 Z M 10.1875 19.222656 " fill-opacity="1" fill-rule="nonzero"/><path fill="#157900" d="M 10.1875 25.863281 L 6.949219 25.863281 C 6.6875 25.863281 6.476562 25.652344 6.476562 25.390625 L 6.476562 22.152344 C 6.476562 21.890625 6.6875 21.679688 6.949219 21.679688 L 10.1875 21.679688 C 10.449219 21.679688 10.660156 21.890625 10.660156 22.152344 L 10.660156 25.390625 C 10.65625 25.65625 10.449219 25.863281 10.1875 25.863281 Z M 10.1875 25.863281 " fill-opacity="1" fill-rule="nonzero"/><path fill="#157900" d="M 10.1875 32.507812 L 6.949219 32.507812 C 6.6875 32.507812 6.476562 32.296875 6.476562 32.035156 L 6.476562 28.796875 C 6.476562 28.539062 6.6875 28.324219 6.949219 28.324219 L 10.1875 28.324219 C 10.449219 28.324219 10.660156 28.539062 10.660156 28.796875 L 10.660156 32.042969 C 10.65625 32.296875 10.449219 32.507812 10.1875 32.507812 Z M 10.1875 32.507812 " fill-opacity="1" fill-rule="nonzero"/><path fill="#157900" d="M 16.828125 19.222656 L 13.589844 19.222656 C 13.328125 19.222656 13.117188 19.011719 13.117188 18.75 L 13.117188 15.511719 C 13.117188 15.25 13.328125 15.039062 13.589844 15.039062 L 16.828125 15.039062 C 17.089844 15.039062 17.300781 15.25 17.300781 15.511719 L 17.300781 18.75 C 17.300781 19.011719 17.089844 19.222656 16.828125 19.222656 Z M 16.828125 19.222656 " fill-opacity="1" fill-rule="nonzero"/><path fill="#157900" d="M 16.828125 25.863281 L 13.589844 25.863281 C 13.328125 25.863281 13.117188 25.652344 13.117188 25.390625 L 13.117188 22.152344 C 13.117188 21.890625 13.328125 21.679688 13.589844 21.679688 L 16.828125 21.679688 C 17.089844 21.679688 17.300781 21.890625 17.300781 22.152344 L 17.300781 25.390625 C 17.300781 25.65625 17.089844 25.863281 16.828125 25.863281 Z M 16.828125 25.863281 " fill-opacity="1" fill-rule="nonzero"/><path fill="#157900" d="M 16.828125 32.507812 L 13.589844 32.507812 C 13.328125 32.507812 13.117188 32.296875 13.117188 32.035156 L 13.117188 28.796875 C 13.117188 28.539062 13.328125 28.324219 13.589844 28.324219 L 16.828125 28.324219 C 17.089844 28.324219 17.300781 28.539062 17.300781 28.796875 L 17.300781 32.042969 C 17.300781 32.296875 17.089844 32.507812 16.828125 32.507812 Z M 16.828125 32.507812 " fill-opacity="1" fill-rule="nonzero"/><path fill="#157900" d="M 23.472656 19.222656 L 20.234375 19.222656 C 19.976562 19.222656 19.761719 19.011719 19.761719 18.75 L 19.761719 15.511719 C 19.761719 15.25 19.976562 15.039062 20.234375 15.039062 L 23.472656 15.039062 C 23.734375 15.039062 23.945312 15.25 23.945312 15.511719 L 23.945312 18.75 C 23.941406 19.011719 23.734375 19.222656 23.472656 19.222656 Z M 23.472656 19.222656 " fill-opacity="1" fill-rule="nonzero"/><path fill="#157900" d="M 23.472656 25.863281 L 20.234375 25.863281 C 19.976562 25.863281 19.761719 25.652344 19.761719 25.390625 L 19.761719 22.152344 C 19.761719 21.890625 19.976562 21.679688 20.234375 21.679688 L 23.472656 21.679688 C 23.734375 21.679688 23.945312 21.890625 23.945312 22.152344 L 23.945312 25.390625 C 23.941406 25.65625 23.734375 25.863281 23.472656 25.863281 Z M 23.472656 25.863281 " fill-opacity="1" fill-rule="nonzero"/><path fill="#157900" d="M 23.472656 32.507812 L 20.234375 32.507812 C 19.976562 32.507812 19.761719 32.296875 19.761719 32.035156 L 19.761719 28.796875 C 19.761719 28.539062 19.976562 28.324219 20.234375 28.324219 L 23.472656 28.324219 C 23.734375 28.324219 23.945312 28.539062 23.945312 28.796875 L 23.945312 32.042969 C 23.941406 32.296875 23.734375 32.507812 23.472656 32.507812 Z M 23.472656 32.507812 " fill-opacity="1" fill-rule="nonzero"/><path fill="#157900" d="M 30.117188 19.222656 L 26.878906 19.222656 C 26.621094 19.222656 26.40625 19.011719 26.40625 18.75 L 26.40625 15.511719 C 26.40625 15.25 26.621094 15.039062 26.878906 15.039062 L 30.117188 15.039062 C 30.378906 15.039062 30.59375 15.25 30.59375 15.511719 L 30.59375 18.75 C 30.585938 19.011719 30.375 19.222656 30.117188 19.222656 Z M 30.117188 19.222656 " fill-opacity="1" fill-rule="nonzero"/><path fill="#157900" d="M 30.117188 25.863281 L 26.878906 25.863281 C 26.621094 25.863281 26.40625 25.652344 26.40625 25.390625 L 26.40625 22.152344 C 26.40625 21.890625 26.621094 21.679688 26.878906 21.679688 L 30.117188 21.679688 C 30.378906 21.679688 30.59375 21.890625 30.59375 22.152344 L 30.59375 25.390625 C 30.585938 25.65625 30.375 25.863281 30.117188 25.863281 Z M 30.117188 25.863281 " fill-opacity="1" fill-rule="nonzero"/><g clip-path="url(#f0158d4203)"><path fill="#7ed957" d="M 28.578125 3.007812 L 26.882812 3.007812 L 26.882812 0.476562 C 26.882812 -0.132812 26.386719 -0.625 25.78125 -0.625 C 25.171875 -0.625 24.683594 -0.128906 24.683594 0.476562 L 24.683594 3.011719 L 9.5625 3.011719 L 9.5625 0.476562 C 9.5625 -0.132812 9.070312 -0.625 8.464844 -0.625 C 7.855469 -0.625 7.363281 -0.128906 7.363281 0.476562 L 7.363281 3.011719 L 6.296875 3.011719 C 2.816406 3.011719 0 5.832031 0 9.308594 L 0 29.558594 C 0 33.039062 2.816406 35.855469 6.296875 35.855469 L 28.578125 35.855469 C 32.054688 35.855469 34.875 33.039062 34.875 29.558594 L 34.875 9.308594 C 34.878906 5.832031 32.054688 3.007812 28.578125 3.007812 Z M 24.679688 4.171875 L 24.679688 6.457031 C 24.679688 7.066406 25.171875 7.558594 25.777344 7.558594 C 26.386719 7.558594 26.878906 7.0625 26.878906 6.457031 L 26.878906 4.257812 C 27.582031 4.667969 28.058594 5.429688 28.058594 6.304688 C 28.058594 7.609375 27 8.667969 25.695312 8.667969 C 24.390625 8.667969 23.332031 7.609375 23.332031 6.304688 C 23.34375 5.363281 23.886719 4.554688 24.679688 4.171875 Z M 7.359375 4.214844 L 7.359375 6.457031 C 7.359375 7.066406 7.855469 7.558594 8.460938 7.558594 C 9.070312 7.558594 9.558594 7.0625 9.558594 6.457031 L 9.558594 4.214844 C 10.308594 4.609375 10.820312 5.394531 10.820312 6.300781 C 10.820312 7.605469 9.757812 8.664062 8.453125 8.664062 C 7.148438 8.664062 6.089844 7.605469 6.089844 6.300781 C 6.101562 5.394531 6.613281 4.609375 7.359375 4.214844 Z M 32.675781 29.554688 C 32.675781 31.8125 30.835938 33.644531 28.582031 33.644531 L 6.296875 33.644531 C 4.035156 33.644531 2.203125 31.808594 2.203125 29.554688 L 2.203125 12.78125 L 32.675781 12.78125 Z M 32.675781 29.554688 " fill-opacity="1" fill-rule="nonzero"/></g><path fill="#7ed957" d="M 9.597656 19.132812 L 6.546875 19.132812 C 6.300781 19.132812 6.101562 18.933594 6.101562 18.6875 L 6.101562 15.636719 C 6.101562 15.390625 6.300781 15.191406 6.546875 15.191406 L 9.597656 15.191406 C 9.839844 15.191406 10.042969 15.390625 10.042969 15.636719 L 10.042969 18.6875 C 10.035156 18.933594 9.839844 19.132812 9.597656 19.132812 Z M 9.597656 19.132812 " fill-opacity="1" fill-rule="nonzero"/><path fill="#7ed957" d="M 9.597656 25.386719 L 6.546875 25.386719 C 6.300781 25.386719 6.101562 25.1875 6.101562 24.941406 L 6.101562 21.890625 C 6.101562 21.644531 6.300781 21.445312 6.546875 21.445312 L 9.597656 21.445312 C 9.839844 21.445312 10.042969 21.644531 10.042969 21.890625 L 10.042969 24.941406 C 10.035156 25.191406 9.839844 25.386719 9.597656 25.386719 Z M 9.597656 25.386719 " fill-opacity="1" fill-rule="nonzero"/><path fill="#7ed957" d="M 9.597656 31.644531 L 6.546875 31.644531 C 6.300781 31.644531 6.101562 31.445312 6.101562 31.199219 L 6.101562 28.152344 C 6.101562 27.90625 6.300781 27.707031 6.546875 27.707031 L 9.597656 27.707031 C 9.839844 27.707031 10.042969 27.90625 10.042969 28.152344 L 10.042969 31.207031 C 10.035156 31.445312 9.839844 31.644531 9.597656 31.644531 Z M 9.597656 31.644531 " fill-opacity="1" fill-rule="nonzero"/><path fill="#7ed957" d="M 15.851562 19.132812 L 12.800781 19.132812 C 12.554688 19.132812 12.355469 18.933594 12.355469 18.6875 L 12.355469 15.636719 C 12.355469 15.390625 12.554688 15.191406 12.800781 15.191406 L 15.851562 15.191406 C 16.097656 15.191406 16.296875 15.390625 16.296875 15.636719 L 16.296875 18.6875 C 16.296875 18.933594 16.097656 19.132812 15.851562 19.132812 Z M 15.851562 19.132812 " fill-opacity="1" fill-rule="nonzero"/><path fill="#7ed957" d="M 15.851562 25.386719 L 12.800781 25.386719 C 12.554688 25.386719 12.355469 25.1875 12.355469 24.941406 L 12.355469 21.890625 C 12.355469 21.644531 12.554688 21.445312 12.800781 21.445312 L 15.851562 21.445312 C 16.097656 21.445312 16.296875 21.644531 16.296875 21.890625 L 16.296875 24.941406 C 16.296875 25.191406 16.097656 25.386719 15.851562 25.386719 Z M 15.851562 25.386719 " fill-opacity="1" fill-rule="nonzero"/><path fill="#7ed957" d="M 15.851562 31.644531 L 12.800781 31.644531 C 12.554688 31.644531 12.355469 31.445312 12.355469 31.199219 L 12.355469 28.152344 C 12.355469 27.90625 12.554688 27.707031 12.800781 27.707031 L 15.851562 27.707031 C 16.097656 27.707031 16.296875 27.90625 16.296875 28.152344 L 16.296875 31.207031 C 16.296875 31.445312 16.097656 31.644531 15.851562 31.644531 Z M 15.851562 31.644531 " fill-opacity="1" fill-rule="nonzero"/><path fill="#7ed957" d="M 22.109375 19.132812 L 19.058594 19.132812 C 18.8125 19.132812 18.613281 18.933594 18.613281 18.6875 L 18.613281 15.636719 C 18.613281 15.390625 18.8125 15.191406 19.058594 15.191406 L 22.109375 15.191406 C 22.355469 15.191406 22.554688 15.390625 22.554688 15.636719 L 22.554688 18.6875 C 22.550781 18.933594 22.355469 19.132812 22.109375 19.132812 Z M 22.109375 19.132812 " fill-opacity="1" fill-rule="nonzero"/><path fill="#7ed957" d="M 22.109375 25.386719 L 19.058594 25.386719 C 18.8125 25.386719 18.613281 25.1875 18.613281 24.941406 L 18.613281 21.890625 C 18.613281 21.644531 18.8125 21.445312 19.058594 21.445312 L 22.109375 21.445312 C 22.355469 21.445312 22.554688 21.644531 22.554688 21.890625 L 22.554688 24.941406 C 22.550781 25.191406 22.355469 25.386719 22.109375 25.386719 Z M 22.109375 25.386719 " fill-opacity="1" fill-rule="nonzero"/><path fill="#7ed957" d="M 22.109375 31.644531 L 19.058594 31.644531 C 18.8125 31.644531 18.613281 31.445312 18.613281 31.199219 L 18.613281 28.152344 C 18.613281 27.90625 18.8125 27.707031 19.058594 27.707031 L 22.109375 27.707031 C 22.355469 27.707031 22.554688 27.90625 22.554688 28.152344 L 22.554688 31.207031 C 22.550781 31.445312 22.355469 31.644531 22.109375 31.644531 Z M 22.109375 31.644531 " fill-opacity="1" fill-rule="nonzero"/><path fill="#7ed957" d="M 28.371094 19.132812 L 25.320312 19.132812 C 25.074219 19.132812 24.875 18.933594 24.875 18.6875 L 24.875 15.636719 C 24.875 15.390625 25.074219 15.191406 25.320312 15.191406 L 28.371094 15.191406 C 28.613281 15.191406 28.816406 15.390625 28.816406 15.636719 L 28.816406 18.6875 C 28.808594 18.933594 28.609375 19.132812 28.371094 19.132812 Z M 28.371094 19.132812 " fill-opacity="1" fill-rule="nonzero"/><path fill="#7ed957" d="M 28.371094 25.386719 L 25.320312 25.386719 C 25.074219 25.386719 24.875 25.1875 24.875 24.941406 L 24.875 21.890625 C 24.875 21.644531 25.074219 21.445312 25.320312 21.445312 L 28.371094 21.445312 C 28.613281 21.445312 28.816406 21.644531 28.816406 21.890625 L 28.816406 24.941406 C 28.808594 25.191406 28.609375 25.386719 28.371094 25.386719 Z M 28.371094 25.386719 " fill-opacity="1" fill-rule="nonzero"/></svg>