<svg xmlns="http://www.w3.org/2000/svg" xmlns:xlink="http://www.w3.org/1999/xlink" width="50" zoomAndPan="magnify" viewBox="0 0 37.5 37.499999" height="50" preserveAspectRatio="xMidYMid meet" version="1.0"><defs><clipPath id="2b5acde97e"><path d="M 0 0 L 37.007812 0 L 37.007812 36.71875 L 0 36.71875 Z M 0 0 " clip-rule="nonzero"/></clipPath><clipPath id="9761b7a30e"><path d="M 0.667969 0 L 36 0 L 36 35.894531 L 0.667969 35.894531 Z M 0.667969 0 " clip-rule="nonzero"/></clipPath></defs><g clip-path="url(#2b5acde97e)"><path fill="#7ed957" d="M 30.339844 2.105469 L 28.539062 2.105469 L 28.539062 -0.582031 C 28.539062 -1.230469 28.015625 -1.75 27.371094 -1.75 C 26.726562 -1.75 26.203125 -1.222656 26.203125 -0.582031 L 26.203125 2.109375 L 10.152344 2.109375 L 10.152344 -0.582031 C 10.152344 -1.230469 9.628906 -1.75 8.984375 -1.75 C 8.339844 -1.75 7.816406 -1.222656 7.816406 -0.582031 L 7.816406 2.109375 L 6.683594 2.109375 C 2.992188 2.109375 0 5.101562 0 8.792969 L 0 30.292969 C 0 33.984375 2.992188 36.976562 6.683594 36.976562 L 30.339844 36.976562 C 34.03125 36.976562 37.023438 33.984375 37.023438 30.292969 L 37.023438 8.792969 C 37.03125 5.101562 34.03125 2.105469 30.339844 2.105469 Z M 26.199219 3.339844 L 26.199219 5.769531 C 26.199219 6.414062 26.726562 6.9375 27.367188 6.9375 C 28.015625 6.9375 28.535156 6.410156 28.535156 5.769531 L 28.535156 3.433594 C 29.285156 3.867188 29.789062 4.679688 29.789062 5.605469 C 29.789062 6.988281 28.667969 8.113281 27.28125 8.113281 C 25.894531 8.113281 24.773438 6.988281 24.773438 5.605469 C 24.78125 4.605469 25.359375 3.746094 26.199219 3.339844 Z M 7.8125 3.382812 L 7.8125 5.769531 C 7.8125 6.414062 8.339844 6.9375 8.980469 6.9375 C 9.628906 6.9375 10.148438 6.410156 10.148438 5.769531 L 10.148438 3.382812 C 10.945312 3.804688 11.484375 4.640625 11.484375 5.601562 C 11.484375 6.984375 10.363281 8.109375 8.976562 8.109375 C 7.589844 8.109375 6.46875 6.984375 6.46875 5.601562 C 6.476562 4.640625 7.023438 3.804688 7.8125 3.382812 Z M 34.6875 30.289062 C 34.6875 32.6875 32.738281 34.632812 30.347656 34.632812 L 6.683594 34.632812 C 4.285156 34.632812 2.339844 32.683594 2.339844 30.289062 L 2.339844 12.480469 L 34.6875 12.480469 Z M 34.6875 30.289062 " fill-opacity="1" fill-rule="nonzero"/></g><path fill="#7ed957" d="M 10.1875 19.222656 L 6.949219 19.222656 C 6.6875 19.222656 6.476562 19.011719 6.476562 18.75 L 6.476562 15.511719 C 6.476562 15.25 6.6875 15.039062 6.949219 15.039062 L 10.1875 15.039062 C 10.449219 15.039062 10.660156 15.25 10.660156 15.511719 L 10.660156 18.75 C 10.65625 19.011719 10.449219 19.222656 10.1875 19.222656 Z M 10.1875 19.222656 " fill-opacity="1" fill-rule="nonzero"/><path fill="#7ed957" d="M 10.1875 25.863281 L 6.949219 25.863281 C 6.6875 25.863281 6.476562 25.652344 6.476562 25.390625 L 6.476562 22.152344 C 6.476562 21.890625 6.6875 21.679688 6.949219 21.679688 L 10.1875 21.679688 C 10.449219 21.679688 10.660156 21.890625 10.660156 22.152344 L 10.660156 25.390625 C 10.65625 25.65625 10.449219 25.863281 10.1875 25.863281 Z M 10.1875 25.863281 " fill-opacity="1" fill-rule="nonzero"/><path fill="#7ed957" d="M 10.1875 32.507812 L 6.949219 32.507812 C 6.6875 32.507812 6.476562 32.296875 6.476562 32.035156 L 6.476562 28.796875 C 6.476562 28.539062 6.6875 28.324219 6.949219 28.324219 L 10.1875 28.324219 C 10.449219 28.324219 10.660156 28.539062 10.660156 28.796875 L 10.660156 32.042969 C 10.65625 32.296875 10.449219 32.507812 10.1875 32.507812 Z M 10.1875 32.507812 " fill-opacity="1" fill-rule="nonzero"/><path fill="#7ed957" d="M 16.828125 19.222656 L 13.589844 19.222656 C 13.328125 19.222656 13.117188 19.011719 13.117188 18.75 L 13.117188 15.511719 C 13.117188 15.25 13.328125 15.039062 13.589844 15.039062 L 16.828125 15.039062 C 17.089844 15.039062 17.300781 15.25 17.300781 15.511719 L 17.300781 18.75 C 17.300781 19.011719 17.089844 19.222656 16.828125 19.222656 Z M 16.828125 19.222656 " fill-opacity="1" fill-rule="nonzero"/><path fill="#7ed957" d="M 16.828125 25.863281 L 13.589844 25.863281 C 13.328125 25.863281 13.117188 25.652344 13.117188 25.390625 L 13.117188 22.152344 C 13.117188 21.890625 13.328125 21.679688 13.589844 21.679688 L 16.828125 21.679688 C 17.089844 21.679688 17.300781 21.890625 17.300781 22.152344 L 17.300781 25.390625 C 17.300781 25.65625 17.089844 25.863281 16.828125 25.863281 Z M 16.828125 25.863281 " fill-opacity="1" fill-rule="nonzero"/><path fill="#7ed957" d="M 16.828125 32.507812 L 13.589844 32.507812 C 13.328125 32.507812 13.117188 32.296875 13.117188 32.035156 L 13.117188 28.796875 C 13.117188 28.539062 13.328125 28.324219 13.589844 28.324219 L 16.828125 28.324219 C 17.089844 28.324219 17.300781 28.539062 17.300781 28.796875 L 17.300781 32.042969 C 17.300781 32.296875 17.089844 32.507812 16.828125 32.507812 Z M 16.828125 32.507812 " fill-opacity="1" fill-rule="nonzero"/><path fill="#7ed957" d="M 23.472656 19.222656 L 20.234375 19.222656 C 19.976562 19.222656 19.761719 19.011719 19.761719 18.75 L 19.761719 15.511719 C 19.761719 15.25 19.976562 15.039062 20.234375 15.039062 L 23.472656 15.039062 C 23.734375 15.039062 23.945312 15.25 23.945312 15.511719 L 23.945312 18.75 C 23.941406 19.011719 23.734375 19.222656 23.472656 19.222656 Z M 23.472656 19.222656 " fill-opacity="1" fill-rule="nonzero"/><path fill="#7ed957" d="M 23.472656 25.863281 L 20.234375 25.863281 C 19.976562 25.863281 19.761719 25.652344 19.761719 25.390625 L 19.761719 22.152344 C 19.761719 21.890625 19.976562 21.679688 20.234375 21.679688 L 23.472656 21.679688 C 23.734375 21.679688 23.945312 21.890625 23.945312 22.152344 L 23.945312 25.390625 C 23.941406 25.65625 23.734375 25.863281 23.472656 25.863281 Z M 23.472656 25.863281 " fill-opacity="1" fill-rule="nonzero"/><path fill="#7ed957" d="M 23.472656 32.507812 L 20.234375 32.507812 C 19.976562 32.507812 19.761719 32.296875 19.761719 32.035156 L 19.761719 28.796875 C 19.761719 28.539062 19.976562 28.324219 20.234375 28.324219 L 23.472656 28.324219 C 23.734375 28.324219 23.945312 28.539062 23.945312 28.796875 L 23.945312 32.042969 C 23.941406 32.296875 23.734375 32.507812 23.472656 32.507812 Z M 23.472656 32.507812 " fill-opacity="1" fill-rule="nonzero"/><path fill="#7ed957" d="M 30.117188 19.222656 L 26.878906 19.222656 C 26.621094 19.222656 26.40625 19.011719 26.40625 18.75 L 26.40625 15.511719 C 26.40625 15.25 26.621094 15.039062 26.878906 15.039062 L 30.117188 15.039062 C 30.378906 15.039062 30.59375 15.25 30.59375 15.511719 L 30.59375 18.75 C 30.585938 19.011719 30.375 19.222656 30.117188 19.222656 Z M 30.117188 19.222656 " fill-opacity="1" fill-rule="nonzero"/><path fill="#7ed957" d="M 30.117188 25.863281 L 26.878906 25.863281 C 26.621094 25.863281 26.40625 25.652344 26.40625 25.390625 L 26.40625 22.152344 C 26.40625 21.890625 26.621094 21.679688 26.878906 21.679688 L 30.117188 21.679688 C 30.378906 21.679688 30.59375 21.890625 30.59375 22.152344 L 30.59375 25.390625 C 30.585938 25.65625 30.375 25.863281 30.117188 25.863281 Z M 30.117188 25.863281 " fill-opacity="1" fill-rule="nonzero"/><g clip-path="url(#9761b7a30e)"><path fill="#5019dd" d="M 29.558594 2.578125 L 27.84375 2.578125 L 27.84375 0.0195312 C 27.84375 -0.597656 27.34375 -1.09375 26.730469 -1.09375 C 26.117188 -1.09375 25.617188 -0.589844 25.617188 0.0195312 L 25.617188 2.585938 L 10.335938 2.585938 L 10.335938 0.0195312 C 10.335938 -0.597656 9.832031 -1.09375 9.222656 -1.09375 C 8.605469 -1.09375 8.109375 -0.589844 8.109375 0.0195312 L 8.109375 2.585938 L 7.03125 2.585938 C 3.515625 2.585938 0.667969 5.433594 0.667969 8.949219 L 0.667969 29.421875 C 0.667969 32.9375 3.515625 35.785156 7.03125 35.785156 L 29.558594 35.785156 C 33.074219 35.785156 35.921875 32.9375 35.921875 29.421875 L 35.921875 8.949219 C 35.925781 5.433594 33.074219 2.578125 29.558594 2.578125 Z M 25.613281 3.757812 L 25.613281 6.066406 C 25.613281 6.683594 26.117188 7.179688 26.726562 7.179688 C 27.34375 7.179688 27.839844 6.679688 27.839844 6.066406 L 27.839844 3.84375 C 28.550781 4.257812 29.035156 5.027344 29.035156 5.910156 C 29.035156 7.230469 27.960938 8.300781 26.644531 8.300781 C 25.324219 8.300781 24.253906 7.230469 24.253906 5.910156 C 24.261719 4.960938 24.816406 4.140625 25.613281 3.757812 Z M 8.105469 3.796875 L 8.105469 6.066406 C 8.105469 6.683594 8.605469 7.179688 9.21875 7.179688 C 9.832031 7.179688 10.332031 6.679688 10.332031 6.066406 L 10.332031 3.796875 C 11.089844 4.195312 11.601562 4.992188 11.601562 5.90625 C 11.601562 7.226562 10.53125 8.296875 9.214844 8.296875 C 7.894531 8.296875 6.824219 7.226562 6.824219 5.90625 C 6.832031 4.992188 7.351562 4.195312 8.105469 3.796875 Z M 33.699219 29.417969 C 33.699219 31.699219 31.839844 33.550781 29.5625 33.550781 L 7.03125 33.550781 C 4.746094 33.550781 2.894531 31.695312 2.894531 29.417969 L 2.894531 12.460938 L 33.699219 12.460938 Z M 33.699219 29.417969 " fill-opacity="1" fill-rule="nonzero"/></g><path fill="#5019dd" d="M 10.367188 18.878906 L 7.285156 18.878906 C 7.035156 18.878906 6.832031 18.675781 6.832031 18.429688 L 6.832031 15.34375 C 6.832031 15.097656 7.035156 14.894531 7.285156 14.894531 L 10.367188 14.894531 C 10.613281 14.894531 10.816406 15.097656 10.816406 15.34375 L 10.816406 18.429688 C 10.8125 18.675781 10.613281 18.878906 10.367188 18.878906 Z M 10.367188 18.878906 " fill-opacity="1" fill-rule="nonzero"/><path fill="#5019dd" d="M 10.367188 25.203125 L 7.285156 25.203125 C 7.035156 25.203125 6.832031 25 6.832031 24.753906 L 6.832031 21.667969 C 6.832031 21.421875 7.035156 21.21875 7.285156 21.21875 L 10.367188 21.21875 C 10.613281 21.21875 10.816406 21.421875 10.816406 21.667969 L 10.816406 24.753906 C 10.8125 25.003906 10.613281 25.203125 10.367188 25.203125 Z M 10.367188 25.203125 " fill-opacity="1" fill-rule="nonzero"/><path fill="#5019dd" d="M 10.367188 31.53125 L 7.285156 31.53125 C 7.035156 31.53125 6.832031 31.328125 6.832031 31.082031 L 6.832031 27.996094 C 6.832031 27.75 7.035156 27.546875 7.285156 27.546875 L 10.367188 27.546875 C 10.613281 27.546875 10.816406 27.75 10.816406 27.996094 L 10.816406 31.085938 C 10.8125 31.328125 10.613281 31.53125 10.367188 31.53125 Z M 10.367188 31.53125 " fill-opacity="1" fill-rule="nonzero"/><path fill="#5019dd" d="M 16.691406 18.878906 L 13.605469 18.878906 C 13.359375 18.878906 13.15625 18.675781 13.15625 18.429688 L 13.15625 15.34375 C 13.15625 15.097656 13.359375 14.894531 13.605469 14.894531 L 16.691406 14.894531 C 16.9375 14.894531 17.140625 15.097656 17.140625 15.34375 L 17.140625 18.429688 C 17.140625 18.675781 16.9375 18.878906 16.691406 18.878906 Z M 16.691406 18.878906 " fill-opacity="1" fill-rule="nonzero"/><path fill="#5019dd" d="M 16.691406 25.203125 L 13.605469 25.203125 C 13.359375 25.203125 13.15625 25 13.15625 24.753906 L 13.15625 21.667969 C 13.15625 21.421875 13.359375 21.21875 13.605469 21.21875 L 16.691406 21.21875 C 16.9375 21.21875 17.140625 21.421875 17.140625 21.667969 L 17.140625 24.753906 C 17.140625 25.003906 16.9375 25.203125 16.691406 25.203125 Z M 16.691406 25.203125 " fill-opacity="1" fill-rule="nonzero"/><path fill="#5019dd" d="M 16.691406 31.53125 L 13.605469 31.53125 C 13.359375 31.53125 13.15625 31.328125 13.15625 31.082031 L 13.15625 27.996094 C 13.15625 27.75 13.359375 27.546875 13.605469 27.546875 L 16.691406 27.546875 C 16.9375 27.546875 17.140625 27.75 17.140625 27.996094 L 17.140625 31.085938 C 17.140625 31.328125 16.9375 31.53125 16.691406 31.53125 Z M 16.691406 31.53125 " fill-opacity="1" fill-rule="nonzero"/><path fill="#5019dd" d="M 23.019531 18.878906 L 19.933594 18.878906 C 19.6875 18.878906 19.484375 18.675781 19.484375 18.429688 L 19.484375 15.34375 C 19.484375 15.097656 19.6875 14.894531 19.933594 14.894531 L 23.019531 14.894531 C 23.265625 14.894531 23.46875 15.097656 23.46875 15.34375 L 23.46875 18.429688 C 23.464844 18.675781 23.265625 18.878906 23.019531 18.878906 Z M 23.019531 18.878906 " fill-opacity="1" fill-rule="nonzero"/><path fill="#5019dd" d="M 23.019531 25.203125 L 19.933594 25.203125 C 19.6875 25.203125 19.484375 25 19.484375 24.753906 L 19.484375 21.667969 C 19.484375 21.421875 19.6875 21.21875 19.933594 21.21875 L 23.019531 21.21875 C 23.265625 21.21875 23.46875 21.421875 23.46875 21.667969 L 23.46875 24.753906 C 23.464844 25.003906 23.265625 25.203125 23.019531 25.203125 Z M 23.019531 25.203125 " fill-opacity="1" fill-rule="nonzero"/><path fill="#5019dd" d="M 23.019531 31.53125 L 19.933594 31.53125 C 19.6875 31.53125 19.484375 31.328125 19.484375 31.082031 L 19.484375 27.996094 C 19.484375 27.75 19.6875 27.546875 19.933594 27.546875 L 23.019531 27.546875 C 23.265625 27.546875 23.46875 27.75 23.46875 27.996094 L 23.46875 31.085938 C 23.464844 31.328125 23.265625 31.53125 23.019531 31.53125 Z M 23.019531 31.53125 " fill-opacity="1" fill-rule="nonzero"/><path fill="#5019dd" d="M 29.347656 18.878906 L 26.261719 18.878906 C 26.015625 18.878906 25.8125 18.675781 25.8125 18.429688 L 25.8125 15.34375 C 25.8125 15.097656 26.015625 14.894531 26.261719 14.894531 L 29.347656 14.894531 C 29.59375 14.894531 29.796875 15.097656 29.796875 15.34375 L 29.796875 18.429688 C 29.792969 18.675781 29.589844 18.878906 29.347656 18.878906 Z M 29.347656 18.878906 " fill-opacity="1" fill-rule="nonzero"/><path fill="#5019dd" d="M 29.347656 25.203125 L 26.261719 25.203125 C 26.015625 25.203125 25.8125 25 25.8125 24.753906 L 25.8125 21.667969 C 25.8125 21.421875 26.015625 21.21875 26.261719 21.21875 L 29.347656 21.21875 C 29.59375 21.21875 29.796875 21.421875 29.796875 21.667969 L 29.796875 24.753906 C 29.792969 25.003906 29.589844 25.203125 29.347656 25.203125 Z M 29.347656 25.203125 " fill-opacity="1" fill-rule="nonzero"/></svg>