<svg xmlns="http://www.w3.org/2000/svg" xmlns:xlink="http://www.w3.org/1999/xlink" width="50" zoomAndPan="magnify" viewBox="0 0 37.5 37.499999" height="50" preserveAspectRatio="xMidYMid meet" version="1.0"><defs><clipPath id="4a993551ae"><path d="M 0.40625 0 L 36.671875 0 L 36.671875 36.265625 L 0.40625 36.265625 Z M 0.40625 0 " clip-rule="nonzero"/></clipPath></defs><path fill="#000000" d="M 8.433594 10.136719 C 8.433594 9.472656 8.5 8.816406 8.632812 8.164062 C 8.761719 7.511719 8.953125 6.878906 9.207031 6.265625 C 9.460938 5.652344 9.773438 5.070312 10.144531 4.515625 C 10.511719 3.964844 10.933594 3.453125 11.402344 2.984375 C 11.871094 2.515625 12.382812 2.09375 12.933594 1.726562 C 13.488281 1.355469 14.070312 1.042969 14.683594 0.789062 C 15.296875 0.535156 15.929688 0.34375 16.582031 0.210938 C 17.234375 0.0820312 17.890625 0.015625 18.554688 0.015625 C 31.933594 0.488281 31.957031 19.746094 18.589844 20.257812 C 17.921875 20.261719 17.265625 20.195312 16.609375 20.066406 C 15.957031 19.941406 15.324219 19.75 14.707031 19.496094 C 14.09375 19.242188 13.507812 18.929688 12.953125 18.5625 C 12.398438 18.191406 11.886719 17.773438 11.414062 17.304688 C 10.941406 16.832031 10.519531 16.320312 10.152344 15.769531 C 9.78125 15.214844 9.464844 14.632812 9.210938 14.015625 C 8.957031 13.402344 8.761719 12.769531 8.632812 12.117188 C 8.5 11.464844 8.433594 10.804688 8.433594 10.136719 Z M 28.796875 20.261719 C 28.523438 20.09375 28.222656 20.015625 27.902344 20.023438 C 27.578125 20.03125 27.285156 20.125 27.015625 20.308594 C 26.414062 20.796875 25.773438 21.234375 25.09375 21.613281 C 24.414062 21.992188 23.707031 22.3125 22.972656 22.570312 C 22.238281 22.824219 21.488281 23.019531 20.71875 23.148438 C 19.953125 23.273438 19.179688 23.335938 18.402344 23.332031 C 17.625 23.324219 16.851562 23.253906 16.085938 23.113281 C 15.320312 22.976562 14.570312 22.773438 13.839844 22.503906 C 13.109375 22.238281 12.410156 21.90625 11.734375 21.519531 C 11.0625 21.128906 10.425781 20.683594 9.828125 20.1875 C 9.34375 19.964844 8.871094 19.988281 8.410156 20.261719 C 7.160156 21.09375 6.03125 22.0625 5.019531 23.175781 C 4.011719 24.285156 3.152344 25.503906 2.445312 26.828125 C 1.738281 28.152344 1.203125 29.542969 0.835938 31 C 0.472656 32.457031 0.292969 33.933594 0.296875 35.4375 C 0.296875 35.640625 0.335938 35.839844 0.414062 36.03125 C 0.492188 36.222656 0.605469 36.390625 0.75 36.535156 C 0.898438 36.679688 1.066406 36.792969 1.253906 36.871094 C 1.445312 36.953125 1.644531 36.992188 1.851562 36.992188 L 35.3125 36.992188 C 35.519531 36.992188 35.714844 36.953125 35.90625 36.871094 C 36.097656 36.792969 36.265625 36.679688 36.410156 36.535156 C 36.558594 36.390625 36.667969 36.222656 36.75 36.03125 C 36.828125 35.839844 36.867188 35.640625 36.867188 35.4375 C 36.863281 33.9375 36.683594 32.460938 36.320312 31.007812 C 35.957031 29.554688 35.425781 28.167969 34.722656 26.84375 C 34.019531 25.523438 33.164062 24.304688 32.164062 23.191406 C 31.160156 22.078125 30.039062 21.101562 28.796875 20.261719 Z M 28.796875 20.261719 " fill-opacity="1" fill-rule="nonzero"/><g clip-path="url(#4a993551ae)"><path fill="#7ed957" d="M 8.65625 9.914062 C 8.65625 9.261719 8.71875 8.621094 8.847656 7.984375 C 8.972656 7.347656 9.160156 6.726562 9.410156 6.128906 C 9.660156 5.527344 9.964844 4.957031 10.324219 4.417969 C 10.6875 3.878906 11.097656 3.378906 11.554688 2.917969 C 12.015625 2.457031 12.515625 2.046875 13.054688 1.6875 C 13.59375 1.328125 14.164062 1.019531 14.765625 0.773438 C 15.363281 0.523438 15.984375 0.335938 16.621094 0.207031 C 17.257812 0.0820312 17.902344 0.015625 18.550781 0.015625 C 31.628906 0.476562 31.65625 19.304688 18.585938 19.808594 C 17.933594 19.808594 17.289062 19.75 16.648438 19.621094 C 16.011719 19.496094 15.390625 19.3125 14.789062 19.0625 C 14.1875 18.816406 13.613281 18.511719 13.074219 18.148438 C 12.53125 17.789062 12.027344 17.378906 11.566406 16.917969 C 11.105469 16.460938 10.695312 15.960938 10.332031 15.417969 C 9.96875 14.878906 9.664062 14.308594 9.414062 13.707031 C 9.164062 13.105469 8.976562 12.484375 8.847656 11.847656 C 8.71875 11.207031 8.65625 10.5625 8.65625 9.914062 Z M 28.566406 19.8125 C 28.296875 19.648438 28.003906 19.570312 27.691406 19.578125 C 27.375 19.585938 27.085938 19.679688 26.824219 19.855469 C 26.234375 20.335938 25.605469 20.761719 24.941406 21.132812 C 24.277344 21.503906 23.585938 21.816406 22.871094 22.066406 C 22.152344 22.320312 21.417969 22.507812 20.667969 22.632812 C 19.917969 22.757812 19.160156 22.820312 18.398438 22.8125 C 17.640625 22.808594 16.882812 22.738281 16.136719 22.601562 C 15.386719 22.464844 14.65625 22.265625 13.941406 22.003906 C 13.226562 21.742188 12.539062 21.421875 11.882812 21.042969 C 11.222656 20.660156 10.601562 20.226562 10.019531 19.738281 C 9.542969 19.519531 9.082031 19.542969 8.632812 19.8125 C 7.410156 20.625 6.304688 21.574219 5.316406 22.660156 C 4.328125 23.746094 3.492188 24.9375 2.796875 26.234375 C 2.105469 27.527344 1.582031 28.886719 1.226562 30.3125 C 0.871094 31.734375 0.695312 33.179688 0.695312 34.648438 C 0.695312 34.851562 0.734375 35.046875 0.8125 35.230469 C 0.890625 35.417969 1 35.582031 1.140625 35.726562 C 1.285156 35.867188 1.449219 35.976562 1.632812 36.054688 C 1.820312 36.132812 2.015625 36.167969 2.214844 36.167969 L 34.933594 36.167969 C 35.136719 36.167969 35.332031 36.132812 35.515625 36.054688 C 35.703125 35.976562 35.867188 35.867188 36.011719 35.726562 C 36.152344 35.582031 36.261719 35.417969 36.339844 35.230469 C 36.417969 35.046875 36.457031 34.851562 36.457031 34.648438 C 36.453125 33.183594 36.277344 31.742188 35.921875 30.320312 C 35.566406 28.898438 35.046875 27.542969 34.359375 26.25 C 33.671875 24.957031 32.835938 23.765625 31.855469 22.675781 C 30.878906 21.585938 29.78125 20.632812 28.566406 19.8125 Z M 28.566406 19.8125 " fill-opacity="1" fill-rule="nonzero"/></g></svg>