<svg xmlns="http://www.w3.org/2000/svg" xmlns:xlink="http://www.w3.org/1999/xlink" width="50" zoomAndPan="magnify" viewBox="0 0 37.5 37.499999" height="50" preserveAspectRatio="xMidYMid meet" version="1.0"><defs><clipPath id="edab2ac438"><path d="M 6.824219 0 L 30.507812 0 L 30.507812 35.523438 L 6.824219 35.523438 Z M 6.824219 0 " clip-rule="nonzero"/></clipPath><clipPath id="ec568f88c9"><path d="M 6.824219 0 L 30.171875 0 L 30.171875 35.527344 L 6.824219 35.527344 Z M 6.824219 0 " clip-rule="nonzero"/></clipPath></defs><g clip-path="url(#edab2ac438)"><path fill="#000000" d="M 15.210938 22.121094 C 15.261719 22.472656 15.1875 22.828125 15.117188 23.171875 C 15.113281 23.140625 15.113281 23.113281 15.113281 23.082031 C 15.101562 22.761719 15.082031 22.421875 15.210938 22.121094 Z M 12.796875 30.125 C 12.554688 30.476562 12.375 30.851562 12.230469 31.242188 C 12.226562 31.242188 12.222656 31.238281 12.222656 31.234375 C 12.1875 31.332031 12.152344 31.429688 12.121094 31.53125 C 12.121094 31.53125 12.125 31.535156 12.125 31.535156 C 11.96875 32 11.847656 32.476562 11.714844 32.945312 C 11.710938 32.414062 11.839844 31.851562 11.691406 31.339844 C 11.585938 31.199219 11.425781 31.320312 11.398438 31.453125 C 11.433594 31.191406 11.507812 30.9375 11.613281 30.695312 C 11.636719 30.640625 11.667969 30.585938 11.695312 30.535156 C 11.695312 30.53125 11.691406 30.53125 11.691406 30.527344 C 12.003906 29.898438 12.519531 29.351562 13.066406 28.921875 C 13.203125 28.785156 13.265625 28.597656 13.371094 28.4375 C 13.65625 28.042969 14.089844 27.796875 14.527344 27.597656 C 14.625 27.535156 14.710938 27.460938 14.785156 27.375 C 14.785156 27.371094 14.789062 27.367188 14.789062 27.367188 C 14.800781 27.355469 14.8125 27.339844 14.820312 27.328125 C 14.824219 27.324219 14.828125 27.316406 14.832031 27.3125 C 14.839844 27.300781 14.847656 27.289062 14.855469 27.28125 C 14.859375 27.273438 14.867188 27.265625 14.871094 27.261719 C 14.875 27.25 14.882812 27.238281 14.890625 27.230469 C 14.894531 27.222656 14.898438 27.214844 14.902344 27.207031 C 14.910156 27.199219 14.917969 27.1875 14.921875 27.179688 C 14.925781 27.175781 14.925781 27.171875 14.929688 27.167969 C 15.445312 26.277344 15.175781 24.660156 15.152344 23.78125 C 15.429688 23.453125 15.527344 22.527344 15.480469 22.101562 C 15.4375 21.734375 15.085938 21.671875 14.953125 22.03125 C 14.777344 22.476562 14.839844 22.960938 14.859375 23.425781 C 14.449219 23.210938 14.035156 22.984375 13.625 22.746094 C 13.578125 22.625 13.484375 22.496094 13.355469 22.582031 C 13.351562 22.582031 13.351562 22.582031 13.351562 22.585938 C 12.882812 22.308594 12.425781 22.015625 11.980469 21.707031 C 11.953125 21.671875 11.917969 21.652344 11.882812 21.640625 C 9.960938 20.28125 8.34375 18.566406 7.867188 16.199219 C 7.292969 14.210938 7.660156 12.058594 8.273438 10.113281 C 8.964844 8.6875 9.742188 7.21875 10.980469 6.167969 C 11.378906 5.9375 11.367188 5.773438 11.199219 5.636719 C 11.203125 5.636719 11.207031 5.636719 11.210938 5.636719 C 11.859375 5.71875 12.414062 5.339844 12.972656 5.078125 C 13.328125 4.925781 13.691406 4.800781 14.066406 4.707031 C 14.25 4.6875 14.503906 4.605469 14.332031 4.394531 C 13.941406 4.082031 13.125 4.164062 12.636719 4.070312 C 12.367188 4.039062 12.089844 4.023438 11.835938 3.910156 C 11.625 3.808594 11.363281 3.773438 11.179688 3.625 C 11.117188 3.53125 11.042969 3.453125 10.957031 3.382812 C 13.296875 3.773438 16.230469 3.511719 17.785156 3.957031 C 18.972656 4.199219 19.890625 4.914062 19.777344 6.203125 C 19.800781 6.722656 19.710938 7.25 19.359375 7.65625 C 18.90625 7.378906 18.183594 7.867188 17.847656 8.171875 C 17.183594 7.761719 16.023438 8.394531 16.085938 9.171875 C 16.25 9.886719 17.0625 9.648438 17.148438 10.589844 C 17.179688 10.828125 17.277344 11.125 17.136719 11.339844 C 17.136719 11.339844 17.140625 11.339844 17.140625 11.339844 C 16.992188 11.484375 16.746094 11.417969 16.589844 11.53125 C 16.441406 11.707031 16.703125 11.828125 16.863281 11.804688 C 17.144531 11.773438 17.394531 11.621094 17.605469 11.445312 C 19.214844 13.265625 21.121094 15.027344 21.816406 17.410156 C 22.160156 18.652344 22.261719 19.929688 22.503906 21.191406 C 22.898438 23.152344 23.585938 25.050781 23.921875 27.027344 C 23.726562 26.53125 23.289062 26.171875 22.753906 26.074219 C 22.5625 25.824219 22.257812 25.769531 21.953125 25.769531 C 21.683594 25.753906 21.414062 25.710938 21.140625 25.742188 C 21.035156 25.675781 20.953125 25.597656 20.867188 25.503906 C 20.800781 25.414062 20.636719 25.386719 20.585938 25.507812 C 20.546875 25.613281 20.613281 25.726562 20.660156 25.824219 C 20.730469 25.988281 20.90625 26.054688 21.082031 26.015625 C 21.535156 26.335938 22.097656 26.25 22.621094 26.320312 C 22.90625 26.597656 23.316406 26.710938 23.578125 27.015625 C 23.9375 27.5625 23.984375 28.257812 24.222656 28.863281 C 24.703125 30.199219 26.4375 31.046875 26.746094 32.421875 C 26.734375 32.449219 26.695312 32.445312 26.671875 32.4375 C 26.414062 32.386719 26.128906 32.285156 25.867188 32.203125 C 24.589844 31.863281 23.527344 31.015625 22.476562 30.265625 C 21.363281 29.160156 19.789062 28.175781 19.707031 26.484375 C 19.523438 25.097656 17.46875 25.6875 17.457031 24.574219 C 17.507812 23.941406 17.621094 23.308594 17.621094 22.667969 C 17.632812 22.277344 17.210938 20.859375 16.753906 20.851562 C 16.683594 20.890625 16.636719 20.9375 16.609375 20.996094 C 16.15625 20.566406 15.605469 20.230469 15.382812 19.625 C 14.949219 18.746094 15.011719 17.746094 14.824219 16.804688 C 14.679688 16.15625 14.492188 15.503906 14.226562 14.894531 C 14.15625 14.726562 14.003906 14.558594 13.996094 14.363281 C 13.9375 14.183594 13.6875 14.277344 13.730469 14.449219 C 13.738281 14.859375 13.796875 15.265625 13.824219 15.675781 C 13.847656 15.878906 13.851562 16.042969 13.730469 16.222656 C 13.523438 16.5 13.160156 16.59375 12.878906 16.785156 C 12.65625 16.921875 12.449219 17.085938 12.246094 17.253906 C 12.109375 17.351562 12.273438 17.554688 12.402344 17.453125 C 12.679688 17.242188 12.957031 17.027344 13.269531 16.867188 C 13.570312 16.714844 13.910156 16.542969 14.039062 16.214844 C 14.183594 15.871094 14.058594 15.492188 14.050781 15.136719 C 14.234375 15.605469 14.382812 16.089844 14.511719 16.574219 C 14.816406 17.832031 14.660156 19.269531 15.554688 20.324219 C 15.804688 20.617188 16.140625 20.816406 16.441406 21.058594 C 16.484375 21.089844 16.523438 21.128906 16.566406 21.167969 C 16.546875 21.5625 16.964844 22.160156 17.058594 22.453125 C 17.210938 22.976562 17.332031 23.542969 17.183594 24.078125 C 17.03125 24.753906 16.816406 25.414062 16.660156 26.085938 C 16.371094 27.664062 15.773438 27.761719 15.609375 27.964844 C 15.550781 28.03125 15.542969 28.097656 15.574219 28.144531 C 15.574219 28.148438 15.574219 28.148438 15.574219 28.148438 C 15.597656 28.195312 15.636719 28.214844 15.683594 28.214844 C 15.722656 28.222656 15.769531 28.21875 15.820312 28.199219 C 15.976562 28.164062 16.183594 28.082031 16.367188 28.140625 C 17.070312 28.316406 18.410156 28.257812 18.335938 29.253906 C 17.085938 28.535156 16.5625 28.324219 15.113281 28.675781 C 14.046875 28.722656 13.273438 29.183594 12.796875 30.125 Z M 8.292969 23.984375 C 8.320312 23.9375 8.351562 23.894531 8.386719 23.855469 C 8.800781 23.226562 9.554688 23.054688 10.265625 22.957031 C 10.734375 22.90625 11.269531 22.875 11.75 22.976562 C 12.070312 23.554688 12.414062 24.117188 12.789062 24.664062 C 12.773438 24.800781 12.75 24.9375 12.734375 25.0625 C 12.691406 25.261719 12.5625 25.425781 12.46875 25.601562 C 12.417969 25.6875 12.335938 25.808594 12.445312 25.890625 C 12.5625 25.976562 12.671875 25.84375 12.757812 25.773438 C 12.894531 25.65625 13.050781 25.535156 13.210938 25.445312 C 13.242188 25.425781 13.277344 25.410156 13.308594 25.398438 C 13.726562 25.988281 14.140625 26.585938 14.597656 27.148438 C 14.257812 27.453125 13.683594 27.523438 12.886719 28.722656 C 12.488281 29.058594 12.074219 29.378906 11.820312 29.839844 C 11.714844 29.988281 11.613281 30.136719 11.519531 30.292969 C 10.128906 28.367188 9.039062 26.230469 8.292969 23.984375 Z M 12.804688 24.289062 C 12.746094 24.199219 12.683594 24.105469 12.625 24.015625 C 12.421875 23.699219 12.230469 23.378906 12.046875 23.058594 C 12.105469 23.078125 12.164062 23.105469 12.222656 23.132812 C 12.265625 23.152344 12.277344 23.195312 12.292969 23.234375 C 12.382812 23.417969 12.53125 23.5625 12.644531 23.730469 C 12.757812 23.898438 12.800781 24.089844 12.804688 24.289062 Z M 13.523438 25.296875 C 13.8125 25.160156 13.988281 25.035156 14.015625 24.574219 C 14.023438 24.191406 13.9375 23.804688 13.785156 23.449219 C 13.722656 23.332031 13.6875 23.207031 13.671875 23.078125 C 14.074219 23.3125 14.480469 23.535156 14.878906 23.75 C 15.027344 25.828125 14.984375 26.578125 14.757812 26.957031 C 14.324219 26.421875 13.925781 25.859375 13.523438 25.296875 Z M 7.941406 24.085938 C 7.941406 23.949219 7.945312 23.808594 7.957031 23.675781 C 7.957031 23.675781 7.957031 23.679688 7.960938 23.683594 C 7.964844 23.621094 7.96875 23.558594 7.976562 23.5 C 8.039062 23.101562 8.183594 22.722656 8.484375 22.425781 C 8.816406 22.042969 9.300781 21.667969 9.847656 21.742188 C 10.257812 21.867188 10.6875 21.980469 11.125 21.933594 C 11.21875 21.9375 11.3125 21.925781 11.40625 21.90625 C 11.503906 21.882812 11.597656 21.855469 11.695312 21.828125 C 12.238281 22.214844 12.808594 22.574219 13.382812 22.914062 C 13.382812 23.140625 13.441406 23.359375 13.542969 23.566406 C 13.691406 23.949219 13.8125 24.386719 13.703125 24.792969 C 13.652344 24.972656 13.519531 25.003906 13.367188 25.074219 C 13.308594 25.097656 13.253906 25.125 13.195312 25.152344 C 13.179688 25.160156 13.164062 25.167969 13.148438 25.175781 C 13.078125 25.210938 13.011719 25.253906 12.941406 25.296875 C 12.96875 25.199219 12.996094 25.097656 13.015625 24.988281 C 13.019531 24.992188 13.019531 24.992188 13.023438 24.996094 C 13.03125 24.945312 13.039062 24.890625 13.042969 24.839844 C 13.113281 24.390625 13.101562 23.890625 12.84375 23.550781 C 12.761719 23.433594 12.667969 23.320312 12.582031 23.203125 C 12.503906 23.023438 12.414062 22.898438 12.214844 22.832031 C 12.097656 22.792969 11.980469 22.757812 11.859375 22.734375 C 11.859375 22.730469 11.859375 22.730469 11.859375 22.730469 C 11.769531 22.710938 11.679688 22.695312 11.589844 22.683594 C 10.9375 22.589844 10.246094 22.664062 9.617188 22.8125 C 8.960938 22.902344 8.355469 23.339844 8.03125 23.90625 C 8.03125 23.910156 8.03125 23.910156 8.03125 23.914062 C 7.996094 23.96875 7.96875 24.027344 7.941406 24.085938 Z M 11.140625 21.417969 C 11.25 21.503906 11.363281 21.585938 11.472656 21.667969 C 11.414062 21.675781 11.351562 21.683594 11.289062 21.6875 C 11.238281 21.597656 11.1875 21.507812 11.140625 21.417969 Z M 8.058594 3.332031 C 7.90625 2.964844 7.953125 2.554688 7.839844 2.179688 C 7.789062 2 7.640625 1.875 7.5625 1.710938 C 7.410156 1.335938 7.390625 0.90625 7.503906 0.515625 C 7.59375 2.136719 8.773438 2.890625 10.339844 3.257812 C 10.34375 3.265625 10.351562 3.277344 10.363281 3.28125 C 10.554688 3.4375 10.796875 3.542969 10.9375 3.75 C 11.058594 3.921875 11.273438 3.976562 11.460938 4.050781 C 12.21875 4.417969 13.085938 4.320312 13.894531 4.480469 C 13.449219 4.609375 13.007812 4.757812 12.597656 4.976562 C 12.0625 5.289062 11.429688 5.574219 10.800781 5.363281 C 10.65625 5.3125 10.519531 5.246094 10.382812 5.171875 C 10.019531 4.917969 9.683594 4.625 9.296875 4.402344 C 8.84375 4.101562 8.304688 3.835938 8.058594 3.332031 Z M 19.03125 8.46875 C 18.863281 9.542969 18.257812 10.472656 17.46875 11.214844 C 17.484375 11 17.460938 10.78125 17.421875 10.570312 C 17.363281 10.316406 17.316406 10.042969 17.140625 9.839844 C 16.765625 9.46875 15.960938 9.285156 16.550781 8.664062 C 17.535156 7.910156 17.496094 8.511719 17.960938 8.371094 C 18.234375 8.097656 18.84375 7.597656 19.253906 7.777344 C 19.082031 7.96875 19.101562 8.238281 19.03125 8.46875 Z M 17.042969 21.570312 C 17.164062 21.832031 17.253906 22.113281 17.320312 22.390625 C 17.289062 22.289062 17.242188 22.1875 17.195312 22.089844 C 17.097656 21.886719 16.96875 21.6875 16.898438 21.476562 C 16.945312 21.511719 16.992188 21.542969 17.042969 21.570312 Z M 16.847656 21.210938 C 16.875 21.253906 16.898438 21.296875 16.925781 21.339844 C 16.898438 21.308594 16.875 21.277344 16.851562 21.25 C 16.847656 21.238281 16.847656 21.222656 16.847656 21.210938 Z M 30.050781 34.851562 C 24.859375 34.902344 19.847656 32.460938 16.351562 28.773438 C 16.625 28.773438 16.898438 28.816406 17.160156 28.941406 C 17.503906 29.136719 17.882812 29.28125 18.214844 29.5 C 18.332031 29.570312 18.359375 29.738281 18.484375 29.789062 C 18.808594 29.820312 18.5625 29.28125 18.597656 29.101562 C 18.574219 28.003906 17.003906 28.003906 16.183594 27.859375 C 16.890625 27.085938 16.910156 25.898438 17.238281 24.945312 C 17.457031 25.449219 18.082031 25.550781 18.558594 25.707031 C 20.039062 26.148438 18.980469 27.132812 20.246094 28.464844 C 20.839844 29.164062 21.542969 29.75 22.207031 30.386719 C 23.269531 31.179688 24.371094 32.039062 25.667969 32.417969 C 26.050781 32.488281 27.050781 33.070312 27.019531 32.328125 C 26.5625 30.707031 24.613281 29.925781 24.308594 28.222656 C 24.558594 28.039062 24.246094 27.402344 24.214844 27.121094 C 23.824219 24.78125 22.957031 22.546875 22.597656 20.203125 C 22.300781 16.058594 20.523438 14.1875 17.800781 11.261719 C 18.882812 10.15625 19.113281 9.457031 19.417969 8.003906 C 20.167969 7.234375 20.214844 5.984375 19.835938 5.027344 C 18.863281 3.085938 15.261719 3.5 13.367188 3.34375 C 11.257812 3.257812 7.550781 2.972656 7.757812 0.179688 C 7.675781 -0.179688 7.382812 0.0820312 7.304688 0.296875 C 7.105469 0.792969 7.117188 1.390625 7.347656 1.875 C 7.414062 2.015625 7.539062 2.117188 7.585938 2.265625 C 7.714844 3.75 8.074219 3.964844 9.308594 4.726562 C 9.835938 5.039062 10.253906 5.507812 10.832031 5.726562 C 10.894531 5.753906 10.976562 5.757812 11.011719 5.820312 C 8.121094 8.105469 6.628906 12.789062 7.613281 16.292969 C 8.023438 18.300781 9.230469 19.84375 10.75 21.105469 C 10.851562 21.304688 10.957031 21.5 11.0625 21.699219 C 10.753906 21.703125 10.449219 21.660156 10.15625 21.5625 C 9.984375 21.5 9.800781 21.453125 9.617188 21.472656 C 8.851562 21.578125 8.246094 22.117188 7.921875 22.792969 C 7.515625 21.445312 7.226562 20.066406 6.90625 18.699219 C 6.878906 18.816406 6.851562 18.9375 6.824219 19.058594 C 7.074219 20.273438 7.316406 21.492188 7.667969 22.6875 C 7.710938 22.832031 7.75 22.972656 7.792969 23.117188 C 7.695312 23.414062 7.652344 23.726562 7.675781 24.03125 C 7.695312 24.222656 7.5625 25.125 7.949219 24.886719 C 8.039062 24.703125 8.085938 24.492188 8.152344 24.292969 C 8.890625 26.527344 9.996094 28.636719 11.382812 30.550781 C 11.28125 30.761719 11.199219 30.980469 11.15625 31.210938 C 11.136719 31.4375 11.046875 31.730469 11.207031 31.921875 C 11.296875 31.996094 11.425781 31.945312 11.484375 31.855469 C 11.550781 32.183594 11.25 33.3125 11.660156 33.359375 C 11.980469 33.335938 11.980469 32.90625 12.074219 32.675781 C 12.15625 32.382812 12.238281 32.085938 12.324219 31.792969 C 13.457031 33.207031 14.835938 34.433594 16.4375 35.308594 C 16.566406 35.382812 16.695312 35.453125 16.820312 35.523438 C 16.773438 35.398438 16.730469 35.273438 16.683594 35.144531 C 15.007812 34.246094 13.578125 32.96875 12.417969 31.488281 C 12.855469 30.441406 13.445312 29.082031 14.761719 28.988281 C 15.175781 28.945312 15.601562 28.835938 16.023438 28.792969 C 19.476562 32.519531 24.414062 34.992188 29.59375 35.121094 C 29.855469 35.121094 30.117188 35.109375 30.378906 35.105469 C 30.449219 35.109375 30.511719 35.042969 30.507812 34.976562 C 30.476562 34.761719 30.199219 34.867188 30.050781 34.851562 " fill-opacity="1" fill-rule="nonzero"/></g><path fill="#000000" d="M 15.445312 6.917969 C 15.46875 6.972656 15.523438 7.007812 15.582031 7.019531 C 15.664062 7.023438 15.769531 7.019531 15.828125 6.960938 C 16.222656 6.722656 15.804688 6.179688 15.410156 6.460938 C 15.234375 6.578125 15.269531 6.816406 15.445312 6.917969 " fill-opacity="1" fill-rule="nonzero"/><g clip-path="url(#ec568f88c9)"><path fill="#7ed957" d="M 15.089844 22.285156 C 15.140625 22.640625 15.066406 23 15 23.347656 C 14.996094 23.316406 14.996094 23.285156 14.996094 23.253906 C 14.984375 22.929688 14.964844 22.589844 15.089844 22.285156 Z M 12.710938 30.351562 C 12.472656 30.703125 12.296875 31.085938 12.152344 31.476562 C 12.148438 31.472656 12.148438 31.472656 12.144531 31.46875 C 12.109375 31.566406 12.078125 31.667969 12.042969 31.765625 C 12.046875 31.769531 12.046875 31.769531 12.050781 31.773438 C 11.898438 32.238281 11.777344 32.71875 11.644531 33.191406 C 11.640625 32.65625 11.769531 32.089844 11.621094 31.574219 C 11.519531 31.433594 11.359375 31.554688 11.332031 31.6875 C 11.367188 31.425781 11.441406 31.167969 11.542969 30.925781 C 11.570312 30.871094 11.597656 30.816406 11.625 30.761719 C 11.625 30.761719 11.625 30.757812 11.621094 30.757812 C 11.933594 30.121094 12.4375 29.570312 12.976562 29.140625 C 13.113281 29 13.175781 28.8125 13.277344 28.652344 C 13.558594 28.253906 13.988281 28.003906 14.421875 27.804688 C 14.515625 27.742188 14.597656 27.664062 14.671875 27.578125 C 14.671875 27.578125 14.675781 27.574219 14.675781 27.570312 C 14.6875 27.558594 14.699219 27.546875 14.707031 27.53125 C 14.710938 27.527344 14.714844 27.519531 14.71875 27.515625 C 14.726562 27.503906 14.734375 27.496094 14.742188 27.484375 C 14.746094 27.476562 14.75 27.46875 14.757812 27.464844 C 14.761719 27.453125 14.769531 27.445312 14.777344 27.433594 C 14.78125 27.425781 14.785156 27.417969 14.789062 27.410156 C 14.796875 27.402344 14.800781 27.390625 14.808594 27.382812 C 14.808594 27.378906 14.8125 27.375 14.8125 27.371094 C 15.320312 26.472656 15.058594 24.84375 15.035156 23.960938 C 15.304688 23.628906 15.40625 22.695312 15.359375 22.269531 C 15.316406 21.898438 14.96875 21.835938 14.835938 22.195312 C 14.664062 22.644531 14.726562 23.136719 14.746094 23.601562 C 14.34375 23.382812 13.933594 23.15625 13.527344 22.914062 C 13.484375 22.792969 13.390625 22.664062 13.261719 22.75 C 13.261719 22.75 13.257812 22.753906 13.257812 22.753906 C 12.796875 22.476562 12.34375 22.183594 11.90625 21.871094 C 11.90625 21.867188 11.90625 21.867188 11.90625 21.867188 C 11.878906 21.832031 11.847656 21.8125 11.8125 21.800781 C 9.917969 20.433594 8.324219 18.707031 7.855469 16.320312 C 7.285156 14.316406 7.648438 12.148438 8.25 10.1875 C 8.933594 8.75 9.703125 7.273438 10.917969 6.214844 C 11.316406 5.980469 11.304688 5.816406 11.136719 5.675781 C 11.140625 5.675781 11.144531 5.679688 11.148438 5.679688 C 11.789062 5.761719 12.335938 5.378906 12.886719 5.113281 C 13.234375 4.960938 13.59375 4.835938 13.964844 4.742188 C 14.144531 4.722656 14.394531 4.640625 14.226562 4.429688 C 13.839844 4.113281 13.035156 4.195312 12.554688 4.101562 C 12.289062 4.070312 12.015625 4.054688 11.765625 3.941406 C 11.554688 3.835938 11.300781 3.800781 11.117188 3.652344 C 11.054688 3.554688 10.980469 3.476562 10.898438 3.40625 C 13.203125 3.800781 16.097656 3.539062 17.628906 3.984375 C 18.800781 4.230469 19.703125 4.949219 19.59375 6.25 C 19.617188 6.769531 19.527344 7.304688 19.183594 7.714844 C 18.734375 7.433594 18.023438 7.925781 17.691406 8.230469 C 17.039062 7.820312 15.894531 8.457031 15.953125 9.242188 C 16.117188 9.960938 16.917969 9.71875 17.003906 10.667969 C 17.03125 10.90625 17.128906 11.207031 16.992188 11.421875 C 16.992188 11.421875 16.992188 11.425781 16.992188 11.425781 C 16.851562 11.570312 16.605469 11.503906 16.453125 11.621094 C 16.304688 11.796875 16.566406 11.917969 16.71875 11.890625 C 16.996094 11.863281 17.246094 11.707031 17.453125 11.53125 C 19.039062 13.367188 20.917969 15.140625 21.601562 17.539062 C 21.945312 18.789062 22.042969 20.078125 22.28125 21.347656 C 22.671875 23.324219 23.347656 25.238281 23.679688 27.230469 C 23.488281 26.730469 23.054688 26.367188 22.527344 26.269531 C 22.339844 26.015625 22.039062 25.964844 21.742188 25.964844 C 21.472656 25.945312 21.207031 25.90625 20.9375 25.933594 C 20.835938 25.867188 20.753906 25.789062 20.667969 25.695312 C 20.601562 25.601562 20.441406 25.578125 20.394531 25.699219 C 20.351562 25.804688 20.417969 25.921875 20.464844 26.015625 C 20.535156 26.179688 20.707031 26.25 20.878906 26.210938 C 21.328125 26.53125 21.882812 26.445312 22.398438 26.515625 C 22.679688 26.796875 23.082031 26.910156 23.339844 27.21875 C 23.695312 27.769531 23.742188 28.472656 23.976562 29.078125 C 24.449219 30.425781 26.160156 31.28125 26.464844 32.664062 C 26.449219 32.691406 26.414062 32.6875 26.390625 32.679688 C 26.136719 32.628906 25.855469 32.523438 25.597656 32.445312 C 24.339844 32.101562 23.292969 31.25 22.253906 30.492188 C 21.160156 29.378906 19.605469 28.386719 19.523438 26.683594 C 19.34375 25.289062 17.316406 25.878906 17.304688 24.761719 C 17.355469 24.117188 17.46875 23.484375 17.464844 22.839844 C 17.480469 22.445312 17.0625 21.015625 16.613281 21.007812 C 16.546875 21.046875 16.5 21.09375 16.46875 21.152344 C 16.027344 20.722656 15.480469 20.378906 15.261719 19.769531 C 14.832031 18.886719 14.894531 17.878906 14.710938 16.933594 C 14.570312 16.277344 14.386719 15.621094 14.121094 15.003906 C 14.054688 14.835938 13.902344 14.667969 13.894531 14.46875 C 13.835938 14.289062 13.589844 14.386719 13.632812 14.558594 C 13.640625 14.972656 13.699219 15.382812 13.726562 15.792969 C 13.746094 16 13.753906 16.164062 13.632812 16.34375 C 13.429688 16.625 13.070312 16.71875 12.792969 16.910156 C 12.574219 17.050781 12.371094 17.214844 12.167969 17.382812 C 12.035156 17.480469 12.195312 17.6875 12.324219 17.585938 C 12.597656 17.371094 12.871094 17.15625 13.175781 16.996094 C 13.476562 16.839844 13.808594 16.667969 13.9375 16.335938 C 14.078125 15.992188 13.957031 15.609375 13.949219 15.25 C 14.132812 15.722656 14.277344 16.210938 14.402344 16.699219 C 14.703125 17.96875 14.550781 19.414062 15.433594 20.476562 C 15.679688 20.769531 16.011719 20.972656 16.304688 21.214844 C 16.347656 21.25 16.386719 21.285156 16.425781 21.324219 C 16.410156 21.726562 16.824219 22.324219 16.914062 22.621094 C 17.0625 23.148438 17.183594 23.71875 17.035156 24.257812 C 16.886719 24.9375 16.675781 25.601562 16.519531 26.28125 C 16.238281 27.871094 15.648438 27.96875 15.484375 28.175781 C 15.425781 28.238281 15.421875 28.308594 15.449219 28.355469 C 15.449219 28.359375 15.449219 28.359375 15.449219 28.359375 C 15.472656 28.40625 15.511719 28.425781 15.558594 28.425781 C 15.597656 28.433594 15.644531 28.429688 15.691406 28.410156 C 15.847656 28.375 16.050781 28.292969 16.234375 28.351562 C 16.925781 28.53125 18.246094 28.46875 18.171875 29.472656 C 16.941406 28.746094 16.425781 28.535156 14.996094 28.890625 C 13.945312 28.9375 13.183594 29.402344 12.710938 30.351562 Z M 8.273438 24.160156 C 8.300781 24.117188 8.332031 24.074219 8.367188 24.035156 C 8.773438 23.402344 9.515625 23.226562 10.21875 23.128906 C 10.679688 23.078125 11.203125 23.046875 11.679688 23.148438 C 11.996094 23.730469 12.332031 24.300781 12.703125 24.847656 C 12.6875 24.984375 12.667969 25.121094 12.652344 25.25 C 12.605469 25.449219 12.484375 25.613281 12.390625 25.792969 C 12.335938 25.882812 12.257812 26 12.363281 26.085938 C 12.484375 26.171875 12.589844 26.039062 12.675781 25.964844 C 12.808594 25.847656 12.964844 25.726562 13.121094 25.636719 C 13.152344 25.617188 13.183594 25.601562 13.214844 25.585938 C 13.628906 26.183594 14.035156 26.785156 14.488281 27.351562 C 14.152344 27.65625 13.585938 27.730469 12.800781 28.9375 C 12.410156 29.277344 12 29.597656 11.746094 30.0625 C 11.644531 30.210938 11.546875 30.363281 11.453125 30.519531 C 10.082031 28.578125 9.007812 26.425781 8.273438 24.160156 Z M 12.722656 24.46875 C 12.660156 24.378906 12.601562 24.285156 12.542969 24.195312 C 12.34375 23.878906 12.152344 23.554688 11.972656 23.230469 C 12.03125 23.253906 12.089844 23.277344 12.148438 23.304688 C 12.1875 23.324219 12.199219 23.367188 12.214844 23.410156 C 12.304688 23.589844 12.449219 23.738281 12.5625 23.910156 C 12.671875 24.078125 12.714844 24.269531 12.722656 24.46875 Z M 13.429688 25.484375 C 13.710938 25.347656 13.886719 25.222656 13.914062 24.761719 C 13.917969 24.375 13.835938 23.980469 13.6875 23.625 C 13.625 23.507812 13.59375 23.382812 13.574219 23.253906 C 13.972656 23.488281 14.371094 23.710938 14.765625 23.929688 C 14.914062 26.019531 14.871094 26.777344 14.644531 27.160156 C 14.21875 26.617188 13.824219 26.050781 13.429688 25.484375 Z M 7.925781 24.265625 C 7.925781 24.128906 7.929688 23.988281 7.941406 23.851562 C 7.941406 23.855469 7.941406 23.859375 7.945312 23.859375 C 7.949219 23.796875 7.953125 23.734375 7.960938 23.675781 C 8.019531 23.273438 8.164062 22.894531 8.460938 22.59375 C 8.789062 22.207031 9.269531 21.828125 9.804688 21.90625 C 10.207031 22.03125 10.632812 22.144531 11.0625 22.097656 C 11.15625 22.101562 11.25 22.089844 11.339844 22.070312 C 11.4375 22.046875 11.53125 22.019531 11.625 21.992188 C 12.164062 22.382812 12.722656 22.742188 13.292969 23.085938 C 13.289062 23.3125 13.347656 23.535156 13.445312 23.742188 C 13.59375 24.125 13.714844 24.570312 13.605469 24.980469 C 13.554688 25.160156 13.425781 25.191406 13.273438 25.261719 C 13.21875 25.285156 13.160156 25.3125 13.105469 25.339844 C 13.089844 25.347656 13.074219 25.355469 13.0625 25.363281 C 12.992188 25.402344 12.921875 25.441406 12.855469 25.488281 C 12.882812 25.390625 12.90625 25.285156 12.929688 25.175781 C 12.929688 25.179688 12.933594 25.179688 12.933594 25.183594 C 12.945312 25.132812 12.949219 25.078125 12.953125 25.027344 C 13.023438 24.574219 13.011719 24.070312 12.761719 23.730469 C 12.675781 23.609375 12.585938 23.496094 12.5 23.375 C 12.421875 23.195312 12.335938 23.066406 12.140625 23.003906 C 12.023438 22.960938 11.90625 22.929688 11.789062 22.902344 C 11.789062 22.902344 11.789062 22.902344 11.789062 22.898438 C 11.699219 22.878906 11.613281 22.863281 11.523438 22.851562 C 10.878906 22.757812 10.199219 22.835938 9.578125 22.984375 C 8.929688 23.070312 8.335938 23.515625 8.015625 24.085938 C 8.015625 24.089844 8.011719 24.089844 8.011719 24.089844 C 7.980469 24.148438 7.953125 24.207031 7.925781 24.265625 Z M 11.078125 21.578125 C 11.1875 21.664062 11.296875 21.746094 11.410156 21.832031 C 11.347656 21.839844 11.285156 21.847656 11.222656 21.851562 C 11.175781 21.761719 11.125 21.667969 11.078125 21.578125 Z M 8.042969 3.355469 C 7.890625 2.984375 7.9375 2.574219 7.824219 2.195312 C 7.773438 2.015625 7.628906 1.890625 7.550781 1.726562 C 7.402344 1.34375 7.382812 0.910156 7.492188 0.519531 C 7.585938 2.152344 8.746094 2.914062 10.289062 3.28125 C 10.296875 3.292969 10.304688 3.300781 10.3125 3.308594 C 10.503906 3.464844 10.742188 3.566406 10.878906 3.777344 C 11 3.953125 11.207031 4.007812 11.394531 4.078125 C 12.140625 4.449219 12.996094 4.351562 13.792969 4.515625 C 13.355469 4.640625 12.917969 4.796875 12.515625 5.015625 C 11.988281 5.332031 11.363281 5.617188 10.746094 5.402344 C 10.601562 5.351562 10.464844 5.285156 10.332031 5.210938 C 9.972656 4.957031 9.644531 4.660156 9.261719 4.433594 C 8.8125 4.132812 8.285156 3.863281 8.042969 3.355469 Z M 18.859375 8.535156 C 18.695312 9.613281 18.09375 10.550781 17.316406 11.296875 C 17.332031 11.082031 17.3125 10.863281 17.269531 10.652344 C 17.214844 10.394531 17.167969 10.117188 16.996094 9.914062 C 16.625 9.542969 15.832031 9.355469 16.414062 8.726562 C 17.382812 7.972656 17.34375 8.574219 17.804688 8.433594 C 18.074219 8.160156 18.671875 7.652344 19.078125 7.835938 C 18.90625 8.027344 18.925781 8.300781 18.859375 8.535156 Z M 16.898438 21.730469 C 17.019531 21.996094 17.105469 22.28125 17.171875 22.558594 C 17.140625 22.453125 17.09375 22.351562 17.046875 22.253906 C 16.953125 22.050781 16.824219 21.851562 16.757812 21.636719 C 16.800781 21.671875 16.847656 21.703125 16.898438 21.730469 Z M 16.707031 21.371094 C 16.730469 21.414062 16.757812 21.453125 16.78125 21.5 C 16.757812 21.46875 16.734375 21.4375 16.707031 21.410156 C 16.707031 21.394531 16.707031 21.382812 16.707031 21.371094 Z M 29.71875 35.113281 C 24.605469 35.164062 19.664062 32.703125 16.21875 28.988281 C 16.488281 28.988281 16.753906 29.03125 17.011719 29.15625 C 17.351562 29.355469 17.726562 29.5 18.050781 29.71875 C 18.167969 29.792969 18.195312 29.960938 18.316406 30.011719 C 18.636719 30.042969 18.394531 29.5 18.429688 29.320312 C 18.40625 28.214844 16.859375 28.214844 16.050781 28.070312 C 16.746094 27.289062 16.765625 26.09375 17.09375 25.132812 C 17.304688 25.640625 17.921875 25.742188 18.394531 25.898438 C 19.851562 26.34375 18.808594 27.335938 20.054688 28.675781 C 20.640625 29.382812 21.335938 29.976562 21.988281 30.613281 C 23.035156 31.414062 24.125 32.28125 25.402344 32.664062 C 25.777344 32.730469 26.765625 33.316406 26.734375 32.566406 C 26.285156 30.9375 24.359375 30.152344 24.058594 28.4375 C 24.304688 28.25 23.996094 27.605469 23.96875 27.324219 C 23.582031 24.96875 22.730469 22.714844 22.375 20.355469 C 22.082031 16.175781 20.332031 14.292969 17.644531 11.34375 C 18.710938 10.234375 18.9375 9.527344 19.238281 8.066406 C 19.980469 7.289062 20.027344 6.027344 19.652344 5.066406 C 18.691406 3.105469 15.140625 3.527344 13.273438 3.371094 C 11.191406 3.28125 7.539062 2.992188 7.742188 0.183594 C 7.660156 -0.179688 7.375 0.0820312 7.300781 0.296875 C 7.101562 0.800781 7.113281 1.398438 7.339844 1.890625 C 7.40625 2.027344 7.53125 2.132812 7.574219 2.285156 C 7.703125 3.777344 8.058594 3.996094 9.273438 4.765625 C 9.792969 5.074219 10.207031 5.550781 10.777344 5.769531 C 10.835938 5.796875 10.917969 5.800781 10.953125 5.863281 C 8.105469 8.167969 6.632812 12.886719 7.601562 16.414062 C 8.007812 18.441406 9.195312 19.992188 10.691406 21.261719 C 10.796875 21.460938 10.898438 21.664062 11.003906 21.863281 C 10.699219 21.863281 10.398438 21.824219 10.109375 21.722656 C 9.9375 21.664062 9.761719 21.613281 9.578125 21.632812 C 8.824219 21.738281 8.222656 22.285156 7.90625 22.964844 C 7.507812 21.605469 7.21875 20.21875 6.90625 18.835938 C 6.878906 18.957031 6.851562 19.078125 6.824219 19.199219 C 7.070312 20.425781 7.308594 21.652344 7.65625 22.855469 C 7.695312 23 7.738281 23.144531 7.777344 23.289062 C 7.683594 23.589844 7.640625 23.902344 7.660156 24.210938 C 7.679688 24.40625 7.550781 25.3125 7.933594 25.074219 C 8.023438 24.886719 8.066406 24.675781 8.132812 24.476562 C 8.863281 26.726562 9.949219 28.851562 11.316406 30.78125 C 11.21875 30.992188 11.136719 31.210938 11.09375 31.445312 C 11.078125 31.671875 10.988281 31.96875 11.144531 32.160156 C 11.234375 32.238281 11.359375 32.183594 11.417969 32.09375 C 11.484375 32.425781 11.1875 33.5625 11.59375 33.609375 C 11.90625 33.585938 11.90625 33.152344 12 32.921875 C 12.078125 32.625 12.160156 32.328125 12.246094 32.03125 C 13.359375 33.453125 14.722656 34.691406 16.304688 35.574219 C 16.429688 35.648438 16.554688 35.71875 16.679688 35.789062 C 16.632812 35.664062 16.589844 35.535156 16.542969 35.410156 C 14.890625 34.503906 13.480469 33.214844 12.339844 31.722656 C 12.769531 30.667969 13.351562 29.300781 14.648438 29.203125 C 15.054688 29.160156 15.476562 29.050781 15.894531 29.007812 C 19.296875 32.765625 24.167969 35.253906 29.273438 35.382812 C 29.527344 35.382812 29.785156 35.371094 30.042969 35.367188 C 30.113281 35.371094 30.175781 35.304688 30.171875 35.238281 C 30.144531 35.023438 29.871094 35.128906 29.71875 35.113281 " fill-opacity="1" fill-rule="nonzero"/></g><path fill="#7ed957" d="M 15.320312 6.96875 C 15.347656 7.023438 15.398438 7.058594 15.457031 7.070312 C 15.539062 7.074219 15.644531 7.074219 15.703125 7.011719 C 16.089844 6.773438 15.679688 6.226562 15.289062 6.507812 C 15.113281 6.628906 15.148438 6.867188 15.320312 6.96875 " fill-opacity="1" fill-rule="nonzero"/></svg>