<svg xmlns="http://www.w3.org/2000/svg" xmlns:xlink="http://www.w3.org/1999/xlink" width="50" zoomAndPan="magnify" viewBox="0 0 37.5 37.499999" height="50" preserveAspectRatio="xMidYMid meet" version="1.0"><defs><g/><clipPath id="d24ed4ccb7"><path d="M 0 16 L 37.007812 16 L 37.007812 37.007812 L 0 37.007812 Z M 0 16 " clip-rule="nonzero"/></clipPath><clipPath id="d496913ef8"><path d="M 6 1.164062 L 31 1.164062 L 31 22.625 L 6 22.625 Z M 6 1.164062 " clip-rule="nonzero"/></clipPath><clipPath id="5ea8341722"><path d="M 6.550781 1.6875 L 30.234375 1.6875 L 30.234375 22 L 6.550781 22 Z M 6.550781 1.6875 " clip-rule="nonzero"/></clipPath></defs><g clip-path="url(#d24ed4ccb7)"><path stroke-linecap="butt" transform="matrix(0.740132, 0, 0, 0.740132, 1.260537, 19.243436)" fill="none" stroke-linejoin="miter" d="M 7.379931 22.170259 C 11.855486 22.170259 14.441598 20.613314 14.462709 17.779148 C 14.48382 13.023869 6.313819 13.852481 6.313819 11.889147 C 6.313819 11.181925 7.401042 10.801925 8.852431 10.823036 C 10.11382 10.844147 11.581042 11.292758 12.689375 12.036925 C 13.053542 12.401092 13.607709 12.253314 13.565486 11.567203 C 13.523264 10.543314 13.39132 9.181647 13.333264 8.157758 C 13.312153 7.904425 13.137986 7.688036 12.884653 7.58248 C 11.327709 7.133869 9.105764 6.896369 7.401042 6.896369 C 3.326597 6.896369 0.893541 8.157758 0.893541 10.970814 C 0.893541 15.388314 8.382708 14.702203 8.361597 16.72887 C 8.361597 17.457203 7.701875 17.969148 6.250486 17.969148 C 4.498264 17.969148 2.709097 17.430814 1.342152 16.238036 C 0.956875 15.836925 0.365763 15.984703 0.365763 16.623314 C 0.386874 17.926925 0.429097 19.357203 0.466041 20.613314 C 0.466041 20.914148 0.640208 21.167481 0.87243 21.257203 C 2.730208 21.806092 5.627708 22.170259 7.379931 22.170259 Z M 18.384098 22.170259 C 19.919931 22.170259 21.302709 21.378592 22.015209 19.48387 C 22.17882 19.077481 22.479654 19.161925 22.458543 19.589425 C 22.41632 20.038037 22.331876 20.739981 22.268543 21.14637 C 22.17882 21.616092 22.521876 21.938037 23.054932 22.00137 C 23.651321 22.064703 24.527432 22.085815 25.107987 22.085815 C 25.699098 22.085815 26.617432 22.064703 27.150487 22.00137 C 27.493543 21.938037 27.704654 21.700537 27.704654 21.33637 C 27.641321 19.183037 27.43021 16.222203 27.234932 14.427758 C 26.981599 11.994703 25.53021 10.226647 21.18132 10.226647 C 18.790487 10.226647 17.127987 10.569703 16.315209 10.844147 C 16.061876 10.949703 15.929931 11.203036 15.90882 11.530258 C 15.845487 12.422203 15.787431 13.572758 15.803264 14.469981 C 15.803264 15.050536 16.251876 15.282759 16.610764 14.897481 C 17.829931 14.063592 19.582154 13.572758 20.690487 13.572758 C 21.904376 13.572758 22.331876 13.958036 22.331876 14.364425 C 22.331876 14.939703 21.629931 15.087481 20.284098 15.261647 C 17.402431 15.599425 15.016875 16.72887 15.016875 18.950814 C 15.016875 21.188592 16.209653 22.170259 18.384098 22.170259 Z M 21.007154 18.523314 C 20.32632 18.523314 20.030765 18.243592 20.030765 17.604981 C 20.030765 16.749981 20.838265 16.137759 21.629931 16.137759 C 22.136598 16.137759 22.395209 16.496647 22.395209 16.96637 C 22.395209 17.948036 21.545487 18.523314 21.007154 18.523314 Z M 31.267154 9.693591 C 32.971877 9.693591 33.847988 8.796369 33.847988 7.58248 C 33.847988 6.389702 32.971877 5.49248 31.267154 5.49248 C 29.583543 5.49248 28.728543 6.389702 28.728543 7.58248 C 28.728543 8.796369 29.583543 9.693591 31.267154 9.693591 Z M 31.330488 22.085815 C 31.863543 22.085815 32.871599 22.064703 33.483821 22.00137 C 33.784655 21.959148 34.043266 21.700537 34.043266 21.378592 C 34.043266 17.219703 33.826877 13.636092 33.615766 10.949703 C 33.594655 10.654147 33.378266 10.437758 33.056321 10.395536 C 32.586599 10.332203 31.736877 10.311092 31.314654 10.311092 C 30.797432 10.311092 30.011043 10.332203 29.47271 10.395536 C 29.177154 10.437758 28.944932 10.654147 28.923821 10.949703 C 28.707432 13.636092 28.496321 17.219703 28.496321 21.378592 C 28.496321 21.700537 28.749654 21.959148 29.071599 22.00137 C 29.71021 22.064703 30.797432 22.085815 31.330488 22.085815 Z M 37.753544 22.085815 C 38.344655 22.085815 39.521599 22.085815 40.096877 22.022481 C 40.418822 21.980259 40.735488 21.700537 40.672155 21.299426 C 40.503266 20.249148 40.350211 18.966648 40.350211 17.647203 C 40.350211 16.026925 41.590488 15.008314 42.804377 15.008314 C 43.807155 15.008314 44.514377 15.388314 45.1741 15.984703 C 45.469655 16.369981 46.007989 16.179981 46.050211 15.662759 C 46.155766 14.364425 46.261322 13.066092 46.345767 11.741369 C 46.345767 11.440536 46.261322 11.181925 46.0291 10.970814 C 45.538266 10.522203 44.836322 10.247758 43.960211 10.247758 C 42.334655 10.247758 41.273822 11.509147 40.735488 13.873592 C 40.635211 14.274703 40.307988 14.25887 40.307988 13.789147 C 40.307988 12.891925 40.397711 12.079147 40.587711 11.102758 C 40.672155 10.754425 40.439933 10.437758 40.033544 10.395536 C 39.563822 10.332203 38.302433 10.311092 37.837988 10.311092 C 37.347155 10.311092 36.428821 10.311092 35.874655 10.395536 C 35.573821 10.437758 35.341599 10.654147 35.320488 10.949703 C 35.040766 13.894703 34.892988 16.818592 34.871877 21.378592 C 34.871877 21.721648 35.130488 21.959148 35.426044 22.00137 C 36.085766 22.043592 37.21521 22.085815 37.753544 22.085815 Z M 37.753544 22.085815 " stroke="#000000" stroke-width="1.599983" stroke-opacity="1" stroke-miterlimit="4"/></g><g fill="#f62121" fill-opacity="1"><g transform="translate(1.260537, 35.52633)"><g><path d="M 5.453125 0.125 C 8.78125 0.125 10.6875 -1.03125 10.703125 -3.125 C 10.71875 -6.640625 4.671875 -6.03125 4.671875 -7.484375 C 4.671875 -8 5.46875 -8.28125 6.546875 -8.265625 C 7.484375 -8.25 8.5625 -7.921875 9.390625 -7.375 C 9.65625 -7.09375 10.0625 -7.21875 10.03125 -7.71875 C 10 -8.46875 9.90625 -9.484375 9.859375 -10.234375 C 9.84375 -10.4375 9.71875 -10.59375 9.53125 -10.671875 C 8.375 -11 6.734375 -11.171875 5.46875 -11.171875 C 2.46875 -11.171875 0.65625 -10.234375 0.65625 -8.15625 C 0.65625 -4.890625 6.203125 -5.390625 6.1875 -3.890625 C 6.1875 -3.359375 5.703125 -2.984375 4.625 -2.984375 C 3.328125 -2.984375 2 -3.375 1 -4.265625 C 0.703125 -4.5625 0.265625 -4.453125 0.265625 -3.984375 C 0.28125 -3.015625 0.3125 -1.953125 0.34375 -1.03125 C 0.34375 -0.8125 0.46875 -0.609375 0.640625 -0.546875 C 2.015625 -0.140625 4.171875 0.125 5.453125 0.125 Z M 5.453125 0.125 "/></g></g></g><g fill="#f62121" fill-opacity="1"><g transform="translate(12.184231, 35.52633)"><g><path d="M 2.6875 0.125 C 3.8125 0.125 4.84375 -0.453125 5.359375 -1.859375 C 5.484375 -2.15625 5.71875 -2.09375 5.703125 -1.78125 C 5.671875 -1.453125 5.609375 -0.9375 5.5625 -0.625 C 5.484375 -0.28125 5.75 -0.046875 6.140625 0 C 6.578125 0.046875 7.234375 0.0625 7.65625 0.0625 C 8.09375 0.0625 8.78125 0.046875 9.171875 0 C 9.421875 -0.046875 9.578125 -0.21875 9.578125 -0.484375 C 9.53125 -2.078125 9.375 -4.28125 9.234375 -5.609375 C 9.046875 -7.40625 7.96875 -8.71875 4.75 -8.71875 C 2.984375 -8.71875 1.75 -8.453125 1.15625 -8.25 C 0.96875 -8.171875 0.875 -7.984375 0.859375 -7.75 C 0.8125 -7.078125 0.75 -6.234375 0.765625 -5.578125 C 0.765625 -5.140625 1.109375 -4.96875 1.375 -5.25 C 2.265625 -5.875 3.5625 -6.234375 4.390625 -6.234375 C 5.28125 -6.234375 5.609375 -5.953125 5.609375 -5.65625 C 5.609375 -5.21875 5.078125 -5.109375 4.09375 -4.984375 C 1.953125 -4.734375 0.1875 -3.890625 0.1875 -2.25 C 0.1875 -0.59375 1.078125 0.125 2.6875 0.125 Z M 4.625 -2.578125 C 4.125 -2.578125 3.890625 -2.78125 3.890625 -3.25 C 3.890625 -3.875 4.5 -4.34375 5.078125 -4.34375 C 5.453125 -4.34375 5.65625 -4.078125 5.65625 -3.71875 C 5.65625 -3 5.015625 -2.578125 4.625 -2.578125 Z M 4.625 -2.578125 "/></g></g></g><g fill="#f62121" fill-opacity="1"><g transform="translate(22.034499, 35.52633)"><g><path d="M 2.359375 -9.109375 C 3.625 -9.109375 4.28125 -9.765625 4.28125 -10.671875 C 4.28125 -11.546875 3.625 -12.21875 2.359375 -12.21875 C 1.125 -12.21875 0.484375 -11.546875 0.484375 -10.671875 C 0.484375 -9.765625 1.125 -9.109375 2.359375 -9.109375 Z M 2.421875 0.0625 C 2.8125 0.0625 3.546875 0.046875 4.015625 0 C 4.234375 -0.03125 4.421875 -0.21875 4.421875 -0.453125 C 4.421875 -3.53125 4.265625 -6.1875 4.109375 -8.171875 C 4.09375 -8.390625 3.921875 -8.546875 3.6875 -8.578125 C 3.34375 -8.625 2.71875 -8.640625 2.40625 -8.640625 C 2.015625 -8.640625 1.4375 -8.625 1.046875 -8.578125 C 0.828125 -8.546875 0.640625 -8.390625 0.625 -8.171875 C 0.46875 -6.1875 0.3125 -3.53125 0.3125 -0.453125 C 0.3125 -0.21875 0.5 -0.03125 0.734375 0 C 1.21875 0.046875 2.015625 0.0625 2.421875 0.0625 Z M 2.421875 0.0625 "/></g></g></g><g fill="#f62121" fill-opacity="1"><g transform="translate(26.785983, 35.52633)"><g><path d="M 2.421875 0.0625 C 2.859375 0.0625 3.71875 0.0625 4.15625 0.015625 C 4.390625 -0.015625 4.625 -0.21875 4.578125 -0.515625 C 4.453125 -1.296875 4.34375 -2.234375 4.34375 -3.21875 C 4.34375 -4.421875 5.25 -5.171875 6.15625 -5.171875 C 6.890625 -5.171875 7.421875 -4.890625 7.90625 -4.453125 C 8.125 -4.171875 8.515625 -4.3125 8.546875 -4.6875 C 8.625 -5.65625 8.71875 -6.609375 8.78125 -7.59375 C 8.78125 -7.8125 8.71875 -8 8.53125 -8.15625 C 8.171875 -8.484375 7.65625 -8.703125 7 -8.703125 C 5.8125 -8.703125 5.015625 -7.765625 4.625 -6.015625 C 4.546875 -5.71875 4.3125 -5.734375 4.3125 -6.078125 C 4.3125 -6.734375 4.375 -7.34375 4.515625 -8.0625 C 4.578125 -8.3125 4.40625 -8.546875 4.109375 -8.578125 C 3.75 -8.625 2.828125 -8.640625 2.484375 -8.640625 C 2.109375 -8.640625 1.4375 -8.640625 1.03125 -8.578125 C 0.8125 -8.546875 0.625 -8.390625 0.609375 -8.171875 C 0.40625 -6 0.296875 -3.828125 0.28125 -0.453125 C 0.28125 -0.203125 0.46875 -0.03125 0.6875 0 C 1.1875 0.03125 2.015625 0.0625 2.421875 0.0625 Z M 2.421875 0.0625 "/></g></g></g><g clip-path="url(#d496913ef8)"><path fill="#000000" d="M 11.722656 8.554688 C 12.398438 10.476562 11.804688 12.433594 10.398438 12.925781 C 8.988281 13.421875 7.300781 12.261719 6.625 10.339844 C 5.949219 8.414062 6.542969 6.457031 7.949219 5.964844 C 9.359375 5.46875 11.046875 6.628906 11.722656 8.554688 Z M 23.058594 22.222656 C 22.4375 22.222656 21.839844 22.105469 21.265625 21.867188 C 20.695312 21.632812 20.1875 21.292969 19.75 20.855469 C 19.585938 20.691406 19.402344 20.566406 19.1875 20.480469 C 18.976562 20.390625 18.753906 20.347656 18.527344 20.347656 C 18.296875 20.347656 18.074219 20.390625 17.863281 20.480469 C 17.652344 20.566406 17.464844 20.691406 17.300781 20.855469 C 17.085938 21.070312 16.847656 21.265625 16.59375 21.433594 C 16.335938 21.605469 16.066406 21.75 15.785156 21.867188 C 15.5 21.984375 15.207031 22.074219 14.90625 22.132812 C 14.605469 22.191406 14.300781 22.222656 13.992188 22.222656 C 13.6875 22.222656 13.382812 22.191406 13.082031 22.132812 C 12.78125 22.074219 12.488281 21.984375 12.203125 21.867188 C 11.917969 21.75 11.648438 21.605469 11.394531 21.433594 C 11.140625 21.265625 10.902344 21.070312 10.6875 20.855469 C 10.46875 20.636719 10.273438 20.402344 10.105469 20.148438 C 9.933594 19.890625 9.789062 19.621094 9.671875 19.339844 C 9.554688 19.054688 9.464844 18.765625 9.40625 18.464844 C 9.34375 18.164062 9.316406 17.859375 9.316406 17.550781 C 9.316406 17.246094 9.34375 16.941406 9.40625 16.640625 C 9.464844 16.339844 9.554688 16.046875 9.671875 15.765625 C 9.789062 15.480469 9.933594 15.214844 10.105469 14.957031 C 10.273438 14.703125 10.46875 14.46875 10.6875 14.25 C 11.199219 13.738281 11.761719 13.277344 12.367188 12.875 C 12.972656 12.46875 13.609375 12.128906 14.28125 11.851562 C 14.957031 11.570312 15.648438 11.363281 16.363281 11.21875 C 17.078125 11.078125 17.796875 11.007812 18.527344 11.007812 C 19.253906 11.007812 19.976562 11.078125 20.6875 11.21875 C 21.402344 11.363281 22.097656 11.570312 22.769531 11.851562 C 23.441406 12.128906 24.082031 12.46875 24.6875 12.875 C 25.292969 13.277344 25.851562 13.738281 26.367188 14.25 C 26.691406 14.578125 26.964844 14.945312 27.183594 15.351562 C 27.402344 15.757812 27.554688 16.1875 27.648438 16.640625 C 27.738281 17.09375 27.757812 17.550781 27.714844 18.011719 C 27.667969 18.46875 27.558594 18.914062 27.378906 19.339844 C 27.203125 19.765625 26.96875 20.15625 26.675781 20.515625 C 26.382812 20.871094 26.042969 21.179688 25.65625 21.433594 C 25.273438 21.691406 24.859375 21.886719 24.417969 22.019531 C 23.972656 22.15625 23.519531 22.222656 23.058594 22.222656 Z M 18.058594 5.355469 C 18.277344 7.675781 17.078125 9.6875 15.378906 9.847656 C 13.683594 10.007812 12.125 8.257812 11.90625 5.9375 C 11.6875 3.617188 12.886719 1.609375 14.585938 1.449219 C 16.28125 1.289062 17.835938 3.039062 18.058594 5.355469 Z M 18.996094 5.355469 C 18.773438 7.675781 19.972656 9.6875 21.671875 9.847656 C 23.371094 10.007812 24.925781 8.257812 25.144531 5.9375 C 25.363281 3.617188 24.167969 1.609375 22.46875 1.449219 C 20.769531 1.289062 19.214844 3.039062 18.996094 5.355469 Z M 25.328125 8.554688 C 24.652344 10.476562 25.246094 12.433594 26.652344 12.925781 C 28.0625 13.421875 29.75 12.261719 30.425781 10.339844 C 31.101562 8.414062 30.507812 6.457031 29.101562 5.964844 C 27.695312 5.46875 26.003906 6.628906 25.328125 8.554688 Z M 25.328125 8.554688 " fill-opacity="1" fill-rule="nonzero"/></g><g clip-path="url(#5ea8341722)"><path fill="#f20f10" d="M 12.042969 8.71875 C 12.683594 10.546875 12.121094 12.410156 10.785156 12.878906 C 9.445312 13.347656 7.84375 12.246094 7.203125 10.417969 C 6.558594 8.585938 7.125 6.722656 8.460938 6.253906 C 9.796875 5.785156 11.402344 6.890625 12.042969 8.71875 Z M 22.804688 21.71875 C 21.578125 21.722656 20.53125 21.289062 19.664062 20.417969 C 19.507812 20.265625 19.332031 20.148438 19.128906 20.0625 C 18.929688 19.980469 18.71875 19.9375 18.5 19.9375 C 18.285156 19.9375 18.074219 19.980469 17.871094 20.0625 C 17.671875 20.148438 17.492188 20.265625 17.339844 20.417969 C 17.132812 20.625 16.910156 20.808594 16.667969 20.972656 C 16.421875 21.132812 16.167969 21.269531 15.898438 21.382812 C 15.628906 21.496094 15.351562 21.578125 15.066406 21.636719 C 14.777344 21.691406 14.488281 21.722656 14.199219 21.722656 C 13.90625 21.722656 13.617188 21.691406 13.332031 21.636719 C 13.046875 21.578125 12.769531 21.496094 12.5 21.382812 C 12.230469 21.269531 11.972656 21.132812 11.730469 20.972656 C 11.488281 20.808594 11.261719 20.625 11.058594 20.417969 C 10.851562 20.214844 10.667969 19.988281 10.503906 19.746094 C 10.34375 19.503906 10.207031 19.246094 10.09375 18.976562 C 9.984375 18.710938 9.898438 18.429688 9.84375 18.144531 C 9.785156 17.859375 9.757812 17.570312 9.757812 17.277344 C 9.757812 16.988281 9.785156 16.699219 9.84375 16.410156 C 9.898438 16.125 9.984375 15.847656 10.09375 15.578125 C 10.207031 15.308594 10.34375 15.054688 10.503906 14.8125 C 10.667969 14.570312 10.851562 14.34375 11.058594 14.136719 C 11.546875 13.648438 12.078125 13.210938 12.652344 12.828125 C 13.226562 12.445312 13.835938 12.121094 14.472656 11.855469 C 15.109375 11.589844 15.769531 11.390625 16.449219 11.253906 C 17.125 11.121094 17.808594 11.054688 18.5 11.054688 C 19.191406 11.054688 19.878906 11.121094 20.554688 11.253906 C 21.234375 11.390625 21.890625 11.589844 22.53125 11.855469 C 23.167969 12.121094 23.777344 12.445312 24.351562 12.828125 C 24.925781 13.210938 25.457031 13.648438 25.945312 14.136719 C 26.253906 14.449219 26.515625 14.796875 26.722656 15.183594 C 26.929688 15.570312 27.074219 15.980469 27.160156 16.410156 C 27.246094 16.84375 27.269531 17.277344 27.226562 17.714844 C 27.183594 18.152344 27.078125 18.574219 26.910156 18.980469 C 26.738281 19.382812 26.515625 19.757812 26.238281 20.097656 C 25.960938 20.4375 25.636719 20.726562 25.273438 20.972656 C 24.90625 21.214844 24.515625 21.402344 24.09375 21.53125 C 23.671875 21.65625 23.242188 21.71875 22.804688 21.71875 Z M 18.054688 5.679688 C 18.265625 7.882812 17.128906 9.796875 15.515625 9.949219 C 13.902344 10.101562 12.425781 8.4375 12.21875 6.230469 C 12.007812 4.023438 13.144531 2.113281 14.757812 1.960938 C 16.371094 1.808594 17.847656 3.472656 18.054688 5.679688 Z M 18.945312 5.679688 C 18.738281 7.882812 19.875 9.796875 21.488281 9.949219 C 23.101562 10.101562 24.578125 8.4375 24.785156 6.230469 C 24.996094 4.023438 23.855469 2.113281 22.242188 1.960938 C 20.632812 1.808594 19.15625 3.472656 18.945312 5.679688 Z M 24.960938 8.71875 C 24.316406 10.546875 24.882812 12.410156 26.21875 12.878906 C 27.554688 13.347656 29.160156 12.246094 29.800781 10.417969 C 30.441406 8.585938 29.878906 6.722656 28.542969 6.253906 C 27.207031 5.785156 25.601562 6.890625 24.960938 8.71875 Z M 24.960938 8.71875 " fill-opacity="1" fill-rule="nonzero"/></g></svg>