<svg xmlns="http://www.w3.org/2000/svg" xmlns:xlink="http://www.w3.org/1999/xlink" width="50" zoomAndPan="magnify" viewBox="0 0 37.5 37.499999" height="50" preserveAspectRatio="xMidYMid meet" version="1.0"><defs><clipPath id="76ec08809b"><path d="M 5.574219 0 L 31.480469 0 L 31.480469 37 L 5.574219 37 Z M 5.574219 0 " clip-rule="nonzero"/></clipPath><clipPath id="ab69144b0a"><path d="M 5.953125 0.542969 L 31.117188 0.542969 L 31.117188 36.808594 L 5.953125 36.808594 Z M 5.953125 0.542969 " clip-rule="nonzero"/></clipPath><clipPath id="70bd139a4e"><path d="M 11.546875 18.503906 L 26.347656 18.503906 L 26.347656 33.304688 L 11.546875 33.304688 Z M 11.546875 18.503906 " clip-rule="nonzero"/></clipPath><clipPath id="2df42bacba"><path d="M 14.636719 25.21875 L 22.800781 25.21875 L 22.800781 31.398438 L 14.636719 31.398438 Z M 14.636719 25.21875 " clip-rule="nonzero"/></clipPath><clipPath id="694b93cec4"><path d="M 11.546875 23 L 15 23 L 15 28 L 11.546875 28 Z M 11.546875 23 " clip-rule="nonzero"/></clipPath><clipPath id="e931f78e90"><path d="M 14 20.402344 L 18 20.402344 L 18 25 L 14 25 Z M 14 20.402344 " clip-rule="nonzero"/></clipPath><clipPath id="e5cf3ef6de"><path d="M 19 20.402344 L 22 20.402344 L 22 25 L 19 25 Z M 19 20.402344 " clip-rule="nonzero"/></clipPath><clipPath id="c9469abad6"><path d="M 22 23 L 25.609375 23 L 25.609375 28 L 22 28 Z M 22 23 " clip-rule="nonzero"/></clipPath></defs><g clip-path="url(#76ec08809b)"><path fill="#000000" d="M 29.191406 33.640625 C 29.191406 33.925781 29.074219 34.183594 28.882812 34.378906 C 28.683594 34.574219 28.429688 34.6875 28.140625 34.6875 L 8.914062 34.6875 C 8.625 34.6875 8.367188 34.574219 8.171875 34.378906 C 7.980469 34.183594 7.863281 33.929688 7.863281 33.640625 L 7.863281 18.277344 C 7.863281 17.992188 7.980469 17.734375 8.171875 17.539062 C 8.367188 17.347656 8.625 17.230469 8.914062 17.230469 L 28.140625 17.230469 C 28.425781 17.230469 28.683594 17.347656 28.882812 17.539062 C 29.074219 17.738281 29.191406 17.992188 29.191406 18.277344 Z M 12.773438 4.335938 C 14.027344 3.089844 15.746094 2.320312 17.660156 2.320312 L 19.398438 2.320312 C 21.308594 2.320312 23.027344 3.089844 24.28125 4.335938 C 25.53125 5.589844 26.300781 7.304688 26.300781 9.210938 L 26.300781 14.945312 L 10.753906 14.945312 L 10.753906 9.210938 C 10.753906 7.304688 11.523438 5.589844 12.773438 4.335938 Z M 28.59375 14.980469 L 28.59375 9.210938 C 28.589844 4.140625 24.476562 0.0351562 19.398438 0.03125 L 17.660156 0.03125 C 12.578125 0.0351562 8.464844 4.140625 8.464844 9.210938 L 8.464844 14.980469 C 6.832031 15.203125 5.578125 16.59375 5.574219 18.277344 L 5.574219 33.640625 C 5.578125 35.480469 7.070312 36.96875 8.914062 36.972656 L 28.140625 36.972656 C 29.984375 36.96875 31.476562 35.484375 31.480469 33.640625 L 31.480469 18.277344 C 31.476562 16.59375 30.222656 15.207031 28.59375 14.980469 " fill-opacity="1" fill-rule="nonzero"/></g><path fill="#000000" d="M 20.816406 23.863281 C 20.816406 22.601562 19.792969 21.578125 18.527344 21.578125 C 17.261719 21.578125 16.238281 22.601562 16.238281 23.863281 C 16.238281 24.796875 16.796875 25.59375 17.597656 25.949219 L 15.964844 30.339844 L 21.089844 30.339844 L 19.457031 25.949219 C 20.257812 25.59375 20.816406 24.796875 20.816406 23.863281 " fill-opacity="1" fill-rule="nonzero"/><g clip-path="url(#ab69144b0a)"><path fill="#7ed957" d="M 28.832031 33.191406 C 28.832031 33.46875 28.71875 33.71875 28.53125 33.910156 C 28.339844 34.097656 28.09375 34.207031 27.8125 34.207031 L 9.1875 34.207031 C 8.90625 34.207031 8.660156 34.097656 8.46875 33.910156 C 8.28125 33.71875 8.171875 33.472656 8.171875 33.191406 L 8.171875 18.285156 C 8.171875 18.003906 8.28125 17.757812 8.46875 17.566406 C 8.660156 17.378906 8.90625 17.265625 9.1875 17.265625 L 27.8125 17.265625 C 28.089844 17.265625 28.339844 17.378906 28.53125 17.566406 C 28.71875 17.757812 28.832031 18.007812 28.832031 18.285156 Z M 12.929688 4.753906 C 14.144531 3.542969 15.808594 2.796875 17.660156 2.792969 L 19.34375 2.792969 C 21.195312 2.796875 22.859375 3.542969 24.074219 4.753906 C 25.285156 5.96875 26.03125 7.632812 26.035156 9.484375 L 26.035156 15.046875 L 10.96875 15.046875 L 10.96875 9.484375 C 10.96875 7.632812 11.714844 5.96875 12.929688 4.753906 Z M 28.25 15.082031 L 28.25 9.484375 C 28.25 4.5625 24.261719 0.578125 19.34375 0.578125 L 17.660156 0.578125 C 12.738281 0.578125 8.75 4.5625 8.75 9.484375 L 8.75 15.082031 C 7.171875 15.300781 5.957031 16.648438 5.953125 18.285156 L 5.953125 33.191406 C 5.957031 34.976562 7.402344 36.421875 9.1875 36.425781 L 27.8125 36.425781 C 29.597656 36.421875 31.046875 34.980469 31.050781 33.191406 L 31.050781 18.285156 C 31.046875 16.644531 29.828125 15.300781 28.25 15.082031 " fill-opacity="1" fill-rule="nonzero"/></g><path fill="#7ed957" d="M 20.71875 23.703125 C 20.71875 22.480469 19.726562 21.484375 18.5 21.484375 C 17.277344 21.484375 16.28125 22.480469 16.28125 23.703125 C 16.28125 24.605469 16.824219 25.382812 17.597656 25.726562 L 16.015625 29.988281 L 20.984375 29.988281 L 19.402344 25.726562 C 20.175781 25.382812 20.71875 24.605469 20.71875 23.703125 " fill-opacity="1" fill-rule="nonzero"/><g clip-path="url(#70bd139a4e)"><path fill="#ffffff" d="M 26.347656 25.90625 C 26.347656 26.390625 26.300781 26.871094 26.207031 27.347656 C 26.109375 27.824219 25.972656 28.289062 25.785156 28.738281 C 25.597656 29.1875 25.371094 29.613281 25.101562 30.015625 C 24.832031 30.421875 24.523438 30.792969 24.179688 31.136719 C 23.835938 31.480469 23.460938 31.789062 23.058594 32.058594 C 22.65625 32.328125 22.226562 32.554688 21.777344 32.742188 C 21.332031 32.929688 20.867188 33.070312 20.390625 33.164062 C 19.914062 33.257812 19.433594 33.304688 18.945312 33.304688 C 18.460938 33.304688 17.980469 33.257812 17.503906 33.164062 C 17.027344 33.070312 16.5625 32.929688 16.113281 32.742188 C 15.664062 32.554688 15.238281 32.328125 14.835938 32.058594 C 14.429688 31.789062 14.058594 31.480469 13.714844 31.136719 C 13.371094 30.792969 13.0625 30.421875 12.792969 30.015625 C 12.523438 29.613281 12.296875 29.1875 12.109375 28.738281 C 11.921875 28.289062 11.78125 27.824219 11.6875 27.347656 C 11.59375 26.871094 11.546875 26.390625 11.546875 25.90625 C 11.546875 25.417969 11.59375 24.9375 11.6875 24.460938 C 11.78125 23.984375 11.921875 23.519531 12.109375 23.070312 C 12.296875 22.625 12.523438 22.195312 12.792969 21.792969 C 13.0625 21.386719 13.371094 21.015625 13.714844 20.671875 C 14.058594 20.328125 14.429688 20.019531 14.835938 19.75 C 15.238281 19.480469 15.664062 19.253906 16.113281 19.066406 C 16.5625 18.878906 17.027344 18.742188 17.503906 18.644531 C 17.980469 18.550781 18.460938 18.503906 18.945312 18.503906 C 19.433594 18.503906 19.914062 18.550781 20.390625 18.644531 C 20.867188 18.742188 21.332031 18.878906 21.777344 19.066406 C 22.226562 19.253906 22.65625 19.480469 23.058594 19.75 C 23.460938 20.019531 23.835938 20.328125 24.179688 20.671875 C 24.523438 21.015625 24.832031 21.386719 25.101562 21.792969 C 25.371094 22.195312 25.597656 22.625 25.785156 23.070312 C 25.972656 23.519531 26.109375 23.984375 26.207031 24.460938 C 26.300781 24.9375 26.347656 25.417969 26.347656 25.90625 Z M 26.347656 25.90625 " fill-opacity="1" fill-rule="nonzero"/></g><g clip-path="url(#2df42bacba)"><path fill="#7ed957" d="M 16.4375 27.363281 C 15.785156 28.019531 14.378906 28.363281 14.699219 30.070312 C 15.027344 31.804688 17.433594 31.359375 18.6875 31.320312 C 19.355469 31.300781 22.101562 31.8125 22.644531 30.433594 C 23.117188 29.226562 22.335938 28.417969 21.152344 27.46875 C 20.09375 26.621094 19.792969 25.210938 18.566406 25.222656 C 17.421875 25.234375 16.835938 26.960938 16.4375 27.363281 " fill-opacity="1" fill-rule="nonzero"/></g><g clip-path="url(#694b93cec4)"><path fill="#7ed957" d="M 14.210938 24.777344 C 14.882812 25.535156 15.011719 26.492188 14.496094 26.921875 C 13.980469 27.347656 13.019531 27.078125 12.34375 26.320312 C 11.671875 25.5625 11.546875 24.601562 12.058594 24.175781 C 12.574219 23.75 13.539062 24.019531 14.210938 24.777344 " fill-opacity="1" fill-rule="nonzero"/></g><g clip-path="url(#e931f78e90)"><path fill="#7ed957" d="M 17.488281 22.386719 C 17.8125 23.476562 17.507812 24.519531 16.8125 24.710938 C 16.113281 24.902344 15.289062 24.175781 14.96875 23.085938 C 14.644531 21.996094 14.949219 20.953125 15.644531 20.761719 C 16.339844 20.566406 17.167969 21.296875 17.488281 22.386719 " fill-opacity="1" fill-rule="nonzero"/></g><g clip-path="url(#e5cf3ef6de)"><path fill="#7ed957" d="M 21.699219 22.859375 C 21.378906 23.925781 20.566406 24.640625 19.890625 24.453125 C 19.214844 24.269531 18.929688 23.253906 19.25 22.183594 C 19.574219 21.117188 20.386719 20.402344 21.0625 20.585938 C 21.738281 20.773438 22.023438 21.789062 21.699219 22.859375 " fill-opacity="1" fill-rule="nonzero"/></g><g clip-path="url(#c9469abad6)"><path fill="#7ed957" d="M 24.621094 26.285156 C 23.914062 27.101562 22.898438 27.402344 22.351562 26.960938 C 21.800781 26.515625 21.929688 25.496094 22.636719 24.679688 C 23.34375 23.863281 24.359375 23.558594 24.910156 24.003906 C 25.457031 24.445312 25.328125 25.46875 24.621094 26.285156 " fill-opacity="1" fill-rule="nonzero"/></g></svg>