<svg xmlns="http://www.w3.org/2000/svg" xmlns:xlink="http://www.w3.org/1999/xlink" width="1920" zoomAndPan="magnify" viewBox="0 0 1440 809.999993" height="1080" preserveAspectRatio="xMidYMid meet" version="1.0"><defs><g/><clipPath id="19d429e26c"><path d="M 861 346 L 939 346 L 939 414 L 861 414 Z M 861 346 " clip-rule="nonzero"/></clipPath><clipPath id="e7b1488541"><path d="M 858.71875 348.75 L 938.035156 343.339844 L 942.675781 411.433594 L 863.363281 416.839844 Z M 858.71875 348.75 " clip-rule="nonzero"/></clipPath><clipPath id="39e81ea9b0"><path d="M 858.71875 348.75 L 938.035156 343.339844 L 942.675781 411.433594 L 863.363281 416.839844 Z M 858.71875 348.75 " clip-rule="nonzero"/></clipPath><clipPath id="d8e60b9c2a"><path d="M 861 346 L 933 346 L 933 409 L 861 409 Z M 861 346 " clip-rule="nonzero"/></clipPath><clipPath id="8918e20abc"><path d="M 858.71875 348.75 L 932.046875 343.75 L 936.332031 406.605469 L 863.003906 411.605469 Z M 858.71875 348.75 " clip-rule="nonzero"/></clipPath><clipPath id="ca4ee9d82c"><path d="M 858.71875 348.75 L 932.046875 343.75 L 936.332031 406.605469 L 863.003906 411.605469 Z M 858.71875 348.75 " clip-rule="nonzero"/></clipPath><clipPath id="5d9f30090e"><path d="M 496 398 L 574 398 L 574 468 L 496 468 Z M 496 398 " clip-rule="nonzero"/></clipPath><clipPath id="88ee7843ba"><path d="M 577.488281 461.238281 L 498.710938 471.945312 L 489.519531 404.320312 L 568.296875 393.613281 Z M 577.488281 461.238281 " clip-rule="nonzero"/></clipPath><clipPath id="3dc50cb81a"><path d="M 577.488281 461.238281 L 498.710938 471.945312 L 489.519531 404.320312 L 568.296875 393.613281 Z M 577.488281 461.238281 " clip-rule="nonzero"/></clipPath><clipPath id="9c63556b1f"><path d="M 502 402 L 574 402 L 574 467 L 502 467 Z M 502 402 " clip-rule="nonzero"/></clipPath><clipPath id="ced9086cf0"><path d="M 577.5 461.242188 L 504.667969 471.140625 L 496.183594 408.714844 L 569.015625 398.816406 Z M 577.5 461.242188 " clip-rule="nonzero"/></clipPath><clipPath id="8e52486d2c"><path d="M 577.5 461.242188 L 504.667969 471.140625 L 496.183594 408.714844 L 569.015625 398.816406 Z M 577.5 461.242188 " clip-rule="nonzero"/></clipPath></defs><g clip-path="url(#19d429e26c)"><g clip-path="url(#e7b1488541)"><g clip-path="url(#39e81ea9b0)"><path fill="#7ed957" d="M 878.621094 370.933594 C 881.175781 376.886719 879.71875 383.226562 875.371094 385.089844 C 871.023438 386.957031 865.421875 383.644531 862.871094 377.695312 C 860.316406 371.742188 861.769531 365.40625 866.121094 363.539062 C 870.46875 361.671875 876.066406 364.984375 878.621094 370.933594 Z M 917.449219 411.828125 C 915.484375 411.964844 913.570312 411.71875 911.707031 411.09375 C 909.839844 410.464844 908.167969 409.503906 906.683594 408.207031 C 906.414062 407.96875 906.121094 407.761719 905.808594 407.582031 C 905.496094 407.402344 905.167969 407.253906 904.824219 407.140625 C 904.484375 407.027344 904.132812 406.945312 903.777344 406.898438 C 903.417969 406.851562 903.0625 406.839844 902.699219 406.867188 C 902.339844 406.890625 901.988281 406.949219 901.640625 407.042969 C 901.289062 407.140625 900.957031 407.265625 900.632812 407.425781 C 900.308594 407.585938 900.003906 407.777344 899.71875 407.996094 C 899.433594 408.21875 899.171875 408.464844 898.9375 408.734375 C 898.296875 409.46875 897.589844 410.136719 896.816406 410.730469 C 896.046875 411.324219 895.222656 411.839844 894.351562 412.273438 C 893.476562 412.707031 892.570312 413.050781 891.632812 413.304688 C 890.691406 413.558594 889.734375 413.71875 888.761719 413.785156 C 887.789062 413.851562 886.820312 413.824219 885.855469 413.699219 C 884.886719 413.574219 883.941406 413.355469 883.019531 413.046875 C 882.09375 412.734375 881.210938 412.335938 880.367188 411.851562 C 879.519531 411.367188 878.730469 410.804688 877.996094 410.164062 C 877.261719 409.523438 876.597656 408.816406 876.003906 408.042969 C 875.40625 407.273438 874.890625 406.449219 874.460938 405.578125 C 874.027344 404.707031 873.683594 403.796875 873.425781 402.859375 C 873.171875 401.917969 873.011719 400.960938 872.945312 399.988281 C 872.878906 399.015625 872.910156 398.046875 873.035156 397.082031 C 873.160156 396.113281 873.375 395.167969 873.6875 394.246094 C 873.996094 393.320312 874.394531 392.4375 874.882812 391.59375 C 875.367188 390.746094 875.929688 389.957031 876.570312 389.222656 C 877.328125 388.355469 878.125 387.527344 878.960938 386.734375 C 879.800781 385.945312 880.675781 385.199219 881.589844 384.496094 C 882.5 383.789062 883.445312 383.132812 884.421875 382.523438 C 885.398438 381.910156 886.402344 381.347656 887.433594 380.835938 C 888.464844 380.324219 889.519531 379.863281 890.597656 379.453125 C 891.675781 379.046875 892.769531 378.691406 893.882812 378.390625 C 894.992188 378.089844 896.117188 377.84375 897.253906 377.652344 C 898.390625 377.460938 899.53125 377.328125 900.679688 377.25 C 901.832031 377.171875 902.980469 377.148438 904.132812 377.183594 C 905.285156 377.21875 906.429688 377.308594 907.574219 377.457031 C 908.714844 377.605469 909.847656 377.808594 910.972656 378.066406 C 912.09375 378.324219 913.203125 378.636719 914.292969 379.003906 C 915.386719 379.375 916.457031 379.792969 917.507812 380.265625 C 918.558594 380.738281 919.582031 381.261719 920.582031 381.835938 C 921.578125 382.410156 922.546875 383.03125 923.488281 383.699219 C 924.425781 384.367188 925.328125 385.082031 926.195312 385.839844 C 926.746094 386.320312 927.257812 386.835938 927.730469 387.390625 C 928.203125 387.945312 928.636719 388.535156 929.023438 389.152344 C 929.410156 389.773438 929.75 390.414062 930.039062 391.085938 C 930.332031 391.753906 930.574219 392.441406 930.765625 393.144531 C 930.957031 393.847656 931.09375 394.5625 931.179688 395.289062 C 931.265625 396.011719 931.296875 396.738281 931.273438 397.46875 C 931.253906 398.199219 931.175781 398.921875 931.046875 399.640625 C 930.917969 400.359375 930.738281 401.066406 930.507812 401.757812 C 930.273438 402.449219 929.992188 403.121094 929.660156 403.769531 C 929.328125 404.417969 928.949219 405.042969 928.527344 405.636719 C 928.101562 406.230469 927.636719 406.789062 927.132812 407.316406 C 926.625 407.84375 926.082031 408.328125 925.503906 408.773438 C 924.929688 409.21875 924.320312 409.621094 923.683594 409.976562 C 923.046875 410.332031 922.386719 410.640625 921.703125 410.898438 C 921.023438 411.15625 920.324219 411.367188 919.609375 411.519531 C 918.898438 411.675781 918.175781 411.78125 917.449219 411.828125 Z M 897.976562 359.433594 C 899.171875 366.738281 895.8125 373.375 890.476562 374.25 C 885.136719 375.125 879.835938 369.910156 878.636719 362.601562 C 877.441406 355.296875 880.796875 348.664062 886.140625 347.789062 C 891.476562 346.914062 896.777344 352.125 897.976562 359.433594 Z M 900.945312 359.230469 C 900.75 366.632812 904.976562 372.75 910.386719 372.890625 C 915.796875 373.03125 920.335938 367.148438 920.53125 359.746094 C 920.726562 352.34375 916.5 346.230469 911.089844 346.085938 C 905.683594 345.945312 901.136719 351.828125 900.945312 359.230469 Z M 921.679688 368 C 919.957031 374.242188 922.257812 380.324219 926.820312 381.582031 C 931.382812 382.84375 936.480469 378.800781 938.203125 372.558594 C 939.925781 366.316406 937.625 360.234375 933.0625 358.972656 C 928.5 357.714844 923.402344 361.753906 921.679688 368 Z M 921.679688 368 " fill-opacity="1" fill-rule="nonzero"/></g></g></g><g clip-path="url(#d8e60b9c2a)"><g clip-path="url(#8918e20abc)"><g clip-path="url(#ca4ee9d82c)"><path fill="#5019dd" d="M 877.125 369.265625 C 879.488281 374.769531 878.140625 380.632812 874.117188 382.355469 C 870.097656 384.082031 864.917969 381.019531 862.558594 375.519531 C 860.195312 370.011719 861.539062 364.152344 865.5625 362.425781 C 869.585938 360.699219 874.761719 363.761719 877.125 369.265625 Z M 913.035156 407.085938 C 911.21875 407.210938 909.449219 406.984375 907.722656 406.40625 C 905.996094 405.824219 904.449219 404.933594 903.078125 403.734375 C 902.828125 403.515625 902.558594 403.324219 902.269531 403.15625 C 901.980469 402.992188 901.675781 402.855469 901.359375 402.75 C 901.042969 402.644531 900.722656 402.566406 900.390625 402.527344 C 900.058594 402.484375 899.726562 402.472656 899.394531 402.496094 C 899.0625 402.519531 898.734375 402.574219 898.414062 402.660156 C 898.089844 402.746094 897.78125 402.867188 897.480469 403.015625 C 897.183594 403.164062 896.902344 403.339844 896.636719 403.542969 C 896.375 403.746094 896.132812 403.972656 895.914062 404.226562 C 895.320312 404.902344 894.667969 405.519531 893.953125 406.070312 C 893.242188 406.621094 892.480469 407.09375 891.671875 407.496094 C 890.867188 407.898438 890.027344 408.214844 889.15625 408.449219 C 888.289062 408.6875 887.402344 408.835938 886.503906 408.894531 C 885.605469 408.957031 884.707031 408.929688 883.8125 408.8125 C 882.921875 408.699219 882.046875 408.496094 881.191406 408.210938 C 880.339844 407.921875 879.519531 407.554688 878.738281 407.105469 C 877.957031 406.65625 877.226562 406.136719 876.546875 405.542969 C 875.867188 404.953125 875.253906 404.300781 874.703125 403.585938 C 874.152344 402.871094 873.675781 402.113281 873.277344 401.304688 C 872.875 400.496094 872.558594 399.660156 872.320312 398.789062 C 872.085938 397.917969 871.9375 397.035156 871.875 396.136719 C 871.816406 395.234375 871.84375 394.339844 871.957031 393.445312 C 872.074219 392.550781 872.273438 391.675781 872.5625 390.824219 C 872.847656 389.96875 873.21875 389.152344 873.664062 388.371094 C 874.113281 387.589844 874.636719 386.859375 875.226562 386.179688 C 875.929688 385.375 876.664062 384.609375 877.441406 383.878906 C 878.214844 383.148438 879.027344 382.457031 879.871094 381.804688 C 880.714844 381.15625 881.585938 380.546875 882.488281 379.980469 C 883.394531 379.417969 884.320312 378.894531 885.277344 378.421875 C 886.230469 377.949219 887.203125 377.523438 888.199219 377.144531 C 889.195312 376.765625 890.210938 376.4375 891.238281 376.160156 C 892.265625 375.882812 893.304688 375.652344 894.355469 375.476562 C 895.40625 375.300781 896.464844 375.175781 897.527344 375.105469 C 898.589844 375.03125 899.652344 375.011719 900.71875 375.042969 C 901.785156 375.074219 902.84375 375.160156 903.902344 375.296875 C 904.957031 375.433594 906.003906 375.621094 907.042969 375.859375 C 908.082031 376.097656 909.105469 376.390625 910.117188 376.730469 C 911.125 377.070312 912.117188 377.457031 913.085938 377.894531 C 914.058594 378.332031 915.007812 378.816406 915.929688 379.347656 C 916.855469 379.878906 917.75 380.453125 918.617188 381.070312 C 919.484375 381.6875 920.320312 382.347656 921.125 383.050781 C 922.148438 383.941406 923.019531 384.960938 923.738281 386.113281 C 924.457031 387.265625 924.996094 388.496094 925.351562 389.804688 C 925.703125 391.113281 925.863281 392.449219 925.820312 393.804688 C 925.78125 395.160156 925.542969 396.484375 925.109375 397.769531 C 924.675781 399.054688 924.066406 400.253906 923.28125 401.359375 C 922.492188 402.464844 921.558594 403.429688 920.484375 404.257812 C 919.410156 405.089844 918.238281 405.742188 916.96875 406.226562 C 915.699219 406.707031 914.390625 406.992188 913.035156 407.085938 Z M 895.023438 358.628906 C 896.132812 365.386719 893.027344 371.519531 888.089844 372.328125 C 883.148438 373.136719 878.246094 368.316406 877.140625 361.558594 C 876.03125 354.800781 879.136719 348.667969 884.078125 347.859375 C 889.015625 347.046875 893.917969 351.871094 895.023438 358.628906 Z M 897.769531 358.441406 C 897.589844 365.285156 901.5 370.941406 906.503906 371.074219 C 911.503906 371.207031 915.707031 365.761719 915.886719 358.914062 C 916.066406 352.070312 912.15625 346.414062 907.152344 346.285156 C 902.152344 346.152344 897.949219 351.59375 897.769531 358.441406 Z M 916.945312 366.550781 C 915.355469 372.324219 917.480469 377.949219 921.703125 379.113281 C 925.921875 380.277344 930.636719 376.539062 932.230469 370.765625 C 933.824219 364.992188 931.695312 359.367188 927.472656 358.203125 C 923.253906 357.039062 918.542969 360.773438 916.945312 366.550781 Z M 916.945312 366.550781 " fill-opacity="1" fill-rule="nonzero"/></g></g></g><g clip-path="url(#5d9f30090e)"><g clip-path="url(#88ee7843ba)"><g clip-path="url(#3dc50cb81a)"><path fill="#7ed957" d="M 556.144531 440.4375 C 553.199219 434.671875 554.226562 428.246094 558.441406 426.09375 C 562.65625 423.941406 568.460938 426.871094 571.410156 432.636719 C 574.355469 438.402344 573.328125 444.824219 569.113281 446.980469 C 564.898438 449.132812 559.09375 446.203125 556.144531 440.4375 Z M 514.664062 402.234375 C 516.617188 401.964844 518.542969 402.082031 520.445312 402.585938 C 522.347656 403.085938 524.082031 403.933594 525.648438 405.125 C 525.9375 405.34375 526.242188 405.535156 526.566406 405.691406 C 526.890625 405.851562 527.226562 405.976562 527.574219 406.066406 C 527.921875 406.160156 528.277344 406.214844 528.636719 406.238281 C 528.996094 406.261719 529.355469 406.246094 529.714844 406.199219 C 530.070312 406.148438 530.417969 406.066406 530.761719 405.949219 C 531.101562 405.832031 531.429688 405.683594 531.738281 405.5 C 532.050781 405.320312 532.34375 405.109375 532.613281 404.871094 C 532.882812 404.632812 533.125 404.367188 533.34375 404.082031 C 533.933594 403.304688 534.59375 402.59375 535.324219 401.949219 C 536.054688 401.304688 536.839844 400.734375 537.683594 400.246094 C 538.523438 399.753906 539.40625 399.351562 540.328125 399.03125 C 541.25 398.714844 542.191406 398.492188 543.15625 398.359375 C 544.125 398.230469 545.09375 398.195312 546.066406 398.253906 C 547.039062 398.3125 547.996094 398.46875 548.9375 398.714844 C 549.878906 398.964844 550.789062 399.300781 551.664062 399.730469 C 552.539062 400.15625 553.367188 400.664062 554.140625 401.253906 C 554.917969 401.84375 555.628906 402.503906 556.273438 403.234375 C 556.917969 403.964844 557.488281 404.75 557.976562 405.59375 C 558.46875 406.433594 558.871094 407.316406 559.191406 408.238281 C 559.507812 409.160156 559.730469 410.101562 559.863281 411.070312 C 559.992188 412.035156 560.027344 413.003906 559.96875 413.976562 C 559.910156 414.949219 559.753906 415.90625 559.507812 416.847656 C 559.257812 417.789062 558.921875 418.699219 558.492188 419.574219 C 558.066406 420.453125 557.558594 421.277344 556.96875 422.050781 C 556.269531 422.96875 555.53125 423.851562 554.746094 424.695312 C 553.960938 425.539062 553.140625 426.34375 552.277344 427.105469 C 551.414062 427.871094 550.515625 428.589844 549.582031 429.265625 C 548.648438 429.9375 547.683594 430.566406 546.6875 431.148438 C 545.695312 431.726562 544.671875 432.257812 543.625 432.738281 C 542.578125 433.21875 541.507812 433.644531 540.421875 434.019531 C 539.332031 434.394531 538.226562 434.714844 537.105469 434.980469 C 535.984375 435.25 534.851562 435.460938 533.710938 435.613281 C 532.570312 435.769531 531.421875 435.867188 530.273438 435.910156 C 529.121094 435.953125 527.96875 435.9375 526.820312 435.867188 C 525.671875 435.796875 524.527344 435.671875 523.390625 435.488281 C 522.253906 435.304688 521.125 435.066406 520.011719 434.773438 C 518.898438 434.480469 517.800781 434.132812 516.722656 433.730469 C 515.640625 433.328125 514.585938 432.875 513.550781 432.371094 C 512.515625 431.863281 511.507812 431.308594 510.527344 430.707031 C 509.542969 430.101562 508.597656 429.449219 507.679688 428.75 C 507.097656 428.308594 506.554688 427.828125 506.042969 427.304688 C 505.535156 426.785156 505.066406 426.226562 504.636719 425.636719 C 504.210938 425.042969 503.828125 424.425781 503.492188 423.777344 C 503.15625 423.128906 502.867188 422.460938 502.632812 421.769531 C 502.394531 421.078125 502.207031 420.375 502.074219 419.65625 C 501.941406 418.941406 501.859375 418.21875 501.832031 417.488281 C 501.804688 416.757812 501.832031 416.03125 501.914062 415.304688 C 501.992188 414.578125 502.125 413.863281 502.3125 413.160156 C 502.5 412.453125 502.734375 411.765625 503.023438 411.09375 C 503.308594 410.421875 503.644531 409.777344 504.027344 409.15625 C 504.410156 408.535156 504.835938 407.945312 505.308594 407.386719 C 505.777344 406.828125 506.285156 406.304688 506.832031 405.824219 C 507.378906 405.339844 507.957031 404.898438 508.570312 404.5 C 509.179688 404.101562 509.820312 403.75 510.484375 403.449219 C 511.144531 403.144531 511.828125 402.890625 512.53125 402.6875 C 513.230469 402.484375 513.941406 402.332031 514.664062 402.234375 Z M 537.605469 453.207031 C 535.921875 446 538.828125 439.15625 544.09375 437.925781 C 549.367188 436.695312 555.003906 441.542969 556.6875 448.753906 C 558.371094 455.960938 555.464844 462.804688 550.195312 464.035156 C 544.925781 465.265625 539.289062 460.417969 537.605469 453.207031 Z M 534.65625 453.609375 C 534.355469 446.210938 529.726562 440.390625 524.320312 440.613281 C 518.914062 440.832031 514.777344 447.007812 515.078125 454.410156 C 515.378906 461.804688 520.003906 467.625 525.414062 467.402344 C 530.816406 467.183594 534.957031 461.007812 534.65625 453.609375 Z M 513.378906 446.25 C 514.679688 439.90625 511.976562 433.988281 507.339844 433.039062 C 502.703125 432.089844 497.890625 436.460938 496.585938 442.804688 C 495.285156 449.152344 497.988281 455.066406 502.628906 456.015625 C 507.265625 456.96875 512.078125 452.59375 513.378906 446.25 Z M 513.378906 446.25 " fill-opacity="1" fill-rule="nonzero"/></g></g></g><g clip-path="url(#9c63556b1f)"><g clip-path="url(#ced9086cf0)"><g clip-path="url(#8e52486d2c)"><path fill="#5019dd" d="M 557.761719 442.007812 C 555.035156 436.671875 555.984375 430.734375 559.882812 428.742188 C 563.78125 426.75 569.152344 429.460938 571.875 434.792969 C 574.601562 440.125 573.652344 446.066406 569.753906 448.058594 C 565.855469 450.050781 560.484375 447.339844 557.761719 442.007812 Z M 519.398438 406.675781 C 521.203125 406.425781 522.984375 406.535156 524.746094 407 C 526.503906 407.460938 528.109375 408.246094 529.554688 409.351562 C 529.820312 409.550781 530.105469 409.726562 530.402344 409.871094 C 530.703125 410.019531 531.015625 410.132812 531.335938 410.21875 C 531.660156 410.304688 531.988281 410.359375 532.320312 410.378906 C 532.652344 410.398438 532.984375 410.386719 533.316406 410.339844 C 533.644531 410.296875 533.96875 410.21875 534.285156 410.109375 C 534.597656 410.003906 534.902344 409.863281 535.1875 409.695312 C 535.476562 409.527344 535.746094 409.332031 535.996094 409.113281 C 536.246094 408.890625 536.472656 408.648438 536.671875 408.382812 C 537.21875 407.664062 537.828125 407.007812 538.503906 406.410156 C 539.179688 405.8125 539.90625 405.289062 540.683594 404.835938 C 541.464844 404.382812 542.277344 404.007812 543.132812 403.714844 C 543.984375 403.421875 544.855469 403.214844 545.75 403.09375 C 546.640625 402.972656 547.539062 402.9375 548.4375 402.992188 C 549.335938 403.046875 550.222656 403.191406 551.09375 403.421875 C 551.964844 403.648438 552.808594 403.960938 553.617188 404.359375 C 554.425781 404.753906 555.191406 405.222656 555.90625 405.769531 C 556.625 406.316406 557.28125 406.925781 557.878906 407.601562 C 558.476562 408.277344 559 409.003906 559.457031 409.78125 C 559.910156 410.558594 560.28125 411.375 560.574219 412.226562 C 560.871094 413.078125 561.078125 413.953125 561.199219 414.84375 C 561.320312 415.738281 561.351562 416.632812 561.296875 417.535156 C 561.242188 418.433594 561.097656 419.320312 560.871094 420.191406 C 560.640625 421.0625 560.328125 421.902344 559.933594 422.710938 C 559.539062 423.523438 559.066406 424.285156 558.519531 425.003906 C 557.875 425.851562 557.191406 426.667969 556.464844 427.445312 C 555.742188 428.226562 554.980469 428.972656 554.183594 429.675781 C 553.382812 430.382812 552.554688 431.046875 551.691406 431.671875 C 550.828125 432.296875 549.933594 432.878906 549.015625 433.414062 C 548.09375 433.953125 547.148438 434.441406 546.179688 434.886719 C 545.214844 435.328125 544.226562 435.726562 543.21875 436.070312 C 542.210938 436.417969 541.1875 436.714844 540.152344 436.960938 C 539.113281 437.207031 538.070312 437.402344 537.011719 437.546875 C 535.957031 437.691406 534.898438 437.78125 533.832031 437.820312 C 532.769531 437.859375 531.703125 437.847656 530.640625 437.78125 C 529.578125 437.714844 528.519531 437.597656 527.46875 437.429688 C 526.414062 437.261719 525.375 437.039062 524.34375 436.769531 C 523.3125 436.496094 522.300781 436.175781 521.300781 435.804688 C 520.300781 435.433594 519.324219 435.011719 518.367188 434.546875 C 517.410156 434.078125 516.476562 433.566406 515.570312 433.003906 C 514.664062 432.445312 513.785156 431.84375 512.9375 431.199219 C 511.855469 430.378906 510.917969 429.417969 510.125 428.316406 C 509.328125 427.214844 508.710938 426.023438 508.269531 424.742188 C 507.828125 423.457031 507.582031 422.136719 507.53125 420.78125 C 507.480469 419.425781 507.628906 418.089844 507.972656 416.777344 C 508.320312 415.464844 508.847656 414.230469 509.5625 413.074219 C 510.273438 411.921875 511.136719 410.894531 512.152344 409.992188 C 513.171875 409.09375 514.296875 408.363281 515.53125 407.796875 C 516.765625 407.230469 518.054688 406.855469 519.398438 406.675781 Z M 540.613281 453.816406 C 539.054688 447.148438 541.746094 440.820312 546.617188 439.683594 C 551.488281 438.542969 556.703125 443.027344 558.261719 449.695312 C 559.820312 456.363281 557.132812 462.691406 552.257812 463.832031 C 547.382812 464.96875 542.171875 460.488281 540.613281 453.816406 Z M 537.886719 454.1875 C 537.609375 447.347656 533.328125 441.964844 528.328125 442.167969 C 523.328125 442.371094 519.5 448.085938 519.78125 454.925781 C 520.058594 461.769531 524.335938 467.148438 529.335938 466.945312 C 534.335938 466.742188 538.164062 461.03125 537.886719 454.1875 Z M 518.210938 447.382812 C 519.414062 441.515625 516.914062 436.042969 512.625 435.164062 C 508.335938 434.285156 503.882812 438.332031 502.679688 444.195312 C 501.476562 450.066406 503.976562 455.535156 508.265625 456.414062 C 512.554688 457.292969 517.003906 453.25 518.210938 447.382812 Z M 518.210938 447.382812 " fill-opacity="1" fill-rule="nonzero"/></g></g></g><path stroke-linecap="butt" transform="matrix(0.75, 0, 0, 0.75, -74.502705, 323.342435)" fill="none" stroke-linejoin="miter" d="M 821.139065 152.126761 C 851.930733 152.126761 869.873442 140.09551 869.873442 110.397592 C 870.008859 93.480925 867.618234 71.059049 865.670317 56.501756 C 865.227609 54.55384 863.69115 53.288214 861.87865 53.012173 C 857.946358 52.605923 851.383858 52.434048 847.863025 52.434048 C 844.378649 52.434048 836.415107 52.605923 832.482816 53.012173 C 830.227607 53.288214 828.27969 55.100715 828.691149 57.49134 C 831.222399 72.736132 833.305732 91.631966 833.170316 104.928842 C 833.029691 114.736134 829.545315 122.428843 821.139065 122.428843 C 812.732815 122.428843 809.243231 114.876759 809.107814 104.928842 C 808.972398 91.49655 810.779689 72.595507 813.446356 57.49134 C 813.993231 55.100715 811.909898 53.288214 809.654689 53.012173 C 805.894273 52.605923 798.170314 52.434048 794.685939 52.434048 C 791.029688 52.434048 784.191146 52.605923 780.39948 53.012173 C 778.451563 53.288214 776.915104 54.55384 776.639063 56.501756 C 774.519271 70.923632 772.300521 93.480925 772.300521 110.397592 C 772.300521 140.09551 790.206772 152.126761 821.139065 152.126761 Z M 913.248445 151.991344 C 938.743238 151.991344 952.857822 143.585094 952.857822 129.163218 C 952.857822 103.116342 910.446361 109.131967 910.446361 100.314258 C 910.446361 96.9653 914.784903 95.017383 923.191153 95.1528 C 929.753654 95.293425 937.342196 97.376758 942.639071 100.314258 C 945.034905 102.126759 947.836988 101.168425 947.696363 97.647592 C 947.560946 92.350716 946.982821 85.616341 946.571363 80.460091 C 946.435946 78.751757 945.305738 77.381966 943.628654 76.798632 C 935.086987 74.850716 922.336987 73.861132 913.383861 73.861132 C 890.279693 73.861132 877.123443 80.460091 877.123443 95.017383 C 877.123443 120.345509 916.185945 114.465301 916.185945 123.418426 C 916.185945 127.074676 912.566153 128.887177 904.977611 128.887177 C 897.149485 128.887177 887.784902 126.22051 880.060943 121.199676 C 877.842193 119.215301 874.488026 119.934051 874.321359 123.28301 C 874.180734 130.152802 874.045318 136.715302 874.180734 143.585094 C 874.180734 145.392386 875.310943 146.658011 877.123443 147.204886 C 887.066152 150.006969 901.764069 151.991344 913.248445 151.991344 Z M 986.060948 152.126761 C 997.238032 152.126761 1005.779699 145.121552 1010.123449 132.236135 C 1011.113033 129.569468 1013.196366 129.710093 1013.196366 132.647593 C 1013.196366 136.986135 1012.649491 140.918427 1011.524491 146.798636 C 1010.977616 149.324678 1013.06095 150.725719 1015.144283 151.001761 C 1019.488033 151.408011 1026.081784 151.548636 1030.014075 151.548636 C 1033.769284 151.548636 1040.503659 151.548636 1043.993243 151.001761 C 1046.248451 150.590303 1047.649493 148.913219 1047.649493 146.522594 C 1047.649493 125.673635 1046.930743 105.37155 1044.84741 78.918424 C 1044.706785 76.798632 1043.170326 75.126757 1041.050534 74.850716 C 1037.290117 74.408007 1032.097409 74.27259 1028.613034 74.27259 C 1024.951575 74.27259 1017.81095 74.408007 1014.050533 74.850716 C 1011.659908 75.262174 1010.123449 76.798632 1010.394283 79.194466 C 1011.524491 88.012175 1012.206783 99.49655 1012.206783 105.918425 C 1012.206783 115.147593 1008.993241 123.829885 1002.566157 123.829885 C 995.560949 123.829885 992.488032 116.001759 992.488032 107.048634 C 992.488032 99.767383 994.02449 88.970508 995.972407 79.194466 C 996.550532 76.798632 994.706782 75.126757 992.347407 74.850716 C 988.420323 74.408007 981.139073 74.27259 977.790114 74.27259 C 974.576573 74.27259 968.118239 74.408007 964.493239 74.850716 C 962.373447 75.126757 961.11303 76.527799 960.836989 78.751757 C 959.024489 89.824675 957.48803 107.319467 957.217197 117.814259 C 957.352613 140.642385 967.435947 152.126761 986.060948 152.126761 Z M 1095.232829 68.121549 C 1097.899496 68.121549 1099.711996 67.298632 1101.389079 65.319465 L 1112.185955 53.423631 C 1115.26408 50.486131 1113.998455 47.272589 1109.383871 47.272589 L 1098.175537 47.272589 C 1095.232829 47.272589 1093.284912 48.397589 1092.024495 50.892381 L 1086.691162 61.970507 C 1084.607828 65.454882 1086.144287 68.121549 1090.347412 68.121549 Z M 1073.941161 152.126761 C 1084.024495 152.126761 1093.118245 146.934052 1097.764079 134.491344 C 1098.857829 131.824677 1100.842204 132.371552 1100.701579 135.173635 C 1100.394287 138.116344 1099.847412 142.730927 1099.441162 145.392386 C 1098.857829 148.470511 1101.113037 150.590303 1104.597413 151.001761 C 1108.529704 151.408011 1114.269288 151.548636 1118.066163 151.548636 C 1121.961997 151.548636 1127.977622 151.408011 1131.498456 151.001761 C 1133.717206 150.590303 1135.118247 149.053844 1135.118247 146.658011 C 1134.711997 132.512177 1133.305747 113.064259 1132.045331 101.303842 C 1130.368247 85.345508 1120.831788 73.725715 1092.295329 73.725715 C 1076.607828 73.725715 1065.706786 75.980924 1060.373452 77.793424 C 1058.701577 78.475716 1057.84741 80.152799 1057.706785 82.267383 C 1057.300535 88.147591 1056.889077 95.699675 1057.024493 101.579884 C 1057.024493 105.37155 1059.961994 106.913217 1062.321369 104.381967 C 1070.321369 98.913217 1081.800536 95.699675 1089.081787 95.699675 C 1097.045329 95.699675 1099.847412 98.230925 1099.847412 100.897592 C 1099.847412 104.658009 1095.232829 105.647592 1086.41512 106.772592 C 1067.519286 108.996551 1051.831785 116.413218 1051.831785 130.97051 C 1051.831785 145.668427 1059.69116 152.126761 1073.941161 152.126761 Z M 1091.16512 128.168427 C 1086.691162 128.168427 1084.743245 126.355926 1084.743245 122.152801 C 1084.743245 116.548634 1090.04012 112.517384 1095.232829 112.517384 C 1098.581787 112.517384 1100.258871 114.876759 1100.258871 117.949676 C 1100.258871 124.40801 1094.685954 128.168427 1091.16512 128.168427 Z M 1158.935957 151.548636 C 1162.83179 151.548636 1170.555749 151.548636 1174.316166 151.137178 C 1176.430749 150.861136 1178.519291 149.053844 1178.107833 146.387177 C 1176.977625 139.517385 1175.988041 131.111135 1175.988041 122.428843 C 1175.988041 111.798634 1184.123458 105.100717 1192.087 105.100717 C 1198.680751 105.100717 1203.295334 107.595509 1207.639084 111.527801 C 1209.587001 114.053842 1213.107835 112.788217 1213.378668 109.408009 C 1214.097418 100.897592 1214.77971 92.350716 1215.326585 83.668424 C 1215.326585 81.689258 1214.77971 80.012174 1213.243251 78.611132 C 1210.02971 75.673632 1205.415126 73.861132 1199.675542 73.861132 C 1189.008875 73.861132 1182.040125 82.131966 1178.519291 97.647592 C 1177.831791 100.314258 1175.717208 100.178842 1175.717208 97.100717 C 1175.717208 91.225716 1176.295333 85.892383 1177.5245 79.465299 C 1178.107833 77.210091 1176.571374 75.126757 1173.904708 74.850716 C 1170.826583 74.408007 1162.555749 74.27259 1159.482832 74.27259 C 1156.26929 74.27259 1150.253665 74.27259 1146.597415 74.850716 C 1144.649498 75.126757 1143.107831 76.527799 1142.972414 78.475716 C 1141.128664 97.819467 1140.170331 116.991343 1140.034914 146.934052 C 1140.034914 149.189261 1141.706789 150.725719 1143.654706 151.001761 C 1147.998456 151.272594 1155.415123 151.548636 1158.935957 151.548636 Z M 1237.863044 70.24134 C 1249.071378 70.24134 1254.810962 64.361132 1254.810962 56.361131 C 1254.810962 48.538214 1249.071378 42.658006 1237.863044 42.658006 C 1226.821377 42.658006 1221.21721 48.538214 1221.21721 56.361131 C 1221.21721 64.361132 1226.821377 70.24134 1237.863044 70.24134 Z M 1238.305753 151.548636 C 1241.790128 151.548636 1248.389086 151.408011 1252.420337 151.001761 C 1254.404712 150.725719 1256.076587 149.053844 1256.076587 146.934052 C 1256.076587 119.626759 1254.675545 96.111133 1253.274503 78.475716 C 1253.139087 76.527799 1251.738045 75.126757 1249.618253 74.850716 C 1246.540128 74.408007 1240.972419 74.27259 1238.170336 74.27259 C 1234.784919 74.27259 1229.623461 74.408007 1226.102627 74.850716 C 1224.15471 75.126757 1222.618252 76.527799 1222.482835 78.475716 C 1221.081793 96.111133 1219.680752 119.626759 1219.680752 146.934052 C 1219.680752 149.053844 1221.352627 150.725719 1223.472419 151.001761 C 1227.644294 151.408011 1234.784919 151.548636 1238.305753 151.548636 Z M 1303.956798 152.126761 C 1329.144299 152.126761 1347.05055 141.908011 1347.05055 115.012176 C 1347.05055 89.68405 1329.279716 73.725715 1303.956798 73.725715 C 1278.597421 73.725715 1260.685962 89.68405 1260.685962 115.012176 C 1260.685962 141.908011 1278.764088 152.126761 1303.956798 152.126761 Z M 1303.956798 127.621552 C 1297.087006 127.621552 1292.19638 122.017385 1292.19638 113.064259 C 1292.19638 104.381967 1296.946381 98.095508 1303.956798 98.095508 C 1310.962006 98.095508 1315.712006 104.381967 1315.712006 113.064259 C 1315.712006 122.017385 1310.82659 127.621552 1303.956798 127.621552 Z M 1303.956798 127.621552 " stroke="#7ed957" stroke-width="10.4997" stroke-opacity="1" stroke-miterlimit="4"/><g fill="#5019dd" fill-opacity="1"><g transform="translate(502.926953, 436.592429)"><g><path d="M 38.4375 0.84375 C 61.53125 0.84375 74.96875 -8.1875 74.96875 -30.453125 C 75.078125 -43.15625 73.296875 -59.953125 71.8125 -70.875 C 71.5 -72.34375 70.34375 -73.296875 68.984375 -73.5 C 66.046875 -73.8125 61.109375 -73.921875 58.484375 -73.921875 C 55.859375 -73.921875 49.875 -73.8125 46.9375 -73.5 C 45.25 -73.296875 43.78125 -71.921875 44.09375 -70.140625 C 45.984375 -58.6875 47.5625 -44.515625 47.453125 -34.546875 C 47.359375 -27.1875 44.734375 -21.421875 38.4375 -21.421875 C 32.125 -21.421875 29.5 -27.09375 29.40625 -34.546875 C 29.296875 -44.625 30.65625 -58.796875 32.65625 -70.140625 C 33.078125 -71.921875 31.5 -73.296875 29.8125 -73.5 C 26.984375 -73.8125 21.203125 -73.921875 18.578125 -73.921875 C 15.859375 -73.921875 10.703125 -73.8125 7.875 -73.5 C 6.40625 -73.296875 5.25 -72.34375 5.046875 -70.875 C 3.46875 -60.0625 1.78125 -43.15625 1.78125 -30.453125 C 1.78125 -8.1875 15.21875 0.84375 38.4375 0.84375 Z M 38.4375 0.84375 "/></g></g></g><g fill="#5019dd" fill-opacity="1"><g transform="translate(579.673375, 436.592429)"><g><path d="M 30.765625 0.734375 C 49.875 0.734375 60.484375 -5.5625 60.484375 -16.375 C 60.484375 -35.90625 28.671875 -31.390625 28.671875 -38.015625 C 28.671875 -40.53125 31.921875 -42 38.21875 -41.890625 C 43.15625 -41.796875 48.828125 -40.21875 52.8125 -38.015625 C 54.59375 -36.640625 56.703125 -37.375 56.59375 -40 C 56.484375 -44 56.0625 -49.03125 55.75 -52.921875 C 55.65625 -54.1875 54.8125 -55.234375 53.546875 -55.65625 C 47.140625 -57.125 37.59375 -57.859375 30.875 -57.859375 C 13.546875 -57.859375 3.671875 -52.921875 3.671875 -42 C 3.671875 -23 32.96875 -27.40625 32.96875 -20.6875 C 32.96875 -17.953125 30.234375 -16.59375 24.5625 -16.59375 C 18.6875 -16.59375 11.65625 -18.578125 5.875 -22.359375 C 4.203125 -23.828125 1.6875 -23.3125 1.578125 -20.796875 C 1.46875 -15.640625 1.359375 -10.703125 1.46875 -5.5625 C 1.46875 -4.203125 2.3125 -3.25 3.671875 -2.828125 C 11.125 -0.734375 22.15625 0.734375 30.765625 0.734375 Z M 30.765625 0.734375 "/></g></g></g><g fill="#5019dd" fill-opacity="1"><g transform="translate(641.511465, 436.592429)"><g><path d="M 23.515625 0.84375 C 31.921875 0.84375 38.328125 -4.40625 41.578125 -14.0625 C 42.3125 -16.0625 43.890625 -15.953125 43.890625 -13.75 C 43.890625 -10.5 43.46875 -7.5625 42.625 -3.15625 C 42.203125 -1.265625 43.78125 -0.203125 45.359375 0 C 48.609375 0.3125 53.546875 0.421875 56.484375 0.421875 C 59.328125 0.421875 64.359375 0.421875 66.984375 0 C 68.671875 -0.3125 69.71875 -1.578125 69.71875 -3.359375 C 69.71875 -19 69.1875 -34.234375 67.625 -54.078125 C 67.515625 -55.65625 66.359375 -56.90625 64.78125 -57.125 C 61.953125 -57.4375 58.0625 -57.546875 55.4375 -57.546875 C 52.703125 -57.546875 47.359375 -57.4375 44.515625 -57.125 C 42.734375 -56.8125 41.578125 -55.65625 41.796875 -53.859375 C 42.625 -47.25 43.15625 -38.640625 43.15625 -33.8125 C 43.15625 -26.875 40.734375 -20.375 35.90625 -20.375 C 30.65625 -20.375 28.34375 -26.25 28.34375 -32.96875 C 28.34375 -38.4375 29.5 -46.515625 30.96875 -53.859375 C 31.390625 -55.65625 30.03125 -56.90625 28.25 -57.125 C 25.3125 -57.4375 19.84375 -57.546875 17.328125 -57.546875 C 14.90625 -57.546875 10.078125 -57.4375 7.34375 -57.125 C 5.78125 -56.90625 4.828125 -55.859375 4.625 -54.1875 C 3.25 -45.890625 2.09375 -32.765625 1.890625 -24.890625 C 2 -7.765625 9.5625 0.84375 23.515625 0.84375 Z M 23.515625 0.84375 "/></g></g></g><g fill="#5019dd" fill-opacity="1"><g transform="translate(713.113481, 436.592429)"><g><path d="M 33.8125 -62.15625 C 35.8125 -62.15625 37.171875 -62.796875 38.4375 -64.265625 L 46.515625 -73.1875 C 48.828125 -75.390625 47.875 -77.8125 44.421875 -77.8125 L 36.015625 -77.8125 C 33.8125 -77.8125 32.34375 -76.96875 31.390625 -75.078125 L 27.40625 -66.78125 C 25.828125 -64.15625 26.984375 -62.15625 30.140625 -62.15625 Z M 17.84375 0.84375 C 25.40625 0.84375 32.234375 -3.046875 35.703125 -12.390625 C 36.546875 -14.390625 38.015625 -13.96875 37.90625 -11.859375 C 37.6875 -9.65625 37.28125 -6.1875 36.953125 -4.203125 C 36.546875 -1.890625 38.21875 -0.3125 40.84375 0 C 43.78125 0.3125 48.09375 0.421875 50.921875 0.421875 C 53.859375 0.421875 58.375 0.3125 61 0 C 62.6875 -0.3125 63.734375 -1.46875 63.734375 -3.25 C 63.421875 -13.859375 62.375 -28.453125 61.421875 -37.28125 C 60.171875 -49.25 53.03125 -57.953125 31.609375 -57.953125 C 19.84375 -57.953125 11.65625 -56.28125 7.671875 -54.921875 C 6.40625 -54.390625 5.78125 -53.125 5.671875 -51.5625 C 5.359375 -47.140625 5.046875 -41.46875 5.140625 -37.0625 C 5.140625 -34.234375 7.34375 -33.078125 9.140625 -34.96875 C 15.125 -39.0625 23.734375 -41.46875 29.1875 -41.46875 C 35.171875 -41.46875 37.28125 -39.578125 37.28125 -37.59375 C 37.28125 -34.75 33.8125 -34.015625 27.1875 -33.1875 C 13.015625 -31.5 1.265625 -25.9375 1.265625 -15.015625 C 1.265625 -3.984375 7.140625 0.84375 17.84375 0.84375 Z M 30.765625 -17.109375 C 27.40625 -17.109375 25.9375 -18.484375 25.9375 -21.625 C 25.9375 -25.828125 29.921875 -28.875 33.8125 -28.875 C 36.328125 -28.875 37.59375 -27.09375 37.59375 -24.78125 C 37.59375 -19.953125 33.390625 -17.109375 30.765625 -17.109375 Z M 30.765625 -17.109375 "/></g></g></g><g fill="#5019dd" fill-opacity="1"><g transform="translate(778.626165, 436.592429)"><g><path d="M 16.0625 0.421875 C 19 0.421875 24.78125 0.421875 27.609375 0.109375 C 29.1875 -0.109375 30.765625 -1.46875 30.453125 -3.46875 C 29.609375 -8.609375 28.875 -14.90625 28.875 -21.421875 C 28.875 -29.40625 34.96875 -34.4375 40.953125 -34.4375 C 45.890625 -34.4375 49.34375 -32.546875 52.609375 -29.609375 C 54.078125 -27.71875 56.703125 -28.671875 56.90625 -31.1875 C 57.4375 -37.59375 57.953125 -44 58.375 -50.5 C 58.375 -51.96875 57.953125 -53.234375 56.8125 -54.28125 C 54.390625 -56.484375 50.921875 -57.859375 46.625 -57.859375 C 38.640625 -57.859375 33.390625 -51.65625 30.765625 -40 C 30.234375 -38.015625 28.671875 -38.109375 28.671875 -40.421875 C 28.671875 -44.828125 29.078125 -48.828125 30.03125 -53.65625 C 30.453125 -55.328125 29.296875 -56.90625 27.296875 -57.125 C 24.984375 -57.4375 18.796875 -57.546875 16.484375 -57.546875 C 14.0625 -57.546875 9.5625 -57.546875 6.828125 -57.125 C 5.359375 -56.90625 4.203125 -55.859375 4.09375 -54.390625 C 2.734375 -39.90625 2 -25.515625 1.890625 -3.046875 C 1.890625 -1.359375 3.15625 -0.203125 4.625 0 C 7.875 0.203125 13.4375 0.421875 16.0625 0.421875 Z M 16.0625 0.421875 "/></g></g></g><g fill="#5019dd" fill-opacity="1"><g transform="translate(838.154505, 436.592429)"><g><path d="M 15.75 -60.578125 C 24.15625 -60.578125 28.453125 -65 28.453125 -70.984375 C 28.453125 -76.859375 24.15625 -81.265625 15.75 -81.265625 C 7.453125 -81.265625 3.25 -76.859375 3.25 -70.984375 C 3.25 -65 7.453125 -60.578125 15.75 -60.578125 Z M 16.0625 0.421875 C 18.6875 0.421875 23.625 0.3125 26.671875 0 C 28.140625 -0.203125 29.40625 -1.46875 29.40625 -3.046875 C 29.40625 -23.515625 28.34375 -41.15625 27.296875 -54.390625 C 27.1875 -55.859375 26.140625 -56.90625 24.5625 -57.125 C 22.265625 -57.4375 18.0625 -57.546875 15.953125 -57.546875 C 13.4375 -57.546875 9.5625 -57.4375 6.9375 -57.125 C 5.453125 -56.90625 4.3125 -55.859375 4.203125 -54.390625 C 3.15625 -41.15625 2.09375 -23.515625 2.09375 -3.046875 C 2.09375 -1.46875 3.359375 -0.203125 4.9375 0 C 8.078125 0.3125 13.4375 0.421875 16.0625 0.421875 Z M 16.0625 0.421875 "/></g></g></g><g fill="#5019dd" fill-opacity="1"><g transform="translate(869.75599, 436.592429)"><g><path d="M 33.703125 0.84375 C 52.609375 0.84375 66.046875 -6.828125 66.046875 -26.984375 C 66.046875 -45.984375 52.703125 -57.953125 33.703125 -57.953125 C 14.703125 -57.953125 1.265625 -45.984375 1.265625 -26.984375 C 1.265625 -6.828125 14.8125 0.84375 33.703125 0.84375 Z M 33.703125 -17.53125 C 28.5625 -17.53125 24.890625 -21.734375 24.890625 -28.453125 C 24.890625 -34.96875 28.453125 -39.6875 33.703125 -39.6875 C 38.953125 -39.6875 42.53125 -34.96875 42.53125 -28.453125 C 42.53125 -21.734375 38.84375 -17.53125 33.703125 -17.53125 Z M 33.703125 -17.53125 "/></g></g></g></svg>