<svg xmlns="http://www.w3.org/2000/svg" xmlns:xlink="http://www.w3.org/1999/xlink" width="50" zoomAndPan="magnify" viewBox="0 0 37.5 37.499999" height="50" preserveAspectRatio="xMidYMid meet" version="1.0"><defs><clipPath id="694a3eb5a2"><path d="M 0.410156 0 L 36.675781 0 L 36.675781 37.007812 L 0.410156 37.007812 Z M 0.410156 0 " clip-rule="nonzero"/></clipPath><clipPath id="681ec8516a"><path d="M 0.894531 0.511719 L 36.421875 0.511719 L 36.421875 37.007812 L 0.894531 37.007812 Z M 0.894531 0.511719 " clip-rule="nonzero"/></clipPath></defs><path fill="#7ed957" d="M 18.503906 9.414062 C 14.503906 9.414062 11.265625 12.816406 11.265625 17.015625 C 11.265625 21.214844 14.503906 24.617188 18.503906 24.617188 C 22.5 24.617188 25.738281 21.214844 25.738281 17.015625 C 25.738281 12.816406 22.5 9.414062 18.503906 9.414062 " fill-opacity="1" fill-rule="nonzero"/><g clip-path="url(#694a3eb5a2)"><path fill="#7ed957" d="M 30.523438 32.136719 C 28.917969 28.226562 25.554688 25.777344 18.492188 25.777344 C 11.4375 25.777344 8.074219 28.21875 6.46875 32.121094 C 3.199219 28.8125 1.167969 24.164062 1.167969 19.019531 C 1.167969 8.960938 8.929688 0.808594 18.503906 0.808594 C 28.078125 0.808594 35.835938 8.960938 35.835938 19.019531 C 35.835938 24.171875 33.796875 28.824219 30.523438 32.136719 Z M 18.503906 0.0117188 C 8.507812 0.0117188 0.410156 8.523438 0.410156 19.019531 C 0.410156 24.507812 2.625 29.453125 6.167969 32.921875 C 9.398438 36.085938 13.734375 38.023438 18.503906 38.023438 C 23.261719 38.023438 27.589844 36.09375 30.820312 32.9375 C 34.371094 29.46875 36.597656 24.515625 36.597656 19.019531 C 36.597656 8.523438 28.496094 0.0117188 18.503906 0.0117188 " fill-opacity="1" fill-rule="nonzero"/></g><path fill="#5019dd" d="M 18.503906 9.675781 C 14.613281 9.675781 11.460938 12.984375 11.460938 17.070312 C 11.460938 21.15625 14.613281 24.46875 18.503906 24.46875 C 22.394531 24.46875 25.546875 21.15625 25.546875 17.070312 C 25.546875 12.984375 22.394531 9.675781 18.503906 9.675781 " fill-opacity="1" fill-rule="nonzero"/><g clip-path="url(#681ec8516a)"><path fill="#5019dd" d="M 30.199219 31.789062 C 28.640625 27.980469 25.367188 25.597656 18.492188 25.597656 C 11.628906 25.597656 8.351562 27.972656 6.792969 31.773438 C 3.613281 28.550781 1.632812 24.027344 1.632812 19.019531 C 1.632812 9.234375 9.1875 1.300781 18.503906 1.300781 C 27.820312 1.300781 35.375 9.234375 35.375 19.019531 C 35.375 24.035156 33.390625 28.566406 30.199219 31.789062 Z M 18.503906 0.527344 C 8.777344 0.527344 0.894531 8.804688 0.894531 19.019531 C 0.894531 24.363281 3.050781 29.175781 6.5 32.554688 C 9.644531 35.632812 13.863281 37.515625 18.503906 37.515625 C 23.132812 37.515625 27.347656 35.636719 30.488281 32.566406 C 33.949219 29.191406 36.113281 24.371094 36.113281 19.019531 C 36.113281 8.804688 28.226562 0.527344 18.503906 0.527344 " fill-opacity="1" fill-rule="nonzero"/></g></svg>